<svg xmlns="http://www.w3.org/2000/svg" xmlns:xlink="http://www.w3.org/1999/xlink" viewBox="0 0 156.2 23.02"><defs><style>.cls-1{fill:#fff;}.cls-2{fill:url(#linear-gradient);}.cls-3{fill:#422222;stroke:#422222;}.cls-3,.cls-4{stroke-miterlimit:10;}.cls-4{fill:none;stroke:#000;}.cls-5{fill:url(#linear-gradient-2);}</style><linearGradient id="linear-gradient" x1="120.14" y1="20.8" x2="126.72" y2="-5.74" gradientUnits="userSpaceOnUse"><stop offset="0" stop-color="#873f3f"/><stop offset="1" stop-color="#9d6464"/></linearGradient><linearGradient id="linear-gradient-2" x1="214.8" y1="20.33" x2="221.38" y2="-6.21" gradientTransform="matrix(-1, 0, 0, 1, 250.86, 0)" xlink:href="#linear-gradient"/></defs><g id="Layer_2" data-name="Layer 2"><g id="Layer_76" data-name="Layer 76"><path class="cls-1" d="M95.58,15.74a50.24,50.24,0,0,1,57.26-7.92c-8.64,5.23-17.62,10.23-27.48,12.44S104.54,21.57,95.58,15.74Z"/><path class="cls-2" d="M110.62,6.36a13.15,13.15,0,0,0,7.08,13.45A13.14,13.14,0,0,0,132.63,17a13.14,13.14,0,0,0,1.67-15.1Z"/><path class="cls-3" d="M117.47,3.33a6.73,6.73,0,0,0,1.39,8.49,6.72,6.72,0,0,0,8.6-.34,6.72,6.72,0,0,0,.72-8.57"/><path d="M94.75,17.1c3.28-6.91,9.8-12,17-14.45S126.86,0,134.42,1.14a108.17,108.17,0,0,1,21.78,6c-7.34.76-14.56-1.88-21.88-2.82C120.36,2.54,105.71,7.27,94.75,17.1Z"/><path d="M96.77,15.1A31.92,31.92,0,0,0,111,20.77c7.34,1,14.85-.57,21.71-3.37A107.17,107.17,0,0,0,151.63,6.78c1.48.14,3.09.23,4.57.38-8.56,7-18.64,12.67-29.49,14.87s-22.65.79-32-5C95.39,15.87,96.43,14.86,96.77,15.1Z"/><path class="cls-4" d="M110.73,5.3a13.11,13.11,0,0,0,6.1,13.87,13.1,13.1,0,0,0,15-1.76,13.11,13.11,0,0,0,2.74-14.9"/><circle class="cls-1" cx="125.47" cy="10.9" r="4.12"/><path class="cls-1" d="M60.62,15.27A50.24,50.24,0,0,0,3.36,7.35C12,12.58,21,17.59,30.84,19.79S51.66,21.11,60.62,15.27Z"/><path class="cls-5" d="M45.58,5.89A13.14,13.14,0,0,1,38.5,19.34a13.14,13.14,0,0,1-14.93-2.83A13.12,13.12,0,0,1,21.9,1.41Z"/><path class="cls-3" d="M38.73,2.86a6.73,6.73,0,0,1-1.4,8.49A6.71,6.71,0,0,1,28.74,11,6.73,6.73,0,0,1,28,2.45"/><path d="M61.45,16.63c-3.28-6.91-9.8-11.95-17-14.45S29.34-.45,21.78.67A108.17,108.17,0,0,0,0,6.69c7.34.76,14.56-1.88,21.88-2.82C35.83,2.07,50.49,6.8,61.45,16.63Z"/><path d="M59.43,14.63a31.92,31.92,0,0,1-14.2,5.67c-7.34,1-14.85-.57-21.72-3.37A107.43,107.43,0,0,1,4.57,6.31c-1.48.14-3.09.23-4.57.38,8.56,7,18.64,12.67,29.49,14.87s22.65.79,32.05-5C60.8,15.4,59.77,14.39,59.43,14.63Z"/><path class="cls-4" d="M45.47,4.83a13.12,13.12,0,0,1-6.1,13.87,13.1,13.1,0,0,1-15-1.76A13.11,13.11,0,0,1,21.58,2"/><circle class="cls-1" cx="30.72" cy="10.43" r="4.12"/></g></g></svg>