<svg xmlns="http://www.w3.org/2000/svg" xmlns:xlink="http://www.w3.org/1999/xlink" viewBox="0 0 154.88 26.83"><defs><style>.cls-1{fill:#fff;}.cls-2{fill:url(#linear-gradient);}.cls-3,.cls-4{fill:none;stroke-linecap:round;stroke-miterlimit:10;}.cls-3{stroke:#000;}.cls-4{stroke:#422222;}.cls-5{fill:#030202;}.cls-6{fill:#422222;}.cls-7{fill:url(#linear-gradient-2);}</style><linearGradient id="linear-gradient" x1="119.48" y1="22.08" x2="126.12" y2="-4.75" gradientUnits="userSpaceOnUse"><stop offset="0" stop-color="#873f3f"/><stop offset="1" stop-color="#9d6464"/></linearGradient><linearGradient id="linear-gradient-2" x1="214.98" y1="20.7" x2="221.63" y2="-6.13" gradientTransform="matrix(-1, 0, 0, 1, 250.38, 0)" xlink:href="#linear-gradient"/></defs><g id="Layer_2" data-name="Layer 2"><g id="Layer_76" data-name="Layer 76"><path class="cls-1" d="M150,4.54a88.63,88.63,0,0,0-42.33,1c-3.58,3.46-7,7-10.94,11.4a23.93,23.93,0,0,0,20.66,8.16c7.12-.84,14.48-1.13,21-4S150.67,11.69,150,4.54Z"/><path class="cls-2" d="M110.26,6.14a13.08,13.08,0,0,0,3.77,13,13.08,13.08,0,0,0,13.3,2.36,13.05,13.05,0,0,0,8-10.88,20.62,20.62,0,0,0-1.1-7.53A63.52,63.52,0,0,0,110.26,6.14Z"/><path d="M95.5,18.11c.7-1.1,1.42-2.19,2.18-3.25s1.55-2.09,2.35-3.12,1.63-2,2.45-3,1.67-2,2.52-3l.17-.2.35-.11a81.32,81.32,0,0,1,10.57-2.66,85.65,85.65,0,0,1,10.84-1.25,84.35,84.35,0,0,1,10.9.12q2.71.24,5.41.61c1.79.29,3.58.6,5.35,1l.19,0,.09.06c1,.8,2,1.57,3,2.38s2,1.62,3,2.45c-1.15-.59-2.29-1.18-3.41-1.8s-2.25-1.25-3.37-1.88l.28.11c-.9,0-1.78-.13-2.67-.19L143,4.27c-1.77-.09-3.55-.14-5.32-.14-3.55-.06-7.09.09-10.62.31s-7,.61-10.54,1.16-7,1.2-10.44,2l.51-.31-5.57,5.39Z"/><path d="M152.54,6.88c-1.46,5.26-5.33,9.78-10,12.84a37.54,37.54,0,0,1-7.42,3.77,60,60,0,0,1-7.94,2.32,48.33,48.33,0,0,1-8.24,1,33.75,33.75,0,0,1-8.32-.79,23.69,23.69,0,0,1-13.88-8.47,28.49,28.49,0,0,0,14.31,6.17,37.29,37.29,0,0,0,7.76.25,49.7,49.7,0,0,0,7.75-1.1,66,66,0,0,0,7.6-2.05,43.74,43.74,0,0,0,7.16-3.1A28.16,28.16,0,0,0,152.54,6.88Z"/><path class="cls-3" d="M110.26,5.08a13.47,13.47,0,0,0,5.27,15.27,13.47,13.47,0,0,0,16.08-1.5,13.48,13.48,0,0,0,2.35-16"/><path class="cls-4" d="M115.89,5.06a11,11,0,0,0,.32,7,7.58,7.58,0,0,0,5.19,4.52,7.42,7.42,0,0,0,7.86-4.15,9.75,9.75,0,0,0-.73-9.15"/><path class="cls-5" d="M96.43,17.08a21.89,21.89,0,0,0,4.85,4.15Z"/><path class="cls-5" d="M97.39,15.8a9.58,9.58,0,0,0,2.1,3.43,28.72,28.72,0,0,0,3,2.74,13.84,13.84,0,0,1-6.16-5C96.91,16.62,97.39,16.07,97.39,15.8Z"/><path class="cls-5" d="M144.21,16.91a12.74,12.74,0,0,0,5.07-8.7,5.75,5.75,0,0,0-.64-3.83l3.94,2.54A19.9,19.9,0,0,1,144.21,16.91Z"/><path class="cls-6" d="M129.24,4.13A8.88,8.88,0,0,1,126.69,15,6.67,6.67,0,0,1,121,16.4a6.56,6.56,0,0,1-3.73-3,13.11,13.11,0,0,1-1.63-4.56,8,8,0,0,1-.17-2.28,3.24,3.24,0,0,1,.94-2,5.06,5.06,0,0,1,3.08-1l7.2-.57Z"/><circle class="cls-1" cx="126.72" cy="12.96" r="4.12"/><ellipse class="cls-1" cx="119.72" cy="7.85" rx="2.12" ry="1.96"/><path class="cls-1" d="M4.87,3.15A88.63,88.63,0,0,1,47.2,4.1c3.58,3.46,7,7,10.94,11.4a23.9,23.9,0,0,1-20.66,8.16c-7.12-.83-14.48-1.13-21-4S4.21,10.31,4.87,3.15Z"/><path class="cls-7" d="M44.62,4.76a13.08,13.08,0,0,1-3.77,13,13.07,13.07,0,0,1-13.29,2.36,13.06,13.06,0,0,1-8-10.88,20.67,20.67,0,0,1,1.1-7.54A63.31,63.31,0,0,1,44.62,4.76Z"/><path d="M59.38,16.72l-5.56-5.44-5.57-5.4.51.31c-3.46-.78-6.94-1.47-10.44-2s-7-.9-10.54-1.17-7.07-.36-10.62-.31c-1.77,0-3.55.06-5.32.15L9.17,3c-.89.06-1.77.15-2.67.2l.28-.11C5.66,3.73,4.55,4.38,3.41,5S1.15,6.2,0,6.79C1,6,2,5.13,3,4.34S5,2.75,6,2l.09-.07.19,0c1.77-.39,3.56-.71,5.35-1s3.6-.44,5.41-.61A86.2,86.2,0,0,1,28,.12,87.52,87.52,0,0,1,38.79,1.37,81.32,81.32,0,0,1,49.36,4l.35.11.17.2c.85,1,1.7,2,2.52,3s1.66,2,2.45,3,1.6,2.06,2.35,3.13S58.68,15.62,59.38,16.72Z"/><path d="M2.34,5.49A28.09,28.09,0,0,0,13.52,16.34a42.89,42.89,0,0,0,7.16,3.1,64.06,64.06,0,0,0,7.6,2A49.72,49.72,0,0,0,36,22.6a38.71,38.71,0,0,0,7.76-.25A28.51,28.51,0,0,0,58.1,16.17c-3.26,4.38-8.45,7.26-13.88,8.48a34.23,34.23,0,0,1-8.32.78,47.34,47.34,0,0,1-8.24-1,58.52,58.52,0,0,1-7.94-2.31,37.58,37.58,0,0,1-7.42-3.78C7.67,15.28,3.8,10.76,2.34,5.49Z"/><path class="cls-3" d="M44.62,3.7A13.48,13.48,0,0,1,39.35,19a13.47,13.47,0,0,1-16.08-1.51,13.48,13.48,0,0,1-2.35-16"/><path class="cls-4" d="M39,3.67a11,11,0,0,1-.32,7,7.56,7.56,0,0,1-5.19,4.52,7.42,7.42,0,0,1-7.86-4.14,9.74,9.74,0,0,1,.73-9.15"/><path class="cls-5" d="M58.45,15.7a22.12,22.12,0,0,1-4.85,4.14Z"/><path class="cls-5" d="M57.49,14.42a9.66,9.66,0,0,1-2.1,3.43,27.56,27.56,0,0,1-3,2.73,13.82,13.82,0,0,0,6.16-5C58,15.23,57.49,14.68,57.49,14.42Z"/><path class="cls-5" d="M10.67,15.52A12.74,12.74,0,0,1,5.6,6.82,5.75,5.75,0,0,1,6.24,3L2.3,5.54A19.91,19.91,0,0,0,10.67,15.52Z"/><path class="cls-6" d="M25.64,2.75a8.86,8.86,0,0,0,2.55,10.89A6.71,6.71,0,0,0,33.9,15a6.6,6.6,0,0,0,3.73-3,13.16,13.16,0,0,0,1.63-4.57,8,8,0,0,0,.17-2.28,3.24,3.24,0,0,0-.94-2,5.05,5.05,0,0,0-3.08-.95l-7.2-.58Z"/><circle class="cls-1" cx="28.16" cy="11.57" r="4.12"/><ellipse class="cls-1" cx="35.16" cy="6.46" rx="2.12" ry="1.96"/></g></g></svg>