<svg xmlns="http://www.w3.org/2000/svg" xmlns:xlink="http://www.w3.org/1999/xlink" viewBox="0 0 151.75 27.04"><defs><style>.cls-1{fill:#fff;}.cls-2{fill:url(#linear-gradient);}.cls-3{fill:#030202;}.cls-4,.cls-6{fill:none;stroke-miterlimit:10;}.cls-4{stroke:#000;}.cls-5{fill:#422222;}.cls-6{stroke:#422222;}.cls-7{fill:url(#linear-gradient-2);}</style><linearGradient id="linear-gradient" x1="117.88" y1="22.89" x2="124.93" y2="-5.61" gradientTransform="translate(-0.51 5.94) rotate(-2.76)" gradientUnits="userSpaceOnUse"><stop offset="0" stop-color="#873f3f"/><stop offset="1" stop-color="#9d6464"/></linearGradient><linearGradient id="linear-gradient-2" x1="33.68" y1="27.88" x2="40.74" y2="-0.61" gradientTransform="matrix(-1, -0.05, -0.05, 1, 68.46, -2.93)" xlink:href="#linear-gradient"/></defs><g id="Layer_2" data-name="Layer 2"><g id="Layer_76" data-name="Layer 76"><g id="Layer_266_copy" data-name="Layer 266 copy"><path class="cls-1" d="M95.74,23.16C94.22,18,96.86,12.33,101,9s9.55-4.84,14.85-5.66a111.64,111.64,0,0,1,23-.8,20.59,20.59,0,0,1,5.48.82,7.38,7.38,0,0,1,4.27,3.36,7,7,0,0,1,0,5.84,13.39,13.39,0,0,1-3.67,4.73c-7.53,6.61-18.19,8.16-28.21,8.61C109.77,26.16,102.57,26,95.74,23.16Z"/><path class="cls-2" d="M108.17,5.34a14,14,0,0,0,5.84,16,14,14,0,0,0,16.9-2.33A14,14,0,0,0,132.2,2Z"/><path class="cls-3" d="M95.25,23.74A74.41,74.41,0,0,0,123,26.8c6-.48,12.13-1.75,17.43-4.7s9.74-7.77,11.32-13.62A22.51,22.51,0,0,0,144,.27a328.29,328.29,0,0,0-37.91,1,24.35,24.35,0,0,0-6.74,1.2A8.89,8.89,0,0,0,94.24,7a12.29,12.29,0,0,1,6-.55,18.13,18.13,0,0,0-5.32,17c.9-5.12,2.65-10.44,6.65-13.76,3.28-2.72,7.62-3.74,11.83-4.43A104.47,104.47,0,0,1,143,4.45,9.3,9.3,0,0,1,147.6,10a16.08,16.08,0,0,1-7.45,9.72,33.71,33.71,0,0,1-11.82,4.08C117.8,25.7,106.87,25.31,95.25,23.74Z"/><path class="cls-3" d="M101.8,9.2a14.06,14.06,0,0,0-4.47,5.74,13.76,13.76,0,0,0-1,7.15,19.26,19.26,0,0,0,9.21,3,16.53,16.53,0,0,1-5.48-.06,46.11,46.11,0,0,1-5.14-1.24,14.8,14.8,0,0,1,.92-9.44,12.56,12.56,0,0,1,6.86-6.45Z"/><path class="cls-4" d="M108.57,4.9a12.45,12.45,0,0,0-.3,8.37,15.43,15.43,0,0,0,3,6,12.74,12.74,0,0,0,12.14,4A14,14,0,0,0,133.17,15a15.2,15.2,0,0,0-.8-12.77"/><path class="cls-5" d="M115.53,7.67A7.38,7.38,0,0,1,119.41,5a6,6,0,0,1,4.62.62,5,5,0,0,1,2.38,3.9,5,5,0,0,1-1.62,5.18,6.14,6.14,0,0,1-5.41,1.16A5.16,5.16,0,0,1,117,14.6a6.57,6.57,0,0,1-1.56-4.16A9.09,9.09,0,0,1,115.53,7.67Z"/><circle class="cls-6" cx="121.05" cy="10.18" r="5.88"/><circle class="cls-1" cx="124.3" cy="13.02" r="4.12"/><path class="cls-1" d="M55.94,23.27C57.48,18.14,54.87,12.43,50.73,9S41.21,4.15,35.91,3.3a111.55,111.55,0,0,0-23-.91,20.63,20.63,0,0,0-5.49.79A7.42,7.42,0,0,0,3.18,6.51a7,7,0,0,0-.06,5.85A13.46,13.46,0,0,0,6.76,17.1c7.5,6.66,18.15,8.25,28.17,8.75C41.89,26.2,49.09,26.11,55.94,23.27Z"/><path class="cls-7" d="M43.59,5.39a14,14,0,0,1-5.91,16A14,14,0,0,1,20.78,19a14,14,0,0,1-1.2-17Z"/><path class="cls-3" d="M56.43,23.85a74.3,74.3,0,0,1-27.77,2.92c-6-.51-12.12-1.8-17.4-4.79S1.55,14.17,0,8.31A22.63,22.63,0,0,1,7.78.14,326.65,326.65,0,0,1,45.7,1.32a24.18,24.18,0,0,1,6.72,1.23,8.91,8.91,0,0,1,5.09,4.54,12.25,12.25,0,0,0-6-.58,18.12,18.12,0,0,1,5.23,17c-.88-5.13-2.59-10.46-6.58-13.8C46.93,7,42.6,5.94,38.4,5.23a104.54,104.54,0,0,0-29.62-.9A9.27,9.27,0,0,0,4.14,9.85a16.11,16.11,0,0,0,7.41,9.76,33.52,33.52,0,0,0,11.79,4.14C33.86,25.7,44.8,25.37,56.43,23.85Z"/><path class="cls-3" d="M50,9.28A14.21,14.21,0,0,1,54.39,15a13.87,13.87,0,0,1,1,7.15,19.28,19.28,0,0,1-9.22,3,16.21,16.21,0,0,0,5.47,0,44.29,44.29,0,0,0,5.15-1.21,14.86,14.86,0,0,0-.87-9.44A12.56,12.56,0,0,0,49,8Z"/><path class="cls-4" d="M43.19,4.94a12.42,12.42,0,0,1,.26,8.38,15.2,15.2,0,0,1-3,6,12.72,12.72,0,0,1-12.15,3.93,13.94,13.94,0,0,1-9.77-8.33A15.22,15.22,0,0,1,19.4,2.18"/><path class="cls-5" d="M36.22,7.68A7.32,7.32,0,0,0,32.35,5a6,6,0,0,0-4.62.6,5,5,0,0,0-2.4,3.89,5.05,5.05,0,0,0,1.6,5.19,6.14,6.14,0,0,0,5.41,1.18,5.11,5.11,0,0,0,2.38-1.27,6.5,6.5,0,0,0,1.59-4.15A8.88,8.88,0,0,0,36.22,7.68Z"/><circle class="cls-6" cx="30.69" cy="10.16" r="5.88"/><circle class="cls-1" cx="27.42" cy="12.99" r="4.12"/></g></g></g></svg>