<svg xmlns="http://www.w3.org/2000/svg" xmlns:xlink="http://www.w3.org/1999/xlink" viewBox="0 0 151.83 40.27"><defs><style>.cls-1{fill:#fff;}.cls-2{fill:url(#linear-gradient);}.cls-3,.cls-5{fill:none;stroke:#000;}.cls-3,.cls-4{stroke-miterlimit:10;stroke-width:2px;}.cls-4{fill:#422222;stroke:#422222;}.cls-5{stroke-linecap:round;stroke-linejoin:round;stroke-width:3px;}.cls-6{fill:url(#linear-gradient-2);}</style><linearGradient id="linear-gradient" x1="114.77" y1="33.21" x2="123.39" y2="-1.59" gradientUnits="userSpaceOnUse"><stop offset="0" stop-color="#873f3f"/><stop offset="1" stop-color="#9d6464"/></linearGradient><linearGradient id="linear-gradient-2" x1="205.51" y1="33.21" x2="214.13" y2="-1.59" gradientTransform="matrix(-1, 0, 0, 1, 242.57, 0)" xlink:href="#linear-gradient"/></defs><g id="Layer_2" data-name="Layer 2"><g id="Layer_76" data-name="Layer 76"><g id="Layer_267_copy_3" data-name="Layer 267 copy 3"><path class="cls-1" d="M91.35,28a37.45,37.45,0,0,1,52.48-16c2.83,1.64,5.68,4.09,5.84,7.35.12,2.52-1.43,4.81-3.12,6.68-6.83,7.53-17.09,11.5-27.26,11.69A42.48,42.48,0,0,1,91.35,28Z"/><path class="cls-2" d="M106.16,13.73c-3.52,5.29-1.9,13.19,3.2,17S122.18,34,127,29.77a16.36,16.36,0,0,0,4.3-17.42,9.51,9.51,0,0,0-3.41-4.86A10.63,10.63,0,0,0,122.37,6C118.29,5.83,112.11,4.78,106.16,13.73Z"/><path class="cls-3" d="M106.94,12a14.2,14.2,0,0,0-1.23,14.55,13.88,13.88,0,0,0,24.83-.14c2.9-5.88,1.29-13-1.79-18.84"/><ellipse class="cls-4" cx="118.48" cy="19.43" rx="8.42" ry="8.57"/><path class="cls-5" d="M91.11,29A36.57,36.57,0,0,1,118,7.29C129.78,5.17,142.54,9.46,150.14,18,147,29.26,135.81,37.11,124.22,38.51S100.91,35.67,91.11,29Z"/><circle class="cls-1" cx="122.73" cy="24.36" r="5.54"/><circle class="cls-1" cx="115.99" cy="16.94" r="3.16"/><path d="M90.74,29.05a25.21,25.21,0,0,1,3.12-8.54,41,41,0,0,1,2.59-3.76,38.47,38.47,0,0,1,3-3.43c2.17-2.13,4.48-4,6.7-6A49.23,49.23,0,0,0,112.42,1a25.38,25.38,0,0,1-5.13,7.47c-2.05,2.23-4.31,4.21-6.38,6.3a42.76,42.76,0,0,0-3,3.19C97,19,96,20.22,95.16,21.37A47,47,0,0,0,90.74,29.05Z"/><path d="M99.65,13.51A3.93,3.93,0,0,1,101,11.94a16.6,16.6,0,0,1,1.76-1.15A36,36,0,0,1,106.54,9c2.53-1.09,5.15-2,7.73-2.83s5.19-1.66,7.71-2.57A35,35,0,0,0,129.25,0a19.68,19.68,0,0,1-6.65,5,62.16,62.16,0,0,1-7.7,3c-2.62.84-5.23,1.62-7.83,2.4-1.3.4-2.6.78-3.87,1.24-.64.21-1.27.46-1.89.73-.3.14-.6.29-.89.46l-.42.28Z"/><path d="M111.47,9.06a26.61,26.61,0,0,1,7-2.89,68.17,68.17,0,0,1,7.33-1.67c1.23-.2,2.48-.39,3.72-.54l3.69-.42a50.07,50.07,0,0,0,7.3-1.28,21.27,21.27,0,0,1-7,2.82c-2.46.59-4.91.94-7.34,1.39l-7.33,1.21C116.35,8.11,113.91,8.45,111.47,9.06Z"/><path d="M124.05,6.94a15.54,15.54,0,0,1,6.18-1.52,47,47,0,0,1,6.29.1c4.12.27,8.09.57,12.16-.55a12.84,12.84,0,0,1-5.92,2.35,28.37,28.37,0,0,1-6.37.19c-2.09-.13-4.13-.39-6.16-.54A38.59,38.59,0,0,0,124.05,6.94Z"/><path d="M137.26,9.81a10.35,10.35,0,0,1,3.84-.15,36.64,36.64,0,0,1,3.64.71c1.16.27,2.31.54,3.46.73a19.23,19.23,0,0,0,3.63.28,6.74,6.74,0,0,1-3.68,1.29,12.8,12.8,0,0,1-3.87-.35,26.76,26.76,0,0,1-3.55-1.14C139.58,10.74,138.46,10.3,137.26,9.81Z"/><path class="cls-1" d="M60.48,28A37.93,37.93,0,0,0,37.74,8.53,37.87,37.87,0,0,0,8,12C5.17,13.59,2.32,16,2.16,19.3,2,21.82,3.59,24.11,5.28,26c6.83,7.53,17.09,11.5,27.26,11.69A42.48,42.48,0,0,0,60.48,28Z"/><path class="cls-6" d="M45.67,13.73c3.52,5.29,1.9,13.19-3.2,17S29.65,34,24.86,29.77a16.36,16.36,0,0,1-4.3-17.42A9.51,9.51,0,0,1,24,7.49,10.63,10.63,0,0,1,29.46,6C33.54,5.83,39.72,4.78,45.67,13.73Z"/><path class="cls-3" d="M44.89,12a14.2,14.2,0,0,1,1.23,14.55,14.17,14.17,0,0,1-12.46,7.6A14.2,14.2,0,0,1,21.29,26.4c-2.9-5.88-1.29-13,1.79-18.84"/><ellipse class="cls-4" cx="33.35" cy="19.43" rx="8.42" ry="8.57"/><path class="cls-5" d="M60.72,29A36.57,36.57,0,0,0,33.86,7.29C22.05,5.17,9.29,9.46,1.69,18,4.87,29.26,16,37.11,27.61,38.51S50.92,35.67,60.72,29Z"/><circle class="cls-1" cx="29.1" cy="24.36" r="5.54"/><circle class="cls-1" cx="35.84" cy="16.94" r="3.16"/><path d="M61.09,29.05a47,47,0,0,0-4.42-7.68c-.88-1.15-1.8-2.33-2.76-3.44a42.76,42.76,0,0,0-3-3.19c-2.07-2.09-4.33-4.07-6.38-6.3A25.19,25.19,0,0,1,39.41,1a49.23,49.23,0,0,0,6.22,6.36c2.22,1.95,4.53,3.86,6.7,6a38.47,38.47,0,0,1,3.05,3.43A41,41,0,0,1,58,20.51,25.21,25.21,0,0,1,61.09,29.05Z"/><path d="M52.18,13.51l-.35-.36-.42-.28c-.29-.17-.59-.32-.89-.46-.62-.27-1.25-.52-1.89-.73-1.27-.46-2.57-.84-3.87-1.24-2.6-.78-5.21-1.56-7.83-2.4a62.16,62.16,0,0,1-7.7-3,19.68,19.68,0,0,1-6.65-5,35,35,0,0,0,7.27,3.57c2.52.91,5.12,1.71,7.71,2.57S42.76,7.88,45.29,9A36,36,0,0,1,49,10.79a16.6,16.6,0,0,1,1.76,1.15A4,4,0,0,1,52.18,13.51Z"/><path d="M40.36,9.06c-2.44-.61-4.88-1-7.32-1.38L25.71,6.47c-2.43-.45-4.88-.8-7.34-1.39a21.27,21.27,0,0,1-7-2.82,50.07,50.07,0,0,0,7.3,1.28L22.33,4c1.24.15,2.49.34,3.72.54a68.17,68.17,0,0,1,7.33,1.67A26.61,26.61,0,0,1,40.36,9.06Z"/><path d="M27.77,6.94A38.47,38.47,0,0,0,21.6,7c-2,.15-4.07.41-6.16.54a28.37,28.37,0,0,1-6.37-.19A12.84,12.84,0,0,1,3.15,5c4.07,1.12,8,.82,12.16.55a47,47,0,0,1,6.29-.1A15.45,15.45,0,0,1,27.77,6.94Z"/><path d="M14.57,9.81c-1.2.49-2.32.93-3.47,1.37a26.76,26.76,0,0,1-3.55,1.14,12.8,12.8,0,0,1-3.87.35A6.74,6.74,0,0,1,0,11.38a19.3,19.3,0,0,0,3.63-.28c1.15-.19,2.3-.46,3.46-.73a36.64,36.64,0,0,1,3.64-.71A10.35,10.35,0,0,1,14.57,9.81Z"/></g></g></g></svg>