<svg xmlns="http://www.w3.org/2000/svg" xmlns:xlink="http://www.w3.org/1999/xlink" viewBox="0 0 147.29 34.15"><defs><style>.cls-1{fill:#fff;}.cls-2{fill:url(#linear-gradient);}.cls-3{fill:#422222;stroke:#422222;}.cls-3,.cls-4{stroke-miterlimit:10;}.cls-4{fill:none;stroke:#000;}.cls-5{fill:url(#linear-gradient-2);}</style><linearGradient id="linear-gradient" x1="198.34" y1="29.4" x2="205.52" y2="0.41" gradientTransform="matrix(-1, 0, 0, 1, 233.87, 0)" gradientUnits="userSpaceOnUse"><stop offset="0" stop-color="#873f3f"/><stop offset="1" stop-color="#9d6464"/></linearGradient><linearGradient id="linear-gradient-2" x1="285.68" y1="29.4" x2="292.86" y2="0.41" gradientTransform="translate(-173.92)" xlink:href="#linear-gradient"/></defs><g id="Layer_2" data-name="Layer 2"><g id="Layer_76" data-name="Layer 76"><g id="Layer_265_copy_2" data-name="Layer 265 copy 2"><g id="Layer_264_copy_2" data-name="Layer 264 copy 2"><path class="cls-1" d="M59.32,22.92C53.54,14,42.55,9.42,32,9.45S11.11,13.58,2,19.07A42.68,42.68,0,0,0,29.8,32.21,42.83,42.83,0,0,0,59.32,22.92Z"/><path class="cls-2" d="M44.09,12.86a11.79,11.79,0,0,1-3.54,14.23,13.15,13.15,0,0,1-14.91.09,14.84,14.84,0,0,1-6-13.91c.24-1.83.91-3.76,2.46-4.77a7.34,7.34,0,0,1,3.42-1,36.67,36.67,0,0,1,8.88.29"/><path d="M.23,18.34a46,46,0,0,1,41-9.81,31.56,31.56,0,0,1,11.53,5.33A21,21,0,0,1,60,24.23C52.5,17.1,42.66,11.73,32.37,11s-21,2.71-29.45,8.7A27.94,27.94,0,0,0,.23,18.34Z"/><path d="M59.79,24.23A27.76,27.76,0,0,0,55,16.4a25.79,25.79,0,0,0-7-5.55c-2.64-1.52-5.5-2.76-8.26-4.3A22.65,22.65,0,0,1,32.37.63a37,37,0,0,0,8.06,4.52c2.83,1.23,5.74,2.4,8.54,4a27.4,27.4,0,0,1,4,2.75,20.22,20.22,0,0,1,3.28,3.58A19.1,19.1,0,0,1,59.79,24.23Z"/><path d="M51.1,13.51l-.36-.36-.42-.28a9.34,9.34,0,0,0-.89-.46c-.62-.27-1.24-.52-1.88-.73-1.27-.46-2.58-.84-3.87-1.24-2.61-.78-5.22-1.56-7.83-2.4a62.3,62.3,0,0,1-7.71-3,19.77,19.77,0,0,1-6.65-5,35.26,35.26,0,0,0,7.27,3.57c2.52.91,5.12,1.71,7.72,2.57S41.67,7.88,44.21,9A35.82,35.82,0,0,1,48,10.79a16.73,16.73,0,0,1,1.77,1.15A4.09,4.09,0,0,1,51.1,13.51Z"/><path d="M39.39,9.84c-2.43-.61-4.88-.95-7.32-1.37L24.75,7.25c-2.43-.45-4.88-.8-7.35-1.39a21.25,21.25,0,0,1-7-2.81,51.66,51.66,0,0,0,7.3,1.27l3.7.42c1.24.15,2.48.34,3.72.54A69.28,69.28,0,0,1,32.42,7,26.41,26.41,0,0,1,39.39,9.84Z"/><path d="M26.57,9.32a39.67,39.67,0,0,0-6.17,0c-2,.16-4.07.41-6.16.55a29,29,0,0,1-6.37-.19A12.83,12.83,0,0,1,1.94,7.35C6,8.47,10,8.17,14.11,7.9a47,47,0,0,1,6.29-.1A15.67,15.67,0,0,1,26.57,9.32Z"/><path d="M14.7,11.38c-1.21.5-2.32.94-3.47,1.38a29.37,29.37,0,0,1-3.55,1.13,12.49,12.49,0,0,1-3.87.36A6.62,6.62,0,0,1,.13,13a18.35,18.35,0,0,0,3.62-.27c1.16-.19,2.3-.46,3.47-.73a34,34,0,0,1,3.64-.71A10.16,10.16,0,0,1,14.7,11.38Z"/><ellipse class="cls-3" cx="32.21" cy="16.94" rx="6.5" ry="6.25"/><path d="M58.31,22.23A38.48,38.48,0,0,1,29.8,31.42,36.79,36.79,0,0,1,3.83,17,7.16,7.16,0,0,1,0,18.3c6,9,16.39,14.63,27.14,15.65a48.18,48.18,0,0,0,30.83-8,13.62,13.62,0,0,0,2-1.7C59.75,24.16,58.39,21.25,58.31,22.23Z"/><path class="cls-4" d="M43.68,12.08A11.86,11.86,0,0,1,43,24.45a12.64,12.64,0,0,1-11.38,5.09,13.51,13.51,0,0,1-10.35-7.08A14.55,14.55,0,0,1,21,9.84"/><circle class="cls-1" cx="28.24" cy="19.72" r="4.12"/><circle class="cls-1" cx="28.24" cy="19.72" r="4.12"/><path class="cls-1" d="M88,22.92C93.75,14,104.74,9.42,115.34,9.45s20.84,4.13,29.92,9.62a42.73,42.73,0,0,1-27.77,13.14A42.8,42.8,0,0,1,88,22.92Z"/><path class="cls-5" d="M103.21,12.86a11.78,11.78,0,0,0,3.53,14.23,13.15,13.15,0,0,0,14.91.09,14.84,14.84,0,0,0,6-13.91c-.24-1.83-.91-3.76-2.45-4.77a7.34,7.34,0,0,0-3.42-1,36.75,36.75,0,0,0-8.89.29"/><path d="M147.07,18.34a46.06,46.06,0,0,0-41-9.81,31.44,31.44,0,0,0-11.52,5.33,20.93,20.93,0,0,0-7.2,10.37c7.46-7.13,17.3-12.5,27.59-13.24s21,2.71,29.44,8.7A27.37,27.37,0,0,1,147.07,18.34Z"/><path d="M87.5,24.23a19.1,19.1,0,0,1,3.56-8.79,20.6,20.6,0,0,1,3.28-3.58,27.4,27.4,0,0,1,4-2.75c2.8-1.56,5.72-2.73,8.55-4A37.44,37.44,0,0,0,114.93.63a22.69,22.69,0,0,1-7.37,5.92c-2.76,1.54-5.61,2.78-8.25,4.3a25.64,25.64,0,0,0-7,5.55A27.79,27.79,0,0,0,87.5,24.23Z"/><path d="M96.2,13.51a3.93,3.93,0,0,1,1.38-1.57,16.6,16.6,0,0,1,1.76-1.15A36,36,0,0,1,103.09,9c2.53-1.09,5.15-2,7.73-2.83s5.19-1.66,7.71-2.57A35,35,0,0,0,125.8,0a19.68,19.68,0,0,1-6.65,5,62.16,62.16,0,0,1-7.7,3c-2.62.84-5.23,1.62-7.83,2.4-1.3.4-2.6.78-3.87,1.24-.64.21-1.27.46-1.89.73-.3.14-.6.29-.89.46l-.42.28Z"/><path d="M107.9,9.84a26.61,26.61,0,0,1,7-2.89,68.17,68.17,0,0,1,7.33-1.67c1.23-.2,2.48-.39,3.72-.54l3.69-.42a51.42,51.42,0,0,0,7.3-1.27,21.25,21.25,0,0,1-7,2.81c-2.46.59-4.91.94-7.34,1.39l-7.33,1.22C112.78,8.89,110.34,9.23,107.9,9.84Z"/><path d="M120.72,9.32A15.67,15.67,0,0,1,126.9,7.8a47,47,0,0,1,6.29.1c4.11.27,8.08.57,12.16-.55a12.75,12.75,0,0,1-5.93,2.36,28.89,28.89,0,0,1-6.36.19c-2.09-.14-4.13-.39-6.17-.55A39.67,39.67,0,0,0,120.72,9.32Z"/><path d="M132.59,11.38a10.2,10.2,0,0,1,3.85-.14,34,34,0,0,1,3.64.71c1.16.27,2.31.54,3.46.73a18.45,18.45,0,0,0,3.63.27,6.67,6.67,0,0,1-3.68,1.3,12.49,12.49,0,0,1-3.87-.36,29,29,0,0,1-3.56-1.13C134.92,12.32,133.8,11.88,132.59,11.38Z"/><ellipse class="cls-3" cx="115.09" cy="16.94" rx="6.5" ry="6.25"/><path d="M89,22.23a38.45,38.45,0,0,0,28.5,9.19,36.75,36.75,0,0,0,26-14.47,7.21,7.21,0,0,0,3.83,1.35c-5.95,9-16.39,14.63-27.14,15.65a48.13,48.13,0,0,1-30.82-8,13.88,13.88,0,0,1-2-1.7C87.55,24.16,88.91,21.25,89,22.23Z"/><path class="cls-4" d="M103.61,12.08a11.89,11.89,0,0,0,.72,12.37,12.65,12.65,0,0,0,11.38,5.09,13.52,13.52,0,0,0,10.36-7.08,14.55,14.55,0,0,0,.26-12.62"/><circle class="cls-1" cx="119.05" cy="19.72" r="4.12"/><circle class="cls-1" cx="119.05" cy="19.72" r="4.12"/></g></g></g></g></svg>