<svg xmlns="http://www.w3.org/2000/svg" viewBox="0 0 230.87 374.16"><defs><style>.cls-1{isolation:isolate;}.cls-2{fill:#fff;}.cls-3{fill:#c7c7c7;}.cls-4{fill:#f2c5bf;}.cls-5{fill:#cca39d;opacity:0.68;}.cls-5,.cls-8{mix-blend-mode:multiply;}.cls-6{fill:#ea5f97;}.cls-7{fill:#d4b8b8;}.cls-8{fill:#dbdbdb;}</style></defs><g class="cls-1"><g id="Layer_2" data-name="Layer 2"><g id="Layer_132" data-name="Layer 132"><g id="Layer_72" data-name="Layer 72"><g id="Layer_126" data-name="Layer 126"><path class="cls-2" d="M10,220c-9.07-16.34-8.87-36.07-7.79-54.72,1.13-19.52,3-39,5.14-58.43A162.68,162.68,0,0,1,9.93,89.42a167.85,167.85,0,0,1,5.91-19.18l6.6-18.79c1.17-3.33,2.47-6.84,5.25-9C32.5,38.64,40,40.59,44.22,45s6,10.56,7.69,16.45c2.2,7.79,4.4,15.7,4.39,23.8,0,6.81-1.6,13.52-2.12,20.32-.67,8.67.42,17.39.15,26.08-.43,13.7-4.22,27-6.1,40.63-2.3,16.56-1.87,34-9.08,49.05A3,3,0,0,1,37.74,223a3.26,3.26,0,0,1-2.2-.26A34.94,34.94,0,0,0,19.8,221c-3.38.39-7.19,1.7-8.33,4.9C10.67,223.81,9.86,221.75,10,220Z"/><path class="cls-3" d="M13.34,236.68a25.83,25.83,0,0,1-1.66-15,56.89,56.89,0,0,0,12-.57,26.21,26.21,0,0,1,3.63-.42,21,21,0,0,1,7.42,1.76,6.84,6.84,0,0,1,2.7,1.51c1.06,1.11,1.24,2.78,1.29,4.31a51.25,51.25,0,0,1-1.45,14.07l-13.79,1.1c-3.07.25-6.45.4-8.87-1.5S11.54,235.89,13.34,236.68Z"/></g><path d="M9.62,225.47c-5-5.12-8.43-32.24-8.9-40.14C-.9,166.94.45,148.54,2.49,130.24A310.89,310.89,0,0,1,10.9,83.63C13,76.52,21.58,36.21,31,40.73c16.37-6,23.13,15.35,24.55,27.79,2.88,26.63,1.23,53.54-1.23,80.13-1,11.64-2.75,23.18-4.8,34.68s-3.39,23.13-6.53,34.4c-1,3.49-2.57,9.4-7.3,8.34a31.35,31.35,0,0,0-7.87-1.47,36.46,36.46,0,0,0-8.29.67C16.32,225.6,12.61,227.54,9.62,225.47Zm3-3.47c3.83-.77,7.59-1.91,11.54-2a44,44,0,0,1,12.13,1.51c3.9-8.56,5-18.17,6.67-27.35,4.41-23.63,6.79-47.91,8.38-71.82.93-18.72,3.56-51.56-4.34-68.17C44.46,48.92,39.55,42,32.88,45l.21-.07h0C23.35,46.26,14.42,90.5,12,100.42c-7,39.12-12.16,83.28.47,121.58Z"/><path d="M20.27,246.46c-2.83-.24-6.34-.59-8.06-3.15a30.61,30.61,0,0,1-1.56-5.26c-.7-4-2.77-11.37-.47-14.82a1.61,1.61,0,0,1,2.36.15c.64,1.06.5,2.41.71,3.6a126.67,126.67,0,0,0,2.27,14.19c1.57.81,4,.88,5.46,1.05,5,.27,10.41-.13,14.88-2.56,1.08-2,.59-4.59.57-6.8A64.43,64.43,0,0,0,35.21,224,2.43,2.43,0,0,1,40,223c.74,5.09,2.21,15.76-1.49,19.69C33.17,246.14,26.45,246.82,20.27,246.46Z"/></g><g id="Layer_72_copy" data-name="Layer 72 copy"><g id="Layer_126_copy" data-name="Layer 126 copy"><path class="cls-2" d="M220.92,220c9.07-16.34,8.87-36.07,7.79-54.72-1.13-19.52-3-39-5.14-58.43a162.68,162.68,0,0,0-2.63-17.44A169.82,169.82,0,0,0,215,70.24l-6.61-18.79c-1.17-3.33-2.47-6.84-5.24-9-4.81-3.78-12.3-1.83-16.54,2.58s-6,10.56-7.69,16.45c-2.19,7.79-4.4,15.7-4.39,23.8,0,6.81,1.6,13.52,2.12,20.32.67,8.67-.42,17.39-.15,26.08.43,13.7,4.23,27,6.1,40.63,2.3,16.56,1.87,34,9.08,49.05a3,3,0,0,0,1.41,1.67,3.26,3.26,0,0,0,2.2-.26A34.94,34.94,0,0,1,211.07,221c3.38.39,7.19,1.7,8.33,4.9C220.2,223.81,221,221.75,220.92,220Z"/><path class="cls-3" d="M217.53,236.68a25.83,25.83,0,0,0,1.66-15,56.89,56.89,0,0,1-11.95-.57,26.21,26.21,0,0,0-3.63-.42,21,21,0,0,0-7.42,1.76,6.84,6.84,0,0,0-2.7,1.51c-1.06,1.11-1.24,2.78-1.29,4.31a50.87,50.87,0,0,0,1.46,14.07l13.79,1.1c3.06.25,6.45.4,8.86-1.5S219.33,235.89,217.53,236.68Z"/></g><path d="M221.25,225.47c5-5.12,8.43-32.24,8.9-40.14,1.62-18.39.27-36.79-1.77-55.09A312.13,312.13,0,0,0,220,83.63c-2.06-7.11-10.69-47.42-20.15-42.9-16.37-6-23.13,15.35-24.55,27.79-2.88,26.63-1.23,53.54,1.23,80.13,1,11.64,2.75,23.18,4.8,34.68s3.39,23.13,6.53,34.4c1,3.49,2.57,9.4,7.3,8.34A31.35,31.35,0,0,1,203,224.6a36.42,36.42,0,0,1,8.29.67C214.55,225.6,218.26,227.54,221.25,225.47Zm-3-3.47c-3.84-.77-7.6-1.91-11.54-2a44,44,0,0,0-12.14,1.51c-3.9-8.56-5-18.17-6.67-27.35-4.41-23.63-6.79-47.91-8.38-71.82-.93-18.72-3.55-51.56,4.34-68.17C186.41,48.92,191.32,42,198,45l-.21-.07h0c9.75,1.38,18.68,45.62,21.12,55.54,7.05,39.12,12.17,83.28-.47,121.58Z"/><path d="M210.6,246.46c2.83-.24,6.34-.59,8.06-3.15a30.61,30.61,0,0,0,1.56-5.26c.7-4,2.77-11.37.48-14.82a1.62,1.62,0,0,0-2.37.15c-.64,1.06-.5,2.41-.71,3.6a126.67,126.67,0,0,1-2.27,14.19c-1.57.81-4,.88-5.46,1.05-5,.27-10.41-.13-14.88-2.56-1.08-2-.59-4.59-.57-6.8a64.43,64.43,0,0,1,1.22-8.86,2.43,2.43,0,0,0-4.75-1c-.74,5.09-2.21,15.76,1.49,19.69C197.7,246.14,204.42,246.82,210.6,246.46Z"/></g><g id="Layer_122" data-name="Layer 122"><g id="Layer_125" data-name="Layer 125"><path class="cls-4" d="M63.7,209.72c2.74-1.38,5.87.56,8.66,1.83,8,3.62,17.17,1.72,25.88,1,23.31-2,47.93,4.46,69.58-4.43,1.83,13,6.7,25.37,9.7,38.16,1.18,5,2.07,10.09,3,15.16,2.77,15.81,5.54,31.67,6.41,47.71.88,16.32-.22,32.69-2.24,48.91a74.34,74.34,0,0,1-23.83,1.86,2.7,2.7,0,0,1,1.37,2.23,32,32,0,0,1-25.78,2.77,59,59,0,0,1-12.22,5.48c-7,2.23-14.84,3.09-21.51,0-3.31-1.53-6.29-4-9.89-4.56-4.41-.69-8.72,1.6-13.18,1.93A15.55,15.55,0,0,1,65,359.6a26.57,26.57,0,0,1-21.72-3.79c-4.24-15.65-3-32.21-1.43-48.35,3-31.23,6.79-62.72,17.54-92.19A10.31,10.31,0,0,1,63.7,209.72Z"/><path class="cls-5" d="M62.62,360.06q3-33.45,8.87-66.55-3,28.92-4.27,58c-.2,4.53-.06,9.77,3.47,12.62C68.12,361.18,64.06,359.62,62.62,360.06Z"/><path class="cls-5" d="M89.39,366c2.26-9.77,3.87-19.68,5.49-29.58l4.43-27.19q-2.94,26.6-4,53.36c-.06,1.49-.08,3.11.79,4.32A4.16,4.16,0,0,0,89.39,366Z"/><path class="cls-5" d="M128.13,368.38a6.72,6.72,0,0,0,3.5-4.44,19.77,19.77,0,0,0,.45-5.8q-.83-39.19-1.66-78.39,4.13,41.06,8.88,82c.23,2,1.1,4.62,3.13,4.53C138.43,364.89,133.57,366.44,128.13,368.38Z"/><path class="cls-5" d="M157.31,364.76c2.69-2.47,2.76-6.62,2.63-10.28q-1-27-1.94-54c2.63,15.9,3.87,32,5,48.08.27,3.84.74,8.13,3.71,10.6C163.35,359.36,160.32,362,157.31,364.76Z"/></g><path d="M56,362.54c-4.16,0-13.91-1.08-15.47-5.56-2-6.65-1.51-14.4-1.69-21.07,0-13.91,1.19-27.78,2.31-41.63a358.44,358.44,0,0,1,5.58-42.55A281.88,281.88,0,0,1,55,221c1.08-3.26,2.16-6.56,3.52-9.72.39-.77.61-1.75,1.36-2.23,2.22-.59.64,3.88.58,5-1.11,5-2.56,9.94-3.78,14.93-7.1,25.85-9.59,52.6-11.35,79.27-.69,9.6-1.26,19.23-1.27,28.86.12,6.19-.28,12.67,1.27,18.69,2.44,1.4,5.24,1.78,8,2.21,3.81.63,7.65-.05,11.45-.1,1-.09,2.33,0,2.54,1.2C67.71,363.48,58.84,362.31,56,362.54Z"/><path d="M71.7,367a21,21,0,0,1-2-.91A11.93,11.93,0,0,1,66,363.45a9,9,0,0,1-1.38-2c-.4-.82-.63-2.11.13-2.81a1.44,1.44,0,0,1,1.68-.2,3,3,0,0,1,1,1.31l.21.28.34.35c.15.12.3.25.46.36a18.35,18.35,0,0,0,1.68.93,25.11,25.11,0,0,0,2.61,1.11l.15.05h0a30.78,30.78,0,0,0,3.13.85,44.21,44.21,0,0,0,5.51.74,32,32,0,0,0,3.53,0c.64-.06,1.29-.14,1.92-.26s1-.25,1.54-.41c.18-.07.37-.14.54-.22a2.69,2.69,0,0,0,.29-.16l.22-.16.31-.24h0l0,0h0a1.74,1.74,0,0,1,2.13-.3,1.72,1.72,0,0,1,.64,2.31,3.94,3.94,0,0,1-.86,1.17,8,8,0,0,1-1.52,1.12,13.14,13.14,0,0,1-4.61,1.49,23.58,23.58,0,0,1-3.84.31A28.21,28.21,0,0,1,71.7,367Z"/><path d="M103.76,372.94a29.15,29.15,0,0,1-7.38-2.9,20,20,0,0,1-3-2.14c-.53-.46-1.05-.94-1.56-1.42a10.86,10.86,0,0,1-1.43-1.68,2.15,2.15,0,0,1-.29-.79,1.48,1.48,0,0,1,1.83-1.62,4.53,4.53,0,0,1,1.51.95c.39.31.79.6,1.2.88a30.85,30.85,0,0,0,2.85,1.6,41.27,41.27,0,0,0,4.39,1.82l.15.05.06,0a39.48,39.48,0,0,0,4.36,1.16,39.91,39.91,0,0,0,5.1.63,45.11,45.11,0,0,0,5.24-.05,43.48,43.48,0,0,0,4.92-.66,38.56,38.56,0,0,0,4.25-1.14,33.63,33.63,0,0,0,3.41-1.36,30.22,30.22,0,0,0,3-1.73c.52-.35,1-.7,1.53-1.09s.75-.65,1.15-.94a2.12,2.12,0,0,1,3.41,1.67,2.24,2.24,0,0,1-.63,1.53,9.86,9.86,0,0,1-1,.91c-.41.33-.82.65-1.25,1a26.46,26.46,0,0,1-3.64,2.23,39.25,39.25,0,0,1-6,2.46,40.93,40.93,0,0,1-7.66,1.61,41.94,41.94,0,0,1-4.62.26A41,41,0,0,1,103.76,372.94Z"/><path d="M172.23,362.54c4.17,0,13.91-1.08,15.48-5.56,2-6.65,1.5-14.4,1.68-21.07,0-13.91-1.18-27.78-2.3-41.63a360.52,360.52,0,0,0-5.58-42.55A281.92,281.92,0,0,0,173.18,221c-1.07-3.26-2.15-6.56-3.51-9.72-.39-.77-.61-1.75-1.36-2.23-2.22-.59-.65,3.88-.58,5,1.1,5,2.55,9.94,3.77,14.93,7.11,25.85,9.6,52.6,11.35,79.27.7,9.6,1.26,19.23,1.28,28.86-.13,6.19.28,12.67-1.28,18.69-2.43,1.4-5.24,1.78-8,2.21-3.81.63-7.65-.05-11.46-.1-1-.09-2.33,0-2.54,1.2C160.51,363.48,169.38,362.31,172.23,362.54Z"/><path d="M168,206.64a.76.76,0,0,1,.82.28,2.09,2.09,0,0,1,.35.86c.71,2.87,1.13,5.83,2.11,8.61a2.59,2.59,0,0,1,.22,1,16.94,16.94,0,0,1-4.13-7.47A3.78,3.78,0,0,1,168,206.64Z"/><path d="M156.52,367a20.82,20.82,0,0,0,2-.91,12.09,12.09,0,0,0,3.63-2.68,9,9,0,0,0,1.38-2c.39-.82.62-2.11-.14-2.81a1.42,1.42,0,0,0-1.67-.2c-.51.28-.69.84-1,1.31l-.2.28-.34.35c-.15.12-.31.25-.47.36a17,17,0,0,1-1.67.93,25.11,25.11,0,0,1-2.61,1.11l-.16.05h0a31.31,31.31,0,0,1-3.12.85,44.72,44.72,0,0,1-5.51.74,32,32,0,0,1-3.53,0c-.65-.06-1.29-.14-1.93-.26a15.65,15.65,0,0,1-1.53-.41l-.55-.22-.29-.16-.21-.16-.32-.24h0l0,0h0a1.73,1.73,0,0,0-2.78,2,4.12,4.12,0,0,0,.86,1.17,8.34,8.34,0,0,0,1.53,1.12,13.14,13.14,0,0,0,4.61,1.49,23.49,23.49,0,0,0,3.84.31A28.3,28.3,0,0,0,156.52,367Z"/><path d="M124.46,372.94a29.3,29.3,0,0,0,7.38-2.9,20.52,20.52,0,0,0,3-2.14c.53-.46,1.05-.94,1.55-1.42a10.34,10.34,0,0,0,1.43-1.68,2.16,2.16,0,0,0,.3-.79,1.48,1.48,0,0,0-1.83-1.62,4.34,4.34,0,0,0-1.51.95c-.39.31-.79.6-1.2.88a30.85,30.85,0,0,1-2.85,1.6,43.07,43.07,0,0,1-4.39,1.82l-.16.05-.06,0a38.34,38.34,0,0,1-4.36,1.16,39.54,39.54,0,0,1-5.09.63,45.05,45.05,0,0,1-5.24-.05,43.66,43.66,0,0,1-4.93-.66,39.79,39.79,0,0,1-4.25-1.14,35.6,35.6,0,0,1-3.41-1.36,31.16,31.16,0,0,1-3-1.73c-.53-.35-1-.7-1.54-1.09s-.75-.65-1.14-.94a2.14,2.14,0,0,0-2.8.2,2.08,2.08,0,0,0-.61,1.47,2.2,2.2,0,0,0,.63,1.53,8.94,8.94,0,0,0,1,.91c.4.33.82.65,1.24,1a27.18,27.18,0,0,0,3.65,2.23,38.84,38.84,0,0,0,6,2.46,40.93,40.93,0,0,0,7.66,1.61,41.81,41.81,0,0,0,4.62.26A41,41,0,0,0,124.46,372.94Z"/><path d="M54.34,230a1.13,1.13,0,0,1-.84-1.33,84.58,84.58,0,0,1,5.92-19c2.47-5.6,10.15-1.52,14.64-1.27,6.62,1,13.29,1.69,20,2.09a325.42,325.42,0,0,0,71.51-4.27c1.61-.4,4.43,0,3.2,2.33A5.36,5.36,0,0,1,166.4,210a66.19,66.19,0,0,1-8.15,2.29c-18.37,3.88-37.34,4.1-56,3.79-13-.68-26.14-1-38.77-4.19-4,5-5.55,11.53-7.81,17.42A1.11,1.11,0,0,1,54.34,230Z"/><path d="M96.83,221.8a220.08,220.08,0,0,1-29.13-4.23c-1.38-.43-11.28-2.17-9.32-3.73,1.87-.29,3.92.68,5.76.93,4.83,1,9.67,1.89,14.55,2.63,27.72,4.2,56.45,4.23,83.71-2.7,1.44-.39,2.88-.75,4.23-1.25.81-.46,2.06-.85,2.5.27a1.2,1.2,0,0,1-.68,1.54c-4.23,1.33-8.54,2.39-12.89,3.31a204.43,204.43,0,0,1-58.88,3.22Z"/></g><g id="Layer_123_copy_2" data-name="Layer 123 copy 2"><g id="Layer_124_copy_2" data-name="Layer 124 copy 2"><path class="cls-6" d="M27.87,42.89A56.58,56.58,0,0,1,59.16,24,136.15,136.15,0,0,0,80.87,42a25.4,25.4,0,0,1,5.46,4.3,23.55,23.55,0,0,1,3.54,6.45l4.24,10.07c4,9.54,8.1,19.45,7.06,29.92a23.54,23.54,0,0,0-1.64-18.47A108.94,108.94,0,0,1,130,75.47c-.78-7.06,3.88-13.44,8.29-19,9.75-12.32,20.08-25.1,34.47-31.41a128.5,128.5,0,0,1,31.2,18,35.53,35.53,0,0,0-12,27.7c.33,8.9,4,17.5,3.7,26.4-.5,12.45-8.69,23-14.08,34.26a9.84,9.84,0,0,0-1.34,5.45,29.56,29.56,0,0,0,1.38,4.14c1.37,4.9-2.17,9.71-3.21,14.69-1.47,7,2.09,14,3,21.12a28.89,28.89,0,0,1-4.13,18.78c5.8,5.05,5.14,14.09,3.92,21.69-.57,3.6-1.4,7.6-4.39,9.69a13.77,13.77,0,0,1-5.81,1.87q-16.17,2.61-32.38,4.94a11.63,11.63,0,0,1-5.38-.09c-4.5-1.56-5.25-7.5-5.21-12.26a80.25,80.25,0,0,1-26.53,1.71,12,12,0,0,1,.88,7.95,73.86,73.86,0,0,1-48.87-5.36,10.6,10.6,0,0,1-3.57-2.42A9.61,9.61,0,0,1,48,218.39a27.83,27.83,0,0,1,1.65-14.75c.85-2.09,2-4.12,2.27-6.35.38-2.68-.43-5.37-1.13-8-2.57-9.62-3.36-21,3.25-28.45-7-6.2-8.27-17.89-2.75-25.45-10.77-7-14.21-21.09-15.25-33.89a61.5,61.5,0,0,1,.25-15.22c.66-3.94,1.93-7.76,2.47-11.71A32.47,32.47,0,0,0,26.08,44.67C26.88,43.89,27.69,43.12,27.87,42.89Z"/><path class="cls-7" d="M143.31,11.43a31.45,31.45,0,0,1,0-10.2c1.06-.47,2.29,0,3.34.55,10.75,5.2,22,10.85,28.57,20.84-7.14,3.38-13.12,8.73-18.93,14.08-6.35,5.85-12.65,11.84-17.76,18.8s-9,15-9.92,23.61c-.85,7.85.78,15.88-.76,23.61,0-2.73-1.94-5.16-4.3-6.54A20.7,20.7,0,0,0,115.71,94c-4.24-.56-8.65-.83-12.71.51-1.33-11.92-5.88-23.22-10.38-34.34-2.85-7-5.91-14.4-11.78-19.23C76.9,37.67,72,35.82,68,32.66c-3.77-3-6.89-7.14-11.52-8.38-.74-.2-1.64-.42-1.87-1.16s.27-1.33.72-1.87c4.2-4.95,8.54-9.89,13.87-13.6S81,1.53,87.45,2.22l-.36,7.23A3.29,3.29,0,0,1,86.76,11a3.31,3.31,0,0,1-1.31,1.08L72.67,19.24c3,.64,4.07,4.18,5.72,6.74a11.91,11.91,0,0,0,9.2,5.39c5.86,2.08,11.77,4.17,17.93,5,9.86,1.31,19.86-.7,29.39-3.53a50.34,50.34,0,0,0,12.68-5.24,20.94,20.94,0,0,0,8.81-10.24A24.15,24.15,0,0,1,143.31,11.43Z"/><path class="cls-2" d="M85.78,29.11c10.87,2.86,22,5.39,33.19,5.31s22.76-3,31.57-9.92c-3.3,4.68-7.82,8.39-11.12,13.07A49.2,49.2,0,0,0,133,51.83a111.37,111.37,0,0,0-4.76,30.65c-.09,6.28.35,12.59-.46,18.82-.5,3.81-1.47,7.54-2,11.35a94.07,94.07,0,0,0-.46,13.43c.09,6.7.19,13.4.59,19-1.07,25.7-2.12,51.61,2.07,77l-16,1.55c-3.36.33-6.94.62-10-.89,3-9.94,4.39-20.32,5.27-30.68.39-4.71.69-9.48-.19-14.12s-2.91-9-3.63-13.68c-.87-5.67.25-11.43.94-17.13,2.06-16.91.35-34-1.36-51L99.93,64.79a67.24,67.24,0,0,0-1.44-9.59c-1.31-5.25-3.87-10.09-6.4-14.86-2-3.82-4.15-7.75-7.51-10.46C85.21,29.85,85.85,29.82,85.78,29.11Z"/></g><g id="Layer_169_copy_2" data-name="Layer 169 copy 2"><path class="cls-8" d="M36,107.79a38.71,38.71,0,0,0,35.91,13.34c5.75-1,11.2-3.33,16.9-4.57s12.08-1.26,16.93,2c-10.51-.73-20,5.72-29.72,9.72a66.89,66.89,0,0,1-23.47,5c-2.32.06-4.83-.06-6.65-1.5a10.17,10.17,0,0,1-2.79-4.43C41.25,122.49,39.92,117.47,36,107.79Z"/><path class="cls-8" d="M192.39,103c.46,4.53-3.44,8.3-7.36,10.64a43.9,43.9,0,0,1-32.87,4.8c-4-1-7.86-2.58-11.95-2.55s-8,1.68-11.72,3.3c6.88.52,13.37,3.3,19.68,6.11s12.71,5.71,19.57,6.52,14.38-.82,19-5.9C193,119.26,192.52,109,192.39,103Z"/></g><path d="M88.58,236.54A184.45,184.45,0,0,1,58,231.48a40.26,40.26,0,0,1-6.9-2.22c-2.75-2-3.77-5.54-4.47-8.68a35,35,0,0,1,2.08-20c2.3-4.35,1-6.83-.14-11.19a37.38,37.38,0,0,1,.34-20.63c.52-2.48,1.9-4.61,2.74-6.95,0-1.45-1.08-2.65-1.67-3.92a27.09,27.09,0,0,1-3.29-15.33,22.58,22.58,0,0,1,1-5.34,2.73,2.73,0,0,0,.11-2.27c-2.24-4.3-5.26-8.17-7.37-12.56-4.91-10-8.07-21.15-6.72-32.31.48-4.88,2.12-9.65,2.73-14.48a39.71,39.71,0,0,0-4-22.53,26.44,26.44,0,0,0-3.92-5.24c-1-1-3.05-2.09-1.76-3.69,1.88-1.81,4.07,1.74,5.31,2.89a29.93,29.93,0,0,1,5.66,11,47.33,47.33,0,0,1,1.64,18.56c-.76,5.79-2.48,11.43-2.3,17.3.14,12.65,6,24.65,12.25,35.31,1.51,2.43,3.07,5.6,2,8.43a27.76,27.76,0,0,0,2.73,19.45c.9,1.84,1.74,3.89,1.14,6s-1.27,4-1.78,6a41,41,0,0,0-.86,16.43c.39,3.7,1.94,7.27,1.77,11-.37,2.65-2.25,4.86-2.7,7.49a32.49,32.49,0,0,0-.93,12.33,20.4,20.4,0,0,0,2.21,7.4,2.27,2.27,0,0,0,1.48,1.34c5.24,1.9,10.4,2.86,15.77,4,4.55.95,9.18,1.71,13.78,2.3,4.92.43,10.2,1.49,15-.27,1.38-14.6,4.5-29.08,4.65-43.79-.14-9.86-1.89-19.63-1.71-29.5a343.88,343.88,0,0,0-.55-54C99.77,88,98.71,71.69,91,57.42,84.39,46,74,37,62.91,30.35c-3.33-2.37-10-3.73-9.7-8.74A4.87,4.87,0,0,1,54.57,19c1.55-1.53,3-3.19,4.62-4.61,6.66-5.95,14.38-11,23-13.57a21.71,21.71,0,0,1,3-.7c.8-.13,2-.36,2.54.39.9,1.53-1.37,2-2.35,2.45a81.46,81.46,0,0,0-8.78,4.34A95,95,0,0,0,57.49,22C60,24.26,63.28,25.44,66,27.4A103.17,103.17,0,0,1,82.47,40c11.72,11,16.92,23,19.85,38.55,2.56,14.43,3.26,29.12,4.49,43.7.93,13,0,26.24-.23,39.23.19,10,1.75,19.86,1.56,29.85-.2,10.82-2,21.53-3.94,32.16-.72,3.12-.74,6.66-1.6,9.62C99.53,237.3,93.22,236.57,88.58,236.54Z"/><path d="M36.47,65.86c-1.21-6.74-3.75-13.65-9-18.28-.79-.77-2-.69-2.74-1.5-1.66-2,1.3-4.24,2.5-5.74A46.42,46.42,0,0,1,37.5,31.78c2-1.44,21.81-12.17,20.83-6.53-.63,1.07-2,1.39-3,1.95-3.49,1.58-6.93,3.35-10.26,5.24a78.57,78.57,0,0,0-16,12.08c2.69,2.86,4.31,7,6,10.52C35.27,55.84,39.34,68.71,36.47,65.86Z"/><path d="M70.58,18.79c-.84-2.22,2.06-2.71,3.54-3.35,3.69-1.54,7.72-2.45,11.09-4.65.21-2.93-.19-5.93.42-8.84A2.68,2.68,0,0,1,86.41.38c3.41-1.78,2.2,7.07,2.11,8.75-.27,1.18,0,2.45-.6,3.55-1.39,2.05-4.1,2.68-6.24,3.69-3,1.18-6,2.36-9,3.4A1.76,1.76,0,0,1,70.58,18.79Z"/><path d="M98.29,36.08c-8.43-1.75-17.08-4.65-23.38-10.75-1.66-1.84-5-4.95-4.17-7.59a1.44,1.44,0,0,1,1.76-.66c1.26.65,1.94,2.06,3,3A32.77,32.77,0,0,0,86.64,28c18.48,7.75,43.23,8.53,60.14-3.18a63.19,63.19,0,0,0,8.35-7.1c.58-.64,1.16-1.37,2.11-1.36a1.94,1.94,0,0,1,2,1.86c.06,1.33-1.2,2-2,2.89C141.36,36.87,119.54,40.11,98.29,36.08Z"/><path d="M102.27,109c-.42-13.55-.84-27.23-2.23-40.71-4-17-11.08-30.58-23.14-43.14-1-1.3-2.65-2.54-2.68-4.27.36-1,1.51-.31,2,.21,14.26,10,23.3,26.43,26,43.47.71,5.9.5,11.87,1.28,17.74A187.11,187.11,0,0,1,104.7,109,1.22,1.22,0,0,1,102.27,109Z"/><path d="M141.54,236.54a184.45,184.45,0,0,0,30.61-5.06,40.26,40.26,0,0,0,6.9-2.22c2.75-2,3.77-5.54,4.47-8.68a35,35,0,0,0-2.09-20c-2.29-4.35-1-6.83.15-11.19a37.48,37.48,0,0,0-.34-20.63c-.52-2.48-1.9-4.61-2.74-6.95,0-1.45,1.08-2.65,1.67-3.92a27,27,0,0,0,3.28-15.33,22.07,22.07,0,0,0-1-5.34,2.7,2.7,0,0,1-.11-2.27c2.24-4.3,5.26-8.17,7.37-12.56,4.91-10,8.07-21.15,6.72-32.31-.48-4.88-2.12-9.65-2.73-14.48a39.71,39.71,0,0,1,4-22.53,26.44,26.44,0,0,1,3.92-5.24c1-1,3-2.09,1.76-3.69-1.88-1.81-4.07,1.74-5.31,2.89a29.93,29.93,0,0,0-5.66,11,47.15,47.15,0,0,0-1.64,18.56c.76,5.79,2.48,11.43,2.3,17.3-.14,12.65-6,24.65-12.25,35.31-1.51,2.43-3.07,5.6-2,8.43a27.76,27.76,0,0,1-2.73,19.45c-.9,1.84-1.74,3.89-1.15,6s1.28,4,1.79,6a41,41,0,0,1,.86,16.43c-.39,3.7-1.94,7.27-1.77,11,.37,2.65,2.25,4.86,2.7,7.49a32.49,32.49,0,0,1,.93,12.33,20.4,20.4,0,0,1-2.21,7.4,2.27,2.27,0,0,1-1.48,1.34c-5.24,1.9-10.4,2.86-15.78,4-4.54.95-9.17,1.71-13.77,2.3-4.92.43-10.2,1.49-15-.27-1.38-14.6-4.5-29.08-4.65-43.79.14-9.86,1.89-19.63,1.71-29.5a343.88,343.88,0,0,1,.55-54c1.52-16,2.58-32.21,10.29-46.48,6.61-11.41,17-20.41,28.09-27.07,3.33-2.37,10-3.73,9.7-8.74A4.87,4.87,0,0,0,175.55,19c-1.55-1.53-3-3.19-4.62-4.61-6.66-5.95-14.38-11-23-13.57a22.06,22.06,0,0,0-3-.7c-.8-.13-2-.36-2.54.39-.9,1.53,1.37,2,2.35,2.45a81.46,81.46,0,0,1,8.78,4.34A95,95,0,0,1,172.63,22c-2.47,2.27-5.79,3.45-8.52,5.41A102.73,102.73,0,0,0,147.65,40c-11.72,11-16.92,23-19.85,38.55-2.56,14.43-3.26,29.12-4.49,43.7-.93,13,0,26.24.23,39.23-.19,10-1.75,19.86-1.56,29.85.2,10.82,2,21.53,3.93,32.16.73,3.12.75,6.66,1.61,9.62C130.59,237.3,136.9,236.57,141.54,236.54Z"/><path d="M193.65,65.86c1.21-6.74,3.75-13.65,9-18.28.79-.77,2-.69,2.74-1.5,1.66-2-1.3-4.24-2.5-5.74a46.65,46.65,0,0,0-10.23-8.56c-2-1.44-21.81-12.17-20.83-6.53.63,1.07,2,1.39,3,1.95,3.49,1.58,6.93,3.35,10.26,5.24a78.24,78.24,0,0,1,16,12.08c-2.68,2.86-4.3,7-6,10.52C194.85,55.84,190.78,68.71,193.65,65.86Z"/><path d="M159.54,18.79c.84-2.22-2.06-2.71-3.54-3.35-3.69-1.54-7.72-2.45-11.1-4.65-.2-2.93.2-5.93-.41-8.84a2.68,2.68,0,0,0-.78-1.57c-3.41-1.78-2.2,7.07-2.11,8.75.27,1.18,0,2.45.6,3.55,1.39,2.05,4.1,2.68,6.24,3.69,3,1.18,6,2.36,9,3.4A1.76,1.76,0,0,0,159.54,18.79Z"/><path d="M127.85,109c.42-13.55.84-27.23,2.23-40.71,4-17,11.08-30.58,23.14-43.14,1-1.3,2.65-2.54,2.68-4.27-.36-1-1.51-.31-2,.21-14.26,10-23.3,26.43-26,43.47-.71,5.9-.5,11.87-1.28,17.74A188.6,188.6,0,0,0,125.41,109,1.22,1.22,0,0,0,127.85,109Z"/><path d="M101.27,225.69a68.52,68.52,0,0,0,26.83-1.24,7.3,7.3,0,0,1-1.25-4.86c-1.38,1.57-3.62,2-5.69,2.22a74.69,74.69,0,0,1-18.54-.18A40.66,40.66,0,0,1,101.27,225.69Z"/></g></g></g></g></svg>