<svg xmlns="http://www.w3.org/2000/svg" xmlns:xlink="http://www.w3.org/1999/xlink" viewBox="0 0 158.97 441.8"><defs><style>.cls-1{isolation:isolate;}.cls-2{fill:url(#linear-gradient);}.cls-3{fill:#fff;}.cls-4{fill:url(#linear-gradient-2);}.cls-5{fill:#c49791;mix-blend-mode:multiply;opacity:0.44;}</style><linearGradient id="linear-gradient" x1="90.48" y1="280.1" x2="277.84" y2="150.72" gradientUnits="userSpaceOnUse"><stop offset="0" stop-color="#f3c5bf"/><stop offset="1" stop-color="#fff"/></linearGradient><linearGradient id="linear-gradient-2" x1="56.04" y1="66.89" x2="250.08" y2="-103.36" xlink:href="#linear-gradient"/></defs><g class="cls-1"><g id="Layer_2" data-name="Layer 2"><g id="Layer_102" data-name="Layer 102"><g id="Layer_69" data-name="Layer 69"><path class="cls-2" d="M22.43,135.4a163,163,0,0,0-13.8,55.86c-1,15.77.28,31.58,1.08,47.35s1.1,31.56,1.89,46.45c-2.59,26.47-.45,53.31-4.23,79.63-1.19,8.32-3,16.57-3.47,25-.77,13,1.59,26.19,0,39.16l18.8-1.51c4.05-.32,8.16-.64,12.15.14,10.46,2.05,18.72,11.38,29.35,12.21A40.61,40.61,0,0,0,70,415.5c-.53-6.87-2.81-13.49-3.94-20.29-1.41-8.46-1-17.11-.6-25.68,1-19.47,2.1-38.93,3.83-57.78-1-32.94,2.9-52.15,7.46-84.79,1.51-.08-.31-1.23,1.2-1.31,4.14,35.76,7.61,59,7.94,95a130.82,130.82,0,0,0,.73,15.59c.64,4.83,1.85,9.57,2.23,14.42.54,6.8-.55,13.6-1.29,20.38-1.93,17.42-1.62,35-.88,52.54.25,6,.8,12.61,5,16.85,9-5.19,18.26-10.26,28.43-12.18,10.71-2,21.73-.4,32.51,1.21-3-61.74-10.15-123.37-9.07-185.17.58-33.51,3.45-68-7.17-99.63a26.46,26.46,0,0,0-4.45-9.35c-1.16,1.48-3.06,2.11-4.85,2.66a203.29,203.29,0,0,1-30,7.05,143,143,0,0,1-75.47-9.64C21.91,135.64,22.19,135.9,22.43,135.4Z"/><path class="cls-3" d="M18.79,144.57c5.52,4.07,12.31,5.89,18.92,7.64,10,2.65,20.14,5.31,30.49,5.88a154.83,154.83,0,0,0,16.82-.3c6.4-.36,12.84-.71,19.11-2.09a116.51,116.51,0,0,0,12-3.52c5.92-2,11.87-3.94,17.3-7,.88-.5,1.83-1.16,1.94-2.16a3.32,3.32,0,0,0-.3-1.51l-1.88-5.14c-7.66,2.19-15.48,3.73-23.3,5.26-5.69,1.12-11.39,2.24-17.14,3a179.2,179.2,0,0,1-33,.78c-12.65-.73-25.93-2.55-36-10.28-.58-.44-1.37-.92-2-.5a1.75,1.75,0,0,0-.56,1C20.27,138.89,19.35,142.17,18.79,144.57Z"/><path d="M62,441.65c-15.31-9-27.32-13.83-45.29-11.42-4.61,0-15.18,3.91-15.61-3.29-.71-12.41.53-24.83,1.49-37.2,2.06-25.24,3.33-50.55,5.14-75.81a573.3,573.3,0,0,0,1-63.27c-.8-19.24-2.61-38.5-1.63-57.76a173.18,173.18,0,0,1,9.86-49.34,66,66,0,0,1,3.43-7.74c.46-.83,1-2,2.12-1.68,1.87.75-.3,3.75-.57,5.06-1.74,4.73-3.17,9.56-4.47,14.42A185.69,185.69,0,0,0,11,193.2c-.74,14.25-.06,28.53.77,42.76,1.12,19.23,1.51,38.49.91,57.74-1.5,31.67-3.57,63.33-6,94.93-.81,12.73-3,25.82-1.61,38.44,6,.5,12.09-1.26,18.14-1.27C38,425,50.51,430.34,62.9,438c6.41-9.13,3.38-25.35,2.53-35.95C64,390,65.66,377.72,66,365.53c.83-18.6.4-37.1.35-55.74-.57-24.32,4.71-40.79,7.74-64.91.67-6.23,1-13.18,1.54-19.41.43-2.1-2.55-.74.44-.84,2.44.29,3.24-1,3,.75.31.71.13,15.63-.25,19.33-2.37,22.56-9,29-8.46,51.65.18,12.92,1.07,28.3.28,41.2-.65,12.65-.6,22.36-.53,35-.17,15.17,0,30.66.35,45.8C70.89,423.71,69.71,443.76,62,441.65Z"/><path d="M92.43,441.65c15.31-9,27.31-13.83,45.28-11.42,4.62,0,15.19,3.91,15.62-3.29.7-12.41-.54-24.83-1.49-37.2-2.06-25.24-3.33-50.55-5.14-75.81a573.3,573.3,0,0,1-1-63.27c.79-19.24,2.61-38.5,1.63-57.76a173.53,173.53,0,0,0-9.87-49.34,65.92,65.92,0,0,0-3.42-7.74c-.47-.83-1-2-2.12-1.68-1.88.75.29,3.75.56,5.06,1.75,4.73,3.18,9.56,4.47,14.42a185.06,185.06,0,0,1,6.44,39.58c.74,14.25.06,28.53-.77,42.76-1.11,19.23-1.51,38.49-.91,57.74,1.5,31.67,3.57,63.33,6,94.93.82,12.73,3,25.82,1.61,38.44-6,.5-12.09-1.26-18.14-1.27-14.87-.81-27.36,4.54-39.75,12.22-6.41-9.13-3.88-25.6-3-36.2,1.45-12.11.06-23.48,1-35.27C88.61,348,87.93,328.43,88,309.79c.58-24.32-2.79-49.06-5.82-73.19-.67-6.22.21-5.69-.38-11.92-.43-2.1-.89.14-3.87,0-2.44.29-2.45-1-2.24.75.39,3.7-.28,3,.11,6.7,2.37,22.56,8.71,41.49,8.17,64.19-.18,12.92-.07,25.8.71,38.7.66,12.65-.4,25.36-.46,38,.17,15.17-.74,29.16-1.11,44.3C82.74,422.71,84.67,443.76,92.43,441.65Z"/><path d="M79.83,227.13a41.57,41.57,0,0,1-19.58-5.38,12.41,12.41,0,0,1-3-2.12.93.93,0,0,1,.11-1.37c.83-.43,1.75.32,2.54.56,12.94,6,25.6,6.7,38.51.46,2.13-.84,3.39,1.27,1.49,2.67A41,41,0,0,1,79.83,227.13Z"/><path d="M59.36,147.17c-11.41-1.4-23-3.5-33.44-8.45-1.53-.77-7.17-3.21-4-4.91,1.27-.08,2.44.71,3.63,1.08a111.91,111.91,0,0,0,11.78,3.89,160.54,160.54,0,0,0,86.84-2.11c1.88-.59,3.77-1.2,5.35-1.86.85-.3,1.64-.92,2.58-.72a2,2,0,0,1,1.21,3.06c-2.3,2-5.68,2.51-8.48,3.63a137.47,137.47,0,0,1-16.07,4.31A165.43,165.43,0,0,1,59.36,147.17Z"/><path d="M71.32,158.92c-4.9-.12-9.8-.43-14.67-1a132.33,132.33,0,0,1-14.8-2.57,81,81,0,0,1-14.15-4.64q-2.18-1-4.26-2.15a37,37,0,0,1-4.12-2.69l-.15-.11c-.3-.24-.6-.48-.89-.73a2.27,2.27,0,0,1-.73-.84.72.72,0,0,1,.62-.94.75.75,0,0,1,.21,0,2.7,2.7,0,0,1,.9.55l.95.68c.64.44,1.3.85,2,1.25a51.18,51.18,0,0,0,5.43,2.62A87.67,87.67,0,0,0,38,151.74c2.37.61,4.76,1.16,7.17,1.63s4.86.87,7.31,1.23l3.05.41q7.32.87,14.71,1.17c2.78.12,5.57.15,8.19.14,4.9,0,9.79-.29,14.67-.76,1.93-.18,3.86-.41,5.77-.66l.36-.05a125,125,0,0,0,14-2.72l.88-.23a81.72,81.72,0,0,0,9.26-3.09,50.34,50.34,0,0,0,5.62-2.74A29.11,29.11,0,0,0,132,144c.43-.33.85-.68,1.26-1l.46-.41.41-.39.17-.14h0a1.13,1.13,0,0,1,1.38.09,1.15,1.15,0,0,1,.19,1.48,6.47,6.47,0,0,1-.61.67c-.19.21-.4.4-.61.59a19.13,19.13,0,0,1-1.92,1.55,37,37,0,0,1-5.62,3.34c-1,.51-2.08,1-3.09,1.4l-.16.07a74.47,74.47,0,0,1-9.07,3.06,122.18,122.18,0,0,1-14.06,2.91c-4.86.74-9.76,1.21-14.67,1.48q-5.22.28-10.45.29C74.2,159,72.76,159,71.32,158.92Z"/></g><g id="Layer_95" data-name="Layer 95"><path class="cls-4" d="M1.88,16.22c2.82-4,7.83-5.86,12.58-7.16,23-6.33,47.28-6.22,71.16-5.86s48.46,1.09,70.49,10.39a2.68,2.68,0,0,1,1.36,1,2.72,2.72,0,0,1,0,2.06,117.21,117.21,0,0,1-19.33,40c-1.09,1.46-2.62,3-4.4,2.7a91.52,91.52,0,0,0-2.82,37.92,5.1,5.1,0,0,1,0,2.06c-.53,1.76-2.73,2.29-4.55,2.52l-31.45,3.94a180.24,180.24,0,0,1-21.25,1.83,155.16,155.16,0,0,1-18.77-1.26q-14.13-1.6-28.15-4a117.45,117.45,0,0,0-1-36.9,12,12,0,0,0-1.42-4.28,14.47,14.47,0,0,0-3.52-3.37A50.24,50.24,0,0,1,2.39,26.38"/><path class="cls-5" d="M8.34,41.22c1.48,5.14,6.16,8.87,11.23,10.59s10.53,1.73,15.88,1.63c10.86-.2,21.84-.82,32.27-3.88,8.33-2.44,16.72-6.45,25.27-5a33.72,33.72,0,0,0-14.12,6.79c8.09-2.6,16.76.34,25.09,2,8.16,1.67,16.69,2.11,24.79.19s15.78-6.37,20.64-13.13c-3,6.49-7.31,12.55-13.13,16.73-9.47,6.8-21.87,7.87-33.51,7.27s-23.32-2.64-34.87-1.15c-10,1.3-20,5.22-29.92,3.12C30.52,64.82,24.24,60,18.24,55.31,15.86,53.46,13.47,51.59,8.34,41.22Z"/><path d="M109.64,66.93c-7.72-.23-15.17-2.37-22.8-3.25-1.24-.34-.64-1.93.53-1.59,15.51.76,30.25,4.39,44.37-4.2C142.22,51.6,148,40.28,152.13,29.23c1.54-4.64,3.52-9.56,2.9-14.51-2.44-2.08-6.14-2.43-9.16-3.45C121.28,4.76,95.7,3.41,70.38,4c-18,.72-36.21,1.22-53.64,6-5,1.52-9.9,3.42-14,6.62C2,17,1.35,18.11.45,17.61s-.27-1.73.16-2.38C4.15,10.66,10,8.53,15.27,6.7,34.5,1,54.87.75,74.79.06a286,286,0,0,1,64,5.72c4.49,1.06,9,2.2,13.33,3.67,3,1.05,6.91,2.39,6.88,6.17.24,6.47-2,12.77-4.39,18.71C147,53.9,131.51,68,109.64,66.93Z"/><path d="M37.2,67.08a51.36,51.36,0,0,1-28-18.53C4.18,41.05,1.91,32,.68,23.18.53,20.77-.49,17.8.3,15.51c.8-.84,1.76.21,2,1,1.14,3.66,1.57,7.5,2.47,11.21,1.71,7.41,4,14.65,8.65,20.69A52.78,52.78,0,0,0,34.19,63.22a35.94,35.94,0,0,0,13.07,2.25C52,65.31,56.71,64.28,61.48,64a.73.73,0,0,1,.22,1.43c-8.05,1.7-16.39,3.88-24.57,1.69Z"/><path d="M129.73,101.25c-1-.77-.67-2.14-.78-3.24-.1-3.11-.18-6.22-.21-9.33,0-8.93.1-18,3.08-26.53.75-1.65,1.39-4.19,3.39-4.61,1.44.2.7,1.59.25,2.32a27.89,27.89,0,0,0-2.21,6.9c-1.49,7.46-1.52,14.93-1.38,22.47.08,3.38.2,6.76.34,10.14C132.55,100.75,131,102.25,129.73,101.25Z"/><path d="M27,103.62c-1-.27-1.18-1.32-1.05-2.2s0-2,0-3c-.1-10.37-.29-21-2-31.15-.36-2.81-1.46-5.14-2.18-7.71a1.44,1.44,0,0,1,.73-1.21c2.34-1,3.33,3.56,4,5.09,2.25,8.26,2.46,17,2.62,25.49,0,3.82-.07,7.64-.21,11.45C28.87,101.66,28.94,104,27,103.62Z"/><path d="M69,108.74a210,210,0,0,1-41.91-4.87,1.26,1.26,0,0,1,.6-2.43c4,.83,8.15,1.38,12.23,2a241.7,241.7,0,0,0,84.46-3c1.68-.34,3.34-.73,5-1,.63-.11,1.47-.32,2,.16,1.41,1.67-1.23,2.27-2.37,2.55C109.53,107.21,89.17,109,69,108.74Z"/></g></g></g></g></svg>