<svg xmlns="http://www.w3.org/2000/svg" xmlns:xlink="http://www.w3.org/1999/xlink" viewBox="0 0 175.19 492.98"><defs><style>.cls-1{isolation:isolate;}.cls-2{fill:#7d9cbe;opacity:0.53;}.cls-2,.cls-7{mix-blend-mode:multiply;}.cls-3{fill:url(#linear-gradient);}.cls-4{fill:url(#linear-gradient-2);}.cls-5{fill:#303c47;}.cls-6{fill:url(#linear-gradient-3);}.cls-7{fill:#eb7373;opacity:0.63;}</style><linearGradient id="linear-gradient" x1="42.91" y1="236.54" x2="136.56" y2="517.5" gradientUnits="userSpaceOnUse"><stop offset="0" stop-color="#82a1c6"/><stop offset="1" stop-color="#6a87a1"/></linearGradient><linearGradient id="linear-gradient-2" x1="81.96" y1="179.23" x2="96.02" y2="221.39" gradientUnits="userSpaceOnUse"><stop offset="0" stop-color="#637a8f"/><stop offset="1" stop-color="#4d657a"/></linearGradient><linearGradient id="linear-gradient-3" x1="64.37" y1="36.31" x2="191.44" y2="238.74" gradientUnits="userSpaceOnUse"><stop offset="0" stop-color="#eb7373"/><stop offset="0.39" stop-color="#dc5c5c"/><stop offset="1" stop-color="#bf3030"/></linearGradient></defs><g class="cls-1"><g id="Layer_2" data-name="Layer 2"><g id="Layer_77" data-name="Layer 77"><g id="Layer_65" data-name="Layer 65"><g id="Vector_layer" data-name="Vector layer"><path class="cls-2" d="M86.08,240a143.78,143.78,0,0,0-1.76-23.72A74.15,74.15,0,0,0,86,244.73c.06.28.13.56.2.84C86.12,243.7,86.1,241.83,86.08,240Z"/><path class="cls-2" d="M149.72,236.24a22.91,22.91,0,0,1-4.85-1.51,28.24,28.24,0,0,1-9.93-7.84c-3.3-4.38-4.6-8.72-6.25-13.89,0,5.07.56,10.4,3.48,14.71a20.45,20.45,0,0,0,19.26,8.74C150.86,236.4,150.28,236.34,149.72,236.24Z"/><path class="cls-2" d="M25,239a27.78,27.78,0,0,1-4.3,1.42c.63,0,1.25,0,1.88,0,13.55-.35,20.65-14.67,21.29-26.69C40.2,223.26,34.25,235.16,25,239Z"/><path class="cls-2" d="M62.16,469.63c-5.06-2-12.26-6.8-18.77-8.08-7.13-1.65-15.65-.38-20.69,5.31,3.45-2.29,7.13-2.78,10.83-2.91,8.85-.24,17.9,4.43,27.35,6.8a31.73,31.73,0,0,0,7.26.85A36.09,36.09,0,0,1,62.16,469.63Z"/><path class="cls-2" d="M150.09,460.66c-5.73-5.58-14.64-4.89-21.14-1.05-9.16,5.29-10.18,9-21.49,13.72a35.1,35.1,0,0,0,15.9-5.78c9-5.88,15.37-11,24.65-7.32a16.93,16.93,0,0,1,3.86,2.34A18.9,18.9,0,0,0,150.09,460.66Z"/><path class="cls-2" d="M155.07,334.75c-3.27,13.77-9.06,26.77-13.43,40.19-4,12.47-6.54,24.11-13,34.82-1,1.78-2.08,3.55-3.19,5.28,1.2-1.29,2.37-2.6,3.53-3.92C148.24,390,156.08,363,155.07,334.75Z"/><path class="cls-2" d="M30.7,403.8c-2.42-12.18-2.84-20.11-4.64-31.24-1.56-10.39-4.19-20.59-5.93-30.94-1.76,22.25,1.56,44.9,10.58,65.37.44,1,.89,2,1.36,3C31.56,407.94,31.11,405.87,30.7,403.8Z"/><path class="cls-2" d="M76.11,435c-1.93-6.31-5.45-12-7.71-18.13a184,184,0,0,0,6.11,28c2.22,6.8,5.1,18.3,6.26,22.9A98.74,98.74,0,0,0,76.11,435Z"/><path class="cls-2" d="M99.74,432a205.94,205.94,0,0,0,3.81-31.6c-8.93,27.3-12.73,39.48-10.49,68.83-.3-.39-.61-.79-.89-1.19a7.86,7.86,0,0,0,1,2c0,.39.06.79.1,1.19,0-.31.06-.61.09-.91a8.68,8.68,0,0,0,3.57,2.91,24.31,24.31,0,0,1-3.51-3.59c.06-.59.11-1.17.18-1.76A306,306,0,0,1,99.74,432Z"/><path class="cls-2" d="M134.57,429.36a92.45,92.45,0,0,1-19.85,22.71c-2.54,2.24-6.33,5.34-8.23,6.86-1.33,1-4.12,3.15-6.53,3.87,5.9-.21,11.18-3.54,15.94-6.75,9.7-6.71,15.3-15.77,19.85-26.79q1.08-2.49,2.09-5Q136.24,426.84,134.57,429.36Z"/><path class="cls-2" d="M145.63,433c-1.7,5.89-3.2,11.7-6.14,16.89a50.88,50.88,0,0,0,11.1-20.59c1.45-5.33,1.72-10.86,2.3-16.32C150.38,419.58,147.61,426.14,145.63,433Z"/><path class="cls-2" d="M49.25,459.9c-5.42-5-9.89-10.95-14.6-16.62-5.77-6.64-9.26-10.39-13.45-17.91,3.07,17.34,13.64,27.6,28.42,36,1,.59,2.1,1.16,3.17,1.7C51.57,462.07,50.4,461,49.25,459.9Z"/><path class="cls-2" d="M59,450.6c-2.12-2.58-3.43-4.5-5.29-6.83a58.34,58.34,0,0,1-6.77-10.35c1.5,9.66,8.31,17.59,16.59,22.39l.73.43A59.71,59.71,0,0,1,59,450.6Z"/><path class="cls-2" d="M82.86,270.8c-2.78,12.54-6,25-8.12,37.69-2.29,14.11-3.54,26.17-5.94,40.64L68.5,351c.41-1.25.81-2.5,1.21-3.76,3.64-12.12,7.84-24.13,10.42-36.54A175.67,175.67,0,0,0,82.86,270.8Z"/><path class="cls-2" d="M56.25,254.81c3,4.83,9,6.76,14.48,6.6A38.08,38.08,0,0,1,56.25,254.81Z"/><path class="cls-2" d="M98.64,261.25a9.25,9.25,0,0,0,4.5-1.77A34.17,34.17,0,0,0,98.64,261.25Z"/><path class="cls-2" d="M89.9,271.06a71.58,71.58,0,0,0,.76,18.55c1.26,6.41,3.78,12.48,6,18.6C94.55,295.94,94.14,283.38,89.9,271.06Z"/><path class="cls-3" d="M143,199.44c4.73,5.55,6,13.18,7,20.41a609.7,609.7,0,0,1,5.18,95c.28-1.15,4.91,133.8,4.91,133.8l.91,28.18c.06,2,.1,4-.85,5.72-1.37,2.48-4.48,3.52-7.31,3.48s-5.59-.93-8.4-1.3c-6-.78-11.94.75-17.69,2.43s-11.59,3.55-17.59,3.45-12.33-2.56-15.4-7.72c-2.4-4-2.47-9-2.47-13.66V429.92c6.62-51.18-6.66-105.6-1.81-159.35l-4.8.22q-1.09,39-2.35,78c-.56.95,0,72,0,72A440.16,440.16,0,0,1,82,469c-.44,7.27-1.57,15.49-7.49,19.72-6.26,4.47-14.93,2.39-22.11-.37s-15-6.08-22.28-3.56c-2.89,1-5.4,2.85-8.25,3.94s-6.42,1.25-8.63-.85c-3.06-2.93-1.72-7.95-.59-12,2.57-9.22,2.93-18.9,3.27-28.47l5.18-146.52c-.17-21.72.27-42.77,1.32-63.79.62-12.31,1.61-25.15,8.29-36.18a103,103,0,0,0,53.51,11.41A110,110,0,0,0,144,199.28C143.53,199.83,143.1,200.37,143,199.44Z"/><path class="cls-4" d="M34,189.27c-4.06,1.57-5.39,7.67-2.35,10.79,1.47,1.51,3.55,2.22,5.55,2.88,13.07,4.32,26.3,8.68,40,9.77,17.38,1.37,34.69-2.57,51.68-6.48a34.22,34.22,0,0,0,9.47-3.18c2.9-1.66,5.39-4.37,5.95-7.67s-1.29-7.07-4.51-8A57.49,57.49,0,0,1,123.39,195c-13.54,4.08-27.95,4.8-42,3.5s-27.92-4.61-41.54-8.44a14,14,0,0,0-4.87-.76C33.31,189.44,31.62,190.33,34,189.27Z"/><path class="cls-5" d="M122,195.08a20.12,20.12,0,0,1,3.17,13,5.61,5.61,0,0,0,5.23-3.38,8.89,8.89,0,0,0,.1-6.46,7.41,7.41,0,0,0-3.29-4.32A4,4,0,0,0,122,195.08Z"/><path class="cls-5" d="M52.57,194.51a26.7,26.7,0,0,0-1,14.55,27.35,27.35,0,0,1-7.36-2.8c.54-3.53-1-7.15-.3-10.64a4.21,4.21,0,0,1,1.86-2.93,3.72,3.72,0,0,1,3.05-.09C49.8,193,50.66,193.59,52.57,194.51Z"/><path class="cls-5" d="M82.21,209a6.29,6.29,0,0,1,0-8.1,6,6,0,0,1,8-.57,7.08,7.08,0,0,1,2.2,4,6.86,6.86,0,0,1-2.12,6.78,6,6,0,0,1-7-.17C81.26,209.36,80.28,206.72,82.21,209Z"/><path d="M79.69,214.87c-15.07-.53-30.49-3.4-44-10.17-2.54-1.38-5.65-2.49-6.89-5.33-1.46-4.09.41-8.77,3.55-11.56,2.44-1.3,5.28.24,7.71.91,3.74,1.25,7.48,2.53,11.31,3.46,15.92,3.52,32.29,5.36,48.57,4.29,9.48-.45,19-1.8,27.83-5.52,2.18-.85,4.34-1.73,6.51-2.6,1.82-.68,3.69-1.74,5.7-1.48,2.78.75,4.23,3.86,5.44,6.24,2.33,4.56-2.38,8.11-5.85,10.24C123.47,212.58,98.11,215.36,79.69,214.87Zm6.12-3.59c16.17-.53,41.12-2.92,54.39-12.42,4.28-3,2.18-4.74-.22-8.11-.24-.24-.45-.7-.83-.62a25.35,25.35,0,0,0-3.25,1.2,153.77,153.77,0,0,1-14.86,5.5c-11.18,3-22.89,3.15-34.4,3.19a165.73,165.73,0,0,1-39.32-5.57c-4.49-1.11-8.68-3.53-13.24-4.22a29.14,29.14,0,0,0-2.33,6.19,3.38,3.38,0,0,0,1,2.3c3.31,2.51,7.43,4,11,5.51C57.19,209.38,71.54,211.38,85.81,211.28Z"/><path d="M43.65,206.71a4.12,4.12,0,0,1-.86-2.56,22.77,22.77,0,0,1,1-8.83c.36-1,1.58-4.69,3-3.11a1.86,1.86,0,0,1,0,1.23,36.15,36.15,0,0,0-1.05,9.09c-.1,1.17.46,2.36.24,3.5A1.46,1.46,0,0,1,43.65,206.71Z"/><path d="M50,207.41c-1.32-3.61-1.47-11,1.86-13.51.84-.28,1.27.55,1,1.26a23.27,23.27,0,0,0,.1,11.22A1.55,1.55,0,0,1,50,207.41Z"/><path d="M82.06,211.21a7.48,7.48,0,0,1-2.1-2.57,7.65,7.65,0,0,1-.58-1.53,6.8,6.8,0,0,1-.21-1.74,7,7,0,0,1,2.25-5.07,7.37,7.37,0,0,1,2.79-1.61,6.78,6.78,0,0,1,1.17-.25,7,7,0,0,1,3.09.18A7.21,7.21,0,0,1,93.64,206a7.09,7.09,0,0,1-.93,3.07,7.23,7.23,0,0,1-5.17,3.56,7.55,7.55,0,0,1-1.16.09A7.06,7.06,0,0,1,82.06,211.21Zm4.81-1.2.47,0a5.54,5.54,0,0,0,.56-.11l.54-.19c.2-.09.39-.19.53-.27l0,0h0a5.74,5.74,0,0,0,.5-.36c.17-.14.33-.29.49-.45s.23-.27.35-.42.19-.29.27-.44a4.66,4.66,0,0,0,.28-.6c.06-.16.11-.32.16-.48s.09-.44.12-.66,0-.44,0-.65,0-.34,0-.5a5.41,5.41,0,0,0-.12-.58c-.06-.19-.12-.38-.19-.56a5.12,5.12,0,0,0-.27-.52,4.93,4.93,0,0,0-.36-.53c-.12-.15-.25-.29-.38-.43s-.33-.29-.51-.43-.33-.22-.51-.32-.36-.17-.54-.25a5.76,5.76,0,0,0-.59-.18,4.51,4.51,0,0,0-.53-.09c-.2,0-.41,0-.61,0s-.43,0-.64,0l-.09,0-.29.07-.55.2q-.27.12-.54.27l-.46.32-.46.43c-.15.16-.29.33-.42.5s-.21.31-.3.47l0,.07c-.08.17-.16.34-.23.51s-.15.44-.21.67-.06.33-.09.51,0,.42,0,.63,0,.42,0,.63.09.48.15.71l.15.43a5.06,5.06,0,0,0,.24.46c.1.16.21.31.32.46a5,5,0,0,0,.38.42c.15.13.3.26.47.39l.46.3a6.28,6.28,0,0,0,.59.27c.2.08.4.14.6.2l.65.11A5.83,5.83,0,0,0,86.87,210Z"/><path d="M125.4,207c-1.65-.18-.86-2.16-1.14-3.25a22.14,22.14,0,0,0-2.73-7.87,1,1,0,0,1,.31-1.85,1.84,1.84,0,0,1,1.4.76C124.82,196,128.7,206.94,125.4,207Z"/><path d="M130.86,204.57c-1.47-.09-1.19-1.68-1.32-2.71a12.14,12.14,0,0,0-3.31-6.83c-1.59-.48-.48-2.64.94-1.89,3.39,2.05,5,6.41,5,10.19A1.31,1.31,0,0,1,130.86,204.57Z"/><path d="M58.39,492.59c-8.38-.86-16-5.53-24.53-5.41a26.51,26.51,0,0,0-9.48,2.14c-3.33,1.43-7.17,2.8-10.59.84-4.32-2.1-4.42-7.29-3.61-11.42.59-4.4,1.16-8.8,1.67-13.18.57-5.28.9-10.6,1.37-15.89,4.43-42.47,4.27-85.21,5.84-127.85.61-24.51,1.22-49,1.49-73.54.53-15.31-.63-34.16,7.77-47.48a5.13,5.13,0,0,1,2.26-2,1.1,1.1,0,0,1,1.41.61,1.42,1.42,0,0,1-.23,1.18,48,48,0,0,0-4.82,12.29c-3.56,15-2.71,30.53-3.11,45.81-.26,18.43-.74,36.85-1.15,55.28C21.29,351,21.22,388,19,424.88c-1.2,14.63-2.23,29.48-3.56,44.06C15,473,14.36,477,13.84,481c-.45,2.54-.08,5.58,3,6,3.48.54,6.6-2,10-2.6A29.82,29.82,0,0,1,36,483.35c8,.21,15.24,4.36,23.11,5.26,6.6.79,14.5.69,17.71-6.14,1.77-3.27,2.38-7,2.82-10.66,1-9,.81-18.13.71-27.19v.26c-1.89-58.24.69-110.09,1.92-138.76.72-16.6,1-31.95,0-34.22-.09-1,.39,1.82,0-1.25-.11-.77-8.39-1.43-8-2.1,1.09-1.76,11.75.46,11.88,2.59,1.57,15-3.56,65.44-2.9,98,.46,25.06,1.18,50.13,1.21,75.18-.17,11.49.43,23.2-2.2,34.47C79,491.44,70.44,494.12,58.39,492.59Z"/><path d="M84.46,272.71a43.52,43.52,0,0,1-14.66-3.33A33.79,33.79,0,0,1,65.34,267a.91.91,0,1,1,.85-1.59,60.42,60.42,0,0,0,29.22,2.33,63.46,63.46,0,0,0,7.62-1.54c1.64-.33,3.78-2.12,5.11-.32C111.31,271.49,87.77,273.28,84.46,272.71Z"/><path d="M106.9,492.52a23.66,23.66,0,0,1-15.26-7.75c-1.28-1.45-1.48-3.44-1.74-5.28a126.22,126.22,0,0,1-.76-13.05c-.33-15.23.21-30.47.63-45.69,1-30.42-2.66-61.6-2-92,.36-19.27-1.18-38.17-.63-57.43.2-1,7.3-1.46,8.36-1.54A2.38,2.38,0,0,1,98,271.61c.08.47-6.74-1.23-6.79-.76a117.66,117.66,0,0,0-.75,13.88c0,48.28,4.74,96,3.21,144.29-.42,14.39-.85,28.82-.37,43.2.19,3.2.13,6.52,1,9.62,5.52,6.32,14.42,7.2,22.25,6,10-1.05,18.74-7.76,29-6.13,4.05.59,7.85,3.18,12,2.93,1-1.66.54-4,.71-5.87.09-13.76-.64-27.51-1.22-41.26-1.62-42.21-3.34-84.42-4.63-126.64-.52-18.17-.78-36.33-1.84-54.48-.88-15.43-1-31.09-4.46-46.22a28.44,28.44,0,0,0-4-8.85,2.3,2.3,0,0,1-.68-1.78c1.21-3.06,4.26.69,5.31,2.11,4.91,7.3,5.13,16.55,6.33,25,1.26,11.9,1.55,23.89,2.29,35.83,1.46,30.35,1.86,60.74,3.1,91.1,1.32,29.88,2.29,59.79,3.54,89.67.48,12.4,1.1,24.82.86,37.23-.11,12.25-8.9,7.75-16.63,5.39a19.87,19.87,0,0,0-9.95.44c-4,1.08-7.7,2.75-11.57,4.07A44.86,44.86,0,0,1,106.9,492.52Z"/></g></g><g id="Layer_61_copy_2" data-name="Layer 61 copy 2"><g id="Vector_layer_copy_3" data-name="Vector layer copy 3"><path class="cls-6" d="M138.9,157.41c-3.77-9.49-1-20.4,3.74-29.47s7.64-16.58,12-25.83C163.72,82.7,163.89,59,152,41.2c-1.91-2.62-2.52-6.31-5.13-8.57a4.11,4.11,0,0,1-1.06-1.18,3.92,3.92,0,0,1-.21-2.1L147.73,4a3,3,0,0,0-.2-1.73,3,3,0,0,0-2.28-1.11,4.8,4.8,0,0,0-3.55.36,4.68,4.68,0,0,0-1.5,3A102.86,102.86,0,0,0,138,32,341.08,341.08,0,0,1,86.09,59.33C73.64,53.15,60.6,45.79,47.57,38.44c-5.26-3.14-9.91-5.59-11.6-10-1.21-3.14-.65-6.64-.46-10a44.82,44.82,0,0,0-.57-10.28,9.61,9.61,0,0,0-1.55-4.28,3.78,3.78,0,0,0-4-1.49A3.94,3.94,0,0,0,27.07,6a13.57,13.57,0,0,0,1,4.46c2.05,6.43,2.74,13.3.94,19.68C22.62,38.87,18.84,50.24,15.23,60.4s-2.35,21.69.31,32.14c2,8,3.67,12.21,8.09,19.16S30.76,126,33.87,133.64s4.53,16.25,2,23.82C68.48,172.14,107.54,171.72,138.9,157.41Z"/><path class="cls-7" d="M15.54,90c6.63,9,26.18,15.22,41.21,12.26s30-9.31,45.11-7a60.59,60.59,0,0,0-24.74,10.81c14.75-4.58,30.65-1.3,46.08-1.9s33-7.5,36.85-22.46c.9,19.41-15.72,38-35.12,39.17s-37.65-12.37-56.69-9.22c-6.91,1.14-36.77,10.71-36.77,10.71l-9.6-15.15Z"/><path d="M29.12,31c-.33-6.37-.41-13-1.75-19.16-.26-2.54-1.9-5-1.42-7.57C26.74,1.9,29.49.7,31.78.92c4.53.86,4.15,9.93,4.74,13.58a124.78,124.78,0,0,1,.71,15.22,1.35,1.35,0,1,1-2.69,0c-.09-7.54-.14-15.29-1.36-22.7-.38-1.18-.6-3.71-2.19-3.64-1,.13-2.23.5-2.59,1.51.17.57.42,1.13.55,1.72A63.12,63.12,0,0,1,31,21.2c.06,3.17,0,6.36-.28,9.52A.83.83,0,0,1,29.12,31Z"/><path d="M90.83,60.2q-1.9.88-3.84,1.68A251.42,251.42,0,0,1,54.42,44.26C48.15,40,41.46,36.18,35.88,31c-.72-.65-.83-2.16.44-2.13a4.46,4.46,0,0,1,1.56.87C50.3,38.41,63,46.73,76.45,53.6A130.8,130.8,0,0,0,90.83,60.2Z"/><path d="M138.16,30.9c6.72,1.71-35.28,23.33-38,24.72C95.82,57.84,91.48,60,87,61.88c-1.37-.59-2.73-1.2-4.09-1.83L83,60c2-.93,4-1.84,5.91-2.71,4.72-2.2,9.34-4.5,14-6.83,9.1-4.54,18.19-9.15,26.81-14.56,2.47-1.52,4.93-3.08,7.39-4.61A1.91,1.91,0,0,1,138.16,30.9Z"/><path d="M144.06,32.11c-.29-9.3,2.07-18.66,3-27.8,0-.63-.06-1.44-.88-1.39a12,12,0,0,0-3.78,0c-2.34,7-2.24,15-2.78,22.41-.1,2-.17,3.92-.41,5.87a1.13,1.13,0,0,1-1.92.9c-.84-1.44-.37-3.65-.49-5.18.21-5.61-.12-22.89,4-26.32,2.13-1,4.81-.67,7-.06,3,1.57,1.9,5.52,1.51,8.21s-1,5.48-1.38,8.24a135.64,135.64,0,0,0-1.29,14.08C147,32.84,144.81,33.88,144.06,32.11Z"/><path d="M35.15,157.87a4.43,4.43,0,0,1-.18-2.4c.08-1,.13-2,.18-2.8A52.86,52.86,0,0,0,31,128.25c-3.07-6.71-7.37-12.23-10.7-18.71C7.61,84.41,10.59,59.17,25,36.06c.91-1.42,6.21-9.12,6.88-5.74a4.27,4.27,0,0,1-.91,1.89c-1.39,1.95-2.82,3.94-4,6A102.26,102.26,0,0,0,21.65,48.7C11.89,70.23,14,92.55,25.8,112.33c2.72,4.73,5.76,9.32,8,14.35a64.78,64.78,0,0,1,4.93,20.24,50.21,50.21,0,0,1-.65,9.94,2.65,2.65,0,0,1-.56,1.37A1.42,1.42,0,0,1,35.15,157.87Z"/><path d="M161.73,67.28A92.4,92.4,0,0,1,153,109.77c-2.47,5-5.67,9.29-8.27,14.13-3.14,5.89-4.45,12.82-4.8,19.69a139,139,0,0,0-.19,14.86c-1.07.73-2.15,1.43-3.25,2.1-.41-12.34-.62-25.59,4.35-36.79,2.4-5.13,5.72-9.54,8.41-14.45,6.62-12.86,9.55-28.19,8.8-43.15a59.07,59.07,0,0,0-8.55-25.25,41,41,0,0,0-5-6.69c-.75-.86-2.19-2.14-1.1-3.39,3-1.82,9.43,8.31,10.83,11.09A59.16,59.16,0,0,1,161.73,67.28Z"/><path d="M140.19,153.7c0,1.58.05,3.17.14,4.75-17.3,10-37.88,13.44-57.71,12.27a140.26,140.26,0,0,1-26.95-4c-7.34-1.93-14.67-4.62-21-8.82h0a.09.09,0,0,1,0,0,3.86,3.86,0,0,1-.21-2.4l0-.29a28.41,28.41,0,0,1,2.74,1.09c22.26,10.29,52.65,13,76.51,8a97.26,97.26,0,0,0,21.82-7.87C137.08,155.54,138.63,154.61,140.19,153.7Z"/></g></g><g id="Layer_61_copy" data-name="Layer 61 copy"><g id="Vector_layer_copy_2" data-name="Vector layer copy 2"><path class="cls-6" d="M138.9,157.41c-3.77-9.49-1-20.4,3.74-29.47s20-22,24.34-31.26c9.11-19.41,3.88-39.35-8-57.19-1.91-2.62-9.49-4.6-12.1-6.86a4.11,4.11,0,0,1-1.06-1.18,3.92,3.92,0,0,1-.21-2.1L147.73,4a3,3,0,0,0-.2-1.73,3,3,0,0,0-2.28-1.11,4.8,4.8,0,0,0-3.55.36,4.68,4.68,0,0,0-1.5,3A102.86,102.86,0,0,0,138,32,341.08,341.08,0,0,1,86.09,59.33C73.64,53.15,60.6,45.79,47.57,38.44c-5.26-3.14-9.91-5.59-11.6-10-1.21-3.14-.65-6.64-.46-10a44.82,44.82,0,0,0-.57-10.28,9.61,9.61,0,0,0-1.55-4.28,3.78,3.78,0,0,0-4-1.49A3.94,3.94,0,0,0,27.07,6a13.57,13.57,0,0,0,1,4.46c2.05,6.43,2.74,13.3.94,19.68C19.92,33.71,10.51,47.52,6.91,57.68s-4.25,27.46-1.6,37.9c2,8,12.19,16,16.61,22.93s8.84,7.5,11.95,15.13,4.53,16.25,2,23.82C68.48,172.14,107.54,171.72,138.9,157.41Z"/><path class="cls-7" d="M6.25,91.22c7.45,10.32,29.39,17.4,46.25,14s33.64-10.64,50.63-8a67.62,67.62,0,0,0-27.77,12.36c16.55-5.23,34.4-1.49,51.71-2.18s37.06-8.57,41.36-25.66c1,22.18-17.64,43.37-39.41,44.76S86.77,112.41,65.4,116c-7.76,1.3-37.19,9.64-37.19,9.64L13.36,110.93Z"/><path d="M29.12,31c-.33-6.37-.41-13-1.75-19.16-.26-2.54-1.9-5-1.42-7.57C26.74,1.9,29.49.7,31.78.92c4.53.86,4.15,9.93,4.74,13.58a124.78,124.78,0,0,1,.71,15.22,1.35,1.35,0,1,1-2.69,0c-.09-7.54-.14-15.29-1.36-22.7-.38-1.18-.6-3.71-2.19-3.64-1,.13-2.23.5-2.59,1.51.17.57.42,1.13.55,1.72A63.12,63.12,0,0,1,31,21.2c.06,3.17,0,6.36-.28,9.52A.83.83,0,0,1,29.12,31Z"/><path d="M90.83,60.2q-1.9.88-3.84,1.68A251.42,251.42,0,0,1,54.42,44.26C48.15,40,41.46,36.18,35.88,31c-.72-.65-.83-2.16.44-2.13a4.46,4.46,0,0,1,1.56.87C50.3,38.41,63,46.73,76.45,53.6A130.8,130.8,0,0,0,90.83,60.2Z"/><path d="M138.16,30.9c6.72,1.71-35.28,23.33-38,24.72C95.82,57.84,91.48,60,87,61.88c-1.37-.59-2.73-1.2-4.09-1.83L83,60c2-.93,4-1.84,5.91-2.71,4.72-2.2,9.34-4.5,14-6.83,9.1-4.54,18.19-9.15,26.81-14.56,2.47-1.52,4.93-3.08,7.39-4.61A1.91,1.91,0,0,1,138.16,30.9Z"/><path d="M144.06,32.11c-.29-9.3,2.07-18.66,3-27.8,0-.63-.06-1.44-.88-1.39a12,12,0,0,0-3.78,0c-2.34,7-2.24,15-2.78,22.41-.1,2-.17,3.92-.41,5.87a1.13,1.13,0,0,1-1.92.9c-.84-1.44-.37-3.65-.49-5.18.21-5.61-.12-22.89,4-26.32,2.13-1,4.81-.67,7-.06,3,1.57,1.9,5.52,1.51,8.21s-1,5.48-1.38,8.24a135.64,135.64,0,0,0-1.29,14.08C147,32.84,144.81,33.88,144.06,32.11Z"/><path d="M33.47,157.87a3.09,3.09,0,0,1-.26-2.4c.12-1,.18-2,.26-2.8,1-8.41-1.46-16.95-6.09-24.42-4.5-6.71-10.79-12.23-15.66-18.71C-6.83,84.41-2.47,59.17,18.54,36.06c1.33-1.42,9.08-9.12,10.07-5.74-.05.74-.82,1.31-1.33,1.89-2,1.95-4.13,3.94-5.9,6A96.21,96.21,0,0,0,13.71,48.7C-.57,70.23,2.49,92.55,19.78,112.33c4,4.73,8.44,9.32,11.76,14.35a48.92,48.92,0,0,1,7.2,20.24,34.34,34.34,0,0,1-.94,9.94,2.28,2.28,0,0,1-.82,1.37A2.62,2.62,0,0,1,33.47,157.87Z"/><path d="M22.68,32.48a34.26,34.26,0,0,1,7.06-4.81l.47,2.78a26.2,26.2,0,0,0-7,4.6,1.14,1.14,0,0,1-.56.34.73.73,0,0,1-.73-.62,2.15,2.15,0,0,1,.12-1"/><path d="M152.73,32.39a13.25,13.25,0,0,0-7.23-2.51c-.44.68-.88,1.61-.38,2.26a2.14,2.14,0,0,0,.85.56A33.09,33.09,0,0,1,158.65,43c3.34,4.37,7.68,8.44,9.25,13.71,1-.37.3,0,.41-1.07a2.74,2.74,0,0,0-.3-1.34,52.54,52.54,0,0,0-15.34-20.91"/><path d="M175.09,67.28C176,82,171,97,161.71,109.77c-3.77,5-8.64,9.29-12.62,14.13-4.78,5.89-6.78,12.82-7.3,19.69a91.08,91.08,0,0,0-.3,14.86c-1.62.73-3.28,1.43-5,2.1-.62-12.34-.95-25.59,6.63-36.79,3.66-5.13,8.72-9.54,12.81-14.45A62,62,0,0,0,169.4,66.16c-1.16-9.18-6.22-17.78-13-25.25a47.88,47.88,0,0,0-7.56-6.69c-1.14-.86-3.33-2.14-1.68-3.39,4.51-1.82,14.38,8.31,16.51,11.09C170.07,49.47,174.31,58.2,175.09,67.28Z"/><path d="M140.19,153.7c0,1.58.05,3.17.14,4.75-17.3,10-37.88,13.44-57.71,12.27a140.26,140.26,0,0,1-26.95-4c-7.34-1.93-14.67-4.62-21-8.82h0a.09.09,0,0,1,0,0,3.86,3.86,0,0,1-.21-2.4l0-.29a28.41,28.41,0,0,1,2.74,1.09c22.26,10.29,52.65,13,76.51,8a97.26,97.26,0,0,0,21.82-7.87C137.08,155.54,138.63,154.61,140.19,153.7Z"/></g></g></g></g></g></svg>