<svg xmlns="http://www.w3.org/2000/svg" viewBox="0 0 228.72 516.8"><defs><style>.cls-1{fill:#fff;}.cls-2{fill:#dbdbdb;}.cls-3{fill:none;stroke:#000;stroke-linecap:round;stroke-linejoin:round;stroke-width:4px;}</style></defs><g id="Layer_2" data-name="Layer 2"><g id="Layer_120" data-name="Layer 120"><g id="Layer_71_copy_2" data-name="Layer 71 copy 2"><g id="Layer_116_copy_2" data-name="Layer 116 copy 2"><path class="cls-1" d="M225.49,498.92c-3.92-7.37-9.43-13.75-13.94-20.77a72,72,0,0,1-11.08-29.54c-7.58-13.27-.43-31.27-7.78-44.67-2.19-4-5.53-7.26-7.8-11.21-2.82-4.9-3.86-10.61-4.64-16.22A232.57,232.57,0,0,1,178,346c-.08-9.91.47-19.82.57-29.73.19-17.62-1-35.23-2.26-52.81q-1.26-18.16-2.53-36.34c-.79-11.42-1.7-23.2-5.74-33.47a1.85,1.85,0,0,1-.65-.85c-.35-.89-.65-1.8-.92-2.72-.22-.46-.44-.91-.67-1.35.06-.14.11-.29.18-.42a59.91,59.91,0,0,1-1.54-9.9c-.08-1-.13-2.08-.15-3.11a51.74,51.74,0,0,1-.27-9.95l-1.21.53a87.6,87.6,0,0,1,11.68-38.77c3.09-5.31,2.5-9.06,5-14.66,3.14-7,2.93-17.13,4.13-24.71-7.75-3.85-11.76-7-18.08-13-10.8-10.13-18.11-22.08-28.26-33.25A170.94,170.94,0,0,0,147,5.8a4.07,4.07,0,0,0-3-3.72,145.72,145.72,0,0,1-30.49,31.54,3.41,3.41,0,0,1-4.91,0c-5.13-3.2-10.29-6.42-14.77-10.48s-8.29-9-10.08-14.8a23.33,23.33,0,0,0-1.13-3.3c-.64-1.29-1.64-2.4-2-3.79-.11-.4-.29-.91-.71-.91a.9.9,0,0,0-.48.23A39.82,39.82,0,0,0,76.1,3.34C75.79,11.8,78.35,20.09,81.35,28c1.56,4.12,3.41,8.4,6.94,11-1.18,4.69-4.65,8.42-8.07,11.83C68.81,62.25,60.47,73.19,47.35,82.54c-2.65,1.89-3.59,3.26-6.71,4.19a9.18,9.18,0,0,0-2.9,2.62c-.34.56.92,5.62,1,6.27,1,6.85,1.75,10.65,5.65,16.24,2.84,9.78,5.34,14.8,9.12,24.25,3.21,8,4,16.73,5.12,25.83-.39,1-.72,2-1,3a36.18,36.18,0,0,1-.77,20,16.91,16.91,0,0,1,.31,2.74,20,20,0,0,1-1,5.5c-8.24,28.89-16.92,58.25-16.24,88.29.35,15.29,3.12,30.44,3.15,47.6,6,23.64-1.34,48.37-8.6,71.64a231,231,0,0,1-8.83,25C24,429.37,22.19,433,21.34,436.9c-.64,2.89-.72,5.88-1.08,8.83C18.6,459.1,11.25,471,3.89,482.3a3.73,3.73,0,0,0-.79,1.88,3.48,3.48,0,0,0,.46,1.56c3.35,7,9.64,12.18,16.55,15.66s14.47,5.41,22,7.31c2.39.6,4.89,1.21,7.29.66,1.92-.44,4.55-1.3,5.44.29,8,3,16.72,6.07,25,3.85a40.66,40.66,0,0,0,5.67-2.12l6.15-2.64c4.31-1.86,8.7-3.74,13.36-4.31,11.67-1.41,22.68,5.48,34.35,6.88,6.29.76,12.64-.11,18.94-.79,13.34-1.46,26.76-2.14,40.18-3.19a54.07,54.07,0,0,0,26.13-5.6,1.69,1.69,0,0,0,.89-2.82Z"/><path class="cls-2" d="M44.83,111.35c10,8.11,25.72,6.69,38.55,2.84s25.53-9.72,39-8.92a36.32,36.32,0,0,0-16.74,8.18c9.27-3.93,20.08-.3,30.28.78,18.89,2,38.7-5.88,49.63-19.76-2.15,8.38-4.61,17.27-11.56,23.24-10.22,8.78-26.49,8.28-40.37,5.61s-28.2-6.94-41.95-3.76c-12.7,2.94-23.32,12-37.18,12.69a13.23,13.23,0,0,0-2.24-8.78,44.43,44.43,0,0,0-6.2-7.28C44.92,115,43.76,113.82,44.83,111.35Z"/><path class="cls-2" d="M50.69,219.85c-3.36,11.6-2.59,24-1.79,36,.78,11.73,1.57,23.52,4.34,34.94,3.06,12.66,8.48,24.62,12.15,37.11,10.88,37.06,5.74,77.46-8.07,113.52,6.29-30.23,10.68-61.87,2.89-91.75-2.35-9-5.77-17.71-8.82-26.51C41.28,294,35.32,261.53,50.69,219.85Z"/><path class="cls-2" d="M144.34,511.22c13.12-11.66,18-30.29,17.84-47.83s-4.54-34.75-6.86-52.14-2.38-35.89,5.56-51.53A218.25,218.25,0,0,0,165.22,432c3,12.85,7.12,25.47,8.95,38.53s1.2,26.95-5,38.61C161.68,509.87,154.16,510.64,144.34,511.22Z"/><path class="cls-2" d="M68.72,514.45A122.21,122.21,0,0,1,91.38,425.4C82,450.13,73.92,477.1,80.67,502.66c1,3.82,2.73,8,6.39,9.49C81.21,514.79,74,514.23,68.72,514.45Z"/><path class="cls-2" d="M28.77,419C23,436.63,25.37,455.79,23,474.2c-1.07,8.4-3.6,17.42-10.51,22.32,2.72-8,5.46-16.17,6.45-24.61.61-5.23.54-10.52.84-15.78A103.7,103.7,0,0,1,28.77,419Z"/><path class="cls-2" d="M163.5,189.24c8.74,34.13-12.55,69.46-8.84,104.5l13.78-51.9c1.41-5.34,2.84-10.73,3-16.25a71.71,71.71,0,0,0-1.12-12.73C169.12,204.64,167.91,196.42,163.5,189.24Z"/></g><path d="M36.68,89.4c-1.1-2.5,2.16-3.19,3.46-4.41,2.91-2,5.9-4.15,8.69-6.24C59.68,70.76,70.16,62,79,51.52,81,49,88.14,40.85,86.62,37.69a68.16,68.16,0,0,1-6.93-15.58C79,20.21,72.49,1.65,76.1,3.34c.57.55,1.08.88,1.27,1.6.89,4.72,2.83,9.47,4.18,14a75.06,75.06,0,0,0,5.6,13.94c.56,1.06,1.11,2.14,1.7,3.18a3.43,3.43,0,0,1,.91,3.18c-1.3,5.59-5.08,10.07-8.37,14.39-9,11.2-20.24,20.21-31.49,28.48l.06,0c-1.51,1.11-3.11,2.31-4.53,3.36-2,1.48-4,2.89-6,4.27A1.7,1.7,0,0,1,36.68,89.4Z"/><path d="M57.2,155.94c-.55-.62-.54-2-.69-2.74-1.33-7.84-2.94-15.6-5.86-22.71C45.15,117.52,37.82,105,36.48,90c-.16-1.27.42-3.56,1.72-2.54.61.63.54,1.76.76,2.63C41.53,105.5,49.29,118,54.59,131.92a109,109,0,0,1,5,20.39c-.25.44-.46.91-.67,1.38,0,0,0-.05,0-.08-.25.56-.47,1.14-.71,1.71-.14.35-.27.71-.41,1.06l0,0A1.55,1.55,0,0,1,57.2,155.94Z"/><path d="M87.31,37.91C79.79,29.63,76.17,18.38,74.45,7.53c-1.14-5.36.37-5.78,5.07-7.38,2.14-.69,3,1.15,3.6,2.85.79,2,1.61,4,2.55,5.95a54.22,54.22,0,0,0,8.22,11.74c3.89,4.46,8.2,8.79,13.45,11.37a9.13,9.13,0,0,0,4.48,1.19c3.35-1.08,6.13-3.4,8.81-5.61,8.14-7.57,14.84-16.53,21.7-25.24.58-.69,1.63-1.23,2.43-.58,1.57,1.48-.64,3.33-1.42,4.65-1.89,2.7-4,5.27-6.07,7.82C131.53,20.8,117.68,39.66,108,35.75c-5.72-1.84-10.2-6.1-14.2-10.4A69.42,69.42,0,0,1,79.87,3.41a5.08,5.08,0,0,0-2.57,1,71.35,71.35,0,0,0,5.27,20.28C84.36,29,86.8,33,89,37.17,89.56,38.55,88.14,38.88,87.31,37.91Z"/><path d="M135.52,42.51c-1.32-.76-.8-2.3-.14-3.21a119.49,119.49,0,0,0,6.93-18.57c1.46-5.23,3.44-10.54,3.29-16-1.25-.18-3.34-.63-2.95-2.32.9-2.16,3.83-.89,5.2.11,1.51,2,.66,5,.46,7.34a137.44,137.44,0,0,1-8.37,27.89C138.91,39.41,138.21,43.71,135.52,42.51Z"/><path d="M184.12,90.17c-12.61-6.71-22.71-17.68-32.57-28.27-4.49-4.89-9-9.76-13.13-15-1-1.25-1.93-2.5-2.82-3.82a2.93,2.93,0,0,1-.66-1.64c.62-2.64,2.95,0,3.82,1.08C150.4,56.12,162.15,70,176.09,80.92a77.18,77.18,0,0,0,9.28,6.14C187.21,88,186,91,184.12,90.17Z"/><path d="M163.44,156a15.3,15.3,0,0,0-1.09-1.73l-.56-.82c0-.22.08-.44.13-.64a75.5,75.5,0,0,1,2.5-9.61c2-6,5.25-11.24,7.85-16.83a155.86,155.86,0,0,0,10.09-30.9,37.85,37.85,0,0,0,.84-5.92,3.28,3.28,0,0,1,.43-1.77c7.26-4.4-2.56,25.35-3.45,27.93-2.58,8.25-6.4,15.77-10.16,23.28a61.26,61.26,0,0,0-4.5,13.88c-.36,1.49-.29,3.88-1.74,4.26A3.09,3.09,0,0,0,163.44,156Z"/><path d="M95.85,165h0Z"/><path d="M97.06,165h0Z"/><path d="M97.52,164.91h0Z"/><path d="M163.78,156a15.4,15.4,0,0,0-1.2-1.59l1.19-.24a1.77,1.77,0,0,1,1.57,1.71,2,2,0,0,1-1.14,1.77A2.72,2.72,0,0,0,163.78,156Z"/><path d="M57.44,156.07a1.92,1.92,0,0,1,1.35-3.43l.76.3c-.15.25-.29.5-.43.75l0-.08c-.3.56-.58,1.14-.87,1.71-.16.31-.29.61-.45.92Z"/><path d="M58.3,164c-2.22-.24-1.78-2.76-1.82-4.37.13-5.14-1.09-10.15-1.59-15.23-.08-.68.27-1.77,1.14-1.33,1.79,1.82,2.47,4.56,3.31,6.94S62.73,164.31,58.3,164Z"/><path d="M163.22,166.56c-3.07-.82-2.2-7.22-2.06-9.71a47.62,47.62,0,0,1,7.75-20.21c1.53-2.09,2.06-4.82,3.32-7.08.37-.65,1.12-2.4,1.81-2s.37,2.4,0,3c-2.07,3.38-3.65,7.53-5.24,11.12-2.13,4.94-2.61,10.35-3.44,15.68a47.62,47.62,0,0,0-.5,6.81C165,165.25,164.57,166.71,163.22,166.56Z"/><path d="M74.46,516.77c-16.52-2-32.51-7.3-48.22-12.67-8.32-3.21-24.62-7.9-26.2-17.93-.32-3.09,1.25-5.9,3.06-8.27,1.62-2.72,3.92-5.62,5.58-8.14a51.42,51.42,0,0,0,8.19-19.88c1.28-6.41,2.18-12.91,4.16-19.16,4.49-13.54,11.19-26.27,14.64-40.18a192.81,192.81,0,0,0,6.26-37.11c.75-11.89,0-24.35-.83-36.06-2.69-30.76-2.56-61.69,3.7-92a215.91,215.91,0,0,1,8.47-30.05,62.69,62.69,0,0,1,2.57-6.5,3.75,3.75,0,0,1,1.56-1.88c2.89-.58,1.8,2.86,1.35,4.48-1.29,4.82-2.86,9.55-4.24,14.33-7.38,25.17-10.43,51.49-10.36,77.68.2,17.1,2,34.13,2.66,51.22a183,183,0,0,1-7.57,60.65c-3.35,11.74-8.82,22.86-13.09,34.24-3.68,9.75-4.17,20.08-7.3,29.9a58.89,58.89,0,0,1-8.61,16c-2.08,3.91-8.54,7.43-5.37,12.37C11.06,496,35,502,45.31,505.48c6.66,1.95,13.42,3.6,20.22,5,3.54.69,7.1,1.59,10.74,1.47,8.37-.88,15.3-6.36,23.12-9,6.32-2.35,13.3-2.05,19.71-.28,6.18,1.64,11.92,4.83,18.29,5.79,9,.54,18-1.42,26.93-2.2,12.36-1.07,24.77.2,37.14-.52,6.29-.24,12.38-2,18.49-3.19a2.42,2.42,0,0,1,2.21,3.33c-.54,1.2-1.86,1.62-3,1.92-2.2.63-4.44,1.12-6.68,1.54-15.09,2.77-30.51.51-45.72,1.44-9.76.66-19.39,3-29.21,2.57-9.29-.94-17.39-6.92-26.84-7.28C97.49,504.93,87.57,517.4,74.46,516.77Z"/><path d="M207.62,506.67c-.25-2.32,2.64-2.14,4.15-2.53,4-1.08,8.44-1.76,11.59-4.59-.27-3.08-2.67-5.43-4.55-7.66a154.7,154.7,0,0,1-10.7-13c-7.4-10.39-11-23-12.35-35.58-.78-7.69-1.23-15.62-2.81-23.18-2.07-10.95-6.81-21.07-11-31.31-3.89-9.61-6.66-19.74-7.15-30.12-.54-10.2.48-20.38,1-30.56A485.68,485.68,0,0,0,170.67,228c-1.26-8.63-2.8-16.95-4.52-25.21a105.79,105.79,0,0,1-2.22-13.44,3.85,3.85,0,0,1,.15-1.55,1.54,1.54,0,0,1,1.82-.89c1.88,0,3.28,9.64,4,11.5a316.14,316.14,0,0,1,6.66,34.15,485.92,485.92,0,0,1,4.76,98.27c-1.75,23-2.31,38.59,7.24,60.27,5.09,11.9,9.44,24.23,10.84,37.17,2.26,26.78,3.86,39.36,22.84,59.89,9,9.15,9.71,16.76-4.79,19.21-2.58.3-5.19.42-7.75.89A1.84,1.84,0,0,1,207.62,506.67Z"/><g id="Layer_187_copy_2" data-name="Layer 187 copy 2"><path class="cls-3" d="M58.29,155.32c.54,13.23,1.53,23.26-1.59,36.87"/><path class="cls-3" d="M163.22,158.38c-.4,10.29-.69,22.31,3.3,35.69"/></g></g><g id="Layer_71_copy" data-name="Layer 71 copy"><g id="Layer_116_copy" data-name="Layer 116 copy"><path class="cls-1" d="M225.49,498.92c-3.92-7.37-9.43-13.75-13.94-20.77a72,72,0,0,1-11.08-29.54c-7.58-13.27-.43-31.27-7.78-44.67-2.19-4-5.53-7.26-7.8-11.21-2.82-4.9-3.86-10.61-4.64-16.22A232.57,232.57,0,0,1,178,346c-.08-9.91.47-19.82.57-29.73.19-17.62-1-35.23-2.26-52.81q-1.26-18.16-2.53-36.34c-.79-11.42-1.7-23.2-5.74-33.47a1.85,1.85,0,0,1-.65-.85c-.35-.89-.65-1.8-.92-2.72-.22-.46-.44-.91-.67-1.35.06-.14.11-.29.18-.42a59.91,59.91,0,0,1-1.54-9.9c-.08-1-.13-2.08-.15-3.11a51.74,51.74,0,0,1-.27-9.95l-1.21.53c.79-13.59,1.22-15.2,8.07-27,3.09-5.31,15.05-18.18,17.57-23.79,3.14-7,8.78-17.74,10-25.31C190.68,86,176.69,78,170.38,72c-10.8-10.13-22.94-19.33-33.09-30.5A170.94,170.94,0,0,0,147,5.8a4.07,4.07,0,0,0-3-3.72,145.72,145.72,0,0,1-30.49,31.54,3.41,3.41,0,0,1-4.91,0c-5.13-3.2-10.29-6.42-14.77-10.48s-8.29-9-10.08-14.8a23.33,23.33,0,0,0-1.13-3.3c-.64-1.29-1.64-2.4-2-3.79-.11-.4-.29-.91-.71-.91a.9.9,0,0,0-.48.23A39.82,39.82,0,0,0,76.1,3.34C75.79,11.8,78.35,20.09,81.35,28c1.56,4.12,3.41,8.4,6.94,11-1.18,4.69-4.65,8.42-8.07,11.83C68.81,62.25,62,65.19,48.85,74.54c-2.65,1.89-4.64,4-7.76,4.94-.76.23-7.61,4.2-8,4.87s-8,3.22-7.91,3.87c1,6.85,1.64,18,5.54,23.64,2.84,9.78,16,16,19.81,25.42,3.2,8,7,15.56,8.14,24.66-.39,1-.72,2-1,3a36.18,36.18,0,0,1-.77,20,16.91,16.91,0,0,1,.31,2.74,20,20,0,0,1-1,5.5c-8.24,28.89-16.92,58.25-16.24,88.29.35,15.29,3.12,30.44,3.15,47.6,6,23.64-1.34,48.37-8.6,71.64a231,231,0,0,1-8.83,25C24,429.37,22.19,433,21.34,436.9c-.64,2.89-.72,5.88-1.08,8.83C18.6,459.1,11.25,471,3.89,482.3a3.73,3.73,0,0,0-.79,1.88,3.48,3.48,0,0,0,.46,1.56c3.35,7,9.64,12.18,16.55,15.66s14.47,5.41,22,7.31c2.39.6,4.89,1.21,7.29.66,1.92-.44,4.55-1.3,5.44.29,8,3,16.72,6.07,25,3.85a40.66,40.66,0,0,0,5.67-2.12l6.15-2.64c4.31-1.86,8.7-3.74,13.36-4.31,11.67-1.41,22.68,5.48,34.35,6.88,6.29.76,12.64-.11,18.94-.79,13.34-1.46,26.76-2.14,40.18-3.19a54.07,54.07,0,0,0,26.13-5.6,1.69,1.69,0,0,0,.89-2.82Z"/><path class="cls-2" d="M34.18,115.85c11.47,10.27,29.42,8.48,44.1,3.59s29.19-12.3,44.65-11.29a40.27,40.27,0,0,0-19.16,10.36c10.61-5,23-.38,34.64,1,21.62,2.54,44.27-7.45,56.78-25-2.46,10.62-5.28,21.88-13.23,29.44C170.27,135,151.66,134.4,135.78,131s-32.25-8.79-48-4.77C73.27,130,68.17,140.79,52.32,141.66c.51-3.83-7-8.83-8.86-12.21s-5.26-4.56-7.85-7.47C34.28,120.48,33,119,34.18,115.85Z"/><path class="cls-2" d="M50.69,219.85c-3.36,11.6-2.59,24-1.79,36,.78,11.73,1.57,23.52,4.34,34.94,3.06,12.66,8.48,24.62,12.15,37.11,10.88,37.06,5.74,77.46-8.07,113.52,6.29-30.23,10.68-61.87,2.89-91.75-2.35-9-5.77-17.71-8.82-26.51C41.28,294,35.32,261.53,50.69,219.85Z"/><path class="cls-2" d="M144.34,511.22c13.12-11.66,18-30.29,17.84-47.83s-4.54-34.75-6.86-52.14-2.38-35.89,5.56-51.53A218.25,218.25,0,0,0,165.22,432c3,12.85,7.12,25.47,8.95,38.53s1.2,26.95-5,38.61C161.68,509.87,154.16,510.64,144.34,511.22Z"/><path class="cls-2" d="M68.72,514.45A122.21,122.21,0,0,1,91.38,425.4C82,450.13,73.92,477.1,80.67,502.66c1,3.82,2.73,8,6.39,9.49C81.21,514.79,74,514.23,68.72,514.45Z"/><path class="cls-2" d="M28.77,419C23,436.63,25.37,455.79,23,474.2c-1.07,8.4-3.6,17.42-10.51,22.32,2.72-8,5.46-16.17,6.45-24.61.61-5.23.54-10.52.84-15.78A103.7,103.7,0,0,1,28.77,419Z"/><path class="cls-2" d="M163.5,189.24c8.74,34.13-12.55,69.46-8.84,104.5l13.78-51.9c1.41-5.34,2.84-10.73,3-16.25a71.71,71.71,0,0,0-1.12-12.73C169.12,204.64,167.91,196.42,163.5,189.24Z"/></g><path d="M24.07,89.4c-1.36-2.5,2.67-3.19,4.28-4.41,3.61-2,7.3-4.15,10.76-6.24,13.42-8,26.38-16.71,37.37-27.23,2.4-2.54,11.26-10.67,9.37-13.83a63.16,63.16,0,0,1-8.57-15.58c-.88-1.9-7-21.15-2.57-19.47.7.55.66,1.62.9,2.34a118.66,118.66,0,0,0,4,14,67.86,67.86,0,0,0,6.93,13.94c.69,1.06,1.37,2.14,2.1,3.18a3,3,0,0,1,1.13,3.18c-1.6,5.59-6.28,10.07-10.35,14.39-11.2,11.2-25,20.21-39,28.48l.08,0c-1.86,1.11-3.84,2.31-5.61,3.36C32.46,87,30,88.37,27.46,89.75A2.39,2.39,0,0,1,24.07,89.4Z"/><path d="M57.62,157.19c-1-.62-1.25-4.51-1.52-5.24-2.44-7.84-7.4-14.73-13.18-21.71-14.25-11.81-16.61-26.38-19.06-41.35.24-1.16,1.12-2.67,3.52-1.65,1.11.63-.71,1-.31,1.83,6.14,35.72,12.58,29.05,22.33,43,4.19,6.5,8.74,13.36,10.56,20.27a13.08,13.08,0,0,0-1.23,1.38.35.35,0,0,0,.05-.08c-.45.56-.86,1.14-1.29,1.71-.26.35-.49.71-.76,1.06,0,0,0-.15,0-.14C56.32,156.15,58,157.42,57.62,157.19Z"/><path d="M87.31,37.91C79.79,29.63,76.17,18.38,74.45,7.53c-1.14-5.36.37-5.78,5.07-7.38,2.14-.69,3,1.15,3.6,2.85.79,2,1.61,4,2.55,5.95a54.22,54.22,0,0,0,8.22,11.74c3.89,4.46,8.2,8.79,13.45,11.37a9.13,9.13,0,0,0,4.48,1.19c3.35-1.08,6.13-3.4,8.81-5.61,8.14-7.57,14.84-16.53,21.7-25.24.58-.69,1.63-1.23,2.43-.58,1.57,1.48-.64,3.33-1.42,4.65-1.89,2.7-4,5.27-6.07,7.82C131.53,20.8,117.68,39.66,108,35.75c-5.72-1.84-10.2-6.1-14.2-10.4A69.42,69.42,0,0,1,79.87,3.41a5.08,5.08,0,0,0-2.57,1,71.35,71.35,0,0,0,5.27,20.28C84.36,29,86.8,33,89,37.17,89.56,38.55,88.14,38.88,87.31,37.91Z"/><path d="M135.52,42.51c-1.32-.76-.8-2.3-.14-3.21a119.49,119.49,0,0,0,6.93-18.57c1.46-5.23,3.44-10.54,3.29-16-1.25-.18-3.34-.63-2.95-2.32.9-2.16,3.83-.89,5.2.11,1.51,2,.66,5,.46,7.34a137.44,137.44,0,0,1-8.37,27.89C138.91,39.41,138.21,43.71,135.52,42.51Z"/><path d="M196.28,90.17C180.56,83.46,168,72.49,155.66,61.9c-5.61-4.89-11.26-9.76-16.37-15-1.22-1.25-2.41-2.5-3.52-3.82a2.63,2.63,0,0,1-.83-1.64c.78-2.64,3.68,0,4.76,1.08C154.23,56.12,168.88,70,186.26,80.92a102.28,102.28,0,0,0,11.58,6.14C200.14,88,198.66,91,196.28,90.17Z"/><path d="M164.39,156a17.54,17.54,0,0,0-1.72-1.73l-.88-.82c.06-.22.13-.44.2-.64a55.55,55.55,0,0,1,3.93-9.61c3.19-6,9.19-11.55,13.27-17.14,7-9.76,11.08-16.9,14.92-30.59a25.07,25.07,0,0,0,1.33-5.92,2.37,2.37,0,0,1,.67-1.77c11.41-4.4-3.6,25-5,27.64-4.06,8.25-12.26,16.15-16.65,21.57-2.45,3-3.3,3.91-7.64,14-.63,1.47-.32.91-1.91,6.12A2.55,2.55,0,0,0,164.39,156Z"/><path d="M95.85,165h0Z"/><path d="M97.06,165h0Z"/><path d="M97.52,164.91h0Z"/><path d="M163.78,156a15.4,15.4,0,0,0-1.2-1.59l1.19-.24a1.77,1.77,0,0,1,1.57,1.71,2,2,0,0,1-1.14,1.77A2.72,2.72,0,0,0,163.78,156Z"/><path d="M57.44,156.07a1.92,1.92,0,0,1,1.35-3.43l.76.3c-.15.25-.29.5-.43.75l0-.08c-.3.56-.58,1.14-.87,1.71-.16.31-.29.61-.45.92Z"/><path d="M58.3,164c-2.22-.24-1.78-2.76-1.82-4.37.13-5.14-1.09-10.15-1.59-15.23-.08-.68.27-1.77,1.14-1.33,1.79,1.82,2.47,4.56,3.31,6.94S62.73,164.31,58.3,164Z"/><path d="M163.22,166.56c-3.07-.82-2.2-7.22-2.06-9.71.88-7.23,4.39-13,8.37-19.12,1.53-2.08,4.15-4,5.41-6.22.37-.65,2.65-1.89,3.33-1.55s-1.24,1.63-1.61,2.29c-2.06,3.38-4.89,6.14-6.47,9.74a63.57,63.57,0,0,0-4.83,15.37,47.62,47.62,0,0,0-.5,6.81C165,165.25,164.57,166.71,163.22,166.56Z"/><path d="M74.46,516.77c-16.52-2-32.51-7.3-48.22-12.67-8.32-3.21-24.62-7.9-26.2-17.93-.32-3.09,1.25-5.9,3.06-8.27,1.62-2.72,3.92-5.62,5.58-8.14a51.42,51.42,0,0,0,8.19-19.88c1.28-6.41,2.18-12.91,4.16-19.16,4.49-13.54,11.19-26.27,14.64-40.18a192.81,192.81,0,0,0,6.26-37.11c.75-11.89,0-24.35-.83-36.06-2.69-30.76-2.56-61.69,3.7-92a215.91,215.91,0,0,1,8.47-30.05,62.69,62.69,0,0,1,2.57-6.5,3.75,3.75,0,0,1,1.56-1.88c2.89-.58,1.8,2.86,1.35,4.48-1.29,4.82-2.86,9.55-4.24,14.33-7.38,25.17-10.43,51.49-10.36,77.68.2,17.1,2,34.13,2.66,51.22a183,183,0,0,1-7.57,60.65c-3.35,11.74-8.82,22.86-13.09,34.24-3.68,9.75-4.17,20.08-7.3,29.9a58.89,58.89,0,0,1-8.61,16c-2.08,3.91-8.54,7.43-5.37,12.37C11.06,496,35,502,45.31,505.48c6.66,1.95,13.42,3.6,20.22,5,3.54.69,7.1,1.59,10.74,1.47,8.37-.88,15.3-6.36,23.12-9,6.32-2.35,13.3-2.05,19.71-.28,6.18,1.64,11.92,4.83,18.29,5.79,9,.54,18-1.42,26.93-2.2,12.36-1.07,24.77.2,37.14-.52,6.29-.24,12.38-2,18.49-3.19a2.42,2.42,0,0,1,2.21,3.33c-.54,1.2-1.86,1.62-3,1.92-2.2.63-4.44,1.12-6.68,1.54-15.09,2.77-30.51.51-45.72,1.44-9.76.66-19.39,3-29.21,2.57-9.29-.94-17.39-6.92-26.84-7.28C97.49,504.93,87.57,517.4,74.46,516.77Z"/><path d="M207.62,506.67c-.25-2.32,2.64-2.14,4.15-2.53,4-1.08,8.44-1.76,11.59-4.59-.27-3.08-2.67-5.43-4.55-7.66a154.7,154.7,0,0,1-10.7-13c-7.4-10.39-11-23-12.35-35.58-.78-7.69-1.23-15.62-2.81-23.18-2.07-10.95-6.81-21.07-11-31.31-3.89-9.61-6.66-19.74-7.15-30.12-.54-10.2.48-20.38,1-30.56A485.68,485.68,0,0,0,170.67,228c-1.26-8.63-2.8-16.95-4.52-25.21a105.79,105.79,0,0,1-2.22-13.44,3.85,3.85,0,0,1,.15-1.55,1.54,1.54,0,0,1,1.82-.89c1.88,0,3.28,9.64,4,11.5a316.14,316.14,0,0,1,6.66,34.15,485.92,485.92,0,0,1,4.76,98.27c-1.75,23-2.31,38.59,7.24,60.27,5.09,11.9,9.44,24.23,10.84,37.17,2.26,26.78,3.86,39.36,22.84,59.89,9,9.15,9.71,16.76-4.79,19.21-2.58.3-5.19.42-7.75.89A1.84,1.84,0,0,1,207.62,506.67Z"/><g id="Layer_187_copy" data-name="Layer 187 copy"><path class="cls-3" d="M58.29,155.32c.54,13.23,1.53,23.26-1.59,36.87"/><path class="cls-3" d="M163.22,158.38c-.4,10.29-.69,22.31,3.3,35.69"/></g></g></g></g></svg>