<svg xmlns="http://www.w3.org/2000/svg" viewBox="0 0 173.32 478.95"><defs><style>.cls-1{fill:#919191;}.cls-2{fill:#bfbfbf;}.cls-3{fill:#fff;}.cls-4{fill:none;stroke:#000;stroke-miterlimit:10;stroke-width:2px;}.cls-5{fill:#5e5e5e;}.cls-6{fill:#3d3d3d;}</style></defs><g id="Layer_2" data-name="Layer 2"><g id="Layer_152" data-name="Layer 152"><path class="cls-1" d="M150,38.11c3.84-4.33,2.88-10.77,3.11-16.33l.84-21,8.77,4.11a5,5,0,0,1,2.17,1.54,4.26,4.26,0,0,1,.37,2.93c-1.52,13.76-1.79,27.79,1.68,41.25,1.35,5.23,3.27,10.37,3.78,15.72.93,9.72-2.82,19.25-6.51,28.41-3.57,8.85-7.34,18-14.71,24.62-3.88,3.5-9.14,7.27-8.15,12.16a3.78,3.78,0,0,1,.12,2.43,3.33,3.33,0,0,1-2.15,1.33C121.85,140.63,103,141,84.7,139.45s-36.39-4.89-54.67-6.8c2.31-1.75,2.11-5.17.55-7.51s-4.12-3.94-6.36-5.77C17.86,114.16,14,106.94,10.3,99.92c-3.59-6.81-7.23-13.8-8-21.32-.7-7.37,1.46-14.68,2.63-22,.6-3.81.94-7.64,1.23-11.48q1.59-20.44,1.67-41L15.74,2a3.18,3.18,0,0,1,2.35,0,2.56,2.56,0,0,1,1,2.05l3.51,28.86a10.4,10.4,0,0,0,1.14,4.2,11.75,11.75,0,0,0,3.56,3.26C45.58,53,65,65,87.11,70.3a119.32,119.32,0,0,0,22.45-7.16C125.08,56.52,144.37,44.42,150,38.11Z"/><path class="cls-2" d="M7.62,49.57c6.64,1.31,12,5.85,16,10.81A53.63,53.63,0,0,1,35.37,87.33a37.08,37.08,0,0,1,.17,8.87c-1,9-6.29,17.58-5.13,26.56a40.63,40.63,0,0,1-5.17-4.52c-4.8-5-8-11.06-12.24-16.49-1.57-2-3.27-3.94-4.67-6a35.16,35.16,0,0,1-4.17-9.1C.73,75.45,1.51,63.27,7.62,49.57Z"/><path class="cls-2" d="M7.62,49.57c6.64,1.31,12,5.85,16,10.81A53.63,53.63,0,0,1,35.37,87.33a37.08,37.08,0,0,1,.17,8.87c-1,9-6.29,17.58-5.13,26.56a40.63,40.63,0,0,1-5.17-4.52c-4.8-5-8-11.06-12.24-16.49-1.57-2-3.27-3.94-4.67-6a35.16,35.16,0,0,1-4.17-9.1C.73,75.45,1.51,63.27,7.62,49.57Z"/><path class="cls-2" d="M165.1,49.57c-6.64,1.31-12,5.85-16,10.81a53.72,53.72,0,0,0-11.73,26.95,36.57,36.57,0,0,0-.16,8.87c1,9,6.28,17.58,5.12,26.56a40,40,0,0,0,5.17-4.52c4.8-5,8-11.06,12.25-16.49,1.56-2,3.26-3.94,4.66-6a35.16,35.16,0,0,0,4.17-9.1C172,75.45,171.22,63.27,165.1,49.57Z"/><path class="cls-3" d="M31.42,124.26c4.5,2.32,9.76,3,14.9,3.55,16.49,1.77,33.08,2.59,49.66,3.4,6,.29,12,.59,18.07.4a111.7,111.7,0,0,0,28.31-4.56l-.91,8.51a259.52,259.52,0,0,1-108.15-.93,2.75,2.75,0,0,1-1.5-.69,2.24,2.24,0,0,1-.34-1.53C31.53,130.1,31.59,127.78,31.42,124.26Z"/><path d="M29.22,134.34c-.58-2-.07-4.31-.35-6.39a6.79,6.79,0,0,0-.29-2.1,9.61,9.61,0,0,0-1.17-1.3c-6.6-6-13-12.21-17.81-19.48-11-16.85-12.14-38-5.55-56.44,1.74-9.5.5-19.29,1.24-28.91.14-3.45.16-6.9.28-10.36.12-1.57-.1-5.93,2.43-4.7a3.06,3.06,0,0,1,.94,2,58,58,0,0,1,.79,7.67,251.25,251.25,0,0,1-.4,29.17c-.49,2.48.36,4.9-.68,7.21A57.52,57.52,0,0,0,5.19,66.24C4.25,79.9,7.12,94.06,15.67,105.41a98.71,98.71,0,0,0,13.64,14.34c1.55,1.47,3.69,2.63,4.41,4.64.27,2.22.22,4.47.41,6.71v0c0-.06,0-.12,0-.18a14.32,14.32,0,0,1,.07,3.14C33.64,136.16,30.09,136.41,29.22,134.34Z"/><path d="M83.06,141.86A269.93,269.93,0,0,1,40.93,138c-2.61-.48-5.22-1-7.8-1.56-1.59-.19-3.48-1.12-3.15-2.84.85-2.63,3.35-1.82,5.49-1.35,6.5,1.26,13,2.49,19.59,3.18,18.14,2.08,36.61,2.07,54.67,1.36,7.22-.31,14.43-.8,21.63-1.51,3.28-.31,6.54-.74,9.82-1a2.73,2.73,0,0,1,1.6.22c1.22.72.66,2.29-.62,2.64-6.43,2-13.31,2.58-20,3.37A340.31,340.31,0,0,1,83.06,141.86Z"/><path d="M86.22,133.65a281.62,281.62,0,0,1-37.28-3.26c-4.27-.66-8.51-1.43-12.43-2.2-2.5-.75-8.14-.61-7.49-4a2.34,2.34,0,0,1,2.57-1.53c7,1.35,13.81,2.74,20.87,3.73a286.6,286.6,0,0,0,74.88,1.18c4.14-.55,8.24-1.25,12.32-2.06,1.32-.37,3.58-.7,3.45,1.17-.44,2.09-6.52,2.75-8.56,3.37C118.72,133.24,102.39,133.86,86.22,133.65Z"/><path d="M139.46,134.57a3,3,0,0,1-.52-2.17,25.62,25.62,0,0,1,.8-5.89,8.49,8.49,0,0,1,3.07-5.14c2.3-2.41,4.73-4.72,7.05-7.12,8.1-8.89,14.36-19.16,17.16-30.36a53.7,53.7,0,0,0,0-22.37c-.9-5.46-3.54-10.58-4.31-16a200.47,200.47,0,0,1,1.44-37.37c0-1.3.7-3.18,2.53-2.6,1.18.38,1.21,1.76,1.28,2.7.4,12.7-1,25.66.53,38.26h0l-.06-.32c8.44,25.25,6.65,43.17-9.92,65.21-3.44,4.57-7.41,8.07-11.32,12.17-2.42,2-3.35,5.28-3.52,8.1-.16,1.07.21,1.82-.36,2.71A2.43,2.43,0,0,1,139.46,134.57Z"/><path d="M142.29,136.59a.73.73,0,0,1-.12-.53c.14-1.59-.33-3.11-.37-4.67-.06-.9,1.47-1,1.63-.16S144.08,137.38,142.29,136.59Z"/><path d="M30.5,124.17c-2-5.12-.12-10.47,1.39-15.45a60.37,60.37,0,0,0,3.24-14.54c1-14.53-6.83-30.46-18.89-39.9-2.82-1.94-6-4-9.61-4.09-.55-.16-.3-.86.23-.87,3.07-.23,5.93,1.44,8.41,2.9C24,58,29.69,66.89,33.42,76c4.27,10,3.92,21,.49,31.1-1.2,4.19-2.91,8.46-2.84,12.79a14.1,14.1,0,0,0,1,3.86.73.73,0,0,1-.47.87A.85.85,0,0,1,30.5,124.17Z"/><path d="M142.22,124.17c2-5.12.12-10.47-1.39-15.45a61.34,61.34,0,0,1-3.24-14.54c-1-14.53,6.83-30.46,18.89-39.9,2.82-1.94,6-4,9.61-4.09.56-.16.3-.86-.23-.87-3.07-.23-5.93,1.44-8.41,2.9C148.7,58,143,66.89,139.3,76c-4.26,10-3.92,21-.49,31.1,1.2,4.19,2.92,8.46,2.84,12.79a14.45,14.45,0,0,1-1,3.86.71.71,0,0,0,.46.87A.84.84,0,0,0,142.22,124.17Z"/><path d="M84.36,72C70,67.87,56.63,61.11,43.75,54.06c-7.68-4.27-15.44-8.59-22.11-14.14a3.52,3.52,0,0,1-1.25-2.08c-.4-2.37-.61-4.76-.87-7.15-1-8.6-1.31-17.28-2.42-25.88C15,5.38,13.29,6,11.23,6.52,9.51,7,6.49,8.2,6,5.78A2,2,0,0,1,6.86,4C9.73,2.08,13.34,1.24,16.8.72a3.41,3.41,0,0,1,4,1.34c1.75,4.57,1.16,9.89,1.79,14.69.52,6.75,1,13.55,2.1,20.23,10.42,8,22.67,14.17,34.45,20.13,8.64,4,17.67,7.51,26.59,10.93,22.85-5.56,44.48-16.38,61.45-31.44,1-1,2.07-2,3-3.14a2.47,2.47,0,0,1,3.44-.53c1.9,1.61.24,3.15-1.09,4.46-13.55,13.51-31,24-49.64,30.58-3.13,1.06-6.32,2-9.54,2.75C90.37,71.24,87.36,72.62,84.36,72Z"/><path d="M151.06,36c-1.14-.63-1.27-1.94-1.3-3,0-2.54.13-5.08.19-7.62.17-5.7.29-11.4.55-17.1.21-2.17-.13-4.43.69-6.5,2.35-4.12,10.48,0,13.61,1.63,2.69,1.3,2.89,4.1,2.48,6.51-.23,1.29.65,3.31-1.3,3.62a1.47,1.47,0,0,1-1.64-1.18,13.54,13.54,0,0,0-1.09-4.3,64.07,64.07,0,0,0-7.7-3.32c0,7.93.19,15.86-.26,23.78C155,30.86,155.33,37.43,151.06,36Z"/><ellipse class="cls-4" cx="86.15" cy="180.45" rx="1.7" ry="1.55"/><g id="Layer_146" data-name="Layer 146"><path class="cls-1" d="M32.06,188C14,237.76,15.55,293.13,28.87,344.35c1.17,4.49,2.43,9,2.63,13.66a62.89,62.89,0,0,1-.94,11.36c-4.44,31.51-6.84,63.76-.81,95a84.74,84.74,0,0,0,36.38,11.06C65.71,458.42,70,441.72,73,425s4.45-34.43-1.39-50.41c-1-2.71-2.2-5.4-2.53-8.28-.49-4.36,1.09-8.65,2.55-12.79A275.93,275.93,0,0,0,85.3,295.25c1,15.06,2.08,30.37,7.44,44.48,2.84,7.45,6.9,14.8,6.73,22.77-.1,4.84-1.79,9.49-3.14,14.14A107.38,107.38,0,0,0,94.49,429c3,14,8.88,27.7,8.16,42-.07,1.27-.12,2.7.77,3.6,1.11,1.1,3,.71,4.45.24l32.33-10.1c8-20.26,5.72-42.91,3.33-64.55l-3.91-35.39a49.69,49.69,0,0,1-.45-8.17,51.47,51.47,0,0,1,1.57-8.85c12.42-52.69,16.87-109.51-3.09-159.83A160,160,0,0,1,32.06,188Z"/><path class="cls-5" d="M53.62,194.89a137,137,0,0,1-35.53,58.3,13.51,13.51,0,0,0,.59-5.54c.12.32.6.12.84-.13,14.74-15,25.9-33.63,31.29-54A10.11,10.11,0,0,0,53.62,194.89Z"/><path class="cls-5" d="M117.25,196.33c.43,1.88,1,3.74,1.54,5.58,3.79,11.8,10.55,22.41,17.4,32.74,4.42,6.66,9,13.38,15.27,18.36a15.47,15.47,0,0,1-.28-5.63c-4.54-2.72-7.79-7.1-10.81-11.45-8.77-12.62-16.68-26.07-21-40.82C119.34,195.85,118.32,196.34,117.25,196.33Z"/><path class="cls-6" d="M120.14,194.37c-.68,1.7-.16,3.63.43,5.37,6.06,18,17.85,33.47,30.32,47.78-1.6-4-1-8.44-1.07-12.73-.2-7.36-2.69-14.44-4.45-21.59-1.71-7-2.62-16.78-6.39-22.88-.49-.8-1.28.88-2.18.63a4,4,0,0,0-2.72.54l-5.88,2.68"/><path class="cls-6" d="M22.33,225.44c1.83-11.72,4-23.51,8.67-34.4a6.13,6.13,0,0,1,1.64-2.52c5.75,2.79,13.21,1.35,18.25,5.29l-.36,1.9c-.15-.14.28-.27.23-.08-2.3,8.65-6.57,16.63-10.8,24.51a31.8,31.8,0,0,1-2.94,4.8,31.5,31.5,0,0,0-3,3.84c-3.64,6.59-8.88,12.11-14.07,17.57C20.09,239.8,21.11,233.34,22.33,225.44Z"/><path d="M67.69,479a39.62,39.62,0,0,1-7.34-1.36,128.77,128.77,0,0,0-15.47-4.81c-4.93-1.26-10-2.21-14.74-4-2.08-.7-4.09-2.13-4.44-4.45a283.57,283.57,0,0,1-1.11-72.76c1.19-11,3.92-21.85,4.13-32.86-.39-5.78-2.63-11.26-3.81-16.92a336.42,336.42,0,0,1-6-34.7c-2.12-17.89-4.1-35.89-3.12-53.92.7-12.37,3-24.59,5.68-36.67a197.36,197.36,0,0,1,7-24.81c.69-1.48,1.2-3.43,2.82-4.08a1.09,1.09,0,0,1,1.24.64c.26,1-.42,2.12-.63,3.13-1.33,4.41-2.52,9-3.59,13.41-4.72,20.23-8.33,41-7.57,61.82.28,12,1.77,23.92,3.21,35.82,1.7,13.77,3.59,27.6,7.32,41,1.22,4.77,2.75,9.53,3.2,14.45.24,8.54-1.73,17-2.83,25.4-4.16,26.54-3.36,53.53-.4,80.07h0c4.1,2.06,8.73,2.6,13.14,3.7,6.56,1.49,15.45,3.65,21.65,6.11.83-5.61-1.88-11.57-.92-17.18,1-7.1,3.32-14,5-21,2.54-10.8,4.54-22.43,4.21-33.44-.1-9.62-2.19-19-4.62-28.26-1.85-7-3.78-12.52-.91-19.66,8.14-22.76,11.64-46.83,13-70.88.52-5.43.35-10.95,1.25-16.32a2.15,2.15,0,0,1,4.13.15c.73,4.81.49,9.76.48,14.63-.6,16.15-2.92,32.24-5.85,48.13-1.94,10.15-5.57,19.83-8.66,29.66-.88,3.16.35,6.33,1.06,9.4.62,2.49,1.27,5,1.89,7.46a125.12,125.12,0,0,1,3.81,24.63c.76,15-2.69,29.78-6.41,44.2A97.25,97.25,0,0,0,70,461.2C69,465.93,74.26,478.53,67.69,479Z"/><path d="M79.91,200a203.35,203.35,0,0,1-47.55-9.29,4.16,4.16,0,0,1-1.7-1.05,1.77,1.77,0,0,1,.85-2.79,7,7,0,0,1,2.9.25c33.48,7.25,55.5,11.3,89.83,3.61a83.6,83.6,0,0,0,11.35-3.18c1.28-.4,2.46-1.37,3.86-1.06,2.44.54,2.39,3.94.14,4.76-8.55,3.65-17.82,5.26-26.93,6.89C101.83,199.67,90.86,200.71,79.91,200Z"/><path d="M18.68,248.43c-.86-.76.26-1.6.78-2.18,1.41-1.54,2.87-3.05,4.26-4.6A142,142,0,0,0,43.6,212.14a96.5,96.5,0,0,0,5.25-12.39c.72-1.92,1.16-3.92,1.85-5.85a.84.84,0,0,1,.42-.5c2.76-1.2-4.95,16.57-5.59,17.72a155.06,155.06,0,0,1-19.24,30c-1.28,1.51-2.62,3-3.9,4.4-.86.95-1.7,1.92-2.61,2.82A.85.85,0,0,1,18.68,248.43Z"/><path d="M19.34,252.24c-.88-1.15,1.29-2.17,1.85-3a117,117,0,0,0,9.61-11.73c9.52-12.7,17.4-26.78,21.78-42.07.16-.4.15-.92.49-1.2.61-.23.6.59.47,1C49.62,211.51,40.62,226.07,31,239.56c-2.73,3.83-5.78,7.4-8.87,10.93C21.32,251.16,20.51,253.11,19.34,252.24Z"/><path d="M105.14,479a16.24,16.24,0,0,0,4.61-1.36,128.77,128.77,0,0,1,15.47-4.81c4.93-1.26,10-2.21,14.74-4,2.08-.7,4.09-2.13,4.44-4.45a283.57,283.57,0,0,0,1.11-72.76c-1.2-11-3.93-21.85-4.13-32.86.39-5.78,2.63-11.26,3.81-16.92a336.42,336.42,0,0,0,6-34.7c2.12-17.89,4.1-35.89,3.12-53.92-.7-12.37-3-24.59-5.68-36.67a197.36,197.36,0,0,0-7-24.81c-.69-1.48-1.2-3.43-2.82-4.08a1.09,1.09,0,0,0-1.24.64c-.26,1,.42,2.12.63,3.13,1.33,4.41,2.52,9,3.59,13.41,4.72,20.23,8.33,41,7.57,61.82-.28,12-1.77,23.92-3.21,35.82-1.7,13.77-3.59,27.6-7.32,41-1.22,4.77-2.75,9.53-3.2,14.45-.24,8.54,1.73,17,2.82,25.4,4.16,26.54,3.37,53.53.41,80.07h0c-4.1,2.06-8.73,2.6-13.14,3.7a135.87,135.87,0,0,0-19.57,5.88c-.84-5.6-.2-11.34-1.16-16.95-1-7.1-3.33-14-5-21-2.54-10.8-4.55-22.43-4.21-33.44.1-9.62,2.19-19,4.62-28.26,1.85-7,3.78-12.52.91-19.66-8.14-22.76-11.64-46.83-13-70.88-.52-5.43-.35-10.95-1.25-16.32a2.15,2.15,0,0,0-4.13.15c-.73,4.81-.49,9.76-.48,14.63.6,16.15,2.92,32.24,5.85,48.13C90.31,339.48,93.94,349.16,97,359c.88,3.16-.35,6.33-1.06,9.4-.62,2.49-1.27,5-1.89,7.46a125.12,125.12,0,0,0-3.81,24.63c-.76,15,2.69,29.78,6.41,44.2a97.25,97.25,0,0,1,3.44,16.52C101.06,465.93,98.57,478.53,105.14,479Z"/><path d="M151.42,248.43c.85-.76-.26-1.6-.78-2.18-1.41-1.54-2.88-3.05-4.27-4.6a142.32,142.32,0,0,1-19.87-29.51,96.5,96.5,0,0,1-5.25-12.39c-.72-1.92-1.16-3.92-1.85-5.85a.84.84,0,0,0-.42-.5c-2.76-1.2,5,16.57,5.59,17.72a155.06,155.06,0,0,0,19.24,30c1.28,1.51,2.62,3,3.9,4.4.86.95,1.7,1.92,2.61,2.82A.85.85,0,0,0,151.42,248.43Z"/><path d="M150.75,252.24c.89-1.15-1.28-2.17-1.84-3a117,117,0,0,1-9.61-11.73c-9.52-12.7-17.4-26.78-21.78-42.07-.16-.4-.15-.92-.49-1.2-.61-.23-.6.59-.47,1,3.92,16.32,12.91,30.88,22.59,44.37A138.74,138.74,0,0,0,148,250.49C148.78,251.16,149.59,253.11,150.75,252.24Z"/><path d="M83.79,227.4c-2-9.35-2-19.24-2.12-28.81a1,1,0,0,1,1-.94,1,1,0,0,1,.92,1.1c-.23,2-.22,4-.27,6.05a190.06,190.06,0,0,0,1,21.33c.06.44.22,1.87-.57,1.25Z"/><path d="M88,227.33c.15-8.18,1.16-16.38.67-24.58,0-1.6-.15-2.94-.16-4.47a1,1,0,0,1,.86-.95c1.75,0,1,2.58,1.18,3.72a163.7,163.7,0,0,1-.8,18.13c-.2,2.62-.5,5.27-.7,7.89A.55.55,0,0,1,88,227.33Z"/></g></g></g></svg>