<svg xmlns="http://www.w3.org/2000/svg" xmlns:xlink="http://www.w3.org/1999/xlink" viewBox="0 0 241.35 501.86"><defs><style>.cls-1{isolation:isolate;}.cls-2{fill:url(#linear-gradient);}.cls-3{fill:#fff;}.cls-4{fill:#cfcfcf;}.cls-5{fill:#e8c3cb;opacity:0.43;}.cls-12,.cls-5,.cls-8{mix-blend-mode:multiply;}.cls-6{fill:url(#linear-gradient-2);}.cls-7{fill:#333;}.cls-8{fill:#998f8b;opacity:0.96;}.cls-9{fill:url(#linear-gradient-3);}.cls-10{fill:#15233b;}.cls-11{fill:gray;}.cls-12{fill:#c48872;opacity:0.2;}</style><linearGradient id="linear-gradient" x1="55.59" y1="2.25" x2="-5.72" y2="338.29" gradientUnits="userSpaceOnUse"><stop offset="0" stop-color="#325184"/><stop offset="0.13" stop-color="#365486"/><stop offset="0.27" stop-color="#435e8c"/><stop offset="0.42" stop-color="#586f96"/><stop offset="0.56" stop-color="#7587a5"/><stop offset="0.71" stop-color="#9ba5b7"/><stop offset="0.85" stop-color="#c9cace"/><stop offset="1" stop-color="#fff5e8"/></linearGradient><linearGradient id="linear-gradient-2" x1="214.42" y1="94.73" x2="96.42" y2="385" gradientUnits="userSpaceOnUse"><stop offset="0" stop-color="#25467d"/><stop offset="1" stop-color="#fff"/></linearGradient><linearGradient id="linear-gradient-3" x1="136.97" y1="37.59" x2="27.78" y2="352.95" gradientUnits="userSpaceOnUse"><stop offset="0" stop-color="#25467d"/><stop offset="1" stop-color="#e0e0e0"/></linearGradient></defs><g class="cls-1"><g id="Layer_2" data-name="Layer 2"><g id="Layer_94" data-name="Layer 94"><g id="Layer_68" data-name="Layer 68"><path class="cls-2" d="M41.39,204.24c6.33-16,10.09-32.9,13.83-49.72,2.24-10.07,4.48-20.18,5.26-30.47.5-6.7.38-13.47,1.6-20.07,1.33-7.17,4.19-14,5.83-21.06a63.25,63.25,0,0,0,.68-25.12c-.82-4.74-2.29-9.56-5.51-13.14-3.58-4-8.84-5.9-14-7.42-4.8-1.43-10-2.61-14.78-1.24s-9,6.18-7.68,10.21c-12.1,17.09-14.41,39-16.34,59.85a12.47,12.47,0,0,0,.21,5c.37,1.17,1.08,2.2,1.47,3.37,1.13,3.37-.62,7-2.22,10.12-3.8,7.57-7,15.62-7.6,24.07a67.14,67.14,0,0,0,1.14,15.16A207.91,207.91,0,0,0,15.59,208.3c-.2.43.32.92.8.89a2.9,2.9,0,0,0,1.28-.6,10.73,10.73,0,0,1,4.83-1.14A87.26,87.26,0,0,0,34,205.66,53.73,53.73,0,0,1,41.39,204.24Z"/><path class="cls-3" d="M14.47,210.18c8-4.7,17.64-5.27,26.89-5.72a1.44,1.44,0,0,1,.92.15,1.51,1.51,0,0,1,.48,1.27l1,23.24c-7.1,4.52-15.75,5.72-24.09,6.82a38.28,38.28,0,0,1-3.61-10,66,66,0,0,1-1-8.89A62.36,62.36,0,0,0,14.47,210.18Z"/><path class="cls-4" d="M19.22,208.11a72.34,72.34,0,0,0,1.5,12.9c.37,1.53.84,3,1.31,4.55l2.86,9.14a12.85,12.85,0,0,0,6.46-1.89c-.16.17-.42-.05-.54-.24a19.07,19.07,0,0,1-2-6.25c-1-5.17-1.91-10.36-2.82-15.54a9.87,9.87,0,0,1-.1-4.55A52,52,0,0,0,19.22,208.11Z"/><path class="cls-4" d="M32.2,206.08a32.54,32.54,0,0,0,.49,6.46,132.74,132.74,0,0,0,4,15.92l1,3.53,1.92-1.2a98.94,98.94,0,0,1-2-17c0-2.8.21-5.67-.63-8.34C34.82,205.7,32.7,206.31,32.2,206.08Z"/><path class="cls-5" d="M27.81,41.07C29,53.69,23.45,66.75,27.2,78.86c3.2,10.33,12.66,17.91,15.37,28.38-9.19-6.58-19-14-22.07-24.82-1.22-4.27-1.3-8.77-1.37-13.2C19,62.17,19,54.84,22,48.47,24.06,44,27.69,39.87,27.81,41.07Z"/><path class="cls-5" d="M57.27,132.82a20.82,20.82,0,0,1-10.63,11.66c-3,1.44-6.39,2.1-9.57,3.21a36.08,36.08,0,0,0-13.76,8.73c-2.93,3-5.51,6.62-9.42,8.14a21.17,21.17,0,0,0,14.39-4.31c3.35-2.58,6.19-6.31,10.35-7a34.16,34.16,0,0,1,5.16-.08,15.37,15.37,0,0,0,15-16.76A5.08,5.08,0,0,0,57.27,132.82Z"/><path class="cls-5" d="M5.23,167.73c1.65,3.38,1.54,7.87,4.56,10.12,1.75,1.31,4.08,1.45,6.27,1.53L31,180a59.85,59.85,0,0,1-22.3,3.63C8.37,179.2,7.46,174.87,5.23,167.73Z"/><path d="M13.4,209.18c-2.39-8.11-4.5-16.31-6.85-24.43C2.66,171.14-2,156.73.88,142.49,2.8,132.62,12,124,9.91,113.56c-1.64-7.06-.27-14.34.59-21.42A147.62,147.62,0,0,1,22.83,48.45c1.33-2.65,7.33-17.09,10.36-14.52.51.62,0,1.42-.28,2s-.85,1.45-1.27,2.17A159.72,159.72,0,0,0,20.73,62.48a152.61,152.61,0,0,0-8,39.32,36,36,0,0,0,1.07,12.65c1.33,7.18-2.72,14-5.79,20.13C1.92,144.69,3.77,157.16,6.06,168c2.94,12.7,7,25.12,10.18,37.75.2.83.51,1.63.63,2.47A1.82,1.82,0,0,1,13.4,209.18Z"/><path d="M41,205.23a1.78,1.78,0,0,1-1.51-2c1-5,3.69-9.33,5.5-14a47.4,47.4,0,0,0,2.35-7.92A81.31,81.31,0,0,0,48.8,170.9c.26-3.87.16-7.75.93-11.31,1.87-8,6.73-15,8-23.16,2.17-9.12.68-18.49,1.58-27.72.45-5.86,2.52-11.38,4.57-16.83,2.48-7.22,3.3-15.1,3.76-22.59.13-1.43.08-2.62.1-4a1,1,0,0,1,2-.56,27.8,27.8,0,0,1,.6,4.06,71.43,71.43,0,0,1-4.81,29.11c-2.63,6.92-3,14.18-2.72,21.47.91,14.86-2.34,24.3-8.34,37.52-2,5.58-1.37,11.53-2,17.33-.64,6.92-2,14.12-5.32,20.26-1.26,2.61-2.75,5.25-3.79,8C43.06,203.69,42.78,205.46,41,205.23Z"/><path d="M19.84,237.63c-3.66-1.88-7.32-22.51-7.45-27.1-.23-1.87,1.82-2.3,3.24-2.66a72.79,72.79,0,0,1,26.28-4.34c2.66.08,2,2.49,2.18,4.26a158.7,158.7,0,0,1,.83,21.36c.48,3.11-4.13,3.48-6.27,4.18-5,1.16-9.88,2.73-14.89,3.83C22.46,237.32,21.14,238.11,19.84,237.63Zm1.18-3.1A184.62,184.62,0,0,0,42.08,229c-.37-3.73-.18-7.48-.29-11.21s-.76-7.47-.71-11.27a105.46,105.46,0,0,0-26,4.27C16.38,218.77,17.38,227.21,21,234.53Z"/><path d="M24,235.12c-2.56-8.75-4.76-17.66-5.35-26.77,0-.43-.29-1.23.39-1.21a.41.41,0,0,1,.35.49.53.53,0,0,0,0-.13,183.56,183.56,0,0,0,5.79,27.3A.62.62,0,0,1,24,235.12Z"/><path d="M30.23,233.14c-1.48-3.21-1.9-6.93-2.85-10.35-.95-4.14-1.62-8.33-2.16-12.54-.08-1.28-.56-2.68-.23-3.92.57-.53,1,.1,1,.69a146.48,146.48,0,0,0,5.16,24.87,2.3,2.3,0,0,1,.14.9A.57.57,0,0,1,30.23,233.14Z"/><path d="M36.24,230.66a160,160,0,0,1-4.34-21.94c-.1-.81-.21-1.62-.28-2.43a.57.57,0,1,1,1.09-.14c1,6.46,1.94,12.91,3.53,19.24.4,1.65.84,3.29,1.35,4.91A.7.7,0,0,1,36.24,230.66Z"/><path d="M38.86,230.78c-.7-8.58-1.65-17.07-2.27-25.64a.45.45,0,0,1,.87-.08c.93,5.82,1.27,11.77,2,17.63.21,2.67.59,5.33.7,8A.65.65,0,0,1,38.86,230.78Z"/></g><g id="Layer_68_copy" data-name="Layer 68 copy"><path class="cls-6" d="M200,204.24c-6.34-16-10.1-32.9-13.84-49.72-2.23-10.07-4.48-20.18-5.25-30.47-.51-6.7-.39-13.47-1.61-20.07-1.33-7.17-4.19-14-5.83-21.06a63.25,63.25,0,0,1-.68-25.12c.83-4.74,2.29-9.56,5.51-13.14,3.58-4,8.84-5.9,14-7.42,4.8-1.43,10-2.61,14.78-1.24s9,6.18,7.68,10.21c12.1,17.09,14.41,39,16.34,59.85a12.47,12.47,0,0,1-.21,5c-.37,1.17-1.08,2.2-1.47,3.37-1.13,3.37.62,7,2.22,10.12,3.81,7.57,7.06,15.62,7.6,24.07A67.14,67.14,0,0,1,238,163.73a207.91,207.91,0,0,1-12.27,44.57c.21.43-.32.92-.8.89a3,3,0,0,1-1.28-.6,10.73,10.73,0,0,0-4.83-1.14,87.26,87.26,0,0,1-11.48-1.79A53.6,53.6,0,0,0,200,204.24Z"/><path class="cls-3" d="M226.88,210.18c-8-4.7-17.64-5.27-26.89-5.72a1.44,1.44,0,0,0-.92.15,1.57,1.57,0,0,0-.48,1.27l-1,23.24c7.1,4.52,15.75,5.72,24.09,6.82a38.28,38.28,0,0,0,3.61-10,66,66,0,0,0,1-8.89A62.36,62.36,0,0,1,226.88,210.18Z"/><path class="cls-4" d="M222.13,208.11a72.34,72.34,0,0,1-1.5,12.9c-.37,1.53-.84,3-1.31,4.55l-2.86,9.14a12.85,12.85,0,0,1-6.46-1.89c.16.17.42-.05.54-.24a18.83,18.83,0,0,0,2-6.25c1-5.17,1.91-10.36,2.83-15.54a10,10,0,0,0,.09-4.55A51.52,51.52,0,0,1,222.13,208.11Z"/><path class="cls-4" d="M209.15,206.08a31.81,31.81,0,0,1-.49,6.46,132.74,132.74,0,0,1-4,15.92l-1,3.53-1.92-1.2a98.94,98.94,0,0,0,2-17c0-2.8-.21-5.67.63-8.34C206.53,205.7,208.65,206.31,209.15,206.08Z"/><path class="cls-5" d="M214.31,45.46c-1.21,12.62,4.36,25.68.61,37.79-3.2,10.32-12.66,17.91-15.36,28.37,9.18-6.58,18.95-14,22.06-24.82,1.22-4.27,1.3-8.76,1.37-13.2.11-7,.16-14.37-2.84-20.75C218.06,48.41,214.43,44.26,214.31,45.46Z"/><path class="cls-5" d="M184.85,137.2a20.87,20.87,0,0,0,10.63,11.67c3.05,1.43,6.39,2.09,9.57,3.2a35.91,35.91,0,0,1,13.76,8.74c2.93,3,5.52,6.62,9.42,8.13a21.21,21.21,0,0,1-14.39-4.3c-3.35-2.58-6.19-6.31-10.35-7a34,34,0,0,0-5.15-.07,15.37,15.37,0,0,1-15-16.77A5.1,5.1,0,0,1,184.85,137.2Z"/><path class="cls-5" d="M236.89,172.11c-1.65,3.39-1.54,7.87-4.55,10.13-1.76,1.31-4.09,1.44-6.28,1.52l-14.89.57a59.48,59.48,0,0,0,22.3,3.63C233.75,183.59,234.67,179.25,236.89,172.11Z"/><path d="M228,209.18c2.39-8.11,4.5-16.31,6.85-24.43,3.89-13.61,8.51-28,5.67-42.26-1.91-9.87-11.11-18.51-9-28.93,1.64-7.06.27-14.34-.59-21.42a147.91,147.91,0,0,0-12.32-43.69c-1.34-2.65-7.34-17.09-10.37-14.52-.51.62,0,1.42.28,2s.85,1.45,1.27,2.17a158.75,158.75,0,0,1,10.91,24.38,152.19,152.19,0,0,1,8,39.32,36,36,0,0,1-1.07,12.65c-1.33,7.18,2.72,14,5.8,20.13,6.08,10.11,4.24,22.58,2,33.43-3,12.7-7,25.12-10.19,37.75-.2.83-.51,1.63-.63,2.47A1.82,1.82,0,0,0,228,209.18Z"/><path d="M200.32,205.23a1.78,1.78,0,0,0,1.52-2c-1-5-3.7-9.33-5.51-14a47.4,47.4,0,0,1-2.35-7.92,83.12,83.12,0,0,1-1.43-10.42c-.26-3.87-.16-7.75-.93-11.31-1.87-8-6.73-15-8-23.16-2.18-9.12-.69-18.49-1.59-27.72-.45-5.86-2.52-11.38-4.57-16.83-2.48-7.22-3.3-15.1-3.76-22.59-.12-1.43-.07-2.62-.09-4a1.05,1.05,0,0,0-2-.56,29.23,29.23,0,0,0-.6,4.06,71.27,71.27,0,0,0,4.82,29.11c2.62,6.92,3,14.18,2.71,21.47-.91,14.86,2.34,24.3,8.34,37.52,2,5.58,1.37,11.53,2,17.33.64,6.92,2,14.12,5.32,20.26,1.27,2.61,2.75,5.25,3.79,8C198.29,203.69,198.57,205.46,200.32,205.23Z"/><path d="M221.51,237.63c3.66-1.88,7.33-22.51,7.45-27.1.23-1.87-1.82-2.3-3.23-2.66a72.88,72.88,0,0,0-26.29-4.34c-2.66.08-1.94,2.49-2.18,4.26a158.7,158.7,0,0,0-.83,21.36c-.48,3.11,4.13,3.48,6.27,4.18,5,1.16,9.88,2.73,14.89,3.83C218.89,237.32,220.21,238.11,221.51,237.63Zm-1.18-3.1A184.62,184.62,0,0,1,199.27,229c.37-3.73.18-7.48.29-11.21s.76-7.47.71-11.27a105.46,105.46,0,0,1,26,4.27C225,218.77,224,227.21,220.33,234.53Z"/><path d="M217.4,235.12c2.57-8.75,4.76-17.66,5.35-26.77,0-.43.29-1.23-.39-1.21a.41.41,0,0,0-.35.49.53.53,0,0,1,0-.13,183.56,183.56,0,0,1-5.79,27.3A.62.62,0,0,0,217.4,235.12Z"/><path d="M211.12,233.14c1.48-3.21,1.9-6.93,2.85-10.35.95-4.14,1.62-8.33,2.16-12.54.08-1.28.56-2.68.24-3.92-.58-.53-1,.1-1,.69a146.48,146.48,0,0,1-5.16,24.87,2.3,2.3,0,0,0-.14.9A.57.57,0,0,0,211.12,233.14Z"/><path d="M205.11,230.66a158.52,158.52,0,0,0,4.34-21.94c.1-.81.21-1.62.28-2.43a.57.57,0,1,0-1.09-.14c-1,6.46-1.94,12.91-3.53,19.24-.4,1.65-.84,3.29-1.35,4.91A.7.7,0,0,0,205.11,230.66Z"/><path d="M202.49,230.78c.7-8.58,1.65-17.07,2.27-25.64a.45.45,0,0,0-.87-.08c-.93,5.82-1.27,11.77-2,17.63-.21,2.67-.59,5.33-.7,8A.65.65,0,0,0,202.49,230.78Z"/></g><g id="Layer_80" data-name="Layer 80"><path class="cls-7" d="M108.54,207.4C111.3,197.31,121,190,131.4,188.59s21,2.68,28.95,9.48,13.44,16.1,17.14,25.88,5.73,20.1,7.74,30.37l-3.77,5.43c2.3,8.93,4.61,17.86,6.39,27.89l-1.56,7.16a33.68,33.68,0,0,1,1.34,31.32c-1.79,3.71-4.33,7.95-2.44,11.61,0,0,9.61,77.15,9.34,77a81.71,81.71,0,0,0-.16,28.12c2.07,12.23,6.9,24.82,3.17,36.65a26.94,26.94,0,0,1-14.19,16.13c-6.72,3.1-14.36,3.27-21.75,3.39-8.83.14-17.65.27-26.22-1.77-4.15-7.22-8.34-14.54-10.64-22.55s-2.55-16.91,1.05-24.43c1.63-3.42,4.07-6.62,4.42-10.4.43-4.68-2.42-8.94-4.34-13.24-3.68-8.25-4.08-17.66-2.7-26.59s4.44-17.5,7.17-28.18c-5.24-3.95-7.51-10.82-7.79-17.37s1.11-13.05,1.76-19.58c1.75-17.45-1.79-34.94-4.92-52.65l-8.47,1.27C107.25,258.87,101.54,233,108.54,207.4Z"/><path d="M147.47,191.49q7.71,18.4,15.06,37s8.12,18.41,8,18.3a6.58,6.58,0,0,1,1.79,5.51,10.64,10.64,0,0,1-2.51,5.36,11.3,11.3,0,0,0-1.94,2.64c-.75,1.7-.29,3.67.18,5.47,0,0,7.36,27.09,7.15,27.31a12.57,12.57,0,0,1,1.06,11.08c-.72,1.84-1.87,3.47-2.62,5.29-1.92,4.65-1.11,9.91-.57,15a43.87,43.87,0,0,1-4.73,9.86s8.57,83.8,9.1,84.09a34.8,34.8,0,0,0,1.66,26.07c1.41,2.89,3.28,5.95,2.52,9.07-.83,3.38-4.59,5.7-4.68,9.18l4,31.53s-21.68,4.88-22,4.74c.54-5.62-1.27-11.16-2.74-16.61s-2.61-11.32-.78-16.66c.88-2.58,2.43-4.94,2.93-7.63,1.35-7.27-5.31-14.54-3.2-21.64,0,0,4.35-12.46,4.55-13-1.8-8.61-10.54-14.6-12-23.29l3.64-28.33s-1.41-7.21-1.32-7.75a5.34,5.34,0,0,1-.43-4.75c.49-1.58,1.34-3,1.79-4.62,2.17-7.57-5-15.2-3.71-23,.55-3.46,2.71-6.42,4.44-9.46s3.13-6.68,2-10l-10.72-46.75s-7.63-31.31-7.43-30.93q-3.31-18.93-4.88-38.12a9.16,9.16,0,0,1,.48-4.8c1-2.13,3.6-3.16,6-3.08S142.17,189.66,147.47,191.49Z"/><path class="cls-8" d="M180,236.56a29.15,29.15,0,0,1-2,21.83c-2.25,4.3-5.56,8-7.67,12.38-4.56,9.51-2.83,20.65-2.23,31.19a134,134,0,0,1-9.56,57.64c10.44-14.14,21.28-29.26,22.8-46.77.8-9.24-1.09-18.48-1.59-27.73s.61-19.21,6.46-26.4a7.54,7.54,0,0,0,2-3.41,6.56,6.56,0,0,0-.67-3.34l-7.1-18.18C180.06,235.59,179.68,237.41,180,236.56Z"/><path class="cls-8" d="M128.43,321.33a388.67,388.67,0,0,0,7.42,47.26c2.9,13.15,7.13,27.13,17.88,35.24a31.89,31.89,0,0,1-20.83-24.72c-.94.55-2.19-.24-2.58-1.26a8,8,0,0,1-.16-3.24c.37-7.52-5.62-13.94-6.6-21.39-.78-5.87,1.6-11.62,2.86-17.39S127.44,323.1,128.43,321.33Z"/><path class="cls-8" d="M197.28,412.57,181.21,442.4a36.76,36.76,0,0,0-3.4,7.65c-1.11,4.08-.78,8.38-.5,12.59.31,4.67-.15,10.53-4.48,12.28-3,1.21-6.31-.28-9.5-.8s-7.45,1-7.3,4.21c6.89-5.22,18.08,3.48,25-1.65,4.23-3.11,4.09-9.32,4-14.58a82.23,82.23,0,0,1,2.17-19.52,7.63,7.63,0,0,1,2.07-4.24c1.16-1,2.76-1.21,4.16-1.78s2.8-1.88,2.51-3.37c-.13-.66-.56-1.42-.13-1.94s1,.9.42.52l-1.48-9.32a7.26,7.26,0,0,0,3-7.74C197.21,414.45,196.56,414.19,197.28,412.57Z"/><path d="M154.19,501.77a119.36,119.36,0,0,0,15.65-1.88c6.54-1.4,13.4-2.53,19.39-5.63,1.89-1.33,3.15-3.92,4.2-5.8a79.59,79.59,0,0,0,3.94-7.19c4.47-9.49,4.9-13.38,2.25-23.4-1.83-8.56-4-17.25-5.25-25.87a26.63,26.63,0,0,1-.27-6c.58-2.17,1.59-4.24,2.18-6.42.93-2.4.55-4.9.31-7.38-.58-5.36-1.19-10.71-1.72-16.07-1.17-11.65-2.6-23.28-4.54-34.83C189,352.7,187.2,344.56,187,336a12.73,12.73,0,0,1,1.57-6.35c1.49-4.63,3.82-9.25,3.49-14.23-.91-7.56-3.27-15.15-3.66-22.67.3-2.51,1-5,.94-7.51-.78-7.85-4-15.36-5.07-23.2a2.87,2.87,0,0,1,.36-2.34c1-1.48,2.05-3,3-4.54a3.54,3.54,0,0,0,0-2.62,27.23,27.23,0,0,0-.61-2.85c-1-3.51-2.15-7.09-3.11-10.58a176.68,176.68,0,0,0-6.51-20.45,45.17,45.17,0,0,0-2.13-4.89,2.22,2.22,0,0,0-1.16-1.1,1.31,1.31,0,0,0-1.7,1c-.12,1.3.52,2.55.81,3.81,1.28,4.17,2.55,8.34,3.77,12.53,2.4,8,5.18,15.9,7.52,23.93a29.39,29.39,0,0,1-3.06,4.19c-1.69,2.54-.14,5.9.23,8.66,1.13,5.12,2.63,10.15,4,15.2,1.29,2.85.11,5.79-.47,8.61-.95,6.51,1.47,13,2.51,19.43a36.79,36.79,0,0,1,1.11,6,19.21,19.21,0,0,1-.76,4.32c-.9,3.57-2.8,6.73-4.08,10.14-1.3,3.81-.75,7.95-.39,11.88.66,6,1.76,11.87,2.73,17.78,3,17.6,4.56,34.91,6.49,52.56.19,1.73.69,3.52.12,5.24-.59,2.74-2.5,5-2.82,7.84a33.33,33.33,0,0,0,.47,8.34c1.78,10.6,4.24,21.09,6.81,31.52a11,11,0,0,1-.33,6,70.45,70.45,0,0,1-4.37,10.76,43.86,43.86,0,0,1-4.1,6.8c-.75,1.06-1.28,2.38-2.63,2.78a105.78,105.78,0,0,1-23.09,5.43,121.94,121.94,0,0,1-25.25.58c-1.09-.35-1.6-1.63-2.21-2.51-3.9-7.76-5.83-16.33-8.48-24.56-1-4.13-3.27-8.36-1.93-12.65,1.85-5.54,5.11-10.48,7.23-15.92,1.47-4.66-1.36-9.36-2.95-13.64-1.79-4.25-3.75-8.51-5.55-12.73v0l.06.14c-1.33-3.48.85-7.64,1.33-11.2,1.82-8.3,3.87-16.57,5.24-25,.28-1.89.89-3.76.61-5.68a28.32,28.32,0,0,0-1.76-6c-6-14.61-6.06-14.57-3.11-30.31.87-5.43,2.44-10.81,2.62-16.32a58.68,58.68,0,0,0-1.14-8.86c-1.46-8.1-3.37-16.57-4.39-24.63-.26-1.26-.07-2.65-.78-3.78a1.84,1.84,0,0,0-3.23.41,5.15,5.15,0,0,0,.06,2.64q.63,4.22,1.36,8.42c1.32,8.78,4.17,17.36,4.67,26.25-.68,5.88-2.33,11.65-3.33,17.5-1.27,7.2-3.31,15.23.54,22a54.92,54.92,0,0,1,2.26,5c1.1,3,2.9,6.09,2.84,9.39-2.65,10.72-5.05,21.54-7.41,32.34-.47,2.38-1.09,4.82-.71,7.25a29,29,0,0,0,2.16,5.08c2.7,6.14,6.27,12.07,7.7,18.67.32,1.68-.85,3.07-1.7,4.39-3,5.18-6.48,10.54-7.17,16.61-.23,4.33,1.88,8.36,2.92,12.47,2.49,8.1,4.61,16.41,8.39,24,1.69,3.37,4.16,5.56,8.23,4.92C144.75,501.81,149.47,502,154.19,501.77Z"/><path d="M124.56,345.3c.78-4.23.33-8.61.38-12.89-.23-9.91-.65-19.82-1.43-29.7-.34-4.13-.75-8.24-1.26-12.15a43.28,43.28,0,0,0-.89-5.19,2.34,2.34,0,0,0-.74-1.43c-1.26-.65-1.55,1.05-1.43,2,.41,9.57,1.24,19.12,1.52,28.7.23,7.33.72,14.64.9,22,.12,2.84.06,5.72.41,8.54A1.33,1.33,0,0,0,124.56,345.3Z"/><path d="M126.64,328.19c.55-6.56.2-13.42-2-19.68a1.39,1.39,0,1,0-2.64.85c.11,3,.19,5.93.22,8.91,0,3.3.22,6.6.45,9.89a2,2,0,0,0,3.92,0Z"/><path d="M159.36,497.84a.67.67,0,0,0,.5-.81c-.29-1.25-.58-2.49-.85-3.74-1.1-5.09-2.17-10.16-3.13-15.27-.45-3.16-1.38-6.47-.81-9.65,1.51-4.32,4.83-8.87,4.08-13.59-1.09-6.16-3.42-12.28-3.89-18.47,1.4-3.31,3-6.58,4.12-10,.73-2.1,1.37-4.6-.22-6.47-3.31-5.69-8-11-10.39-17.12-.16-6,.84-11.88,1.37-17.8.35-4.95,2.08-9.84,1.78-14.8-.66-3.14-1.77-6.23-2.17-9.39,0-1.29.82-2.43,1.12-3.68.75-2.65,1.88-5.48,1.16-8.25-1.39-6.05-3.83-12.17-3.45-18.44,1.56-3.66,4-7,5.55-10.63a7.45,7.45,0,0,0,.55-6.28c-4.93-20.57-8.91-41.35-14.28-61.81-1.59-6.21-3-12.47-4.69-18.64a.31.31,0,0,0-.59,0,1.07,1.07,0,0,0,0,.25c1,4.13,2.06,8.25,3,12.38,4.06,15.68,7.7,31.46,11.08,47.29q1.93,8.71,3.9,17.43c.33,2.41,1.74,4.88.89,7.27-1.58,4.14-4,7.89-6.07,11.8-.88,2.61-.09,5.48.33,8.12.71,4.5,2.59,8.84,3.05,13.36-.29,3.27-1.63,6.27-2.48,9.36a20.1,20.1,0,0,0,.74,4.55c.4,2,1.16,4,1.48,6.09-.06,2.79-.83,5.52-1.23,8.28-.88,5.24-1.33,10.54-1.88,15.81-.1,3-1.19,6.28,0,9.2,2.54,5.25,6.17,9.9,9.35,14.77.64,1.15,1.89,2.19,1.78,3.61-.82,4.78-3.4,9.06-5.08,13.56.06,4.57,1.9,9,2.75,13.49.59,3.11,2.21,6.34.83,9.43-1.06,3-2.39,5.86-3.63,8.76-1,5.23,1,10.6,1.81,15.76.85,4.2,1.72,8.4,2.68,12.58C158.58,496.83,158.53,497.82,159.36,497.84Z"/><path d="M181.25,495c-.28-5.59-1.25-11.11-2-16.65s-2.3-11.35-1.62-17c.9-2.7,3.36-4.58,4.48-7.21a5.94,5.94,0,0,0-.19-4.64c-1.56-4.21-3.35-8.42-4.82-12.64-.92-3-2.23-6.15-1.81-9.32,1.1-3.2,2.86-6.42,2.19-9.92-2.68-17.71-4.8-35.49-6.46-53.33-.74-9.64-2.25-19.26-2.32-28.93a5.48,5.48,0,0,1,1.15-3.12,48.79,48.79,0,0,0,3.37-6.35c.76-1.57.46-3.3.2-4.94a55.81,55.81,0,0,1-.71-8.26c.77-3.71,3.66-6.78,4.65-10.5.79-2.13.25-4.38-.5-6.44-1.23-3.78-2.47-7.54-3.66-11.33a163.21,163.21,0,0,1-4.37-16.12c-.42-2.73-1.4-5.72-.39-8.4,2.46-3.36,6.38-6.58,3.69-11.08-3.1-7.27-6.66-14.34-9.5-21.72-.13-.42-.33-1.07-.86-.75a.42.42,0,0,0-.06.6c.31.87.61,1.75,1,2.61,2.57,6.1,5.31,12.13,8.07,18.15,1.29,2.54,2.33,5,.31,7.42-1,1.8-2.91,3.12-3.63,5.09-.66,2.94.18,6,.68,8.93,1.59,7.71,4.1,15.19,6.51,22.67.88,3.44,3.2,7,1.77,10.53-1.05,3.36-3.34,6.25-4.39,9.57-.38,3.13.26,6.29.59,9.39a7,7,0,0,1,0,3.54,87,87,0,0,1-4.33,8.43c-.75,2.19-.4,4.59-.33,6.86.27,4.2.69,8.38,1.08,12.57,1.59,16.63,3.06,33.28,5.31,49.84.56,4,1.15,8,1.72,12a25.88,25.88,0,0,1,.5,6,25.7,25.7,0,0,1-1.84,5.6c-1.32,3.28.23,6.88,1.14,10.09,1.2,3.57,2.6,7.07,3.94,10.59.72,2.21,2.37,4.54,1.36,6.86s-3,4.13-4.25,6.36c-1.49,5,.27,10.29.77,15.3.73,4.84,1.42,9.67,2,14.53.22,1.73.42,3.4.47,5.09a.55.55,0,0,0,.55.54A.54.54,0,0,0,181.25,495Z"/><path d="M182,237.52c.44-1.14,0-2.46-.19-3.63a104.25,104.25,0,0,0-3.09-11.79,51.15,51.15,0,0,0-16.07-24.59c-13.12-11.24-36.88-17.06-48.88-1.37-2.62,3.26-4.11,7.2-5.78,11a1.31,1.31,0,0,0,.7,1.7,1.4,1.4,0,0,0,1.82-.94c2.41-4.28,4.74-8.76,8.4-12.11,14.88-12.43,38.43-.64,48.55,12.87,6,7.66,8.85,17.12,12.19,26.14C180.19,235.72,180.67,238.8,182,237.52Z"/><path d="M123.28,272.17c1.22-20.9,1.89-42.09-2.24-62.72a.58.58,0,1,0-1.15.17c.07.24.12.48.17.71,2.36,14.59,2.82,29.46,2.5,44.22q-.25,8.82-.72,17.62A.72.72,0,0,0,123.28,272.17Z"/><path d="M113.11,276.21a.6.6,0,0,0,.51-.67c-.78-8.63-1.57-17.32-2.24-26a295.48,295.48,0,0,1,0-32.33.58.58,0,1,0-1.14-.06c-1.32,17.43-.16,34.86,1.65,52.2.19,2.1.37,4.2.57,6.3A.6.6,0,0,0,113.11,276.21Z"/><path class="cls-7" d="M130,207.4c-2.76-10.09-12.49-17.45-22.86-18.81s-21,2.68-28.95,9.48S64.71,214.17,61,224s-5.72,20.1-7.74,30.37L57,259.75c-2.3,8.93-4.61,17.86-6.39,27.89l1.56,7.16a33.71,33.71,0,0,0-1.34,31.32c1.8,3.71,4.33,7.95,2.45,11.61,0,0-9.62,77.15-9.35,77a81.71,81.71,0,0,1,.16,28.12C42.07,455,37.23,467.63,41,479.46a26.94,26.94,0,0,0,14.19,16.13c6.72,3.1,14.36,3.27,21.76,3.39,8.82.14,17.64.27,26.21-1.77,4.15-7.22,8.34-14.54,10.64-22.55s2.55-16.91-1.05-24.43c-1.63-3.42-4.07-6.62-4.42-10.4-.43-4.68,2.42-8.94,4.34-13.24,3.68-8.25,4.08-17.66,2.7-26.59s-4.44-17.5-7.17-28.18c5.24-3.95,7.51-10.82,7.79-17.37s-1.11-13.05-1.76-19.58c-1.75-17.45,1.79-34.94,4.92-52.65l8.47,1.27C131.25,258.87,137,233,130,207.4Z"/><path d="M91,191.49q-7.71,18.4-15.06,37s-8.12,18.41-8,18.3a6.58,6.58,0,0,0-1.79,5.51,10.64,10.64,0,0,0,2.51,5.36,11.64,11.64,0,0,1,2,2.64c.74,1.7.28,3.67-.19,5.47,0,0-7.36,27.09-7.14,27.31a12.54,12.54,0,0,0-1.07,11.08c.72,1.84,1.87,3.47,2.62,5.29,1.92,4.65,1.11,9.91.57,15a43.47,43.47,0,0,0,4.74,9.86s-8.58,83.8-9.11,84.09a34.76,34.76,0,0,1-1.66,26.07c-1.41,2.89-3.28,5.95-2.52,9.07.83,3.38,4.59,5.7,4.68,9.18l-4,31.53s21.67,4.88,22,4.74c-.55-5.62,1.26-11.16,2.73-16.61s2.61-11.32.78-16.66c-.88-2.58-2.43-4.94-2.92-7.63-1.36-7.27,5.31-14.54,3.19-21.64,0,0-4.35-12.46-4.55-13,1.8-8.61,10.54-14.6,12-23.29l-3.64-28.33s1.41-7.21,1.32-7.75a5.31,5.31,0,0,0,.43-4.75c-.49-1.58-1.33-3-1.79-4.62-2.17-7.57,5-15.2,3.71-23-.55-3.46-2.7-6.42-4.44-9.46s-3.13-6.68-2-10l10.72-46.75s7.63-31.31,7.43-30.93q3.32-18.93,4.88-38.12a9.26,9.26,0,0,0-.47-4.8c-1-2.13-3.61-3.16-6-3.08S96.33,189.66,91,191.49Z"/><path class="cls-8" d="M60.75,236.56a29.15,29.15,0,0,0,2,21.83c2.25,4.3,5.56,8,7.67,12.38,4.56,9.51,2.83,20.65,2.23,31.19a134,134,0,0,0,9.57,57.64c-10.45-14.14-21.28-29.26-22.8-46.77-.8-9.24,1.08-18.48,1.58-27.73s-.61-19.21-6.46-26.4a7.72,7.72,0,0,1-2-3.41,6.56,6.56,0,0,1,.67-3.34l7.1-18.18C60.65,235.59,61,237.41,60.75,236.56Z"/><path class="cls-8" d="M112.28,321.33a388.64,388.64,0,0,1-7.41,47.26C102,381.74,97.73,395.72,87,403.83a31.89,31.89,0,0,0,20.83-24.72c.94.55,2.19-.24,2.58-1.26a8,8,0,0,0,.16-3.24c-.36-7.52,5.62-13.94,6.61-21.39.77-5.87-1.6-11.62-2.87-17.39S113.28,323.1,112.28,321.33Z"/><path class="cls-8" d="M43.43,412.57,59.51,442.4a37.25,37.25,0,0,1,3.39,7.65c1.11,4.08.78,8.38.5,12.59-.31,4.67.15,10.53,4.49,12.28,3,1.21,6.31-.28,9.49-.8s7.46,1,7.3,4.21c-6.89-5.22-18.07,3.48-25-1.65-4.23-3.11-4.09-9.32-4-14.58a82.23,82.23,0,0,0-2.17-19.52,7.57,7.57,0,0,0-2.07-4.24c-1.16-1-2.76-1.21-4.16-1.78s-2.8-1.88-2.51-3.37c.13-.66.56-1.42.13-1.94s-1,.9-.42.52l1.48-9.32a7.26,7.26,0,0,1-3-7.74C43.5,414.45,44.15,414.19,43.43,412.57Z"/><path d="M84.31,501.77a119,119,0,0,1-15.64-1.88c-6.55-1.4-13.41-2.53-19.4-5.63-1.89-1.33-3.15-3.92-4.2-5.8a79.59,79.59,0,0,1-3.94-7.19c-4.46-9.49-4.9-13.38-2.24-23.4,1.82-8.56,4-17.25,5.24-25.87a26.05,26.05,0,0,0,.27-6c-.58-2.17-1.58-4.24-2.18-6.42-.93-2.4-.55-4.9-.3-7.38.57-5.36,1.18-10.71,1.71-16.07,1.17-11.65,2.6-23.28,4.54-34.83C49.5,352.7,51.3,344.56,51.5,336a12.73,12.73,0,0,0-1.57-6.35c-1.48-4.63-3.82-9.25-3.49-14.23.92-7.56,3.28-15.15,3.66-22.67-.3-2.51-1-5-.94-7.51.78-7.85,4-15.36,5.07-23.2a2.83,2.83,0,0,0-.36-2.34c-1-1.48-2-3-3-4.54a3.54,3.54,0,0,1,0-2.62,27.23,27.23,0,0,1,.61-2.85c1-3.51,2.16-7.09,3.11-10.58a174.82,174.82,0,0,1,6.52-20.45,43.22,43.22,0,0,1,2.12-4.89,2.26,2.26,0,0,1,1.16-1.1,1.31,1.31,0,0,1,1.7,1c.12,1.3-.52,2.55-.81,3.81-1.28,4.17-2.55,8.34-3.76,12.53-2.41,8-5.19,15.9-7.53,23.93a28.7,28.7,0,0,0,3.07,4.19c1.68,2.54.13,5.9-.24,8.66-1.13,5.12-2.63,10.15-4,15.2-1.29,2.85-.11,5.79.48,8.61.94,6.51-1.48,13-2.52,19.43a36.79,36.79,0,0,0-1.11,6,19.21,19.21,0,0,0,.76,4.32c.9,3.57,2.8,6.73,4.08,10.14,1.3,3.81.76,7.95.39,11.88-.66,6-1.76,11.87-2.73,17.78-3,17.6-4.55,34.91-6.49,52.56-.19,1.73-.69,3.52-.12,5.24.6,2.74,2.5,5,2.83,7.84a32.87,32.87,0,0,1-.48,8.34c-1.78,10.6-4.24,21.09-6.81,31.52a10.92,10.92,0,0,0,.34,6,69.41,69.41,0,0,0,4.36,10.76,43.91,43.91,0,0,0,4.11,6.8c.74,1.06,1.27,2.38,2.62,2.78a105.92,105.92,0,0,0,23.09,5.43,122,122,0,0,0,25.26.58c1.09-.35,1.59-1.63,2.2-2.51,3.9-7.76,5.83-16.33,8.49-24.56,1-4.13,3.26-8.36,1.93-12.65-1.86-5.54-5.12-10.48-7.24-15.92-1.47-4.66,1.37-9.36,3-13.64,1.79-4.25,3.75-8.51,5.55-12.73v0l-.06.14c1.33-3.48-.85-7.64-1.33-11.2-1.82-8.3-3.87-16.57-5.24-25-.28-1.89-.89-3.76-.61-5.68a28.32,28.32,0,0,1,1.76-6c6-14.61,6.06-14.57,3.11-30.31-.86-5.43-2.44-10.81-2.62-16.32a58.68,58.68,0,0,1,1.14-8.86c1.46-8.1,3.37-16.57,4.39-24.63.26-1.26.07-2.65.78-3.78a1.84,1.84,0,0,1,3.23.41,5.15,5.15,0,0,1-.06,2.64q-.63,4.22-1.36,8.42c-1.32,8.78-4.17,17.36-4.67,26.25.68,5.88,2.33,11.65,3.33,17.5,1.27,7.2,3.31,15.23-.54,22a54.92,54.92,0,0,0-2.26,5c-1.1,3-2.9,6.09-2.84,9.39,2.65,10.72,5.06,21.54,7.41,32.34.47,2.38,1.1,4.82.71,7.25a29,29,0,0,1-2.16,5.08c-2.69,6.14-6.27,12.07-7.7,18.67-.32,1.68.85,3.07,1.71,4.39,3,5.18,6.48,10.54,7.16,16.61.23,4.33-1.88,8.36-2.92,12.47-2.49,8.1-4.61,16.41-8.39,24-1.69,3.37-4.16,5.56-8.22,4.92C93.76,501.81,89,502,84.31,501.77Z"/><path d="M113.94,345.3c-.78-4.23-.33-8.61-.38-12.89.23-9.91.65-19.82,1.43-29.7.34-4.13.75-8.24,1.26-12.15a43.28,43.28,0,0,1,.89-5.19,2.4,2.4,0,0,1,.74-1.43c1.26-.65,1.55,1.05,1.43,2-.41,9.57-1.24,19.12-1.52,28.7-.23,7.33-.72,14.64-.89,22-.13,2.84-.07,5.72-.41,8.54A1.34,1.34,0,0,1,113.94,345.3Z"/><path d="M111.86,328.19c-.55-6.56-.2-13.42,2-19.68a1.39,1.39,0,1,1,2.64.85c-.11,3-.19,5.93-.22,8.91,0,3.3-.22,6.6-.45,9.89a2,2,0,0,1-3.92,0Z"/><path d="M119.18,285.24c-6.68-.83-13.45-2.81-19-6.73a1.27,1.27,0,0,1,1.29-2.07,25.47,25.47,0,0,0,4.11,1.9c7.46,2.71,15.14,4,23,2.67a53.53,53.53,0,0,0,9.29-2.36c1.54-.46,3.78-1.85,4.86.07,1.25,3.26-4.52,3.95-6.61,4.75A47.61,47.61,0,0,1,119.18,285.24Z"/><path d="M79.14,497.84a.67.67,0,0,1-.5-.81c.29-1.25.58-2.49.85-3.74,1.1-5.09,2.17-10.16,3.13-15.27.45-3.16,1.38-6.47.81-9.65-1.51-4.32-4.83-8.87-4.08-13.59,1.09-6.16,3.42-12.28,3.89-18.47-1.4-3.31-2.95-6.58-4.11-10-.74-2.1-1.37-4.6.21-6.47,3.31-5.69,8-11,10.4-17.12.15-6-.84-11.88-1.38-17.8-.34-4.95-2.08-9.84-1.78-14.8.66-3.14,1.77-6.23,2.17-9.39,0-1.29-.82-2.43-1.12-3.68-.75-2.65-1.88-5.48-1.16-8.25,1.39-6.05,3.84-12.17,3.45-18.44-1.56-3.66-4-7-5.55-10.63a7.45,7.45,0,0,1-.55-6.28c4.93-20.57,8.91-41.35,14.28-61.81,1.59-6.21,3-12.47,4.69-18.64a.31.31,0,0,1,.59,0,1.07,1.07,0,0,1,0,.25c-1,4.13-2.06,8.25-3,12.38-4.05,15.68-7.7,31.46-11.08,47.29q-1.94,8.71-3.9,17.43c-.33,2.41-1.74,4.88-.89,7.27,1.58,4.14,4,7.89,6.07,11.8.88,2.61.1,5.48-.32,8.12-.72,4.5-2.6,8.84-3.06,13.36.3,3.27,1.63,6.27,2.49,9.36a20.12,20.12,0,0,1-.75,4.55c-.4,2-1.16,4-1.48,6.09.07,2.79.84,5.52,1.23,8.28.89,5.24,1.34,10.54,1.88,15.81.1,3,1.19,6.28,0,9.2-2.54,5.25-6.17,9.9-9.34,14.77-.65,1.15-1.9,2.19-1.79,3.61.82,4.78,3.41,9.06,5.08,13.56-.06,4.57-1.9,9-2.75,13.49-.59,3.11-2.21,6.34-.83,9.43,1.06,3,2.4,5.86,3.64,8.76.94,5.23-1,10.6-1.82,15.76-.85,4.2-1.72,8.4-2.68,12.58C79.92,496.83,80,497.82,79.14,497.84Z"/><path d="M57.25,495c.28-5.59,1.26-11.11,2-16.65s2.3-11.35,1.62-17c-.9-2.7-3.36-4.58-4.48-7.21a5.94,5.94,0,0,1,.2-4.64c1.55-4.21,3.34-8.42,4.82-12.64.91-3,2.22-6.15,1.8-9.32-1.1-3.2-2.86-6.42-2.19-9.92,2.68-17.71,4.8-35.49,6.46-53.33.74-9.64,2.25-19.26,2.32-28.93a5.54,5.54,0,0,0-1.14-3.12,47.67,47.67,0,0,1-3.38-6.35c-.76-1.57-.45-3.3-.2-4.94a54.49,54.49,0,0,0,.71-8.26c-.77-3.71-3.66-6.78-4.65-10.5-.79-2.13-.25-4.38.5-6.44,1.23-3.78,2.47-7.54,3.66-11.33a166.07,166.07,0,0,0,4.38-16.12c.41-2.73,1.39-5.72.38-8.4-2.46-3.36-6.38-6.58-3.69-11.08,3.1-7.27,6.66-14.34,9.5-21.72.13-.42.33-1.07.86-.75a.42.42,0,0,1,.06.6c-.31.87-.61,1.75-1,2.61-2.57,6.1-5.31,12.13-8.07,18.15-1.29,2.54-2.33,5-.31,7.42,1.05,1.8,2.91,3.12,3.63,5.09.66,2.94-.18,6-.68,8.93-1.59,7.71-4.1,15.19-6.51,22.67-.87,3.44-3.2,7-1.77,10.53,1,3.36,3.34,6.25,4.4,9.57.37,3.13-.27,6.29-.6,9.39a7,7,0,0,0,0,3.54,87,87,0,0,0,4.33,8.43c.75,2.19.4,4.59.34,6.86-.28,4.2-.7,8.38-1.09,12.57-1.59,16.63-3.06,33.28-5.31,49.84-.56,4-1.15,8-1.72,12a25.88,25.88,0,0,0-.5,6,25.7,25.7,0,0,0,1.84,5.6c1.32,3.28-.23,6.88-1.14,10.09-1.2,3.57-2.6,7.07-3.94,10.59-.72,2.21-2.37,4.54-1.36,6.86s3,4.13,4.25,6.36c1.49,5-.27,10.29-.77,15.3-.73,4.84-1.42,9.67-2,14.53-.22,1.73-.41,3.4-.47,5.09a.55.55,0,0,1-1.09,0Z"/><path d="M56.47,237.52c-.43-1.14.05-2.46.19-3.63a104.25,104.25,0,0,1,3.09-11.79,51.15,51.15,0,0,1,16.07-24.59c13.12-11.24,36.88-17.06,48.88-1.37,2.62,3.26,4.11,7.2,5.78,11a1.32,1.32,0,0,1-.69,1.7,1.4,1.4,0,0,1-1.82-.94c-2.42-4.28-4.75-8.76-8.41-12.11-14.88-12.43-38.43-.64-48.55,12.87-6,7.66-8.85,17.12-12.19,26.14C58.31,235.72,57.83,238.8,56.47,237.52Z"/><path d="M115.22,272.17c-1.22-20.9-1.89-42.09,2.24-62.72a.59.59,0,1,1,1.16.17,6.72,6.72,0,0,0-.18.71c-2.36,14.59-2.81,29.46-2.5,44.22q.25,8.82.72,17.62A.72.72,0,0,1,115.22,272.17Z"/><path d="M125.39,276.21a.61.61,0,0,1-.51-.67c.79-8.63,1.57-17.32,2.24-26a295.48,295.48,0,0,0,0-32.33.58.58,0,1,1,1.14-.06c1.32,17.43.16,34.86-1.64,52.2-.2,2.1-.38,4.2-.58,6.3A.59.59,0,0,1,125.39,276.21Z"/></g><g id="Layer_83" data-name="Layer 83"><g id="Layer_81" data-name="Layer 81"><path class="cls-9" d="M81.05,9.54a166.69,166.69,0,0,0-49.72,26c3,5.29,11.53,6.29,13,12.18.53,2.13-.08,4.36-.61,6.5a86.81,86.81,0,0,0-2.5,19.92c-.12,13.91,3.11,27.59,6.33,41.12,1.29,5.45,2.59,10.91,4.14,17.23C57,143.4,57.63,156,56.74,168s-3.21,24-3.56,36.12a64.66,64.66,0,0,0,33.27,7.11c6.66-.38,13.21-1.8,19.74-3.21,2.93-.63,5.94-1.3,8.43-3s4.4-4.57,4-7.54c-2.16.93-1.82,4.41.05,5.82s4.43,1.38,6.77,1.35a37.63,37.63,0,0,1,6.5.36c2.4,3.92,7.62,4.79,12.19,5.27,11.91,1.25,24.61,2.37,35.28-3.07,3.06-1.56,6-3.76,7.47-6.85a15.89,15.89,0,0,0,1.08-8.77c-.84-7.34-4.36-14.32-4.15-21.7.13-4.44,1.61-8.75,1.79-13.19.24-6-1.91-11.95-1.07-17.87.5-3.58,2.07-6.91,3.18-10.36.93-2.88,1.54-5.86,2.33-8.78a110,110,0,0,1,8.45-20.83c1.24-16.36,2.41-33.27-3-48.76l15.4-14.27A255.45,255.45,0,0,0,157.25,8c.77,4.17-1.22,8.46-4.2,11.48s-6.84,5-10.66,6.81c-9.93,4.8-21.16,9.3-31.7,6.06s-17.7-14-19.84-25A71,71,0,0,0,81.05,9.54Z"/><path class="cls-10" d="M88.64,4.19a31.62,31.62,0,0,0-10.1,20.42A52.2,52.2,0,0,0,110.42,38.5c-4.08-5.73-9.06-10.76-13.17-16.47S89.87,9.65,90,2.61C88.84,4,87.73,5.37,88.64,4.19Z"/><path class="cls-10" d="M133.46,36.66A44,44,0,0,0,151.81,2.25a66.78,66.78,0,0,1,11.76,20.13c-3.84,4.49-9,7.64-14,10.71a44.1,44.1,0,0,1-9.16,4.65C137.13,38.81,133.5,39.09,133.46,36.66Z"/><path class="cls-3" d="M138.89,115.2a161.41,161.41,0,0,1,18.42-54c4.66,8.16,9.36,16.41,12,25.43,2.1,7.14,2.91,14.74,6.27,21.39a5.24,5.24,0,0,1,5.2-1.24l-2.14,9.09A139.1,139.1,0,0,1,157.57,119a33.55,33.55,0,0,1,7.48-6.43q-3.31-17-5.36-34.25c-1.41,2.65-5.23,3.1-7,5.56-1.06,1.49-1.13,3.45-1.17,5.28L151,117a121.64,121.64,0,0,1-16.48,3.28l-1-4.37C135.17,115.65,136.79,115,138.89,115.2Z"/><path class="cls-3" d="M151.77,98.93a67.71,67.71,0,0,1,10.12-2.51l1,4.39a1.26,1.26,0,0,1,0,.88,1.19,1.19,0,0,1-.76.45l-10.7,3.35A62.66,62.66,0,0,0,151.77,98.93Z"/><path class="cls-3" d="M102.91,28.24a32.7,32.7,0,0,0,37-1.25A41.06,41.06,0,0,0,130,41.07c-3.28,8-3.37,17-3.42,25.66,0,6.33-.07,12.67.52,19,.5,5.24,1.43,10.51.87,15.75-.34,3.19-1.22,6.29-1.5,9.48-.35,4,.25,8,.62,12,.64,6.87,3,14.25.57,20.68-2.91,7.56-.1,19.12-.56,28.16.77,5.52-.68,11.07-1.43,16.6s-.68,11.6,1.51,15.09A82.09,82.09,0,0,0,179,206.42l2.94,4.66c-38.3,17.91-84.43,18.2-123,.78l.85-4.19c14.92,6.28,31.94,2.52,47.66-1.32,3-.73,6.25-1.62,8.13-4.08,1.66-2.16,1.87-5.09,1.82-7.82-.19-9.24-2.68-18.36-2.4-27.59.2-6.65,1.84-13.21,1.7-19.85-.23-11-5.25-22.55-.69-33-2.07-10.59-4.15-21.41-2.75-32.11.51-3.94,1.5-7.9,1.06-11.85s-2.22-7.58-2.32-11.49c-.15-5.94,3.59-12,1.4-17.53-.9-2.27-2.7-4-4.45-5.76C106.54,32.81,104.07,30.39,102.91,28.24Z"/><path class="cls-11" d="M59.13,212.76c14.92,8.45,32.57,10.29,49.12,11a129.58,129.58,0,0,0,72.91-14.25l3.45,5.57c-14.67,11.76-34.18,15.37-52.92,16.84-13,1-26.08,1.19-38.92-.87s-25.46-6.43-36.1-13.91l2.15-5C58.74,213.52,58.66,214.86,59.13,212.76Z"/><path class="cls-12" d="M48.44,114.56a32.07,32.07,0,0,0,23,11.59c13.77.65,27.37-7.64,40.79-4.49l-16.42,6.73a67.35,67.35,0,0,1-9.22,3.27A60,60,0,0,1,71.43,133c-4.14,0-8.39-.2-12.18-1.85C52.82,128.33,48.63,121.09,48.44,114.56Z"/><path class="cls-12" d="M196.75,103.64c-3.26,8.08-10.75,13.91-18.95,16.87s-17.08,3.35-25.79,3.11c-5.87-.16-12.21-.48-17.1,2.78,14.54-4,30.84,5.75,44.73-.13C188.47,122.53,193.66,113.51,196.75,103.64Z"/><path d="M117.19,34.55C103,32.82,90.19,20.39,90,5.77c0-1.36-.12-3.08.79-4.18a.64.64,0,0,1,1,.49c.32,19.29,17.55,32.85,36.36,29,11-2,20.7-11.57,21.79-22.85A28.39,28.39,0,0,0,149.75,3c-.17-1-.62-2.56.76-3,2.47-.36,1.88,3.37,2.19,4.92a23,23,0,0,1-1.63,10.78C145.81,29.17,131.26,36.63,117.19,34.55Z"/><path d="M111.6,40.56C104.77,40.11,77,30.84,77.37,23c2-7.4,4.87-15,10.73-20.27.84-.61,1.77-1.61,2.88-1.43,1.45.63.14,1.89-.58,2.52C85.09,9,82.62,16.16,80.1,23c1.6,5.68,18.72,11.51,24.29,13.31,3,1,6.17,1.11,9.11,2C115.12,39.69,113.35,41.09,111.6,40.56Z"/><path d="M114.26,114.74c.3-4.82.46-9.37-.52-14-1.12-5-3.11-10.12-2.12-15.36,1.16-6.12,2.91-12.09,1.4-18.26-1-4.47-2.49-9-1.74-13.65,1-5.79,3.26-12.73-3.14-16A52.28,52.28,0,0,1,95.32,23.51,46.79,46.79,0,0,1,89.93,9.77a32.36,32.36,0,0,1-.89-5c0-.44-.11-1.07.2-1.44.69-.71,1.53-.12,1.63.75.68,2.76,1.44,5.5,2.35,8.19,3.32,10.76,11.86,18.38,20.19,25.39,5,5.8.15,13.31.37,19.82.37,4.46,1.91,8.72,2.33,13.11A35.24,35.24,0,0,1,115,81.86a27.21,27.21,0,0,0-.92,7.88c.26,3.47,1.46,6.76,2.12,10.17,1.14,4.89.38,9.9.14,14.82A1.05,1.05,0,0,1,114.26,114.74Z"/><path d="M116.46,203.5c-2.12-.56-.93-3.32-.92-4.86a55,55,0,0,0,.34-10.62c-.41-6.42-2.07-12.7-2.34-19.13-.25-6.7,2.4-13.37,1.64-20-.38-6.34-2.2-12.49-2.72-18.81-.76-7.2,1.44-14.17,2-21.29a94.11,94.11,0,0,0-.23-10.5c0-.34.31-.69.66-.54s.39.63.52,1a38.8,38.8,0,0,1,1,17.34,58.47,58.47,0,0,0-1,14c.65,8.26,3.42,16.53,2.72,24.84-.19,3.94-1.42,7.74-1.77,11.66-.26,5.32,1.13,10.6,1.88,15.85a58.77,58.77,0,0,1,.12,17.81C118.28,201.46,118.22,203.62,116.46,203.5Z"/><path d="M75,213.12c-4.56-.86-8.86-2.64-13.41-3.57-3.95-1-10.41-2.09-9.5-7.51.13-12.83,1.37-25.1,2.32-37.78.6-8.26.88-16.79-1.6-24.64-.74-2.14-1.94-4.05-2.81-6.13-2.24-5.45-1.63-11.2-3.11-16.77-5.47-12.41-7.58-26-7.22-39.5.51-9.37.67-19.3,4.73-27.93.16-.26.35-.5.73-.45a.65.65,0,0,1,.56.64,15.35,15.35,0,0,1-.4,1.88c-2.39,10.69-2.68,21.53-2.08,32.38a98.62,98.62,0,0,0,3.14,19c1.27,4.93,3.53,9.45,4.83,14.34.8,4.81.42,9.81,1.93,14.48.9,2.5,2.42,4.72,3.23,7.26,4.56,14.67.91,30.61.35,45.47a.31.31,0,0,1,0-.1c-.35,6.45-.86,12.91-.93,19.38,3.26,2,7.21,2.42,10.83,3.5s7.27,2.35,11.09,2.62c7.82.34,15.46-1.91,23.2-2.71,13-1.76,15.23-2.28,15.1-16a1.35,1.35,0,0,1,2.69,0c-.44,4.18.91,8.84-1.44,12.59-2.29,5.16-8.6,5.56-13.31,6.6-4.49,1-9,1.54-13.6,2.22C85.23,213.15,80.07,214,75,213.12Z"/><path d="M29.34,36.75c0-2.43,5.39-5.43,7.25-7a176,176,0,0,1,47.88-23A1.65,1.65,0,0,1,85.4,10a209.12,209.12,0,0,0-20,7.88A184.21,184.21,0,0,0,33.53,36c-1,.54-1.66,1.74-2.81,1.93A1.39,1.39,0,0,1,29.34,36.75Z"/><path d="M212.35,36.75c0-2.43-5.39-5.43-7.25-7a176,176,0,0,0-47.88-23,1.65,1.65,0,0,0-.93,3.17,209.12,209.12,0,0,1,20,7.88A184.21,184.21,0,0,1,208.16,36c1,.54,1.66,1.74,2.81,1.93A1.39,1.39,0,0,0,212.35,36.75Z"/><path d="M131.44,39.25c-.38-1.89,2-1.92,3.24-2.19a37,37,0,0,0,4.22-1c4.94-1.61,8.78-5,13.27-7.42,2.28-1.42,10.47-5.38,9.27-8.53-1.88-5.09-5-9.6-8.2-13.93-.75-1.41-5.1-5-2.43-6A2.35,2.35,0,0,1,152.7.8a19.06,19.06,0,0,1,3.42,3.53c3.45,4.78,6.77,9.85,8.48,15.53,1,5-5.67,8.48-9.29,10.67-6.39,3.33-12.11,8.4-19.49,9.31C134.41,40,132.07,41.14,131.44,39.25Z"/><path d="M151.72,212.23a66.61,66.61,0,0,1-22.67-5.39c-9.25-4.55-5.93-16.64-5.12-24.85.73-5.54,2.2-11.45,1.94-17-.33-7.15-3-13.76-1.7-20.91.74-4.72,2-9.46,1.84-14.22,0-6-2-11.5-2.53-17.38S125.31,101.56,126,96c.71-6-1.8-11.87-1-17.87.74-4.69,1.88-9.73,1.69-14.42-.29-7.32-2-15,.59-22.06,1.38-3.6,4.39-6.17,7.16-8.71a56.05,56.05,0,0,0,11.66-14.06,42.53,42.53,0,0,0,4.07-9.93c.7-2.15.63-7.27,2.74-5.26.94,12.58-7.73,23.7-16.38,32-2.16,2.07-4.55,4.11-5.65,7-1.69,5.48-1.39,11.38-.89,17a49.29,49.29,0,0,1-.27,11.83c-.45,3.36-1.46,6.65-1.4,10.06.09,4.94,1.93,9.74,1.37,14.7-.38,4.37-1.92,8.58-2.41,12.92-.5,6.11,1.88,11.91,2.27,18,1.31,9-3.45,17.69-1.8,26.64,1,5.19,2.34,10.37,1.87,15.72-.9,8.81-3.15,17.64-3.18,26.47.21,2.33.6,5.11,2.55,6.62,3.16,2,6.88,2.86,10.43,3.85,15.54,4.22,32.54,1.34,46.72-5.84.18-2.69-.83-5.35-1.29-8A118.55,118.55,0,0,1,182.46,174c-.33-5.12,1.07-10.52,1-15.56-.58-10.25-2.83-16.46,1.71-26.53,2-4.49,2.09-9.4,3.12-14.11,1.82-6.1,6.24-11.1,7.74-17.32,1.37-5.58.28-11.15.61-16.73.26-4,1.36-8.35,1.18-12.36a65.51,65.51,0,0,0-2-13.27c-.54-2.56-1.41-5-2-7.59a1.29,1.29,0,0,1,.84-1.34,1.32,1.32,0,0,1,1.61.61c.77,1.73,1.23,3.59,1.83,5.39A54.12,54.12,0,0,1,201,72.69c0,4.29-1.31,8.15-1.11,12.4.34,6.08,1.29,12.36-.92,18.22-1.84,5.55-5.76,10.18-7.34,15.82-.56,2.24-.46,4.4-.91,6.63-1.22,6.44-5.17,12.25-4.8,19,.26,5.54,1.52,11,.92,16.61-1.49,8.43-1,17.09.52,25.37q.5,3,1.14,5.95c.53,3.3,2.49,7.46-.09,10.3C179.58,209.4,162.49,212.75,151.72,212.23Z"/><path d="M121,234.81a159.6,159.6,0,0,1-49.82-8.43c-5.07-2.13-11.11-3.52-14.82-7.83-1.41-2-.21-4.51.3-6.61.66-1.35,1.88-6.7,4-5.19.64.54.42,1.53.3,2.25a40.3,40.3,0,0,1-2.12,7.67c1.88,2.08,5,3.12,7.36,4.2a140.25,140.25,0,0,0,31,8.35c28.68,4.74,58.88.12,84.52-13.62a38.83,38.83,0,0,0-3.32-8c-.73-1.1-1-2.81.43-3.48,3-1.1,3.36,3.69,4.49,5.47,1.16,2.89,3.77,7.66-.27,9.4a130.39,130.39,0,0,1-62.26,15.86Z"/><path d="M107.8,224.78c-14.27-1.13-28.83-3.14-42.17-8.51-2.57-1.13-5.36-2.16-7.43-4.05a.86.86,0,1,1,1.6-.62c15.58,8.42,34.9,10.72,52.36,11.81,22.61,1.17,46-2,66.06-12.8.92-.41,2-1.75,2.9-.59a1.06,1.06,0,0,1-.3,1.45,57.74,57.74,0,0,1-5.82,2.95C154.13,224.26,130.59,226.51,107.8,224.78Z"/><path d="M137.58,116.12a174,174,0,0,1,18.59-54.84c.82-1.74,2.15-.87,2.87.44a80.05,80.05,0,0,1,7.15,14.5,232.43,232.43,0,0,1,9,28.37,15.47,15.47,0,0,1,.68,4,.72.72,0,0,1-.5.76c-.71.17-.88-.57-1.1-1.07-1.52-3.85-2.07-8.07-3.36-12-3.57-11.5-7.12-23.26-13.41-33.6a197.7,197.7,0,0,0-16.75,47c-.32,2.08-1,4.18-.94,6.28A1.12,1.12,0,0,1,137.58,116.12Z"/><path d="M134.83,121.47a1.58,1.58,0,0,1-1.28-1,17.31,17.31,0,0,1-.72-4.72,1.2,1.2,0,0,1,.62-.86A20.14,20.14,0,0,1,138,113c.67-.23,1.8,0,1.57.9-1.16,1.35-3.25,1.6-4.81,2.4.25,1,.46,2,.71,3,4.89-.64,9.6-1.6,14.4-2.69-.13-10-.26-20.07.67-30.09.53-2.25,2.78-3.55,4.34-5.07,1.57-1.18,2.93-2.86,4.76-3.61,2.51-.28,2.59,8.67,3.07,10.62,1.09,8.77,2.16,17.54,3.27,26.31a1.14,1.14,0,0,1-2.27.23c-.47-4-.87-8.08-1.32-12.11-1-7.66-1.46-15.44-2.9-23-2.29,2.3-5.18,4.08-7.09,6.71-.22,2.06-.07,4.15-.19,6.23-.4,8,.07,16.13,0,24.1,0,2.1-2.33,2.14-3.81,2.41C143.9,120,139.42,121.57,134.83,121.47Z"/><path d="M156.42,119.6c-.33-.73.33-1.35.78-1.85.69-.75,1.42-1.46,2.14-2.19.93-.82,4.53-5,5.44-2.83a.77.77,0,0,1-.61.87c-2,.88-3,2.87-4.55,4.33,5.9-1.25,12-1.48,17.91-2.47.6-.38.45-1.41.71-2,.48-2,1.1-3.93,1.53-5.93-1.61.32-3.25.65-4.79,1.09a.91.91,0,1,1,.24-1.81c8.88-2.65,6.13.29,4.75,6.78-.42,1.22-.38,3-1.86,3.44-3,.86-6.1.88-9.14,1.36s-6.11,1-9.16,1.5C158.73,119.9,157.13,120.77,156.42,119.6Z"/><path d="M150,99.82a.9.9,0,0,1,.89-1.25,65,65,0,0,1,11.57-2.72.75.75,0,0,1,.34,1.46,95.24,95.24,0,0,1-9.31,2.33c-.71.17-1.41.31-2.11.52A.91.91,0,0,1,150,99.82Z"/><path d="M150.22,105.14c-.51-1.59,9.44-3.23,10.91-3.56,1.12,0,3.39-1.31,3.83.23a.92.92,0,0,1-.75,1c-2.48.36-4.91,1-7.38,1.48-2,.41-4,.86-6,1.29A.67.67,0,0,1,150.22,105.14Z"/><path class="cls-3" d="M103.29,52.13a5.92,5.92,0,0,1,.87-2.33,2,2,0,0,1,2.18-.84,2.66,2.66,0,0,1,1.39,2.26,4.71,4.71,0,0,1-.12,2.33A2.24,2.24,0,0,1,105.92,55a2.22,2.22,0,0,1-2.16-1.33C103.37,52.89,103.39,51.93,103.29,52.13Z"/><path d="M105.27,55.61A2.52,2.52,0,0,1,104,55a3.28,3.28,0,0,1-.87-1.3,4.63,4.63,0,0,1-.19-2.73,3.83,3.83,0,0,1,1.57-2.42,2.38,2.38,0,0,1,1.32-.37,2.3,2.3,0,0,1,1.31.47,3.47,3.47,0,0,1,1.23,2.13,5.28,5.28,0,0,1-.82,3.8,2.7,2.7,0,0,1-.84.74,2.28,2.28,0,0,1-1.11.3A1.67,1.67,0,0,1,105.27,55.61Zm.4-1.07h.14l.23,0,.15-.06.18-.08.2-.14,0,0h0a1.17,1.17,0,0,0,.16-.15l0,0h0l.17-.19.2-.3c.08-.14.14-.27.19-.38a3,3,0,0,0,.14-.43c0-.14.06-.27.09-.4v0h0v-.09a1,1,0,0,1,0-.17c0-.21,0-.42,0-.62a3.4,3.4,0,0,0-.09-.46c0-.14-.09-.27-.14-.41a2.23,2.23,0,0,0-.19-.38l-.16-.24h0a2.09,2.09,0,0,0-.2-.22l-.14-.13,0,0h0l-.11-.07-.18-.1-.16,0-.18,0h-.28l-.17,0-.13,0-.19.09-.16.11-.22.2h0l-.19.22c0,.09-.11.17-.16.25a3.26,3.26,0,0,0-.18.38l-.12.33a4.94,4.94,0,0,0-.1.53,4.38,4.38,0,0,0,0,.51,3.25,3.25,0,0,0,0,.44h0a3.71,3.71,0,0,0,.11.58,3.52,3.52,0,0,0,.15.42l.12.23a3.28,3.28,0,0,0,.2.31l.2.22.12.1.15.1.15.08.17,0,.14,0Z"/><path class="cls-3" d="M103,81.77a6,6,0,0,1,.88-2.32,2,2,0,0,1,2.18-.84,2.67,2.67,0,0,1,1.39,2.26,4.71,4.71,0,0,1-.13,2.33,2.25,2.25,0,0,1-1.68,1.48,2.21,2.21,0,0,1-2.16-1.33C103.07,82.54,103.08,81.58,103,81.77Z"/><path d="M105,85.26a2.5,2.5,0,0,1-1.29-.61,3.1,3.1,0,0,1-.88-1.29,4.72,4.72,0,0,1-.19-2.73,3.89,3.89,0,0,1,1.57-2.42,2.31,2.31,0,0,1,1.33-.37,2.22,2.22,0,0,1,1.3.47A3.44,3.44,0,0,1,108,80.44a4.35,4.35,0,0,1,0,1.44,4.4,4.4,0,0,1-.86,2.35,2.7,2.7,0,0,1-.83.75,2.32,2.32,0,0,1-1.12.3Zm.39-1.08h.14l.23-.05.16,0,.17-.08.21-.14,0,0h0l.17-.14,0,0h0l.17-.19.2-.3a4.11,4.11,0,0,0,.18-.38c.06-.15.11-.3.15-.43s.06-.27.08-.4v0h0v-.09a1,1,0,0,0,0-.17c0-.21,0-.42,0-.63a3.63,3.63,0,0,0-.1-.45,2,2,0,0,0-.14-.41,2.78,2.78,0,0,0-.18-.38c-.06-.08-.11-.17-.17-.24h0l-.19-.23-.14-.12,0,0h0l-.11-.07L106,79l-.16-.06-.18,0h-.27l-.18,0-.13,0-.18.09-.16.11-.23.2h0l-.2.22-.16.25c-.06.12-.13.25-.18.38s-.08.22-.11.33a4.52,4.52,0,0,0-.11.53,4.36,4.36,0,0,0,0,.51c0,.15,0,.29,0,.44h0a3.71,3.71,0,0,0,.11.58l.15.41.12.24c.07.1.13.2.21.3a2,2,0,0,0,.19.22l.12.11.16.1.15.08.16.05.15,0Z"/><path class="cls-3" d="M106.1,113.31A6.09,6.09,0,0,1,107,111a2,2,0,0,1,2.18-.84,2.68,2.68,0,0,1,1.39,2.26,4.6,4.6,0,0,1-.13,2.33,2,2,0,0,1-3.84.15C106.19,114.07,106.21,113.11,106.1,113.31Z"/><path d="M108.09,116.79a2.49,2.49,0,0,1-1.29-.6,3.3,3.3,0,0,1-.88-1.3,4.71,4.71,0,0,1-.19-2.73,3.91,3.91,0,0,1,1.57-2.42,2.39,2.39,0,0,1,1.33-.37,2.29,2.29,0,0,1,1.3.47,3.47,3.47,0,0,1,1.23,2.13,4.1,4.1,0,0,1,0,1.44,4.46,4.46,0,0,1-.86,2.36,2.67,2.67,0,0,1-.83.74,2.31,2.31,0,0,1-1.11.3A1.56,1.56,0,0,1,108.09,116.79Zm.39-1.07h.15l.23,0,.15-.06.17-.08.21-.14,0,0h0l.17-.15,0,0h0l.17-.19c.07-.1.14-.2.2-.3l.19-.38.14-.43c0-.14.06-.27.08-.4v0h0v-.26a4.21,4.21,0,0,0,0-.62,3.41,3.41,0,0,0-.1-.46,3.24,3.24,0,0,0-.13-.41c-.07-.15-.14-.29-.19-.38l-.17-.24h0l-.2-.22-.14-.13,0,0a0,0,0,0,1,0,0l-.11-.07-.19-.1-.16-.05-.18,0h-.27l-.18,0-.13,0-.18.09-.16.11-.22.2h0c-.07.07-.13.15-.19.22l-.16.25c-.07.13-.13.25-.19.38s-.08.22-.11.33-.08.35-.11.53a4.36,4.36,0,0,0,0,.51c0,.15,0,.29,0,.44h0a5.4,5.4,0,0,0,.11.58c0,.14.1.28.16.42l.11.23.21.31.2.22.12.1.15.1.15.08.17.05.14,0Z"/><path class="cls-3" d="M106.1,150.81a6,6,0,0,1,.88-2.32,2,2,0,0,1,2.18-.84,2.67,2.67,0,0,1,1.39,2.26,4.56,4.56,0,0,1-.13,2.32,2,2,0,0,1-3.84.16C106.19,151.57,106.21,150.62,106.1,150.81Z"/><path d="M108.09,154.3a2.58,2.58,0,0,1-1.29-.61,3.27,3.27,0,0,1-.88-1.29,4.72,4.72,0,0,1-.19-2.73,3.89,3.89,0,0,1,1.57-2.42,2.4,2.4,0,0,1,1.33-.38,2.3,2.3,0,0,1,1.3.48,3.44,3.44,0,0,1,1.23,2.13,4.1,4.1,0,0,1,0,1.44,4.43,4.43,0,0,1-.86,2.35,2.7,2.7,0,0,1-.83.75,2.31,2.31,0,0,1-1.11.3Zm.39-1.08h.15l.23-.05.15,0,.17-.09.21-.13,0,0h0l.17-.14,0,0h0a2.3,2.3,0,0,0,.17-.2,2.23,2.23,0,0,0,.2-.3c.07-.13.14-.27.19-.38l.14-.43c0-.13.06-.26.08-.39v0h0v-.26a4.44,4.44,0,0,0,0-.63,3.63,3.63,0,0,0-.1-.45,3.38,3.38,0,0,0-.13-.42c-.07-.14-.14-.29-.19-.37a2.2,2.2,0,0,0-.17-.25h0c-.07-.08-.13-.16-.2-.23l-.14-.12,0,0h0l-.11-.08-.19-.09L109,148l-.18,0h-.27l-.18,0-.13,0-.18.09-.16.11a2.09,2.09,0,0,0-.22.2h0l-.19.23a2.13,2.13,0,0,0-.16.25c-.07.12-.13.25-.19.38s-.08.22-.11.33-.08.35-.11.52a4.41,4.41,0,0,0,0,.52c0,.14,0,.29,0,.44h0c0,.19.06.39.11.58s.1.27.16.41a1.63,1.63,0,0,0,.11.23l.21.31a2.09,2.09,0,0,0,.2.22.63.63,0,0,0,.12.1l.15.11.15.07.17.06.14,0Z"/><path class="cls-3" d="M108.1,190.31A5.87,5.87,0,0,1,109,188a2,2,0,0,1,2.19-.84,2.67,2.67,0,0,1,1.39,2.26,4.79,4.79,0,0,1-.13,2.32,2,2,0,0,1-3.85.16C108.19,191.07,108.2,190.12,108.1,190.31Z"/><path d="M110.09,193.8a2.58,2.58,0,0,1-1.29-.61,3.17,3.17,0,0,1-.88-1.29,4.72,4.72,0,0,1-.19-2.73,3.89,3.89,0,0,1,1.57-2.42,2.4,2.4,0,0,1,1.33-.38,2.3,2.3,0,0,1,1.3.48,3.44,3.44,0,0,1,1.23,2.13,5.25,5.25,0,0,1-.82,3.79,2.63,2.63,0,0,1-.84.75,2.28,2.28,0,0,1-1.11.3Zm.39-1.08h.14l.23-.05.15,0,.18-.09.21-.13,0,0h0l.17-.14,0,0h0l.17-.2a2.23,2.23,0,0,0,.2-.3c.07-.13.13-.27.18-.38s.11-.3.15-.43.06-.26.08-.39v0h0v-.09c0-.06,0-.12,0-.17,0-.21,0-.42,0-.63s-.06-.3-.1-.45a3.45,3.45,0,0,0-.14-.42,3.24,3.24,0,0,0-.18-.37l-.17-.25h0a2.2,2.2,0,0,0-.2-.23l-.14-.12,0,0h0l-.11-.08-.19-.09-.16-.06-.18,0h-.27l-.18,0-.13,0-.18.09-.17.11-.22.2h0l-.19.23-.16.25a2.64,2.64,0,0,0-.18.38c0,.11-.08.22-.11.33a4.82,4.82,0,0,0-.11.52c0,.17,0,.34,0,.52s0,.29,0,.44h0a4,4,0,0,0,.11.58l.15.41.12.23a2.11,2.11,0,0,0,.21.31,2,2,0,0,0,.19.22l.12.1a.91.91,0,0,0,.16.11.61.61,0,0,0,.14.07l.17.06.15,0Z"/></g></g></g></g></g></svg>