<svg xmlns="http://www.w3.org/2000/svg" viewBox="0 0 224.28 352.05"><defs><style>.cls-1{isolation:isolate;}.cls-2{fill:#e33d43;}.cls-3{fill:#cca39d;mix-blend-mode:multiply;opacity:0.61;}.cls-4,.cls-5{fill:none;stroke:#000;stroke-linecap:round;stroke-linejoin:round;}.cls-4{stroke-width:5px;}.cls-5{stroke-width:4px;}.cls-6{fill:#fff;}</style></defs><g class="cls-1"><g id="Layer_2" data-name="Layer 2"><g id="Layer_144" data-name="Layer 144"><g id="Layer_134" data-name="Layer 134"><g id="Layer_137" data-name="Layer 137"><path class="cls-2" d="M21.1,17.11c-1.21-3.72,1.65-7.93,5.4-9s7.9.28,11,2.7,5.3,5.73,7.47,9C49.85,27.13,54.8,34.6,57.71,43c4.46,12.84,3.79,27,.74,40.24S50.09,109,45.31,121.77a114.57,114.57,0,0,0-5.83,19.29c-1.47,8-1.4,16.22-1.65,24.37a299.94,299.94,0,0,1-4.07,40.79,66.26,66.26,0,0,0-21.95,4c-4.63-8.49-6.11-18.2-7.88-27.7-2.64-14.2-2.15-28.32-1.66-42.75.5-14.68-.69-29.38,1.08-43.95,1.3-10.73,3.28-21.37,4.5-32.11,1.38-12.11,1.82-24.46,5.5-36.08C14.88,22.77,17,18,21.1,17.11Z"/></g><path d="M11.41,211.48c-3.47-1.11-4.95-8.34-6-11.54C-2,171.08,0,141,1,111.47c1.67-30.35,3-61.53,14-90.23,2.41-5.41,6.3-14.11,11.7-16.76.84-.32,2.06,0,2.16,1,0,1.66-1.5,3-2.28,4.32a75.88,75.88,0,0,0-8.69,17.25C7.89,56.79,7.1,88.34,5.7,119.31c-.6,29.23-2.89,59.74,7,87.61,2.4-.27,4.63-1.06,7-1.54a50.3,50.3,0,0,1,12.07-.66c1.94-11.65.9-23.61,1.8-35.37v.09a214.22,214.22,0,0,1,9.88-50.37c9.94-27.76,19.19-51.6,9.29-81.15A65.93,65.93,0,0,0,39.8,16.08a29.86,29.86,0,0,0-4.07-3.88c-1.16-.83-2.66-2.1-1.75-3.66,2.58-3.84,8.82,5.11,10.67,6.93,11.06,12.69,16.6,29.47,17.08,46.16.61,14.35-3.17,28.5-7.79,42-3.82,10.87-8.32,21.83-10.6,33.11a280.47,280.47,0,0,0-4.72,32.24c-.55,8.38-.53,16.78-1.12,25.16-.56,4.43-.17,9.24-2,13.36-1.67,2.95-5.42,1.45-8.16,1.91a76.36,76.36,0,0,0-9.14,1.38C16,211.15,13.68,212,11.41,211.48Z"/></g><g id="Layer_134_copy" data-name="Layer 134 copy"><g id="Layer_137_copy" data-name="Layer 137 copy"><path class="cls-2" d="M203.18,17.11c1.22-3.72-1.65-7.93-5.4-9s-7.9.28-11,2.7-5.3,5.73-7.47,9c-4.9,7.37-9.85,14.84-12.76,23.2-4.46,12.84-3.79,27-.74,40.24S174.19,109,179,121.77a114.57,114.57,0,0,1,5.83,19.29c1.47,8,1.4,16.22,1.65,24.37a299.94,299.94,0,0,0,4.07,40.79,66.26,66.26,0,0,1,21.95,4c4.63-8.49,6.11-18.2,7.88-27.7,2.64-14.2,2.15-28.32,1.66-42.75-.5-14.68.69-29.38-1.08-43.95-1.3-10.73-3.28-21.37-4.5-32.11-1.38-12.11-1.82-24.46-5.5-36.08C209.4,22.77,207.26,18,203.18,17.11Z"/></g><path d="M212.87,211.48c3.47-1.11,4.95-8.34,6-11.54,7.43-28.86,5.42-59,4.49-88.47-1.67-30.35-3-61.53-14-90.23-2.41-5.41-6.3-14.11-11.7-16.76-.84-.32-2.06,0-2.16,1,0,1.66,1.5,3,2.28,4.32a75.88,75.88,0,0,1,8.69,17.25c9.93,29.7,10.72,61.25,12.12,92.22.6,29.23,2.89,59.74-7,87.61-2.4-.27-4.63-1.06-7-1.54a50.3,50.3,0,0,0-12.07-.66c-1.94-11.65-.9-23.61-1.8-35.37v.09a214.22,214.22,0,0,0-9.88-50.37c-9.94-27.76-19.19-51.6-9.29-81.15a65.93,65.93,0,0,1,12.93-21.84,29.86,29.86,0,0,1,4.07-3.88c1.16-.83,2.66-2.1,1.75-3.66-2.58-3.84-8.82,5.11-10.67,6.93C168.57,28.16,163,44.94,162.55,61.63c-.6,14.35,3.17,28.5,7.79,42,3.82,10.87,8.32,21.83,10.6,33.11a280.47,280.47,0,0,1,4.72,32.24c.55,8.38.53,16.78,1.12,25.16.56,4.43.17,9.24,2,13.36,1.67,2.95,5.42,1.45,8.16,1.91a76.36,76.36,0,0,1,9.14,1.38C208.32,211.15,210.6,212,212.87,211.48Z"/></g><g id="Layer_73_copy" data-name="Layer 73 copy"><g id="Layer_136_copy" data-name="Layer 136 copy"><path class="cls-2" d="M189.21,1.73a57.51,57.51,0,0,1,13.37,10c-1.45,10.05-3.15,16.1-8.16,23.56-.67,1-3.93,3.06-4.19,4.24-.32,1.5-2.34,2.36-1.93,3.84,3,10.93,2.93,17.7.65,28.82s-5.72,16.69-14.74,23.57a41.15,41.15,0,0,0-6.22,6.89c-1.31,1.91-2.52,8.57-2.93,10.85-1.14,6.33-.21,15.88-.25,22.31-.06,10.52,2.84,20.82,4.09,31.26a4,4,0,0,1-.23,2.41,4.07,4.07,0,0,1-2.23,1.52c-9.92,3.81-20.59,7.68-30.92,5.21-1.72-8.64-3.48-17.35-7.05-25.4s-9.16-15.49-16.92-19.65c-12.16,10.32-15.16,27.48-20.82,42.4a7.15,7.15,0,0,1-1.63,2.83c-1.81,1.66-4.66,1.12-7,.48L56.52,169.9c1.72-17.05,3.15-36,1.4-53.08-.12-1.22-.71-13.47-1.27-14.55a56,56,0,0,0-7.08-8.45c-11.2-8.7-9.35-15.91-12.94-29.63-1.6-6.16.72-11.69.94-18,.2-6-.79.25.14-.94-3-6.52-7.52-12.22-10-17.06-1.84-3.61-3.61-11.56-5.34-17.59a66.06,66.06,0,0,1,11-8.11,3.35,3.35,0,0,1,2.29-.65A3.32,3.32,0,0,1,37.5,3.36C41.94,9.76,45.15,17,50.34,22.87a73.83,73.83,0,0,0,8.89,8.05c16.51,13.4,33.31,27,52.93,35.15A188.91,188.91,0,0,0,189.21,1.73Z"/></g><g id="Layer_170_copy" data-name="Layer 170 copy"><path class="cls-3" d="M40.57,80.41c5.28,7.86,13.59,13,22.36,15.43s18,2.22,27,.9,18.85-3.74,27.2.42c-22.84,0-33.79,6.52-45.1,8.39-3.46.57-10.54,1.24-14,.31-1.11-.3-1.16-3.71-2-4.53C48.57,93.85,46.41,95,40.57,80.41Z"/><path class="cls-3" d="M187.67,68.53C186.77,79,179.4,88,170.55,92.65s-19,5.75-28.86,5.79c-7.27,0-14.89-.35-21.43,3,14.25-1.61,31.17,2,45.47,3,2.42.16-1.17.14,1.14-.66,2.8-1,4.29-5,6.34-7.21C181.07,87.94,188.6,81.89,187.67,68.53Z"/></g><path d="M22,12c-2.07-1.72.18-3.91,1.58-5.2A24.35,24.35,0,0,1,32.8,1.05c1.4-.52,4.54-1.63,4.6.8-.08.72-.74,1.15-1.29,1.51-1.36.88-3.11,2-4.3,2.8a42,42,0,0,0-5.95,4.68C24.93,12,23.38,13.17,22,12Z"/><path d="M119.54,79.4c-.16-3.83-.31-7.4-.6-11.27.21-2.29-2.45-4.25-4.38-2.72-1.37,1-1.15,2.69-1,4.17.3,4.58.5,9.25.65,13.91.33,10.26.09,20.54-.06,30.8-.16,4.26.07,8.6-.66,12.81-5.32,2.7-9.28,7.36-12.53,12.27-7.35,10.36-10.33,23.5-15.07,35.18-3.88-.05-7.7-1-11.5-1.69-5-1.17-10.31-2.1-15-4.47-.78-.42-.23-1.33-.17-2a2.51,2.51,0,0,1,0-.27c-1.18.15-2.35.31-3.53.45l-.62.36a8.24,8.24,0,0,0-1,.86c.07,4.34,5.07,6.22,8.93,7.35a106.39,106.39,0,0,0,21.32,4.32c5.72,1.46,7.1-5.26,8.58-9.29a173.39,173.39,0,0,1,7.62-19c3.19-6.1,6.78-12.13,11.83-16.9a11.86,11.86,0,0,1,4.22-2.61,4.58,4.58,0,0,0,2.08-3.59c.43-6,.41-12,.82-17.93Q120.23,94.77,119.54,79.4Z"/><path d="M57.6,150.5c.55-1.67,1.13-3.33,1.66-5a1.33,1.33,0,0,1,.4-.6,45.46,45.46,0,0,0,.62-4.93c.43-5.56.52-11.14.52-16.72A166.12,166.12,0,0,0,59.88,106c-.24-2.69-1-5.43-3-7.28A56.26,56.26,0,0,1,38.35,60.44,61.23,61.23,0,0,1,41,38.61c.19-.54.41-1.58-.47-1.46C36.93,40.43,36,48.11,35.36,53,34,67.78,38,83.66,48.05,94.45c8.17,8.72,8.46,5.86,8.63,19,.39,10.58-.33,21.16-1,31.71A4.81,4.81,0,0,0,57.6,150.5Z"/><path class="cls-4" d="M59.19,131.45c-2.17,14.52-.7,24.19-2.54,36.43"/><path class="cls-5" d="M166.87,140.76c1.09,11.14,1.88,18.89,2.24,29.4"/><path d="M113.58,68.62c-13-2.71-24.18-11-34.93-18.5-17-12.52-32.57-27-42.82-45.58a21.3,21.3,0,0,0-6.34,2.23A1.29,1.29,0,0,1,28.1,4.68c2.57-2.14,8.54-7.21,11.29-3.15C50.88,20.35,66.89,36,84.91,48.47a158,158,0,0,0,19.87,12.15,77,77,0,0,0,7.78,3.32c2,.84,4.44.85,6.08,2.28C120,69.18,115.34,69,113.58,68.62Z"/><path d="M110.38,66.77a1.61,1.61,0,0,1-1.51-1.49c0-2.25,3.5-2.64,5.08-3.53a160.86,160.86,0,0,0,17.14-8.53c20.49-12.18,37.76-29.45,52.46-48,1.26-1.51,2.09-3.37,3.64-4.62a2.22,2.22,0,0,1,3.6,2.07c-.61,3.27-3.36,5.68-5.23,8.3-2.36,2.89-4.78,5.73-7.22,8.56C160.07,39.83,137.68,60.43,110.38,66.77Z"/><path d="M201,14.81A107.79,107.79,0,0,0,188.13,4.36c-1.25-.81-2.27-2.67-.79-3.76,3.93-2.42,14.38,8.05,16.89,11.11A2.32,2.32,0,0,1,201,14.81Z"/><path d="M167,154.1c-1.22-.82-1-2.46-1.21-3.72-.28-2.48-.46-5-.64-7.46-.44-5.43-1.18-10.85-1.67-16.28-.59-8.8-2.44-24,6-29.68a47.71,47.71,0,0,0,16.88-24.07,50.33,50.33,0,0,0,.6-25.67,63,63,0,0,0-2-6.29c-.28-.48-.46-1.35.34-1.42s1.09.73,1.47,1.2a24,24,0,0,1,2.86,5.76c2.87,8.42,2.79,17.61.87,26.22s-6.78,16.19-12.93,22.45c-2.23,2.37-5,4.24-7.17,6.59-2.93,4-2.95,9.27-3.22,14a146.26,146.26,0,0,0,1,16.33c.49,5.21.69,10.44,1.33,15.64.1,1.75.6,3.43.54,5.17A2.06,2.06,0,0,1,167,154.1Z"/><path d="M137.81,178.65c-2.56.08-5.71-.36-5.72-3.57,0-3.8-1.33-7.49-2.42-11.1-3.56-10.27-8.32-20.41-15.28-28.7-.9-1.4-3.83-2.85-2.42-4.71,2.41-1.76,6.74,3.37,8.28,5,8.95,10.86,14.13,24.62,16.59,38.38,7.68.62,15.08-.67,22.52-2,2.67-.57,5.55-1.13,7.8-2.74,1.2-1.14,2.79-.95,3.19.79,0-.05,0-.1,0-.16C173.21,176.34,142.14,178.85,137.81,178.65Z"/></g><g id="Layer_73_copy_2" data-name="Layer 73 copy 2"><g id="Layer_136_copy_2" data-name="Layer 136 copy 2"><path class="cls-2" d="M189.21,1.73a57.51,57.51,0,0,1,13.37,10c.65,14.2.07,26.1-4.94,33.56-.67,1-1.48.56-1.73,1.74-.32,1.5-.41-2.14,0-.66,3,10.93,6.07,16.2,3.79,27.32s-6.56,21.69-15.58,28.57c-1.76,1.34-9.39,8.07-10.63,9.89s-3.54,3.6-4.38,5.35a50.54,50.54,0,0,0-4.3,18.31c-.06,10.52,2.84,20.82,4.09,31.26a4,4,0,0,1-.23,2.41,4.07,4.07,0,0,1-2.23,1.52c-9.92,3.81-20.59,7.68-30.92,5.21-1.72-8.64-3.48-17.35-7.05-25.4s-9.16-15.49-16.92-19.65c-12.16,10.32-15.16,27.48-20.82,42.4a7.15,7.15,0,0,1-1.63,2.83c-1.81,1.66-4.66,1.12-7,.48L56.52,169.9c1.72-17.05,1.89-29,.13-46.08-.12-1.22-2-5.58-2.1-6.8,0-1.52-2.9-5.32-4.23-6.35C39.12,102,32.85,98.91,29.26,85.19c-1.6-6.16-4.91-16.69-4.69-23,.2-6,2.73-15.41,2.89-15.94a44.87,44.87,0,0,1-4.3-17.31c-.1-4.59.95-12.31-.78-18.34a66.06,66.06,0,0,1,11-8.11,3.35,3.35,0,0,1,2.29-.65A3.32,3.32,0,0,1,37.5,3.36C41.94,9.76,45.15,17,50.34,22.87a73.83,73.83,0,0,0,8.89,8.05c16.51,13.4,33.31,27,52.93,35.15A188.91,188.91,0,0,0,189.21,1.73Z"/></g><g id="Layer_170_copy_2" data-name="Layer 170 copy 2"><path class="cls-3" d="M31.41,80.41c6,7.86,15.35,13,25.25,15.43s20.35,2.22,30.48.9c10.3-1.34,21.29-3.74,30.7.42-17.2,2-34.86,5.21-49.22,14.39-3.34,2.14-7.09,4.71-11,3.77a11.68,11.68,0,0,1-3.46-1.63C44.53,107.58,37.41,98,31.41,80.41Z"/><path class="cls-3" d="M197.48,68.53c-1,10.49-9.33,19.44-19.32,24.12s-21.43,5.75-32.58,5.79c-8.21,0-16.81-.35-24.19,3,16.09-1.61,31.6,6.11,47.74,7.07a23.17,23.17,0,0,0,8.14-.68,20.72,20.72,0,0,0,8.16-5.27C194.3,94,198.54,81.89,197.48,68.53Z"/></g><path d="M22,12c-2.07-1.72.18-3.91,1.58-5.2A24.35,24.35,0,0,1,32.8,1.05c1.4-.52,4.54-1.63,4.6.8-.08.72-.74,1.15-1.29,1.51-1.36.88-3.11,2-4.3,2.8a42,42,0,0,0-5.95,4.68C24.93,12,23.38,13.17,22,12Z"/><path d="M119.54,79.4c-.16-3.83-.31-7.4-.6-11.27.21-2.29-2.45-4.25-4.38-2.72-1.37,1-1.15,2.69-1,4.17.3,4.58.5,9.25.65,13.91.33,10.26.09,20.54-.06,30.8-.16,4.26.07,8.6-.66,12.81-5.32,2.7-9.28,7.36-12.53,12.27-7.35,10.36-10.33,23.5-15.07,35.18-3.88-.05-7.7-1-11.5-1.69-5-1.17-10.31-2.1-15-4.47-.78-.42-.23-1.33-.17-2a2.51,2.51,0,0,1,0-.27c-1.18.15-2.35.31-3.53.45l-.62.36a8.24,8.24,0,0,0-1,.86c.07,4.34,5.07,6.22,8.93,7.35a106.39,106.39,0,0,0,21.32,4.32c5.72,1.46,7.1-5.26,8.58-9.29a173.39,173.39,0,0,1,7.62-19c3.19-6.1,6.78-12.13,11.83-16.9a11.86,11.86,0,0,1,4.22-2.61,4.58,4.58,0,0,0,2.08-3.59c.43-6,.41-12,.82-17.93Q120.23,94.77,119.54,79.4Z"/><path d="M54.63,129.42c.54,11.82.87,25.08-.08,36.87a5.31,5.31,0,0,1,.23.55c.1.48-.25.25-.11.57-.05-.12-.11.2-.12.19s-.15-.06-.08.05-.06,0,.08.19A7.22,7.22,0,0,0,56.41,170a6.8,6.8,0,0,0,1,.7c.36-.87.72-1.74,1.06-2.61a1.63,1.63,0,0,1,.61-.72,47.49,47.49,0,0,0,.92-6c.65-6.72.78-13.47.78-20.21a162.11,162.11,0,0,0-1.38-20.88c-.36-3.25-1.52-6.56-4.48-8.8C39,99.92,28.48,83.21,27.21,65.3a61.14,61.14,0,0,1,4-26.39c.29-.65.61-1.91-.69-1.76-5.41,4-6.87,13.25-7.75,19.14-2,17.89,3.95,37.08,19,50.12C54,117,54.39,113.49,54.63,129.42Z"/><path class="cls-4" d="M57.4,131c.33,9.62,1.09,24.69-.75,36.93"/><path class="cls-5" d="M166.87,140.76c1.09,11.14,1.88,18.89,2.24,29.4"/><path d="M113.58,68.62c-13-2.71-24.18-11-34.93-18.5-17-12.52-32.57-27-42.82-45.58a21.3,21.3,0,0,0-6.34,2.23A1.29,1.29,0,0,1,28.1,4.68c2.57-2.14,8.54-7.21,11.29-3.15C50.88,20.35,66.89,36,84.91,48.47a158,158,0,0,0,19.87,12.15,77,77,0,0,0,7.78,3.32c2,.84,4.44.85,6.08,2.28C120,69.18,115.34,69,113.58,68.62Z"/><path d="M110.38,66.77a1.61,1.61,0,0,1-1.51-1.49c0-2.25,3.5-2.64,5.08-3.53a160.86,160.86,0,0,0,17.14-8.53c20.49-12.18,37.76-29.45,52.46-48,1.26-1.51,2.09-3.37,3.64-4.62a2.22,2.22,0,0,1,3.6,2.07c-.61,3.27-3.36,5.68-5.23,8.3-2.36,2.89-4.78,5.73-7.22,8.56C160.07,39.83,137.68,60.43,110.38,66.77Z"/><path d="M201,14.81A107.79,107.79,0,0,0,188.13,4.36c-1.25-.81-2.27-2.67-.79-3.76,3.93-2.42,14.38,8.05,16.89,11.11A2.32,2.32,0,0,1,201,14.81Z"/><path d="M199.51,48a27.89,27.89,0,0,0-3.92-7c-.53-.59-1.05-1.46-2-1.47s-.84,1.14-.47,1.74a66,66,0,0,1,2.76,7.66,54.89,54.89,0,0,1-.82,31.3c-3.84,11.62-12.22,21.9-23.13,29.35-11.59,6.86-9.06,25.46-8.26,36.19.68,6.63,1.68,13.23,2.3,19.85.22,2.85.46,5.7.81,8.55a10,10,0,0,0,3.56-1.86,6.37,6.37,0,0,0,1.54-2c-.76-6-1.05-12-1.68-17.94-.71-6.63-1.55-13.26-1.42-19.92.37-5.78.39-12.19,4.4-17.08,3-2.87,6.77-5.15,9.82-8,8.43-7.64,15.08-17,17.72-27.38S203.44,58.26,199.51,48Z"/><path d="M137.81,178.65c-2.56.08-5.71-.36-5.72-3.57,0-3.8-1.33-7.49-2.42-11.1-3.56-10.27-8.32-20.41-15.28-28.7-.9-1.4-3.83-2.85-2.42-4.71,2.41-1.76,6.74,3.37,8.28,5,8.95,10.86,14.13,24.62,16.59,38.38,7.68.62,15.08-.67,22.52-2,2.67-.57,5.55-1.13,7.8-2.74,1.2-1.14,2.79-.95,3.19.79,0-.05,0-.1,0-.16C173.21,176.34,142.14,178.85,137.81,178.65Z"/></g><g id="Layer_133" data-name="Layer 133"><g id="Layer_135" data-name="Layer 135"><path class="cls-6" d="M53.09,190.85c-7.25,21.34-9.77,44-12.25,66.35-.78,7.1-1.57,14.22-1.9,21.36a167.34,167.34,0,0,0,6.32,53.78,13,13,0,0,0,2.61,5.5c1.8,1.92,4.52,2.62,7.09,3.19,38.37,8.46,78.41,7.05,117.14.47,2.19-.38,4.54-.85,6.06-2.47a9.12,9.12,0,0,0,1.88-3.69c3.2-10.54,1.25-21.85,1.13-32.86-.23-20.52,5.94-41.36,1.07-61.29-1.48-6.08-4-11.88-5.53-17.93-2.87-11.06-2.68-22.83-6.45-33.61-10.95,5.56-23.45,7.11-35.68,8.21-26.81,2.41-54.53,2.95-79.84-6.21C53.14,191.07,51.47,190.39,53.09,190.85Z"/></g><path d="M87.86,201.79a124.23,124.23,0,0,1-22.19-4.35c-4.7-1.58-9.87-2.59-13.93-5.53a1.9,1.9,0,0,1,0-2.92c.91-.7,2.08-.26,3,0,6.12,1.84,12.28,3.53,18.51,5,26.06,5.68,63.24,4.5,88.55-3.65,2.53-.63,4.89-2,7.41-2.46a2.76,2.76,0,0,1,1.87,4.71c-2.14,1.53-4.93,2-7.42,2.78a171.62,171.62,0,0,1-31.15,5.77C117.75,202.61,102.73,203.27,87.86,201.79Z"/><path d="M45.44,338.72a4.08,4.08,0,0,1-1.21-2.25c-.65-2.27-1.2-4.57-1.73-6.87-1.74-7.61-3.22-15.29-4.27-23a220.81,220.81,0,0,1-.45-61c2.11-16.93,5.16-33.85,10.62-50.05,1-2.15,2.14-9,5.31-6,.67.93.29,2.29.08,3.33-.69,3.06-1.6,6.08-2.4,9.12-7,26.51-11.06,54.12-9.75,81.58A291.74,291.74,0,0,0,46.93,323c.73,3.56,1.46,7.13,2.36,10.66.25,1.18.88,2.33.6,3.57A2.74,2.74,0,0,1,45.44,338.72Z"/><path d="M108.29,352.05c-11.52-.1-23.25-.71-34.56-2.83l.31.06.14,0c-9.33-1.84-18.85-4.43-27.26-8.93-2.36-1.13-1.79-4.83.95-4.87,4.87,1.34,9.46,3.82,14.34,5.28,27.83,8.15,67.3,6.49,95.68.84C163,340.55,168,339.37,173,337.9c1.75-.42,3.45-1.27,5.25-1.33a1.42,1.42,0,0,1,1.21,1.74,4,4,0,0,1-2.13,2.09,46.65,46.65,0,0,1-8.14,3.36C149.51,350,128.82,352,108.29,352.05Z"/><path d="M176.19,339.67c-2.62-.84-2.09-3-1.48-5.08.77-3.33,1.4-6.69,2-10.06,1.25-7.4,2-14.89,2.5-22.38,2.49-36.42-.21-73.37-9.9-108.59-.35-1.65-1.64-4.45.72-5.05,2.17-.18,2.79,3,3.59,4.51,5.48,14.3,8,29.56,10.13,44.66,3.21,23.71,3,47.77.83,71.56a187,187,0,0,1-3.33,21.57,59.08,59.08,0,0,1-1.8,6.76A2.71,2.71,0,0,1,176.19,339.67Z"/></g></g></g></g></svg>