<svg xmlns="http://www.w3.org/2000/svg" xmlns:xlink="http://www.w3.org/1999/xlink" viewBox="0 0 237.53 499.98"><defs><style>.cls-1{isolation:isolate;}.cls-2{fill:url(#linear-gradient);}.cls-3{fill:#fac88e;}.cls-4{fill:#fff;}.cls-5{fill:url(#linear-gradient-2);}.cls-6{fill:url(#linear-gradient-3);}.cls-7{fill:#cfbcbd;opacity:0.35;}.cls-11,.cls-7{mix-blend-mode:multiply;}.cls-8{fill:url(#linear-gradient-4);}.cls-9{fill:url(#linear-gradient-5);}.cls-10{fill:#e8bebe;}.cls-11{fill:#c49194;opacity:0.49;}</style><linearGradient id="linear-gradient" x1="31.77" y1="108.47" x2="52.3" y2="384.11" gradientUnits="userSpaceOnUse"><stop offset="0" stop-color="#cdb198"/><stop offset="1" stop-color="#fff"/></linearGradient><linearGradient id="linear-gradient-2" x1="204.2" y1="105.33" x2="266.05" y2="418.5" xlink:href="#linear-gradient"/><linearGradient id="linear-gradient-3" x1="116.6" y1="247.94" x2="116.6" y2="576.09" gradientUnits="userSpaceOnUse"><stop offset="0" stop-color="#6c9fd9"/><stop offset="1" stop-color="#a182bd"/></linearGradient><linearGradient id="linear-gradient-4" x1="69.91" y1="132.96" x2="116.81" y2="378.52" xlink:href="#linear-gradient"/><linearGradient id="linear-gradient-5" x1="176.12" y1="130.75" x2="229.26" y2="346.76" xlink:href="#linear-gradient"/></defs><g class="cls-1"><g id="Layer_2" data-name="Layer 2"><g id="Layer_114" data-name="Layer 114"><g id="Layer_70" data-name="Layer 70"><g id="Layer_108" data-name="Layer 108"><path class="cls-2" d="M22.06,36.29c1.55-2.54,2-5.58,3.21-8.32s3.44-5.4,6.42-5.49c2.34-.06,4.38,1.46,6.22,2.92,7.74,6.14,15.82,12.73,19.35,22a47,47,0,0,1,2.49,12.34c1,10.6.85,21.43-1.86,31.73-1.69,6.41-4.36,12.61-5,19.2-1.13,11.87,4.4,24.47-.32,35.42-2.23,5.18-6.66,9.62-6.94,15.25a33.26,33.26,0,0,0,.51,5.53c1.24,10.6-2.9,21-7,30.87a64.94,64.94,0,0,1-25.31-.2,6.25,6.25,0,0,1-2.38-.86,6,6,0,0,1-1.65-2.1,30.31,30.31,0,0,1-2.67-22.09,21.35,21.35,0,0,0,1.2-5.92c-.05-2.28-1.07-4.41-1.88-6.54-2.11-5.54-2.92-11.48-3.7-17.36a25.48,25.48,0,0,1-.28-7.34c.4-2.59,1.57-5,2.35-7.47a52.17,52.17,0,0,0,1.7-11.42A472.16,472.16,0,0,1,18.42,42.21C19,39.88,20,37.13,22.06,36.29Z"/><path class="cls-3" d="M10.21,196.51A52,52,0,0,0,26.55,199a79.28,79.28,0,0,0,8.14-.55A14.9,14.9,0,0,0,40.4,197c1.68,4.59.25,9.8,1.51,14.53.33,1.21.82,2.38,1,3.61a1.7,1.7,0,0,1,0,.95,1.74,1.74,0,0,1-.65.67,34.57,34.57,0,0,1-6.46,4.07,30,30,0,0,1-7.3,1.93,27.69,27.69,0,0,1-5.74.47,32.37,32.37,0,0,1-4.26-.61L15,222a1.38,1.38,0,0,1-.72-.28,1.32,1.32,0,0,1-.31-.57,106.11,106.11,0,0,1-3.81-14.83C9.51,203.33,9,200.05,10.21,196.51Z"/><path class="cls-4" d="M36.86,199.9l.81,15.47a12,12,0,0,0,.41,3c.08.24.15.53,0,.7a.77.77,0,0,1-.25.14l-3.48,1.26q-.28-5.21-.65-10.41a19.89,19.89,0,0,0-.46-3.44c-.24-.91-.6-1.78-.81-2.7a15.33,15.33,0,0,1-.28-2.62L32,199.74c0-.27,0-.6.25-.72s.44,0,.65.1c1.34.5,2.87-.73,4.22-.24C36.93,199.41,36.88,200,36.86,199.9Z"/><path class="cls-4" d="M26,199.76a182.56,182.56,0,0,0,3.29,22.08c-1.71-.12-3.42-.19-5.13-.19A86.24,86.24,0,0,1,22,212.88a26.68,26.68,0,0,1-.51-3.77c-.08-1.54.06-3.08,0-4.62-.06-1.7-.36-3.38-.38-5.08a.65.65,0,0,1,.1-.41c.18-.23.55-.11.83,0A9.45,9.45,0,0,0,26,199.76Z"/><path class="cls-4" d="M15.45,198.35a40.57,40.57,0,0,0,3.73,23.75c-1.55.65-3.23-.76-4.91-.69a1.11,1.11,0,0,1-.7-.1.94.94,0,0,1-.28-.54c-2-7.63-3.45-15.54-2.71-23.4a.55.55,0,0,1,.17-.41.57.57,0,0,1,.46,0C12.53,197.39,13.81,197.91,15.45,198.35Z"/></g><path d="M9.85,197.82a4.13,4.13,0,0,1-1.19-2A75.81,75.81,0,0,1,4.82,185c-2-8.58,2.47-17.2.53-25.8C3.84,152.86.15,147.06,0,140.43s2.12-13,3.37-19.38c1.36-7,2.18-14.09,3.21-21.14C10,78.56,10.85,56.26,19,36c2.72-5.77,6.1-11.77,11.75-15.1.73-.38,2.35-1,2.59.31,0,1.51-1.37,2.63-2.17,3.79A61.37,61.37,0,0,0,24,36.16c-4.76,9.68-6.61,20.43-8.39,31C14,77.56,12.75,88,11.29,98.49c-1,7.05-1.87,14.14-3.1,21.16-1.12,7.2-4.12,14.18-3.7,21.56.28,3.93,2.1,7.87,3.31,11.49,3.8,9,1.7,16.79.43,25.9-.44,5.5,2.19,10.38,4,15.35.34.93.91,1.84.62,2.85A1.94,1.94,0,0,1,9.85,197.82Z"/><path d="M38.49,196.68c-.48-.94.06-2,.24-3,1.27-4.71,3.5-9.07,4.51-13.82.9-4.47.07-8.8.34-13.28a39.94,39.94,0,0,1,1.86-10.23c1.5-5.14,4.13-9.81,6.08-14.76,2-5.87.11-11.89-.32-17.8A58.69,58.69,0,0,1,51,113.27c.44-6.92,3.19-13.35,4.94-20a71.68,71.68,0,0,0,1.89-12.71C58.78,65.09,59.46,47.4,48,35.37a30.25,30.25,0,0,0-5.51-5c-.87-.84-3.06-1-2.57-2.62,1-1.82,3.39.7,4.57,1.22A37.28,37.28,0,0,1,54.75,39.13c6.91,10.2,7.27,22.9,7,34.79-.15,6.93-.55,13.92-2.34,20.65-1.09,4.36-2.89,9-3.74,13.25a49.83,49.83,0,0,0-.74,13c.32,6.59,2.34,13.22,1.12,19.81a36.75,36.75,0,0,1-2.87,7.65C50.68,153.89,48.47,159.81,48,166c-.32,5.15.76,10.42-.82,15.44A93,93,0,0,1,43,192.23C42,193.86,40.74,198.92,38.49,196.68Z"/><path d="M28.49,129.18c-1.8-7.3-3.88-14.6-4.48-22.12-.6-9.29-.37-18.88,2.12-27.89a1.63,1.63,0,0,1,.34-.65.36.36,0,0,1,.56.42,89.4,89.4,0,0,0-.49,36c1,4.67,2,9.32,3.25,13.93A.67.67,0,0,1,28.49,129.18Z"/><path d="M23,146.3a.62.62,0,0,1-.11-.86c4.36-5.79,9.28-11.33,12.72-17.74a.5.5,0,0,1,.92.33,7.25,7.25,0,0,1-.65,1.6c-2,3.92-4.85,7.25-7.48,10.72-1.51,2-3,3.9-4.55,5.84A.61.61,0,0,1,23,146.3Z"/><path d="M19.87,173.69c-.78-1.3-6.25-7.72-4.15-8.62a.61.61,0,0,1,.69.6A10.56,10.56,0,0,0,18,169.09c.87,1.36,1.76,2.65,2.7,4A.52.52,0,0,1,19.87,173.69Z"/><path d="M20.48,224.26c-2.18-.2-4.37-.44-6.52-.83-2-.73-2.52-3.17-3.09-5-.77-2.1-6.55-27.5-.15-22.53,9.52,1.29,19.45,3.21,28.64-.29a1.89,1.89,0,0,1,2.77,1c1,3.75,1.09,7.53,1.27,11.35-.1,3.08.61,6.38-.41,9.32C38.3,224.52,28.23,224.59,20.48,224.26Zm5.17-3.13c5.13-.32,11.54-1.11,14.62-5.73-.21-5.47-.27-10.91-.93-16.33-9.06,3.37-19.31,1.84-28.44-.56.46,7.36,1.37,15,4.24,21.71A37.1,37.1,0,0,0,25.65,221.13Z"/><path d="M18.44,222c-2.06-4.66-2.79-9.85-3.5-14.86-.26-3.06-.87-6.19-.11-9.11a.63.63,0,0,1,1.05.62,66.08,66.08,0,0,0,2.84,19.15A20.08,20.08,0,0,0,20,221.12.91.91,0,0,1,18.44,222Z"/><path d="M23.65,222.51c-1.17-1.07-1.43-3.08-1.91-4.56a88.43,88.43,0,0,1-2-15c-.1-1.13-.08-2.28-.21-3.41a.76.76,0,1,1,1.51.18c.5,5.55.92,11.13,2.33,16.53a41.47,41.47,0,0,0,1.39,4.95C25.19,221.94,24.55,223,23.65,222.51Z"/><path d="M29.19,222.35c-.91-1.14-1-2.76-1.45-4.13a91.16,91.16,0,0,1-2.5-18,3.31,3.31,0,0,1,.11-1c.2-.51.75-.29.78.19,1.17,6.12,2,12.29,3.46,18.35.24,1.34.82,2.61,1.07,3.93A.91.91,0,0,1,29.19,222.35Z"/><path d="M33.27,220.22c-.59-5.24-.94-10.51-1.55-15.75-.07-1.63-.55-3.38-.19-5,.39-.58,1.14-.11,1.14.48a185.28,185.28,0,0,1,2.21,20.09A.81.81,0,0,1,33.27,220.22Z"/><path d="M38,218.59c-1.36-.13-.67-2.45-.89-3.31-.1-4-.35-8-.69-12,0-1.3-.46-2.7-.12-3.95a.75.75,0,0,1,1.33.14c.37,1.91.58,3.87.77,5.81a106.28,106.28,0,0,1,.47,12.49A.86.86,0,0,1,38,218.59Z"/></g><g id="Layer_70_copy" data-name="Layer 70 copy"><g id="Layer_108_copy" data-name="Layer 108 copy"><path class="cls-5" d="M215.47,36.29c-1.55-2.54-2-5.58-3.21-8.32s-3.45-5.4-6.43-5.49c-2.33-.06-4.38,1.46-6.21,2.92-7.74,6.14-15.82,12.73-19.35,22a46.57,46.57,0,0,0-2.49,12.34c-1,10.6-.85,21.43,1.86,31.73,1.69,6.41,4.36,12.61,5,19.2,1.12,11.87-4.41,24.47.32,35.42,2.23,5.18,6.65,9.62,6.93,15.25a33.25,33.25,0,0,1-.5,5.53c-1.25,10.6,2.9,21,7,30.87a64.94,64.94,0,0,0,25.31-.2,6.14,6.14,0,0,0,2.37-.86,5.89,5.89,0,0,0,1.66-2.1,30.31,30.31,0,0,0,2.67-22.09,21.35,21.35,0,0,1-1.2-5.92c0-2.28,1.06-4.41,1.88-6.54,2.11-5.54,2.91-11.48,3.7-17.36a25.84,25.84,0,0,0,.28-7.34c-.4-2.59-1.58-5-2.35-7.47a52.17,52.17,0,0,1-1.7-11.42,473.33,473.33,0,0,0-11.84-74.18C218.54,39.88,217.51,37.13,215.47,36.29Z"/><path class="cls-3" d="M227.32,196.51A52.09,52.09,0,0,1,211,199a79.09,79.09,0,0,1-8.14-.55,14.81,14.81,0,0,1-5.71-1.44c-1.69,4.59-.26,9.8-1.52,14.53-.32,1.21-.82,2.38-1,3.61a1.61,1.61,0,0,0,0,.95,1.79,1.79,0,0,0,.64.67,35,35,0,0,0,6.47,4.07,30,30,0,0,0,7.3,1.93,27.69,27.69,0,0,0,5.74.47,32,32,0,0,0,4.25-.61l3.55-.68a1.42,1.42,0,0,0,.72-.28,1.32,1.32,0,0,0,.31-.57,106.11,106.11,0,0,0,3.81-14.83C228,203.33,228.57,200.05,227.32,196.51Z"/><path class="cls-4" d="M200.66,199.9l-.8,15.47a12,12,0,0,1-.41,3c-.08.24-.16.53,0,.7a.72.72,0,0,0,.24.14l3.49,1.26q.28-5.21.65-10.41a19,19,0,0,1,.46-3.44c.23-.91.6-1.78.8-2.7a15.34,15.34,0,0,0,.29-2.62l.09-1.55c0-.27,0-.6-.26-.72s-.43,0-.64.1c-1.35.5-2.88-.73-4.22-.24A8.48,8.48,0,0,1,200.66,199.9Z"/><path class="cls-4" d="M211.58,199.76a184.56,184.56,0,0,1-3.29,22.08c1.71-.12,3.41-.19,5.12-.19a83.71,83.71,0,0,0,2.16-8.77,26.68,26.68,0,0,0,.51-3.77c.08-1.54-.06-3.08,0-4.62.06-1.7.36-3.38.37-5.08a.64.64,0,0,0-.09-.41c-.19-.23-.56-.11-.83,0A9.45,9.45,0,0,1,211.58,199.76Z"/><path class="cls-4" d="M222.07,198.35a40.56,40.56,0,0,1-3.72,23.75c1.55.65,3.23-.76,4.91-.69a1.07,1.07,0,0,0,.69-.1.9.9,0,0,0,.29-.54c2-7.63,3.45-15.54,2.7-23.4a.54.54,0,0,0-.16-.41.57.57,0,0,0-.46,0C225,197.39,223.71,197.91,222.07,198.35Z"/></g><path d="M227.67,197.82a4.15,4.15,0,0,0,1.2-2,77.06,77.06,0,0,0,3.84-10.8c2-8.58-2.48-17.2-.53-25.8,1.51-6.32,5.19-12.12,5.33-18.75s-2.12-13-3.37-19.38c-1.36-7-2.19-14.09-3.21-21.14-3.43-21.35-4.26-43.65-12.37-63.9-2.72-5.77-6.1-11.77-11.75-15.1-.73-.38-2.35-1-2.59.31,0,1.51,1.37,2.63,2.17,3.79a60.79,60.79,0,0,1,7.12,11.15c4.77,9.68,6.61,20.43,8.4,31,1.58,10.43,2.87,20.91,4.33,31.36,1,7.05,1.87,14.14,3.1,21.16,1.12,7.2,4.11,14.18,3.7,21.56-.28,3.93-2.1,7.87-3.31,11.49-3.8,9-1.7,16.79-.43,25.9.44,5.5-2.19,10.38-4,15.35-.33.93-.9,1.84-.62,2.85A1.94,1.94,0,0,0,227.67,197.82Z"/><path d="M199,196.68c.48-.94-.06-2-.24-3-1.28-4.71-3.5-9.07-4.51-13.82-.9-4.47-.07-8.8-.34-13.28a39.53,39.53,0,0,0-1.87-10.23c-1.49-5.14-4.12-9.81-6.07-14.76-2-5.87-.11-11.89.32-17.8a58.69,58.69,0,0,0,.15-10.52c-.44-6.92-3.19-13.35-4.93-20a70.77,70.77,0,0,1-1.89-12.71c-.91-15.49-1.59-33.18,9.89-45.21a30.52,30.52,0,0,1,5.5-5c.88-.84,3.07-1,2.58-2.62-1-1.82-3.4.7-4.58,1.22a37.38,37.38,0,0,0-10.27,10.21c-6.91,10.2-7.27,22.9-7,34.79.14,6.93.55,13.92,2.33,20.65,1.1,4.36,2.9,9,3.75,13.25a49.83,49.83,0,0,1,.74,13c-.32,6.59-2.34,13.22-1.12,19.81a36.75,36.75,0,0,0,2.87,7.65c2.52,5.65,4.73,11.57,5.18,17.78.31,5.15-.76,10.42.82,15.44a91.23,91.23,0,0,0,4.25,10.77C195.49,193.86,196.79,198.92,199,196.68Z"/><path d="M209,129.18c1.79-7.3,3.87-14.6,4.48-22.12.6-9.29.36-18.88-2.12-27.89a1.92,1.92,0,0,0-.34-.65.36.36,0,0,0-.56.42,89.39,89.39,0,0,1,.48,36c-1,4.67-2,9.32-3.24,13.93A.67.67,0,0,0,209,129.18Z"/><path d="M214.49,146.3a.62.62,0,0,0,.11-.86c-4.36-5.79-9.28-11.33-12.72-17.74a.5.5,0,0,0-.92.33,7.75,7.75,0,0,0,.64,1.6c2,3.92,4.86,7.25,7.49,10.72q2.25,2.93,4.54,5.84A.63.63,0,0,0,214.49,146.3Z"/><path d="M217.66,173.69c.77-1.3,6.25-7.72,4.15-8.62a.61.61,0,0,0-.69.6,10.78,10.78,0,0,1-1.59,3.42c-.87,1.36-1.76,2.65-2.7,4A.52.52,0,0,0,217.66,173.69Z"/><path d="M217,224.26c2.18-.2,4.37-.44,6.52-.83,2-.73,2.53-3.17,3.1-5,.77-2.1,6.55-27.5.15-22.53-9.52,1.29-19.46,3.21-28.64-.29a1.9,1.9,0,0,0-2.78,1c-1,3.75-1.09,7.53-1.26,11.35.1,3.08-.62,6.38.41,9.32C199.23,224.52,209.3,224.59,217,224.26Zm-5.17-3.13c-5.13-.32-11.54-1.11-14.61-5.73.21-5.47.27-10.91.93-16.33,9.06,3.37,19.31,1.84,28.44-.56-.46,7.36-1.38,15-4.24,21.71A37.17,37.17,0,0,1,211.87,221.13Z"/><path d="M219.09,222c2.06-4.66,2.79-9.85,3.5-14.86.25-3.06.87-6.19.11-9.11a.64.64,0,0,0-1.06.62,65.73,65.73,0,0,1-2.83,19.15,21,21,0,0,1-1.31,3.37A.91.91,0,0,0,219.09,222Z"/><path d="M213.88,222.51c1.16-1.07,1.43-3.08,1.91-4.56a88.42,88.42,0,0,0,2-15c.1-1.13.09-2.28.21-3.41a.75.75,0,0,0-.59-.71.77.77,0,0,0-.92.89c-.49,5.55-.91,11.13-2.32,16.53a39.7,39.7,0,0,1-1.4,4.95C212.33,221.94,213,223,213.88,222.51Z"/><path d="M208.34,222.35c.91-1.14,1-2.76,1.45-4.13a91.16,91.16,0,0,0,2.5-18,3.31,3.31,0,0,0-.11-1c-.2-.51-.75-.29-.79.19-1.16,6.12-2,12.29-3.46,18.35-.24,1.34-.82,2.61-1.06,3.93A.9.9,0,0,0,208.34,222.35Z"/><path d="M204.26,220.22c.59-5.24.94-10.51,1.55-15.75.06-1.63.54-3.38.19-5-.39-.58-1.14-.11-1.15.48a185.26,185.26,0,0,0-2.2,20.09A.81.81,0,0,0,204.26,220.22Z"/><path d="M199.58,218.59c1.36-.13.67-2.45.88-3.31.11-4,.36-8,.7-12,0-1.3.46-2.7.12-3.95a.75.75,0,0,0-1.33.14c-.38,1.91-.58,3.87-.77,5.81a104.16,104.16,0,0,0-.47,12.49A.86.86,0,0,0,199.58,218.59Z"/></g><g id="Layer_104" data-name="Layer 104"><g id="Layer_106" data-name="Layer 106"><path class="cls-6" d="M60.78,204.26a112.94,112.94,0,0,0-8.37,26.43c-1.73,9.31-2.27,18.8-2.81,28.25L44.11,354.7s-6.39,138.76-6.48,138.85c5.28,2.65,11,5.37,16.85,4.26,2.22-.42,4.31-1.39,6.53-1.85a29.61,29.61,0,0,1,5.16-.42c9.34-.22,18.73-.43,28,.73,6.16.77,13.21,1.91,17.92-2.14,0,0,.58-217.2.35-216.59a14.69,14.69,0,0,1,8.84-1.09,82.77,82.77,0,0,0-.23,15.66s.4,203.92,1.42,204.39a63.76,63.76,0,0,0,20.81.46c3.07-.43,6.12-1.1,9.21-1.33,7.39-.54,14.72,1.39,22.1,2.1s15.5-.08,21-5.07c0,0-11.89-233.51-12.7-231.81a144.11,144.11,0,0,0-9.4-55.51c-2.4,2.7-6,3.92-9.5,4.85-18.31,4.92-37.53,5.21-56.46,4.32a122.76,122.76,0,0,1-19.8-2.15C78.3,210.36,69.41,206.46,60.78,204.26Z"/><path class="cls-7" d="M181.53,265A109.6,109.6,0,0,1,147,344.11a77.43,77.43,0,0,0,36.52-26.6,11.53,11.53,0,0,0,1.91-3.33,12.68,12.68,0,0,0,.12-5.21C183.69,293.6,182.42,278.16,181.53,265Z"/><path class="cls-7" d="M50.18,275.87a94,94,0,0,0,27.49,46.94c3.24,3,6.72,5.78,9.28,9.36,5.51,7.7,6.1,18,11.27,26C92,347.76,85,336.69,73.63,332.45a48,48,0,0,1-6.22-2.37c-8.91-4.85-9.89-18.8-19.13-23C48.65,297.08,49.16,287.08,50.18,275.87Z"/><path class="cls-7" d="M110.52,350c-1,13.92-3.9,27.82-10,40.4s-15.35,23.77-27.35,30.89a75.09,75.09,0,0,0,36.18-17.88,6.23,6.23,0,0,0,1.74-2.12,6.79,6.79,0,0,0,.13-3.5C109.58,385.27,109.26,372.52,110.52,350Z"/><path class="cls-7" d="M42.64,413.13c2.9,12,6,24.22,11.94,35.08s15.25,20.42,27.07,24.14a83.48,83.48,0,0,1-36.38-8,13.72,13.72,0,0,0-5.05-1.69C40.76,446.92,41.3,431.2,42.64,413.13Z"/><path class="cls-7" d="M190.53,398.42c-1.23,14.71-3.47,29.62-9.88,42.92s-17.53,24.94-31.73,29c14.51,1.32,28.14-6.36,40.69-13.77a6.93,6.93,0,0,0,2.77-2.42,6.78,6.78,0,0,0,.5-3.35q-.28-16.49-.59-33"/><path class="cls-4" d="M62.06,195.72c-1.38,1.65-2.85,3.62-2.41,5.73.51,2.5,3.37,3.66,5.83,4.36A248.23,248.23,0,0,0,131,215c7.83.07,15.71-.2,23.38-1.83s15.13-4.66,21.18-9.64a10,10,0,0,1-4.16-5.3,172.13,172.13,0,0,1-20.58,6.56,87.19,87.19,0,0,1-16.26,2.76,102.56,102.56,0,0,1-13.8-.35C100.77,205.74,80.71,202.86,62.06,195.72Z"/></g><path d="M104.71,208c-13.27-1.6-26.58-4.14-39-9.31-1.51-.82-7.25-2.56-4.68-4.61a2.88,2.88,0,0,1,2.15.16c1.85.6,3.67,1.27,5.51,1.87a177.06,177.06,0,0,0,49.4,8.56,175.16,175.16,0,0,0,37-4,103.74,103.74,0,0,0,13.55-3.52c.86-.31,1.72-.95,2.66-.61a1.88,1.88,0,0,1,.41,3.33,16.65,16.65,0,0,1-2.39,1C148.47,207.07,126.44,210.59,104.71,208Z"/><path d="M106.75,216.45A166.58,166.58,0,0,1,88.82,214,123.42,123.42,0,0,1,71,209.25c-2.41-.85-4.78-1.83-7.1-2.91-1.14-.53-2.27-1.08-3.38-1.68-.55-.3-1.11-.61-1.63-1s-1.12-.75-1.19-1.46a1.06,1.06,0,0,1,.51-1h0l.14-.07a1.2,1.2,0,0,1,.37-.1,3.31,3.31,0,0,1,1.49.32c.67.25,1.33.52,2,.79,1.31.52,2.62,1,4,1.49,2.73,1,5.5,1.83,8.28,2.62l1.61.46.35.09a165.45,165.45,0,0,0,17.76,3.79c1,.16,2,.31,2.71.41,5.91.82,11.86,1.4,17.81,1.7,2.32.11,4.63.17,6.88.2a171,171,0,0,0,17.39-.72l3.24-.35h.07a121.79,121.79,0,0,0,14.69-2.62l.07,0a74,74,0,0,0,8.3-2.6,52.91,52.91,0,0,0,6-2.78c.31-.17.6-.35.8-.47a2,2,0,0,1,1.29-.37,1.93,1.93,0,0,1,1.76,2.33,1.93,1.93,0,0,1-.87,1.24c-1.08.67-2.16,1.33-3.28,1.9a54,54,0,0,1-7.55,3.12c-2.25.77-4.55,1.41-6.61,1.92a114.05,114.05,0,0,1-14.11,2.53l-.17,0h-.05l-.13,0a169.18,169.18,0,0,1-17.72,1.05h-1.52C117.66,217.15,112.19,216.91,106.75,216.45Z"/><path d="M58.86,202.73c-1.44-.57-1-2-.47-3,.92-1.77,1-5.38,3.4-5.63,2.53.63.3,4-.14,5.57C61.05,200.83,60.72,203.27,58.86,202.73Z"/><path d="M173,204.9c-1.5-1.58-2.23-3.74-3-5.75-.43-1-.09-2.36,1.16-2.38,1.44.14,2,1.83,2.69,2.92.67,1.39,1.59,2.71,1.75,4.28A1.48,1.48,0,0,1,173,204.9Z"/><path d="M171.28,206.45c-.44-1.43,1.45-1.51,2.11-2.3-.07-.26-.14-.5-.2-.74v.05a11.26,11.26,0,0,0-2.44-4.79c-.64.18-1.38.46-1.75-.26-.46-.93.64-1.65,1.4-1.83a2.08,2.08,0,0,1,1.88.56c1.49,1.36,4.66,7.37,2.61,8.93C174,206.84,172,207.92,171.28,206.45Z"/><path d="M47.14,499.3a50.39,50.39,0,0,1-7.64-2.06c-1.9-.61-4.65-1.6-4.3-4.07,1-8,1.11-16.15,1.58-24.22q2-37,3.56-74.08c2-33.22,4.45-66.34,5.9-99.57,1.58-22.13,1.41-44.44,4.55-66.42A86.32,86.32,0,0,1,55.9,211c1.2-2.57,1.77-5.68,3.76-7.74a1.2,1.2,0,0,1,1.79,1,29.91,29.91,0,0,1-1.35,4.35,129.06,129.06,0,0,0-4.4,15.3c-2.43,12-2.52,24.23-3.15,36.39-1.54,31.07-2.87,62.17-5,93.21-2.5,31.1-3.2,62.21-4.75,93.35-1.11,15.25-1,30.87-3.37,45.94a40.05,40.05,0,0,0,16.1,2.89c8.17-1,16.25-2.85,24.54-2.23,10,.27,20.34,3.65,29.93,0a2.26,2.26,0,0,1,1.76,4.16,31.89,31.89,0,0,1-6.16,1.6c-7.67,1.16-15.2-.54-22.59-1.05a79.6,79.6,0,0,0-19.34.81A42.5,42.5,0,0,1,47.14,499.3Z"/><path d="M114.92,277.41c-5.77-.94-12.07-2.51-15.83-7.28-.48-.58-.29-1.71.61-1.6,1.43.56,2.71,1.62,4.12,2.23A32.4,32.4,0,0,0,118.46,274a38.08,38.08,0,0,0,10.19-2.08,1.76,1.76,0,0,1,2.09,1c.83,2.66-2.93,2.89-4.66,3.5A31.15,31.15,0,0,1,114.92,277.41Z"/><path d="M109.21,494.72c-1.27-46.88-1-93.82.22-140.7.56-23.6.33-47.22,1.41-70.8.36-2,0-7.69,2.23-7.76,1.74.17,1.44,2.5,1.59,3.78.13,3.43.14,6.85.21,10.28.12,52-1.07,104-1.17,156,0,15.5.58,31,.31,46.49-.07,2.05.44,5-2.42,5.11A2.4,2.4,0,0,1,109.21,494.72Z"/><path d="M186.19,499.3a50.08,50.08,0,0,0,7.64-2.06c1.91-.61,4.66-1.6,4.31-4.07-1-8-1.12-16.15-1.59-24.22q-2-37-3.56-74.08c-2-33.22-4.45-66.34-5.9-99.57-1.58-22.13-1.41-44.44-4.54-66.42a87.57,87.57,0,0,0-5.11-17.9c-1.21-2.57-1.77-5.68-3.77-7.74a1.2,1.2,0,0,0-1.78,1,29.86,29.86,0,0,0,1.34,4.35,127.2,127.2,0,0,1,4.4,15.3c2.43,12,2.52,24.23,3.15,36.39,1.55,31.07,2.87,62.17,5,93.21,2.5,31.1,3.21,62.21,4.75,93.35,1.12,15.25,1,30.87,3.37,45.94a40,40,0,0,1-16.09,2.89c-8.17-1-16.26-2.85-24.55-2.23-10,.27-20.34,3.65-29.93,0a2.26,2.26,0,0,0-1.76,4.16,31.89,31.89,0,0,0,6.16,1.6c7.67,1.16,15.2-.54,22.6-1.05a79.54,79.54,0,0,1,19.33.81A42.5,42.5,0,0,0,186.19,499.3Z"/><path d="M124.13,494.72c1.26-46.88,1-93.82-.22-140.7-.57-23.6-.34-47.22-1.41-70.8-.37-2-.06-7.69-2.23-7.76-1.74.17-1.45,2.5-1.6,3.78-.13,3.43-.13,6.85-.21,10.28-.12,52,1.08,104,1.18,156,0,15.5-.59,31-.32,46.49.07,2.05-.43,5,2.42,5.11A2.42,2.42,0,0,0,124.13,494.72Z"/></g><g id="Layer_103" data-name="Layer 103"><g id="Layer_107" data-name="Layer 107"><path class="cls-8" d="M25.69,28.1a113.32,113.32,0,0,0,17,28.28c-2.22,10-4.44,20.45-1.6,30.26,1,3.5,2.64,6.79,4,10.18A62.36,62.36,0,0,1,49.34,119c0,3.23-.19,6.5.52,9.65.54,2.36,1.61,4.71.65,7.67-2,7.29-.54,15.17-2.28,22.53-.92,3.86-2.69,7.46-3.8,11.26a34.27,34.27,0,0,0-.65,16.47c.45,2.15,1.11,4.31.84,6.49a33.42,33.42,0,0,1-1.52,5c-2.53,8.63,3.3,17.84,1.62,26.89l.08,46.39a4.37,4.37,0,0,0,.33,2c.61,1.16,2.06,1.53,3.34,1.78l26.59,5.2c3.61.71,7.81,1.27,10.56-1.18,3.68-3.27,2.12-9.14,1.89-14.05-.31-6.45,2.22-12.65,3.72-18.93,3.19-13.37,1.71-27.41,3.54-41,1.53-11.35,5.35-22.33,6.28-33.75,1.48-18.1-4.36-36.49-.57-54.85a595.14,595.14,0,0,0,1.07-88.67A92.25,92.25,0,0,1,70.32,4.19c-.57-.66-1.15-1.61-.66-2.33L56.74,6.61A64.67,64.67,0,0,0,47,10.83a64.61,64.61,0,0,0-7,4.89l-7.71,6A39.21,39.21,0,0,0,25.69,28.1Z"/><path class="cls-9" d="M152.21,280.06c-6.62-17.41-6-36.59-8-55.12-2.72-25.36-10.41-50.36-9.19-75.84.35-7.29,1.44-14.53,2-21.81,2.45-32.64-5.93-65.48-2.17-98.47a85.45,85.45,0,0,0,32-26.58A106.51,106.51,0,0,1,212.07,28q-8.17,15-17.8,29.15a55.28,55.28,0,0,1-.92,35c-1.95,5.31-4.76,10.47-5.1,16.12-.27,4.52,1.07,9.06.47,13.55-.57,4.32-2.91,8.37-2.79,12.72s2.54,8.08,2.76,12.29c.28,5.43-3.06,11.27-.43,16,.84,1.52,2.22,2.71,3,4.26a13.52,13.52,0,0,1,1,5.9c.08,4.17.16,8.35.09,12.31-1.14,6.09.16,12.34.23,18.54.08,6.73-1.28,13.41-1.48,20.14-.23,7.87,1.12,15.71,1.12,23.58,0,7.56-1.25,15.13-.52,22.66a3.25,3.25,0,0,1-.11,1.67,3.29,3.29,0,0,1-1.25,1.26,27.39,27.39,0,0,1-6.22,3.53,28.13,28.13,0,0,1-5.32,1.13A166.74,166.74,0,0,1,152.21,280.06Z"/><path class="cls-3" d="M57.42,7.77a113,113,0,0,0,8.65,11.39A114.65,114.65,0,0,0,78.82,30.73,43.27,43.27,0,0,0,84.7,35a43.91,43.91,0,0,0,8.09,3.31,46.87,46.87,0,0,0,8.28,2.22,51.1,51.1,0,0,0-.42-9.89,3.61,3.61,0,0,0-.26-1,3.28,3.28,0,0,0-.65-.91,26.19,26.19,0,0,0-5.87-4.13,113.41,113.41,0,0,1-13.48-10A80.2,80.2,0,0,1,73.15,8a13.93,13.93,0,0,1-3-4.32c-.32-.83-.64-1.83-1.48-2.09a2.55,2.55,0,0,0-1.92.46A80.37,80.37,0,0,0,57.42,7.77Z"/><path class="cls-4" d="M64.27,16q4.19-4.32,8.49-8.54c2.71,3.21,5.55,6.32,8.51,9.3-3.4,2.45-4.56,7-7.48,10C71,25.07,68.72,22.59,64.27,16Z"/><path class="cls-4" d="M84.5,33.33a34.19,34.19,0,0,1,5.76-10.5,20.81,20.81,0,0,0,4.79,4,1.09,1.09,0,0,1,.56.58,1,1,0,0,1-.12.61,42.9,42.9,0,0,0-2.63,9.08c-.06.35-.2.78-.55.81a.79.79,0,0,1-.44-.12A52.81,52.81,0,0,1,84.5,33.33Z"/><path class="cls-3" d="M141,25.86l-3.91,1.49a2.35,2.35,0,0,0-1.15.73,2.39,2.39,0,0,0-.31,1.3,44.9,44.9,0,0,1-1.2,8.15,3.09,3.09,0,0,0,.1,2.6c.63.87,1.94.79,3,.51a28,28,0,0,0,4.85-2c3.12-1.52,6.24-3,9.29-4.71A58.23,58.23,0,0,0,163.2,26a78.84,78.84,0,0,0,6.46-7l7-8.12a7,7,0,0,0,1.71-2.81,1.38,1.38,0,0,0,0-.83c-.24-.63-1.06-.76-1.72-.89-2.75-.54-4.94-2.52-7.3-4A3.06,3.06,0,0,0,168,1.82c-1.23-.12-2.14,1.06-2.84,2.08A85.83,85.83,0,0,1,155,15.49"/><path class="cls-4" d="M143.72,38.73a46,46,0,0,0-3.11-13.89,1.85,1.85,0,0,0,1.69.44A5.92,5.92,0,0,0,146.76,22c1.5,4.23,4.8,7.88,5.1,12.36a.86.86,0,0,1-.08.5.9.9,0,0,1-.49.33L145.2,37.5A2.44,2.44,0,0,0,143.72,38.73Z"/><path class="cls-4" d="M163.57,26.34c-1.67-.67-2.47-2.52-3.31-4.11a22.19,22.19,0,0,0-5.34-6.61c1.55-.15,2.73-1.43,3.74-2.61l5.12-6a56.09,56.09,0,0,1,8.38,9.5c-1.61,1.05-2.24,3.06-3.29,4.67S166.14,24.22,163.57,26.34Z"/><path class="cls-3" d="M148.89,265.22c7,2.1,14.5,1.65,21.55-.12s13.72-4.79,20.33-7.83a75.25,75.25,0,0,0,.25,13.59c-1.69,2.46-4.89,3.25-7.8,3.87-9.35,2-18.74,3.94-28.27,4.63a2.56,2.56,0,0,1-1.26-.13,2.35,2.35,0,0,1-.89-1A31.23,31.23,0,0,1,148.89,265.22Z"/><path class="cls-3" d="M46.41,256.93a42.78,42.78,0,0,0,11.1,5.24,67.59,67.59,0,0,0,15.6,3.55A38.59,38.59,0,0,0,89,264.1c-2.7,4.13-1.85,9.65-3.66,14.25a1.06,1.06,0,0,1-.42.59,1,1,0,0,1-.43.09,83.52,83.52,0,0,1-34.76-4.62c-1-.37-2-.76-3-1.17a1.86,1.86,0,0,1-.88-.56c-.42-.57-.12-1.35,0-2,.5-2.13-.52-4.28-1-6.41A8.06,8.06,0,0,1,46.41,256.93Z"/><path class="cls-4" d="M52.7,261a28.67,28.67,0,0,0-2,12.92,2.17,2.17,0,0,0,.26,1,2.12,2.12,0,0,0,1.18.69,55.57,55.57,0,0,0,9.62,2.09c-.24-1.78,1.09-3.33,1.8-5,1.21-2.81.67-6.24,2.28-8.83Z"/><path class="cls-4" d="M76.58,265.62a33.55,33.55,0,0,0-1.18,3.55,6.74,6.74,0,0,0-.33,2.31,9.59,9.59,0,0,0,.57,2.21A40.44,40.44,0,0,1,77,280.05a24.62,24.62,0,0,0,6.58-.54,2.94,2.94,0,0,0,1.07-.39,3.18,3.18,0,0,0,1-1.74,41.92,41.92,0,0,0,1.88-11.33,1.61,1.61,0,0,0-.2-1c-.5-.69-1.57-.26-2.31.14C82.12,266.79,78.7,267.25,76.58,265.62Z"/><path class="cls-4" d="M159.27,265.22a5,5,0,0,0-.08,2.67,71.54,71.54,0,0,1,.71,9.13,16,16,0,0,1-.09,2.3.93.93,0,0,1-.24.63,1,1,0,0,1-.73.17,10,10,0,0,1-6.54-2.87,2.41,2.41,0,0,1-.52-.71,2.54,2.54,0,0,1-.13-.73,60.87,60.87,0,0,0-.92-6.46,12.43,12.43,0,0,0-1.39-4.14C152.28,265.09,155.22,265.16,159.27,265.22Z"/><path class="cls-4" d="M170.23,264.09q1.25,5.3,2.76,10.54a3.08,3.08,0,0,0,1.32,2.07,2.56,2.56,0,0,0,1.4.15c3.26-.31,6.38-2.22,9.6-1.66-.88-1.32-.28-3.07-.27-4.66,0-2-1-3.93-1.62-5.88a15.8,15.8,0,0,1-.7-3.61c0-.21-.06-.47-.27-.54a.49.49,0,0,0-.37.05l-6.16,2.39"/><path class="cls-4" d="M101.33,79.2c2.42-.15,4.65,1.44,6.16,3.35s2.52,4.16,4,6.14c2.21,3,5.52,5.64,6,9.37,2.68-3.69,4.89-7.71,7.6-11.39s6-7.07,10.17-8.92a81.75,81.75,0,0,0,.15,9.65c.28,2.95.87,5.87,1.18,8.83.7,6.72-.11,13.59,1.23,20.21.3,1.49.7,3.09.07,4.47-1,2.12-3.72,2.58-6,2.71-4.57.26-9.15.34-13.73.42-6.12.11-12.36.2-18.22-1.59a30.21,30.21,0,0,0-1.12-8"/><path class="cls-10" d="M99.9,122.65c12.13,3.4,25,2,37.53.67a9.38,9.38,0,0,0-.71,6.58c.13.5.28,1.09-.06,1.46a1.35,1.35,0,0,1-.66.34,56.64,56.64,0,0,1-34-.42,2,2,0,0,1-1.81-2.43A19.84,19.84,0,0,0,99.9,122.65Z"/><path class="cls-11" d="M195.53,63.5a181,181,0,0,1-25.32,47.82,55.33,55.33,0,0,0,8.21,17.35c-.8-11,5.57-21.23,12-30.25a28.91,28.91,0,0,0,3.17-5.17A23.84,23.84,0,0,0,195,87.86,74.2,74.2,0,0,0,195.53,63.5Z"/><path class="cls-11" d="M189.75,163.85A74.92,74.92,0,0,1,165.07,202a49.53,49.53,0,0,0,13.68-4.14c3.08-1.45,6.14-3.26,9.54-3.44a3.35,3.35,0,0,0,2.39-.67,2.87,2.87,0,0,0,.53-1.51C192.73,181.76,194.07,170.29,189.75,163.85Z"/><path class="cls-11" d="M141.93,201.65c7.87,14.24,16.13,28.94,29.24,38.59a39.73,39.73,0,0,1-17.13-4c-2.9-1.42-5.72-3.22-8.92-3.6A309.85,309.85,0,0,0,141.93,201.65Z"/><path class="cls-11" d="M101.93,73.9c-2.49,13.51-5.61,28.13-16.08,37-1.81,1.54-3.83,2.89-5.23,4.8-1.51,2.07-2.17,4.61-3.06,7a37.49,37.49,0,0,1-5.34,9.78c3.86-5.18,9.51-8.67,14.71-12.5s10.3-8.49,12.13-14.69C101.46,97.12,97.74,87.61,101.93,73.9Z"/><path class="cls-11" d="M49.62,131.92A75.11,75.11,0,0,1,54,155.38a40.48,40.48,0,0,0,.61,8.24c.83,3.53,2.83,6.65,4.8,9.7l17.31,26.77c-9.55-1.69-16.74-9.53-22.23-17.52a128.51,128.51,0,0,1-9.3-15.82c4.23-4.5,4.11-11.43,3.65-17.59S48,136.15,49.62,131.92Z"/><path class="cls-11" d="M94.57,202.65c-2.76.94-4.47,3.62-5.93,6.14-6.73,11.64-13,24.07-23.66,32.32-4.37,3.41-9.68,6.38-11.54,11.6,6.14-4.21,15.82.6,21.44-4.3,3.12-2.72,4.06-7.84,8-9.27,1.44-.53,3.1-.43,4.43-1.2,1.95-1.12,2.5-3.63,2.86-5.85C91.84,221.48,93.55,210.88,94.57,202.65Z"/></g><path d="M79.49,283c-9.76-.87-19.41-3-29-4.92-2.26-.62-5-.68-6.69-2.54-2-3-1.51-6.79-1.49-10.18.31-8.15,1.43-16.36-.1-24.46-1.14-6.3,0-12.62.57-18.92.55-4.52-.7-8.89-1.41-13.3-.65-5.53.63-11,1.09-16.5.45-6.76-1.77-13.48-.33-20.21.87-5.2,2.76-10.16,3.94-15.28.89-4.46,0-9,.51-13.52.33-4.75,1.47-9.82,1.18-14.53a142.56,142.56,0,0,1-1.4-19.47c-.63-7.19-5.2-13.33-6.52-20.4-2.47-9.86-1.69-20.16.61-30,.3-1,.51-2.14.9-3.16a1.31,1.31,0,0,1,2.51.68c-.43,2.08-.82,4.15-1.11,6.26-1,7.6-1.33,15.55.28,23,1.28,7,5,12.85,6.82,19.6.92,4,.46,8.19.77,12.29.26,4.25,1.31,8.41,1.4,12.67s-1,8.53-1.23,12.81c-.42,4.67.5,9.38-.31,14-1.4,6.3-4.09,12.46-4.43,19-.33,5.32,1.35,10.52,1,15.84-.17,3.75-.95,7.44-1.18,10.87-.72,6.39,2.29,12.31,1.55,18.67-.26,5-1.38,10-1.1,15,.55,5.17,1.71,10.3,1.29,15.54,0,6.87-1.58,13.88-.44,20.7,7.56,1.39,15.09,3,22.71,4.09,4,.5,8.13,1.65,12.21,1.11,1-.16,1.64-.61,1.67-1.67.59-2.23.86-4.53,1.29-6.8.44-2.48.93-5,1.4-7.43,4.84-21.94,3-44.73,8.29-66.61a164.74,164.74,0,0,0,3.75-50.8C97.72,134.43,96.86,125,97.15,115c.49-17.62,2.1-35.19,2.9-52.8.25-11,1-22.37-1.53-33.16C88.35,25.53,71.75,12.42,68.34,2.2,68,1.15,68.75-.32,70,.06A2.91,2.91,0,0,1,71.37,1.2c1.44,2,2.94,3.92,4.57,5.76a86.88,86.88,0,0,0,12,11c3.41,2.58,6.8,5.4,10.85,7,3.93.1,4.34,4.55,4.77,7.56a151.08,151.08,0,0,1,.9,21.27c-.41,23.36-3.12,46.66-2.66,70,.58,14,2.5,27.62,1.94,41.6-.27,11.35-2.69,22.59-5,33.63C95.41,213.67,95,228.76,94,243.73c-.73,9.32-2.72,18.53-4.59,27.67C88,278.43,89.11,282.84,79.49,283Z"/><path d="M23.45,30.66c-2.62-2.41,3-6.71,4.63-8.45,8.69-7.63,19.12-13,29.59-17.84A88.12,88.12,0,0,1,68,.36c.83-.32,2.14-.28,2.3.8.12.91-.72,1.4-1.4,1.8-4.34,2.38-8.85,4.48-13.23,6.8C47,14.27,38.45,19.19,31,25.5,28.89,26.79,26,32.44,23.45,30.66Z"/><path d="M100.4,42.47C85.88,39.09,73,30.28,63.38,19.08c-2.1-2.74-7.53-9.36-6.8-12.72C58.41,3.77,60,8,60.92,9.17A74.75,74.75,0,0,0,87.94,34a55,55,0,0,0,13.3,4.83A1.85,1.85,0,0,1,100.4,42.47Z"/><path d="M63.63,16.94c-.93-.89,4.27-5.68,5-6.71C69.8,9,70.94,7.69,72.24,6.55a.65.65,0,0,1,.92-.11c.77.72-.5,1.31-.88,1.84C69.7,11,67.42,14,64.64,16.58,64.37,16.84,64,17.24,63.63,16.94Z"/><path d="M73.57,27c-.73-.47-.07-1.26.24-1.78.77-1.3,1.67-2.71,2.5-3.88.52-.75,6.28-8.91,6-5.06A118.8,118.8,0,0,0,75,26.05C74.68,26.54,74.26,27.35,73.57,27Z"/><path d="M84.54,33.8c-2.11-.49,3.62-10,4.31-11.38a.87.87,0,0,1,1.74-.14,90.41,90.41,0,0,1-4.12,9.24C85.94,32.27,85.73,34,84.54,33.8Z"/><path d="M92.49,39.11a.81.81,0,0,1-.67-.93c.23-1.71.65-3.59,1-5.22.38-1,1.67-8.28,3-7.26a.51.51,0,0,1,.12.68c-.37,1.81-.73,3.63-1.12,5.44-.49,2.21-1,4.4-1.46,6.62A.82.82,0,0,1,92.49,39.11Z"/><path d="M116.19,126c-3.71-.18-15.62-.93-17.73-3.65-.3-1.14,1.09-1.29,1.9-1.11a117.65,117.65,0,0,0,29.93.64,42.27,42.27,0,0,0,4.41-.6,2,2,0,0,1,2.77,1.08c.59,2.26-2,2.54-3.6,2.72A103.45,103.45,0,0,1,116.19,126Z"/><path d="M109.28,135.24c-2-.42-11.53-1.84-10.46-4.59.41-.84,1.42-.59,2.12-.41a68,68,0,0,0,15.92,2.07,119.24,119.24,0,0,0,14-.77c1.78,0,4.79-1.5,5.44,1a1.76,1.76,0,0,1-1.42,2C126.43,135.66,117.78,136.6,109.28,135.24Z"/><path d="M116.25,100.07c-3-7.95-7.71-15.7-14.89-20.56-.75-.43-1.68-1.33-.93-2.18,2.1-1.43,5.68,1.82,7.32,3.09A39.61,39.61,0,0,1,118.1,95.34c3-6.12,7.55-11.22,12.42-15.92,1.45-1.16,2.58-3.23,4.54-3.49a1.61,1.61,0,0,1,1.66,1.93c-.32,1.37-1.86,2.1-2.73,3.08a64.43,64.43,0,0,0-10.52,12.27c-1.64,2.38-2.38,5.46-4.5,7.46A2,2,0,0,1,116.25,100.07Z"/><path d="M157,283c9.76-.87,19.41-3,29-4.92,2.26-.62,5-.68,6.69-2.54,2-3,1.51-6.79,1.48-10.18-.31-8.15-1.42-16.36.11-24.46,1.13-6.3,0-12.62-.58-18.92-.55-4.52.71-8.89,1.41-13.3.66-5.53-.62-11-1.08-16.5-.45-6.76,1.77-13.48.33-20.21-.87-5.2-2.76-10.16-3.94-15.28-.89-4.46,0-9-.51-13.52-.33-4.75-1.47-9.82-1.18-14.53a142.56,142.56,0,0,0,1.4-19.47c.62-7.19,5.19-13.33,6.52-20.4,2.46-9.86,1.69-20.16-.61-30-.3-1-.52-2.14-.9-3.16a1.34,1.34,0,0,0-1.56-.75,1.32,1.32,0,0,0-.95,1.43c.42,2.08.81,4.15,1.1,6.26,1,7.6,1.34,15.55-.27,23-1.28,7-5,12.85-6.82,19.6-.92,4-.46,8.19-.77,12.29-.26,4.25-1.31,8.41-1.4,12.67s.94,8.53,1.23,12.81c.42,4.67-.5,9.38.31,14,1.4,6.3,4.09,12.46,4.43,19,.33,5.32-1.35,10.52-1,15.84.16,3.75.94,7.44,1.18,10.87.71,6.39-2.29,12.31-1.56,18.67.27,5,1.39,10,1.11,15-.55,5.17-1.71,10.3-1.29,15.54,0,6.87,1.58,13.88.44,20.7-7.56,1.39-15.1,3-22.72,4.09-4,.5-8.12,1.65-12.2,1.11-1-.16-1.64-.61-1.67-1.67-.6-2.23-.86-4.53-1.29-6.8-.45-2.48-.93-5-1.4-7.43-4.84-21.94-3-44.73-8.29-66.61a164.43,164.43,0,0,1-3.75-50.8c.76-10.08,1.61-19.54,1.33-29.53-.49-17.62-2.11-35.19-2.91-52.8-.24-11-1-22.37,1.54-33.16,10.16-3.49,26.77-16.6,30.17-26.82.36-1.05-.4-2.52-1.66-2.14a2.86,2.86,0,0,0-1.36,1.14c-1.44,2-2.94,3.92-4.57,5.76a86.88,86.88,0,0,1-12,11c-3.41,2.58-6.8,5.4-10.85,7-3.93.1-4.34,4.55-4.77,7.56a152.6,152.6,0,0,0-.91,21.27c.42,23.36,3.12,46.66,2.66,70-.58,14-2.49,27.62-1.93,41.6.26,11.35,2.69,22.59,5,33.63,3.34,14.72,3.73,29.81,4.74,44.78.73,9.32,2.73,18.53,4.59,27.67C148.5,278.43,147.33,282.84,157,283Z"/><path d="M213,30.66c2.61-2.41-3-6.71-4.63-8.45-8.69-7.63-19.12-13-29.6-17.84a87.44,87.44,0,0,0-10.37-4c-.82-.32-2.13-.28-2.3.8-.12.91.73,1.4,1.41,1.8,4.34,2.38,8.85,4.48,13.22,6.8,8.69,4.51,17.27,9.43,24.74,15.74C207.55,26.79,210.42,32.44,213,30.66Z"/><path d="M136,42.47c14.52-3.38,27.45-12.19,37-23.39,2.11-2.74,7.53-9.36,6.81-12.72C178,3.77,176.41,8,175.52,9.17A74.67,74.67,0,0,1,148.5,34a54.85,54.85,0,0,1-13.3,4.83A1.85,1.85,0,0,0,136,42.47Z"/><path d="M172.82,16.94c.93-.89-4.28-5.68-5-6.71C166.65,9,165.5,7.69,164.2,6.55a.64.64,0,0,0-.91-.11c-.77.72.49,1.31.87,1.84,2.58,2.73,4.87,5.76,7.65,8.3C172.08,16.84,172.43,17.24,172.82,16.94Z"/><path d="M162.88,27c.72-.47.07-1.26-.24-1.78-.78-1.3-1.68-2.71-2.5-3.88-.52-.75-6.29-8.91-6-5.06a116.59,116.59,0,0,1,7.34,9.82C161.77,26.54,162.19,27.35,162.88,27Z"/><path d="M151.91,33.8c2.1-.49-3.62-10-4.32-11.38a.87.87,0,0,0-1.73-.14A92.56,92.56,0,0,0,150,31.52C150.51,32.27,150.72,34,151.91,33.8Z"/><path d="M144,39.11a.81.81,0,0,0,.67-.93c-.24-1.71-.65-3.59-1-5.22-.38-1-1.67-8.28-3.05-7.26a.52.52,0,0,0-.13.68c.37,1.81.74,3.63,1.13,5.44.49,2.21,1,4.4,1.45,6.62A.84.84,0,0,0,144,39.11Z"/><path d="M61,123.83a.36.36,0,0,1-.16-.48c1.68-3.45,4-6.81,4.61-10.63a4.08,4.08,0,0,0-1.1-3.15c-.86-1.27-1.7-2.55-2.55-3.83C54.47,94.72,47.81,83.21,42.87,71c-.13-.58-1-1.37-.29-1.79a.47.47,0,0,1,.61.34c.39,1,.8,1.88,1.18,2.85,4.68,11.48,11,22.16,17.68,32.6,1.32,2.67,4.62,5.22,3.9,8.39-.76,3.71-2.78,7-4.51,10.33A.36.36,0,0,1,61,123.83Z"/><path d="M63.65,195.35c-5.43-7.28-11.25-14.43-14.84-22.86-.12-.59-1.05-1.39-.42-1.87a.43.43,0,0,1,.6.24c3.54,8.93,9.66,16.4,15.33,24A.4.4,0,0,1,63.65,195.35Z"/><path d="M71.29,235.37a.42.42,0,0,1-.05-.58c1.13-1.41,2.24-2.84,3.32-4.26q4.08-5.35,8-10.8c4.12-5.36,7.09-11.44,10.31-17.34a.36.36,0,0,1,.61.4,123.71,123.71,0,0,1-13.85,22.32c-1.58,2.14-3.2,4.3-4.81,6.4-1,1.28-2,2.55-3,3.81A.4.4,0,0,1,71.29,235.37Z"/><path d="M175.27,123.83a.37.37,0,0,0,.16-.48c-1.68-3.45-4-6.81-4.61-10.63a4.08,4.08,0,0,1,1.1-3.15c.86-1.27,1.7-2.55,2.55-3.83,7.28-11,13.94-22.53,18.89-34.79.13-.58,1-1.37.29-1.79a.47.47,0,0,0-.61.34c-.39,1-.8,1.88-1.18,2.85-4.68,11.48-11,22.16-17.68,32.6-1.32,2.67-4.62,5.22-3.91,8.39.77,3.71,2.78,7,4.52,10.33A.36.36,0,0,0,175.27,123.83Z"/><path d="M172.58,195.35c5.43-7.28,11.24-14.43,14.84-22.86.11-.59,1.05-1.39.42-1.87a.43.43,0,0,0-.6.24c-3.54,8.93-9.66,16.4-15.33,24A.4.4,0,0,0,172.58,195.35Z"/><path d="M164.94,235.37a.43.43,0,0,0,.05-.58c-1.13-1.41-2.24-2.84-3.33-4.26q-4.07-5.35-8-10.8c-4.12-5.36-7.09-11.44-10.32-17.34a.36.36,0,0,0-.6.4,123.71,123.71,0,0,0,13.85,22.32c1.58,2.14,3.2,4.3,4.81,6.4q1.47,1.92,3,3.81A.4.4,0,0,0,164.94,235.37Z"/><path d="M75.81,266.84A69.54,69.54,0,0,1,55.92,263c-3.93-1.54-8.32-2.83-11.49-5.68a.86.86,0,0,1,.24-1.1c.4-.3.84-.11,1.24.07,1.09.53,2.18,1.05,3.3,1.53a79.4,79.4,0,0,0,14.31,4.72c7.18,1.49,14.74,2.38,21.92.75.94-.39,2.22-.84,2.82.31C90.07,267.25,77.84,266.77,75.81,266.84Z"/><path d="M50.18,276.33c-1.67-.26-.75-2.48-.76-3.61a69.26,69.26,0,0,1,2.63-12c.15-.77,1.07-1.36,1.59-.53.2,2-.61,4-.83,6-.44,2.55-.87,5.09-1.3,7.64C51.28,274.72,51.44,276.3,50.18,276.33Z"/><path d="M61.77,278.25c-2.22-.23-.34-4.18-.24-5.58a47,47,0,0,1,2.56-8,1.12,1.12,0,0,1,.57-.65c2-.54.08,4.06,0,5.07-.42,1.89-.88,3.77-1.29,5.63C62.91,275.83,63.45,278.13,61.77,278.25Z"/><path d="M74.52,278.43c-.33-1.38,0-14,2.4-12.54.38.35.3.89.29,1.36-.06,1.55-.22,3.1-.29,4.66-.18,2.14-.13,4.32-.34,6.44A1.09,1.09,0,0,1,74.52,278.43Z"/><path d="M159.64,266.84A69.6,69.6,0,0,0,179.53,263c3.92-1.54,8.32-2.83,11.48-5.68a.85.85,0,0,0-.23-1.1c-.4-.3-.84-.11-1.24.07-1.09.53-2.19,1.05-3.3,1.53a79.24,79.24,0,0,1-14.32,4.72c-7.17,1.49-14.74,2.38-21.91.75-.94-.39-2.23-.84-2.83.31C145.38,267.25,157.6,266.77,159.64,266.84Z"/><path d="M185.26,276.33c1.67-.26.76-2.48.76-3.61a70.17,70.17,0,0,0-2.62-12c-.15-.77-1.08-1.36-1.59-.53-.21,2,.61,4,.83,6,.43,2.55.86,5.09,1.3,7.64C184.17,274.72,184,276.3,185.26,276.33Z"/><path d="M173.68,278.25c2.21-.23.34-4.18.24-5.58a47,47,0,0,0-2.57-8,1.05,1.05,0,0,0-.57-.65c-2-.54-.07,4.06,0,5.07.41,1.89.87,3.77,1.29,5.63C172.54,275.83,172,278.13,173.68,278.25Z"/><path d="M160.92,278.43c.34-1.38,0-14-2.39-12.54-.38.35-.31.89-.3,1.36.07,1.55.22,3.1.3,4.66.18,2.14.13,4.32.34,6.44A1.08,1.08,0,0,0,160.92,278.43Z"/></g></g></g></g></svg>