<svg xmlns="http://www.w3.org/2000/svg" viewBox="0 0 224.32 39.75"><defs><style>.cls-1{fill:#ffbe0a;}.cls-2{fill:gray;}.cls-3{fill:#a6a6a6;}</style></defs><g id="Layer_2" data-name="Layer 2"><g id="Nose_Earring" data-name="Nose/Earring"><path class="cls-1" d="M17.51,1.31a15.47,15.47,0,0,0-6.06,2.61,16.4,16.4,0,0,0-3.59,2.7,16,16,0,0,0-2.49,4.1A44,44,0,0,0,3,16.43a23.37,23.37,0,0,0,1.1,16.83,6.58,6.58,0,0,0,2.44,3.05,13.94,13.94,0,0,0,2.93.95c1.22.39,2.4,1.08,3.68,1a6.17,6.17,0,0,0,2.36-.86c2.4-1.27,4.85-2.58,6.6-4.65a21,21,0,0,0,2.62-4.41c1.44-2.95,2.9-6.31,1.8-9.4a5.6,5.6,0,0,1-2-.41c-1.32,4.31-1,6.42-4.13,9.68-.77.82-3.41,4.7-4.36,5.29s-3.74-.79-4.85-1a4.7,4.7,0,0,1-2.36-1.31c-2.39-2.29-3-6-2.44-9.21s2.29-6.19,4-9a38.51,38.51,0,0,1,7.43-9.42c.7-.59,1.5-1.52,1-2.28S17.41.8,17.51,1.31Z"/><path class="cls-2" d="M123.23,13.94a3.68,3.68,0,0,1,.26-1.31,1.35,1.35,0,0,1,1-.82,2,2,0,0,1,1.49.71,2,2,0,0,1,.79,1.28,2,2,0,0,1-.78,1.37,1.46,1.46,0,0,1-.86.51,1.13,1.13,0,0,1-.62-.16,2,2,0,0,1-.88-.76C123.35,14.28,123.41,13.7,123.23,13.94Z"/><path class="cls-1" d="M205.19,1.47a1.51,1.51,0,0,1,1.35-.81,4.08,4.08,0,0,1,1.6.38,22.89,22.89,0,0,1,11.52,9.42,33.07,33.07,0,0,1,2.48,5.92,21.08,21.08,0,0,1,1.28,5.16,20.43,20.43,0,0,1-1.26,7.67c-.72,2.27-1.58,4.62-3.33,6.25a9.32,9.32,0,0,1-9.08,1.61,17.12,17.12,0,0,1-7.66-5.68,20.45,20.45,0,0,1-5-11.58c.84,0,1.67,0,2.51,0a18.38,18.38,0,0,0,2.78,6.6,19.53,19.53,0,0,0,3.44,4.33,9.31,9.31,0,0,0,4.89,2.43,4.74,4.74,0,0,0,3.08-.49c1.47-.88,2.08-2.7,2.4-4.38a26.37,26.37,0,0,0-1.47-14.85A27.73,27.73,0,0,0,205.19,1.47Z"/><path d="M27.07,16.71A16.16,16.16,0,0,1,24.93,16c-.3-.12-.6-.26-.9-.4-.26,1.16-.58,2.31-.87,3.45-.9,3.29-1.92,6.73-4.05,9.47-2.53,3.2-7.37,6.17-9.48.89C7.75,23.3,10.07,13.57,14,8.55A24.31,24.31,0,0,1,18.2,4.36c1-.8,3.39-1.86,2.21-3.47C19.2-.44,17,0,15.41.4A19.4,19.4,0,0,0,5.69,7.48C-2,16.73-3.25,35.2,10.45,39.38,16.18,41,21.18,37,24,32.26a24.66,24.66,0,0,0,3.9-15.35Zm-5.43,14.9c-2.07,2.72-4.84,5.46-8.51,5.4C9,37,5.6,33.8,4,30.19-.28,20.31,6.48,4.36,17.43,2.13A26.25,26.25,0,0,0,7.67,16c-1.53,5.55-3.25,13,1.6,17.35,3.45,3.14,8.44.67,11.08-2.34,3.23-3.6,4.37-8.43,5.58-13C25.8,22.88,24.67,27.72,21.64,31.61Z"/><path d="M218.63,7.48A19.42,19.42,0,0,0,208.92.4c-1.58-.39-3.8-.84-5,.49-1.18,1.61,1.26,2.67,2.21,3.47a24.31,24.31,0,0,1,4.17,4.19c4,5,6.28,14.75,4.4,20.88-2.1,5.28-6.95,2.31-9.48-.89-2.13-2.74-3.15-6.18-4.05-9.47-.17-.69-.36-1.38-.54-2.08a15.55,15.55,0,0,1-4,.57l-.22.16a24.44,24.44,0,0,0,3.93,14.54c2.84,4.74,7.83,8.73,13.56,7.12C227.57,35.2,226.31,16.73,218.63,7.48ZM211.19,37c-3.66.06-6.44-2.68-8.51-5.4-3-3.89-4.16-8.73-4.29-13.56,1.21,4.56,2.35,9.39,5.58,13,2.64,3,7.63,5.48,11.08,2.34,4.85-4.37,3.13-11.8,1.6-17.35a26.29,26.29,0,0,0-9.75-13.9c10.94,2.23,17.7,18.18,13.41,28.06C218.72,33.8,215.31,37,211.19,37Z"/><path class="cls-3" d="M122.8,15.49a3.4,3.4,0,0,1-.33-3.25,2.35,2.35,0,0,1,.79-1,2.13,2.13,0,0,1,1-.37h0a2.16,2.16,0,0,1,1.1.13,2.53,2.53,0,0,1,1,.49,3.34,3.34,0,0,1,1.12,3.05,3,3,0,0,1-.64,1.39,2.17,2.17,0,0,1-1.35.76,1.73,1.73,0,0,1-.32,0A2.86,2.86,0,0,1,122.8,15.49Zm2.34-.5h.12l.06,0,.06,0,.05,0,.09-.1,0-.07v0s0-.09,0-.14l0-.17a2,2,0,0,0,0-.34,1.48,1.48,0,0,0,0-.21,2,2,0,0,0,0-.24,2.58,2.58,0,0,0-.08-.26l-.12-.24-.11-.17-.14-.15-.11-.1-.11-.08-.07,0h-.21l0,0,0,0h0l-.07.08-.07.09-.08.15-.06.17a1.84,1.84,0,0,0,0,.25,1.1,1.1,0,0,0,0,.18,1.55,1.55,0,0,0,0,.22,2.74,2.74,0,0,0,0,.28,1.59,1.59,0,0,0,.07.2,2.14,2.14,0,0,0,.1.22c0,.07.09.14.14.21l.12.14.08.07.08.06h0l.09,0h.13Z"/></g></g></svg>