<svg xmlns="http://www.w3.org/2000/svg" xmlns:xlink="http://www.w3.org/1999/xlink" viewBox="0 0 317.44 439.91"><defs><style>.cls-1{isolation:isolate;}.cls-2{fill:url(#linear-gradient);}.cls-3{fill:url(#linear-gradient-2);}.cls-4,.cls-5{fill:#4a2015;mix-blend-mode:multiply;}.cls-4{opacity:0.54;}.cls-5{opacity:0.38;}.cls-6{fill:none;stroke:#000;stroke-linecap:round;stroke-linejoin:round;stroke-width:3px;}.cls-7{fill:#9f6d3a;mix-blend-mode:screen;opacity:0.43;}</style><linearGradient id="linear-gradient" x1="158.11" y1="44.25" x2="158.11" y2="508.64" gradientUnits="userSpaceOnUse"><stop offset="0" stop-color="#633221"/><stop offset="1" stop-color="#955d2f"/></linearGradient><linearGradient id="linear-gradient-2" x1="220.92" y1="202.87" x2="220.92" y2="285.91" xlink:href="#linear-gradient"/></defs><g class="cls-1"><g id="Layer_2" data-name="Layer 2"><g id="Layer_203" data-name="Layer 203"><path class="cls-2" d="M313.24,309.51c-10.83-19.52-22-40.35-21-62.65.43-9.89.74-21.21,2-31l1-3.19c2-15.76,1.3-27-3.28-42.18S279.44,144.35,271,130.33c-6-11.34-6.3-28-7.88-40.66A82.17,82.17,0,0,0,251,55.51l-.89-1.34c-7.7-18.4-20.48-27.57-37.15-38.53S171.28-.09,159.21,2c-6.2-1.22-13.61-2.09-21,.25C122,7.38,108.75,9.66,95.65,20.51c-11.12,9.21-23.21,21.88-28.6,35.28C55.94,74.32,55.94,93.1,49.47,114.73,42.71,137.31,27.33,156.89,22.78,180c-3.24,16.49-.71,33.49,1,50.22s2.44,34.22-4.06,49.72A142.81,142.81,0,0,0,5.8,310c-3.55,11-5.48,22.69-4.29,34.21S7.16,367,15.14,375.42a16.53,16.53,0,0,0,5.61,4.19,55.41,55.41,0,0,0,8.66,25c8.82,14,22.81,23.84,37.36,31.64a21.21,21.21,0,0,0,6.41,2.54,7.68,7.68,0,0,0,6.49-1.62,29.32,29.32,0,0,1-9.19-25.59,27.69,27.69,0,0,0,14.88,13.62c-2.8-5.3-1.55-11.72-.55-17.64s1.44-12.67-2.46-17.23c10.66,2.05,18.82,12.95,17.79,23.76,4.82-3.5,5.52-10.37,5.09-16.31a78.62,78.62,0,0,0-8.94-31.16c-4.65-8.75-11.18-17.52-10.24-27.39a37.63,37.63,0,0,0,30.28,20.42C108.41,358.9,98,353.58,95.42,343c-3.68-15.17,1.31-33.22,6.21-42.77s4.07-27.35.08-40.25c-3.16-10.26-8.94-33-13.86-42.56-5.16-5.76-9.94-28.54-13.29-43-2.53-10.9,3.68-31.78,6.9-37.23a243.9,243.9,0,0,1,18.09-27.14c11.51-14.9,17.67-18,31.12-31.14,11.45-11.24,18.25-20.5,26.81-32,3.11,8.85,20.53,25.28,27.1,32S199.22,93.16,206,99.68c12.26,11.87,22.81,25.61,28.74,41.45l-.16.8a1.63,1.63,0,0,1,.42.52l.07-.37c.72,2,1.37,4,1.93,6,5.2,18.81,2.48,42.95-7.56,59.89-3.57,6.85-7.59,15.17-12.33,21.92l2.33-11.4a1.62,1.62,0,0,1-.28.39l-2.26,11.31a52.22,52.22,0,0,1-3.39,4.32c-6.35,7.21-2.26,20.06-3.85,29.53-1.75,10.46-.9,26.44,4.19,35.73s1.21,10,5.3,19.78,2,19.8-2.67,29.75c-2.47,6.25-12.35,10-15.6,10.83a46.41,46.41,0,0,0,31.38-20.37c-1.2,8.87-5.15,17.1-9.25,25.05s-8.45,15.91-10.55,24.61-1.7,18.42,3.22,25.89a29.86,29.86,0,0,1,20.17-24.76c-3.94,4.16-3.8,10.63-3,16.3s1.82,11.8-.89,16.84a28.33,28.33,0,0,0,15.26-11.3c.29,9.64-4.64,18.58-9.73,26.77,29.44-6.41,54.16-30.89,60.86-60.27,9.42-7.7,14.61-19.68,16.17-31.75S314.28,322.84,313.24,309.51Z"/><path class="cls-3" d="M209.34,272.53a69.8,69.8,0,0,1,7.63-49c5.53-9.61,13.41-18,17-28.47-2.12,13.51-7.55,26.24-12.62,38.95s-9.85,25.79-10.57,39.45C210.19,271.67,209.57,269.84,209.34,272.53Z"/><path class="cls-4" d="M107.73,70.22C96.57,80.15,89.85,94,83.4,107.48q-8.07,16.9-16.16,33.81c-2.54,5.31-5.11,10.74-5.78,16.59s.91,12.28,5.45,16c-4.55-9.7-1.82-21.35,3.15-30.84s12-17.81,16.74-27.43c3.92-8,6.15-16.68,10-24.66s10-15.52,18.51-18.09"/><path class="cls-4" d="M77.18,39.42C65.45,51,62.18,68.53,61.14,85s-.52,33.47-6.85,48.67c-9,21.74-31.55,38.79-30.94,62.33-2.16-14.23,3-28.56,9.4-41.43s14.33-25.17,18.38-39c3.63-12.38,4-25.47,6.31-38.17s7-25.74,17-33.86"/><path class="cls-4" d="M104.34,102.65C89.49,115.71,73.91,129.91,68.77,149c-5.79,21.49,3.58,45.09,19.61,60.53-13.24-14.29-17-35.62-13.14-54.71s14.44-36.21,26.85-51.22"/><path class="cls-4" d="M23.25,220.26c7.52,11.9,8.11,27.07,5.24,40.85S19.6,287.77,14.6,300.93,5.52,328,6.8,342.05C3.08,328.9,6,314.76,10.57,301.89s10.91-25.16,14.35-38.39,3.68-28.07-3.39-39.77"/><path class="cls-4" d="M31.11,399.14a48.64,48.64,0,0,1-6.47-40,60.66,60.66,0,0,0,18.29,39,86.07,86.07,0,0,1-10.3-62.69,109.77,109.77,0,0,0,29.36,80,110.34,110.34,0,0,1-9.15-48.15l11.64,39.23a56.16,56.16,0,0,1,2-25.65,59.69,59.69,0,0,0,13,26.5,51.5,51.5,0,0,1-1.82-19.52,55.2,55.2,0,0,1,6.17,30.9l2,5.46a29.56,29.56,0,0,1-16.35-10.91A29.62,29.62,0,0,0,80.2,437.22c-7.63,1.39-15.63-.33-22.55-3.86s-12.83-8.76-18-14.54C29,406.94,21,391.71,21.58,375.77A43.83,43.83,0,0,0,31.9,397.09"/><path class="cls-4" d="M71.4,206.31c7.11,13.29,14.85,26.42,19.08,40.89s4.62,30.76-2.66,44c14.83-19.39,14.87-48.74.09-68.16-3.79-5-8.41-9.33-11.69-14.65s-5.08-12.11-2.59-17.85"/><path class="cls-4" d="M237,148.09c6.88,13.06,4.22,29.24-1.75,42.74s-15,25.47-21.17,38.87-9.36,29.39-3.12,42.77c-4.63-10.44-1.86-22.8,3.42-32.92s12.9-18.83,18.7-28.67a93,93,0,0,0,9.72-70"/><path class="cls-4" d="M254.36,178.85c.7,16.12-8.67,30.68-16.4,44.84s-14.18,31.3-7.61,46c-1.9-12,2.62-24.18,8.47-34.87s13.14-20.66,17.57-32,5.64-24.84-.66-35.28"/><path class="cls-4" d="M188.42,47.58C207.81,54.7,220,77.43,215.16,97.51a73,73,0,0,0-25.42-48.2"/><path class="cls-4" d="M217.2,410.31c-6.66-7.34-5.06-19.25.15-27.68s13.24-14.67,19.72-22.16,11.61-17.48,9.1-27.07a53.38,53.38,0,0,1-8.06,41.85,94.78,94.78,0,0,1,22.76-26.83,77.07,77.07,0,0,1-25.6,39.77c-4,3.24-8.32,6.13-11.56,10.1s-5.26,9.42-3.63,14.29"/><path class="cls-4" d="M242.09,434.51c15.93-7.73,25-24.85,30.58-41.65s8.86-34.65,18.07-49.77q-6.33,31.57-12.65,63.13l14.43-40.79c6.63,16.13.34,35.39-11.5,48.2s-28.29,20.3-44.7,26.22"/><path class="cls-4" d="M287.55,194.67a184.5,184.5,0,0,0-7.6,76.24c-1.7-14,3.53-27.82,7.71-41.31s7.31-28.47,1.68-41.42"/><path class="cls-4" d="M290.2,265.6c-2.41,15.07,4.73,29.78,10.4,43.95s9.81,30.95,2.07,44.1c7.66-8.09,8.88-20.57,6.42-31.43s-8-20.73-12.49-30.93-8-21.4-6-32.36"/><path class="cls-4" d="M247.31,239.18a121.86,121.86,0,0,0,2,86.3c-5.22-33.66-.69-68,3.85-101.74"/><path class="cls-4" d="M232.51,39.09c8.46,2.85,12.77,12.37,14,21.22s.32,18,3,26.58c2.54,8.27,8.16,15.22,11.66,23.13s4.43,18.18-1.62,24.36c5.16-8.4,1.85-19.46-3.28-27.87s-12-16.07-14.45-25.63c-1.85-7.4-.79-15.19-1.3-22.8s-3.21-15.92-9.93-19.54"/><path class="cls-4" d="M55.82,211.54a104.77,104.77,0,0,1,10.44,69.75c.16-1.23.31-2.47-3-3.56A149.27,149.27,0,0,0,54.9,214.4"/><path class="cls-5" d="M156.45,52a207,207,0,0,1-24.87,25.31,131.57,131.57,0,0,0,19.21-24.17,133.25,133.25,0,0,1-17.56,17.76,134,134,0,0,0,12.32-21,195.18,195.18,0,0,1-16.73,20.33l16.67-22.61A55.21,55.21,0,0,0,127.9,66.85a62.73,62.73,0,0,1,16.67-24.22,63.44,63.44,0,0,0-24.66,20.95,122.15,122.15,0,0,1,19.85-23.33A73.57,73.57,0,0,0,111.6,66.57a80,80,0,0,1,31.27-34.06,66.24,66.24,0,0,0-28.4,19.7A101.06,101.06,0,0,1,136,31.31,90.1,90.1,0,0,0,113.79,48a105.54,105.54,0,0,1,22.12-19.13,73.23,73.23,0,0,0-32.72,27.21,91.49,91.49,0,0,1,32.68-32A54.16,54.16,0,0,0,108.51,42.2a59.46,59.46,0,0,1,21.14-20.52c-14.12,5.29-26.23,14.69-34,26.4,8.64-16.71,25.58-29.89,45.39-35.3C127.34,14,114.25,19.87,105,28.87A67.41,67.41,0,0,1,125.57,15,51.69,51.69,0,0,0,100.23,30.1C109.15,18,123.73,9.39,139.69,6.69a75.12,75.12,0,0,0-27.11,6.13,76.5,76.5,0,0,1,45.35-10.7c16.58-3.14,34.62.34,48.24,9.31a102.45,102.45,0,0,0-27.95-4.62c13.47.9,26.39,7,34.74,16.44a78.08,78.08,0,0,0-23.05-10.17C197,16.46,204.26,19.92,210,25A70.32,70.32,0,0,0,182.1,13.91a92.44,92.44,0,0,1,14.29,6.3c4.45,2.6,8.42,6,10.69,10.3a58.48,58.48,0,0,0-31.93-11.94A42.64,42.64,0,0,1,196.2,30a40.85,40.85,0,0,0-17.65-6.45c9.23,3.19,16.62,10.3,19.47,18.73A51.15,51.15,0,0,0,177.2,29a47.61,47.61,0,0,1,16.27,14.71,50.34,50.34,0,0,0-19.58-11c4.51,2.52,9.06,5.07,12.8,8.43s6.66,7.67,7.13,12.37a56.09,56.09,0,0,0-21.27-17c11.79,6.4,20.7,16.86,24.43,28.68-5.46-9.55-14.9-17.25-26.08-21.28A28.92,28.92,0,0,1,184.28,55.8a48.18,48.18,0,0,0-17.84-9.88c11.94,5.17,21,15.24,24.11,26.7a72.4,72.4,0,0,0-24-20.79,47.53,47.53,0,0,1,17.69,20A118.06,118.06,0,0,0,168,57.36l22.52,25.91A111.93,111.93,0,0,1,156.45,52Z"/><path class="cls-4" d="M76.17,291.43c-5,13.13-10.07,26.64-9.93,40.69S73,361.07,85.69,367c-10.15-10.43-10.86-26.71-9.38-41.19s4.47-29.54-.37-43.27"/><path d="M203.39,360.87c15.92-1.72,29.87-14.78,33.15-30.39,2-10.64-1.31-21.16-3.06-31.58-1.28-8.18-.74-16.92,2.9-24.43a97.51,97.51,0,0,1,4.63-8.85,1,1,0,0,0-.37-1.42c-1.54-.94-2.61,2.89-3.42,3.8a45.33,45.33,0,0,0-7.38,25.09c.19,11.4,5,22.5,3.41,34-2,16-16.08,28.85-31.62,31.64-.93.12-2.78.82-1.72,1.95C200.93,361.24,202.26,360.92,203.39,360.87Z"/><path d="M218.29,417.83a1.31,1.31,0,0,0,.34-1.69,65.2,65.2,0,0,1-3.46-5.71c-7.44-15.63,1.62-32.42,10.4-45.41,4.17-6.53,6.23-14.07,7.16-21.7,0-1.4,1.56-6.53-.52-6.37-1.67.4-1.88,5.44-2.42,7a56.27,56.27,0,0,1-4.7,14c-3.11,6-7.36,11.46-10.35,17.54a50.54,50.54,0,0,0-5.62,23.31,29.15,29.15,0,0,0,5.33,16.36C215.42,416.3,216.59,418.84,218.29,417.83Z"/><path d="M218.26,417.5a1.52,1.52,0,0,0,.59-1.42c-.44-5.55.51-11.35,4.62-15.38l0,0,0,0c4.93-5.2,11.51-8.4,17-12.91a69.09,69.09,0,0,0,10.24-10c10.85-13.17,17.09-30.57,15.64-47.69-.78-10-5.29-19.15-8.83-28.4a45.86,45.86,0,0,1-2.26-12.86c-.13-2-.18-4-.19-6a1,1,0,0,0-2,0c.14,5.2-.16,10.45.84,15.52,1,4.5,2.93,8.72,4.49,13,10.18,23.26,2.47,50.08-14.95,67.65-8.76,9.77-25.28,14.49-27.4,28.87C215.78,409.83,215.6,418.72,218.26,417.5Z"/><path d="M241.44,439.74c5.73-.92,11-3.63,16.21-6.1,17.22-8.33,30.63-23.66,37.76-41.3,5.83-15,5.54-31.73,2.89-47.4-2.18-12.57-6.87-24.5-11.52-36.32-5.1-14.16-14.41-33.94-4.17-47.54.09-.11.24-.11.35-.23a.51.51,0,0,0-.28-.85c-1.4,0-2.27,1.54-3.06,2.53-7.62,11.72-3.23,26.6.81,38.85,9.43,25.4,18.5,48,14.78,75.74-3.78,27.49-25.39,50-50.8,59.47a17.81,17.81,0,0,1-6.44,1,1.07,1.07,0,0,0-1.05.92C236.87,440.58,240.17,439.74,241.44,439.74Z"/><path d="M237.32,438.61c2.32-.84,3.79-3.16,5.19-5.08,6.26-9.2,7.9-21.38,5.12-32.08a1.16,1.16,0,0,0-2.26.46c1.11,9,.53,18.26-3.71,26.36a61.14,61.14,0,0,1-4.79,7.73c-.42.58-1.16,1.3-.71,2.07A1.15,1.15,0,0,0,237.32,438.61Z"/><path d="M232.53,425.73c6.34-2.23,12.73-6.46,15.42-12.86.24-.85.94-2.49-.27-2.84a.77.77,0,0,0-.68.27,36.46,36.46,0,0,1-13.37,12.27c2.69-8.7.17-18.13,1.78-26.89.09-2.1,3.89-7.61,1.85-8.74a1.44,1.44,0,0,0-1.84.41,7,7,0,0,0-2.46,3.14c-3.67,8.17-1.08,17.16-1.51,25.72a33.45,33.45,0,0,1-.95,6C229.86,423.86,230.28,426.15,232.53,425.73Z"/><path d="M314.83,317.2c-4.12-16.79-13.89-31.57-19.08-48-4.62-15.27-1.49-31.34.74-46.75a125.17,125.17,0,0,0,.62-33.65A113.9,113.9,0,0,0,287,155.66c-4.39-9.4-10.36-18.14-14.63-27.51-3.87-9-5.74-18.11-6.89-27.6-3.45-37.33-21.36-69-55.13-88.1-12.45-7-26.45-12.09-41-12.43-2.15-.08-10,0-11.79,1.54l.33,0a1.41,1.41,0,0,1,.53.12l-.14,0,.33.13a2.87,2.87,0,0,1,.6.26,1.14,1.14,0,0,1,.35.34c.48,0,1-.09,1.45-.12C180.19,1.19,199,8.54,214.54,19c31,20.74,44.27,50.43,47.35,86.06a88.53,88.53,0,0,0,11.6,34.85c10.19,17,18.8,35.39,20,55.31,2.22,28-10.89,55.1,1.25,82.17,5.91,14.38,13.9,28.21,17.17,43.43,3.67,18.18,3,39.38-9.92,54a35.44,35.44,0,0,1-5.21,4.73,1.41,1.41,0,0,0-.26,2,1.5,1.5,0,0,0,2,.26C318,366.62,320.39,339.31,314.83,317.2Z"/><path d="M244.9,196.68c7.84-23.05,3.43-48.86-8.71-69.6C224,106.14,205.89,89.6,190,71.58c-6.87-8.08-14.35-16.12-18.61-25.95-.06-.29-.26-.64-.61-.53a.52.52,0,0,0-.28.69,31.1,31.1,0,0,0,3.78,7.83c5.24,8.44,11.76,16,18.35,23.39,16.2,18.09,34.44,35,45.71,56.85,8.85,17.56,12.3,38.39,7,57.51-.46,1.68-.94,3.35-1.42,5a.54.54,0,1,0,1.05.29Z"/><path d="M211,280a.89.89,0,0,0,.62-1.09,96,96,0,0,1-2.93-12.9c-2.13-12.8.52-26.06,6.25-37.61v0a.05.05,0,0,1,0,0c7.14-14.34,18.8-26.74,21.87-42.88a.29.29,0,0,0-.57,0c-.31,1.36-.8,2.72-1.24,4-5.15,15.81-17.57,27.75-24,42.93a60.7,60.7,0,0,0-2.43,41.85q.61,2.53,1.38,5A.89.89,0,0,0,211,280Z"/><path d="M237.76,252.45c2.11-5.66,4.4-11.27,7.06-16.7,4.3-8.53,9.64-16.49,13.75-25.12,9.67-18.94,11.9-41.79,4.27-61.82-6-17.06-20.58-29.52-26.21-46.76-2.55-7-3.32-14.63-5.63-21.61-2.63-8.06-7.56-15.13-13.07-21.48a172.6,172.6,0,0,0-22-20.78c-6.47-5.55-13.57-10.4-18.87-17.06-.2-.26-.33-.72-.73-.59a.36.36,0,0,0-.19.47,17,17,0,0,0,3.09,4.3c4.94,5.29,10.67,9.76,16.16,14.45,8.65,7.26,17,15,24,23.87a60.49,60.49,0,0,1,10.2,18c2.26,6.79,3.06,14,5.53,20.7,3.48,10.6,10.29,19.63,16.54,28.71,17.52,24.35,18.39,55,4.31,81.13-3.26,6.52-7.1,12.72-10.58,19.12-3.62,6.56-6.22,13.63-8.88,20.62a.67.67,0,0,0,.36.86A.65.65,0,0,0,237.76,252.45Z"/><path d="M268,399c.71-7,1.11-14.18,3.54-20.85,2.89-7.88,6.83-15.47,8.2-23.83,4.24-23.8-8.59-45.78-15.14-67.87-5.31-16.78-4.18-33,1.21-49.62,3.09-10,6.3-20.24,5.64-30.83-.11-2.28-.23-4.56-.52-6.83a.38.38,0,0,0-.41-.31.36.36,0,0,0-.31.41,73,73,0,0,1,.26,11.92c-.49,6.75-2.31,13.29-4.31,19.72-4.61,14-8.42,28.72-5.9,43.49,4.63,29.88,27.35,57.91,15.51,89-2.09,5.92-5,11.56-6.69,17.61-1.53,5.81-1.94,11.86-2.53,17.82a.73.73,0,1,0,1.45.2Z"/><path d="M276.58,238.56c2-11.69,5.05-23.17,6.22-35,1.75-17.38-.24-35.67-8.22-51.38-.48-.63-.84-2.29-1.77-1.82a.53.53,0,0,0-.05.8,17.3,17.3,0,0,1,1.5,2.61c8.42,18,9.18,38.67,6.06,58-1.49,8.89-3.32,17.73-4.88,26.62A.58.58,0,0,0,276.58,238.56Z"/><path d="M304.37,342.93c.1-13-1.54-26.1-6.47-38.24-4.24-11.2-10.13-21.83-12.73-33.6-.2-.53,0-1.58-.8-1.49a.47.47,0,0,0-.32.57c.45,1.76.85,3.54,1.3,5.3,4.19,15.43,13.1,29.25,16,45.1a87.8,87.8,0,0,1,1.56,12.87c.2,3.16.33,6.32.36,9.49A.57.57,0,0,0,304.37,342.93Z"/><path d="M253.39,111.68c.84-.39-1-2.5-1.17-3.12a72.15,72.15,0,0,1-6.92-14.15c-3.54-10.19-4.43-21-7.31-31.29A90.12,90.12,0,0,0,186.55,5.57c-4.15-1.69-8.44-3.17-12.94-3.34a.5.5,0,0,0-.5.5.51.51,0,0,0,.62.48c4.54.18,8.84,1.8,13,3.52a88.72,88.72,0,0,1,49.95,57.64c3.41,13.57,4.51,27.89,11.77,40.16a73.87,73.87,0,0,0,4.28,7A.53.53,0,0,0,253.39,111.68Z"/><path d="M114.05,360.87c-15.93-1.72-29.87-14.78-33.15-30.39-2-10.64,1.3-21.16,3.06-31.58,1.28-8.18.73-16.92-2.9-24.43-1.47-3.13-2.91-5.94-4.63-8.85a1,1,0,0,1,.37-1.42c1.53-.94,2.6,2.89,3.41,3.8a45.26,45.26,0,0,1,7.39,25.09c-.19,11.4-5,22.5-3.41,34,2,16,16.07,28.85,31.62,31.64.93.12,2.77.82,1.71,1.95C116.51,361.24,115.17,360.92,114.05,360.87Z"/><path class="cls-6" d="M157.53,47c-12.94,20.11-31.82,35.51-48.47,52.67S77.2,137.37,74.88,161.17c-2.15,22.06,7,43.46,15.66,63.87s17.09,42.32,13.44,64.18c-1.51,9.09-5.07,17.7-7.56,26.58s-3.87,18.46-1,27.22,11.7,17,20.91,16.67"/><path class="cls-6" d="M157.48,47C170.42,67.12,189.3,82.52,206,99.68s31.85,37.69,34.17,61.49c2.15,22.06-7,43.46-15.66,63.87S207.38,267.36,211,289.22c1.51,9.09,5.07,17.7,7.56,26.58s3.87,18.46,1,27.22-11.69,17-20.91,16.67"/><path d="M99.14,417.83a1.32,1.32,0,0,1-.33-1.69c1.21-1.87,2.44-3.73,3.46-5.71,7.44-15.63-1.63-32.42-10.4-45.41-4.17-6.53-6.23-14.07-7.17-21.7,0-1.4-1.56-6.53.53-6.37,1.67.4,1.87,5.44,2.42,7a56.24,56.24,0,0,0,4.69,14c3.11,6,7.37,11.46,10.35,17.54a50.29,50.29,0,0,1,5.62,23.31A29.07,29.07,0,0,1,103,415.23C102,416.3,100.84,418.84,99.14,417.83Z"/><path d="M99.17,417.5a1.57,1.57,0,0,1-.59-1.42c.45-5.55-.5-11.35-4.61-15.38l0,0,0,0c-4.94-5.2-11.51-8.4-17-12.91a68.68,68.68,0,0,1-10.25-10C55.91,364.7,49.68,347.3,51.13,330.18c.77-10,5.28-19.15,8.83-28.4a46.22,46.22,0,0,0,2.26-12.86c.13-2,.18-4,.18-6a1,1,0,0,1,1-1,1,1,0,0,1,1,1c-.13,5.2.16,10.45-.84,15.52-1,4.5-2.92,8.72-4.49,13-10.17,23.26-2.46,50.08,15,67.65,8.76,9.77,25.27,14.49,27.4,28.87C101.66,409.83,101.84,418.72,99.17,417.5Z"/><path d="M76,439.74c-5.73-.92-11-3.63-16.22-6.1C42.57,425.31,29.15,410,22,392.34c-5.83-15-5.54-31.73-2.88-47.4,2.18-12.57,6.87-24.5,11.52-36.32,5.1-14.16,14.4-33.94,4.17-47.54-.1-.11-.25-.11-.35-.23a.5.5,0,0,1,.28-.85c1.39,0,2.27,1.54,3.06,2.53,7.61,11.72,3.22,26.6-.82,38.85-9.43,25.4-18.5,48-14.77,75.74,3.78,27.49,25.39,50,50.79,59.47a17.84,17.84,0,0,0,6.44,1,1.09,1.09,0,0,1,1.06.92C80.56,440.58,77.26,439.74,76,439.74Z"/><path d="M80.11,438.61c-2.31-.84-3.79-3.16-5.18-5.08-6.26-9.2-7.9-21.38-5.12-32.08a1.15,1.15,0,0,1,2.25.46c-1.11,9-.52,18.26,3.72,26.36A60,60,0,0,0,80.57,436c.42.58,1.15,1.3.71,2.07A1.16,1.16,0,0,1,80.11,438.61Z"/><path d="M84.91,425.73c-6.35-2.23-12.74-6.46-15.42-12.86-.25-.85-.95-2.49.26-2.84a.79.79,0,0,1,.69.27,36.46,36.46,0,0,0,13.37,12.27c-2.7-8.7-.17-18.13-1.79-26.89-.08-2.1-3.88-7.61-1.85-8.74a1.44,1.44,0,0,1,1.84.41,7.07,7.07,0,0,1,2.47,3.14c3.67,8.17,1.07,17.16,1.5,25.72a33.45,33.45,0,0,0,1,6C87.57,423.86,87.16,426.15,84.91,425.73Z"/><path d="M18.9,381.71C-.54,366.62-2.95,339.31,2.61,317.2c4.12-16.79,13.89-31.57,19.08-48,4.62-15.27,1.48-31.34-.74-46.75a124.36,124.36,0,0,1-.62-33.65,114.18,114.18,0,0,1,10.15-33.16c4.4-9.4,10.37-18.14,14.63-27.51,3.88-9,5.74-18.11,6.89-27.6,3.46-37.33,21.37-69,55.14-88.1C119.58,5.41,133.58.36,148.08,0c2.45-.09,12.41.05,12.16,2.26a.5.5,0,0,1-.59.3,20.5,20.5,0,0,0-3.22-.38c-19.18-1-37.95,6.34-53.54,16.75C71.92,39.69,58.62,69.38,55.54,105A88.35,88.35,0,0,1,44,139.86c-10.19,17-18.8,35.39-20,55.31-2.22,28,10.9,55.1-1.24,82.17-5.91,14.38-13.9,28.21-17.17,43.43-3.67,18.18-3,39.38,9.92,54a34.87,34.87,0,0,0,5.2,4.73,1.41,1.41,0,0,1,.27,2A1.51,1.51,0,0,1,18.9,381.71Z"/><path d="M72.53,196.68c-7.84-23.05-3.43-48.86,8.72-69.6,12.23-20.94,30.3-37.48,46.23-55.5,6.87-8.08,14.35-16.12,18.61-25.95.06-.29.27-.64.62-.53a.51.51,0,0,1,.27.69,31.41,31.41,0,0,1-3.77,7.83c-5.25,8.44-11.76,16-18.35,23.39-16.2,18.09-34.45,35-45.71,56.85-8.85,17.56-12.3,38.39-7,57.51.45,1.68.94,3.35,1.42,5a.55.55,0,1,1-1.06.29Z"/><path d="M90.9,288.16a.89.89,0,0,1-.63-1.09,94.52,94.52,0,0,0,2.93-12.9c2.14-12.8-.52-26.06-6.25-37.61v0l0,0c-7.13-14.34-18.79-26.74-21.87-42.88a.29.29,0,0,1,.57,0c.31,1.36.8,2.72,1.24,4,5.16,15.81,17.57,27.75,24,42.93a60.7,60.7,0,0,1,2.44,41.85q-.63,2.53-1.38,5A.89.89,0,0,1,90.9,288.16Z"/><path d="M79.68,252.45c-2.11-5.66-4.41-11.27-7.07-16.7-4.29-8.53-9.64-16.49-13.75-25.12C49.19,191.69,47,168.84,54.6,148.81c6-17.06,20.58-29.52,26.2-46.76,2.56-7,3.33-14.63,5.63-21.61C89.06,72.38,94,65.31,99.51,59a171.27,171.27,0,0,1,22-20.78c6.46-5.55,13.57-10.4,18.86-17.06.21-.26.33-.72.74-.59a.37.37,0,0,1,.19.47,16.76,16.76,0,0,1-3.1,4.3c-4.94,5.29-10.66,9.76-16.16,14.45-8.65,7.26-17,15-24,23.87a60.71,60.71,0,0,0-10.2,18c-2.26,6.79-3,14-5.53,20.7C78.81,113,72,122,65.75,131.07c-17.52,24.35-18.39,55-4.32,81.13,3.26,6.52,7.11,12.72,10.58,19.12,3.63,6.56,6.22,13.63,8.88,20.62a.67.67,0,0,1-.35.86A.65.65,0,0,1,79.68,252.45Z"/><path d="M49.46,399c-.71-7-1.11-14.18-3.54-20.85-2.9-7.88-6.83-15.47-8.21-23.83-4.23-23.8,8.6-45.78,15.15-67.87,5.3-16.78,4.17-33-1.21-49.62-3.09-10-6.3-20.24-5.64-30.83.1-2.28.23-4.56.51-6.83a.39.39,0,0,1,.41-.31.38.38,0,0,1,.32.41A74.18,74.18,0,0,0,47,211.22c.49,6.75,2.31,13.29,4.31,19.72,4.61,14,8.43,28.72,5.9,43.49-4.62,29.88-27.34,57.91-15.51,89,2.1,5.92,5,11.56,6.69,17.61,1.54,5.81,2,11.86,2.54,17.82a.74.74,0,0,1-.63.83A.73.73,0,0,1,49.46,399Z"/><path d="M40.85,238.56c-2-11.69-5-23.17-6.21-35-1.76-17.38.24-35.67,8.22-51.38.47-.63.83-2.29,1.77-1.82a.54.54,0,0,1,0,.8,17.3,17.3,0,0,0-1.5,2.61c-8.42,18-9.19,38.67-6.07,58,1.5,8.89,3.33,17.73,4.89,26.62A.58.58,0,0,1,40.85,238.56Z"/><path d="M13.07,342.93c-.11-13,1.54-26.1,6.46-38.24,4.24-11.2,10.14-21.83,12.74-33.6.19-.53,0-1.58.79-1.49a.47.47,0,0,1,.32.57c-.45,1.76-.85,3.54-1.3,5.3C27.89,290.9,19,304.72,16.13,320.57a86.46,86.46,0,0,0-1.56,12.87c-.21,3.16-.34,6.32-.36,9.49A.57.57,0,0,1,13.07,342.93Z"/><path d="M64.05,111.68c-.84-.39,1-2.5,1.17-3.12a71.55,71.55,0,0,0,6.91-14.15c3.54-10.19,4.44-21,7.31-31.29A90.12,90.12,0,0,1,130.88,5.57c4.15-1.69,8.45-3.17,12.94-3.34a.5.5,0,0,1,.5.5.51.51,0,0,1-.61.48c-4.55.18-8.84,1.8-13,3.52A88.77,88.77,0,0,0,80.77,64.37C77.37,77.94,76.26,92.26,69,104.53a75.89,75.89,0,0,1-4.27,7A.53.53,0,0,1,64.05,111.68Z"/><path class="cls-7" d="M98.35,20.48A40.44,40.44,0,0,0,77.57,57.3,45,45,0,0,1,92.14,31.05a27.57,27.57,0,0,0-7.1,16,60.76,60.76,0,0,1,20.71-28.41A31.26,31.26,0,0,0,90.06,31.1l9.87-12.35"/><path class="cls-7" d="M207.71,28.86a39.84,39.84,0,0,1,15.37,31.19,45.36,45.36,0,0,0-9.73-20.42l2.76,18.26A32,32,0,0,0,197,30.37a15.13,15.13,0,0,1,15.27,5.17l-4.34-8.07"/><path class="cls-7" d="M218.22,113.19c12.69.84,22.35,13.16,23.94,25.77s-3.12,25.17-9,36.44c11.51-20.47,5.94-48.92-12.44-63.53"/><path class="cls-7" d="M46.13,166.71A44.35,44.35,0,0,0,41.59,209a67.73,67.73,0,0,1,10-47.9"/><path class="cls-7" d="M44.6,243.62c8.62,15.34,6.32,36.06-5.45,49.14a36.18,36.18,0,0,0,7.45-53.9"/><path class="cls-7" d="M104,295.86c.23-1.57.47-3.13.7-4.69q.66-4.41,1.3-8.82c-4.64,7-10,13.67-13.37,21.42-3.52,8.21-4.28,18.38,1,25.6-2.34-9.42,1.37-19.32,6.46-27.58C101.3,299.77,102.63,297.8,104,295.86Z"/><path class="cls-7" d="M224.53,232.84c-7.42,6.16-9.44,16.89-8.29,26.46s4.88,18.63,7,28,2.41,19.91-2.8,28a46.58,46.58,0,0,0,6.22-43.16c-2.14-5.8-5.45-11.14-7.3-17s-2-12.84,1.72-17.76"/><path class="cls-7" d="M261.94,211a83.25,83.25,0,0,0-4.77,63.06C254.15,252.61,256.69,230.38,261.94,211Z"/><path class="cls-7" d="M268.38,268.07c1,14.26,7,27.63,10.94,41.37s5.77,29.21-1,41.8c9.81-11.08,10.12-27.8,6.41-42.12S273.91,281.5,268.38,268.07Z"/><path class="cls-7" d="M63.38,320.83a52.19,52.19,0,0,0,24.47,66.38C67.55,370.71,58,342.05,63.38,320.83Z"/><path class="cls-7" d="M39.82,310.42c-16.47,18.12-20,46.85-8.33,68.39C25.52,354.52,30.47,327.76,39.82,310.42Z"/><path class="cls-7" d="M32.2,287.1a108.31,108.31,0,0,1-17.93,47.78C30.13,320.68,38.4,298.46,32.2,287.1Z"/><path class="cls-7" d="M150.71,45.44c-.83,14.16-13.18,24.5-24.36,33.22s-23.25,19.65-23.13,33.83c1.66-8,7.73-14.38,14.32-19.22s14-8.62,20.09-14C150.09,68.18,156.2,50.41,150.71,45.44Z"/><path class="cls-7" d="M118,25.62C103.16,30.37,93.11,47,95.81,62.35,98.75,43.12,113.56,26.23,118,25.62Z"/></g></g></g></svg>