<svg xmlns="http://www.w3.org/2000/svg" xmlns:xlink="http://www.w3.org/1999/xlink" viewBox="0 0 306.94 341.34"><defs><style>.cls-1{isolation:isolate;}.cls-2{fill:url(#linear-gradient);}.cls-3{fill:url(#linear-gradient-2);}.cls-4{fill:url(#linear-gradient-3);}.cls-5,.cls-6,.cls-7{fill:#946363;}.cls-5,.cls-6{mix-blend-mode:multiply;}.cls-5{opacity:0.61;}.cls-7{mix-blend-mode:screen;opacity:0.45;}</style><linearGradient id="linear-gradient" x1="153.02" y1="120.59" x2="153.02" y2="580.01" gradientUnits="userSpaceOnUse"><stop offset="0" stop-color="#633221"/><stop offset="0.06" stop-color="#774529"/><stop offset="0.21" stop-color="#a06e3b"/><stop offset="0.36" stop-color="#c29049"/><stop offset="0.51" stop-color="#da5"/><stop offset="0.67" stop-color="#f0bc5d"/><stop offset="0.83" stop-color="#fbc761"/><stop offset="1" stop-color="#ffcb63"/></linearGradient><linearGradient id="linear-gradient-2" x1="90.38" y1="243.94" x2="90.38" y2="360.53" xlink:href="#linear-gradient"/><linearGradient id="linear-gradient-3" x1="218.92" y1="237.34" x2="218.92" y2="310.92" xlink:href="#linear-gradient"/></defs><g class="cls-1"><g id="Layer_2" data-name="Layer 2"><g id="Layer_153" data-name="Layer 153"><path class="cls-2" d="M102,10.61A104.86,104.86,0,0,0,43,76.3c-3,10.17-4.59,21-10.2,30-3,4.87-7.14,9-10.92,13.3C11,132.12,2.22,149,6.9,164.9c2.77,9.46,9.8,16.94,15.66,24.86a15.07,15.07,0,0,1,2.59,4.64,12.42,12.42,0,0,1-.77,7.61c-4.23,11.31-15.47,18.86-19.84,30.12-5.38,13.87.15,28.41,14.17,33.4,3.06,1.08-4.15,15.65-1.35,17.32s8.05,15.89,7.39,17.68c1.53,6.69,13.53,2.41,17.11,8.26s9-.17,15.62,1.5c3.7.93,8.62,5.61,12.43,5.94,7.23.63,9.73,4.75,15.5,9.16,5.31,4.06,4.5,5.18,3.67,12.39,8.85-6,11-14.77,6.77-24.58-1.06-2.47-2.3-11.85-2.9-14.47-1.7-7.53,4.61-10.91,6.28-18.45,2.1-9.43.88-15-4.51-23s-18.4-18.63-19.4-28.23c-1.21-11.74,7.75-21.92,4.38-33.23-1.18-4-4.13-13.83-4.75-17.93-1.72-11.47,8.77-11.72,8.23-23.3-.2-4.29.13-14.33-.27-18.6-.62-6.68-.71-10.32,2.5-16.2,2.85-5.22,12.18-12.16,15-17.38,2.37-4.36,11.93-9.71,15.75-12.88,6.28-5.23,15-6.06,23.16-6.67,5.68-.42,12.36-.43,15.85,4.07,1-2.48,3.95-3.64,6.63-3.69s5.3.74,8,.91c5.3.34,10.83-1.71,15.82.13a66.67,66.67,0,0,1,13.17,7.33c7.94,5.69,24.81,25.88,27,40.84-2.37,8.61-.3,22.58,3.39,30.7,1.57,3.47,3.48,15.89,4.2,19.63.58,3-6,12.09-3.76,23.83.76,3.91,4,16.35,4.3,20.32.73,10.85-23.88,23-24.14,42.86-.13,9.36,4.39,17,4.29,26.37-.07,6.39-1.69,19.77-2.39,26.12s1.49,13.65,7.49,15.86c-.31-11.35,3.92-15.43,14.62-19.22s32.84-7.79,42.73-13.35c15.07-8.47,22.44-38.87,11.72-38.87,17.64-5.08,7.07-1.67,12.21-12.32a32.92,32.92,0,0,0-3.37-33.52c-5.43-7.15-14.18-12.76-15.17-21.69-1.22-11,10-18.95,15.36-28.69,5.14-9.37,4.7-21,1.11-31.08s-10-18.83-16.63-27.23c-4-5.12-8.19-10.23-11-16.14-3.84-8.21-4.72-17.46-7.16-26.19-7.33-26.21-29-46.94-54.09-57.41S156.21.87,129.26,4.6C116.12,6.42,102.59,9.6,102,10.61Z"/><path class="cls-3" d="M77.27,214c4.24,4.36,4.89,11,6.6,16.79,2.28,7.8,6.73,14.76,11,21.67s8.53,14,10.31,22,.75,16.93-4.6,23.05c-.85,1-2.09,2-3.34,1.59-1.88-.56-1.73-3.26-1.12-5.12,2.32-7,5.7-14,5.13-21.33-.6-7.63-5.33-14.21-9.9-20.34l-8.73-11.73c-2.88-3.88-5.82-7.86-7.17-12.49A17.31,17.31,0,0,1,77.27,214Z"/><path class="cls-4" d="M229.64,218.45c-.82,7.72-6.91,13.65-10.82,20.35-3.08,5.29-4.88,11.26-8.18,16.42-1.7,2.65-3.8,5.08-5,8s-1.44,6.53.52,9l5-12c1.48-3.53,3-7.12,5.51-10a53.36,53.36,0,0,1,6.19-5.53c4.08-3.45,7.78-7.62,9.45-12.7S233.29,220.78,229.64,218.45Z"/><path class="cls-5" d="M91.66,98.45a68.89,68.89,0,0,0-15.94,24.32c-2.24,5.82-3.7,12.17-2.51,18.29.76,3.91,2.58,7.64,2.57,11.62,0,5.55-3.5,10.38-6.37,15.14-5.6,9.3-9.27,20.67-6,31,1.79,5.65,5.48,10.49,8,15.86a40.62,40.62,0,0,1,3.77,16.21c2.89-5.86,3.74-12.48,4.54-19,.65-5.29,1.31-10.69.3-15.92-.73-3.85-2.34-7.48-3.19-11.31a29.46,29.46,0,0,1,1.69-17.9c1.8-4.19,4.59-8,5.91-12.33,2.45-8.12-.49-16.76-1.22-25.21C82.22,117.86,85.52,106.11,91.66,98.45Z"/><path class="cls-5" d="M69.32,121c-13.5,7.11-23.11,20.62-26.88,35.4-1.23,4.81-1.88,9.92-.59,14.72,3,11.07,14.92,17,21.51,26.35A31.42,31.42,0,0,1,63,233.16c9.19-10.73,15.55-25.69,10.71-39-4.12-11.3-15.49-19.11-18.33-30.79-2.13-8.79,1.17-18.19,6.63-25.4s12.9-12.63,20.22-17.93C78,117.82,72.91,119.12,69.32,121Z"/><path class="cls-5" d="M32.84,274.19c-3.87-1.63-8.16-3.7-9.47-7.69a14.59,14.59,0,0,1-.43-5.11c.15-4.93.35-10,2.59-14.44,2.34-4.6,6.63-7.84,10-11.76a34.73,34.73,0,0,0,8.07-18.52c3.58,11.32,5.47,24.19-.14,34.66-1.65,3.07-3.89,5.81-5.35,9C34.92,267.15,35.62,275.36,32.84,274.19Z"/><path class="cls-5" d="M82,242.29c6.07,4,7.81,12,8.81,19.13.71,5,1.26,10.4-1,15-2,4-5.9,6.77-8.6,10.38-5,6.74-5.36,16.34-1.78,23.94C83.37,319,91.62,325.77,91.84,335a4,4,0,0,0-2.52,3.3c3.67-1.85,6-5.76,6.83-9.78s.55-8.18.22-12.28c-.31-3.78-.66-7.72-2.65-10.95-1-1.56-2.32-3.1-2.14-4.92.14-1.42,1.2-2.55,2.1-3.65,6.12-7.43,7.06-18.09,4.68-27.41S90.71,251.68,82,242.29Z"/><path class="cls-5" d="M33.73,120.61a53.26,53.26,0,0,0-15.45,21.48c-3.47,8.92-4.14,19.9,1.95,27.28,3.48,4.22,8.7,6.69,12.34,10.78a20.34,20.34,0,0,1,2.7,22.49,18.74,18.74,0,0,0,6-20.31c-2.67-7.77-10.24-13-13.49-20.52-3.39-7.88-1.47-17.25,2.91-24.63S41.62,124,48.06,118.32C42.69,115.89,36.55,118.26,33.73,120.61Z"/><path class="cls-5" d="M225.28,138c-.33,13.65,11.56,24.34,15.64,37.37,2.49,7.92,2,16.61-.59,24.51-2.14,6.62-5.72,13.46-3.83,20.16.85,3,2.73,5.61,4.44,8.23,6.11,9.38,10.41,20.18,10.75,31.37a65.66,65.66,0,0,1-3.12,20.65,55.59,55.59,0,0,1-7.37,16.28c-4.71,6.73-11.51,11.77-16.32,18.43s-7.28,16.29-2.41,22.91c-9.61-5.13-13.18-19-7.23-28.16,1.32-2,3-3.9,3.57-6.26,1-4.69-3-8.76-5.43-12.91-3.37-5.79-3.76-13-2.13-19.49s5.14-12.38,9.16-17.74c4.89-6.51,10.83-12.88,12-20.94,1.61-11-6.14-21.55-5-32.56,1-10.31,9.64-20.24,5.88-29.9-1.43-3.67-4.47-6.47-6.44-9.88C223.35,154.05,223.56,146.14,225.28,138Z"/><path class="cls-5" d="M263.83,219.49c-.37,7-.73,14,.95,20.8s5.73,13.28,12,16.24c2.62,1.22,5.54,1.81,8,3.31s4.5,4.4,3.69,7.18a34.47,34.47,0,0,0-16.94,11.92c1.74-4.86.58-10.31-1.47-15s-5-9.08-6.89-13.87C258.91,239.4,259.82,226.78,263.83,219.49Z"/><path class="cls-5" d="M264,254.71c2,11.79,3.81,24.53-1.63,35.17a28.44,28.44,0,0,1-14.65,13.34c-5.08,2-10.64,2.51-15.84,4.19s-10.39,5-11.95,10.25c9.29-6.76,22.59-3.47,33.21-7.86,10.84-4.48,17.05-16.46,18.06-28.14S269,258.4,264,254.71Z"/><path class="cls-5" d="M276.88,125.85c11.77,7.59,17.51,23.4,13.35,36.77-2,6.35-5.84,11.9-9.4,17.52s-6.95,11.59-7.77,18.18,1.51,14,7.19,17.44a28.26,28.26,0,0,1-19.41-21.46,20.24,20.24,0,0,1,1.78-13.53c3-5.39,8.95-8.61,12.18-13.88,3.06-5,3.32-11.21,2.53-17a53.15,53.15,0,0,0-16.12-31.25C267.11,118.2,271.5,122.38,276.88,125.85Z"/><path class="cls-5" d="M240.16,58c8,11.84,13.36,26.58,9.83,40.43-.69,2.72-1.71,5.35-2.29,8.1a26.26,26.26,0,0,0,5.68,22.19,27.9,27.9,0,0,1-16.32-23.09c-.43-5.93,1.08-11.8,2.36-17.6C241.76,77.34,243.2,65.54,240.16,58Z"/><path class="cls-5" d="M188.6,41.87a53.94,53.94,0,0,1,20.55,30.92c1.48,6.28,1.84,12.9,4.44,18.82A27,27,0,0,0,227,105.19c-4.25,0-8-2.63-11.43-5.14-4.35-3.18-8.8-6.49-11.68-11-4.6-7.28-4.47-16.43-5.47-25S194.31,46,188.6,41.87Z"/><path class="cls-5" d="M133.48,36.55c-17,2.46-32,15.81-36.33,32.45-1.24,4.72-1.68,9.62-3,14.33a42.27,42.27,0,0,1-13.28,20.93,40.65,40.65,0,0,0,21.24-24.32c1.56-5,2.14-10.2,3.65-15.18C110.29,50,123.56,38.21,133.48,36.55Z"/><path class="cls-5" d="M104.28,28.71C77.14,37.79,57,64.79,56.08,93.39c-.1,2.77,0,5.71,1.5,8.06,1,1.55,2.49,2.72,3.4,4.31,2.59,4.52-.49,10.1-3.7,14.2,5.58-6.4,11.1-13.73,11.34-22.22.17-5.69-2.1-11.17-2.59-16.84-1.29-15,9.72-28.09,21.29-37.67C95.68,36.31,104.71,30.2,104.28,28.71Z"/><path class="cls-5" d="M132.28,50.77c-5.23,2.71-10.62,5.54-14.31,10.13-5.08,6.32-6.11,14.87-7,22.92,4-7.63,7.22-16.38,14.48-21,5-3.23,11.82-4.34,15-9.4,1.46-2.31,1.62-5.88-.7-7.33C138.37,48.69,135.45,49.13,132.28,50.77Z"/><path class="cls-5" d="M247.22,189.94a38.08,38.08,0,0,0-8.92,19.34,27.57,27.57,0,0,0,5.2,20.38c2.18,2.77,4.94,5,7.16,7.77a25.92,25.92,0,0,1,3.85,25.32A23.48,23.48,0,0,0,260,244.38a30.22,30.22,0,0,0-8.75-17.32c-1.82-1.82-3.87-3.49-5.08-5.76a16.16,16.16,0,0,1-1.55-6.32C243.75,205.1,245.92,195,247.22,189.94Z"/><path class="cls-5" d="M74.86,95.7c-1.84,6.54-4,13.54-9.36,17.71a20.59,20.59,0,0,0,8.71-9.12A21.36,21.36,0,0,1,68,115.16a20,20,0,0,0,8.26-11.09,30.43,30.43,0,0,0,.7-14c-.38,4.91-.85,10.06-3.56,14.17C75,101,75.63,97.35,74.86,95.7Z"/><path class="cls-5" d="M55.31,203.93c2.73,6.39.53,13.71-1.69,20.3a43.19,43.19,0,0,1-3,7.46,69.18,69.18,0,0,0,6.53-14.75c.14,5.81-2,11.4-4.26,16.75a34.3,34.3,0,0,0,4.68-37.77c1,5.38,2,10.94.88,16.29C58.4,208.19,57.12,204.18,55.31,203.93Z"/><path class="cls-5" d="M259.89,167.51c-2.14,7.53-5.68,14.62-7.71,22.18s-2.39,16.08,1.61,22.82a35,35,0,0,1-2.26-28.18,31,31,0,0,0-3.85,13.21c-1.37-13.51,4.16-27.16,13.1-37.38L252.63,181l7.93-14.68C260.76,166,260.53,165.25,259.89,167.51Z"/><path class="cls-5" d="M171,58.43a27.55,27.55,0,0,0-16.41,17.24A27.3,27.3,0,0,1,170.1,64.26c-4.88,3.66-10.14,7.95-11,14A28.16,28.16,0,0,1,172,66.91a20.55,20.55,0,0,1,16.94.41,18,18,0,0,0-17.71-4.89A29.23,29.23,0,0,1,184.8,58C179.47,57.08,173.82,57.39,171,58.43Z"/><path class="cls-5" d="M220.72,51.74c7.95,4.44,11.25,14.34,11.45,23.44s-2,18.13-1.87,27.23a178.84,178.84,0,0,1,5.84-22.88c-3.35,16-6.51,33.46,1.15,47.86A51.15,51.15,0,0,1,225.89,90c.73-7.2,3-14.77.07-21.41a36.05,36.05,0,0,1-6.26,22.29C225.1,77.26,224.5,61.39,220.72,51.74Z"/><path class="cls-6" d="M153.7,87.35a48.28,48.28,0,0,0-25.51-4.57,42.39,42.39,0,0,1,14.41-3.07,48.25,48.25,0,0,0-27.26,3.34A60.88,60.88,0,0,1,150,69.57a37.58,37.58,0,0,0-36.25,7A59.43,59.43,0,0,1,146,53.51a39.64,39.64,0,0,0-39.41,17.92,92.35,92.35,0,0,1,32.05-28.68A46,46,0,0,0,116.12,54,72.87,72.87,0,0,1,141,35.64,55.89,55.89,0,0,0,96.42,62.56a70.19,70.19,0,0,1,28.87-35.77A61.44,61.44,0,0,0,99.4,37a66.7,66.7,0,0,1,24.4-15.23A70,70,0,0,0,78.87,44.39a68.71,68.71,0,0,1,42.6-30,105.48,105.48,0,0,0-33.34,5.86C102.47,9.59,120.39,3.86,139.07,3.62,163.3-2,188.45,5.43,212.2,12.84a116.59,116.59,0,0,0-48.62-2.08,74.67,74.67,0,0,1,44.64,10.8,57.52,57.52,0,0,0-40.62-3.49,67,67,0,0,1,45.13,24.72,72.1,72.1,0,0,0-42.42-15.2,57.7,57.7,0,0,1,32.91,14.66,94.19,94.19,0,0,0-35.47-11.14c14.2,4,29.65,9,37.52,21.48a81.54,81.54,0,0,0-36-17.71,42.36,42.36,0,0,1,30,30.48,50.63,50.63,0,0,0-28.74-15.69A50.62,50.62,0,0,1,199,69c-5.33-3.3-10.75-6.64-16.77-8.36S169.4,59,164.07,62.28A47.68,47.68,0,0,1,199.45,77.7a45.71,45.71,0,0,0-37.34-4.37,64.65,64.65,0,0,1,36.26,11.26C182.59,80,165.19,81.12,153.7,87.35Z"/><path class="cls-7" d="M41.82,87.06c1.85,11.13-4.32,22-11.32,30.83s-15.27,17.16-18.84,27.86a36.81,36.81,0,0,0,6.78,34.87c-4.23-1.77-6.74-6.08-8.76-10.2-3.22-6.59-6-13.78-5.24-21.08,1-9.32,7.45-17,13.46-24.17C28.32,112.73,38.41,99.48,41.82,87.06Z"/><path class="cls-7" d="M260.44,133.67a41,41,0,0,1,3,30.84,40.84,40.84,0,0,0,4-22.47,23.31,23.31,0,0,1,2.15,15.41c3.56-6.93,2.75-15.5-.5-22.58s-8.68-12.92-14.33-18.3a51.72,51.72,0,0,1,9.7,21.28,23.64,23.64,0,0,0-10-12.68C256.63,128.24,259.1,131.14,260.44,133.67Z"/><path class="cls-7" d="M250.92,45.35c14.29,16.78,9.91,44.86,26.12,59.79a47.63,47.63,0,0,1-20.33-35.69,40.17,40.17,0,0,0,3.73,23,52.06,52.06,0,0,1-8.8-23.68c-.44-4-.41-8-1.33-11.91-2.2-9.28-9.37-16.43-16.23-23.06a37.17,37.17,0,0,1,15.21,14.64l-9.12-14.9C247,38.37,252.22,45.55,250.92,45.35Z"/><path class="cls-7" d="M104.46,35.83c-7.28,4.53-14.29,9.71-19.7,16.35S75.58,67.09,75.5,75.66c4.41-8.73,9.08-17.79,16.94-23.61A37.66,37.66,0,0,0,85,84.5c2.18-10.89,5.61-21.64,11.38-31.13s14-17.68,24.16-22.18c-2.62-1.34-5.79-.08-8.34,1.4A51.35,51.35,0,0,0,94.94,49,64.52,64.52,0,0,1,104.46,35.83Z"/><path class="cls-7" d="M78.16,230.13c-3.71,6.78-7.44,13.6-9.81,21S65,266.43,67,273.9a30.88,30.88,0,0,0,9.62,15.5c-4.43-9.42-8.55-20.09-5.33-30a25.14,25.14,0,0,0,11.32,23.43c-5.87-9.95-9.19-22-6.07-33.17,2.28-8.14,7.9-16.24,5.34-24.3a43,43,0,0,1-10.37,24.21A105.33,105.33,0,0,0,78.16,230.13Z"/><path class="cls-7" d="M52.29,243.37a63.71,63.71,0,0,0-7.57,23.95c-.72,6.65-.34,13.56,2.22,19.74s7.52,11.58,13.89,13.63c-7.38-7.29-11.7-17.38-12.74-27.69S49.17,252.18,52.29,243.37Z"/><path class="cls-7" d="M259.44,265.27c.8,7.42,1.46,15.5-2.53,21.82-2.74,4.31-7.28,7.14-11.88,9.34C253,287.51,259.38,276.27,259.44,265.27Z"/><path class="cls-7" d="M19.25,210.76c-1.49,7.5-5.47,14.24-8.3,21.34s-4.48,15.33-1.28,22.28c2.18,4.75,6.33,8.25,10.41,11.52a46.38,46.38,0,0,1-12.16-9.84c-3.33-4.05-5.6-9.14-5.48-14.38.11-5.05,2.39-9.78,4.91-14.16A108.22,108.22,0,0,1,19.25,210.76Z"/><path class="cls-7" d="M153.09,2.71C131.53,4.74,109.9,9.57,91,20.08s-35,27.18-41.85,47.74c3.6-20.22,17.65-37.61,35.11-48.44S122.28,3.72,153.09,2.71Z"/><path class="cls-7" d="M72.79,135.74a24.61,24.61,0,0,0-6.05,27c-.11-5.55-.07-11.35,2.5-16.27a68.1,68.1,0,0,0-.46,9.89c0,1.42.32,3.12,1.63,3.65a30.28,30.28,0,0,1,6.08-24.14c-3,1.74-4.83,4.9-6.53,7.92C71.16,140,73.11,136.4,72.79,135.74Z"/><path class="cls-7" d="M231.6,136.25a30.54,30.54,0,0,1,6,21.74,24.28,24.28,0,0,0,.88-12.62,31.71,31.71,0,0,1,1.73,13.17,17.65,17.65,0,0,0,.62-14.87,24.31,24.31,0,0,0-10-11.36c4.24,2.39,5.91,7.55,7.24,12.23C236.19,140.89,233.6,137.58,231.6,136.25Z"/><path class="cls-7" d="M180.76,5.43A66.15,66.15,0,0,1,223,22.86a108.23,108.23,0,0,0-27.62-9A27.64,27.64,0,0,1,211,23a86.18,86.18,0,0,0-53.33-10.64c10.17-4.41,21.84-2.94,32.79-1.15C180.29,6.11,168.38,6.3,157,6.6,168.17,3.59,180.13,3.59,180.76,5.43Z"/><path class="cls-7" d="M40.79,210.91c-3.63,6.23-8.57,11.62-12.29,17.81s-6.21,13.66-4.23,20.6c-2.09-7.77-.23-16.2,3.55-23.3S37.2,213,40.79,210.91Z"/><path d="M85.65,340.06c1.14-9.91-6.3-19.69-17.32-22.84-16.49-4-32.62-1.88-45-14.66-9.31-9.35-11.41-22.69-8.18-34.41,2.15-9,7.82-17.1,10.12-25.95,1.53-5.65.48-11.68-.91-17.18a45.51,45.51,0,0,1-1.32-6.17,1.22,1.22,0,0,1,1-1.32c2.56-.64,3.79,6.43,4.46,8a32.53,32.53,0,0,1-.35,23.6c-3.37,8.59-7.56,17-8.21,26.16A29.21,29.21,0,0,0,37.35,305.2c11.9,5.27,26.39,3.13,38.14,8.73,8.51,4.27,15.72,12.53,15,21.3a27.61,27.61,0,0,0,5-16.92c-.18-3.84-2.08-7.31-4.06-10.68-3.44-5.24-2.89-9.22.14-14.43,3-6.11,6-12.56,5.6-19.33-1.49-11.3-8.4-21.49-16.36-30.35-7.18-7.63-10.86-16-7.28-25.71,2-5.5,4.39-11.06,3.89-16.92-.28-6.57-4.22-12.43-5.4-18.83a20.46,20.46,0,0,1,2.66-14.47c2.86-5,5.26-10.2,5.73-15.76.32-7.35-1.54-14.62-1.51-22-.17-8,1.07-16.2,4.93-23.57C90.46,94,109.13,83.6,124.48,81.18a56.27,56.27,0,0,1,19.33.2c2.34.34,13.57,3.31,10.37,6.12a2,2,0,0,1-1.39.07c-15.51-5.3-33.25-2.33-46.68,5.73-10.52,6.25-17.85,13.12-20.18,24.2-2.86,11,0,22,.54,33a32.27,32.27,0,0,1-3.61,14.58c-6.57,10.79-7.45,13.45-2.57,25.26,9.3,21.89-8,28.68-.3,43,3.65,5.89,9.09,10.77,13.09,16.48A67.68,67.68,0,0,1,101,263.93c5.52,11.6,1.55,21.93-4.4,32.67-3.14,4.23-.56,7,1.66,10.9,5.53,9.33,2.62,24.39-6.35,31.41C90.29,340.27,87,342.93,85.65,340.06Z"/><path d="M162.45.29A135,135,0,0,0,148.51.07c-16.3.63-32.73,3.17-48,9.09C84.15,15.87,69.11,26.47,58,40.3c-7.39,9.33-12.24,20.38-15.44,31.78-1.6,5.5-2.9,11.08-4.75,16.52A71.61,71.61,0,0,1,26,109.83c-3.79,4.77-8.14,9.09-11.67,14.07C7.49,133.61,2.87,145.4,3,157.4a30.5,30.5,0,0,0,5.69,17.06c5.86,8.5,18.4,17.77,12.66,29.26-3.84,7.35-10.27,12.87-14.83,19.73-7.84,10.86-9.42,27-.23,37.56,3.39,4.1,8,6.58,12.77,8.81a17.28,17.28,0,0,1,1.55-3l.75-2.11L20,264.08C9.92,259.6,4.23,250.36,6,239.28,7.89,223,26,214.7,28.13,199.35c.46-8.17-4.89-15.21-9.9-21.14-3.84-4.42-7.78-9.05-9.23-14.85-2.88-12.36,2.12-25.3,8.74-35.64,4.34-6.35,9.88-11.45,14.46-17.71A73.22,73.22,0,0,0,42.66,90.17C46.94,77,49.25,63.29,56.53,51.25c9.92-16.81,26.31-29.15,44-36.84C117.05,7.79,135,5.15,152.68,5c3.25-.06,6.52.26,9.77,0a2.39,2.39,0,0,0,0-4.74Z"/><path d="M56.34,124.41a.7.7,0,0,1-.37-.91c7.46-15,.86-20-.52-34.48C54.4,64.67,75.83,43.24,95.53,31.88a80.52,80.52,0,0,1,16-7.41.62.62,0,0,1,.75.43c.17.81-.81.82-1.31,1C104.53,28.26,98.66,31.8,93,35.49c-16.35,10.95-31.39,27-34.62,47.05a40.24,40.24,0,0,0,.8,13.4c1.33,6.32,3.6,12.89,1.7,19.34A62.43,62.43,0,0,1,57.25,124,.69.69,0,0,1,56.34,124.41Z"/><path d="M46.24,182.58c-3.67-8.19-11.78-13.85-13.91-22.81-3.09-13.41,3.8-30.45,13.72-39.56a.88.88,0,0,0,.86-1.22c-.91-2.12-5.08,3.37-6,4.45-5.25,6.73-9.42,14.48-11,22.93-1.64,8.13-.53,17.08,4.55,23.84,2.89,4.06,6.53,7.85,8.84,12.33a22,22,0,0,1-1.2,22.9c-3.68,5.52-8.91,9.76-12.78,15.13a41.4,41.4,0,0,0-2.69,4.11c.11,1.46.24,2.93.39,4.4a38.41,38.41,0,0,1,3-5.43c4-6.2,10.09-10.77,14.18-16.92A24.15,24.15,0,0,0,46.24,182.58Z"/><path d="M84.63,303.41c-24.11-6.06-32.13-31.47-25.15-53.47a179.74,179.74,0,0,1,7.7-20.15c3.87-9.13,8.13-18.92,5.86-29-3-13.33-15.67-22.05-18-35.62-2.86-13.33,4.72-25.85,13.46-35.28a70.16,70.16,0,0,1,9.89-8.48A1,1,0,0,1,79.55,123c-1.73,1.25-3.4,2.56-5,4-8,7.9-16,17.4-17.51,28.94-1.95,14.46,8.27,23.69,14.89,35.06,16.68,28.6-20.93,53.18-11,86.91a34.46,34.46,0,0,0,23.3,24.08l.49.08A.71.71,0,1,1,84.63,303.41Z"/><path d="M83.6,102.36a.66.66,0,0,1,0-1.12,35.82,35.82,0,0,0,4.67-5.68c4.41-5.87,6.28-12.94,7.38-20.07,3.9-22.08,18-37.55,40.39-41.4l2.28-.44a.88.88,0,0,1,1,.74c.09,1.16-1.32,1-2.09,1.24C119,39.24,104.72,50.34,99.55,68.53c-2.68,8.2-3,17.29-7.89,24.63a43.16,43.16,0,0,1-7.13,8.9A.68.68,0,0,1,83.6,102.36Z"/><path d="M81.12,125.69a2,2,0,0,1-.37-2.82c1.65-2.26,3.33-4.51,5-6.75,8.9-11.94,22-27.56,37-31.25,1.73-.32,2.32,1.47.6,2.11-9.25,4.38-17,11-23.84,18.53-3.87,4.44-7.4,9.15-11,13.84-1.51,2-3,4-4.58,6A2,2,0,0,1,81.12,125.69Z"/><path d="M72.74,169.31c-2.13-11.82.62-25,9-33.94a2.25,2.25,0,0,1,.8-.48.61.61,0,0,1,.41,1.13A43.8,43.8,0,0,0,73.79,159,54.61,54.61,0,0,0,74,169.13.66.66,0,0,1,72.74,169.31Z"/><path d="M293,262.67c-1.51,1.45-3.17,2.7-4.76,4.06a41.43,41.43,0,0,1,1.6,8.56,29.11,29.11,0,0,1-17.74,29.91c-12.15,5.27-26.95,3.13-38.94,8.73-8.7,4.27-16.06,12.53-15.28,21.3a27.2,27.2,0,0,1-5.06-16.92c.19-3.84,2.12-7.31,4.15-10.68,3.51-5.24,3-9.22-.14-14.43-3.1-6.11-6.12-12.56-5.73-19.33,1.52-11.3,8.58-21.49,16.71-30.35,7.33-7.63,11.09-16,7.43-25.71-2-5.5-4.47-11.06-4-16.92.29-6.57,4.31-12.43,5.52-18.83a20.09,20.09,0,0,0-2.72-14.47c-2.92-5-5.37-10.2-5.85-15.76-.33-7.35,1.58-14.62,1.54-22,.17-8-1.09-16.2-5-23.57C217.84,94,198.78,83.6,183.1,81.18a58.66,58.66,0,0,0-19.74.2c-2.39.34-13.86,3.31-10.59,6.12a2.07,2.07,0,0,0,1.41.07c15.85-5.3,34-2.33,47.68,5.73,10.74,6.25,18.23,13.12,20.61,24.2,2.92,11,0,22-.55,33a31.73,31.73,0,0,0,3.69,14.58c6.71,10.79,7.61,13.45,2.62,25.26-9.5,21.89,8.13,28.68.3,43-3.72,5.89-9.28,10.77-13.36,16.48a67.1,67.1,0,0,0-8,14.12c-5.64,11.6-1.58,21.93,4.5,32.67,3.2,4.23.56,7-1.7,10.9-5.65,9.33-2.68,24.39,6.48,31.41,1.6,1.36,5,4,6.35,1.15-1.17-9.91,6.43-19.69,17.68-22.84,16.84-4,33.32-1.88,45.94-14.66,9.51-9.35,11.66-22.69,8.35-34.41A44.18,44.18,0,0,0,293,262.67Z"/><path d="M228.12,207.11c.37,6.43-2.05,12.74-5.35,18.27s-7.49,10.47-11.14,15.78a96.39,96.39,0,0,0-13.12,27.61c-1.33,4.58-2.32,9.52-.88,14.06,1.34,4.28,4.63,7.61,7.08,11.35a32.75,32.75,0,0,1,4.72,23.87c4.46-3.38,6.13-9.47,5.66-15s-2.75-10.8-4.9-16S206,276.54,205.9,271c-.08-8,4-15.45,8.72-21.92s10.21-12.46,13.68-19.67S232.91,213.17,228.12,207.11Z"/><path d="M86.79,229.05c.74,7.79,6.87,13.78,11.46,20.13a58.3,58.3,0,0,1,10.56,27c.62,5.15.53,10.5-1.23,15.38s-5.36,9.27-10.21,11.13a38.64,38.64,0,0,0,1.84-40.9c-2.68-4.59-6.29-8.55-9.25-13a53.69,53.69,0,0,1-8.74-34.71C82.74,222.86,86.34,231.24,86.79,229.05Z"/><path d="M98.1,289c6,7,5.61,18.61-.85,25.2a23.49,23.49,0,0,0-6.43-12.09C94.49,298,96.39,292.35,98.1,289Z"/><path d="M270.71,280.28c1.53-.13,2.42-1.63,3.54-2.51a37.09,37.09,0,0,1,8.05-5.35c6.48-3.13,13.62-5.7,18.35-11.41,9.18-10.55,7.61-26.7-.23-37.56-4.56-6.86-11-12.38-14.84-19.73-5.73-11.49,6.81-20.76,12.66-29.26a30.35,30.35,0,0,0,5.69-17.06c.14-12-4.48-23.79-11.33-33.5-3.54-5-7.88-9.3-11.68-14.07A72.06,72.06,0,0,1,269.11,88.6c-1.84-5.44-3.14-11-4.75-16.52-3.19-11.4-8.05-22.45-15.43-31.77-11.11-13.84-26.15-24.44-42.52-31.15C191.16,3.24,174.72.7,158.43.07a135,135,0,0,0-13.94.22,2.39,2.39,0,0,0,0,4.74c3.25.24,6.51-.08,9.77,0,17.7.14,35.63,2.78,52.11,9.4,17.72,7.69,34.12,20,44,36.84,7.28,12,9.59,25.77,13.86,38.92A73.53,73.53,0,0,0,274.74,110c4.58,6.26,10.12,11.36,14.45,17.71,6.63,10.34,11.63,23.28,8.74,35.64-1.45,5.8-5.39,10.43-9.22,14.85-5,5.93-10.36,13-9.9,21.14C281,214.7,299.05,223,301,239.28c1.73,11.08-4,20.32-14.08,24.8-5.62,2.69-11.47,5.44-15.54,10.32C270.05,275.94,267.43,279.62,270.71,280.28Z"/><path d="M250.59,124.41a.69.69,0,0,0,.37-.91c-7.46-15-.86-20,.52-34.48,1.05-24.35-20.37-45.78-40.07-57.14a80.78,80.78,0,0,0-15.95-7.41.62.62,0,0,0-.76.43c-.17.81.81.82,1.32,1,6.38,2.32,12.26,5.86,17.92,9.55,16.35,10.95,31.39,27,34.61,47.05a40,40,0,0,1-.79,13.4c-1.34,6.32-3.6,12.89-1.71,19.34a63.65,63.65,0,0,0,3.63,8.76A.7.7,0,0,0,250.59,124.41Z"/><path d="M282.27,259a38.06,38.06,0,0,0-4.68-38.41c-3.87-5.37-9.09-9.61-12.77-15.13a22,22,0,0,1-1.2-22.9c2.3-4.48,5.94-8.27,8.83-12.33,5.08-6.76,6.2-15.71,4.56-23.84-1.53-8.45-5.71-16.2-10.95-22.93-.95-1.08-5.13-6.57-6-4.45a.89.89,0,0,0,.86,1.22c9.92,9.11,16.82,26.15,13.72,39.56-2.13,9-10.23,14.62-13.9,22.81a24.17,24.17,0,0,0,2,24.15c4.1,6.15,10.15,10.72,14.19,16.92,7.23,10.91,7.69,22.53,3.36,34.63A1.07,1.07,0,0,0,282.27,259Z"/><path d="M222.31,303.41c24.11-6.06,32.13-31.47,25.15-53.47a179.74,179.74,0,0,0-7.7-20.15c-3.87-9.13-8.13-18.92-5.87-29,3-13.33,15.67-22.05,18-35.62,2.85-13.33-4.72-25.85-13.46-35.28a70.16,70.16,0,0,0-9.89-8.48,1,1,0,1,0-1.18,1.53c1.72,1.25,3.39,2.56,5,4,8,7.9,16,17.4,17.52,28.94,1.95,14.46-8.27,23.69-14.89,35.06-16.69,28.6,20.93,53.18,11,86.91a34.45,34.45,0,0,1-23.29,24.08l-.49.08A.71.71,0,1,0,222.31,303.41Z"/><path d="M223.33,102.36a.66.66,0,0,0,0-1.12,35.76,35.76,0,0,1-4.66-5.68c-4.41-5.87-6.29-12.94-7.39-20.07-3.89-22.08-18-37.55-40.39-41.4l-2.27-.44a.88.88,0,0,0-1,.74c-.1,1.16,1.32,1,2.09,1.24,18.21,3.61,32.46,14.71,37.64,32.9,2.67,8.2,2.94,17.29,7.89,24.63a42.78,42.78,0,0,0,7.12,8.9A.68.68,0,0,0,223.33,102.36Z"/><path d="M226.25,130.23a2,2,0,0,0,.68-2.75c-1.38-2.44-2.79-4.86-4.19-7.28-7.47-12.88-18.67-29.9-33.14-35.28-1.69-.51-2.48,1.21-.84,2,8.69,5.4,15.66,12.88,21.57,21.13,3.33,4.85,6.29,9.94,9.3,15,1.27,2.15,2.51,4.34,3.86,6.45A2,2,0,0,0,226.25,130.23Z"/><path d="M234.19,169.31c2.14-11.82-.62-25-8.95-33.94a2.34,2.34,0,0,0-.8-.48A.6.6,0,0,0,224,136,43.89,43.89,0,0,1,233.15,159a54.61,54.61,0,0,1-.26,10.16A.66.66,0,0,0,234.19,169.31Z"/></g></g></g></svg>