<svg xmlns="http://www.w3.org/2000/svg" viewBox="0 0 250.11 423.87"><defs><style>.cls-1{isolation:isolate;}.cls-2{fill:#633221;}.cls-3{fill:#4a2015;mix-blend-mode:multiply;opacity:0.65;}.cls-4{fill:#925c4e;mix-blend-mode:screen;opacity:0.48;}</style></defs><g class="cls-1"><g id="Layer_2" data-name="Layer 2"><g id="Layer_210" data-name="Layer 210"><path class="cls-2" d="M62.92,261.91A260.77,260.77,0,0,0,90,341.56a138.24,138.24,0,0,1-21.14-22.31c1.79,17.63,3.46,33.5,5.48,49.33A151,151,0,0,1,63,353a243.94,243.94,0,0,0,16.81,61.72,11.49,11.49,0,0,1-8.46-6.53L78,423.71c-7.3-3.28-13.49-8.7-18.65-14.83s-9.36-13-13.55-19.81A74.49,74.49,0,0,0,47,404.12a30.58,30.58,0,0,1-8.27-8.84,71.7,71.7,0,0,0,4.21,15.06c-10.1-10.73-16.57-27.57-20.49-42a52.48,52.48,0,0,0-.33,30.33c-8.58-9.31-13.6-21.45-16.19-33.83S3,339.68,2.88,327C2.26,275.47,1.6,222.14,5.41,170.72c-4.91-40.59,6.87-80.31,30.37-113S97.52,2.29,138.52,1.28c39.55,7,74.67,35.24,90,72.37,10.68,25.93,11.94,54.7,11.63,82.75s-2,56.37,1.34,82.85c3.53,37.66,7.05,75.37,7.36,113.18.12,14.37-.69,30-10.1,40.89a10,10,0,0,0,.23-7.89,30.09,30.09,0,0,1-11.61,14,23,23,0,0,0,1.78-13.08,89.09,89.09,0,0,1-26.24,28.5,25.18,25.18,0,0,0,4.57-17.61,44.09,44.09,0,0,1-27,21.18,54.56,54.56,0,0,0,11.85-23.22,31.54,31.54,0,0,1-12.71,10,85.89,85.89,0,0,0,12.57-40.44A51.66,51.66,0,0,1,178,379.65,63.48,63.48,0,0,0,188.43,349a34,34,0,0,1-15.89,10.35A109.59,109.59,0,0,0,181,330a22,22,0,0,1-11.32,9.47c5-12.67,8.35-26,11.81-37.29,6.05-32.69,11.81-65.53,13.76-98.71s0-66.88-9.33-98.44c-4.12-13-10.74-25.62-21.16-34.44s-25.12-13.29-37.9-9.37c-7.52-2.71-16-1.81-23.38,1.31s-13.68,8.3-19.21,14.07c-22.72,23.71-32.72,57.37-33.94,90.2S57.89,231.71,62.92,261.91Z"/><path class="cls-3" d="M126.7,60.15c-12.53-3.15-26.15.72-36.6,8.31S72.06,87,66.41,98.64A76.73,76.73,0,0,1,116.16,51.2,77.81,77.81,0,0,0,87.49,61.51a55.1,55.1,0,0,0-20.57,22.2,55.57,55.57,0,0,1,52.76-39.16C107.1,41,93.16,44,82.21,51.18s-19.08,18.08-24.49,30c9-23.37,30.92-41.28,55.63-45.41-13-1-26,4.22-36.22,12.35s-18,19-24.54,30.27a74.08,74.08,0,0,1,60.54-49.76c-10.24-2.36-21.17-.48-30.67,4S64.82,44.1,57.84,52a77.94,77.94,0,0,1,48.32-29.3A87.88,87.88,0,0,0,48.69,52.16,91.6,91.6,0,0,1,79.85,23.62a124,124,0,0,1,40.07-14,114.3,114.3,0,0,0-51.53,16.1A104.66,104.66,0,0,1,127.55,1.82,113.6,113.6,0,0,1,219.49,56.2,125.54,125.54,0,0,0,137.1,13.72a81.37,81.37,0,0,1,40.06,17.37A87.21,87.21,0,0,1,203,66.34c-7.54-11-15.4-22.05-25.84-30.35s-24-13.63-37.13-11.47a68.6,68.6,0,0,1,51.88,42C185.5,55.76,177,45.88,165.87,40s-25.07-7.11-36.15-1.23c12.49-1.91,25.52,2,35.7,9.53s17.63,18.31,22.35,30a48.16,48.16,0,0,0-56.33-26.66A52.1,52.1,0,0,1,184.29,93C179,82.22,171.15,72.47,160.86,66.24S137.75,57.57,126.7,60.15Z"/><path class="cls-3" d="M31.54,74.41A208,208,0,0,0,12.19,205.54C10.23,162.43,17,119,31.54,74.41Z"/><path class="cls-3" d="M41.62,103.63c-11.44,37.18-14.38,77-7.58,112.54C30.9,179.14,34.33,141.57,41.62,103.63Z"/><path class="cls-3" d="M18.4,191.5A272.32,272.32,0,0,0,32.77,324.39C20.65,282.71,16.64,238.68,18.4,191.5Z"/><path class="cls-3" d="M33.26,229.1A250.12,250.12,0,0,0,51.64,330C40.94,294.47,35.6,257.32,33.26,229.1Z"/><path class="cls-3" d="M46.94,138.23A325.22,325.22,0,0,0,58.5,277.59C47,234.42,43.1,189.22,46.94,138.23Z"/><path class="cls-3" d="M8.19,287.42a458.21,458.21,0,0,1,6.15,85.88c5.16-8.6,3.94-19.42,2.56-29.35C13.84,321.92,10.77,299.89,8.19,287.42Z"/><path class="cls-3" d="M34.55,338.32A122.54,122.54,0,0,0,60.8,398.71,442,442,0,0,1,34.55,338.32Z"/><path class="cls-3" d="M68.44,404.66a180.31,180.31,0,0,1-24.58-87.35,304.27,304.27,0,0,0,36.25,98C74.91,411.38,69.8,407,68.44,404.66Z"/><path class="cls-3" d="M72.54,367C54.8,337.08,53.81,300.48,53.31,265.68A284.55,284.55,0,0,0,75.8,368.76C73.94,367,72.08,365.25,72.54,367Z"/><path class="cls-3" d="M87.79,339C74,327.74,65.46,311,61.06,293.73S56,258.49,55.34,240.68C59.1,276.22,70.79,310.9,87.79,339Z"/><path class="cls-3" d="M172.5,335.66a438.52,438.52,0,0,0,27.28-110.08C197.73,265.87,194.93,308.46,172.5,335.66Z"/><path class="cls-3" d="M176.44,359.66A1136,1136,0,0,0,206,237.88a446.24,446.24,0,0,1-14.87,98.35C188.51,345.81,184.29,356.7,176.44,359.66Z"/><path class="cls-3" d="M183.82,404a412.49,412.49,0,0,0,36.67-139.17C216.15,314.35,210.93,366.34,183.82,404Z"/><path class="cls-3" d="M188.37,417.22a447.87,447.87,0,0,0,43.88-164,619.66,619.66,0,0,1-13.59,107c-2.41,11.08-5.15,22.19-10.13,32.37S196.14,412.11,188.37,417.22Z"/><path class="cls-3" d="M207.23,415A509.33,509.33,0,0,0,237.46,265a658.46,658.46,0,0,1-11.19,125.08C222.26,398.67,216.53,406.48,207.23,415Z"/><path class="cls-3" d="M217.22,82.42c11.51,13.19,14.56,31.59,16.17,49a465.1,465.1,0,0,1-2.63,107.87q0-56.18-1.7-112.32C228.59,111.75,227.53,95.2,217.22,82.42Z"/><path class="cls-3" d="M212.43,117.63a408.44,408.44,0,0,1-1,150.68C217.28,216.91,216.77,164.78,212.43,117.63Z"/><path d="M75.07,423.64c-4.11-1.39-7.63-4.1-10.91-6.87a71.14,71.14,0,0,1-17.44-23c.91,3.32,2.48,6.18,3.23,9.48a2.46,2.46,0,0,1-2,2.94c-3-.15-4.7-3.37-6.41-5.45,1.06,3.2,3.08,6.12,3.61,9.46a2.09,2.09,0,0,1-1.94,2.37c-3.92-.68-5.82-5.12-7.93-8.07-8.13-12.89-12.54-27.63-15.45-42.48a1.48,1.48,0,0,1,.87-2c1.65-.37,1.77,1.64,2.05,2.78.61,2.64,1.22,5.27,1.89,7.9,3.22,13,8.39,25.61,16.28,36.42-2-5.54-5-11-5.89-16.79a1.49,1.49,0,0,1,2.71-.69,90.63,90.63,0,0,0,8.84,12.5c-1.85-5.51-3.93-11-5.27-16.63-.39-2.05-1.24-4.24-.81-6.32a1.61,1.61,0,0,1,3,.28c6.84,16.06,16,32.57,31.86,41.2-3.19-5.55-6.67-10.92-9.46-16.69-.63-1.77-4-6.58-.61-7.1,1.46.05,2.06,1.7,2.82,2.69,2.57,3.7,5.1,7.75,8.06,11.06A289.25,289.25,0,0,1,64,370.27c-1.15-5.08-2.31-10.18-3-15.35,0-1.77-1.46-5.88,1.12-6.23,1.49,0,1.84,1.81,2.49,2.84,2.63,4.66,4.86,9.64,8.22,13.84a257.4,257.4,0,0,1-5.3-29.28c-.21-3-3.29-18.72,1.89-17.79,1.45.53,2.17,2.09,3.19,3.15a158.75,158.75,0,0,0,14.06,16.32c-15-31.3-23.43-65.29-29.77-99.28-9.91-53-15.72-130.87,30.56-168.68,9.4-7.54,21.35-12.7,33.58-11.3,2.18.33,4.62.65,6.28,2.23a.5.5,0,0,1-.28.84,24.64,24.64,0,0,1-4.93-.19A42.56,42.56,0,0,0,108.13,63C95.81,66.59,85.55,75.16,77.67,85.08c-40.77,53.84-21.38,150.73-4.1,211.29,4.5,14.71,9.58,29.29,16.93,42.81.52,1,1.07,2.47.09,3.44a2,2,0,0,1-1.9.5c-2.23-.75-3.91-2.63-5.58-4.2a141.65,141.65,0,0,1-13.49-16.05c.82,14.92,4.48,29.75,7.06,44.37.27,1.53-.57,3.36-2.33,3.27-4.66-1.1-8-9.22-10.19-13.18a343.89,343.89,0,0,0,11.31,41.86c1.46,4.95,4.11,9.68,5.14,14.69a2.29,2.29,0,0,1-2.23,2.49c-2-.18-3.22-2-4.51-3.34,1.39,2.79,3.36,5.28,4.62,8.11C79.17,423.37,76.89,424.35,75.07,423.64Z"/><path d="M18.73,400C-6.69,373.76.74,284.38,1.91,248c1.45-26.82.76-53.69.57-80.54C1.38,117.84,17.15,65.23,55.26,31.61,64.58,23.24,75.51,17,86.86,11.8a141.31,141.31,0,0,1,22.76-8.59C139-5.11,165.34,3.36,189,21.53c12.93,9.76,24.85,21.39,33.29,35.3,12.72,20.94,19.43,45.23,20.22,69.66.48,20.76-1.23,41.57-.83,62.32.81,41.13,5.49,82.07,7.53,123.14,1,19.54,1.7,39.23-1,58.66-.51,3.64-1,7.28-1.41,10.93,0,.4-.09.81-.14,1.21a1.53,1.53,0,0,1-3-.55c2.85-19.95,1.93-40.06,1.21-60.1C242.77,273,237.32,224,237,174.86c0-15,1.12-30,1-45-.48-34.95-12.87-70.66-39.07-94.44C172.58,11.15,145.33-3.13,109.08,7.6,89.66,13.82,70.49,22.68,55.54,36.83c-21.65,20.33-36,47.83-43,76.48-5,19.85-6.11,40.21-5.59,60.56.26,24.24.72,48.48-.62,72.69C5,285.25-2.25,364.89,20.11,396c-1-7.29-1.72-14.72-.35-22,.39-2.14.83-4.28,1.35-6.39.11-.65.81-1.3,1.43-.79s.39,1.38.41,2.08c-.18,4.59-.55,9.17-.5,13.77a82.75,82.75,0,0,0,1.66,14.2C24.89,400.72,21.71,402.53,18.73,400Z"/><path d="M167.81,342.56c-2.51-1.45,0-4.31.52-6.23,1.88-4.78,3.58-9.64,5.21-14.52a350.2,350.2,0,0,0,15.13-69.28c2.17-18,3.66-36.18,4.28-54.35,1.13-25.4.54-51-4.66-75.92-4-18.31-9-38.1-23.91-50.59A43,43,0,0,0,135.74,61.5a57.83,57.83,0,0,0-6.83.53c-1,0-2.38.8-3-.34-.77-2.36,3-2.76,4.56-3.19,11-2.18,22.64.58,32,6.7,17.41,11,24.29,31.66,28.72,50.73a282.85,282.85,0,0,1,6.53,71.36,571.85,571.85,0,0,1-6.53,77.86,361.91,361.91,0,0,1-16.06,65.1c-1.09,3.08-2.23,6.15-3.57,9.13C170.87,341,169.93,343.45,167.81,342.56Z"/><path d="M179.54,422.84c-1.52-.44-1.4-2.24-.49-3.22.87-1.58,1.9-3.07,2.79-4.64a167.79,167.79,0,0,0,8-15.3,66,66,0,0,1-8.31,8c-1.44,1.32-4.15,1.38-4.13-1.1,1.17-3.75,3.35-7.2,4.91-10.83a117.39,117.39,0,0,0,8.73-27c-3.73,4.78-7.58,9.74-12.68,13.11-1.25.89-3.48.95-3.32-1.09,4.23-9.25,9.87-18.07,12-28.18-2.86,2-13.69,12.22-16.52,8.15a2.63,2.63,0,0,1-.05-2.54A176,176,0,0,0,179,333.39c-1.06,1.61-10.41,12.47-11,7.07.27-1,1.22-1.67,1.94-2.39,3.14-3,5.87-6.33,8.74-9.56,2.09-3.3,5.17-2.07,4.33,1.76a118.74,118.74,0,0,1-8.81,27.05,92.57,92.57,0,0,0,9.73-6.85c1.48-.94,2.73-2.66,4.57-2.77,7.22.61-5.66,25.86-8.14,29,4.34-4.13,7.62-9.33,11.7-13.61,5.4-1.92,1.23,11.72.85,14.15a106.59,106.59,0,0,1-9.48,24.47c4.09-3.79,7.44-8.3,10.85-12.66a1.74,1.74,0,0,1,2.8,1.84,23.74,23.74,0,0,1-1.23,3.65A148,148,0,0,1,185.21,416c8.34-6.13,15.37-13.79,22.41-21.28,7.21-3.08-.45,15.34-1.56,17.71a101.62,101.62,0,0,0,16.23-18.73c2-3.06,4-6.12,5.87-9.25.64-1,1.1-2.38,2.38-2.7,4.89-.4.79,10.87.26,13.41a112.6,112.6,0,0,0,7.66-11.86c1.5-2.5,4.07-.89,3.69,1.69,2-5.83,2.66-11.81,3.18-17.88.16-2,.2-3.94.24-5.91a.91.91,0,1,1,1.82.09c-.2,5.83.26,11.66-.29,17.43-1,6.9-3.27,13.93-7.75,19.35a1.94,1.94,0,0,1-3.36-.64c-.24-1.53.71-3,.89-4.48-1.4,2.64-8.11,12.43-10.58,6.43,0-3,1.4-5.84,2.07-8.73a90.06,90.06,0,0,1-13.8,18.4,73,73,0,0,1-6.9,6.49c-1.49,1.07-3,2.64-4.89,2.75-3.67-.67-.48-4.8.08-6.85.41-1.59,4.43-8.92,2.16-8.93a92.67,92.67,0,0,1-16.69,15.58,58.06,58.06,0,0,1-4.8,3.28C182.31,422.05,181,423.15,179.54,422.84Z"/><path d="M43.28,120.85a.59.59,0,0,1-.4-.71c1-4.19,2.18-8.35,3.39-12.49,8-28.14,25.64-60,57.08-65.22a39.33,39.33,0,0,1,14.55.4c.7.25,2.3.25,1.89,1.29a.6.6,0,0,1-.94.12,41.43,41.43,0,0,0-16.49-.1C78.44,48.84,62.6,70.3,53.44,91.47a170.26,170.26,0,0,0-7.69,22.23q-.93,3.36-1.77,6.74A.57.57,0,0,1,43.28,120.85Z"/><path d="M55.66,310.24c-5.15-24.85-11-49.57-14.55-74.7-4.41-30.33-6-61.09-3.13-91.64.08-.88.17-1.77.27-2.64a.5.5,0,1,1,1,.18c-.08.91-.13,1.83-.21,2.74-2.89,36-.12,72.22,6.09,107.74,1.92,11,4.19,22,6.42,33q2.58,12.54,5.27,25.06a.58.58,0,0,1-.4.71A.59.59,0,0,1,55.66,310.24Z"/><path d="M40.78,335.32c-4.72-26.56-10.25-53-14.09-79.7-5.6-43.28-7.85-87.41-1.13-130.69a101.56,101.56,0,0,1,3.33-15.63q.3-.93.63-1.86a.53.53,0,0,1,.64-.37c.71.25.18,1,.06,1.47a95.31,95.31,0,0,0-3.15,14.69c-6.41,40.33-5,81.39-.47,121.83,3.42,29,9.43,57.68,14.53,86.44l.68,3.68a.52.52,0,1,1-1,.14Z"/><path d="M34,376.54c-4-18.75-8.63-37.42-11.73-56.34-2.38-15-3.7-30.18-5.16-45.32a.8.8,0,0,1,.66-.87c1.45,0,.74,2.26,1,3.15,1.6,20,3.68,40,7.87,59.68q4,19.37,8.34,38.69c.1.5.41,1.21-.25,1.42A.59.59,0,0,1,34,376.54Z"/><path d="M56.35,53.65c-1-.77.58-1.76,1-2.45a80.67,80.67,0,0,1,6.1-6.57c10.93-10.5,25.61-19.8,41.15-20.21,1.1,0,2.19,0,3.29.1a.44.44,0,0,1,0,.87c-14.65-.61-28.61,6.87-39.49,16.15A77.9,77.9,0,0,0,57.58,52.9C57.32,53.35,57,54,56.35,53.65Z"/><path d="M206.71,241.26c-.1-29.8-.29-59.66-2.38-89.39-2.14-27.66-4.23-56.37-17-81.5C181,58,171.66,46.31,158.43,40.93c-6.08-2.52-13-4.39-19.53-2.63a6.26,6.26,0,0,0-1.88.94.51.51,0,0,1-.7.23c-.93-.93,1.34-1.8,2-2.09,6.38-2.05,13.4-.29,19.48,2,40.59,16.62,45.09,76.69,47.81,114.65,1.12,17.48,1.92,35,1.95,52.5.1,11.57.22,23.14.25,34.71a.54.54,0,0,1-.54.53A.54.54,0,0,1,206.71,241.26Z"/><path d="M212.72,334.62a.67.67,0,0,1-.57-.74c2.61-19.81,5.28-39.6,7.52-59.45,2.25-21.82,3.4-43.74,4-65.65.36-28.09-.55-56.43-5.84-84.07-6-28-16.54-55.61-33.53-78.81C178,38,170.83,29.64,161,26.41a16.93,16.93,0,0,0-2.12-.48.48.48,0,0,1-.4-.53c.17-.72,1.08-.28,1.57-.23a19.81,19.81,0,0,1,2,.49c10.55,3.72,18.07,13,24.65,21.59,15.48,22.14,25.48,47.88,31.41,74.14,5.28,25,6.38,50.59,6.69,76,0,33.71-1.77,67.47-6.63,100.84-1.56,11.93-3.1,23.86-4.7,35.79A.65.65,0,0,1,212.72,334.62Z"/><path d="M220.37,376.68a.46.46,0,0,1-.31-.55c.73-3.45,1.43-6.93,2.12-10.36,4.77-25.54,11.44-51.2,10.15-77.37a.35.35,0,0,1,.35-.35.35.35,0,0,1,.35.35c1.46,21.7-3.28,43.16-7.37,64.35-1.21,6.11-2.4,12.23-3.65,18.33-.36,1.78-.72,3.52-1.1,5.29A.45.45,0,0,1,220.37,376.68Z"/><path d="M197.73,337.14a.5.5,0,0,1-.43-.56c1.29-8.65,2.43-17.32,3.55-26,.91-7.44,2.08-14.88,2.35-22.37a78.67,78.67,0,0,0-.08-9.09.5.5,0,1,1,1-.07q.21,3.15.17,6.3a150.25,150.25,0,0,1-1.71,19.75c-1.11,8.55-2.2,17.09-3.41,25.62q-.42,3-.87,6A.51.51,0,0,1,197.73,337.14Z"/><path class="cls-4" d="M30.77,119.08A279.21,279.21,0,0,0,26,228.66,617.82,617.82,0,0,1,30.77,119.08Z"/><path class="cls-4" d="M14.8,180.75q-4.43,64.88-2.74,130C16.13,267.89,17.74,224.82,14.8,180.75Z"/><path class="cls-4" d="M58.88,44.55a110.17,110.17,0,0,0-33.45,85.26C29.19,99.48,41.44,70.25,58.88,44.55Z"/><path class="cls-4" d="M54.48,95.77A192.46,192.46,0,0,0,42.91,191C41.81,158.7,46.27,126.19,54.48,95.77Z"/><path class="cls-4" d="M43.42,210.4a264.44,264.44,0,0,0,16.21,90.29C54.05,273.47,49.68,246,43.42,210.4Z"/><path class="cls-4" d="M35.66,223.83c2.56,35.59,5.27,71.86,18.67,104.93C45,294.61,39.1,259.54,35.66,223.83Z"/><path class="cls-4" d="M27,280.06a224.73,224.73,0,0,0,17.37,84.72C36.12,338.25,30.63,310.86,27,280.06Z"/><path class="cls-4" d="M17.92,314.53A290.58,290.58,0,0,0,29.74,374C26,354.32,22.29,334.63,17.92,314.53Z"/><path class="cls-4" d="M209.52,63.73a237.32,237.32,0,0,1,13.37,121C226.6,146.39,222.44,107.35,209.52,63.73Z"/><path class="cls-4" d="M233,181.1a1000.41,1000.41,0,0,1-4,135.75C230,272.75,230.91,228.65,233,181.1Z"/><path class="cls-4" d="M217.51,179.71A822.7,822.7,0,0,1,202.84,323.1C205.69,276.1,210.22,229.2,217.51,179.71Z"/><path class="cls-4" d="M218.17,266.25A340.48,340.48,0,0,1,198.23,368.6C206.51,334.89,212.92,300.72,218.17,266.25Z"/><path class="cls-4" d="M194.16,86.58a485.15,485.15,0,0,1,7.58,138.67C201.83,180.18,198.8,135.1,194.16,86.58Z"/><path class="cls-4" d="M236.24,275A295.67,295.67,0,0,1,234,377.81C234.74,341.32,235.44,304.83,236.24,275Z"/></g></g></g></svg>