<svg xmlns="http://www.w3.org/2000/svg" xmlns:xlink="http://www.w3.org/1999/xlink" viewBox="0 0 332.4 362.38"><defs><style>.cls-1{isolation:isolate;}.cls-2{fill:url(#linear-gradient);}.cls-3{fill:#4a2015;mix-blend-mode:multiply;opacity:0.55;}.cls-4{fill:#925c4e;mix-blend-mode:screen;opacity:0.59;}</style><linearGradient id="linear-gradient" x1="166.8" y1="24.31" x2="166.8" y2="526.3" gradientUnits="userSpaceOnUse"><stop offset="0" stop-color="#633221"/><stop offset="1" stop-color="#cf9c4f"/></linearGradient></defs><g class="cls-1"><g id="Layer_2" data-name="Layer 2"><g id="Layer_207" data-name="Layer 207"><path class="cls-2" d="M166.13,8.75C160.64,5.84,155.07,2.9,149,1.57S136.21.72,131.1,4.24s-8.17,9.59-13.86,11.8c-7.44,2.88-16.18-2.1-23.67.66-4.17,1.54-7.14,5.22-9.63,8.9S79.1,33.23,75.5,35.84s-8.94,3.47-12.37.64L65.5,45c-5.43-1.17-10.88,2.81-13.42,7.76S49.17,63.45,48.48,69s-1.88,11.29-5.6,15.42C38.34,89.42,31,91,26.05,95.64a17.86,17.86,0,0,0-2.77,21.71c-1.13-6,4.59-12.19,10.63-11.55-.7,4.67.18,9.41.34,14.13s-.55,9.82-3.8,13.24-9.67,4-12.36.12c-1.56,4.49.17,9.9,3.45,11.8-9.76,12.13-10,30.94-.63,43.35l-5.55,2.62c-3.69,1.75-7.51,3.6-10.07,6.78a14.49,14.49,0,0,0-.07,17.34c2.15,2.83,5.39,5,6.48,8.37,1,3.2-.17,6.68-1.76,9.63s-3.63,5.73-4.45,9c-1.88,7.39,4.17,15.73,11.78,16.24a11.22,11.22,0,0,1,5.5-18.21c-1.89,2.38-1,5.94.68,8.5s3.95,4.76,4.87,7.66c1.44,4.53-.85,9.33-3.25,13.44s-5.06,8.57-4.36,13.28,4.56,8.2,7.8,11.7,6.23,8.23,5.24,12.06a14.12,14.12,0,0,0,4.36,20.4,25.67,25.67,0,0,1,.49-7.93,8.74,8.74,0,0,1,4.84-6c-.5,3.41,1.32,6.8,3.79,9.2s5.57,4,8.46,5.91,5.69,4.15,7.13,7.29,1.08,7.3-1.6,9.46c5.57,1.28,11.29-3.17,13-8.63s.2-11.44-2.27-16.6a9,9,0,0,1,8.45,7.18c1,5.29-2.95,10.15-4,15.41a15,15,0,0,0,21.71,16.34A8.44,8.44,0,0,1,93.83,345c1.84-2,4.51-3,6.76-4.59,6.61-4.58,8.78-14.5,4.68-21.42a6.6,6.6,0,0,0,3,1.23,2.26,2.26,0,0,0,2.43-1.77c.07-.93-.61-1.71-1-2.55-1.33-2.77.55-6,2.51-8.33s4.23-5.06,4.27-8.1l1.13-4.32A22.8,22.8,0,0,0,131.89,318c-4.91-3-6.88-9.36-6.29-15.08s3.27-11,5.81-16.13,5.05-10.54,5.28-16.28c.29-7.16-3-14-7.29-19.79s-9.47-10.77-13.83-16.46c-11.25-14.69-16.15-33.13-21.44-51.09a29.76,29.76,0,0,1-5.7-20.38c.63-6.65,3.49-12.93,4.16-19.58.47-4.76-.17-9.69,1.36-14.22,1.45-4.28,4.67-7.67,7.76-11A282.13,282.13,0,0,0,125.6,89.43c2.28-8.26,4.68-16.77,10-23.49S150,54.67,158.14,57.2c2.91.89,5.79,2.63,8.77,2a19,19,0,0,0,4.22-1.91c5.31-2.58,11.86-1.69,17,1.26s9,7.71,12.74,12.4A86.56,86.56,0,0,0,222,110.86c5.43,5.81,11.86,11.16,14.58,18.64,2.26,6.2,1.63,13.1,3.34,19.48,1.26,4.66,3.75,9,4.08,13.85.48,7.17-3.87,13.63-7.28,19.95s-6,14.34-3.24,20.89c-5.75,13.46-11.69,27.23-21.74,37.87-5.8,6.13-13.14,11.53-15.51,19.63-1.79,6.11-.36,12.71,1.87,18.68s5.24,11.67,6.76,17.85,1.33,13.21-2.34,19.08c5.58-.56,9.85-5.66,11.26-11.08s.56-11.16-.29-16.7c-.33,3.92,1,7.8,2.66,11.34s3.83,6.88,5.35,10.5a12.41,12.41,0,0,1,1.18,4.75,5.59,5.59,0,0,1-1.85,4.39c2.5-.7,5-1.4,8.19-2.14a5.75,5.75,0,0,0-4.24,4.17,11,11,0,0,0,.3,6.18,21.14,21.14,0,0,0,5.45,9c1.76,1.72,3.81,3.12,5.64,4.77a12.9,12.9,0,0,1,4.13,6,8.36,8.36,0,0,1-6.41,10.39,15,15,0,0,0,17.7-2.2A16.45,16.45,0,0,0,255,338.43c-1.2-2.86-3.22-5.47-3.49-8.56-.39-4.59,3.48-8.77,8-9.9-2.3,3-2.29,7.1-2.17,10.87.1,3.57.33,7.46,2.67,10.16a10.59,10.59,0,0,0,6,3.18,31.52,31.52,0,0,0,6.87.33,5.81,5.81,0,0,1-4-7.37c.72-2,2.47-3.34,4.14-4.59,4-3,8.14-5.94,11.06-10.24a17,17,0,0,0,5.67-8.9c5,3,6.42,10.51,2.92,15.13A14.65,14.65,0,0,0,301,312.12c-.79-3.35-2.81-6.54-2.36-9.94.66-4.93,5.95-7.6,9.09-11.46a15,15,0,0,0,2.4-14.36c-1.92-5.24-6.81-9.48-6.87-15.06-.1-7.78,9.33-13.68,8.1-21.37a14.67,14.67,0,0,1,4.81,18.78,23.4,23.4,0,0,0,9-7.57c2.16-3.32,3-7.63,1.6-11.32-1.29-3.34-4.27-5.83-5.5-9.2s-.47-7.36,1.25-10.6,4.31-5.91,7.17-9.34c2.29-2.76,1.9-7.06-.07-10.07s-5.17-5-8.4-6.55-6.63-2.92-9.47-5.12a32.56,32.56,0,0,0-1.4-43.24,8.9,8.9,0,0,0,3.76-12.2c-2.11,2.83-6.55,3.13-9.55,1.28s-4.7-5.3-5.37-8.76-.43-7-.46-10.56-.36-7.16-2-10.29a14.2,14.2,0,0,1,11.94,11.16,19.17,19.17,0,0,0-4.86-23c-3.8-3.07-8.66-4.53-12.66-7.33s-7.17-8-6.35-13.37A25.31,25.31,0,0,0,264.69,44a5.25,5.25,0,0,0,4.57-6.89c-3.5,2.79-8.86,1.84-12.45-.83s-5.89-6.69-8.35-10.43-5.38-7.5-9.54-9.14c-7.15-2.82-15.51,1.43-22.83-.93-4.65-1.5-8.05-5.41-12-8.27C193.34-.26,177.32.39,166.13,8.75Z"/><path class="cls-3" d="M164.7,8.73c-9.16-9.82-26.87-9.59-35.76.46a35.63,35.63,0,0,1,29.28,2.3c-12.37-4.78-28,2.65-32.1,15.26,8.24-6.55,21.11-6.37,29.17.41-10-3.41-22.2,1.08-27.6,10.22a46.24,46.24,0,0,1,28.75-5.59,41.44,41.44,0,0,0-23.37,6.7c10.68-6.5,26-3.9,33.9,5.77-12.9-5.22-29-1-37.62,9.93a35.44,35.44,0,0,1,24.07-6C141,47.43,128.84,56.59,126,68.66c-2.12,9.14.67,19-2.23,28,2.4-11.47,5.1-23.54,13-32.17s22.93-11.91,31.24-3.64c5.25-7.66,17.59-7.07,24.67-1.06s10,15.48,12.1,24.53a25.33,25.33,0,0,0-29.69-34.11,27.31,27.31,0,0,1,31.49,1.49c-7.12-11.84-25.77-14.43-35.85-5A19.38,19.38,0,0,1,190.92,40a30.78,30.78,0,0,0-23.72.57,25.08,25.08,0,0,1,28.06-10,27,27,0,0,0-30.08,2.26A21.61,21.61,0,0,1,189,21.61a32.68,32.68,0,0,0-24.11,3.82,23.54,23.54,0,0,1,22.26-12.15,27.88,27.88,0,0,0-22,2.69A27.84,27.84,0,0,1,197,10.27a18.21,18.21,0,0,0-15.44-7.79C175.56,2.71,169.77,6.21,164.7,8.73Z"/><path class="cls-3" d="M48.77,76.43a34.62,34.62,0,0,1-16.43,27.94c-2.42,1.45-5.05,2.64-7,4.66s-3.09,5.23-1.74,7.7a18.67,18.67,0,0,1,3.9-22.39c3.87-3.4,9-5,13.32-7.77S49,78.87,48.77,76.43Z"/><path class="cls-3" d="M62.77,94.62c4.37,3.74,4.09,10.81,1.42,15.91s-7.13,9-10.62,13.56a42.3,42.3,0,0,0-5.83,39.85c-7.06-5.41-7.92-16.06-5-24.45s8.89-15.32,13.68-22.82S65,100.19,62.77,94.62Z"/><path class="cls-3" d="M68.61,125.17a40.58,40.58,0,0,0-8.56,34.66,31.09,31.09,0,0,1,9.23-21.48,41.44,41.44,0,0,0-.06,40.47c-4.7-9.38-2-20.7,1.91-30.44s8.92-19.51,8.64-30a31.47,31.47,0,0,1-11.54,17.46c6-15.22,12.47-31.11,25-41.57C79.78,101.36,69.42,114.21,68.61,125.17Z"/><path class="cls-3" d="M42.38,187.91c6,7.19,6.6,17.73,3.86,26.7S37.9,231.35,32.4,238.94c10.15-2.18,17.43-12.07,18.78-22.36S48.87,195.89,42.38,187.91Z"/><path class="cls-3" d="M62.2,343.24a11.27,11.27,0,0,0,6.89-12.94c-1.48-5.76-7.16-9.19-11.34-13.4a30.9,30.9,0,0,1,3.31-46.46c-2.52,7.23-5.06,14.6-5.37,22.25s1.94,15.78,7.65,20.89c2.76,2.46,6.18,4.11,8.74,6.78a15.79,15.79,0,0,1,2.35,18.11C71.27,344.17,64.19,347.4,62.2,343.24Z"/><path class="cls-3" d="M95.7,358.93c-7,1.48-14.5-4.92-14.14-12.06.32-6.14,5.25-11,7.27-16.79,3.67-10.55-2.85-21.92-10.57-30-3.33-3.47-7-6.84-8.72-11.33s-.48-10.55,3.94-12.42c-.92,5,2.14,9.89,5,14.11l13.13,19c1.45,2.11,3,4.3,5.28,5.47,2.84,1.45,6.4,1.09,9.1,2.8,3.83,2.42,4.24,8.13,2.25,12.2s-5.7,7-9.05,10-6.63,6.69-7.21,11.18S94.85,360.85,95.7,358.93Z"/><path class="cls-3" d="M96.39,221.15c-8.14,6.12-9.67,18-7.17,27.9s8.14,18.61,12,28,5.94,20.53,1.17,29.53c8.19-5.74,8.69-18,5.3-27.39s-9.68-17.63-12.6-27.2C91.72,240.81,93.35,228.18,96.39,221.15Z"/><path class="cls-3" d="M84,187.61c3.3,5.1,2.36,12-.27,17.44S77,215.17,73.94,220.4s-5.19,11.59-3.3,17.37c-1-5.62,2.56-11,6.62-15s8.9-7.45,11.59-12.48C93.52,201.54,90.49,190.86,84,187.61Z"/><path class="cls-3" d="M67.8,199.39C62.46,208,57,216.85,55.3,226.82s1.18,21.42,9.61,27c-4.61-9.62-5-20.83-3-31.32S68,202.08,67.8,199.39Z"/><path class="cls-3" d="M34.68,202.57c-1.19,7.38-5.93,13.65-10.74,19.37s-10,11.47-12.33,18.57-1,16.05,5.15,20.24c-3.4-5.85-2-13.47,1.5-19.27S27,231.18,31.63,226.3s9-10.56,10.06-17.24c1.23-8.13-2.69-16.12-7.15-23C36.75,191.79,35.41,198,34.68,202.57Z"/><path class="cls-3" d="M32.35,173.28a22.82,22.82,0,0,1-10.15,26c-2.57,1.46-5.49,2.45-7.52,4.59-4.4,4.64-2.65,12.14-.63,18.21-2.13-2.93-4.3-5.92-5.49-9.35s-1.27-7.42.65-10.5c2.65-4.25,8.08-5.58,12.45-8C29.66,189.76,34.63,180.39,32.35,173.28Z"/><path class="cls-3" d="M83,145.46a25.89,25.89,0,0,0,4.84,27C82.37,163.5,81.16,152,83,145.46Z"/><path class="cls-3" d="M115.56,237.17c-2.39,4.89-.49,10.81,2.31,15.49s6.48,9,8,14.19c1.57,5.53.47,11.45-1,17s-3.35,11.13-3.31,16.89,2.46,11.9,7.54,14.6c-4.06.78-8-2.48-9.47-6.35s-1-8.17-.44-12.27,1.15-8.35,0-12.31c-2.47-8.27-12.07-13.23-13.49-21.74-1-6,2.47-11.78,5.13-17.3s4.45-12.58.64-17.37A39.61,39.61,0,0,1,115.56,237.17Z"/><path class="cls-3" d="M73.09,244.4c-4,13,2.39,28.32,14.36,34.69C79.16,269,74.58,255.83,73.09,244.4Z"/><path class="cls-3" d="M74.19,54.05a18.73,18.73,0,0,0-4,32.53C63,76.19,66.72,60,74.19,54.05Z"/><path class="cls-3" d="M119.55,59.39c-6.78,1-11,8.24-11.8,15s.82,13.67.72,20.52-2.52,14.45-8.66,17.5c12-3.52,20.26-16.66,18.28-29-.72-4.53-2.65-8.89-2.62-13.48S118.57,60.25,119.55,59.39Z"/><path class="cls-3" d="M49.82,168.42c4.69,5.72,9.54,11.73,11.15,19s-1.14,16-8,18.79C59.17,193.23,56.1,176.47,49.82,168.42Z"/><path class="cls-3" d="M28.4,139.79a33,33,0,0,0-4.52,51c1.3-8.32-.33-16.82.23-25.22s4.17-17.58,12-20.7c-8.57.7-15.87,8.76-15.73,17.35A37.26,37.26,0,0,1,39,134.66C32.89,135.7,27.47,139.92,28.4,139.79Z"/><path class="cls-3" d="M261.71,81.16a34.3,34.3,0,0,0,.76,34c4.84,7.82,12.78,13.51,16.88,21.75,3.91,7.89,3.8,17.29,1.52,25.8s-6.57,16.31-10.81,24c13.63-11.46,23.37-30,18.2-47-3.27-10.77-11.75-19-18.39-28.06S258.16,90.56,261.71,81.16Z"/><path class="cls-3" d="M259.19,122.65a29.84,29.84,0,0,1,.44,48.27A26.21,26.21,0,0,0,278,145.71C277.64,134.53,269,124.11,259.19,122.65Z"/><path class="cls-3" d="M244.71,164.8a36.76,36.76,0,0,1,2.7,29.51c-1,2.91-2.38,5.85-2,8.9.44,4,3.64,7,6.13,10.13,10.13,12.78,8.92,33.13-2.66,44.62A38,38,0,0,0,245.91,219c-4.76-6.55-11.93-12.17-12.77-20.22-.73-7,3.66-13.37,7.41-19.33S247.66,166.14,244.71,164.8Z"/><path class="cls-3" d="M286.31,185.26c-2.91,5.51-1.5,12.36,1.26,18s6.75,10.52,9.27,16.21c6.51,14.74,1.14,33.76-12.13,42.9-1,.7-2.46,1.33-3.4.53-1.15-1-.23-2.85.73-4,3.8-4.7,7.6-9.54,9.84-15.16s2.74-12.22,0-17.59c-2.94-5.71-9-9.17-12.54-14.52A19.87,19.87,0,0,1,277,194.68C278.84,189.1,283.3,184.44,286.31,185.26Z"/><path class="cls-3" d="M273.33,224.48c6,7.51,7.44,17.85,6.06,27.35s-5.32,18.42-9.22,27.2c-5.23,11.81-10.58,23.8-19,33.6-3.47,4-7.61,8-8.48,13.27-.79,4.76,1.32,9.47,3.22,13.92s3.65,9.41,2.17,14-7.76,7.73-11.34,4.48c5.18-1.78,5.64-9.4,2.68-14s-8-7.5-11.58-11.61-5.58-10.91-1.73-14.82c10.07,3,21.65-6.66,20.46-17.11-.51-4.48-2.92-8.89-1.9-13.29,2.52-10.9,21.16-9.12,26-19.2,4.23-8.8-5.33-18-6.58-27.67-1-7.91,3.63-15.28,6.36-22.78S273,200,265.9,196.46C274.6,203.87,277.88,217,273.33,224.48Z"/><path class="cls-3" d="M237.27,229.18c7.48,6.86,5.64,19.18,1.37,28.4s-10.48,18.26-10,28.4c.31,6.37,3.3,12.37,3.66,18.74s-3.67,13.95-10,13.63c3.21-5.08.52-11.78-2.76-16.82s-7.3-10.4-6.59-16.37c1-8.7,11.41-13.52,13.71-22,2-7.54-2.94-15-4.6-22.62-2.54-11.65,3.69-24.63,14.36-29.94a12.76,12.76,0,0,0-3.84,13C233.92,228.18,238.11,231.79,237.27,229.18Z"/><path class="cls-3" d="M215.6,239c4.71,5.1,3,13.38-.36,19.47s-8.11,11.75-8.92,18.64c-.57,4.92,1,9.82,2.47,14.54s3,9.62,2.41,14.53-4,9.85-8.92,10.58c5.49-3.94,6.66-11.84,5-18.39s-5.53-12.27-8.51-18.33-5.09-13.11-3-19.51c2-6,7.32-10.24,12-14.58S216.92,236,215.6,239Z"/><path class="cls-3" d="M231.1,71.55a23.36,23.36,0,0,1,12.65,22.28c-.35,4.25-1.89,8.49-1.14,12.7,1.11,6.21,6.74,10.37,11.06,15s7.5,12.12,3.39,16.91c2.93-4.9-1.19-11.14-6-14.27s-10.65-5.15-13.71-10c-2.77-4.38-2.48-10-1.43-15.09s2.78-10.1,2.58-15.28S235.56,73.06,231.1,71.55Z"/><path class="cls-3" d="M263.18,57.77a32.42,32.42,0,0,1,7.35,44.54c-1.69-5.64,0-11.66,1-17.47s1-12.52-3.18-16.69c-2.36-2.37-5.74-3.54-8.05-6S258.11,54,263.18,57.77Z"/><path class="cls-3" d="M284.87,89.73c4.18,4.57,5,11.24,5,17.43s-.55,12.58,1.57,18.4c2.22,6.1,7.13,10.82,10.15,16.57,6.28,12,2.74,28.29-8,36.59A35.47,35.47,0,0,0,296,142.55c-5-9.54-14.72-17.78-13.84-28.51.38-4.66,2.81-8.89,3.88-13.44S286.23,90.33,284.87,89.73Z"/><path class="cls-3" d="M302.71,177.89c-1.57,7.47,3.74,14.46,8.69,20.27s10.21,12.86,8.53,20.3c-1.17,5.22-5.7,9.88-4.61,15.12.75,3.65,4,6.18,5.7,9.52A11.82,11.82,0,0,1,316.73,258a16.68,16.68,0,0,0-2.11-17.71c-1.91-2.27-4.52-4.16-5.37-7-1.9-6.28,5.68-11.52,6.54-18,.65-4.93-2.7-9.46-6.27-12.92s-7.73-6.69-9.45-11.36S300.6,179.73,302.71,177.89Z"/><path class="cls-3" d="M111.41,40.17a38.1,38.1,0,0,0-30.32,51.1A30.64,30.64,0,0,1,91.41,60.41c4.47-3.57,9.87-5.79,14.51-9.14S114.6,42.8,111.41,40.17Z"/><path class="cls-3" d="M56.21,80.8c-6.33,3-9.49,10.32-10.26,17.28s.28,14-.29,21S42.4,133.47,36.35,137c4.15-6.46,5-14.45,5.37-22.12s.18-15.52,2.61-22.8S52.43,78,56.21,80.8Z"/><path class="cls-3" d="M87.71,127.38c-10.79,11.4-12.38,30.42-3.63,43.45C80.3,155.93,84.67,139.23,87.71,127.38Z"/><path d="M246.8,260.29a34.5,34.5,0,0,0,1.71-35.54c-4.59-8.37-12-15.78-12.45-25.85-1.29-12,10.83-20.15,10.52-31.93,0-6.29-3.24-11.8-4.68-17.77a38.36,38.36,0,0,1-.42-8.57c1.34-17.61-12.89-26.52-23.39-38a57.92,57.92,0,0,1-8.27-12c-3-5.74-4.07-12.21-6.59-18.15a34.35,34.35,0,0,0-7.52-11,23.52,23.52,0,0,0-24.1-5.68c-2.09.7-4.33,1.74-5.62,3.59-.61,1.09.31,1.87,1.36,1.38,1.53-.49,3.05-1,4.61-1.33A22.24,22.24,0,0,1,196.07,69c4.38,6.31,5.56,14,8.44,20.91a56.28,56.28,0,0,0,6.36,11.23c8.23,12.55,25.5,20.5,25.78,37.1.2,3.67-.3,7.35.21,11,1,7.71,6.87,15.06,3.75,23-2.75,7.55-8.19,14.2-8.79,22.45a30.77,30.77,0,0,0,4.31,18.53c3.64,6.43,9.3,11.83,11.62,18.93a32.19,32.19,0,0,1-2.15,25c-.33.65-.66,1.26-1,1.9a1.28,1.28,0,1,0,2.2,1.29Z"/><path d="M222.16,320.52c4.27-4.75,2-11.89-1.28-16.53-3.88-5.62-7.16-12.78-4.7-19.62,1.37-3.79,4.33-6.63,6.66-9.81a21.47,21.47,0,0,0,4.48-18.3c-1.26-5.94-4.08-11.66-4.55-17.68-.92-10.75,6.14-19.71,9.71-29.17.77-1.9,2.85-11.56,0-11.07-.51.3-.38,1-.44,1.52a31,31,0,0,1-3.33,10.88c-5.11,9.26-11.17,19.17-9.61,30.2.7,5.55,3,10.72,4.23,16.15,2.65,11.12-6.09,16.57-10.49,25.2-2.86,6.5-1.57,14.27,2.15,20.17,2.34,3.64,6,6.69,6.25,11.33a10.36,10.36,0,0,1-1.21,5.06A1.38,1.38,0,0,0,222.16,320.52Z"/><path d="M200.24,318.73c5.72-2.48,8-9.23,8.18-15.06.23-7.08-2.94-13.63-6-19.79-8.28-14.87-5.66-23.66,5.25-36,6.57-7.25,14.77-14.66,15.95-24.89a.61.61,0,0,0-.64-.4,1,1,0,0,0-.6.49,49.53,49.53,0,0,1-8.4,13c-10.24,10.76-24.46,22.62-19.14,39.25,3.33,10.34,11.6,19.1,10.48,30.43-.28,4.59-2.4,10.87-7.58,11.6a.93.93,0,0,0-.93.93C197,319.93,199.22,319,200.24,318.73Z"/><path d="M203.32,319.26c7.15-1.87,11.29-9.23,12.11-16.18,0-1.82,1.35-9.36-1.27-9.24-1.86.08-1.37,2.29-1.47,3.57a31.1,31.1,0,0,1-1.55,9.55,15.44,15.44,0,0,1-13.6,10.54,1,1,0,0,0-.62,1C197.47,320.49,201.79,319.59,203.32,319.26Z"/><path d="M223,320.85c10.08-1.16,21.54-6.74,23.9-17.46,1-4.53-.6-9-1.18-13.43-.52-4,3.2-6.53,6.38-8.07,4.7-2.31,9.7-4.41,13.49-8.13a22.41,22.41,0,0,0,5.17-12.61c.08-2.45-.73-4.79-1.32-7.13-.4-1.54-.82-3.08-1.31-4.6a1.05,1.05,0,0,0-1.28-.72,1,1,0,0,0-.72,1.28,59.34,59.34,0,0,1,1.52,5.76c1.72,5.7-.63,11.81-4.61,16-5,4.53-12,6-17.22,10.14-7.74,6.34,0,14.2-2.91,21.94s-11,11.95-18.54,13.93c-1.17.43-2.69.39-3.57,1.37C220,320.6,221.78,321.22,223,320.85Z"/><path d="M242.26,362.38a15.94,15.94,0,0,0,15.51-13.6c1-6.16-1.94-11.93-4-17.51-1.06-2.71-1.2-5.95,2-7.21,5.39-2.25,11.25-3.88,15.47-8.2,6.45-6.14,8.44-15.93,6.23-24.36-.86-4-1.55-7.93-2.61-11.88a1.46,1.46,0,0,0-2.81.78c.5,1.87.93,3.76,1.32,5.64.94,4.92,2,9.95,1.25,15a20.6,20.6,0,0,1-8.89,14.5c-5.58,4.23-17.41,4.15-16.44,13.52,1,6.43,5.34,11.76,4.91,18.35-.4,8.51-9.78,14-17.62,11.41,5.11-2.08,7.44-7,5-12.09-2.59-5.68-9.22-7.82-12.68-12.81-2.64-4-3.71-10.34-.6-14.33a1,1,0,0,0-.24-1.23c-.66-.57-1.6,0-2.12.47-2.65,2.62-2.89,6.73-2.47,10.24.38,4.5,3.27,8.24,6.72,10.94,3.86,3.26,9.92,5.95,9.67,11.84-.05,2.38-1.92,4.14-3.91,5.12a3.89,3.89,0,0,1-2.51.43c-1.54.51-.71,2.38.35,3C236.22,362,239.34,362.4,242.26,362.38Z"/><path d="M271.4,346.69c1.07-.14,2.37.05,3.29-.61.84-1.06-.37-1.64-1.27-1.78-2-.75-3.15-3-3.48-5-.19-2.29,1.37-4.15,3-5.55,4.15-3.4,9.28-5.56,12.89-9.64,7.31-7.69,6.77-17,3-26.19-2.22-5.78-2.92-12.7,1-17.89,5.22-6.92,11-13.8,7.05-23a20.16,20.16,0,0,0-3.86-5.19,1,1,0,0,0-1.37,0c-.89,1,.62,1.88,1.06,2.73a14,14,0,0,1,2.53,6.58C296,268,290.81,273,287.07,278c-6.19,8.25-3.22,16.84-.2,25.59a17.82,17.82,0,0,1-3.82,17.76c-5.69,6.69-22.88,12.21-13.5,23.06-10-1.58-14.18-14-8.6-22a6.43,6.43,0,0,1,1-1.12c.72-1.22-1-1.74-1.86-1.09-5.67,4-6.11,12.63-3,18.42a14.85,14.85,0,0,0,14.41,8.09Z"/><path d="M292.5,330.05c5.3-1.61,8.69-6.75,10.14-11.87a14.06,14.06,0,0,0-.62-8.11c-.92-3.11-3.38-6.68-1.26-9.81,2.17-2.81,5.5-4.48,7.63-7.34,3.61-4.38,5.43-10.45,3.84-16-1.18-4.48-4.21-8.05-6.49-12-4.92-9.41,11.43-15,5.88-28-2.32-4.82-6.7-8.28-10.16-12.27a1.51,1.51,0,0,0-2.14,2.13c1.13,1.13,2.22,2.31,3.27,3.5,6.35,7.14,9.07,12.11,3,20.67-2.36,3.45-4.92,7.3-4.33,11.68a15.62,15.62,0,0,0,3,6.76c4.51,6.34,6.85,12.88,2,19.84-2,3-5.09,4.9-7.57,7.44-9.11,10.31,9,15.6-4.06,29,2.05-4.23,0-9.51-3.17-12.61-.61-.51-1.72-1.56-2.4-.63a1.61,1.61,0,0,0,.16,1.53,21.55,21.55,0,0,1,2.9,5.29c1,2.8,1.24,6.36-1,8.61C289.55,329,290.93,330.68,292.5,330.05Z"/><path d="M313.63,145.15c2.83-2,5.09-10.56,1.2-12.24-1.36-.39-2.4.91-3.55,1.32-4.87,2.19-10.18-1.82-11-6.7-.94-4.36,0-8.82-.38-13.23s-1.72-9-5-12a.55.55,0,0,0-.84.51,2.91,2.91,0,0,0,.45.94,24.16,24.16,0,0,1,2.54,6.65c1.27,5.69-.56,11.51.44,17.22,1.39,8.78,9,11.8,16.53,7.47.71,2.83-.8,5.7-2.76,7.66A1.7,1.7,0,0,0,313.63,145.15Z"/><path d="M313,188.49c4.92-1.33,6.16-9.89,7.1-14.22a36.69,36.69,0,0,0-4.78-25.09c-2.3-3.81-5.56-8.11-10.32-8.57-.58,0-1.51-.1-1.65.67a.7.7,0,0,0,.38.72c.8.59,1.78,1.1,2.56,1.62,3.08,2.08,5,5.31,6.66,8.5,4.64,9.12,4.66,20,1.32,29.5-.59,2.17-1.75,3.18-2.75,4.92A1.55,1.55,0,0,0,313,188.49Z"/><path d="M316.94,259.77c7-2.27,13.22-9.85,11.87-17.45a17.53,17.53,0,0,0-3.8-8.24c-1.22-1.59-2.78-3-3.45-5-2.38-8.29,9.6-9.83,10.6-19.68,1.23-6.33-2.37-12.86-7.78-16.09-5.86-3.4-12.43-3.48-13.8-11.57-1.2-6.36.36-13.21-2.91-19.09-.62-1-1.19-2.46-2.45-2.66a.7.7,0,0,0-.74.88c2.83,6.41.89,13.39,1.61,20.09,1.06,10.38,6.82,11.83,15.33,14.87,5.68,2.58,9.08,9.27,6.82,15.26-1.29,3.37-3.86,5.74-6.27,8.27-3.29,3.36-4.8,8.83-2.16,13,1.65,2.64,4.11,4.8,5.1,7.83,2.37,6-1.34,12.28-6.22,15.74,1.2-3.1.74-6.46-.31-9.53-1-3.58-3.11-6.82-6.55-8.45a1.17,1.17,0,0,0-1.6.42c-.68,1.22.86,1.76,1.49,2.52a14.85,14.85,0,0,1,2.7,4.54c.83,2.92,1.85,5.54,1.25,8.46-.23,1.52-1.16,2.84-1.37,4.34A1.8,1.8,0,0,0,316.94,259.77Z"/><path d="M309.84,117.5c4.81-6.27,2.45-17.78-2.93-23.11-4.31-4.86-11.07-6.07-15.81-10.18-3.85-3.14-5-8.08-4.45-12.83,1.42-12-4.95-23.42-16.48-27.49-5-2.07-10.59-1.21-15.62-2.46a1,1,0,0,0-1.67,1.26c2.53,1.32,5.63,1.53,8.46,1.93,11.28.91,21.33,9.73,21.6,21.36.13,7.73-1.26,14.58,5.26,20.37C292,90,297.39,91.26,301.69,94c6.46,4.1,9.17,12.48,7.82,19.81a16.43,16.43,0,0,0-9.05-9.29c-1.26-.47-4.13-1-4.13,1a1.18,1.18,0,0,0,1.32,1c3.79-.28,7.19,4.7,9,7.56C307.46,115.39,307.64,118.86,309.84,117.5Z"/><path d="M270.05,35.68a1.49,1.49,0,0,0-1.3.14,3.69,3.69,0,0,1-2.85.69,16.81,16.81,0,0,1-7-1c-11.4-5-8.42-21.77-28.46-21.85-5.48,0-11.28,2.78-16.41,0-3.12-1.81-4.84-5.19-7.61-7.43-6-4.93-14.12-6.66-21.76-6.16a28.21,28.21,0,0,0-17.61,7.47c-.36.41-.9.88-1.28,1.39l.83,1.24a2.19,2.19,0,0,1,.41-.32,33.82,33.82,0,0,1,14.63-6.08c7.29-.94,15.18.38,21.34,4.38,5.52,4,7.92,10.39,15.81,10.46,8.75-.35,17-4.08,24.32,3.22,3.61,3.82,5.61,9.28,9.21,13,4,4.15,10.55,6.13,15.9,3.71a13,13,0,0,1-2.36,3.75,2.24,2.24,0,0,0-.63,1.34,1.21,1.21,0,0,0,1.7,1.14C269,43.73,273.1,37.19,270.05,35.68Z"/><path d="M224.93,64.06a.58.58,0,0,0,.11-.79c-2.43-3.53-5.08-6.89-7.73-10.25-3.25-4.32-6.93-8.44-11.62-11.23-9.14-5.26-24.89-9.76-33.38-1.4-.29.35-.71,1.18,0,1.34a.43.43,0,0,0,.48-.37A5.11,5.11,0,0,1,174.24,40c10.5-5.75,24.77-1.19,33.9,5.39,5.51,4.28,9.59,10,13.81,15.5.74,1,1.48,2,2.19,3.08A.57.57,0,0,0,224.93,64.06Z"/><path d="M253.7,165.51c5.4-16.34,6.84-24.92-4.68-39.08-5.57-6.4-12.36-12.22-15.25-20.42-3.17-9.16-.93-19.83-6.63-28.15-.19-.34-.57-.68-.95-.38a.55.55,0,0,0,0,.86,10.85,10.85,0,0,1,1,1.65c4.4,8.94,2,19.59,6.18,28.6,3.3,7.54,9.67,13,14.91,19.14,4.2,5.21,7.85,11.49,8.4,18.27.34,6.62-1.81,13-3.75,19.29C252.73,165.78,253.56,166.06,253.7,165.51Z"/><path d="M261.3,248.11c13-33.13-9.43-37.66-11.22-64.78-.06-.93-.12-1.87-.09-2.8a.41.41,0,0,0-.4-.39.4.4,0,0,0-.39.37,29,29,0,0,0,0,4.47c.85,19.85,17.5,29.21,14.38,50a75.39,75.39,0,0,1-3.18,12.46A.62.62,0,0,0,261.3,248.11Z"/><path d="M270.79,188.05c2.43-8.07,6.63-15.38,10.25-22.94,8.72-16.61-2.85-31.06-13.06-43.58-5.12-6.41-10.51-13.63-10.3-22.21-.05-6.58,3-12.68,3.22-19.22.19-12.19-8.29-22.54-16.65-30.58a91.6,91.6,0,0,0-21.47-14.68c-.85-.4-2.09-1.57-2.76-.4-.43,1.33,1.71,1.45,2.41,2a88,88,0,0,1,21.8,15.68c7.52,7.76,15.17,17.57,14.63,28.93-.59,7-3.72,13.69-2.86,20.82.67,7.43,5.21,13.74,9.68,19.45,7.95,10.26,19.07,21.7,16.58,35.77-1.58,7.46-5.84,13.93-8.8,20.87a97.82,97.82,0,0,0-3.64,9.81.51.51,0,0,0,.35.62A.52.52,0,0,0,270.79,188.05Z"/><path d="M280.31,266a37.66,37.66,0,0,1,2.21-14.44c1.46-2.94,3.59-5.5,5-8.46,7.62-16.73-15-26.78-13.25-43.88a15,15,0,0,1,.52-3.32.55.55,0,0,0-1.05-.21,27.33,27.33,0,0,0-.37,7.87c.65,5.95,3.59,11.3,7,16.13,2.66,3.83,5.4,7.56,6.68,12.08,3.11,10.18-4.68,13.85-6.82,22.3a41,41,0,0,0-1.16,6.8,38.21,38.21,0,0,0-.12,5.13.69.69,0,0,0,1.38,0Z"/><path d="M314,218.18a.38.38,0,0,0,.33-.43c-1.13-5.7-6.39-9-10.23-12.8-8.1-7.52-14.13-18.47-12.28-29.78,2.05-12.37,8.62-22.63,2.61-35.31-4-8.72-12.14-15.46-14-25.15-1-5.12,0-10.32.17-15.47a31.07,31.07,0,0,0-1.54-11.08A99.35,99.35,0,0,0,274.4,78a.6.6,0,0,0-.82-.22.61.61,0,0,0-.21.82c13.41,23.41-4.05,29.14,13.63,52.29,22.35,27.42-9.51,39,9.3,67.06,4.06,6.34,10.73,10.26,15.45,15.94a12.11,12.11,0,0,1,1.86,4A.38.38,0,0,0,314,218.18Z"/><path d="M267,59.51c-1.72-4.63-6.22-7.64-10.26-10.16-4.35-2.63-9.33-4.14-13.14-7.56-5.2-5.31-10-11.53-17.44-13.76-6.52-2.16-13.51-.76-20.23-.79a.56.56,0,0,0,0,1.11c10.77-.28,20.12-2,28.74,6.13,3.57,3.21,6.27,7.38,10.38,10,7,4.41,16.54,7.08,20.34,15.07A.83.83,0,1,0,267,59.51Z"/><path d="M179.92,19.05c3.53-1.93,8.07-4,11.88-1.67.55.78,1.6-.3.79-.83-2.59-1.62-6-1.55-8.82-.58a36.44,36.44,0,0,0-4.41,2.12.56.56,0,0,0,.56,1Z"/><path d="M245.92,91.61c.28-13.91-5.12-28.08-16.09-37a.38.38,0,0,0-.46.61l.41.33a45.89,45.89,0,0,1,13.88,25.27,55.62,55.62,0,0,1,1,10.75A.62.62,0,0,0,245.92,91.61Z"/><path d="M222.78,100.07a.53.53,0,0,0,.37-.65c-.88-4.09-1.7-8.16-2.5-12.26-1.14-5.09-1.35-10.7-4.45-15.08-.14-.19-.37-.45-.61-.27a.3.3,0,0,0-.08.38A21.55,21.55,0,0,1,217,75.5c1.74,5.89,2.42,12.15,3.81,18.1q.61,3.06,1.28,6.1A.53.53,0,0,0,222.78,100.07Z"/><path d="M259.14,191.82c.62-6.42,1.28-12.83,2.15-19.22,0-1.17,1.51-7.68.19-7.71a.52.52,0,0,0-.5.59c-.61,8.56-2.19,17.5-2.81,26.21A.49.49,0,0,0,259.14,191.82Z"/><path d="M231.09,306.7a.63.63,0,0,0,.53-.7,129.39,129.39,0,0,1-1.81-20.5c1.17-14.62,13.88-21.42,11.52-38.05-.08-.73-.88-7.31-1.58-5.35.28,1.62.39,3.26.52,4.9,1.89,19.66-14.69,25.47-11.44,45.86.4,4.45.84,8.9,1.57,13.31A.63.63,0,0,0,231.09,306.7Z"/><path d="M245.34,336.78a.58.58,0,0,0,.39-.7,43.33,43.33,0,0,1-1.46-5.14,24.25,24.25,0,0,1,6.14-20.63c4.52-5,11.44-8.95,12.07-16.35a22.27,22.27,0,0,0-.14-5.16.66.66,0,0,0-.82-.54.67.67,0,0,0-.39,1,12.42,12.42,0,0,1,.25,1.63c1.09,10.19-10,14.45-14.52,22a24.69,24.69,0,0,0-2.63,22.32C244.51,335.74,244.49,336.91,245.34,336.78Z"/><path d="M210.93,270.36a23.64,23.64,0,0,1,4.26-15.6,1.39,1.39,0,0,0,.32-1,.37.37,0,0,0-.71,0,22.41,22.41,0,0,0-4.9,11.11,27,27,0,0,0-.14,5.47.6.6,0,0,0,.59.58A.59.59,0,0,0,210.93,270.36Z"/><path d="M266.56,334.13c.92-8,3.52-9.58,8.54-15.14,7.46-8.31,8-20.5,5.08-30.81a.46.46,0,1,0-.87.3,14.84,14.84,0,0,1,.6,2.17c1.88,9.89.57,21-6.64,28.52-2.4,2.8-5.38,5.37-6.61,9-.52,1.93-.84,3.88-1.2,5.85A.56.56,0,0,0,266.56,334.13Z"/><path d="M292.87,298.16a31.55,31.55,0,0,1,1.26-8.82c1.88-5.83,7.52-10.51,6.61-17,0-.8-1.1-.53-.81.25.26,4.2-2.57,7.67-4.66,11.05a24.14,24.14,0,0,0-3.83,14.54A.72.72,0,0,0,292.87,298.16Z"/><path d="M85.6,260.29a34.5,34.5,0,0,1-1.71-35.54c4.59-8.37,12-15.78,12.45-25.85,1.29-12-10.82-20.15-10.52-31.93,0-6.29,3.24-11.8,4.68-17.77a38.36,38.36,0,0,0,.42-8.57c-1.34-17.61,12.89-26.52,23.39-38a57.92,57.92,0,0,0,8.27-12c3-5.74,4.07-12.21,6.59-18.15a34.35,34.35,0,0,1,7.52-11,23.52,23.52,0,0,1,24.1-5.68c2.1.7,4.33,1.74,5.63,3.59.6,1.09-.32,1.87-1.37,1.38-1.52-.49-3.05-1-4.61-1.33A22.23,22.23,0,0,0,136.34,69c-4.39,6.31-5.57,14-8.45,20.91a56.73,56.73,0,0,1-6.35,11.23c-8.24,12.55-25.5,20.5-25.79,37.1-.2,3.67.31,7.35-.21,11-1,7.71-6.87,15.06-3.75,23,2.75,7.55,8.19,14.2,8.79,22.45a30.77,30.77,0,0,1-4.31,18.53C92.64,219.64,87,225,84.65,232.14a32.19,32.19,0,0,0,2.16,25c.32.65.65,1.26,1,1.9a1.28,1.28,0,1,1-2.2,1.29Z"/><path d="M110.25,320.52c-4.28-4.75-2-11.89,1.27-16.53,3.89-5.62,7.16-12.78,4.7-19.62-1.36-3.79-4.32-6.63-6.65-9.81a21.47,21.47,0,0,1-4.48-18.3c1.25-5.94,4.07-11.66,4.54-17.68.92-10.75-6.13-19.71-9.71-29.17-.77-1.9-2.85-11.56,0-11.07.5.3.38,1,.43,1.52a30.84,30.84,0,0,0,3.34,10.88c5.1,9.26,11.16,19.17,9.6,30.2-.7,5.55-3,10.72-4.23,16.15-2.65,11.12,6.09,16.57,10.49,25.2,2.86,6.5,1.57,14.27-2.15,20.17-2.34,3.64-6,6.69-6.25,11.33a10.26,10.26,0,0,0,1.22,5.06A1.38,1.38,0,0,1,110.25,320.52Z"/><path d="M132.16,318.73c-5.72-2.48-8-9.23-8.18-15.06-.23-7.08,3-13.63,6.06-19.79,8.27-14.87,5.65-23.66-5.26-36-6.57-7.25-14.77-14.66-16-24.89a.61.61,0,0,1,.64-.4,1,1,0,0,1,.6.49,49.53,49.53,0,0,0,8.4,13c10.24,10.76,24.47,22.62,19.15,39.25-3.34,10.34-11.6,19.1-10.49,30.43.28,4.59,2.41,10.87,7.58,11.6a.93.93,0,0,1,.93.93C135.42,319.93,133.18,319,132.16,318.73Z"/><path d="M129.08,319.26c-7.15-1.87-11.29-9.23-12.11-16.18,0-1.82-1.35-9.36,1.27-9.24,1.86.08,1.37,2.29,1.48,3.57a30.8,30.8,0,0,0,1.54,9.55,15.44,15.44,0,0,0,13.6,10.54,1,1,0,0,1,.62,1C134.93,320.49,130.61,319.59,129.08,319.26Z"/><path d="M109.38,320.85c-10.08-1.16-21.54-6.74-23.9-17.46-1-4.53.6-9,1.18-13.43.52-4-3.2-6.53-6.38-8.07-4.7-2.31-9.7-4.41-13.49-8.13a22.41,22.41,0,0,1-5.17-12.61c-.08-2.45.74-4.79,1.33-7.13.39-1.54.81-3.08,1.3-4.6a1.06,1.06,0,0,1,1.28-.72,1,1,0,0,1,.72,1.28,59.34,59.34,0,0,0-1.52,5.76c-1.71,5.7.63,11.81,4.62,16,5,4.53,12,6,17.21,10.14,7.75,6.34,0,14.2,2.91,21.94s11,11.95,18.54,13.93c1.17.43,2.69.39,3.57,1.37C112.45,320.6,110.62,321.22,109.38,320.85Z"/><path d="M90.14,362.38a15.94,15.94,0,0,1-15.51-13.6c-1-6.16,1.94-11.93,4-17.51,1.06-2.71,1.2-5.95-1.95-7.21-5.39-2.25-11.26-3.88-15.48-8.2-6.45-6.14-8.43-15.93-6.23-24.36.86-4,1.55-7.93,2.61-11.88a1.46,1.46,0,0,1,2.81.78c-.5,1.87-.93,3.76-1.31,5.64-.95,4.92-2,9.95-1.25,15a20.58,20.58,0,0,0,8.88,14.5c5.58,4.23,17.41,4.15,16.44,13.52-1,6.43-5.34,11.76-4.9,18.35.4,8.51,9.77,14,17.62,11.41-5.12-2.08-7.45-7-5-12.09,2.59-5.68,9.21-7.82,12.67-12.81,2.64-4,3.71-10.34.6-14.33a1,1,0,0,1,.24-1.23c.66-.57,1.6,0,2.12.47,2.65,2.62,2.89,6.73,2.47,10.24-.38,4.5-3.27,8.24-6.72,10.94-3.85,3.26-9.92,5.95-9.67,11.84.05,2.38,1.92,4.14,3.91,5.12a3.89,3.89,0,0,0,2.51.43c1.54.51.71,2.38-.35,3C96.18,362,93.06,362.4,90.14,362.38Z"/><path d="M61,346.69c-1.07-.14-2.37.05-3.28-.61-.85-1.06.36-1.64,1.26-1.78,2-.75,3.15-3,3.48-5,.19-2.29-1.37-4.15-3-5.55-4.16-3.4-9.29-5.56-12.9-9.64-7.31-7.69-6.77-17-3-26.19,2.22-5.78,2.93-12.7-1-17.89-5.23-6.92-11-13.8-7.05-23a20.13,20.13,0,0,1,3.85-5.19,1,1,0,0,1,1.37,0c.89,1-.61,1.88-1.06,2.73a14,14,0,0,0-2.53,6.58C36.38,268,41.6,273,45.33,278c6.19,8.25,3.22,16.84.21,25.59a17.81,17.81,0,0,0,3.81,17.76C55,328,72.23,333.55,62.85,344.4c10-1.58,14.18-14,8.6-22a6.38,6.38,0,0,0-1-1.12c-.73-1.22,1-1.74,1.85-1.09,5.68,4,6.11,12.63,3,18.42a14.86,14.86,0,0,1-14.42,8.09Z"/><path d="M39.9,330.05c-5.3-1.61-8.69-6.75-10.13-11.87a14,14,0,0,1,.61-8.11c.93-3.11,3.38-6.68,1.26-9.81-2.17-2.81-5.49-4.48-7.63-7.34-3.61-4.38-5.42-10.45-3.84-16,1.18-4.48,4.21-8.05,6.49-12,4.92-9.41-11.43-15-5.88-28,2.32-4.82,6.7-8.28,10.17-12.27a1.51,1.51,0,1,1,2.13,2.13c-1.13,1.13-2.21,2.31-3.27,3.5-6.35,7.14-9.07,12.11-3,20.67,2.36,3.45,4.92,7.3,4.33,11.68a15.62,15.62,0,0,1-3,6.76c-4.5,6.34-6.85,12.88-2,19.84,2,3,5.09,4.9,7.57,7.44,9.12,10.31-9,15.6,4.06,29-2-4.23,0-9.51,3.17-12.61.61-.51,1.72-1.56,2.4-.63A1.64,1.64,0,0,1,43.2,314a21.59,21.59,0,0,0-2.91,5.29c-1,2.8-1.24,6.36,1,8.61C42.85,329,41.48,330.68,39.9,330.05Z"/><path d="M18.77,145.15c-2.83-2-5.09-10.56-1.2-12.24,1.36-.39,2.4.91,3.55,1.32,4.87,2.19,10.18-1.82,11-6.7.93-4.36,0-8.82.38-13.23s1.71-9,5-12a.55.55,0,0,1,.85.51,3.39,3.39,0,0,1-.45.94,23.87,23.87,0,0,0-2.55,6.65c-1.26,5.69.57,11.51-.43,17.22-1.4,8.78-9,11.8-16.54,7.47-.71,2.83.8,5.7,2.76,7.66A1.7,1.7,0,0,1,18.77,145.15Z"/><path d="M19.37,188.49c-4.92-1.33-6.16-9.89-7.09-14.22a36.63,36.63,0,0,1,4.77-25.09c2.3-3.81,5.57-8.11,10.32-8.57.59,0,1.52-.1,1.66.67a.72.72,0,0,1-.39.72c-.79.59-1.78,1.1-2.56,1.62-3.07,2.08-5,5.31-6.65,8.5-4.65,9.12-4.67,20-1.33,29.5.59,2.17,1.75,3.18,2.75,4.92A1.55,1.55,0,0,1,19.37,188.49Z"/><path d="M15.47,259.77c-7-2.27-13.23-9.85-11.87-17.45a17.41,17.41,0,0,1,3.79-8.24c1.22-1.59,2.78-3,3.46-5,2.37-8.29-9.6-9.83-10.61-19.68C-1,203.12,2.61,196.59,8,193.36c5.87-3.4,12.43-3.48,13.8-11.57,1.2-6.36-.36-13.21,2.92-19.09.62-1,1.18-2.46,2.45-2.66a.71.71,0,0,1,.74.88c-2.84,6.41-.89,13.39-1.62,20.09C25.25,191.39,19.5,192.84,11,195.88c-5.68,2.58-9.07,9.27-6.81,15.26,1.28,3.37,3.86,5.74,6.26,8.27,3.29,3.36,4.8,8.83,2.16,13-1.65,2.64-4.11,4.8-5.1,7.83-2.36,6,1.34,12.28,6.22,15.74-1.2-3.1-.74-6.46.31-9.53,1-3.58,3.11-6.82,6.55-8.45a1.17,1.17,0,0,1,1.6.42c.68,1.22-.86,1.76-1.49,2.52A14.62,14.62,0,0,0,18,245.49c-.84,2.92-1.86,5.54-1.25,8.46.22,1.52,1.15,2.84,1.36,4.34A1.8,1.8,0,0,1,15.47,259.77Z"/><path d="M22.56,117.5c-4.81-6.27-2.45-17.78,2.94-23.11,4.3-4.86,11.06-6.07,15.8-10.18,3.85-3.14,5-8.08,4.45-12.83-1.42-12,5-23.42,16.48-27.49,5-2.07,10.59-1.21,15.63-2.46a1,1,0,0,1,1.66,1.26C77,44,73.89,44.22,71.06,44.62c-11.28.91-21.32,9.73-21.6,21.36-.12,7.73,1.26,14.58-5.26,20.37C40.37,90,35,91.26,30.71,94c-6.46,4.1-9.16,12.48-7.82,19.81a16.43,16.43,0,0,1,9.05-9.29c1.26-.47,4.14-1,4.13,1a1.18,1.18,0,0,1-1.32,1c-3.79-.28-7.19,4.7-9,7.56C25,115.39,24.77,118.86,22.56,117.5Z"/><path d="M65.47,44.78c-2.1-1.05-6.17-7.59-3.12-9.1a1.49,1.49,0,0,1,1.3.14,3.69,3.69,0,0,0,2.85.69,16.76,16.76,0,0,0,7-1c11.4-5,8.42-21.77,28.46-21.85,5.48,0,11.28,2.78,16.41,0,3.13-1.81,4.85-5.19,7.61-7.43C132,1.31,140.1-.42,147.74.08a28.23,28.23,0,0,1,17.62,7.47c.67.76,2,1.76,1.65,2.86-.55.68-1.13-.29-1.62-.55a33.79,33.79,0,0,0-14.62-6.08c-7.3-.94-15.19.38-21.35,4.38-5.51,4-7.92,10.39-15.8,10.46-8.75-.35-17-4.08-24.33,3.22-3.61,3.82-5.6,9.28-9.21,13-4,4.15-10.55,6.13-15.9,3.71a13,13,0,0,0,2.36,3.75,2.25,2.25,0,0,1,.64,1.34A1.22,1.22,0,0,1,65.47,44.78Z"/><path d="M107.47,64.06a.57.57,0,0,1-.1-.79c2.42-3.53,5.07-6.89,7.72-10.25,3.25-4.32,6.93-8.44,11.62-11.23,9.14-5.26,24.89-9.76,33.39-1.4.28.35.7,1.18,0,1.34a.43.43,0,0,1-.48-.37A5,5,0,0,0,158.16,40c-10.5-5.75-24.77-1.19-33.9,5.39-5.51,4.28-9.59,10-13.8,15.5-.75,1-1.48,2-2.2,3.08A.57.57,0,0,1,107.47,64.06Z"/><path d="M78.7,165.51c-5.4-16.34-6.84-24.92,4.68-39.08C89,120,95.75,114.21,98.63,106c3.17-9.16.93-19.83,6.64-28.15.19-.34.56-.68.94-.38a.55.55,0,0,1,0,.86,11.76,11.76,0,0,0-1,1.65c-4.4,8.94-2,19.59-6.17,28.6-3.31,7.54-9.68,13-14.92,19.14-4.2,5.21-7.85,11.49-8.4,18.27-.34,6.62,1.81,13,3.75,19.29C79.67,165.78,78.84,166.06,78.7,165.51Z"/><path d="M71.1,248.11c-13-33.13,9.43-37.66,11.22-64.78.06-.93.12-1.87.1-2.8a.39.39,0,0,1,.78,0,29,29,0,0,1,0,4.47c-.85,19.85-17.5,29.21-14.38,50A76.4,76.4,0,0,0,72,247.42.62.62,0,0,1,71.1,248.11Z"/><path d="M61.61,188.05C59.18,180,55,172.67,51.36,165.11c-8.72-16.61,2.85-31.06,13.06-43.58,5.12-6.41,10.51-13.63,10.31-22.21,0-6.58-3-12.68-3.23-19.22-.18-12.19,8.29-22.54,16.66-30.58a91.34,91.34,0,0,1,21.46-14.68c.85-.4,2.1-1.57,2.76-.4.43,1.33-1.71,1.45-2.4,2A87.85,87.85,0,0,0,88.17,52.13C80.65,59.89,73,69.7,73.54,81.06c.6,7,3.72,13.69,2.86,20.82-.67,7.43-5.2,13.74-9.67,19.45-8,10.26-19.08,21.7-16.58,35.77C51.73,164.56,56,171,58.94,178a97.82,97.82,0,0,1,3.64,9.81.51.51,0,0,1-.35.62A.52.52,0,0,1,61.61,188.05Z"/><path d="M52.09,266a37.66,37.66,0,0,0-2.21-14.44c-1.46-2.94-3.59-5.5-5-8.46-7.62-16.73,15.05-26.78,13.26-43.88a15.66,15.66,0,0,0-.53-3.32.55.55,0,0,1,1-.21,27.33,27.33,0,0,1,.37,7.87c-.64,5.95-3.59,11.3-7,16.13-2.66,3.83-5.4,7.56-6.68,12.08-3.1,10.18,4.69,13.85,6.82,22.3a42,42,0,0,1,1.17,6.8,39.94,39.94,0,0,1,.11,5.13.69.69,0,0,1-1.38,0Z"/><path d="M18.36,218.18a.38.38,0,0,1-.33-.43c1.13-5.7,6.4-9,10.23-12.8,8.1-7.52,14.13-18.47,12.28-29.78-2-12.37-8.62-22.63-2.61-35.31,4-8.72,12.15-15.46,14-25.15,1-5.12,0-10.32-.16-15.47a30.84,30.84,0,0,1,1.53-11.08A99.35,99.35,0,0,1,58,78a.6.6,0,1,1,1,.6c-13.4,23.41,4,29.14-13.62,52.29-22.36,27.42,9.5,39-9.31,67.06-4.05,6.34-10.73,10.26-15.45,15.94a12.09,12.09,0,0,0-1.85,4A.39.39,0,0,1,18.36,218.18Z"/><path d="M65.37,59.51c1.73-4.63,6.22-7.64,10.26-10.16C80,46.72,85,45.21,88.78,41.79,94,36.48,98.78,30.26,106.21,28c6.53-2.16,13.51-.76,20.23-.79a.56.56,0,0,1,0,1.11c-10.77-.28-20.12-2-28.74,6.13-3.57,3.21-6.27,7.38-10.38,10-7,4.41-16.53,7.08-20.34,15.07A.83.83,0,1,1,65.37,59.51Z"/><path d="M152.48,19.05c-3.53-1.93-8.07-4-11.87-1.67-.55.78-1.6-.3-.8-.83a10.51,10.51,0,0,1,8.82-.58A36.44,36.44,0,0,1,153,18.09a.56.56,0,1,1-.56,1Z"/><path d="M86.48,91.61c-.28-13.91,5.12-28.08,16.09-37a.39.39,0,0,1,.47.61c-.15.11-.3.23-.41.33A45.84,45.84,0,0,0,88.74,80.86a56.41,56.41,0,0,0-1,10.75A.62.62,0,0,1,86.48,91.61Z"/><path d="M109.62,100.07a.53.53,0,0,1-.37-.65c.88-4.09,1.71-8.16,2.5-12.26,1.15-5.09,1.35-10.7,4.46-15.08.13-.19.36-.45.61-.27a.3.3,0,0,1,.07.38,21.5,21.5,0,0,0-1.52,3.31c-1.75,5.89-2.43,12.15-3.82,18.1q-.61,3.06-1.28,6.1A.53.53,0,0,1,109.62,100.07Z"/><path d="M73.26,191.82C72.65,185.4,72,179,71.11,172.6c0-1.17-1.51-7.68-.19-7.71a.53.53,0,0,1,.51.59c.61,8.56,2.18,17.5,2.8,26.21A.49.49,0,0,1,73.26,191.82Z"/><path d="M101.31,306.7a.63.63,0,0,1-.53-.7,129.39,129.39,0,0,0,1.81-20.5c-1.17-14.62-13.88-21.42-11.52-38.05.09-.73.88-7.31,1.58-5.35-.27,1.62-.39,3.26-.52,4.9-1.89,19.66,14.69,25.47,11.44,45.86-.4,4.45-.83,8.9-1.57,13.31A.63.63,0,0,1,101.31,306.7Z"/><path d="M87.07,336.78a.57.57,0,0,1-.39-.7,45.26,45.26,0,0,0,1.45-5.14A24.25,24.25,0,0,0,82,310.31c-4.51-5-11.44-8.95-12.07-16.35a21.74,21.74,0,0,1,.15-5.16.65.65,0,0,1,.81-.54.66.66,0,0,1,.39,1,12.42,12.42,0,0,0-.25,1.63c-1.09,10.19,10,14.45,14.52,22a24.72,24.72,0,0,1,2.64,22.32C87.89,335.74,87.91,336.91,87.07,336.78Z"/><path d="M121.47,270.36a23.64,23.64,0,0,0-4.26-15.6c-.17-.29-.42-.67-.32-1a.37.37,0,0,1,.71,0,22.32,22.32,0,0,1,4.9,11.11,26.33,26.33,0,0,1,.14,5.47.59.59,0,0,1-1.17,0Z"/><path d="M65.84,334.13c-.92-8-3.52-9.58-8.54-15.14-7.45-8.31-8-20.5-5.08-30.81a.47.47,0,0,1,.57-.32.46.46,0,0,1,.3.62,16.21,16.21,0,0,0-.6,2.17c-1.88,9.89-.57,21,6.64,28.52,2.4,2.8,5.38,5.37,6.61,9,.52,1.93.84,3.88,1.2,5.85A.56.56,0,0,1,65.84,334.13Z"/><path d="M39.53,298.16a31.54,31.54,0,0,0-1.25-8.82c-1.89-5.83-7.53-10.51-6.62-17,0-.8,1.1-.53.82.25-.27,4.2,2.56,7.67,4.65,11.05A24.14,24.14,0,0,1,41,298.16.72.72,0,0,1,39.53,298.16Z"/><path class="cls-4" d="M99.91,68.38a44.93,44.93,0,0,1-13.44,45.7C95.51,99.06,99.75,81.21,99.91,68.38Z"/><path class="cls-4" d="M47.93,165.74c-7.37,8.65-7.64,22.55-.61,31.48C42.88,186.13,44.82,172.72,47.93,165.74Z"/><path class="cls-4" d="M43.69,235.1c-.68,5.13,1.38,10.2,3.69,14.83s4.95,9.25,5.54,14.39-1.49,11-6.26,13c4.75-5.84,1.8-14.5-1.48-21.28S38.54,240.92,43.69,235.1Z"/><path class="cls-4" d="M36.11,263.09c-4.36,4-3.87,11.15-1.57,16.62s6.06,10.36,7.38,16.15-1,13.17-6.8,14.49c3.57-2.7,4.31-7.94,3.11-12.25s-3.94-8-6.32-11.79-4.5-8-4.25-12.51S31.38,264.77,36.11,263.09Z"/><path class="cls-4" d="M91,246.56c-4.5,4.56-3.13,12.33.14,17.84s8.11,10.14,10.27,16.18a20.87,20.87,0,0,1-7.13,23.2c6.36-4.52,6.21-14.24,3-21.35s-8.72-13.05-11.48-20.34S84.26,244.84,91,246.56Z"/><path class="cls-4" d="M253.35,171.44c-1.79,7.46-1.74,15.56,1.37,22.58,2.47,5.56,6.7,10.18,9.22,15.7s2.85,12.91-1.73,16.9c3.42-3.51,6.4-7.61,7.74-12.33s.87-10.11-2.06-14c-2.76-3.69-7.26-5.68-10.31-9.14C251.63,184.35,252.71,174.14,253.35,171.44Z"/><path class="cls-4" d="M256.87,256.86c-6.05,4.77-12.18,9.63-16.76,15.82s-7.53,14-6.32,21.61c.57,3.54,2,6.93,2.31,10.5s-.94,7.68-4.18,9.21a15.3,15.3,0,0,0,8.76-14.17c-.17-4.3-2.19-8.39-2.19-12.69,0-7.82,6.38-13.92,11.75-19.61S260.68,253.86,256.87,256.86Z"/><path class="cls-4" d="M281.07,272.47c2.79,9.87,5.61,20,4.66,30.21s-6.53,20.65-16.08,24.38C282.34,313.86,286.68,293.26,281.07,272.47Z"/><path class="cls-4" d="M270.41,287.43c3.5,6.45-.23,14.63-5.55,19.69S252.73,315.54,247.8,321a27.51,27.51,0,0,0,21-10.21C273.8,304.48,275.79,295.88,270.41,287.43Z"/><path class="cls-4" d="M299.27,249c4.66,5.6,4,14,1.22,20.74s-7.24,12.68-9.78,19.51-2.67,15.36,2.49,20.49c-3-4.45-2.55-10.46-.66-15.49s5-9.49,7.28-14.38C303.78,271.2,304.8,261.25,299.27,249Z"/><path class="cls-4" d="M258.58,126c9,9.82,7.89,27.11-2.29,35.69,5.69.72,11.22-3.6,13.07-9s.56-11.53-2.2-16.55S260.3,127,258.58,126Z"/><path class="cls-4" d="M210.76,52.49A22.32,22.32,0,0,1,221,70.26c.16,4.26-.93,8.45-1.61,12.66s-1,8.68.74,12.59,5.86,7,10.06,6.27c-5.3.13-8.32-6.5-7.49-11.74s3.94-9.87,5-15.07C229.66,65,222.31,54.08,210.76,52.49Z"/><path class="cls-4" d="M203.49,24.62a23.92,23.92,0,0,1,19.14,31.92C220.87,43.44,213.05,31.27,203.49,24.62Z"/><path class="cls-4" d="M105,25.23c-13.2.85-24.59,13.24-24.31,26.46-1-4.36,1.85-8.76,5.37-11.51s7.78-4.44,11.39-7.08A43.16,43.16,0,0,0,105,25.23Z"/><path class="cls-4" d="M64.66,78.63c-5.2,2.16-7.92,8-8.66,13.61s0,11.28-.61,16.88-3.12,11.51-8.2,13.95c6.45-1,10.79-7.42,12.25-13.78s.81-13,1.52-19.48S64.21,76.42,64.66,78.63Z"/><path class="cls-4" d="M73.64,151.4C69,154,68,160.47,69.49,165.59s4.77,9.52,6.72,14.49c4.79,12.23.14,27.47-10.67,34.94,12-6.61,19.63-21.68,15.14-34.61-2-5.7-6-10.5-8.19-16.12S70.48,151.21,73.64,151.4Z"/><path class="cls-4" d="M72.16,282.29c-4.27,4.38-3.11,11.85.25,17s8.42,8.89,12.13,13.76c4.33,5.71,6.29,14.62,1.14,19.59a20.13,20.13,0,0,0-5.29-19c-3.48-3.41-8.16-5.47-11.43-9.09a17.24,17.24,0,0,1-4.06-14.67C65.92,284.65,69.49,280.06,72.16,282.29Z"/><path class="cls-4" d="M298,172.1a17.88,17.88,0,0,0,1.83,22.66c3.39,3.3,8,5.11,11.34,8.47,5.8,5.88,6.06,16.33.56,22.49,3-4.13,6-8.36,7.41-13.24s.93-10.63-2.52-14.37c-4.11-4.44-11-4.87-16-8.36C294.29,185.28,292.51,175.51,298,172.1Z"/><path class="cls-4" d="M255.59,58.5c5-.43,9.55,3.29,11.58,7.83s2,9.72,1.55,14.67a105,105,0,0,1-5.62,25.9,29.93,29.93,0,0,0,12.49-27.23C274.48,69.24,267.33,59.68,255.59,58.5Z"/><path class="cls-4" d="M147.15,20.9a28.87,28.87,0,0,0-35.29,22.22C119.34,29.34,136.59,21.65,147.15,20.9Z"/></g></g></g></svg>