<svg xmlns="http://www.w3.org/2000/svg" xmlns:xlink="http://www.w3.org/1999/xlink" viewBox="0 0 314.75 298.96"><defs><style>.cls-1{isolation:isolate;}.cls-2{fill:url(#linear-gradient);}.cls-3,.cls-4{fill:#946363;}.cls-3{mix-blend-mode:multiply;opacity:0.6;}.cls-4{mix-blend-mode:screen;opacity:0.52;}.cls-5{fill:#4a1c12;}</style><linearGradient id="linear-gradient" x1="157.74" y1="103.84" x2="157.74" y2="503.92" gradientUnits="userSpaceOnUse"><stop offset="0" stop-color="#633221"/><stop offset="0.06" stop-color="#774529"/><stop offset="0.21" stop-color="#a06e3b"/><stop offset="0.36" stop-color="#c29049"/><stop offset="0.51" stop-color="#da5"/><stop offset="0.67" stop-color="#f0bc5d"/><stop offset="0.83" stop-color="#fbc761"/><stop offset="1" stop-color="#ffcb63"/></linearGradient></defs><g class="cls-1"><g id="Layer_2" data-name="Layer 2"><g id="Layer_58" data-name="Layer 58"><path class="cls-2" d="M143.68,90.67c.1,5.42-3.07,10.49-7.25,14s-9.31,5.52-14.39,7.4c-8.42,3.12-17,5.88-25.1,9.7s-15.86,8.78-21.66,15.62-9.52,15.74-8.9,24.69,6.05,17.73,14.36,21.11c3.7,1.51,7.89,2,11.08,4.39,3.81,2.86,5.38,8,5.15,12.75s-2,9.3-3.25,14a43.36,43.36,0,0,0,15.51,32.26c4.41,3.65,9.64,6.49,13,11.13,5.85,8.1,4.16,20-2.12,27.8,2.43-6.2.56-13.41-3.11-19s-8.94-9.83-14-14.17a77.49,77.49,0,0,1-14.72-15.81c2.08,6.7,5.94,12.69,9.44,18.78s6.72,12.58,7.33,19.57-1.92,14.66-7.84,18.45a18.53,18.53,0,0,0-.19-18.9c-3.23-5.23-8.75-8.5-13.65-12.22s-9.62-8.68-10-14.81q2.3,16.41,4.58,32.83l-2.19-5.69L75.62,277a31.23,31.23,0,0,1-25.77-34,30.68,30.68,0,0,0,15.7,38.34c-6.89,1.44-14.29-1.45-19-6.64s-7-12.38-6.89-19.42,2.34-13.91,5.33-20.69l-1.36-3.36a39.42,39.42,0,0,1-32.87-23.13,40.31,40.31,0,0,0,14.05,27.28c-9-4.07-17.54-10.55-21.2-19.75-3.58-9-2-19.34,2.05-28.1S16,171.23,21.29,164.82c2.1-5.84,1.6-12.29.41-18.38s-3-12.08-3.57-18.27c-1.26-14.76,5.69-30,17.48-38.34,1-8.29,6.32-15.51,12.58-21s13.57-9.72,20.33-14.63S81.66,43.33,85,35.65c1.82-4.22,2.64-8.83,4.63-13A25.49,25.49,0,0,1,103.4,10a58.56,58.56,0,0,1,38.16-8.43,61.93,61.93,0,0,1,35.29,17.52c6.61-6.56,16.56-8.27,25.85-8.87,11.52-.74,23.6-.15,33.73,5.38C248,22,255.46,33.9,260.54,46.1S268.86,71.25,274.87,83s15.51,22.65,28.25,26.13a47.82,47.82,0,0,1-31.68-10c1,2,1.93,4.08,3.5,6.79,2.47,17.75,5.31,36.4,16.29,50.55,5.3,6.82,12.28,12.28,16.91,19.57A37.44,37.44,0,0,1,288,231.81c4.76-7.26,9.34-14.83,11.42-23.26s1.34-17.94-4-23.58c1.24,6.58-1.75,13.32-6,18.49s-9.68,9.21-14.51,13.84c-6.28,6-11.63,13.27-14,21.63s-1.44,17.93,3.79,24.87,15.12,10.49,23.15,7.17a23.49,23.49,0,0,1-22.44,8.79c-8.32-1.51-15.54-8-18.59-15.14a30.43,30.43,0,0,1-13.75,21.53,27.53,27.53,0,0,1-12.24,4.19A34.81,34.81,0,0,0,228.45,270c-4.18,4.94-9.3,9.21-15.32,11.56s-13,2.64-18.87-.06l13.14-7.41a25.54,25.54,0,0,1-7.55,2.69c-2.66.35-5.6-.25-7.43-2.21a143.41,143.41,0,0,0,30-29.59c5.05-5.94,6.82-13.92,8.51-21.54s3.62-15.58,8.88-21.34a37.27,37.27,0,0,1,10.66-7.53c3-12.28,5.49-24.68,8.19-36.8a60.93,60.93,0,0,1-21.27-24c-3.79-7.73-5.92-16.25-10.31-23.66a44.74,44.74,0,0,0-25.73-19.94,42.23,42.23,0,0,0-31.95,3.32,18.93,18.93,0,0,0,2.79,15.94c2.19,3,5.28,5.41,7.29,8.59a17.68,17.68,0,0,1,1.77,14.26A22.8,22.8,0,0,1,172.72,144a26.82,26.82,0,0,1-16.13,5.12A24,24,0,0,0,167.51,128a29.79,29.79,0,0,1-23.09,17.3,55.41,55.41,0,0,0,9.2-12.67,23.7,23.7,0,0,1-20.46,7.94,20.79,20.79,0,0,0,12.63-21.39A26.68,26.68,0,0,1,131,132.41,22.14,22.14,0,0,1,111.5,130c6.27,1.91,13.33.37,18.71-3.39a30.3,30.3,0,0,0,11.08-15.84C143.26,104.5,143.54,97.81,143.68,90.67Z"/><path class="cls-3" d="M83.34,40.43c0,8.23-5.66,15.5-12.3,20.36s-14.38,8-21.34,12.39S36.29,83.81,34.62,91.87c10.1-9.62,25.53-11.41,36.58-19.93C81.87,63.7,87.26,49.15,83.34,40.43Z"/><path class="cls-3" d="M77,82.07c-23.77,11.71-40,37.31-40.5,63.8a23.73,23.73,0,0,1,4.69-14.65,62.25,62.25,0,0,0,6.7,41.32l.14-17.15,3.39,35.41A26.66,26.66,0,0,1,43.26,174a34.28,34.28,0,0,0,.51,22.34,29.61,29.61,0,0,1-1.46-32c-9.09,8.93-10.42,24.63-3,35-10.45-7-13.91-22.58-7.39-33.32l-8.53,9.43c6.39-7,7.68-17.31,7.38-26.82s-1.85-19.13.07-28.45C35.29,98.64,57.38,84.66,77,82.07Z"/><path class="cls-3" d="M53,216.51l-4.88-20.13,10.94,12.77A82.82,82.82,0,0,1,62.6,157c-1.25,7.85-2.51,15.86-1.27,23.71S66.71,196.4,73.78,200c-6,.89-11,5.45-13.88,10.77s-4.14,11.39-5.32,17.34C53.85,223,53.34,217.84,53,216.51Z"/><path class="cls-3" d="M48.5,211.22c4.86,7.65,2.76,17.69-.27,26.23s-6.9,17.46-5,26.33a22,22,0,0,0,20.16,16.88c-8.78-3-13.75-12.67-14.53-21.91s1.71-18.41,3.26-27.55S54.13,212.16,48.5,211.22Z"/><path class="cls-3" d="M64.61,164.66c-5,6.49-3.45,17,3.23,21.8,4.2,3,9.74,3.75,13.68,7.07,4.76,4,6.07,11,4.84,17.15s-4.56,11.56-7.84,16.87c6.43-4.07,12.89-8.55,16.92-15s5-15.36.5-21.44c-6.15-8.24-19.39-8.25-25.66-16.39-4.39-5.68-4-13.57-3.49-20.73C65.05,159.08,63.31,164.17,64.61,164.66Z"/><path class="cls-3" d="M54.66,221a34.79,34.79,0,0,0,1.87,16.21,26,26,0,0,1,6.78-15.08,45,45,0,0,0,5.85,30.61,28.85,28.85,0,0,1,2.67-22.13l.48,14.44a36.38,36.38,0,0,1,6-16.33l-2.1.48a26,26,0,0,0-2.6-31.12C62.88,204.41,55.33,215.63,54.66,221Z"/><path class="cls-3" d="M17.44,184.62a30.87,30.87,0,0,0,26.47,45.52c-.6-4.68-4-8.52-7.72-11.44S28.28,213.44,25,210c-8-8.42-8.49-21.63-5.31-32.76C17.66,181.49,15.59,185.72,17.44,184.62Z"/><path class="cls-3" d="M20.25,232.53a33,33,0,0,1-4.64-47.66c-3.6,8.59-6,17.92-5,27.19S16.49,230.49,20.25,232.53Z"/><path class="cls-3" d="M85.94,221.7C79.8,226,75,232.52,73.67,239.9s1,15.53,6.64,20.45c3.57,3.1,8.21,4.83,11.55,8.18,6.15,6.18,6.29,16,6,24.67,4.49-8.54,8.36-18.43,5.48-27.63-2.19-7-7.9-12.27-11.48-18.67a33.75,33.75,0,0,1-2-28.23C89.25,220,88.14,220.16,85.94,221.7Z"/><path class="cls-3" d="M92.23,219.38c-4.33,6.71-1.19,16,4.22,21.82s12.7,9.66,18.62,15,10.56,13.51,8.15,21.13c3.9-7.61.57-17.09-4.8-23.73s-12.58-11.6-18.07-18.15-9.14-15.82-5.65-23.62C92.48,216.2,90.27,220.56,92.23,219.38Z"/><path class="cls-3" d="M169.53,86.76l.63,22.11c-7.16-3.63-8.89-13-9.26-21s-.65-17.09-6.66-22.42l9.55,2.84C160,59.36,148,55,139.41,59.55a25.78,25.78,0,0,1,26.76-1.84c-1.62-8.26-10.6-14.32-18.87-12.74a24.29,24.29,0,0,1,17.1-1.82c-2.88-5.89-10.22-8.49-16.75-7.8s-12.45,4-18.16,7.21a23.31,23.31,0,0,1,35.44-10.94A36.51,36.51,0,0,0,147.48,7.71c10.6-1.61,21.92,3,28.05,11.54a45.25,45.25,0,0,1,45.39-6.4c-18.58-.78-37.15,10.06-45.6,26.62,5.05-5.71,11.32-10.58,18.63-12.77s15.72-1.41,21.83,3.17A40.19,40.19,0,0,0,176.89,48c6.49-4.22,13.48-8.12,21.16-9.11s16.25,1.51,20.62,7.9A35.36,35.36,0,0,0,183,53.94c14.3-6.86,33.26-1.72,42.15,11.42a27.72,27.72,0,0,0-42.52-1A36.35,36.35,0,0,1,211,65a20.79,20.79,0,0,0-14.58.21c14.55-1,29,10.17,31.57,24.52a31.49,31.49,0,0,0-49.37-10.81,33.76,33.76,0,0,1,43.77,20.64,31.41,31.41,0,0,0-41.41-12.93,27.84,27.84,0,0,1,19.7,3,42.83,42.83,0,0,0-32.06,5.46,11.05,11.05,0,0,0-1.18-9.22C167.7,87.4,168,89,169.53,86.76Z"/><path class="cls-3" d="M122.25,28.77A31.44,31.44,0,0,0,105.4,59.65C107.3,47.52,114.1,36.24,122.25,28.77Z"/><path class="cls-3" d="M83.22,116.89C88.93,112,92,104.61,94,97.35s3.48-14.8,6.85-21.56S110.09,63,117.53,61.7c-8-1.62-15.71,4.75-19.17,12.15s-4,15.78-5.9,23.7C89.77,108.5,84.21,118.73,83.22,116.89Z"/><path class="cls-3" d="M71.9,109.13a41.54,41.54,0,0,0-20.09,54.52A45.11,45.11,0,0,1,55,140.24a29.12,29.12,0,0,0,5,26,40.41,40.41,0,0,1,3.52-31.07A31.71,31.71,0,0,0,63,150.6a28.75,28.75,0,0,1,7.63-19,6.08,6.08,0,0,0-4.07,5.19,15.24,15.24,0,0,1,2.37-8.2,12.91,12.91,0,0,0-11.23,13.2,29.4,29.4,0,0,1,7.55-21.15,21.8,21.8,0,0,0-10.63,14.7C56.32,124.32,62.85,114.17,71.9,109.13Z"/><path class="cls-3" d="M134.41,78.24c-2.51,8-5.1,16.26-10.11,23s-13,12-21.38,11.43A33.79,33.79,0,0,0,123.4,95.37C126.1,89.83,127.9,82.86,134.41,78.24Z"/><path class="cls-3" d="M229,111.76c3.45,11,7,22.18,13.55,31.65s16.72,17.15,28.22,17.86a63.75,63.75,0,0,1-29.63-36.93,56.63,56.63,0,0,0,30.59,24.34,61.61,61.61,0,0,1-24.84-23.39A52.71,52.71,0,0,0,272,143.45a47.9,47.9,0,0,1-22.28-26.12,43.61,43.61,0,0,0,17.39,16.2A59.68,59.68,0,0,1,252.69,99a40.77,40.77,0,0,0,11.16,20L251.43,83.29a72.72,72.72,0,0,1,16.89,29.53c1.41-10.93-2.42-22-8.43-31.25s-14.07-16.92-22-24.51l11.81,21.6L233.23,64.91a134.72,134.72,0,0,1,14.88,41.64l-9.75-23.81,8.87,28.35L229.85,84.42l15,37.7a48.68,48.68,0,0,1-17.11-29.24C227.18,105.51,230.12,118.28,229,111.76Z"/><path class="cls-3" d="M231,231.47a43.38,43.38,0,0,1,10.2-19.17l-4.5,15.36,35.67-49.27L263,200.65a63.24,63.24,0,0,0,18-32.57c15.44,8,24,27.42,19.4,44.21l6.76-26a34.56,34.56,0,0,1,2,17.23c2.81-2.89,3.71-7.24,3.21-11.25s-2.22-7.74-4.09-11.31a130.7,130.7,0,0,0-18.37-26.53c-8.38,8.33-22.91,9.46-32.48,2.54a170,170,0,0,1-8.85,40.79c.7-1.36-1.16-2.9-2.65-2.53s-2.44,1.8-3.22,3.13C237.63,207,234.12,216.56,231,231.47Z"/><path class="cls-3" d="M206.36,275.71a46,46,0,0,0,14-17.27c-2.12,13-13.83,23.72-26.92,24.73C199.51,280,205,275.75,206.36,275.71Z"/><path class="cls-3" d="M261.42,202.74C255,212.08,248.69,222,247,233.23s2.34,24.07,12.33,29.47A42.85,42.85,0,0,1,256,223.38a38.94,38.94,0,0,0,3.27,29.3c-1.9-10,1.67-20.52,7.59-28.84s14-14.82,22.24-20.91a63,63,0,0,0-29.86,26,94.69,94.69,0,0,1,23.53-37.42C273,193.62,263.65,199.51,261.42,202.74Z"/><path class="cls-3" d="M239.5,228.76c-5.57,6.3-6.24,15.49-5.68,23.88s2,17-.2,25.07C238.5,264.67,239.42,250.18,239.5,228.76Z"/><path class="cls-3" d="M226.74,239.05a52,52,0,0,1-36.17,37.77C202.8,267.07,215.26,257.06,226.74,239.05Z"/><path class="cls-4" d="M134.75,3.09A47.48,47.48,0,0,0,85.33,50.9,43.24,43.24,0,0,1,97.75,13.77C107.5,4.34,122,0,134.75,3.09Z"/><path class="cls-4" d="M113.82,12.65C103.71,14.79,96,25,96.58,35.31a28.11,28.11,0,0,1,26.15-18.87A19.47,19.47,0,0,0,101,23.62C104.49,17.61,110.64,13.21,113.82,12.65Z"/><path class="cls-4" d="M114.66,66.34a32.12,32.12,0,0,0-13.3,22.91,42.76,42.76,0,0,1,12.39-17.56,22.09,22.09,0,0,0-6.65,15.2A34.24,34.24,0,0,1,125.72,68a11.14,11.14,0,0,0-10.5,3.14l10.44-10C121.61,60.84,118.58,63.58,114.66,66.34Z"/><path class="cls-4" d="M119.76,86.38A41.94,41.94,0,0,1,99.4,109C111.41,107.77,121.43,96.21,119.76,86.38Z"/><path class="cls-4" d="M70.57,104A30.18,30.18,0,0,0,49.79,129.9C53.93,119.51,62,110.73,70.57,104Z"/><path class="cls-4" d="M25.08,186.51c-.25,6.58,0,13.39,2.65,19.41S36.07,217,42.65,217.27A43.76,43.76,0,0,1,25.08,186.51Z"/><path class="cls-4" d="M37.5,201.1a33.79,33.79,0,0,1,10.24,30,23.15,23.15,0,0,0,1.76-18.47C47.47,206.6,42.79,201.51,37.5,201.1Z"/><path class="cls-4" d="M54.06,244.74c.27,5.8.58,11.77,3,17s7.52,9.74,13.33,9.64C62,265.1,56.8,254.81,54.06,244.74Z"/><path class="cls-4" d="M92.92,48.5a44.55,44.55,0,0,1-14.6,25.14,15.33,15.33,0,0,0,10.46-9,29.39,29.39,0,0,1-7.22,13A35.54,35.54,0,0,0,96.82,46.65a46.18,46.18,0,0,1-8.53,19.59C91.18,61,93.2,55.27,92.92,48.5Z"/><path class="cls-4" d="M85.91,88.36a34.51,34.51,0,0,0-11.07,26.52,37.56,37.56,0,0,1,6.81-14.67A73.36,73.36,0,0,0,77,121.55a48.2,48.2,0,0,1,7.42-18.36l-2.45,10a45.37,45.37,0,0,1,7.91-15,11.56,11.56,0,0,0-5.62,4.66,33.77,33.77,0,0,1,6-10.73A32.8,32.8,0,0,0,83.31,99a45.79,45.79,0,0,1,10-15.65C91,83.64,89.27,85.31,85.91,88.36Z"/><path class="cls-4" d="M36.5,93.61c-13,9-19.21,26.83-14.5,42a59.69,59.69,0,0,1,5.49-24.66,41.63,41.63,0,0,0,.05,19.35C26.2,113.08,36.28,95.57,51.8,88.11A44,44,0,0,0,29.51,109,47.79,47.79,0,0,1,47.45,86.33C43.48,88.15,40.14,91.1,36.5,93.61Z"/><path class="cls-4" d="M285.18,180.85a25.45,25.45,0,0,1-9.39,26.45,18.59,18.59,0,0,0,12.58-13.76l-1.72,9.24a21.31,21.31,0,0,0,.64-25.31,24.37,24.37,0,0,1-.39,16.4A18,18,0,0,0,285.18,180.85Z"/><path class="cls-4" d="M242.31,227.11a36.11,36.11,0,0,0,1.85,25.42C241.82,243.18,241.89,233.24,242.31,227.11Z"/><path class="cls-4" d="M228.08,250.75a43.63,43.63,0,0,1-13.15,23.33,12.27,12.27,0,0,0,8.72-8.29A31.47,31.47,0,0,1,218,276.33C226.14,269.82,230.86,259.26,228.08,250.75Z"/><path class="cls-4" d="M241.2,264.68A46.81,46.81,0,0,1,224.66,287C233.33,283.41,239.72,274.84,241.2,264.68Z"/><path class="cls-4" d="M218,20.13a47.35,47.35,0,0,1,26.71,9,38.85,38.85,0,0,0-19-3.07,34.64,34.64,0,0,1,24.26,15,74,74,0,0,0-42.17-15.8,37.85,37.85,0,0,1,15.75-.53,39.32,39.32,0,0,0-19.39-2.69C208,21.43,211.9,20,218,20.13Z"/><path class="cls-4" d="M221,35.71a39.43,39.43,0,0,1,28.32,18A47,47,0,0,0,226,40,26.09,26.09,0,0,1,242.19,52.3a51.05,51.05,0,0,0-38-12.76C209.13,37.35,214.53,34.93,221,35.71Z"/><path class="cls-4" d="M148.57,89.37A19.91,19.91,0,0,0,147,102.24c.7,3.43,2.23,6.64,3.19,10s1.28,7.15-.35,10.25a21.4,21.4,0,0,0,.75-16.47,21.63,21.63,0,0,1,2.34,11.56c1.27-5.09-1-10.29-2.81-15.21S146.94,91.65,148.57,89.37Z"/><path class="cls-4" d="M162.5,107.41a28.92,28.92,0,0,1-3.7,21.4C164.55,123.13,166.41,113.88,162.5,107.41Z"/><path class="cls-4" d="M176.18,119.53a21.35,21.35,0,0,1-1.43,18.14A34.18,34.18,0,0,0,176.18,119.53Z"/><path class="cls-4" d="M171.16,121.33a26,26,0,0,1-1,12.62,14,14,0,0,0,2.59-6.29,45.18,45.18,0,0,1-1.76,8.15,15,15,0,0,1-4.55,6.88,39.35,39.35,0,0,0,2-22.73,19.39,19.39,0,0,1,1.1,12.78A27.71,27.71,0,0,0,171.16,121.33Z"/><path class="cls-4" d="M162.73,127.83a22.78,22.78,0,0,1-9.23,11.84C158.66,138,162.73,133.33,162.73,127.83Z"/><path class="cls-4" d="M139.39,121.84a20.81,20.81,0,0,1-25.53,8.85,21.13,21.13,0,0,0,28.76-8.07,27.54,27.54,0,0,1-11.48,8,23.23,23.23,0,0,0,12-16.06C141.78,117,140.71,119.58,139.39,121.84Z"/><path class="cls-5" d="M75.28,229.31c-.88-.93.48-1.79.94-2.55,3.52-4.19,4-9.74,3.48-15C79.48,205,74,200.73,69.46,196.41a34.55,34.55,0,0,1-5.58-7.48c-5.1-9.72-5-21.88-1.71-32.06,4.72-15.06,16.33-27.47,30.15-34.78,8.42-4.45,17.88-6.85,26.68-10.28,6.76-2.54,13.44-6,18-11.66,4.24-5.41,6.73-12.61,5.73-19.48a.7.7,0,0,1,.6-1,.69.69,0,0,1,.72.75c3,9.09-.84,19.22-7.34,25.84-4.51,4.71-10.51,7.68-16.54,10-11.45,4.54-24.13,7.42-34.06,14.91-14.58,10.42-24.59,28.19-22.67,46.38A27.78,27.78,0,0,0,71.2,194c2.92,3.14,6.65,5.56,8.92,9.27,4.56,8.07,3.64,19.87-3.63,26.09A.94.94,0,0,1,75.28,229.31Z"/><path class="cls-5" d="M75.8,228.63c-.42-.93.56-1.47,1.26-1.8a44.73,44.73,0,0,0,8.23-6c8.31-7.48,14.77-21.65,6.07-31.16-6.18-6.13-16.6-5.55-22.14-12.68-4.55-5.31-5.11-12.74-4.48-19.43.69-5.07,1.57-10.89,5.46-14.56.62-.51,1.72-1.14,2.3-.28a.93.93,0,0,1-.08,1.1,27.82,27.82,0,0,0-2,4.62c-2,7-2.46,14.69-.18,21.64,1.46,4.39,5.54,7.52,9.6,9.2,5.94,2.41,12.53,4.73,15.94,10.59,5.41,8.63,2.66,20-3.53,27.46a43.26,43.26,0,0,1-11.8,10.08C79.25,227.93,76.7,230.2,75.8,228.63Z"/><path class="cls-5" d="M118.39,288.12a1.21,1.21,0,0,1-.07-1.7,14,14,0,0,0,2.29-2.78c7.22-11.8.38-26.51-9.49-34.39-10.71-7.53-17.32-14.15-18.82-27.81-.21-2.62-.61-8.69,2-10,1.47,0,.83,2,.93,3,.18,10.18,4.57,20.8,12.7,27.11C118.51,249,129.15,261.07,127,275a23.89,23.89,0,0,1-4.82,10.93C121.22,286.89,119.9,289.21,118.39,288.12Z"/><path class="cls-5" d="M117.86,287.54c-.66-1.9.25-4.16.15-6.16a27.31,27.31,0,0,0-3.36-13.61c-8.3-15-33.08-23.79-27.36-44.27.68-2.37,1.42-5,3.15-6.77a1.16,1.16,0,0,1,1.85,1.15c-.22.86-.7,1.67-.93,2.52-6.45,20.15,16.22,27.89,25.1,42.19,4,6.34,6.44,14.32,4.59,21.77C120.73,285.73,119.67,289.33,117.86,287.54Z"/><path class="cls-5" d="M93.22,298.46a1.18,1.18,0,0,1,.41-1.61c6.29-5.15,8.9-13.27,9.8-21,.22-6.89-2.63-13.5-6.74-18.92-7-8.37-12.09-18.27-10.91-29.48.25-1.9.57-7.49,2.83-7.64,1,.18.65,1.19.5,1.88a33.66,33.66,0,0,0,1.4,19c4.39,11,14.93,17.8,16,30.38,1,9.08-2.84,19-9.11,25.55C96.35,297.46,94.55,300,93.22,298.46Z"/><path class="cls-5" d="M94.1,298c-1.41-.37.15-2.26.35-3,4.32-9.13,5.11-18.64-3.68-25.26-4.23-3.35-8.91-6.2-12.49-10.3-7.59-7.83-8.15-21-1.89-29.79,1-1.06,4.45-6.12,5.79-4.7a.88.88,0,0,1,0,1.14,38.86,38.86,0,0,0-4,5.1c-2.87,5.05-3.25,11.36-2.15,17,1.25,4.89,4.68,8.83,8.5,12,7.5,5.67,17,11.26,16.45,22a27.18,27.18,0,0,1-4.45,13.45C95.85,296.44,95.28,297.84,94.1,298Z"/><path class="cls-5" d="M72.69,293.16c-1.22-.57,0-2.05.15-2.89,2-7,2.35-14.52-.45-21.23-3.63-9.73-11.63-16.49-17-25.1-7-12.13-2.23-27.49,6.28-37.58,2.65-3.13,9.59-8.71,13.72-7.18a.62.62,0,0,1-.51,1,24.91,24.91,0,0,0-11,8c-6.77,8.72-11.17,20.92-6.86,31.66,2.87,6.72,8.36,11.59,12.26,17.63,6.43,8.94,9.3,20.44,6,31.14C74.76,289.82,74.24,293.61,72.69,293.16Z"/><path class="cls-5" d="M73,293.17c-1.43-.34.19-2.64.37-3.51,6-14.84,1.46-21-2.26-34.93-1.64-7.84-.32-16.49,4.3-23.12a1,1,0,0,1,1.78.95c-.69,1.68-1.41,3.32-1.93,5l0-.08h0c-3.51,11.3.55,19.42,3.47,29.87a30.58,30.58,0,0,1-1.61,20.22,22.05,22.05,0,0,1-2.9,4.82A1.64,1.64,0,0,1,73,293.17Z"/><path class="cls-5" d="M112.78,131.29a10.1,10.1,0,0,1-3.23-.66.5.5,0,0,1-.36-.58.48.48,0,0,1,.59-.34c3.76.42,7.35-.28,11-1,15.06-3.48,20.68-15.08,20.95-29.55a23.59,23.59,0,0,0-.29-5c-.28-1-.53-2.4.73-2.8,2.89-.78,2.65,6.25,2.77,8C144.94,119.09,133.06,132.53,112.78,131.29Z"/><path class="cls-5" d="M118.77,134.16c-1.19,0-11.14-2.82-9.26-4.26,4,1.16,7.86,2.47,12.08,2.47,10.1.68,21-5.55,23.14-15.86.29-1,.48-2.75,1.91-2.48s.87,1.92.63,2.88C144.91,130.42,131.5,136.89,118.77,134.16Z"/><path class="cls-5" d="M132.08,140.48a.35.35,0,0,1,.3-.55c9.68-3.63,14-14.48,13.18-24.2a.92.92,0,0,1,1.73-.3c2.43,9-2.78,19.48-10.86,23.84C135.18,139.81,133.43,140.92,132.08,140.48Z"/><path class="cls-5" d="M135.24,141.47c-1-.17-2.63-.09-3.05-1.13,0-.53.59-.45.89-.34a20,20,0,0,0,18.17-7.73c8.81-11,7.07-22.42,4.05-35.09-.35-1.52-.11-11.78,1.67-11.36.64.17.49.87.39,1.35a28,28,0,0,0,.33,11.15c2.72,9.39,4.22,19.84-.48,28.86C153.31,135.51,144.86,142.53,135.24,141.47Z"/><path class="cls-5" d="M143,145.35c-1.43-.46,1.55-2.19,1.87-2.71,6-5.72,10.8-13.15,12.34-21.34a.73.73,0,0,1,1.43.13,27.43,27.43,0,0,1-6.58,16.3C149.43,140.61,146.66,144,143,145.35Z"/><path class="cls-5" d="M143.92,145.65c-.6,0-1.69-.28-1.24-1.08.4-.47,1.13-.31,1.67-.42,12.31-1.24,23.23-11.56,21.38-24.47a8,8,0,0,1-.11-2.56.93.93,0,0,1,1.69.16C172.09,131.86,158.43,146.27,143.92,145.65Z"/><path class="cls-5" d="M154.72,150.29a.59.59,0,0,1,0-1.16,36.4,36.4,0,0,0,5-.85,43.49,43.49,0,0,0,10.53-4.18c8.76-4.31,13.2-15.08,9-24.07-2-5-7.17-7.34-9.91-11.72-5.1-8.41,1.35-20-5.35-27.81a5.33,5.33,0,0,0-1.07-.89.44.44,0,0,1-.2-.54c.41-.83,1.8.51,2.29.78,6.55,5.91,3.43,15.91,5.05,23.54,1.46,6.48,8.91,8.79,11.34,14.78a20.44,20.44,0,0,1-1.29,20.1C174.53,146.32,164.21,150,154.72,150.29Z"/><path class="cls-5" d="M154.44,150.27c-1.06-.59.13-1.44.76-1.78,8.34-5,12.38-14.94,11.22-24.4,0-.93-.74-2.44.37-3a.84.84,0,0,1,1,.44c2.35,7.38,1.06,16.25-3.91,22.29a22.86,22.86,0,0,1-6.81,5.64A4.76,4.76,0,0,1,154.44,150.27Z"/><path class="cls-5" d="M272.6,162.7c-13.6-.62-25.66-9.69-32.69-20.9-6.62-10.47-9.34-22.76-15.6-33.36-10.11-17-30.63-21.52-48.85-17A16.9,16.9,0,0,0,169.84,94a.91.91,0,0,1-1.12-1.39c5-4,11.86-5,18.09-5.39,15.27-1.28,31,5.44,39.46,18.47,7.8,12.22,10.79,27.23,19.82,38.6,8.68,11.16,23.9,19.07,38,14.7.65-.19,1.65-1.23,2-.12C284.71,162.68,276.05,162.87,272.6,162.7Z"/><path class="cls-5" d="M14,174.63a1,1,0,0,1,0-1.36,33.12,33.12,0,0,0,3.82-4.75,20.68,20.68,0,0,0,3.52-11.09c.12-8.58-2.68-16.73-3.73-25.16A44,44,0,0,1,31.55,92.52a64.25,64.25,0,0,1,18.66-11.9C61,76.29,73.34,71.88,78.92,60.79c8-15.26-.22-32.38,14.66-46.33,18.24-16.13,48.81-19.17,69.93-7.08A64.9,64.9,0,0,1,177,17.49a1.13,1.13,0,1,1-1.41,1.38c-13.3-11.77-31.58-18-49.26-15C114,6.05,100.72,10.66,92.87,21c-9.33,13-3.08,31.26-12.93,44.12-13.86,19.37-37.89,14-53.79,38.41-7.42,11-7.32,24.31-4.45,36.76,2.1,10,4.55,21.78-2.83,30.23a51.56,51.56,0,0,1-3.49,4A1,1,0,0,1,14,174.63Z"/><path class="cls-5" d="M61.93,282.5c-11.93-.3-23-10.06-24.14-22.05-.7-7.57,2.31-14.69,4.35-21.81A14.59,14.59,0,0,0,39.34,225c-6.18-7.25-15.24-12.08-19-21.21a30.25,30.25,0,0,1-.84-23.25c.66-1.6,3.06-8.25,4.95-7.14a1,1,0,0,1,.22,1.5,37.84,37.84,0,0,0-3.43,8.86,28.23,28.23,0,0,0,5.34,24.42c4.17,5.07,9.9,8.51,14.44,13.2,12.54,12.42.56,23.9.47,37.79.09,11.58,10.59,20.94,21.67,22.22a11.67,11.67,0,0,0,2.29,0,.42.42,0,0,1,.44.38C65.88,282.73,62.61,282.4,61.93,282.5Z"/><path class="cls-5" d="M34.61,240.32c-9.73-1.69-18.88-7.19-25.67-14.29a35.5,35.5,0,0,1-6.21-37.16C5.6,182,10.81,176.62,15.56,171a30.51,30.51,0,0,0,6-12.85.86.86,0,0,1,.87-.69c1.65.14.2,3.56.16,4.61C20.92,171.69,12.69,178,8.15,186a33.75,33.75,0,0,0,0,33.88l-.1-.17C12,226.46,18.28,231.41,25,235.16a46.63,46.63,0,0,0,9.82,4.09A.55.55,0,0,1,34.61,240.32Z"/><path class="cls-5" d="M34.68,240.47c-2.8-.33-5.3-1.86-7.65-3.32a46.41,46.41,0,0,1-9.52-7.75c-11.43-12.33-9.28-31.63-1.93-45.52.65-1.36,6.83-10.87,8-9.52.2.26,0,.61-.12.85a74.42,74.42,0,0,0-6.28,10.36c-6.46,14.14-7.56,33.62,4.74,44.9a56.66,56.66,0,0,0,9.92,7.36,16.68,16.68,0,0,0,3.12,1.36.67.67,0,0,1,.45.75A.66.66,0,0,1,34.68,240.47Z"/><path class="cls-5" d="M64.93,282.34c-11.51-5.11-19.2-18.06-18.85-30.58.62-13.41,9-23.78,4.09-37.83-4-11-12.74-20.37-13.17-32.58a24,24,0,0,1,3.69-14.12c.46-.61.88-1.85,1.8-1.43.73.45.11,1.24-.13,1.75-7.72,14.42.7,26.22,8,38.52,8.54,15.83,3.86,25.26-.46,40.85-3.2,12.56,3.27,26,13.78,33,.59.41,1.21.78,1.81,1.17a.68.68,0,0,1,.39.78A.67.67,0,0,1,64.93,282.34Z"/><path class="cls-5" d="M72.26,278.12c-18.12-5-27.8-24.92-21-42.33.34-.81,1.14-2.92,2.19-1.83.23,1.51-.52,3.08-.66,4.6-3.09,13.32,2.77,28.67,15.56,34.51a39.43,39.43,0,0,0,6.13,2.63c.81.17,1.84.49,1.81,1.51C76.12,279.16,73.55,278.43,72.26,278.12Z"/><path class="cls-5" d="M304.78,110c-15.18-2.76-26-15.73-33.22-28.56-5-9.14-6.36-19.61-9.91-29.28-11.24-29-32.77-44.2-64.3-39.63a52.34,52.34,0,0,0-13.6,4.2,68.42,68.42,0,0,0-7.86,4.45c-.52.29-1,.9-1.64.78a1.06,1.06,0,0,1-.85-1.21c.26-1.5,1.68-2.47,2.75-3.4a46.34,46.34,0,0,1,18.06-8.28c26.74-5.66,50.73,4.24,64.06,28.39a83.72,83.72,0,0,1,8,18.43c1.8,5.86,2.93,11.67,5,17.33,4.88,12.94,14,24.75,26.09,31.69a40.93,40.93,0,0,0,7.89,3.17A1,1,0,0,1,304.78,110Z"/><path class="cls-5" d="M300.25,112c-11.69-.71-24.07-5.88-31-15.65-.86-.73.57-1.8,1-.69,2.59,3.15,6,5.28,9.55,7.19a54,54,0,0,0,23.44,6.07c.94.07,2-.47,2.81.19a1.3,1.3,0,0,1,.35,1.54c-.27.66-1,.84-1.58,1A18.06,18.06,0,0,1,300.25,112Z"/><path class="cls-5" d="M303.4,110.94a1,1,0,0,1,.7-1.13l.43-.12c-.51-.22-1.28-.53-1.22-1.2.36-1.1,2.29-.44,3.13-.32,2.36.51,1.39,2.58-.43,3.06C305.18,111.5,303.75,112.15,303.4,110.94Z"/><path class="cls-5" d="M285.32,233.09a1,1,0,0,1,.52-1.25,45.24,45.24,0,0,0,10.1-4.87c12.23-7.85,17.38-23.66,14.74-37.57A44,44,0,0,0,298,166.14c-3.65-3.75-7.72-7.15-10.86-11.37-7.9-10.6-9.26-24.05-12-36.58-4.17-17.68-9.75-37-24.39-48.52.64-3.09,7.93,3.94,8.9,5,13.31,14,17.59,35.51,21.19,53.88,1.9,10.51,5.25,21.31,13.4,28.7,3.7,3.67,7.62,7.14,10.83,11.26,7.56,9.8,11.32,22.8,9,35.06-2.46,14.81-12.93,26.58-27.61,30.13A1,1,0,0,1,285.32,233.09Z"/><path class="cls-5" d="M286,233.38c-1.82-.45,1.11-2.32,1.48-3a55,55,0,0,0,5.28-7.31c7.69-12.38,8.41-29.23.33-41.54a32.12,32.12,0,0,0-9.46-9.12,1,1,0,0,1-.26-1.3c1.07-1.53,3.05,1.08,4.19,1.55.94.62,1.91,1.2,2.82,1.87,13.85,11.41,14.72,33.27,5.65,47.92a46.57,46.57,0,0,1-5.29,7.23C289.31,231,287.91,232.91,286,233.38Z"/><path class="cls-5" d="M295.89,184.59c1.89,8.06-1.76,16.38-7.36,22.12-5.17,5.17-11.2,9.4-15.95,14.92A53.51,53.51,0,0,0,264.63,233c-6.63,12.25-3.68,31.52,10.32,37,3.84,1.45,8.07.93,11.86-.39.6-.08,1.41-.63,2.08-.69a14.81,14.81,0,0,1-1,2.11,9.78,9.78,0,0,0-1.58.59,18.15,18.15,0,0,1-10.71,1.1c-13-3.19-18.84-19.08-17.16-31.24,2.19-13.87,12.8-24.76,23.14-33.3,9.15-7.14,15.42-19.14,9-30.15-.24-.42-.71-1-.42-1.47a.85.85,0,0,1,1.11-.25C294,178.05,295.23,181.69,295.89,184.59Z"/><path class="cls-5" d="M288.89,269a16.4,16.4,0,0,1-1.48,2.91c-4.17,6.56-12.1,10.72-19.89,9.46-11.54-1.22-19.78-11.11-23.25-21.53-.72-2.08-1.5-4.14-2-6.28a.69.69,0,0,1,.46-.74.68.68,0,0,1,.79.37c.68,1.68,1.28,3.41,2,5.08,3.22,8.09,8.55,16.08,17.09,19.1,9.06,3.82,18.49.14,23.86-7.57l.35-.11C287.41,269.59,288.22,269,288.89,269Z"/><path class="cls-5" d="M221.57,291.17c-1-.24-3.25,0-2.49-1.68,1.42-1.86,3.23-3.43,4.43-5.47,2.74-4.49,4.52-10.16,3.26-15.34-.16-.64-.22-1-.35-1.49a1.42,1.42,0,0,1,2-1.64c4.58,6-1.09,19.14-6.39,23.47,12.18-2.58,20.73-13.14,23.23-25a6.11,6.11,0,0,1,.42-1.59c.79-.9,1.63.33,1.66,1.15C247.32,277.36,235.53,290.65,221.57,291.17Z"/><path class="cls-5" d="M204.53,284.94a26.94,26.94,0,0,1-8.17-1.65c-1.46-.31-4.39-1.1-2.73-3,2.82-1.88,6.43-2.64,9.32-4.43,7.6-4.12,14.4-10.68,16.17-19.35a1.16,1.16,0,0,1,1.36-.87c2.17.39-.45,6.25-.91,7.62-4.2,9.22-13.43,15-22.8,18,11.34,3.36,24.54-2.31,30.75-12.14a.87.87,0,0,1,1.72-.08c.22,2.38-1.71,4.43-3.07,6.21a29.11,29.11,0,0,1-21.68,9.69Z"/><path class="cls-5" d="M197.41,277.12c-2.24-.11-7.49.76-6.44-3,1.67-2.58,4.71-3.95,7-5.86a97.21,97.21,0,0,0,16.71-14.83c9.2-10,13.22-23.4,16.88-36.11,3.05-9.73,7.6-19.95,17.4-24.27a1,1,0,0,1,1.42.35c.6,1.12-.75,1.63-1.48,2.15a27.31,27.31,0,0,0-8.39,8.46c-4.76,7.4-6.29,16.24-8.74,24.56-5.84,21.8-18.86,33.79-37,45.87,4.71.24,9.62.09,14-1.71.3-.12.65-.23.91,0,.42.44,0,1-.3,1.35C206.1,276.77,201.5,277,197.41,277.12Z"/><path class="cls-5" d="M241.39,210.78a.73.73,0,0,1,.13-1.1,85.79,85.79,0,0,0,8.85-20.94c3.21-10.57,3.13-21.86,6.81-32.26a1.66,1.66,0,0,1,3.12,1.07c-2,6.56-2.66,13.29-4,20-1.86,10.23-5,20.44-10.86,29.12-.9,1.37-2,2.63-3,3.92A.7.7,0,0,1,241.39,210.78Z"/><path class="cls-5" d="M261.76,270.68c-17.48-18.43-21.23-37.25-7.21-59.22,5.16-8.15,11.95-15.14,16.87-23.45,2.34-4.41,5.16-9,5.27-14.11a15.85,15.85,0,0,0-.83-4.66.48.48,0,0,1,.09-.66c.73-.4,1,.76,1.23,1.26,3,8.06-2,16.29-6.07,23-5.07,7.75-11.37,14.61-16.08,22.6-8.79,14.28-9.67,30.22,0,44.32a104.47,104.47,0,0,0,7.69,10.09C263.16,270.41,262.27,271.25,261.76,270.68Z"/><path class="cls-5" d="M232.81,276.52c-1.14-.39.87-3,1.06-3.82a35.84,35.84,0,0,0,1.85-5.11c4.55-18.17-4-28.53,6.69-48.34.46-.86.94-1.72,1.48-2.53a.29.29,0,0,1,.38-.07.3.3,0,0,1,.11.41c-.32.53-.65,1.06-1,1.6A45.21,45.21,0,0,0,237.71,244c.79,9.16,1.92,18.73-1.69,27.47a32,32,0,0,1-2.4,4.79A.66.66,0,0,1,232.81,276.52Z"/><path class="cls-5" d="M274.4,149.28c-6.58-1-12.24-5.36-17-9.75-10.37-9.86-16.28-23.15-22.38-35.8-8-16.06-21.12-33.67-40.85-33.26a30.66,30.66,0,0,0-19.61,7.76.61.61,0,0,1-.84,0c-.84-1,2-2.49,2.55-3.2a29.33,29.33,0,0,1,8.43-5.13c9.36-3.68,20.16-1.8,28.66,3.25,8.52,5.25,14.75,13.54,19.93,22,4.29,7.13,7.42,15,11.16,22.38,5.2,10.13,11.8,19.87,21.23,26.45l-.05,0h0c2.91,1.88,6.08,3.89,9.53,4.42.56-.13,1,.39.51.81A3.1,3.1,0,0,1,274.4,149.28Z"/><path class="cls-5" d="M258.77,133.14c-8.33-9.75-12.23-22.36-16.18-34.34-2.27-7.27-4.47-14.61-8.53-21.1-9.21-14.91-28.07-27.39-45.89-21a45.29,45.29,0,0,0-14.32,9.05c-.26.26-.62.72-1,.36-.45-.58.52-1.1.77-1.59a39.88,39.88,0,0,1,10.21-7.9C206,44.3,232.16,63.33,240.21,84.46c4.73,12.35,7.35,25.43,13.25,37.3a62.8,62.8,0,0,0,4.45,8.06,30.59,30.59,0,0,0,1.91,2.5.67.67,0,0,1-.12.93A.68.68,0,0,1,258.77,133.14Z"/><path class="cls-5" d="M269.45,127.37c-5.15-8.82-7.77-18.78-11.28-28.3h0v0c-7.65-22.86-22.45-47.48-47.82-52.65-5.33-1.13-10.85-.41-16,1a.92.92,0,0,1-1.13-.62.94.94,0,0,1,.63-1.14,32,32,0,0,1,9.45-2.17c24.56-.64,43.06,21.08,51.83,42,4.51,10.41,7.3,21.46,11.06,32.13a78.76,78.76,0,0,0,3.41,8.23c.2.4.35.68.56,1.06a.41.41,0,0,1-.71.42Z"/><path class="cls-5" d="M284,104c-8.72-5-13.15-14.45-16.68-23.48-2.89-7-6-14.19-10.29-20.4-14-20.89-41.85-36.68-66.63-26a56.78,56.78,0,0,0-16.28,11c-.41.38-.84.77-1.22,1.18a.55.55,0,1,1-.85-.65,51.77,51.77,0,0,1,15.27-12.38c26.79-14.41,59.62,3.65,73.51,28,7.65,12.51,8.54,28.95,19.93,39,1.22,1,2.52,1.93,3.83,2.83a.54.54,0,0,1,.13.69A.52.52,0,0,1,284,104Z"/><path class="cls-5" d="M89.71,75.25a.65.65,0,0,1-.08-.91A40.31,40.31,0,0,0,95,66.9c4.77-8.34,3.72-18.4,7.21-27.17,7.7-18.65,32.45-26.35,50.8-20.49A44.25,44.25,0,0,1,164.5,25c1.19.83,2.33,1.72,3.44,2.65a.65.65,0,0,1,.09.9.66.66,0,0,1-.91.09,22.86,22.86,0,0,0-2-1.67,41.21,41.21,0,0,0-13.61-6.34,44.71,44.71,0,0,0-39.59,9.71c-8,6.88-9.49,17.21-11.47,26.92a38,38,0,0,1-9.81,17.87A.66.66,0,0,1,89.71,75.25Z"/><path class="cls-5" d="M70.07,128.67a.7.7,0,0,1,.18-1,61.42,61.42,0,0,0,7.18-6.37C91.52,107,89.52,96.59,94.74,79.22c6.4-22.09,30.34-33.69,52.16-32.44,2,0,13.72,1.74,13.25,3.72-.24.4-.67.14-1,0a47.24,47.24,0,0,0-18.08-1.73c-13.4,1.3-27.07,6.59-36,16.94-5.47,6.4-8.35,14.58-10.25,22.61-2.24,10.83-4.57,21.26-12.22,29.73A73.5,73.5,0,0,1,71,128.84.69.69,0,0,1,70.07,128.67Z"/><path class="cls-5" d="M27.8,163.66c-.78-.38-.39-1.23-.14-1.82a41.93,41.93,0,0,0,1.36-4.2c2.47-11-2.48-22-.34-33.08,3.14-20.1,22.25-35,40.74-40.81a67.29,67.29,0,0,1,10.07-2,.63.63,0,0,1,.79.63.62.62,0,0,1-.79.57,54.78,54.78,0,0,0-14.26,4c-16.3,7.38-32.14,21.29-34,40-1.28,13.06,3.72,23.49-2.3,36.32A.84.84,0,0,1,27.8,163.66Z"/><path class="cls-5" d="M50.63,190c-.57-3.22-1.32-6.43-1.58-9.69.08-6.89,1.17-14.09-1.54-20.63-2.58-7-7.1-13.59-7-21.31.78-15,11.81-28.89,23.7-37.27a41.78,41.78,0,0,1,8.39-4.62.74.74,0,0,1,.72,0,.42.42,0,0,1-.26.75,42.16,42.16,0,0,0-8.51,5.32c-10.68,8.39-22.2,23.53-21.48,37.68.76,8,6,14.71,7.59,22.47,1.64,6.32-.14,12.82.19,19.19q.44,4,1.22,7.91A.72.72,0,0,1,50.63,190Z"/><path class="cls-5" d="M81.79,126.14c-.76-.78.38-1.6.8-2.16,5.54-6.63,11.15-13.24,15.94-20.44,4.61-7.42,9-15.19,15.64-21,7.18-6.12,16.18-11,25.71-11.59a1.14,1.14,0,0,1,.76.27.54.54,0,0,1-.37.92,13.47,13.47,0,0,0-2.17.34,51.09,51.09,0,0,0-28.3,18.62c-3.58,4.45-6.37,9.44-9.67,14.09C95,112,89.37,118.43,84,125,83.38,125.6,82.73,126.93,81.79,126.14Z"/><path class="cls-5" d="M41.43,232.44c-5.83-.28-12-1.07-16.62-4.95-8.45-6.85-15.7-17.76-14-29.05,0-.69.74-2.65,1.53-1.58.16,1.42.08,2.89.3,4.32,1.56,10.79,10.78,23.34,21.3,26.74A48.8,48.8,0,0,0,43,229.27a1.6,1.6,0,0,1,1.67,1.47C44.74,232.52,42.73,232.55,41.43,232.44Z"/><path class="cls-5" d="M170.32,140.37a.5.5,0,0,1-.13-.69,19.84,19.84,0,0,0,3.33-8.18c1.71-12.72-4.35-20.28-10.76-30.17-3-5.32-4-11.47-4-17.51.79-15.19-4.53-27.34-21.87-24.16-3.82.87-7.84,2-10.84,4.65a.43.43,0,0,1-.68,0,.42.42,0,0,1,.11-.64,24.87,24.87,0,0,1,8.86-4.39C151.82,54.21,161.13,65,160.3,82c-.13,6.52.59,13.38,3.95,19,4.29,6.73,9.65,13.22,10.55,21.45.93,6.14.28,12.83-3.78,17.79A.51.51,0,0,1,170.32,140.37Z"/><path class="cls-5" d="M148.66,132.28a.52.52,0,0,1-.13-.71c.55-.73,1.07-1.49,1.51-2.21A24,24,0,0,0,152.75,112c-1.29-7.09-5.48-13.71-4.42-21.11.1-.86.31-1.74.47-2.56a.51.51,0,0,1,.59-.44c.79.27,0,1.23.08,1.79-1.3,7.52,2.83,14.35,4.31,21.51s.47,15.32-4.46,21.06A.51.51,0,0,1,148.66,132.28Z"/><path class="cls-5" d="M102.57,113.23a.37.37,0,0,1,.23-.45,39.53,39.53,0,0,0,5.84-2.87c5.41-3.06,10.5-7.11,13.87-12.37,2.9-4.92,4.33-10.62,8.09-15,.79-.83,3.35-4.39,4.44-3.26a.84.84,0,0,1-.23,1.23c-6,5.59-7.57,13.88-12.58,20.09-4.06,4.92-9.5,8.48-15.2,11.23a27.62,27.62,0,0,1-4.12,1.64A.37.37,0,0,1,102.57,113.23Z"/><path class="cls-5" d="M35,91.73a1.78,1.78,0,0,1-.5-1.45,17.85,17.85,0,0,1,1.07-5.14c2.77-8,8.18-14.79,14.41-20.38C62.84,53.62,76.3,51.45,83.83,33.9c.6-1.37,1.09-2.78,1.62-4.17a1.1,1.1,0,0,1,2.1.61A39.38,39.38,0,0,1,74.77,51.65C69.41,56.24,63,59.31,57.2,63.3c-8.09,5.57-15,12.89-19.12,21.87a30.31,30.31,0,0,0-1.81,5.26C36.21,91.11,35.82,92.26,35,91.73Z"/></g></g></g></svg>