<svg xmlns="http://www.w3.org/2000/svg" viewBox="0 0 204.55 108.38"><defs><style>.cls-1{fill:#e0d2c4;stroke:#000;stroke-linecap:round;stroke-linejoin:round;stroke-width:5px;}</style></defs><g id="Layer_2" data-name="Layer 2"><g id="Layer_314" data-name="Layer 314"><path class="cls-1" d="M199.9,105.88c-.54-32.44-21.35-63.69-51.08-76.69-15.77-6.89-33.28-8.86-50.49-8.8S63.69,22.59,48.8,30.93c-13,7.28-23.14,18.92-30.3,32A124,124,0,0,0,5,103.83C-.5,84.87,3.35,63.77,13.76,47A84.41,84.41,0,0,1,56.37,11.53C74.76,4.37,98.2,1.35,117.88,2.89c15.48,1.22,30.5,4.69,43.94,12.46a81.44,81.44,0,0,1,33.51,38.37A84.67,84.67,0,0,1,199.9,105.88Z"/></g></g></svg>