<svg xmlns="http://www.w3.org/2000/svg" viewBox="0 0 368 159.35"><defs><style>.cls-1{fill:#ab7148;}.cls-2{fill:#cf9b76;}.cls-3{fill:none;stroke:#000;stroke-linecap:round;stroke-linejoin:round;stroke-width:7px;}</style></defs><g id="Layer_2" data-name="Layer 2"><g id="Layer_155" data-name="Layer 155"><path class="cls-1" d="M77.27,92.06A549.49,549.49,0,0,1,115,23.48c5.7-8.85,12.57-18.22,22.81-20.68,13.79-3.31,27,7.24,41.12,8.74,8.87,1,17.72-1.75,26-5,4.07-1.61,8.16-3.39,12.51-3.76,10.58-.9,19.88,6.5,27.8,13.57,9,8,18.06,16.47,23.39,27.29,7.26,14.74,7.05,32.86,16.83,46.05-8.39,11.81-21.53,19.6-35.36,23.9s-28.44,5.39-42.91,6c-42.13,1.74-85.72-.82-123.76-19a22,22,0,0,1-5.1-3.07,5.35,5.35,0,0,1-2-3.36C76.16,92.77,77.09,91.29,77.27,92.06Z"/><path class="cls-2" d="M281.77,85.58c22.58-5,46.8-33.07,60.21-28.6,4.91,1.63-12.45,17-12.08,22.13A13.87,13.87,0,0,1,328.29,86c-4.53,9.49-14,15.53-23.45,20.21-45.13,22.46-97.47,24.93-147.84,22.94-28.1-1.12-56.62-3.58-82.83-13.76C60,109.92,46.54,102.06,36.52,90.68c-1.92-2.19-3.8-4.76-3.71-7.67C33,77.83,38.9,75,44,74a61.45,61.45,0,0,1,41,6.62c-2.19-.93-4.8.44-6.08,2.44s-1.55,4.47-1.78,6.84a7.23,7.23,0,0,0,.34,4,7.16,7.16,0,0,0,3.43,2.8c45.78,23.2,99.55,26.53,150.33,19,19.2-2.83,39.46-7.84,52.59-22.12C281.4,88.55,278.68,86.26,281.77,85.58Z"/><path class="cls-2" d="M332.85,62.88c5.9-7.57,18.81-6.73,25.31.33s7.13,18.13,3.65,27.07-10.38,16.12-17.68,22.35c-33.06,28.23-76.87,41.64-120.26,44.24S137.11,152,94.69,142.46c-31.12-7-64.18-16.44-84.33-41.16C6.4,96.45,3,90.9,2.05,84.71S3.18,71.59,8.34,68c4.91-3.39,11.4-3.14,17.32-2.41A155,155,0,0,1,79.87,82.85c-6.52,7-6.21,19.22.65,25.87,4.27,4.14,10.21,6,16,7.5a328.48,328.48,0,0,0,180.64-3.56c5.42-1.68,11.51-4.2,13.16-9.63,1-3.38,0-7,.22-10.54.57-9.07,11-16.06,19.58-13.15"/><path d="M173.42,121.71c-7.56-.25-15.11-.75-22.32-1.55l-1.31-.15h0l-.3,0a246.76,246.76,0,0,1-25.93-4.29c-1.16-.25-2.31-.51-3.19-.73-4.28-1-8.54-2.16-12.74-3.52a121.17,121.17,0,0,1-12.48-4.73,80.59,80.59,0,0,1-10.52-5.65,50,50,0,0,1-4.79-3.52c-.74-.61-1.45-1.28-2.13-2a12.07,12.07,0,0,1-.84-.91,2.84,2.84,0,0,1-.64-1.1,1,1,0,0,1,1.16-1.2.28.28,0,0,1,.13,0h0a2.47,2.47,0,0,1,.84.5c.33.26.64.53,1,.8.72.59,1.45,1.16,2.19,1.73,1,.71,2,1.4,3,2s2.17,1.29,3.09,1.8c1.64.87,3.29,1.7,5,2.46s3.39,1.46,5.12,2.14a159.36,159.36,0,0,0,19.13,5.86,244.39,244.39,0,0,0,25.61,4.59c1.65.21,3.31.4,4.91.58q12.94,1.38,26,1.74c4.84.13,9.68.14,14.19.08,8.76-.16,17.5-.65,26.23-1.54,3.83-.39,7.66-.88,11.39-1.41a202,202,0,0,0,24.35-5.07,123.14,123.14,0,0,0,14.11-4.9,76,76,0,0,0,8.22-4.12,46.65,46.65,0,0,0,4.78-3.24A34.27,34.27,0,0,0,279.32,94a20.51,20.51,0,0,0,1.43-1.66l.11-.16a2.58,2.58,0,1,1,4.07,3.07c-.38.45-.75.91-1.14,1.34-.69.76-1.4,1.49-2.15,2.18a46.18,46.18,0,0,1-8,5.73,74.79,74.79,0,0,1-10.92,5.2c-3.93,1.54-7.94,2.86-12,4A201.73,201.73,0,0,1,225.47,119c-8.57,1.26-17.21,2.08-25.86,2.51q-8.07.41-16.16.41Q178.43,121.87,173.42,121.71Z"/><path d="M115.78,112.51a91.15,91.15,0,0,1-35.35-13C74,95.87,74.31,92.87,76.6,86.31,81,75.21,87.1,64.88,92.77,54.4,99,43.17,105.59,31.77,113.23,21.52c7.69-10.83,19.51-20.75,33.53-20,10.43,1.37,19.88,6.94,30.4,8.08,7.09.93,14.41-.76,20.8-3.53,20.45-9.58,31.58-8.13,49.12,6.18C266.24,29.07,275.87,54,282.26,78.07c.8,3,1.59,5.9,2.46,8.84.42,2.11,1.76,4.2,1.48,6.37-1.16,2.47-3.66,1-4.42-.94a71.4,71.4,0,0,1-3.28-9c-8.35-29.57-20.36-63.6-50.61-76.7C215.8,1.72,204.3,10,193,13.33c-8.29,2.51-17.16,1.82-25.37-.67-7.64-1.88-14.84-5.89-22.74-6.43-11.46.44-20.89,9-27.21,17.79C107.87,37.4,99.83,52.14,91.94,66.63c-1.93,3.56-3.82,7.14-5.61,10.76-2.24,5-5.56,9.88-6.43,15.39,8.27,10.2,21.76,14,33.88,17.56.92.44,3,.11,3,1.51A.83.83,0,0,1,115.78,112.51Z"/><path d="M177.67,27.17A52.8,52.8,0,0,1,147.6,15.79c-1-.76-6.37-4.94-4.89-5.84.55,0,.92.57,1.35.85a78.19,78.19,0,0,0,10.1,6.65c12.11,6.59,27.25,9.46,40.45,4.72,7.29-3.19,13.11-9.55,21.17-11a.83.83,0,0,1,.43,1.6A36.74,36.74,0,0,0,208.93,16C197.24,23.76,192.74,28.06,177.67,27.17Z"/><path d="M159.61,158.1c-46.12-3.57-93.31-12.15-135-38.54C15.7,113.33,5.89,105,1.62,93.15-4,77.49,5.84,65.47,17.86,63.11c14.64-3.36,29.72.6,43.54,6.85,4.52,1.15,3,8.89-1.24,7.05-10.31-4.3-21.08-7.42-32-7.44C17.63,69.24,0,74.69,8,92.23c8,15,21.92,22.41,34.69,29.16,41,20.44,84.59,27.46,128.29,29.65,29,1.41,57.93.48,86.71-4.15a182.27,182.27,0,0,0,56-18.71c14.26-7.83,28.32-16,39.51-29.57,8.39-9.94,14.14-28,.62-35.42-8.22-3.91-17.43-1.51-25.29,2.48-6.34,3.39-12.22,8-18.38,11.82-1,.63-2,1.29-3.18,1-1.79-.5-3-3-2.09-5.19.58-1.59,1.83-2.17,3-2.9,2.88-1.78,5.68-3.72,8.52-5.59C325.31,58.9,335,54,345.14,54.17c24.23.38,30,28.37,13.53,48.59C348,116.56,334,125.23,320.28,133.24,292,149.61,260.93,155.7,230.1,158A471.2,471.2,0,0,1,159.61,158.1Z"/><path class="cls-3" d="M54,70.68c10.28,3.85,17.89,7.55,26,11.22"/><path class="cls-3" d="M310.12,73.15c-8.35,5.83-17.42,8.83-26,11.72"/></g></g></svg>