<svg xmlns="http://www.w3.org/2000/svg" viewBox="0 0 193.64 72.06"><defs><style>.cls-1{fill:#b5b5b5}.cls-2{fill:#f7f7f7}.cls-3{fill:#8a8a8a}</style></defs><g id="Layer_2" data-name="Layer 2"><g id="Layer_1-2" data-name="Layer 1"><g id="Vector_layer" data-name="Vector layer"><g id="Layer_111" data-name="Layer 111"><path class="cls-1" d="M2.85 50.34C6.7 45.16 12.62 42 18.32 39A8.74 8.74 0 0 0 22 36a9.51 9.51 0 0 0 .91-3.59 60.83 60.83 0 0 1 4.84-17.29 16.21 16.21 0 0 1 3.41-5.33 16.23 16.23 0 0 1 5.74-3.17c5.57-2 11.6-3.22 17.46-2.26a35.73 35.73 0 0 1 9.24 3.07c5.2 2.43 10.56 6.31 11.28 12 .34 2.69-.44 5.38-.84 8.06-1.09 7.36.68 14.8 1.56 22.2a7.45 7.45 0 0 1-.2 3.64 7.73 7.73 0 0 1-2.8 3l-6.36 4.79a41.66 41.66 0 0 1-9.59 5.91c-4.27 1.68-8.94 1.93-13.52 2.17a101.42 101.42 0 0 1-16.35 0c-4.29-.48-8.51-1.51-12.82-1.75a64.64 64.64 0 0 1-7.5-.42 3 3 0 0 1-1.75-.76 3.32 3.32 0 0 1-.64-1.46l-1.91-7.56c-.7-2.74-1.16-6.1.69-6.91Z"/><path class="cls-2" d="M73.3 17c-4.12 2.21-6.84 6.45-8.21 10.91s-1.56 9.19-1.72 13.86a17.78 17.78 0 0 0 .32 5.1 28.12 28.12 0 0 1 10-5.87 1.76 1.76 0 0 0 .9-.51 1.83 1.83 0 0 0 .12-1.44c-1.42-7.53.98-15.3-1.41-22.05ZM46.31 6q-.12 8.68-.23 17.37c-.08 5.21-.17 10.63-2.3 15.37a4.29 4.29 0 0 1-1.38 1.91 4.89 4.89 0 0 1-2.3.63 172.41 172.41 0 0 1-20.46.28c-1.15 0-2.57-.26-2.9-1.36 3.43-1.38 7.23-3.14 8.47-6.62a12.6 12.6 0 0 0 .54-3.82c.1-3.32.08-6.64.51-9.93a21.5 21.5 0 0 1 3.22-9.32 15.58 15.58 0 0 1 8.45-6.17c3.42-1.01 8.42-1.06 8.38 1.66Z"/><path class="cls-3" d="M2.51 50.83c10.77 2.6 21.69 5.23 32.77 4.94a78.06 78.06 0 0 0 8.09-.66 54.43 54.43 0 0 0 9-1.82c8.12-2.49 15.07-7.72 21.84-12.84a84.18 84.18 0 0 1 0 13.38 4.37 4.37 0 0 1-.43 1.86 4.48 4.48 0 0 1-1.52 1.41l-9.52 6.42a36.79 36.79 0 0 1-8.61 4.75 37 37 0 0 1-8.89 1.45c-4.57.36-9.14.73-13.72.66a97.65 97.65 0 0 1-24.66-3.92 5.32 5.32 0 0 1-2.11-.95 4.78 4.78 0 0 1-1.25-2.42c-.94-3.53-1.09-7.26-.99-12.26Z"/></g><path d="M25 71.5q-4.74-.37-9.47-1c-3-.36-6-.7-9-1.32-1.32-.28-2.83-.64-3.64-1.8-1-2-1.23-4.22-1.75-6.33C.42 57.78-.34 54.36.17 51c.18-2.12 1.72-3.59 3.41-4.67 2.22-1.81 4.79-3.16 7.13-4.8C14.24 39 18 36.81 21.09 33.78c.73-2.85 1.11-5.79 1.65-8.68.64-2 .7-8.21 3.07-8.55 3-.3 1.58 7.35 1.55 9.21-.32 2.75-.95 5.46-1.5 8.16a5.78 5.78 0 0 1-2.19 4A136.43 136.43 0 0 1 4.74 50.34c-1.12 1.71-.23 4.31-.12 6.29.47 2.74 1 5.49 1.63 8.2a146.54 146.54 0 0 0 47 1.93c6.57-3.71 12.58-8.48 18.71-12.9.67-.32.68-1.51.79-2a42.14 42.14 0 0 0 .16-4.63c0-4.37-.21-8.75-.27-13.12-.06-3.44 0-6.88-.14-10.32-.16-1.53-.27-3.74 1.75-3.94 3.11 0 2 3.86 2.16 5.88-.08 5.68-.09 11.36.06 17 .45 14.47 1 11.67-10.16 20-3.76 2.61-7.19 5.78-11.23 7.94A118.36 118.36 0 0 1 25 71.5Z"/><path d="M23.66 31.28a.44.44 0 1 1 .42.45.45.45 0 0 1-.42-.45Z"/><path d="M74 33a1.32 1.32 0 0 1-.66-.91 26.09 26.09 0 0 1-.48-4.32c-.27-5.42-1.11-11.43-5.25-15.34-7.63-6.61-26.23-8.39-34.23-1.76-6 4.8-5.93 13.15-7.12 20.06a1.61 1.61 0 0 1-2.88.65c-.62-1.12 0-2.46-.05-3.66C22.69 16.21 27.91 5.63 40 3.25c13.4-2.69 34.57 0 36.17 16.85.29 1.9.63 13.75-2.17 12.9Z"/><path d="M26.26 43c-1.48-.21-10.75-.84-9.47-3.09.33-.42 1-.24 1.46-.2a84.86 84.86 0 0 0 16.86.38 63.8 63.8 0 0 0 7.06-1.19 10.82 10.82 0 0 0 .91-2.69c1.6-7.45 1.89-14.76 2.11-22.28 0-2.27.1-4.53.21-6.8a4.39 4.39 0 0 1 .54-2.46 1.12 1.12 0 0 1 1.92.08 6 6 0 0 1 .35 1c.1 3.86-.18 7.73-.38 11.59-.28 6.8-.47 13.66-2 20.32-.34 1.26-.59 2.7-1.63 3.59s-2.36.83-3.59 1.09a48.07 48.07 0 0 1-14.5.63ZM62.36 47c-1-2.49-.62-5.34-.62-8 .19-6.26 1.58-12.72 5.28-17.89a15.12 15.12 0 0 1 5.29-4.8 1.09 1.09 0 0 1 .85 0 .68.68 0 0 1 .16 1.1 2.62 2.62 0 0 0-.32.23c-7.63 6.21-9 16.75-8.73 26a25.68 25.68 0 0 0 .3 2.78 1.22 1.22 0 0 1-2.21.58Z"/><path d="M33.77 57c-10.27.16-20.43-.83-30.09-4.34a1.47 1.47 0 1 1 1-2.75 50.16 50.16 0 0 0 7.89 2.38A73.17 73.17 0 0 0 28.22 54c7.28 0 14.65.38 21.76-1.28 6.4-2.46 12.17-6.31 18.12-9.69 1.42-.82 2.83-1.59 4.12-2.37.73-.31 1.33-1.15 2.16-1 1.13.51.21 1.66-.46 2.1-7 5.17-14.3 10.39-22.26 13.85C45.85 57 39.74 56.93 33.77 57Z"/></g><g id="Vector_layer_copy_7" data-name="Vector layer copy 7"><g id="Layer_111_copy" data-name="Layer 111 copy"><path class="cls-1" d="M190.8 48c-3.8-5.19-9.8-8.34-15.47-11.36a8.74 8.74 0 0 1-3.69-3 9.47 9.47 0 0 1-.91-3.59 60.83 60.83 0 0 0-4.84-17.29 16.21 16.21 0 0 0-3.41-5.33 16.23 16.23 0 0 0-5.74-3.17c-5.57-2-11.6-3.22-17.46-2.26A35.73 35.73 0 0 0 130 5.12c-5.2 2.43-10.56 6.31-11.28 12-.34 2.69.44 5.38.84 8.06 1.09 7.36-.68 14.8-1.56 22.2a7.45 7.45 0 0 0 .2 3.64 7.73 7.73 0 0 0 2.8 3l6.36 4.79a41.66 41.66 0 0 0 9.64 5.97c4.27 1.68 8.94 1.94 13.52 2.17a101.42 101.42 0 0 0 16.35 0c4.29-.48 8.51-1.51 12.82-1.75a64.64 64.64 0 0 0 7.5-.42 3 3 0 0 0 1.75-.76 3.32 3.32 0 0 0 .64-1.46l1.92-7.62c.69-2.78 1.2-6.14-.7-6.94Z"/><path class="cls-2" d="M120.36 14.67c4.12 2.21 6.84 6.45 8.21 10.91s1.56 9.19 1.72 13.86a17.78 17.78 0 0 1-.32 5.1 28.12 28.12 0 0 0-10-5.87 1.76 1.76 0 0 1-.9-.51 1.83 1.83 0 0 1-.12-1.44c1.42-7.55-.95-15.32 1.41-22.05ZM147.34 3.64q.12 8.68.23 17.37c.07 5.22.17 10.61 2.3 15.38a4.29 4.29 0 0 0 1.38 1.91 4.89 4.89 0 0 0 2.3.63 172.41 172.41 0 0 0 20.46.28c1.15 0 2.57-.26 2.9-1.36-3.43-1.38-7.23-3.14-8.47-6.62a12.6 12.6 0 0 1-.54-3.82c-.1-3.32-.08-6.64-.51-9.93a21.5 21.5 0 0 0-3.22-9.32A15.58 15.58 0 0 0 155.72 2c-3.41-1-8.41-1.07-8.38 1.64Z"/><path class="cls-3" d="M191.14 48.48c-10.77 2.6-21.69 5.23-32.77 4.94a78.06 78.06 0 0 1-8.09-.66 54.43 54.43 0 0 1-9-1.82c-8.12-2.49-15.07-7.72-21.84-12.84a84.18 84.18 0 0 0-.05 13.38 4.37 4.37 0 0 0 .43 1.86 4.48 4.48 0 0 0 1.52 1.41l9.52 6.42a36.79 36.79 0 0 0 8.61 4.75 37 37 0 0 0 8.89 1.45c4.57.36 9.14.73 13.72.66a97.65 97.65 0 0 0 24.75-3.92 5.32 5.32 0 0 0 2.11-1 4.78 4.78 0 0 0 1.25-2.42c.9-3.47 1.06-7.21.95-12.21Z"/></g><path d="M168.68 69.15q4.74-.37 9.47-1c3-.36 6-.7 9-1.32 1.32-.28 2.83-.64 3.64-1.8 1-2 1.23-4.22 1.75-6.33.68-3.32 1.44-6.74.93-10.14-.18-2.12-1.72-3.59-3.41-4.67-2.22-1.81-4.79-3.16-7.13-4.8-3.53-2.45-7.32-4.68-10.38-7.71-.73-2.85-1.11-5.79-1.65-8.68-.64-2-.7-8.21-3.07-8.55-3-.3-1.58 7.35-1.55 9.21.32 2.75 1 5.46 1.5 8.16a5.78 5.78 0 0 0 2.19 4A136.43 136.43 0 0 0 188.91 48c1.12 1.71.23 4.31.12 6.29-.47 2.74-1 5.49-1.63 8.2a146.54 146.54 0 0 1-47 1.93c-6.57-3.71-12.58-8.48-18.71-12.9-.67-.32-.68-1.51-.79-2a42.14 42.14 0 0 1-.16-4.63c0-4.37.21-8.75.27-13.12.06-3.44 0-6.88.14-10.32.16-1.53.27-3.74-1.75-3.94-3.11 0-2 3.86-2.16 5.88.08 5.68.09 11.36-.06 17-.45 14.47-1 11.67 10.16 20 3.76 2.61 7.19 5.78 11.23 7.94a118.38 118.38 0 0 0 30.11.82Z"/><path d="M170 28.93a.44.44 0 1 0-.42.45.44.44 0 0 0 .42-.45Z"/><path d="M119.69 30.67a1.32 1.32 0 0 0 .66-.91 26.09 26.09 0 0 0 .48-4.32c.27-5.44 1.11-11.44 5.25-15.34 7.63-6.61 26.23-8.39 34.23-1.76 6 4.8 5.93 13.15 7.12 20.06a1.61 1.61 0 0 0 2.88.65c.62-1.12 0-2.46.05-3.66C171 13.86 165.74 3.28 153.68.9c-13.4-2.69-34.57 0-36.17 16.85-.32 1.85-.66 13.76 2.18 12.92Z"/><path d="M167.39 40.63c1.48-.21 10.75-.84 9.47-3.09-.33-.42-1-.24-1.46-.2a84.86 84.86 0 0 1-16.86.38 63.8 63.8 0 0 1-7.06-1.19 10.82 10.82 0 0 1-.91-2.69c-1.6-7.45-1.89-14.76-2.11-22.28 0-2.27-.1-4.53-.21-6.8a4.39 4.39 0 0 0-.54-2.46 1.12 1.12 0 0 0-1.92.08 6 6 0 0 0-.35 1c-.1 3.86.18 7.73.38 11.59.28 6.8.47 13.66 2 20.32.34 1.26.59 2.7 1.63 3.59s2.36.83 3.59 1.09a48.07 48.07 0 0 0 14.5.63 1 1 0 0 0-.15.03ZM131.3 44.64c1-2.49.62-5.34.62-8-.19-6.26-1.58-12.72-5.28-17.89a15.12 15.12 0 0 0-5.29-4.8 1.09 1.09 0 0 0-.85 0 .68.68 0 0 0-.16 1.1 2.62 2.62 0 0 1 .32.23c7.63 6.21 9 16.75 8.73 26a25.68 25.68 0 0 1-.3 2.78 1.22 1.22 0 0 0 2.21.58Z"/><path d="M159.88 54.62c10.27.16 20.43-.83 30.09-4.34a1.47 1.47 0 1 0-1-2.75 50.16 50.16 0 0 1-7.97 2.38 73.17 73.17 0 0 1-15.61 1.69c-7.28 0-14.65.38-21.76-1.28-6.4-2.46-12.17-6.31-18.12-9.69-1.42-.82-2.83-1.59-4.12-2.37-.73-.31-1.33-1.15-2.16-1-1.13.51-.21 1.66.46 2.1 7 5.17 14.3 10.39 22.26 13.85 5.86 1.48 11.96 1.37 17.93 1.41Z"/></g></g></g></svg>