<svg xmlns="http://www.w3.org/2000/svg" viewBox="0 0 206.19 76.88"><defs><style>.cls-1{fill:#f6f4e1}.cls-2{fill:#dbdaca}.cls-3{fill:#adab90}</style></defs><g id="Layer_2" data-name="Layer 2"><g id="Layer_1-2" data-name="Layer 1"><g id="Layer_186" data-name="Layer 186"><g id="Vector_layer" data-name="Vector layer"><path class="cls-1" d="M57.41 26.32a26.08 26.08 0 0 0 7 1.55A8.7 8.7 0 0 0 71 25.53a10.93 10.93 0 0 0 2.41-5.33 37.42 37.42 0 0 0 .88-8.1c0-2.89-.31-5.93 1-8.51.57-1.14 2-2.22 3-1.52a2.69 2.69 0 0 1 .88 2.08C81 20.32 82.77 36.52 83 52.78a316.48 316.48 0 0 1-28.15 15.15 42.11 42.11 0 0 1-7.41 2.92 45.61 45.61 0 0 1-11.13 1L13.84 72c-2.45 0-5 0-7.16-1.21C3.07 68.77 2 64 2.6 59.84a20.82 20.82 0 0 1 4.34-10.05c2.29-2.86 5.29-5 8-7.49 1.87-1.67 3.62-3.45 5.37-5.24a4.59 4.59 0 0 0 1.07-1.42 4.54 4.54 0 0 0 .12-2.17A104.42 104.42 0 0 1 21.05 21a16 16 0 0 1 1.3-7c1.76-3.43 5.58-5.29 9.31-6.26A33.91 33.91 0 0 1 42 6.67c2.1.12 4.38.53 5.77 2.11a9.92 9.92 0 0 1 1.77 4.28A53.5 53.5 0 0 0 54 24.66a7.48 7.48 0 0 0 2.14 2.79c2.34 1.64 5.55.43 8.39.72"/><path class="cls-2" d="M4.65 53c8.8 2.63 17.77 5.28 27 5.13 7.67-.12 15.17-2.19 22.53-4.36a111 111 0 0 0 15.41-5.45c4.2-1.94 8.3-4.5 10.85-8.36q.06 6.17.11 12.34a3.58 3.58 0 0 1-.13 1.22 2.81 2.81 0 0 1-.78 1.09 15.24 15.24 0 0 1-3.2 2.16q-6.7 3.67-13.44 7.31c-5.37 2.92-10.9 5.86-16.91 7.18a58.16 58.16 0 0 1-13.89.95A209.64 209.64 0 0 1 6.08 70c-1.08-.16-2.32-.44-2.82-1.4A3.43 3.43 0 0 1 3 67c0-2.46 0-4.91-.07-7.37a8.87 8.87 0 0 1 .37-3.21c.38-1.05 1.25-1.95 1.35-3.42Z"/><path class="cls-2" d="M9.4 70.39a12.24 12.24 0 0 1 6.92-8.18 9.63 9.63 0 0 1 3-.79 10.3 10.3 0 0 1 6 1.62 27.68 27.68 0 0 1 4.86 4A3.86 3.86 0 0 1 31 68c.59 1.13 0 2.5 0 3.78-7.12-.27-14.42 1.45-21.6-1.39ZM61.33 50.63c.8-4.38 1.71-8.92 4.36-12.49 1.63-2.2 3.84-3.89 5.79-5.82 2.66-2.62 5-5.76 8.35-7.37.29-.14.69-.23.87 0a.71.71 0 0 1 .09.38q.19 6.11 0 12.21a5.36 5.36 0 0 1-.31 2 5.09 5.09 0 0 1-1.28 1.66 50 50 0 0 1-10.83 7.63c-1.37.7-2.72 1.35-7.04 1.8Z"/><path class="cls-3" d="M29.58 32.79a7.57 7.57 0 0 1-2.35-5.05 14.53 14.53 0 0 1 .23-5.69 8.86 8.86 0 0 1 3-4.76 13.42 13.42 0 0 1 3.24-1.72 36.41 36.41 0 0 1 6.18-2c1.29-.26 2.77-.38 3.77.47a4.59 4.59 0 0 1 1.1 1.68 38.59 38.59 0 0 1 2.77 9 3.55 3.55 0 0 1-.09 2.12 3.71 3.71 0 0 1-2.21 1.56c-4.84 1.89-9.8 3.71-15.64 4.39Z"/><path d="M18.11 74.84a69.54 69.54 0 0 1-12.23-2.11c-1.28-.37-2.76-.62-3.64-1.73-3.24-5-2.75-15.33.2-20.43 2.06-3.42 5.45-5.75 8.56-8.14a102.05 102.05 0 0 0 9-7.77l-.12.12-.06.06.14-.14.08-.08a85.47 85.47 0 0 1-1.07-9.85c-.22-3.59-.47-7.46 1.11-10.8 3.3-6.78 11.83-8.86 18.82-8.33 4.52.26 9.65 1.14 12 5.48a77.49 77.49 0 0 1 4.61 10.48c.47 1.27.81 2.63 2 3.4 3.59 1.47 8.1.95 11.72.18 3.4-4.59 3.15-10.63 2.91-16.06.1-2.53.08-5.35 1.85-7.36 2-2.67 5.42-2.25 6.7.87 2.8 10.4 3 21.44 2.81 32.18-.07 5 0 9.68.2 14.54.61 3.47-2 6.23-4.63 8.07-4 2.81-8.64 4.63-13 6.88-4.4 2.07-8.6 4.55-13 6.61a46.17 46.17 0 0 1-14.84 3.51 87.57 87.57 0 0 1-20.12.42Zm6-4.2c9.1.21 18.22.47 26.68-2.93 9.05-4.57 18.7-8.23 27.18-13.83 1-.85 2.35-1.76 2.41-3.16-.15-2.79-.37-5.58-.49-8.38-.33-10.63.16-21.23-1.53-31.72-.37-2.43-.15-5.09-1.33-7.31-3.03 2.47-.83 6.9-1.43 10.25-.3 4.82-.73 10.36-4 14.15a5.71 5.71 0 0 1-3.09 1.16c-3.29.5-6.68 1-10 .32a7 7 0 0 1-4.2-2.09 14.52 14.52 0 0 1-1.2-2.2c-1.38-2.35-1.7-5-2.73-7.28-1.2-2.44-2.18-5.39-4.65-6.83a22.64 22.64 0 0 0-16-.11c-3.16 1.22-6 3.83-6.18 7.39-.41 5.39.13 10.26.6 15.53a4.1 4.1 0 0 1-1.27 3.94c-2.64 2.47-5.43 4.8-8.22 7.09-2.91 2.47-6.36 4.54-8.32 7.91a14.42 14.42 0 0 0-1.38 5.33c-.3 3.32-.63 6.79.37 10a86.77 86.77 0 0 0 18.82 2.77Z"/><path d="M30.91 34.23a4.15 4.15 0 0 1-1.05-.14 3 3 0 0 1-1.34-.88c-2.48-1.05-2.46-7.15-2.72-9.57-.83-6.44 4-9.45 9.67-10.54 2.38-.43 4.83-1.4 7.26-.82 5 1.59 5.71 7.92 6.73 12.32.34 4.82-5.57 6.5-9.27 7.64-3.03.86-6.09 1.99-9.28 1.99Zm-.27-2.66a17.09 17.09 0 0 0 2-.22h-.13c3-.64 13.73-3.15 14.07-6.51a39.68 39.68 0 0 0-2-7.2c-.47-1.06-1-2.26-2.13-2.72-2-.53-4.31.6-6.13 1-2.16.64-4.43 1.32-6.11 2.88-2.16 2.09-1.42 10.58.52 12.77ZM29.45 70.32a9.37 9.37 0 0 0-3.56-6.64c-3.17-1.15-7.2-1.66-10.23.08a12.93 12.93 0 0 0-5.13 5.94.64.64 0 0 1-1.24 0 2.34 2.34 0 0 1 0-.95C9.7 65 13 61.92 16.38 60.59c3.7-1 9-.77 12.06 1.62 1.81 1.23 6.06 8.56 2.54 9.39a1.41 1.41 0 0 1-1.53-1.28ZM25.91 58.55A101.11 101.11 0 0 1 13 56.5c-1.55-.56-11.89-1.5-9.86-3.9.87-.59 2.05-.06 3 0 5.89.76 12 2 17.84 2.82 10.17 1.29 20.37-.42 30.18-3.12 5.52-1.53 11.09-3.2 15.92-6.07a80.46 80.46 0 0 0 9.46-7A1.23 1.23 0 1 1 81.19 41a74.09 74.09 0 0 1-9.72 7.27c-12.92 7.28-30.78 11.22-45.56 10.28Z"/><path d="M60.31 50c-.1-5 3.25-9.12 5.8-13.09 3.07-4.53 7.35-8.27 11.65-11.52a24.47 24.47 0 0 1 2.84-2 1.16 1.16 0 0 1 1.05-.13c.91.56.16 1.36-.48 1.75-5.62 4.56-11 9.74-14.77 15.86-1.63 2.66-3.76 5.38-3.84 8.62a1.16 1.16 0 1 1-2.25.51Z"/></g><g id="Layer_186_copy" data-name="Layer 186 copy"><g id="Vector_layer_copy_27" data-name="Vector layer copy 27"><path class="cls-1" d="M148.76 28a26.08 26.08 0 0 1-7 1.55 8.7 8.7 0 0 1-6.57-2.34 10.93 10.93 0 0 1-2.41-5.33 37.42 37.42 0 0 1-.88-8.1c0-2.89.31-5.93-1-8.51-.57-1.14-2-2.22-3-1.52a2.69 2.69 0 0 0-.9 2.05c-1.82 16.17-3.64 32.37-3.89 48.63a316.48 316.48 0 0 0 28.17 15.15 42.11 42.11 0 0 0 7.41 2.92 45.61 45.61 0 0 0 11.13 1l22.47.18c2.45 0 5 0 7.16-1.21 3.61-2.06 4.66-6.88 4.08-11a20.82 20.82 0 0 0-4.34-10.05c-2.29-2.86-5.29-5-8-7.49-1.87-1.67-3.62-3.45-5.37-5.24a4.59 4.59 0 0 1-1.07-1.42 4.54 4.54 0 0 1-.12-2.17 104.42 104.42 0 0 0 .48-12.51 16 16 0 0 0-1.3-7c-1.76-3.43-5.58-5.29-9.31-6.26a33.91 33.91 0 0 0-10.33-1c-2.1.12-4.38.53-5.77 2.11a9.92 9.92 0 0 0-1.77 4.28 53.5 53.5 0 0 1-4.46 11.6A7.48 7.48 0 0 1 150 29.1c-2.34 1.64-5.55.43-8.39.72"/><path class="cls-2" d="M201.52 54.6c-8.8 2.63-17.77 5.28-27 5.13-7.67-.12-15.17-2.19-22.53-4.36a111 111 0 0 1-15.41-5.45c-4.2-1.94-8.3-4.5-10.85-8.36q-.06 6.16-.11 12.34a3.58 3.58 0 0 0 .13 1.22 2.81 2.81 0 0 0 .78 1.09 15.24 15.24 0 0 0 3.2 2.16q6.66 3.72 13.36 7.36c5.41 2.93 10.94 5.86 17 7.18a58.16 58.16 0 0 0 13.89 1 209.64 209.64 0 0 0 26.12-2.22c1.08-.16 2.32-.44 2.82-1.4a3.43 3.43 0 0 0 .27-1.62c0-2.46 0-4.91.07-7.37a8.87 8.87 0 0 0-.37-3.21c-.4-1.09-1.27-1.97-1.37-3.49Z"/><path class="cls-2" d="M196.77 72a12.24 12.24 0 0 0-6.92-8.18 9.63 9.63 0 0 0-3-.79 10.3 10.3 0 0 0-6 1.62 27.68 27.68 0 0 0-4.86 4 3.86 3.86 0 0 0-.78.93c-.59 1.13.05 2.5 0 3.78 7.08-.21 14.38 1.52 21.56-1.36ZM144.84 52.28c-.8-4.38-1.71-8.92-4.36-12.49-1.63-2.2-3.84-3.89-5.79-5.82-2.66-2.62-5-5.76-8.35-7.37-.29-.14-.69-.23-.87 0a.71.71 0 0 0-.09.38q-.19 6.1 0 12.21a5.36 5.36 0 0 0 .31 2 5.09 5.09 0 0 0 1.31 1.66 50 50 0 0 0 10.83 7.63c1.3.7 2.69 1.35 7.01 1.8Z"/><path class="cls-3" d="M176.59 34.44a7.57 7.57 0 0 0 2.35-5 14.53 14.53 0 0 0-.23-5.69 8.86 8.86 0 0 0-3-4.76 13.42 13.42 0 0 0-3.24-1.72 36.41 36.41 0 0 0-6.18-2c-1.29-.26-2.77-.38-3.77.47a4.59 4.59 0 0 0-1.1 1.68 38.59 38.59 0 0 0-2.77 9 3.55 3.55 0 0 0 .09 2.12 3.71 3.71 0 0 0 2.21 1.56c4.84 1.84 9.8 3.66 15.64 4.34Z"/><path d="M188.07 76.49a69.54 69.54 0 0 0 12.23-2.11c1.28-.37 2.76-.62 3.64-1.73 3.28-5 2.75-15.33-.2-20.43-2.06-3.42-5.45-5.75-8.54-8.14a102.05 102.05 0 0 1-9-7.77l.12.12.06.06-.14-.14-.08-.08a85.47 85.47 0 0 0 1.07-9.85c.22-3.59.47-7.46-1.11-10.8-3.34-6.78-11.87-8.86-18.86-8.33-4.52.26-9.65 1.14-12 5.48a77.49 77.49 0 0 0-4.58 10.48c-.47 1.27-.81 2.63-2 3.4-3.59 1.47-8.1 1-11.72.18-3.4-4.59-3.15-10.63-2.91-16.06-.1-2.53-.08-5.35-1.85-7.36-2-2.67-5.42-2.25-6.7.87-2.8 10.4-3 21.44-2.81 32.18.07 5 0 9.68-.2 14.54-.61 3.47 2 6.23 4.63 8.07 4 2.81 8.64 4.63 13 6.88 4.4 2.07 8.6 4.55 13 6.61a46.17 46.17 0 0 0 14.84 3.51 87.55 87.55 0 0 0 20.11.42Zm-6-4.2c-9.1.21-18.22.47-26.68-2.93-9-4.57-18.7-8.23-27.18-13.83-1-.85-2.35-1.76-2.41-3.16.15-2.79.37-5.58.49-8.38.33-10.63-.16-21.23 1.53-31.72.37-2.43.15-5.09 1.33-7.31 3.08 2.47.87 6.9 1.47 10.25.3 4.82.73 10.36 4 14.15a5.71 5.71 0 0 0 3.09 1.16c3.29.5 6.68 1 10 .32a7 7 0 0 0 4.2-2.09 14.52 14.52 0 0 0 1.2-2.2c1.38-2.35 1.7-5 2.73-7.28 1.2-2.44 2.18-5.39 4.65-6.83a22.64 22.64 0 0 1 16-.11c3.16 1.22 6 3.83 6.18 7.39.41 5.39-.13 10.26-.6 15.53a4.1 4.1 0 0 0 1.27 3.94c2.64 2.47 5.43 4.8 8.22 7.09 2.91 2.47 6.36 4.54 8.32 7.91a14.42 14.42 0 0 1 1.38 5.33c.3 3.32.63 6.79-.37 10A86.85 86.85 0 0 1 182 72.29Z"/><path d="M175.26 35.88a4.15 4.15 0 0 0 1.05-.14 3 3 0 0 0 1.34-.88c2.48-1 2.46-7.15 2.72-9.57.83-6.44-4-9.45-9.67-10.54-2.38-.43-4.83-1.4-7.26-.82-5 1.59-5.71 7.92-6.73 12.32-.34 4.82 5.57 6.5 9.27 7.64 3.02.85 6.09 1.99 9.28 1.99Zm.27-2.67a17.09 17.09 0 0 1-1.95-.22h.13c-3-.64-13.73-3.15-14.07-6.51a39.68 39.68 0 0 1 2-7.2c.47-1.06 1-2.26 2.13-2.72 2-.53 4.31.6 6.13 1 2.16.64 4.43 1.32 6.11 2.88 2.16 2.09 1.42 10.58-.52 12.77ZM176.73 72a9.37 9.37 0 0 1 3.56-6.64c3.17-1.15 7.2-1.66 10.23.08a12.93 12.93 0 0 1 5.13 5.94.64.64 0 0 0 1.24 0 2.34 2.34 0 0 0 0-1c-.45-3.76-3.73-6.84-7.13-8.17-3.7-1-9-.77-12.06 1.62-1.81 1.23-6.06 8.56-2.54 9.39a1.41 1.41 0 0 0 1.57-1.22ZM180.26 60.2a101.11 101.11 0 0 0 12.93-2.05c1.53-.56 11.87-1.55 9.84-3.9-.87-.59-2.05-.06-3 0-5.89.76-12 2.05-17.84 2.82-10.19 1.26-20.39-.45-30.19-3.15-5.52-1.53-11.09-3.2-15.92-6.07a80.46 80.46 0 0 1-9.46-7 1.23 1.23 0 0 0-1.62 1.81 74.09 74.09 0 0 0 9.72 7.27c12.91 7.27 30.76 11.21 45.54 10.27Z"/><path d="M145.86 51.66c.1-4.95-3.25-9.12-5.8-13.09-3.06-4.57-7.35-8.27-11.65-11.52a24.47 24.47 0 0 0-2.84-2 1.16 1.16 0 0 0-1-.13c-.91.56-.16 1.36.48 1.75 5.62 4.56 10.95 9.74 14.77 15.86 1.63 2.66 3.76 5.38 3.84 8.62a1.16 1.16 0 1 0 2.2.51Z"/></g></g></g></g></g></svg>