<svg xmlns="http://www.w3.org/2000/svg" viewBox="0 0 194.13 73.09"><defs><style>.cls-1{fill:#6a5441}.cls-2{fill:#9c7d62}.cls-3{fill:#946c4a}</style></defs><g id="Layer_2" data-name="Layer 2"><g id="Layer_1-2" data-name="Layer 1"><g id="Layer_277" data-name="Layer 277"><g id="Layer_146" data-name="Layer 146"><path class="cls-1" d="M23.94 26.79c1.62-2.56.73-5.89-.26-8.75s-2-6.1-.64-8.79a8.81 8.81 0 0 1 3.5-3.32A30.32 30.32 0 0 1 42 2.08a13.9 13.9 0 0 1 5 .67 11.19 11.19 0 0 1 5.75 5.59 33.94 33.94 0 0 1 2.45 7.81 6 6 0 0 0 .73 2c1 1.57 3.18 1.86 5.06 1.94a100 100 0 0 0 16.68-.67c.75-.09 1.67-.12 2.09.5a2 2 0 0 1 .16 1.08q.39 8.68.79 17.38a10.46 10.46 0 0 1-.36 4.1 10.07 10.07 0 0 1-2.45 3.36 137.09 137.09 0 0 1-27.42 21.63 22.87 22.87 0 0 1-6.34 2.9 24.64 24.64 0 0 1-7.33.25l-31-2c-1.27-.08-2.68-.23-3.53-1.19a4.27 4.27 0 0 1-.84-2.1c-.89-5.1 1-10.33 3.89-14.63s6.73-7.83 10.32-11.56 5.75-8.33 8.29-12.35Z"/><path class="cls-2" d="M2.49 57.75C13.21 60 24.33 59 35.25 58a52.18 52.18 0 0 0 7.59-1.1 45.38 45.38 0 0 0 8.78-3.42c10.44-5.05 20.44-11.23 28.76-19.3.42 3.2.81 6.6-.52 9.54a16.06 16.06 0 0 1-3.31 4.39 104.61 104.61 0 0 1-24.07 18.5 40.09 40.09 0 0 1-9.74 4.17c-4.27 1.07-8.72 1-13.12.9-8.74-.18-17.69-.39-25.87-3.48a2.66 2.66 0 0 1-1.19-.73 2.54 2.54 0 0 1-.41-1.24 20.6 20.6 0 0 1 .34-8.48Z"/><path class="cls-3" d="M30.08 20.64c-.9-2.68-1.8-5.35-2.69-8a6.72 6.72 0 0 1 2.51-1.92 34.22 34.22 0 0 1 6.71-3 12 12 0 0 1 7.25 0 2.56 2.56 0 0 1 1 .59 3 3 0 0 1 .57.95l1.76 3.95a2.17 2.17 0 0 1 .27 1.15c-.1.64-.74 1-1.32 1.33a50.52 50.52 0 0 1-16.06 4.95ZM59.26 25.92a62 62 0 0 0 15.64.22 10.7 10.7 0 0 0 3.91-1 21.29 21.29 0 0 1 .69 5.56 2.13 2.13 0 0 1-.19 1 2.19 2.19 0 0 1-1.63.83 60.27 60.27 0 0 1-14.68.82 5.12 5.12 0 0 1-2.76-.76c-1.1-.83-1.37-2.35-1.56-3.72-.15-1.07-.27-2.23.58-2.95ZM6.37 48.27a99.75 99.75 0 0 0 25.89-.56 6.54 6.54 0 0 1 2.75 0 5.75 5.75 0 0 1 2.51 1.78 26.2 26.2 0 0 1 2.74 3.46c.81 1.22 1.47 3 .4 4a3 3 0 0 1-1 .56 42.12 42.12 0 0 1-18.62 2.69c-2.51-.16-5-.48-7.53-.4a22.64 22.64 0 0 1-5.76-.08 15.41 15.41 0 0 1-5.14-2.64c1.15-2.96 2.82-5.68 3.76-8.81Z"/><g id="Vector_layer" data-name="Vector layer"><path d="M25.55 73.07a126.64 126.64 0 0 1-17.4-1.29c-2.48-.49-5.82-.39-7-3.06-2.22-5-.78-11 .93-15.94 2.68-5 6.84-9 10.52-13.26a111.37 111.37 0 0 0 8.08-10.18 12.07 12.07 0 0 0 2.05-8.6c-.06-4.26-3.1-8.73-.79-12.8 4.31-6.56 17.9-9.37 25.13-7.23 6 2 8 9.23 8.36 14.87A2.23 2.23 0 0 0 56.79 18c.64.36 1.59.39 1.9 1.15 5.87 1 12-.06 17.75-1.29 2.84-1.38 3.13.8 3.52 3 .61 2.87 1.19 5.74 1.61 8.64a120.19 120.19 0 0 1 1.21 13.13C82.6 48.09 71.11 55.87 67 59.79a116.51 116.51 0 0 1-17.84 12.38 20.82 20.82 0 0 1-5.89.73c-5.9.19-11.82.22-17.72.17Zm2-4.2c6.36-.14 12.79.11 19.11-.71 8.66-4.26 16.18-10.62 23.53-16.82 3-2.88 6.72-5.38 8.8-9.06-.52-7-1.39-13.88-2.52-20.75C69.8 22.85 57.3 25.3 53 18.64c-1.54-3.64-1.53-7.78-3.44-11.31C48 3.57 43.37 3 39.83 3.39 34.74 4 29.07 4.94 25.3 8.69c-1.95 2.07-.21 4.88.22 7.21 1 4 1.44 8.34-.24 12.21-3.27 6.7-9 12.15-13.81 17.68C9 48.69 6.42 51.52 4.86 55c-.88 3.89-1.77 8.26-.1 12 7.68 1.56 15.16 1.76 22.82 1.87Z"/><path d="M30.18 21.88c-.68-.26-1.6-.73-1.55-1.58a41.74 41.74 0 0 1-1.82-5.21c-2.27-6.49 12.82-9.73 17.29-9 2.35.77 3 3.46 3.67 5.57.34 1.52 1.17 3.37 0 4.72-2 2-5.05 2.3-7.63 3.08-3.37.54-6.59 2.16-9.96 2.42Zm.91-2.73c4.4-1.28 9.11-2.36 13.5-3.45a3.43 3.43 0 0 0 1.41-.77 10.36 10.36 0 0 0-.73-3.3c-.54-1.12-.79-2.88-2.1-3.32-5 .32-11.11 1.07-14.36 5.28.84 1.84 1.36 3.79 2.28 5.56ZM18.27 61C17 60.84-.34 59.83 2.9 57.54c4.48 0 9 .77 13.55.87h-.07c26.52 1 39.45-5.21 59.71-21.59.91-.73 1.66-1.65 2.55-2.4A1.37 1.37 0 0 1 80.73 36a5.28 5.28 0 0 1-1.29 1.68c-9.08 7.92-19.39 15-30.56 19.45-9.78 3.71-20.34 4.1-30.61 3.87ZM61.07 34.9a5.56 5.56 0 0 1-3.67-4.67c-.25-1.55-1.06-4 .61-5 4.24-.34 8.67.07 12.93-.41a53.15 53.15 0 0 0 6.28-.82c.42-.1 1.06-.33 1.39 0a.65.65 0 0 1 0 .87 16.75 16.75 0 0 1-5.47 1.58 64.61 64.61 0 0 1-14.24.38c.36 3.06.64 5.92 4.3 6.33a35.56 35.56 0 0 0 14.87-2 9.21 9.21 0 0 1 .87-.34 1.11 1.11 0 0 1 1.17 1.73c-1.71 1.7-4.37 1.85-6.63 2.35-4.06.75-8.41 1.42-12.41 0ZM64.42 20.52c-4.23-.38-10.14-.67-11.63-5.5-.13-.41 0-1 .57-1 .79.36 1.06 1.41 1.8 1.91A12.9 12.9 0 0 0 61 18.58a41.36 41.36 0 0 0 12.27-.31c1 0 3.25-.93 3.48.5-.14 1.28-2 .66-2.94 1a34.75 34.75 0 0 1-9.39.75Z"/><path d="M39.56 58.37c-1-.64.2-1.58.25-2.39.53-6.32-3.62-7.83-9.1-7.13a103.6 103.6 0 0 1-14.6.7 41.18 41.18 0 0 1-9.24-1.3.55.55 0 0 1-.58-.61.56.56 0 0 1 .83-.41 65.72 65.72 0 0 0 16.63.55c4.46-.14 9.19-1.62 13.5-.11 3.5 1.32 5.16 5.68 4 9.12-.25.72-.7 2.07-1.69 1.58Z"/></g></g><g id="Layer_146_copy" data-name="Layer 146 copy"><path class="cls-1" d="M170.18 26.79c-1.62-2.56-.73-5.89.26-8.75s2-6.1.64-8.79a8.81 8.81 0 0 0-3.5-3.32 30.32 30.32 0 0 0-15.41-3.85 13.9 13.9 0 0 0-5 .67 11.19 11.19 0 0 0-5.75 5.59 33.94 33.94 0 0 0-2.42 7.81 6 6 0 0 1-.73 2c-1 1.57-3.18 1.86-5.06 1.94a100 100 0 0 1-16.68-.67c-.75-.09-1.67-.12-2.09.5a2 2 0 0 0-.24 1.08q-.39 8.68-.79 17.38a10.46 10.46 0 0 0 .36 4.1 10.07 10.07 0 0 0 2.45 3.36 137.09 137.09 0 0 0 27.42 21.62 22.87 22.87 0 0 0 6.34 2.9 24.64 24.64 0 0 0 7.33.25l31-2c1.27-.08 2.68-.23 3.53-1.19a4.27 4.27 0 0 0 .84-2.1c.87-5.1-1-10.34-3.91-14.63s-6.73-7.83-10.32-11.56-5.73-8.32-8.27-12.34Z"/><path class="cls-2" d="M191.63 57.75C180.91 60 169.79 59 158.87 58a52.18 52.18 0 0 1-7.59-1.1 45.38 45.38 0 0 1-8.78-3.42c-10.44-5.05-20.44-11.23-28.76-19.3-.42 3.2-.81 6.6.52 9.54a16.06 16.06 0 0 0 3.31 4.39 104.61 104.61 0 0 0 24.07 18.5 40.09 40.09 0 0 0 9.74 4.17c4.27 1.07 8.72 1 13.12.9 8.74-.18 17.69-.39 25.87-3.48a2.66 2.66 0 0 0 1.19-.73 2.54 2.54 0 0 0 .44-1.27 20.78 20.78 0 0 0-.37-8.45Z"/><path class="cls-3" d="M164 20.64c.9-2.68 1.8-5.35 2.69-8a6.72 6.72 0 0 0-2.51-1.92 34.22 34.22 0 0 0-6.71-3 12 12 0 0 0-7.25 0 2.56 2.56 0 0 0-1 .59 3 3 0 0 0-.57.95l-1.76 3.95a2.17 2.17 0 0 0-.27 1.15c.1.64.74 1 1.32 1.33A50.44 50.44 0 0 0 164 20.64ZM134.85 25.92a62 62 0 0 1-15.64.22 10.7 10.7 0 0 1-3.91-1 21.29 21.29 0 0 0-.69 5.56 2.13 2.13 0 0 0 .19 1 2.19 2.19 0 0 0 1.63.83 60.27 60.27 0 0 0 14.69.79 5.12 5.12 0 0 0 2.76-.76c1.1-.83 1.37-2.35 1.56-3.72.15-1.04.27-2.2-.59-2.92ZM187.74 48.27a99.75 99.75 0 0 1-25.89-.56 6.54 6.54 0 0 0-2.75 0 5.75 5.75 0 0 0-2.51 1.78 26.2 26.2 0 0 0-2.74 3.46c-.81 1.22-1.47 3-.4 4a3 3 0 0 0 1 .56 42.12 42.12 0 0 0 18.62 2.69c2.51-.16 5-.48 7.53-.4a22.64 22.64 0 0 0 5.76-.08 15.41 15.41 0 0 0 5.14-2.64c-1.15-2.96-2.82-5.68-3.76-8.81Z"/><g id="Vector_layer_copy_17" data-name="Vector layer copy 17"><path d="M168.57 73.07A126.64 126.64 0 0 0 186 71.78c2.48-.49 5.82-.39 7-3.06 2.22-5 .78-11-.93-15.94-2.68-5-6.84-9-10.52-13.26a111.37 111.37 0 0 1-8.08-10.18 12.07 12.07 0 0 1-2.05-8.6c.06-4.26 3.1-8.73.79-12.8-4.33-6.56-17.92-9.37-25.15-7.23-6 2-8 9.23-8.36 14.87a2.23 2.23 0 0 1-1.37 2.42c-.64.36-1.59.39-1.9 1.15-5.87 1-12-.06-17.75-1.29-2.84-1.38-3.13.8-3.52 3-.61 2.87-1.19 5.74-1.61 8.64a120.19 120.19 0 0 0-1.21 13.13c.18 5.55 11.67 13.33 15.76 17.25A116.51 116.51 0 0 0 145 72.17a20.82 20.82 0 0 0 5.89.73c5.86.19 11.77.22 17.68.17Zm-2-4.2c-6.36-.14-12.79.11-19.11-.71-8.66-4.26-16.18-10.62-23.53-16.82-3-2.88-6.72-5.38-8.8-9.06.52-7 1.39-13.88 2.52-20.75 6.7 1.32 19.2 3.77 23.5-2.89 1.54-3.63 1.53-7.78 3.44-11.31 1.61-3.76 6.19-4.33 9.73-3.94 5.09.57 10.76 1.55 14.53 5.3 1.95 2.07.21 4.88-.22 7.21-1 4-1.44 8.34.24 12.21 3.27 6.7 9 12.15 13.81 17.68 2.43 2.9 5.05 5.73 6.61 9.18.88 3.89 1.77 8.26.1 12-7.71 1.59-15.19 1.79-22.86 1.9Z"/><path d="M163.94 21.88c.68-.26 1.6-.73 1.55-1.58a41.74 41.74 0 0 0 1.82-5.21c2.27-6.49-12.82-9.73-17.29-9-2.35.77-3 3.46-3.67 5.57-.34 1.52-1.17 3.37 0 4.72 2 2 5.05 2.3 7.63 3.08 3.36.54 6.59 2.16 9.96 2.42Zm-.94-2.73c-4.4-1.28-9.11-2.36-13.5-3.45a3.43 3.43 0 0 1-1.43-.77 10.36 10.36 0 0 1 .73-3.3c.54-1.12.79-2.88 2.1-3.32 5 .32 11.11 1.07 14.36 5.28-.8 1.84-1.26 3.79-2.26 5.56ZM175.85 61c1.23-.13 18.61-1.14 15.37-3.43-4.48 0-9 .77-13.55.87h.07c-26.52 1-39.45-5.21-59.71-21.59-.91-.73-1.66-1.65-2.55-2.4a1.37 1.37 0 0 0-2.09 1.55 5.28 5.28 0 0 0 1.29 1.68c9.08 7.92 19.39 15 30.56 19.45 9.76 3.71 20.33 4.1 30.61 3.87ZM133.05 34.9a5.56 5.56 0 0 0 3.67-4.67c.25-1.55 1.06-4-.61-5-4.24-.34-8.67.07-12.93-.41a53.15 53.15 0 0 1-6.28-.82c-.42-.1-1.06-.33-1.39 0a.65.65 0 0 0 0 .87 16.75 16.75 0 0 0 5.49 1.65 64.61 64.61 0 0 0 14.24.38c-.36 3.06-.64 5.92-4.3 6.33a35.56 35.56 0 0 1-14.87-2 9.21 9.21 0 0 0-.87-.34 1.11 1.11 0 0 0-1.2 1.77c1.71 1.7 4.37 1.85 6.63 2.35 4.06.64 8.42 1.31 12.42-.11ZM129.7 20.52c4.23-.38 10.14-.67 11.63-5.5.13-.41 0-1-.57-1-.79.36-1.06 1.41-1.8 1.91a12.9 12.9 0 0 1-5.82 2.62 41.36 41.36 0 0 1-12.27-.31c-1 0-3.25-.93-3.48.5.14 1.28 2 .66 2.94 1a34.75 34.75 0 0 0 9.37.78Z"/><path d="M154.55 58.37c1-.64-.2-1.58-.25-2.39-.53-6.32 3.62-7.83 9.1-7.13a103.6 103.6 0 0 0 14.6.7 41.18 41.18 0 0 0 9.24-1.3.55.55 0 0 0 .58-.61.56.56 0 0 0-.83-.41 65.72 65.72 0 0 1-16.63.55c-4.46-.14-9.19-1.62-13.5-.11-3.5 1.32-5.16 5.68-4 9.12.27.72.7 2.07 1.69 1.58Z"/></g></g></g></g></g></svg>