<svg xmlns="http://www.w3.org/2000/svg" viewBox="0 0 207.83 65.31"><defs><style>.cls-1{fill:#778b7e}.cls-2{fill:#c0cfc5}.cls-3{fill:#53695a}.cls-4{fill:#9bbda5}</style></defs><g id="Layer_2" data-name="Layer 2"><g id="Layer_1-2" data-name="Layer 1"><g id="Layer_282" data-name="Layer 282"><g id="Layer_141" data-name="Layer 141"><path class="cls-1" d="M24 30.71a83.75 83.75 0 0 0 10.76-18c.86-2 1.71-4.06 3.35-5.45a11.59 11.59 0 0 1 4.25-2 50.84 50.84 0 0 1 21.9-1.67 30.56 30.56 0 0 1 10.9 3.49 17 17 0 0 1 7.51 8.43 27.11 27.11 0 0 1 1.23 5.42c.74 4.69 1.48 9.42 1.13 14.16A38.5 38.5 0 0 1 83 44.74a2.79 2.79 0 0 1-.51 1 2.57 2.57 0 0 1-1.18.61c-4.29 1.32-8.91 1.58-13 3.39a67.54 67.54 0 0 0-7.32 4.32c-9.15 5.47-20.09 7.09-30.74 7.56A165.21 165.21 0 0 1 6.43 61c-2-.2-4.23-.64-5.1-2.4a4.83 4.83 0 0 1 0-3.64c1.62-4.73 6-7.86 9.84-11.05a79.89 79.89 0 0 0 18-21.31"/><path class="cls-2" d="M3.21 50.82c5.66 1.87 11.74 2 17.68 1.58s11.81-1.56 17.74-2.16c4.42-.45 8.88-.63 13.22-1.58s8.62-2.77 11.68-6a16.44 16.44 0 0 1 2.3-2.27 9.78 9.78 0 0 1 2.13-1 80.94 80.94 0 0 1 15.13-4.24 53.63 53.63 0 0 1 .73 9.13 1.53 1.53 0 0 1-.3 1.11 1.56 1.56 0 0 1-.69.35c-6.87 2.13-14.09 3.6-20.15 7.45-1.7 1.08-3.29 2.34-5 3.34-3.62 2.06-7.78 2.92-11.88 3.62a142.88 142.88 0 0 1-37 1.9 10.9 10.9 0 0 1-3.67-.78c-3-1.37-4.33-5.45-1.92-10.45Z"/><path class="cls-3" d="M35.2 10.61c2.38 0 4.73-.59 7.11-.6s5 .78 6.21 2.83a8 8 0 0 1 .55 5.29c-1.65 10.48-8.69 19.18-15.47 27.33a1 1 0 0 1-.51.39c-.32.07-.61-.2-.86-.42a13.21 13.21 0 0 0-5-2.48L21 40.87a4.59 4.59 0 0 0-1.93-.35 13.66 13.66 0 0 0-1.52.41 3.66 3.66 0 0 1-2.67-.41c.84-1.64 2.43-2.73 3.84-3.91a28 28 0 0 0 7.09-8.9"/><path class="cls-4" d="M12.28 42.17a16 16 0 0 1 9.3-1.38 31 31 0 0 1 9.06 2.88A7.49 7.49 0 0 1 34 46.12a7.94 7.94 0 0 1 .81 4.4L22.18 52.3a33.2 33.2 0 0 1-6.52.49c-4-.23-7.73-1.87-11.69-2.06a42.83 42.83 0 0 1 7.53-8c.6-.45 1.26-.94.78-.56Z"/><g id="Vector_layer" data-name="Vector layer"><path d="M16 64.33c-3.89-.6-15.64-.12-15.8-5.21A16.25 16.25 0 0 1 1.87 49c1.46-2.57 3.86-4.33 6.21-6a127.85 127.85 0 0 0 9.64-8.67c4.15-4.21 8.19-8.63 11.09-13.82C31.72 16 31.86 9.79 36.45 6.5c9.89-7.46 24-8.45 35.07-3.22 9.76 4.33 12.85 12.17 14 22.2a116.14 116.14 0 0 1 .5 13 27.43 27.43 0 0 1-.71 7.62c-.8 2.77-3.88 2.79-6.23 3.29-4 .77-8.08 1.46-11.6 3.61-5.21 3.42-10.32 7.2-16.48 8.63-11.43 3.04-23.35 3.2-35 2.7ZM17.56 60c13.55.26 28 .42 40.28-5.8 3.73-2.31 7.16-5.2 11.35-6.74 3.84-1.44 8-1.74 11.94-2.75.82-4.71.29-9.68.4-14.42-.36-6.78-.83-14.47-5.8-19.52-9-8.29-23.43-9-33.88-3.08-5 2.41-5.49 6.51-7.6 11.06a69.31 69.31 0 0 1-8.3 13A118 118 0 0 1 14 43.86c-5.78 5-10.25 5.38-9.69 14.49 4.34 1.15 8.8 1.28 13.25 1.65Z"/><path d="M17.89 53.23c-4.56-.18-9.17-.39-13.71-.89a1 1 0 0 1-1-1.09c.21-1.49 4.26-.63 5.45-.79a186.54 186.54 0 0 0 29-.7 78.56 78.56 0 0 0 20.27-5.11 26.24 26.24 0 0 0 5-2.76 30.32 30.32 0 0 1 3.21-3c3-2.09 6.68-3 10.24-3.8 1.82-.37 3.64-.74 5.47-1.06.94-.25 2.29-.19 2.54 1a1.38 1.38 0 0 1-.71 1.49c-3 .7-6.48 1-9.37 1.92a21.49 21.49 0 0 0-6.87 3c-1.85 1.86-3.58 3.84-6.06 4.9-13.48 6.51-28.79 7.2-43.46 6.89Z"/><path d="M34.2 50.38c-.54-2.61-3-4-5.1-5.24-4.43-2.5-9.68-3-14.66-2.62-.7 0-1.54.27-2.16-.14s0-1.2.56-1.34a22.26 22.26 0 0 1 18 2.08c2.3 1.46 4.93 3.24 5.49 6.1.48 1.42-1.25 2.54-2.13 1.16Z"/><path d="M31.81 47.1a1.32 1.32 0 0 1 .25-1.91c2.19-2.33 4.18-4.88 6.14-7.4 3.37-4.87 15.74-22.73 6.39-25.91a22.49 22.49 0 0 0-7.36-.17c-.44.06-.86.2-1.29.28a.8.8 0 0 1-.77-1.18c1.26-1.44 3.55-1.38 5.33-1.57 4.47-.51 9.23 1.17 9.86 6.17 1 8.05-7.69 21-12.66 27.14a48.07 48.07 0 0 1-4.14 4.65 1.24 1.24 0 0 1-1.75-.1Z"/></g></g><g id="Layer_141_copy" data-name="Layer 141 copy"><path class="cls-1" d="M183.85 31.47a83.35 83.35 0 0 1-10.76-18c-.86-2-1.71-4.06-3.35-5.45a11.59 11.59 0 0 0-4.25-2 50.84 50.84 0 0 0-21.93-1.61 30.56 30.56 0 0 0-10.9 3.49 16.94 16.94 0 0 0-7.51 8.43 27.11 27.11 0 0 0-1.23 5.42c-.74 4.69-1.48 9.42-1.13 14.16a38.5 38.5 0 0 0 2.08 9.65 2.79 2.79 0 0 0 .51 1 2.57 2.57 0 0 0 1.18.61c4.29 1.32 8.91 1.58 13 3.39a67.54 67.54 0 0 1 7.32 4.32c9.15 5.47 20.09 7.09 30.74 7.56a165.21 165.21 0 0 0 23.75-.66c2-.2 4.23-.64 5.1-2.4a4.83 4.83 0 0 0-.05-3.64c-1.62-4.73-6-7.86-9.84-11a79.89 79.89 0 0 1-18-21.31"/><path class="cls-2" d="M204.61 51.58c-5.66 1.87-11.74 2-17.68 1.58S175.12 51.6 169.19 51c-4.42-.45-8.88-.63-13.22-1.58s-8.62-2.77-11.68-6a16.44 16.44 0 0 0-2.3-2.27 9.78 9.78 0 0 0-2.13-1 80.94 80.94 0 0 0-15.13-4.24A53.63 53.63 0 0 0 124 45a1.53 1.53 0 0 0 .3 1.11 1.56 1.56 0 0 0 .69.35c6.87 2.13 14.09 3.6 20.15 7.45 1.7 1.08 3.29 2.34 5.05 3.34 3.62 2.06 7.78 2.92 11.88 3.62a142.88 142.88 0 0 0 37 1.9 10.9 10.9 0 0 0 3.67-.78c2.95-1.33 4.26-5.41 1.87-10.41Z"/><path class="cls-3" d="M172.62 11.37c-2.38 0-4.73-.59-7.11-.6s-5 .78-6.21 2.83a8 8 0 0 0-.55 5.29c1.65 10.48 8.69 19.18 15.47 27.33a1 1 0 0 0 .51.39c.32.07.61-.2.86-.42a13.21 13.21 0 0 1 5-2.48l6.22-2.08a4.59 4.59 0 0 1 1.93-.35 13.66 13.66 0 0 1 1.52.41 3.66 3.66 0 0 0 2.67-.41c-.84-1.64-2.42-2.73-3.84-3.91a28 28 0 0 1-7.09-8.9"/><path class="cls-4" d="M195.53 42.93a16 16 0 0 0-9.3-1.38 31 31 0 0 0-9.06 2.88 7.49 7.49 0 0 0-3.31 2.45 7.94 7.94 0 0 0-.81 4.4l12.58 1.78a33.2 33.2 0 0 0 6.52.49c4-.23 7.73-1.87 11.69-2.06a43.17 43.17 0 0 0-7.53-8c-.59-.49-1.25-.94-.78-.56Z"/><g id="Vector_layer_copy_14" data-name="Vector layer copy 14"><path d="M191.85 65.09c3.89-.6 15.64-.12 15.8-5.21A16.25 16.25 0 0 0 206 49.72c-1.46-2.57-3.86-4.33-6.21-6A127.85 127.85 0 0 1 190.1 35c-4.1-4.18-8.19-8.6-11.1-13.79-2.91-4.48-3-10.66-7.64-13.95C161.48-.2 147.39-1.19 136.3 4c-9.76 4.33-12.85 12.17-14 22.2a116.14 116.14 0 0 0-.5 13 27.43 27.43 0 0 0 .71 7.62c.8 2.77 3.88 2.79 6.23 3.29 4 .77 8.08 1.46 11.6 3.61 5.21 3.45 10.32 7.23 16.53 8.66 11.38 3.05 23.29 3.21 34.98 2.71Zm-1.59-4.31c-13.55.26-28 .42-40.28-5.8-3.73-2.33-7.17-5.22-11.35-6.76-3.84-1.44-8-1.74-11.94-2.75-.82-4.71-.29-9.68-.4-14.42.36-6.78.83-14.47 5.8-19.52 9-8.29 23.43-9 33.88-3.08 5 2.41 5.49 6.51 7.6 11.06a69.31 69.31 0 0 0 8.3 13 118 118 0 0 0 11.95 12.13c5.78 5 10.25 5.38 9.69 14.49-4.35 1.13-8.8 1.26-13.25 1.65Z"/><path d="M189.93 54c4.56-.18 9.17-.39 13.71-.89a1 1 0 0 0 1.05-1.11c-.21-1.49-4.26-.63-5.45-.79a186.54 186.54 0 0 1-29-.7 78.56 78.56 0 0 1-20.37-5.11 26.24 26.24 0 0 1-5-2.76 30.32 30.32 0 0 0-3.21-3c-3-2.09-6.68-3-10.24-3.8-1.82-.37-3.64-.74-5.47-1.06-.94-.25-2.29-.19-2.54 1a1.38 1.38 0 0 0 .71 1.49c3 .7 6.48 1 9.37 1.92a21.49 21.49 0 0 1 6.87 3c1.85 1.86 3.58 3.84 6.06 4.9C160 53.61 175.26 54.3 189.93 54Z"/><path d="M173.62 51.14c.54-2.61 3-4 5.1-5.24 4.43-2.5 9.68-3 14.66-2.62.7 0 1.54.27 2.16-.14s0-1.2-.56-1.34a22.26 22.26 0 0 0-18 2.08c-2.3 1.46-4.93 3.24-5.49 6.1-.49 1.42 1.25 2.54 2.13 1.16Z"/><path d="M176 47.86a1.32 1.32 0 0 0-.25-1.91c-2.19-2.33-4.18-4.88-6.14-7.4-3.37-4.87-15.74-22.73-6.39-25.91a22.49 22.49 0 0 1 7.36-.17c.44.06.86.2 1.29.28a.8.8 0 0 0 .77-1.18c-1.26-1.44-3.55-1.38-5.33-1.57-4.47-.51-9.23 1.17-9.86 6.17-1 8 7.69 21 12.66 27.14a48.07 48.07 0 0 0 4.14 4.69 1.24 1.24 0 0 0 1.75-.14Z"/></g></g></g></g></g></svg>