<svg xmlns="http://www.w3.org/2000/svg" viewBox="0 0 203.18 88.41"><defs><style>.cls-1{fill:#6e6e6e}.cls-2{fill:#3b3b3b}</style></defs><g id="Layer_2" data-name="Layer 2"><g id="Layer_1-2" data-name="Layer 1"><g id="Vector_layer_copy_23" data-name="Vector layer copy 23"><g id="Layer_123_copy_2" data-name="Layer 123 copy 2"><path class="cls-1" d="M200.26 83.81a41.37 41.37 0 0 0 1.32-9.06 4.3 4.3 0 0 0-.2-1.75 4.55 4.55 0 0 0-1.83-1.86c-7.2-5-14.05-10.74-18.8-18.1-5.09-7.9-7.49-17.2-9.46-26.39-1.74-8.15-3.94-17.41-11.24-21.42A22.54 22.54 0 0 0 152.26 3a37.32 37.32 0 0 0-14.89.55 21.59 21.59 0 0 0-12.21 8.18c-3.5 5.06-4.13 11.5-4.64 17.63q-1.53 18.09-3 36.18l12.37 3.08c1.93.48 4 1 5.4 2.39 1.28 1.22 1.92 3 2.94 4.39 2.33 3.32 6.4 4.92 10.31 6 7.67 2.14 15.63 3 23.55 3.86 9.63 1.01 19.83 1.98 28.17-1.45Z"/><path class="cls-2" d="M149.44 70.13c.12-9.32-5.81-18.68-14.62-21.71-5.35-1.84-11.8-1.16-15.92 2.73a1.75 1.75 0 0 0-.7 1.28c0 .68.76 1.08 1.39 1.35 3.11 1.34 6.22 2.68 9.44 3.71 3.54 1.13 7.33 2 10.17 4.35 1.82 1.53 3.11 3.6 4.85 5.23a14 14 0 0 0 5.39 3.06ZM138.57 4.24a32.68 32.68 0 0 1 11.67 26.67c-5.8-.16-11.32 2.31-16.59 4.74-5.87 2.7-12.2 5.83-15 11.67l4.5-32.25c.24-1.74.53-3.58 1.67-4.9a9.12 9.12 0 0 1 2.44-1.81 27.06 27.06 0 0 1 11.31-4.12ZM168.49 13.26c-2.8-.46-5.62-.8-8.44-1a6.9 6.9 0 0 0-3.2.26 5.28 5.28 0 0 0-1.61 1.13c-2.86 2.71-4.21 7.25-2.4 10.75a1.92 1.92 0 0 0 .89 1 2.17 2.17 0 0 0 1 .08l11.12-.67a15.74 15.74 0 0 1 5.93.4 54.24 54.24 0 0 0-1.25-8.59c-.53-2.07-1.22-4.24-2.04-3.36ZM171.29 30.77a30.92 30.92 0 0 0-13 .78 7.37 7.37 0 0 0-4.11 2.34c-1.36 1.83-1 4.38-.5 6.61 1.5-.6 3.19-.43 4.8-.58 2.54-.24 4.92-1.28 7.38-2s5.18-1 7.48.06c-.34-3.15-1.29-6.24-2.05-7.21ZM175.06 43a11.23 11.23 0 0 0-7.61-1.15 29.81 29.81 0 0 0-7.4 2.57c-1.6.73-3.41 1.75-3.64 3.5a4.93 4.93 0 0 0 .34 2.17 35.65 35.65 0 0 0 1.84 4.54c1.14-2 3.49-3 5.7-3.71a66.74 66.74 0 0 1 14.73-3c-1.57-2.6-3.15-5.21-3.96-4.92ZM180 51.44a29.82 29.82 0 0 0-13.3 4.16 6.5 6.5 0 0 0-1.78 1.4 3.9 3.9 0 0 0-.49 4.12 1.43 1.43 0 0 0 .87.85 1.76 1.76 0 0 0 .82 0c5.94-1.35 11.63-4.84 17.67-4 .69.09 1.51.19 2-.35a30.92 30.92 0 0 1-3.39-4 11.6 11.6 0 0 0-2.4-2.18ZM189.55 62.32a3.91 3.91 0 0 1-2.91.33c-3.93-.48-7.89.28-11.77 1a31.72 31.72 0 0 0-6.24 1.66 16 16 0 0 0-8.72 9.16c7.74 2.93 16.26 2.75 24.53 2.53 5.22-.14 10.7-.35 15.19-3 1.3-.77 2.61-2 2.48-3.51s-1.39-2.36-2.58-3.09a74.91 74.91 0 0 0-9.98-5.08Z"/></g><path d="M192.4 87.57c3.49-.76 9.31-1.14 10.32-5.27a31.62 31.62 0 0 0 .44-7.53 7.45 7.45 0 0 0-2.61-6c-7.47-6.38-14.92-13.1-20.42-21.29a30.45 30.45 0 0 1-5.3-11.66c-1.21-6.61-1.13-13.4-2.82-19.93-6.45-19.32-34.13-20.07-47.2-7.21-2.4 2.11-3.37 5.16-3.77 8.23-1.12 5.91-2 11.88-2.72 17.86S117 47 116.41 53.08c-.06 3.88-2.58 11.62 1.37 14 6.09 2.59 13.42 2.9 18.25 7.68 2 2.93 4.28 5.68 7.55 7.2 12.59 6.04 34.98 7.64 48.82 5.61Zm-18.71-3.18c-7.94-.63-15.94-1.51-23.57-3.9a24.49 24.49 0 0 1-7.42-3.71c-1.64-1.3-2.68-3.12-4.07-4.64-5-5.06-12.63-5.64-18.9-8.39-.53-4 .54-8.1.83-12.13.68-6.09 1.27-12.21 2-18.3.37-3.05.81-6.09 1.23-9.13.86-4.07.36-8.88 3.15-12.23 9.23-9.59 27.76-11.75 37.39-1.7 4.11 3.94 5.07 9.29 5.36 14.71.86 6.56 1.3 13.39 4.45 19.4a79.26 79.26 0 0 0 17.23 21.51c8.24 7.49 8.08 4.1 7.65 15.84-4 2.09-8.79 2.23-13.23 2.69a108.35 108.35 0 0 1-12.1-.02Z"/><path d="M180.17 79.22c4.06-.19 19.27-2.89 20.78-6.46a1.15 1.15 0 0 0-1.75-1.05 71.44 71.44 0 0 1-18.49 3.88c-11.28.36-23.68-.8-32.91-7.86-2.27-1.84-3.61-4.54-6-6.3-5.13-4-11.62-5.28-17.7-7.14-1.46-.41-2.71-.82-4.06-1.25a1.73 1.73 0 0 0-1.04 3.27c4 1.06 8.08 2.18 12.07 3.4 3.5 1.16 7.09 2.62 9.65 5.38 1.34 1.58 2.28 3.47 3.9 4.81 9.59 8.36 23.3 9.84 35.55 9.32ZM120.16 47.63c5.42-12.23 33.93-11.26 32-19.2-1.39-7.57-4-15.09-8.68-21.27a19.07 19.07 0 0 0-2.7-3 1.16 1.16 0 0 0-1.31-.31c-1 .78.71 2 1 2.71a57.21 57.21 0 0 1 8.83 22.66c-2.85 2-6.41 2.28-9.64 3.39-6.63 2-13.6 4.16-18.7 9-1.28 1.23-4.64 5-2.3 6.44a1.3 1.3 0 0 0 1.5-.42Z"/><path d="M150.89 69.85c.35-6.43-3-13.79-7.79-18-6.12-5-15.48-6.37-22.51-2.62-2 1.16-1.62 2.59.67 1.5 8.61-3 19.87-.45 24 8.29a31.27 31.27 0 0 1 3.11 10.11 1.31 1.31 0 0 0 2.52.72ZM161.14 74.58c3.52-10.26 20.1-11.65 29.29-10.56a6.57 6.57 0 0 1 1.81.44.8.8 0 0 0 .85-.21c.83-1.2-1.08-1.58-1.9-1.79-10.19-1.87-28.06-.67-32.19 10.75-.71 1.51 1.15 2.89 2.14 1.37Z"/><path d="M168.64 62.52c5.1-1.83 10.39-3.65 15.81-3.45a1 1 0 0 0 .31-2 8.51 8.51 0 0 0-3.13-.15c-5.55.38-10.5 2.88-15.72 4.18-.35-1.6-.3-3.46 1.29-4.34 4-2.64 8.65-3.67 13.3-4.24 1.92.68 1.64-2.53-.14-1.52-5.47.2-11.79 1.12-15.75 5.23-1.24 1.61-1 3.87-.35 5.67.85 1.65 3.01 1.1 4.38.62ZM159.31 54.37c6-2 11.81-4.6 18.09-5.46 1.29-.5.65-2.14-.63-2-6.22.64-12 3.33-17.86 5.26-.55-1.93-1.55-4.79.22-6.32a25.44 25.44 0 0 1 9.81-2.85 57.53 57.53 0 0 1 6.29-.06c.72-.26.41-1.16-.27-1.25a26.08 26.08 0 0 0-14.29 1.09c-3.34.9-5.14 3.28-4.61 6.78.42 1.93.59 5.33 3.25 4.81ZM156.38 41.88c5-1.17 9.88-2.7 15-3.1h-.12c.9-.07 2.22.14 2.34-1.1 0-2.25-3.45-1-4.85-1a69.75 69.75 0 0 0-9.17 1.91 21.65 21.65 0 0 1-4.47 1c-1.06-5.17 1.38-6.39 5.92-7.45a45.2 45.2 0 0 1 7.85-.92c.84-.22 3.46.45 3.37-.78-.06-.4-.45-.55-.79-.67a14.12 14.12 0 0 0-3.66-.45c-4.89.14-12 0-14.71 4.84a9.55 9.55 0 0 0 0 6.5c.5 1.4 2.11 1.41 3.29 1.22ZM158.07 26.42c4.16-.37 8.29-1.19 12.38-.43a1.09 1.09 0 0 0 .62-2.09 12.46 12.46 0 0 0-3.9-.41c-4.1-.11-7.93.9-11.94.84-1.16-.08-.88-1.57-1.11-2.39-.45-2.76-.92-6.79 2.45-7.82a22.15 22.15 0 0 1 13.38.45.7.7 0 0 0 1.27-.16c.18-.63-.52-1-1-1.23-4.77-1.91-10.57-2.42-15.38-.45-4.24 2.25-3.22 7.84-2.35 11.72.63 2.39 3.62 2.21 5.58 1.97Z"/><g id="Vector_layer_copy_24" data-name="Vector layer copy 24"><g id="Layer_123_copy_3" data-name="Layer 123 copy 3"><path class="cls-1" d="M2.93 83.81a41.37 41.37 0 0 1-1.32-9.06 4.3 4.3 0 0 1 .2-1.75 4.55 4.55 0 0 1 1.83-1.86c7.2-5 14.05-10.74 18.8-18.1 5.09-7.9 7.49-17.2 9.46-26.39 1.74-8.15 3.94-17.41 11.24-21.42A22.54 22.54 0 0 1 50.93 3a37.32 37.32 0 0 1 14.89.55A21.64 21.64 0 0 1 78 11.68c3.5 5.06 4.13 11.5 4.64 17.63q1.53 18.09 3 36.18l-12.29 3.08c-1.93.48-4 1-5.4 2.39-1.28 1.22-1.92 3-2.94 4.39-2.33 3.32-6.4 4.92-10.31 6-7.67 2.14-15.63 3-23.55 3.86-9.68 1.06-19.88 2.03-28.22-1.4Z"/><path class="cls-2" d="M53.75 70.13c-.12-9.32 5.81-18.68 14.62-21.71 5.35-1.84 11.8-1.16 15.92 2.73a1.72 1.72 0 0 1 .7 1.28c0 .68-.76 1.08-1.39 1.35-3.11 1.34-6.22 2.68-9.44 3.71-3.54 1.13-7.33 2-10.17 4.35-1.82 1.53-3.11 3.6-4.85 5.23a13.9 13.9 0 0 1-5.39 3.06ZM64.62 4.24A32.68 32.68 0 0 0 53 30.91c5.8-.16 11.32 2.31 16.59 4.74 5.87 2.7 12.2 5.83 15 11.67L80 15.07c-.24-1.74-.53-3.58-1.67-4.9a9.12 9.12 0 0 0-2.43-1.81 27.06 27.06 0 0 0-11.28-4.12ZM34.7 13.26c2.8-.46 5.62-.8 8.44-1a6.9 6.9 0 0 1 3.2.26 5.28 5.28 0 0 1 1.66 1.1c2.86 2.71 4.21 7.25 2.4 10.75a1.92 1.92 0 0 1-.89 1 2.17 2.17 0 0 1-1 .08l-11.12-.67a15.74 15.74 0 0 0-5.93.4 54.24 54.24 0 0 1 1.25-8.59c.47-2.04 1.17-4.21 1.99-3.33ZM31.9 30.77a30.92 30.92 0 0 1 13 .78 7.37 7.37 0 0 1 4.1 2.34c1.36 1.83 1 4.38.5 6.61-1.5-.6-3.19-.43-4.8-.58-2.54-.24-4.92-1.28-7.38-2s-5.18-1-7.48.06c.4-3.15 1.3-6.24 2.06-7.21ZM28.13 43a11.23 11.23 0 0 1 7.61-1.15 29.81 29.81 0 0 1 7.4 2.57c1.6.73 3.41 1.75 3.64 3.5a4.93 4.93 0 0 1-.34 2.17 35.65 35.65 0 0 1-1.84 4.54c-1.14-2-3.49-3-5.7-3.71a66.74 66.74 0 0 0-14.73-3c1.57-2.6 3.15-5.21 3.96-4.92ZM23.18 51.44a29.82 29.82 0 0 1 13.3 4.16 6.5 6.5 0 0 1 1.79 1.4 3.9 3.9 0 0 1 .49 4.12 1.43 1.43 0 0 1-.87.85 1.76 1.76 0 0 1-.82 0c-5.94-1.35-11.63-4.84-17.67-4-.69.09-1.51.19-1.95-.35a30.92 30.92 0 0 0 3.39-4 11.6 11.6 0 0 1 2.34-2.18ZM13.64 62.32a3.91 3.91 0 0 0 2.91.33c3.93-.48 7.89.28 11.77 1a31.72 31.72 0 0 1 6.24 1.66 16 16 0 0 1 8.72 9.16C35.54 77.43 27 77.25 18.75 77c-5.22-.14-10.7-.35-15.19-3-1.3-.76-2.56-2-2.48-3.5s1.39-2.36 2.58-3.09a74.91 74.91 0 0 1 9.98-5.09Z"/></g><path d="M10.79 87.57C7.3 86.81 1.48 86.43.47 82.3A31.62 31.62 0 0 1 0 74.77a7.45 7.45 0 0 1 2.61-6c7.47-6.38 14.92-13.1 20.42-21.29a30.45 30.45 0 0 0 5.3-11.66c1.21-6.61 1.13-13.4 2.82-19.93 6.48-19.35 34.16-20.1 47.23-7.24 2.4 2.11 3.37 5.16 3.77 8.23 1.12 5.91 2 11.88 2.72 17.86S86.16 47 86.78 53.08c.06 3.88 2.58 11.62-1.37 14C79.32 69.64 72 70 67.16 74.73c-2 2.93-4.28 5.68-7.55 7.2C47 88 24.63 89.6 10.79 87.57Zm18.71-3.18c7.94-.63 15.94-1.51 23.57-3.9a24.49 24.49 0 0 0 7.42-3.71c1.64-1.3 2.68-3.12 4.07-4.64 5-5.06 12.63-5.64 18.9-8.39.53-4-.54-8.1-.83-12.13-.68-6.09-1.27-12.21-2-18.3-.37-3.05-.81-6.09-1.23-9.13-.86-4.07-.36-8.88-3.15-12.23C67 2.37 48.5.21 38.87 10.26 34.76 14.2 33.8 19.55 33.51 25c-.86 6.56-1.3 13.39-4.45 19.4a79.26 79.26 0 0 1-17.23 21.48C3.59 73.37 3.75 70 4.18 81.72 8.2 83.81 13 84 17.41 84.41a108.35 108.35 0 0 0 12.09-.02Z"/><path d="M23 79.22C19 79 3.76 76.33 2.25 72.76A1.15 1.15 0 0 1 4 71.71a71.44 71.44 0 0 0 18.49 3.88c11.28.36 23.68-.8 32.91-7.86 2.27-1.84 3.61-4.54 6-6.3 5.13-4 11.62-5.28 17.7-7.14 1.46-.41 2.71-.82 4.06-1.25a1.73 1.73 0 0 1 1.07 3.27c-4 1.06-8.08 2.18-12.07 3.4-3.5 1.16-7.09 2.62-9.65 5.38-1.34 1.58-2.28 3.47-3.9 4.81C49 78.26 35.28 79.74 23 79.22ZM83 47.63c-5.42-12.23-33.93-11.26-32-19.2 1.39-7.57 4-15.09 8.68-21.27a19.07 19.07 0 0 1 2.7-3 1.16 1.16 0 0 1 1.31-.31c1 .78-.71 2-1 2.71a57.21 57.21 0 0 0-8.79 22.62c2.85 2 6.41 2.28 9.64 3.39 6.63 2 13.6 4.16 18.7 9 1.28 1.23 4.64 5 2.3 6.44a1.3 1.3 0 0 1-1.54-.38Z"/><path d="M52.3 69.85c-.35-6.43 3-13.79 7.79-18 6.12-5 15.48-6.37 22.51-2.62 2 1.16 1.62 2.59-.67 1.5-8.61-3-19.87-.45-24 8.29a31.27 31.27 0 0 0-3.11 10.11 1.31 1.31 0 0 1-2.52.72ZM42.05 74.58C38.53 64.32 22 62.93 12.76 64a6.57 6.57 0 0 0-1.81.44.8.8 0 0 1-.85-.21c-.83-1.2 1.08-1.58 1.9-1.79 10.23-1.87 28.06-.67 32.18 10.75.72 1.53-1.18 2.91-2.13 1.39Z"/><path d="M34.55 62.52c-5.1-1.83-10.39-3.65-15.81-3.45a1 1 0 0 1-.31-2 8.51 8.51 0 0 1 3.13-.07c5.55.38 10.5 2.88 15.72 4.18.35-1.6.3-3.46-1.29-4.34-4-2.64-8.65-3.67-13.3-4.24-1.92.68-1.64-2.53.14-1.52 5.47.2 11.79 1.12 15.75 5.23 1.24 1.61 1 3.87.35 5.67-.85 1.57-3.01 1.02-4.38.54ZM43.88 54.37c-6-2-11.81-4.6-18.09-5.46-1.29-.5-.65-2.14.63-2 6.22.64 12 3.33 17.86 5.26.55-1.93 1.55-4.79-.22-6.32A25.44 25.44 0 0 0 34.25 43a57.53 57.53 0 0 0-6.25-.07c-.72-.26-.41-1.16.27-1.25a26.08 26.08 0 0 1 14.29 1.09c3.34.9 5.14 3.28 4.61 6.78-.45 1.94-.63 5.34-3.29 4.82ZM46.82 41.88c-5-1.17-9.88-2.7-15-3.1h.12c-.9-.07-2.22.14-2.34-1.1 0-2.25 3.45-1 4.85-1a69.75 69.75 0 0 1 9.17 1.91 21.65 21.65 0 0 0 4.47 1c1.06-5.17-1.38-6.39-5.92-7.45a45.2 45.2 0 0 0-7.85-.92c-.84-.22-3.46.45-3.37-.78.06-.4.45-.55.79-.67a14.12 14.12 0 0 1 3.66-.45c4.89.14 12 0 14.71 4.84a9.55 9.55 0 0 1 0 6.5c-.5 1.4-2.11 1.41-3.29 1.22ZM45.12 26.42c-4.12-.37-8.29-1.19-12.38-.42a1.09 1.09 0 0 1-.62-2.09 12.46 12.46 0 0 1 3.9-.41c4.1-.11 7.93.9 11.94.84 1.16-.08.88-1.57 1.11-2.39.45-2.76.92-6.79-2.45-7.82a22.15 22.15 0 0 0-13.38.45.7.7 0 0 1-1.24-.17c-.18-.63.52-1 1-1.23 4.77-1.91 10.57-2.42 15.38-.45 4.24 2.25 3.22 7.84 2.35 11.72-.65 2.39-3.65 2.21-5.61 1.97Z"/></g></g></g></g></svg>