<svg xmlns="http://www.w3.org/2000/svg" viewBox="0 0 190.96 76.3"><defs><style>.cls-1{fill:#141414}.cls-2{fill:#525252}</style></defs><g id="Layer_2" data-name="Layer 2"><g id="Layer_1-2" data-name="Layer 1"><g id="Layer_156" data-name="Layer 156"><path class="cls-1" d="M25.11 35.36a44.05 44.05 0 0 0 5.48-20.93 14 14 0 0 1 .3-3.66 9.17 9.17 0 0 1 2.77-4.08A18.68 18.68 0 0 1 41 2.49a10.32 10.32 0 0 1 5.25-.37C50 3 52.34 6.6 54.13 10s3.72 7.1 7.25 8.59a15.61 15.61 0 0 0 4.8.93l5.72.48a4.66 4.66 0 0 1 2.88.93 4.57 4.57 0 0 1 1.06 2.25 224 224 0 0 1 4.84 24.46 8.47 8.47 0 0 1 0 3.65A8.16 8.16 0 0 1 78 54.76 73.92 73.92 0 0 1 46.23 71.4C34.11 74.31 21.48 74.1 9 73.67A7.9 7.9 0 0 1 5.47 73c-2.54-1.4-2.77-4.89-2.68-7.79.1-3.11.23-6.36 1.7-9.1 1.27-2.36 3.4-4.11 5.39-5.91 4.87-4.35 11.28-7.69 15.23-14.84Z"/><path class="cls-2" d="M1.87 65.18c8.37.74 16.78.67 25.18.6 2.76 0 5.52 0 8.27-.31 6.93-.68 13.61-2.9 20.09-5.43 4.42-1.72 8.85-3.63 12.48-6.69 4.32-3.64 7.28-8.74 11.8-12.13A60.14 60.14 0 0 0 80.8 53c-5.1 2.67-9.13 7-13.89 10.21-6.11 4.15-13.26 6.42-20.3 8.63a83.79 83.79 0 0 1-13.88 3.56c-9.18 1.25-18.48-.55-27.57-2.34a3.09 3.09 0 0 1-1.39-.52A2.79 2.79 0 0 1 3 71c-.5-1.87-.61-3.85-1.13-5.82Z"/><path class="cls-2" d="M3.91 55.85a111 111 0 0 1 18.5.73 21.15 21.15 0 0 1 7.41 1.93 8.23 8.23 0 0 1 4.54 5.85c-2.57-.17-5.1.56-7.62 1.1C20.86 66.7 14.81 66.84 8.8 67a33.39 33.39 0 0 1-4.9-.13C2.46 66.66.76 66 .52 64.59a3.49 3.49 0 0 1 .33-1.84c1.07-2.75 2.73-5.2 3.06-6.9ZM16.28 46.47a161 161 0 0 0 11.81-17.91c5.43-.62 10.9-1.25 16.35-.83s11 1.93 15.32 5.21a1.26 1.26 0 0 1 .52.6 1.33 1.33 0 0 1-.06.71 44 44 0 0 1-8.47 16c-1.22-1.18-3.14-1.07-4.83-1.12a44.88 44.88 0 0 1-6.2-.86 79.69 79.69 0 0 0-23.23-.55c-.58.07-1.32.06-1.55-.48-.4-.98 1.25-1.41.34-.77Z"/><g id="Vector_layer" data-name="Vector layer"><path d="M15 76.27c-3.68-.35-10.38.45-12.75-2.71C-1.28 68-.51 59.9 3.59 54.81c3.59-4.21 8.54-6.49 12.34-10.28 5.6-5.81 10.47-12.93 12.43-20.78 1.76-9.8-2.25-16.54 9-22.24 11.18-5.17 17.87 3.83 20.17 13.82C58.57 17.9 67 18 69.62 18.4c1.53.08 3.06.26 4.59.27a2.64 2.64 0 0 1 2.6 1.81c2.34 7.63 3.13 15.7 5 23.47.3 2.93 1.92 6.11.76 9-2.65 4.06-6.86 6.93-10.76 9.72a87.28 87.28 0 0 1-19.16 9.93 28.52 28.52 0 0 1-9.7 2.13A186.47 186.47 0 0 1 15 76.27Zm-1.69-4.48a153.32 153.32 0 0 0 34.43-2.5c11.51-3.6 22.89-9.46 31.05-18.47-2.08-9.48-3.12-19.18-5.16-28.66C68 22.05 62 21.7 56.86 19.32c-2.66-1.13-2.6-4.34-3.74-6.62-1.43-3.58-3.09-7.92-7.19-9-5-1.19-10.62 1.87-12.77 6.44-1.36 3.73-.49 7.83-1.32 11.68C30.6 31 25.58 39.5 19.5 46.38 15 51.6 7.09 54 4.84 60.9c-.74 3.39-.92 7 1 10a35.36 35.36 0 0 0 7.43.89Z"/><path d="M50.73 52.26c-11.22-4.26-23.56-4.95-35.31-3.2a1.3 1.3 0 0 1-.49-2.53 65.65 65.65 0 0 1 36.29 2.87c2.7-5 5.7-10 7.78-15.36-8.25-6.65-21.62-5.64-31.45-4a.86.86 0 0 1-.94-.91.9.9 0 0 1 .81-.8 59.93 59.93 0 0 1 6.76-1.24c8.3-.87 17.55-1.12 24.78 3.69 1.13.87 2.72 1.82 2.67 3.43-.77 3.48-2.71 6.64-4.31 9.81-1.11 2.11-2.33 4.12-3.41 6.24-.52 1.29-1.63 2.54-3.18 2Z"/><path d="M18.47 67.37a96.26 96.26 0 0 1-11.68-.7c-1.38-.32-3.62-.23-4.47-1.45-.23-.91.85-1 1.5-.88a151.88 151.88 0 0 0 18 .19c10.42-.73 20.93-1.82 30.88-5a73.66 73.66 0 0 0 21-14.45 39.15 39.15 0 0 0 4.3-4.74 1.58 1.58 0 0 1 2.5 1.71c-.84 1.58-2.3 2.69-3.5 3.95-7 6.95-15 13.16-24.09 16.81-11.15 3.42-23 4.45-34.62 4.58 0-.02.18-.02.18-.02Z"/><path d="M31.59 64.1c-1.14-5.41-8.09-5.1-12.39-6a87.48 87.48 0 0 0-13.9-.89c-.57.16-1.28-.19-1.07-.87.15-.52.89-.68 1.34-.79 6-1 12.11-.28 18.06.53 4.56.45 9.72 2.58 10.63 7.57a1.36 1.36 0 1 1-2.67.45Z"/></g><g id="Layer_156_copy" data-name="Layer 156 copy"><path class="cls-1" d="M165.85 35.36a44.05 44.05 0 0 1-5.48-20.93 14 14 0 0 0-.3-3.66 9.17 9.17 0 0 0-2.77-4.08 18.68 18.68 0 0 0-7.36-4.2 10.32 10.32 0 0 0-5.25-.37C141 3 138.62 6.6 136.83 10s-3.72 7.1-7.25 8.59a15.61 15.61 0 0 1-4.8.93l-5.72.51a4.66 4.66 0 0 0-2.88.93 4.57 4.57 0 0 0-1.06 2.25 224 224 0 0 0-4.84 24.46 8.47 8.47 0 0 0 0 3.65 8.16 8.16 0 0 0 2.72 3.44 73.92 73.92 0 0 0 31.73 16.64c12.12 2.91 24.75 2.7 37.21 2.27a7.9 7.9 0 0 0 3.55-.68c2.54-1.39 2.77-4.88 2.68-7.78-.1-3.11-.23-6.36-1.7-9.1-1.27-2.36-3.4-4.12-5.39-5.91-4.88-4.35-11.28-7.69-15.23-14.84Z"/><path class="cls-2" d="M189.08 65.18c-8.37.74-16.78.67-25.18.6-2.76 0-5.52 0-8.27-.31-6.93-.68-13.61-2.9-20.09-5.43-4.42-1.72-8.85-3.63-12.48-6.69-4.32-3.64-7.28-8.74-11.8-12.13A60.14 60.14 0 0 1 110.15 53c5.1 2.67 9.13 7 13.89 10.21 6.11 4.15 13.26 6.42 20.3 8.63a83.79 83.79 0 0 0 13.88 3.52c9.18 1.25 18.48-.55 27.57-2.34a3.09 3.09 0 0 0 1.39-.52A2.79 2.79 0 0 0 188 71c.45-1.87.57-3.85 1.08-5.82Z"/><path class="cls-2" d="M187.05 55.85a111 111 0 0 0-18.5.73 21.15 21.15 0 0 0-7.41 1.93 8.23 8.23 0 0 0-4.54 5.85c2.57-.17 5.1.56 7.62 1.1 5.88 1.24 11.93 1.38 17.94 1.51a33.39 33.39 0 0 0 4.9-.13c1.44-.18 3.14-.82 3.38-2.25a3.49 3.49 0 0 0-.33-1.84c-1.11-2.75-2.74-5.2-3.06-6.9ZM174.67 46.47a161 161 0 0 1-11.81-17.91c-5.43-.62-10.9-1.25-16.35-.83s-10.95 1.93-15.32 5.21a1.26 1.26 0 0 0-.52.6 1.33 1.33 0 0 0 .06.71 44 44 0 0 0 8.47 16c1.22-1.18 3.14-1.07 4.83-1.12a44.88 44.88 0 0 0 6.2-.86 79.69 79.69 0 0 1 23.23-.55c.58.07 1.32.06 1.55-.48.41-.98-1.25-1.41-.34-.77Z"/><g id="Vector_layer_copy_21" data-name="Vector layer copy 21"><path d="M176 76.27c3.68-.35 10.38.45 12.75-2.71 3.49-5.6 2.72-13.66-1.38-18.75-3.59-4.21-8.54-6.49-12.34-10.28-5.6-5.81-10.47-12.93-12.43-20.78-1.76-9.8 2.25-16.54-9-22.24-11.15-5.17-17.84 3.83-20.14 13.82-1 2.57-9.43 2.69-12.09 3.07-1.53.08-3.06.26-4.59.27a2.64 2.64 0 0 0-2.6 1.81c-2.34 7.63-3.13 15.7-5 23.47-.3 2.93-1.92 6.11-.76 9 2.65 4.06 6.86 6.93 10.76 9.72a87.28 87.28 0 0 0 19.16 9.93 28.52 28.52 0 0 0 9.66 2.1 186.55 186.55 0 0 0 28 1.57Zm1.69-4.48a153.32 153.32 0 0 1-34.43-2.5c-11.51-3.6-22.89-9.46-31-18.47 2.08-9.48 3.12-19.18 5.16-28.66 5.62-.11 11.56-.46 16.73-2.84 2.66-1.13 2.6-4.34 3.74-6.62 1.43-3.58 3.09-7.92 7.19-9 5-1.19 10.62 1.87 12.77 6.44 1.36 3.73.49 7.83 1.32 11.68 1.24 9.21 6.26 17.72 12.34 24.6 4.46 5.22 12.41 7.59 14.66 14.52.74 3.39.92 7-1 10a35.21 35.21 0 0 1-7.49.85Z"/><path d="M140.22 52.26c11.22-4.22 23.56-4.95 35.31-3.2a1.3 1.3 0 0 0 .49-2.53 65.65 65.65 0 0 0-36.29 2.87c-2.7-5-5.7-10-7.78-15.36 8.25-6.65 21.62-5.64 31.45-4a.86.86 0 0 0 .94-.91.9.9 0 0 0-.81-.8 59.93 59.93 0 0 0-6.76-1.24c-8.3-.87-17.55-1.12-24.78 3.69-1.13.87-2.72 1.82-2.67 3.43.77 3.48 2.71 6.64 4.31 9.81 1.11 2.11 2.33 4.12 3.41 6.24.53 1.29 1.64 2.54 3.18 2Z"/><path d="M172.49 67.37a96.26 96.26 0 0 0 11.68-.7c1.38-.32 3.62-.23 4.47-1.45.23-.91-.85-1-1.5-.88a151.88 151.88 0 0 1-18 .19c-10.42-.73-20.93-1.82-30.88-5a73.66 73.66 0 0 1-21-14.45 39.15 39.15 0 0 1-4.26-4.74 1.58 1.58 0 0 0-2.5 1.71c.84 1.58 2.3 2.69 3.48 3.91 7 6.95 15 13.16 24.09 16.81 11.15 3.42 23 4.45 34.62 4.58-.03.02-.2.02-.2.02Z"/><path d="M159.37 64.1c1.14-5.41 8.09-5.1 12.39-6a87.48 87.48 0 0 1 13.9-.89c.57.16 1.28-.19 1.07-.87-.15-.52-.89-.68-1.34-.79-6-1-12.11-.28-18.06.53-4.56.45-9.72 2.58-10.63 7.57a1.36 1.36 0 1 0 2.67.45Z"/></g></g></g></g></g></svg>