<svg xmlns="http://www.w3.org/2000/svg" viewBox="0 0 183.24 77.32"><defs><style>.cls-1{fill:#f0f0f0;}.cls-2{fill:#9c9c9c;}.cls-3{fill:#d6d6d6;}</style></defs><g id="Layer_2" data-name="Layer 2"><g id="Layer_115" data-name="Layer 115"><g id="Layer_117" data-name="Layer 117"><path class="cls-1" d="M33.09,9.06a4.34,4.34,0,0,1,2-3.66,11.27,11.27,0,0,1,4.1-1.48,60.4,60.4,0,0,1,19.11-.84,96,96,0,0,1,9.95,1.8,14,14,0,0,1,5.6,2.17c2.9,2.23,3.66,6.23,4.08,9.87,1.07,9.11,1.4,18.29,1.73,27.45a45.48,45.48,0,0,1-.33,9.48,5.48,5.48,0,0,1-1.2,2.91,5.87,5.87,0,0,1-2,1.21c-3.81,1.64-8.06,2.75-10.91,5.77-1.19,1.26-2.08,2.81-3.37,4a15.24,15.24,0,0,1-6.56,2.94,129.56,129.56,0,0,1-42.1,3.24c-4.15-.31-8.66-1-11.54-4A32.25,32.25,0,0,1,2.9,56.1a16.77,16.77,0,0,1,3.9-7c1.84-1.81,4.23-2.93,6.38-4.36,5.92-3.93,10-10.16,12.81-16.67S33.47,15.12,33.09,9.06Z"/><path class="cls-2" d="M3.42,65.83,18.8,67.32a60,60,0,0,0,7.81.41c2.51-.09,5-.51,7.5-.84,7.73-1,15.7-1.32,23-4.2,2-.82,4.2-2.06,4.79-4.17A7.55,7.55,0,0,1,62.3,57a3.69,3.69,0,0,1,1.59-1.33,52.68,52.68,0,0,1,15.23-5.52L79.34,57a25.9,25.9,0,0,0-15,7.8c-.77.82-1.49,1.69-2.32,2.47A19.2,19.2,0,0,1,53,71.66c-3.32.74-6.73,1-10.09,1.46-4,.59-8,1.57-12.12,1.71-3.22.11-6.43-.32-9.65-.46-5.77-.26-11.91.3-17-2.44a2.45,2.45,0,0,1-.92-.73,2.64,2.64,0,0,1-.29-1.52l0-3.54C2.94,65.46,3.34,64.5,3.42,65.83Z"/><path class="cls-2" d="M30.73,15.5a129.58,129.58,0,0,1,14.86,1.19A42.71,42.71,0,0,1,54,18.52a24.75,24.75,0,0,1,14.19,12.8A72.78,72.78,0,0,1,71.08,40a4.28,4.28,0,0,0,.85,1.72,4.08,4.08,0,0,0,1.4.85,21.55,21.55,0,0,0,4.59,1.33,135.27,135.27,0,0,0-1.61-32.66,8.18,8.18,0,0,0-1.37-3.74c-1.16-1.46-3.1-2-4.91-2.44Q66.43,4.2,62.8,3.4A52.12,52.12,0,0,0,51.71,1.83,57.45,57.45,0,0,0,40.21,3.4a15.16,15.16,0,0,0-4,1.22C32.9,6.37,31.36,10.36,30.73,15.5Z"/><path class="cls-3" d="M59.64,21.81a61.82,61.82,0,0,1-12.35,27c-2.61,3.27-5.64,6.34-9.43,8.11-5.81,2.72-12.58,2-19,1.32C13.9,57.67,8.64,57,4.62,54l9.81-9.9c1.71-1.74,3.44-3.47,5-5.32a79.33,79.33,0,0,0,6.25-8.47c2.69-4.11,5.28-8.64,5.13-13.55a1.42,1.42,0,0,1,.24-1.06,1.33,1.33,0,0,1,.85-.27,56.76,56.76,0,0,1,21.64,2.85A13.33,13.33,0,0,1,59.64,21.81Z"/></g><path d="M13.24,76.62C9.33,76,1.18,75.53.2,70.86c-.61-6.84,0-14.2,3.57-20.24,3.18-4.8,8.58-7.56,12.46-11.76C22.56,32.59,26.4,24.28,28.47,15.7c1.28-4.41.74-10.6,5.76-12.69,12-4.43,25.57-3.56,37.7,0C78.51,5,79.19,7.7,79.72,14.13c1.11,9.21,1.66,18.62,2,27.88-.24,4.37,1.7,15.47-2.64,17.64a45.68,45.68,0,0,0-10.7,4.56A9.73,9.73,0,0,0,65,67.31c-1.81,2.26-4.49,3.63-7.12,4.72C43.82,77.84,28.17,78,13.24,76.62ZM31.63,73c9.4-.29,19-1.78,27.46-6.12,2.23-1.13,3.43-3.33,5.34-4.82,3.72-2.85,8.19-4.55,12.54-6.14.88-4,.27-8.29.29-12.35-.4-11.21-1-22.44-2.5-33.56C74,6,62.42,5.09,58.84,4.53c-7-.66-14.26-.49-21,1.51-1.55.37-3.05,1-3.52,2.68-.89,2.56-1.59,5.18-2.35,7.79-1.27,5.46-2.62,11-5.53,15.82C22.32,40.27,15.19,45.81,8.48,51.39,4.37,56.57,4.24,63.82,4.23,70.15c3,1.62,6.56,1.88,9.91,2.31a143.57,143.57,0,0,0,17.6.55Z"/><path d="M22.18,68.68c-6-.23-12.07-.59-17.72-2.6-.91-.29-2.49-1.32-1.4-2.29a1.37,1.37,0,0,1,1.26,0,55.1,55.1,0,0,0,8.73,1.48,110.23,110.23,0,0,0,15.69.39c9.56-.46,19.48-1.2,28.39-4.93A8,8,0,0,0,61.66,56,8.84,8.84,0,0,1,66,52.59,101.5,101.5,0,0,1,78,48.85a1.45,1.45,0,0,1,.81,2.71,6.09,6.09,0,0,1-1.25.34A63,63,0,0,0,67.21,55a6.82,6.82,0,0,0-3.06,2.18c-1,3.69-4.14,6-7.66,7.11a55.23,55.23,0,0,1-11,2.9h0l.15,0A129.86,129.86,0,0,1,22.18,68.68Z"/><path d="M75,44.07c-10-2.3-3.39-16.62-16.84-22.84-7.87-4.33-16.88-4.91-25.64-4.82a14.17,14.17,0,0,1-2.16,0,.82.82,0,0,1-.24-1.53,2.87,2.87,0,0,1,1.19-.3c12.06-.52,25.88.78,34.53,10.11,3,3.43,3.52,8.12,4.63,12.34.79,3.83,4.11,7,8.14,5.46.27-.11.63-.43.85-.07C79.43,44.05,76.15,44.26,75,44.07Z"/><path d="M27.11,60.4c-4.18-.25-21-.81-22.22-4.81a1.24,1.24,0,0,1,1.55-1.45c2.42,1.8,5.5,2.06,8.4,2.57a77.93,77.93,0,0,0,14.21,1.08c8.35,0,13-4.07,17.59-10.58a80.15,80.15,0,0,0,8-13,56.57,56.57,0,0,0,4.18-12.61c0-.52.58-1.26,1.1-.72.43.74.07,1.7,0,2.51-1.3,9.41-6.12,17.86-11.46,25.54C43.34,56.85,36.64,60.79,27.11,60.4Z"/><path d="M26.07,52.3a38.39,38.39,0,0,1-13.89-4,12.14,12.14,0,0,1-2.84-2.06.79.79,0,1,1,1.45-.63c9.84,5.86,23.67,6.06,34.67,4.06a1,1,0,0,1,.5,1.81c-2.56,1.14-5.56,1-8.33,1.23a70.24,70.24,0,0,1-11.69-.38Z"/><path d="M34.23,45.64c-4-.44-14.51-1.3-15.9-5.54a.59.59,0,0,1,1.14-.2c5.85,4.08,24.08,4.94,30.79,2.66a.93.93,0,0,1,.9,1.5c-2.15,1.8-5.28,1.5-7.92,1.75A61.59,61.59,0,0,1,34.23,45.64Z"/><path d="M35.71,36.82c-4.12-.53-8.88-1.39-11.62-4.8a.77.77,0,0,1-.15-1.09.74.74,0,0,1,1.19.09,14.54,14.54,0,0,0,6.22,3,71.73,71.73,0,0,0,22.79.36c.32-.08.6-.28.92-.34a1,1,0,0,1,1,1.32C55,37,52.64,36.55,51,36.79A91.36,91.36,0,0,1,35.71,36.82Z"/><path d="M50.58,26.1c-4.51-.24-21,.75-22.17-4.45,0-.64.67-.61,1-.14,3.9,2.4,8.91,2,13.33,2.46,5,.11,10.18.57,15.11,0a1.07,1.07,0,0,1,1.39.41C60.24,27.06,52.1,25.84,50.58,26.1Z"/><g id="Layer_117_copy" data-name="Layer 117 copy"><path class="cls-1" d="M150.15,9.06A4.34,4.34,0,0,0,148.1,5.4,11.34,11.34,0,0,0,144,3.92a60.4,60.4,0,0,0-19.11-.84,96,96,0,0,0-10,1.8,14,14,0,0,0-5.6,2.17c-2.91,2.23-3.66,6.23-4.09,9.87-1.06,9.11-1.39,18.29-1.72,27.45a45.48,45.48,0,0,0,.33,9.48,5.48,5.48,0,0,0,1.2,2.91A5.87,5.87,0,0,0,107,58c3.81,1.64,8.06,2.75,10.91,5.77,1.19,1.26,2.08,2.81,3.37,4a15.25,15.25,0,0,0,6.55,2.94A129.64,129.64,0,0,0,170,73.9c4.15-.31,8.65-1,11.54-4a32.1,32.1,0,0,0-1.16-13.84,16.64,16.64,0,0,0-3.89-7c-1.84-1.81-4.23-2.93-6.38-4.36-5.92-3.93-10-10.16-12.81-16.67S149.77,15.12,150.15,9.06Z"/><path class="cls-2" d="M179.81,65.83l-15.37,1.49a60.11,60.11,0,0,1-7.81.41c-2.52-.09-5-.51-7.5-.84-7.73-1-15.71-1.32-23-4.2-2-.82-4.19-2.06-4.78-4.17a7.57,7.57,0,0,0-.46-1.56,3.61,3.61,0,0,0-1.58-1.33,52.75,52.75,0,0,0-15.24-5.52L103.9,57a25.93,25.93,0,0,1,15,7.8c.77.82,1.49,1.69,2.31,2.47a19.28,19.28,0,0,0,9.08,4.35c3.32.74,6.72,1,10.08,1.46,4,.59,8,1.57,12.13,1.71,3.22.11,6.43-.32,9.64-.46,5.78-.26,11.92.3,17-2.44a2.45,2.45,0,0,0,.92-.73,2.64,2.64,0,0,0,.29-1.52l0-3.54C180.3,65.46,179.9,64.5,179.81,65.83Z"/><path class="cls-2" d="M152.51,15.5a129.58,129.58,0,0,0-14.86,1.19,42.71,42.71,0,0,0-8.39,1.83,24.8,24.8,0,0,0-14.2,12.8,74.57,74.57,0,0,0-2.9,8.7,4.28,4.28,0,0,1-.85,1.72,4.08,4.08,0,0,1-1.4.85,21.63,21.63,0,0,1-4.6,1.33,135.27,135.27,0,0,1,1.62-32.66,8.18,8.18,0,0,1,1.37-3.74c1.15-1.46,3.09-2,4.9-2.44q3.61-.88,7.24-1.68a52.12,52.12,0,0,1,11.09-1.57A57.55,57.55,0,0,1,143,3.4,15,15,0,0,1,147,4.62C150.34,6.37,151.87,10.36,152.51,15.5Z"/><path class="cls-3" d="M123.6,21.81a61.82,61.82,0,0,0,12.35,27c2.61,3.27,5.64,6.34,9.42,8.11,5.82,2.72,12.59,2,19,1.32,5-.57,10.26-1.24,14.28-4.27l-9.81-9.9c-1.72-1.74-3.44-3.47-5-5.32a79.33,79.33,0,0,1-6.25-8.47c-2.69-4.11-5.28-8.64-5.13-13.55a1.38,1.38,0,0,0-.25-1.06,1.29,1.29,0,0,0-.85-.27,56.73,56.73,0,0,0-21.63,2.85A13.33,13.33,0,0,0,123.6,21.81Z"/></g><path d="M170,76.62c3.91-.67,12.06-1.09,13-5.76.62-6.84,0-14.2-3.56-20.24-3.18-4.8-8.58-7.56-12.46-11.76-6.33-6.27-10.17-14.58-12.24-23.16C153.49,11.29,154,5.1,149,3,137-1.42,123.43-.55,111.3,3,104.73,5,104,7.7,103.51,14.13c-1.1,9.21-1.65,18.62-2,27.88.24,4.37-1.7,15.47,2.64,17.64a45.86,45.86,0,0,1,10.7,4.56,9.61,9.61,0,0,1,3.33,3.1c1.82,2.26,4.5,3.63,7.13,4.72C139.41,77.84,155.07,78,170,76.62ZM151.6,73c-9.39-.29-19-1.78-27.45-6.12-2.23-1.13-3.43-3.33-5.35-4.82-3.71-2.85-8.18-4.55-12.54-6.14-.87-4-.27-8.29-.28-12.35.4-11.21,1-22.44,2.49-33.56.79-4.06,12.34-4.93,15.92-5.49,7-.66,14.27-.49,21,1.51,1.55.37,3,1,3.51,2.68.9,2.56,1.6,5.18,2.36,7.79,1.26,5.46,2.61,11,5.53,15.82,4.08,7.94,11.22,13.48,17.93,19.06,4.11,5.18,4.23,12.43,4.25,18.76-3,1.62-6.57,1.88-9.91,2.31a143.63,143.63,0,0,1-17.6.55Z"/><path d="M161.06,68.68c6-.23,12.07-.59,17.72-2.6.91-.29,2.49-1.32,1.4-2.29a1.37,1.37,0,0,0-1.26,0,55.1,55.1,0,0,1-8.73,1.48,110.23,110.23,0,0,1-15.69.39c-9.56-.46-19.49-1.2-28.39-4.93A8,8,0,0,1,121.58,56a8.93,8.93,0,0,0-4.38-3.36,101.5,101.5,0,0,0-12-3.74,1.45,1.45,0,0,0-.81,2.71,6.09,6.09,0,0,0,1.25.34A63.25,63.25,0,0,1,116,55a6.88,6.88,0,0,1,3.06,2.18c1,3.69,4.14,6,7.66,7.11a55.32,55.32,0,0,0,11,2.9h0l-.15,0A129.86,129.86,0,0,0,161.06,68.68Z"/><path d="M108.26,44.07c10-2.3,3.4-16.62,16.85-22.84C133,16.9,142,16.32,150.74,16.41a14.21,14.21,0,0,0,2.16,0,.82.82,0,0,0,.25-1.53,2.91,2.91,0,0,0-1.19-.3c-12.06-.52-25.88.78-34.54,10.11-3,3.43-3.51,8.12-4.63,12.34-.78,3.83-4.1,7-8.13,5.46-.28-.11-.63-.43-.85-.07C103.81,44.05,107.09,44.26,108.26,44.07Z"/><path d="M156.13,60.4c4.18-.25,21-.81,22.22-4.81a1.24,1.24,0,0,0-1.55-1.45c-2.43,1.8-5.5,2.06-8.41,2.57a77.75,77.75,0,0,1-14.2,1.08c-8.35,0-13-4.07-17.59-10.58a79.46,79.46,0,0,1-7.95-13,56.06,56.06,0,0,1-4.18-12.61c0-.52-.58-1.26-1.1-.72-.43.74-.07,1.7,0,2.51,1.3,9.41,6.12,17.86,11.46,25.54C139.9,56.85,146.59,60.79,156.13,60.4Z"/><path d="M157.17,52.3a38.45,38.45,0,0,0,13.89-4,12.14,12.14,0,0,0,2.84-2.06.79.79,0,1,0-1.45-.63c-9.84,5.86-23.67,6.06-34.67,4.06a1,1,0,0,0-.5,1.81c2.56,1.14,5.56,1,8.33,1.23a70.09,70.09,0,0,0,11.68-.38Z"/><path d="M149,45.64c4-.44,14.51-1.3,15.9-5.54a.6.6,0,0,0-1.14-.2c-5.86,4.08-24.08,4.94-30.8,2.66a.93.93,0,0,0-.89,1.5c2.15,1.8,5.28,1.5,7.91,1.75A61.73,61.73,0,0,0,149,45.64Z"/><path d="M147.53,36.82c4.12-.53,8.88-1.39,11.62-4.8a.77.77,0,0,0,.14-1.09.73.73,0,0,0-1.18.09,14.6,14.6,0,0,1-6.22,3,71.73,71.73,0,0,1-22.79.36c-.32-.08-.6-.28-.93-.34a1,1,0,0,0-1,1.32c1.07,1.64,3.46,1.19,5.15,1.43A91.36,91.36,0,0,0,147.53,36.82Z"/><path d="M132.65,26.1c4.52-.24,21,.75,22.18-4.45-.05-.64-.67-.61-1-.14-3.9,2.4-8.91,2-13.34,2.46-5,.11-10.17.57-15.1,0a1.08,1.08,0,0,0-1.4.41C123,27.06,131.14,25.84,132.65,26.1Z"/></g></g></svg>