<svg xmlns="http://www.w3.org/2000/svg" viewBox="0 0 161.7 88.25"><defs><style>.cls-1{fill:#fff;}.cls-2{fill:none;stroke:#000;stroke-linecap:round;stroke-linejoin:round;stroke-width:4px;}</style></defs><g id="Layer_2" data-name="Layer 2"><g id="Layer_189_copy" data-name="Layer 189 copy"><path class="cls-1" d="M67.92,7.76c1.13,2.31-.3,5.21-2.47,6.57S60.59,15.87,58,16c-7.3.21-14.81-.24-21.49-3.2-2.86-1.27-5.67-3.15-7-6-.71-1.52-.67-3.77.89-4.38a4,4,0,0,1,3,.57,57.08,57.08,0,0,0,35,4.57"/><path class="cls-1" d="M67.93,40.63A54.07,54.07,0,0,0,37.75,33a8.08,8.08,0,0,0-4.6,1.24c-1.88,1.43-2.25,4.06-2.47,6.41,5.32.89,10.77.3,16.17.42s11.07,1.07,15.23,4.5c1,.78,2,1.73,3.2,1.52s2-1.66,2.08-2.95-.06-2.65.43-3.85"/><path class="cls-1" d="M69.13,58.19a38.44,38.44,0,0,1,.21,11.13c-.19,1.47-.6,3.13-1.9,3.84a2.66,2.66,0,0,1-3.61-3c-2.19,6-7.67,10.25-13.61,12.51S37.85,85.5,31.51,86a72.46,72.46,0,0,1-14.35.17A71,71,0,0,1,6.31,83.68,8.38,8.38,0,0,1,3.6,82.57a5.9,5.9,0,0,1-2.17-5.08A17.75,17.75,0,0,1,2.9,71.94c.53,2.85,2.89,5.08,5.54,6.23a25.43,25.43,0,0,0,8.5,1.55c12.62.77,26,.63,37-5.63,1.29-.73,2.67-1.78,2.73-3.26s-1.27-2.64-2.53-3.44C47.57,63.2,39.58,61.77,31.83,62s-15.36,2-22.92,3.69c.51-3.25,3-5.92,6-7.38a25.82,25.82,0,0,1,9.57-2.14,102.32,102.32,0,0,1,18.44.23c4.16.42,8.39,1.13,12,3.16s6.68,5.59,7.07,9.75l7.21-13"/><g id="Layer_188" data-name="Layer 188"><path class="cls-2" d="M65.58,15a46.68,46.68,0,0,1-35.4-5.7A17.62,17.62,0,0,1,29.34,2,51.37,51.37,0,0,0,68.92,6.5,14.23,14.23,0,0,1,65.58,15Z"/><path class="cls-2" d="M57.16,73.46A8.86,8.86,0,0,0,53.49,67a18.66,18.66,0,0,0-7-3c-12.7-3.13-26-.34-39.53,2a22.85,22.85,0,0,1,7.49-7.26,70.69,70.69,0,0,1,32.27-1.22c3.76.73,7.55,1.83,10.62,4.12a13.21,13.21,0,0,1,5.38,9.91A5.78,5.78,0,0,1,57.16,73.46Z"/><path class="cls-2" d="M6.34,66.18A16,16,0,0,0,3.43,83.7a104.44,104.44,0,0,0,46.7-.3"/><path class="cls-2" d="M66.72,44.4a79.73,79.73,0,0,1,2,26.12A11.8,11.8,0,0,1,65,74.06c-.29-1.14-.59-2.28-1-3.89a39.36,39.36,0,0,1-14,13.43"/><path class="cls-2" d="M67.5,54.62A15.63,15.63,0,0,1,62,67.36"/><path class="cls-2" d="M57.19,72c-7.14,5.29-16.13,7.58-25,8s-17.73-.9-26.37-2.08A17.57,17.57,0,0,1,6,67.74"/><path class="cls-2" d="M40.86,70.92A11.58,11.58,0,0,0,38.5,73a3.93,3.93,0,0,0-.91,3c.27,1.76,2.13,2.91,3.9,3a11.76,11.76,0,0,0,5.11-1.32"/><path class="cls-2" d="M29.66,70.58A10.55,10.55,0,0,0,26.36,75c-.53,1.79.23,4.1,2,4.58"/><path class="cls-2" d="M21.39,69.37a6.32,6.32,0,0,0-2.46,9.68"/><path class="cls-2" d="M13.89,69.25A10.45,10.45,0,0,0,10,72.94c-.83,1.6-.72,3.82.7,4.93"/><path class="cls-2" d="M66.09,46.59l1-5.82a43.87,43.87,0,0,0-34.15-6.34c-.72,2-1.44,4-2.15,6.63A76.48,76.48,0,0,1,66,47.29"/></g><path class="cls-1" d="M93.73,7.77c-1.12,2.3.3,5.21,2.48,6.57s4.86,1.54,7.42,1.62c7.31.21,14.82-.24,21.5-3.2,2.87-1.28,5.67-3.15,7-6,.71-1.52.67-3.77-.89-4.37a4,4,0,0,0-3,.56,57.21,57.21,0,0,1-35,4.58"/><path class="cls-1" d="M93.72,40.66A54.07,54.07,0,0,1,123.93,33a8.1,8.1,0,0,1,4.6,1.24c1.87,1.43,2.25,4.06,2.47,6.41-5.33.89-10.78.31-16.18.43s-11.08,1.07-15.25,4.5c-.94.78-2,1.73-3.19,1.52s-2-1.66-2.09-3a13.6,13.6,0,0,0-.43-3.84"/><path class="cls-1" d="M92.52,58.23a38.44,38.44,0,0,0-.21,11.13c.19,1.47.6,3.13,1.91,3.84a2.65,2.65,0,0,0,3.6-2.94c2.2,6,7.68,10.25,13.62,12.51s12.38,2.78,18.72,3.28a71.9,71.9,0,0,0,14.37.17,72.62,72.62,0,0,0,10.86-2.48,8.9,8.9,0,0,0,2.7-1.11,5.88,5.88,0,0,0,2.17-5.09A17.16,17.16,0,0,0,158.79,72c-.52,2.84-2.88,5.08-5.54,6.23a25.43,25.43,0,0,1-8.5,1.55c-12.63.77-26,.64-37-5.63-1.29-.73-2.67-1.78-2.73-3.26s1.27-2.64,2.53-3.45c6.53-4.18,14.52-5.62,22.27-5.41s15.38,1.95,22.94,3.69c-.51-3.25-3-5.92-6-7.38a25.87,25.87,0,0,0-9.58-2.14,103.37,103.37,0,0,0-18.45.22c-4.16.43-8.39,1.14-12.05,3.16s-6.68,5.6-7.08,9.76l-7.2-13"/><g id="Layer_188_copy" data-name="Layer 188 copy"><path class="cls-2" d="M96.07,15a46.68,46.68,0,0,0,35.42-5.7A17.67,17.67,0,0,0,132.33,2a51.42,51.42,0,0,1-39.6,4.5A14.27,14.27,0,0,0,96.07,15Z"/><path class="cls-2" d="M104.5,73.51a8.85,8.85,0,0,1,3.67-6.46,18.68,18.68,0,0,1,7-3c12.7-3.14,26-.35,39.55,2a23,23,0,0,0-7.49-7.27,70.78,70.78,0,0,0-32.29-1.22c-3.76.74-7.56,1.83-10.63,4.13a13.23,13.23,0,0,0-5.39,9.91A5.79,5.79,0,0,0,104.5,73.51Z"/><path class="cls-2" d="M155.35,66.22a16,16,0,0,1,2.92,17.53,104.62,104.62,0,0,1-46.74-.29"/><path class="cls-2" d="M94.94,44.43a79.83,79.83,0,0,0-2.06,26.14,12,12,0,0,0,3.75,3.54c.3-1.14.6-2.28,1-3.89a39.53,39.53,0,0,0,14,13.44"/><path class="cls-2" d="M94.16,54.66A15.57,15.57,0,0,0,99.71,67.4"/><path class="cls-2" d="M104.47,72c7.14,5.29,16.14,7.58,25,8s17.73-.9,26.39-2.08a17.48,17.48,0,0,0-.21-10.18"/><path class="cls-2" d="M95.57,46.62l-1-5.83a43.94,43.94,0,0,1,34.18-6.34c.72,2,1.43,4,2.15,6.63a76.74,76.74,0,0,0-35.26,6.24"/></g><path class="cls-2" d="M120.16,70.92A11.58,11.58,0,0,1,122.52,73a4,4,0,0,1,.91,3c-.27,1.76-2.13,2.91-3.9,3a11.72,11.72,0,0,1-5.11-1.32"/><path class="cls-2" d="M131.36,70.58a10.63,10.63,0,0,1,3.3,4.42c.53,1.79-.23,4.1-2,4.58"/><path class="cls-2" d="M139.63,69.37a6.31,6.31,0,0,1,2.45,9.68"/><path class="cls-2" d="M147.13,69.25A10.53,10.53,0,0,1,151,72.94c.82,1.6.72,3.82-.7,4.93"/></g></g></svg>