<svg xmlns="http://www.w3.org/2000/svg" viewBox="0 0 173.91 68.17"><defs><style>.cls-1{fill:#faf0c3;}.cls-2{fill:#d6c785;}</style></defs><g id="Layer_2" data-name="Layer 2"><g id="Layer_105" data-name="Layer 105"><g id="Layer_111" data-name="Layer 111"><path class="cls-1" d="M1.43,54.35c-.46-2.61.93-5.23,2.8-7.1s4.19-3.22,6.24-4.9a49.21,49.21,0,0,0,7.12-7.78,91,91,0,0,0,9-12.82c1.79-3.3,3.18-6.82,5.14-10s4.61-6.15,8.1-7.53A23.15,23.15,0,0,1,47.34,3q5.47-.24,10.95-.27a20.42,20.42,0,0,1,6.57.71c3.36,1.12,5.9,3.83,8.26,6.46,1.93,2.17,3.92,4.5,4.47,7.35.47,2.5-.23,5-.62,7.56-1.09,7.07.33,14.27.19,21.42a2.5,2.5,0,0,1-.42,1.62,2.56,2.56,0,0,1-1.1.65C64.35,52.93,55.19,62.26,43.38,65c-5.76,1.34-11.75,1-17.65.67a51.8,51.8,0,0,1-11-1.45c-2.86-.81-5.8-2.13-8.7-1.47a3.19,3.19,0,0,1-1.92.14A2.25,2.25,0,0,1,3,61.52,40.47,40.47,0,0,1,1.43,54.35Z"/><path class="cls-2" d="M3.25,49.45c18.59,2,37.9,2.52,55.44-4C61,44.63,63.56,43.3,64,40.89a1.77,1.77,0,0,1,.35-1,1.38,1.38,0,0,1,.71-.33l12-3.1a28,28,0,0,1,1,11.22c0-.55-.9-.41-1.36-.12a40.89,40.89,0,0,1-8.67,4.15c-2.11.71-4.49,1.42-5.58,3.37-.4.71-.58,1.53-1,2.26-1.34,2.54-4.61,3.15-7.42,3.74-6.48,1.36-12.71,4.09-19.33,4.48-10.08.6-20-4.32-30-2.93a2.15,2.15,0,0,1-1.21,0,1.94,1.94,0,0,1-.83-1.29C1.86,58.19,1.68,54.87,3.25,49.45Z"/></g><path d="M22.18,67.44a93.52,93.52,0,0,1-15.3-1.59c-4.8-1-6.56-2.31-6.65-7.47-.19-4.19-.95-9.15,2-12.58C9.17,40.22,15.82,34.23,21,26.9,25.55,19.17,27.54,9.57,35.3,4.27c11.38-7,27-4.86,37.74,2.48,2.84,1.82,4.12,4.89,4.66,8.09,2.69,10.45,3.14,21.35,2.65,32.06a3.46,3.46,0,0,1-3.09,3.37c-3.76,1.26-7.4,2.47-10.7,4.66-3,2.31-5.21,5.57-8.75,7.2C47.08,68.16,34.07,67.71,22.18,67.44Zm8.91-4.67c9.74,0,20.33-.89,28.13-7.32,4.29-5,10.81-7.32,16.77-9.31a104.84,104.84,0,0,0-2.06-29.53c-.5-2.34-.78-4.91-2.88-6.41C61.65,2.94,45.46.71,35.81,8.53c-3,2.76-4.8,6.39-6.5,10-3.06,6.32-5.64,13-10.56,18.21-4.1,4.74-8.88,8.22-13.59,12.17-1.35,3.59-.29,7.93-.48,11.59C13.25,63.13,22.3,62.66,31.09,62.77Z"/><path d="M15,52A77,77,0,0,1,4.3,50.63c-1-.29-2.95-.57-2.27-2a1.07,1.07,0,0,1,1.7-.21c17.36,2.2,35.71,2,52.41-3.4,10.24-3.81,2-5.94,18.82-9.43A28.48,28.48,0,0,1,78.13,35a1.37,1.37,0,0,1,.42,2.68,10,10,0,0,1-1.07.19c-4.14,1-8.69,1.63-12.27,4A13.49,13.49,0,0,1,59,47.07c-6.22,2.71-12.86,3.78-19.55,4.41A149.13,149.13,0,0,1,15,52Z"/><path d="M31.92,45.13a89.14,89.14,0,0,0-10.81-1c-1-.11-4.54.19-3.07-1.57,1.42-1.3,16.52-1.51,15.81,1.38C33.78,44.93,32.74,45.23,31.92,45.13Z"/><path d="M34.35,39a70.87,70.87,0,0,0-13.72-.78.81.81,0,0,1-.65-.75c-.07-.78,1-1.06,1.54-1.21a34.7,34.7,0,0,1,13.2.39A1.19,1.19,0,0,1,34.35,39Z"/><path d="M36.17,33.62c-2.71-.2-5.48-.48-8.16-.55-1.44-.11-3,.21-4.37-.19-2.33-2.51,5.27-2.43,6.49-2.38,2.76.19,5.68.14,8.32,1a1.16,1.16,0,0,1-.34,2.16A7,7,0,0,1,36.17,33.62Z"/><path d="M38.28,26.46a58.57,58.57,0,0,0-9.45-.33A2.15,2.15,0,0,1,27.6,26c-1.33-1.59,2.16-2.17,3.2-2.28a28.11,28.11,0,0,1,9.6.48A1.26,1.26,0,0,1,40,26.49,7.4,7.4,0,0,1,38.28,26.46Z"/><path d="M41.07,20a35.72,35.72,0,0,0-8.38-.3c-.72,0-1.88.42-2.11-.53.15-1.91,4.26-2,5.72-2a19,19,0,0,1,6.36,1,1,1,0,0,1-.41,1.84A4.68,4.68,0,0,1,41.07,20Z"/><g id="Layer_111_copy" data-name="Layer 111 copy"><path class="cls-1" d="M172.48,54.94c.47-2.6-.93-5.22-2.8-7.1s-4.19-3.22-6.23-4.89a49.23,49.23,0,0,1-7.13-7.78,91.09,91.09,0,0,1-9-12.83c-1.79-3.29-3.18-6.81-5.14-10s-4.61-6.16-8.1-7.54a23.14,23.14,0,0,0-7.5-1.2q-5.47-.24-10.95-.27a20.14,20.14,0,0,0-6.57.7c-3.36,1.12-5.9,3.83-8.25,6.47-1.94,2.16-3.93,4.49-4.48,7.34-.47,2.5.23,5.05.62,7.56,1.09,7.07-.33,14.27-.19,21.42a2.52,2.52,0,0,0,.42,1.63,2.66,2.66,0,0,0,1.1.65c11.29,4.44,20.45,13.76,32.26,16.51,5.76,1.33,11.75,1,17.65.66a51.16,51.16,0,0,0,11-1.44c2.87-.81,5.8-2.14,8.71-1.47a3.18,3.18,0,0,0,1.92.13,2.27,2.27,0,0,0,1.08-1.37A40.08,40.08,0,0,0,172.48,54.94Z"/><path class="cls-2" d="M170.66,50.05c-18.59,2-37.9,2.51-55.44-4-2.31-.85-4.87-2.17-5.34-4.59a1.79,1.79,0,0,0-.34-1,1.54,1.54,0,0,0-.72-.33l-12-3.1a28.06,28.06,0,0,0-1,11.23c0-.56.9-.42,1.36-.12a41.08,41.08,0,0,0,8.67,4.14c2.11.72,4.5,1.43,5.58,3.37.4.72.58,1.54,1,2.26,1.34,2.54,4.61,3.15,7.42,3.74,6.49,1.36,12.71,4.1,19.33,4.49,10.08.59,20-4.33,30-2.93a2.07,2.07,0,0,0,1.21-.06,1.94,1.94,0,0,0,.83-1.28C172.05,58.79,172.23,55.46,170.66,50.05Z"/></g><path d="M151.73,68A93.52,93.52,0,0,0,167,66.45c4.8-1.06,6.57-2.31,6.65-7.47.19-4.19.95-9.15-2-12.59-6.93-5.58-13.58-11.57-18.74-18.89-4.57-7.73-6.56-17.33-14.32-22.63-11.37-7-27-4.87-37.74,2.48-2.84,1.82-4.11,4.88-4.66,8.09-2.69,10.44-3.14,21.34-2.65,32.05a3.49,3.49,0,0,0,3.09,3.38c3.76,1.26,7.4,2.47,10.7,4.65,3,2.32,5.21,5.58,8.75,7.21C126.83,68.76,139.84,68.3,151.73,68Zm-8.91-4.68c-9.74,0-20.33-.88-28.13-7.31-4.29-5-10.81-7.32-16.77-9.31A105.29,105.29,0,0,1,100,17.2c.5-2.33.78-4.91,2.88-6.41,9.4-7.25,25.59-9.49,35.24-1.66,3,2.75,4.8,6.39,6.5,10,3.06,6.33,5.64,13,10.56,18.22,4.1,4.73,8.89,8.22,13.59,12.17,1.35,3.59.29,7.92.48,11.58C160.66,63.73,151.61,63.26,142.82,63.36Z"/><path d="M158.9,52.56a77,77,0,0,0,10.71-1.34c1-.29,2.95-.57,2.27-2a1.07,1.07,0,0,0-1.7-.22c-17.35,2.2-35.7,2-52.4-3.4-10.25-3.8-2.06-5.94-18.83-9.42a28.52,28.52,0,0,0-3.17-.59,1.38,1.38,0,0,0-.42,2.69c.35.09.72.12,1.07.19,4.14,1,8.69,1.63,12.27,4a13.51,13.51,0,0,0,6.19,5.24c6.22,2.71,12.86,3.77,19.55,4.41A149.12,149.12,0,0,0,158.9,52.56Z"/><path d="M142,45.72a91.19,91.19,0,0,1,10.81-1c1-.1,4.55.19,3.07-1.56-1.42-1.31-16.52-1.51-15.81,1.37C140.14,45.52,141.17,45.83,142,45.72Z"/><path d="M139.56,39.61a70.87,70.87,0,0,1,13.72-.78.82.82,0,0,0,.65-.75c.07-.79-1-1.07-1.54-1.21a34.31,34.31,0,0,0-13.2.39,1.19,1.19,0,0,0,.37,2.35Z"/><path d="M137.74,34.22c2.71-.2,5.48-.48,8.16-.56,1.44-.11,3,.21,4.37-.18,2.33-2.51-5.26-2.43-6.49-2.38-2.76.19-5.68.14-8.32,1a1.16,1.16,0,0,0,.34,2.16A7.42,7.42,0,0,0,137.74,34.22Z"/><path d="M135.64,27.05a60.78,60.78,0,0,1,9.44-.33,2.18,2.18,0,0,0,1.24-.17c1.32-1.59-2.17-2.17-3.2-2.29a27.91,27.91,0,0,0-9.61.49,1.25,1.25,0,0,0,.36,2.33A6.57,6.57,0,0,0,135.64,27.05Z"/><path d="M132.84,20.58a36.28,36.28,0,0,1,8.38-.3c.72,0,1.88.42,2.11-.52-.15-1.91-4.26-2-5.72-2a19,19,0,0,0-6.36,1,1,1,0,0,0,.41,1.83A4.68,4.68,0,0,0,132.84,20.58Z"/></g></g></svg>