<svg xmlns="http://www.w3.org/2000/svg" viewBox="0 0 161.63 72"><defs><style>.cls-1{fill:#e6e6e6;}.cls-2{fill:#9e9e9e;}</style></defs><g id="Layer_2" data-name="Layer 2"><g id="Layer_79_copy" data-name="Layer 79 copy"><g id="Layer_88" data-name="Layer 88"><path class="cls-1" d="M21.14,31.75c.22-5.19.46-10.46,2-15.41s4.65-9.66,9.29-12a20.76,20.76,0,0,1,11.1-1.84c8.7.67,17.34,5.19,21.63,12.76,4.61,8.13,3.69,18.17,6,27.21.73,2.83,1.73,6,.13,8.48a9.28,9.28,0,0,1-2.93,2.52L50.21,65.14a27.77,27.77,0,0,1-6.61,3.45,25.58,25.58,0,0,1-8.6.72A149.69,149.69,0,0,1,2.6,64.39c-.45-3-.83-6.24.2-9.15.94-2.67,3-4.79,4.93-6.83C12.3,43.68,20.77,40.1,21.14,31.75Z"/><path class="cls-2" d="M20,35a41.85,41.85,0,0,0,13.59,5.33c1.9.39,4.08.57,5.57-.66A7,7,0,0,0,41,36.18,215,215,0,0,0,48.43,2.91a47.49,47.49,0,0,0-10.16-.66,15.75,15.75,0,0,0-9.33,3.64c-3.29,3-4.59,7.54-5.49,11.89C22.19,23.9,21.42,30.13,20,35Z"/><path class="cls-2" d="M3.72,54c11.45,2.36,23,4.73,34.72,4.32a24.86,24.86,0,0,0,9-1.64,32,32,0,0,0,5.82-3.63c6.07-4.37,12.55-8.57,16.66-14.8a34.28,34.28,0,0,0,.73,6.59c.29,2.19.27,4.56-.91,6.44a11.9,11.9,0,0,1-3.09,2.95L53.06,64.37c-2.25,1.67-4.56,3.38-7.27,4.11a22.27,22.27,0,0,1-5.71.53c-9.89.07-19.87.14-29.54-1.91a14.08,14.08,0,0,1-5.91-2.34C1.35,62.18.82,56.78,3.72,54Z"/></g><path d="M31.32,72a135.51,135.51,0,0,1-17.18-1.52c-3.8-.62-7.71-1.27-11.16-3C.4,66.31.05,63.46.06,61s-.36-4.89.61-7.09c5.7-6.2,11.68-12.28,17.09-18.76a3.47,3.47,0,0,0,.93-2.65c.13-1.9.39-3.79.62-5.68.83-5.54,1.25-11.26,3.25-16.54C26.08,2.76,34.67-.7,42.54.12c9.67,1,25.21,7.83,26.9,18.46C71.06,29,73.63,39.41,73.49,50c.11,2.93-3.24,4.35-5,5.95-4.39,3.35-8.84,6.62-13.44,9.67-2.95,1.89-5.81,4-9.06,5.38C41.18,72,36.19,71.91,31.32,72Zm1.27-4.13c2.91,0,5.84-.23,8.77-.35,1.55,0,3.15,0,4.47-1A243.24,243.24,0,0,0,69.54,50c.17-6.5-1.19-12.94-2.09-19.33-.42-2.68-.82-5.36-1.24-8-.45-2.3-.44-4.8-1.66-6.87C59,7.54,45.05,2,35.38,4.33a15.19,15.19,0,0,0-9,6.49c-1.26,2.23-1.56,4.82-2.11,7.29-.23,3.35-.6,6.68-1,10-.38,2.43-.25,5-1.16,7.33-1.4,2.46-3.53,4.41-5.38,6.52A158.21,158.21,0,0,1,3.93,55.18a9.48,9.48,0,0,0-.08,1.65v-.06c0,2.3.3,4.62.15,6.91,4,2.21,9.22,2.53,13.5,3.21a124.23,124.23,0,0,0,15.17,1Z"/><path d="M34.36,41.5C29.44,41.08,22.3,39.74,19,35.87a1.51,1.51,0,0,1,2.25-2c4.24,3.64,11.8,4.91,17.19,4.71C41.23,28.24,43.84,17.85,46,7.33c.26-1.35.47-2.72.63-4.08a2,2,0,0,1,.48-1.31C49.22.77,49.05,4.3,48.93,5.53a174.43,174.43,0,0,1-7.85,33.93C40.31,42.33,36.63,41.42,34.36,41.5Z"/><path d="M34.09,59.89a149.89,149.89,0,0,1-29.53-4.4c-.75-.26-1.7-.36-2.21-1a.78.78,0,0,1,.39-1.15,40.45,40.45,0,0,1,5.75.76c10.91,2,22.09,3.6,33.17,3.4,5.43-1.08,9.93-4.83,14.3-7.9,4.51-3.67,9.28-7.37,12.46-12.29a1.33,1.33,0,0,1,2.32-.13c.43.8-.09,1.56-.54,2.22C65.94,45.34,60,49.92,54,54,47,58.67,42.56,60.7,34.09,59.89Z"/><g id="Layer_88_copy" data-name="Layer 88 copy"><path class="cls-1" d="M140.93,31.75c-.23-5.19-.46-10.46-2-15.41s-4.56-9.66-9.1-12A20,20,0,0,0,119,2.45c-8.52.67-17,5.19-21.19,12.76-4.52,8.13-3.61,18.17-5.9,27.21-.72,2.83-1.7,6-.14,8.48a9.28,9.28,0,0,0,2.87,2.52l17.86,11.72a26.87,26.87,0,0,0,6.47,3.45,24.61,24.61,0,0,0,8.43.72,144,144,0,0,0,31.74-4.92c.44-3,.81-6.24-.2-9.15-.92-2.67-2.91-4.79-4.83-6.83C149.58,43.68,141.28,40.1,140.93,31.75Z"/><path class="cls-2" d="M142.07,35a40.56,40.56,0,0,1-13.31,5.33c-1.86.39-4,.57-5.46-.66a7,7,0,0,1-1.83-3.47,218.09,218.09,0,0,1-7.28-33.27,45.56,45.56,0,0,1,10-.66,15.23,15.23,0,0,1,9.14,3.64c3.23,3,4.5,7.54,5.38,11.89C139.9,23.9,140.65,30.13,142.07,35Z"/><path class="cls-2" d="M158,54c-11.22,2.36-22.57,4.73-34,4.32a23.91,23.91,0,0,1-8.84-1.64,31.06,31.06,0,0,1-5.7-3.63c-5.94-4.37-12.29-8.57-16.32-14.8a35.91,35.91,0,0,1-.71,6.59,9.8,9.8,0,0,0,.89,6.44,11.77,11.77,0,0,0,3,2.95l13.34,10.14c2.2,1.67,4.47,3.38,7.11,4.11a21.47,21.47,0,0,0,5.6.53c9.69.07,19.46.14,28.94-1.91a13.55,13.55,0,0,0,5.78-2.34C160.31,62.18,160.83,56.78,158,54Z"/></g><path d="M131,72a130.26,130.26,0,0,0,16.83-1.52c3.72-.62,7.55-1.27,10.93-3,2.53-1.12,2.88-4,2.87-6.46s.35-4.89-.61-7.09c-5.57-6.2-11.43-12.28-16.74-18.76a3.54,3.54,0,0,1-.91-2.65c-.13-1.9-.38-3.79-.61-5.68-.8-5.54-1.22-11.26-3.18-16.54C136.08,2.76,127.67-.7,120,.12c-9.48,1-24.7,7.83-26.35,18.46C92,29,89.5,39.41,89.64,50c-.11,2.93,3.18,4.35,4.94,5.95,4.3,3.35,8.66,6.62,13.17,9.67,2.89,1.89,5.68,4,8.87,5.38C121.29,72,126.18,71.91,131,72Zm-1.24-4.13c-2.86,0-5.73-.23-8.59-.35-1.52,0-3.09,0-4.38-1A239.13,239.13,0,0,1,93.51,50c-.17-6.5,1.16-12.94,2-19.33.41-2.68.8-5.36,1.21-8,.45-2.3.44-4.8,1.63-6.87C103.85,7.54,117.5,2,127,4.33a14.89,14.89,0,0,1,8.85,6.49c1.23,2.23,1.53,4.82,2.07,7.29.22,3.35.59,6.68.94,10,.37,2.43.24,5,1.13,7.33,1.38,2.46,3.46,4.41,5.28,6.52a155.07,155.07,0,0,0,12.54,13.21,9.48,9.48,0,0,1,.08,1.65v-.06c0,2.3-.29,4.62-.15,6.91-3.94,2.21-9,2.53-13.22,3.21a119.11,119.11,0,0,1-14.86,1Z"/><path d="M128,41.5c4.82-.42,11.82-1.76,15.05-5.63a1.49,1.49,0,0,0-2.2-2c-4.16,3.64-11.56,4.91-16.84,4.71-2.73-10.38-5.3-20.77-7.4-31.29-.25-1.35-.46-2.72-.62-4.08a1.94,1.94,0,0,0-.47-1.31c-2.07-1.17-1.9,2.36-1.79,3.59a177.8,177.8,0,0,0,7.69,33.93C122.15,42.33,125.75,41.42,128,41.5Z"/><path d="M128.24,59.89a144.22,144.22,0,0,0,28.93-4.4c.73-.26,1.66-.36,2.16-1a.78.78,0,0,0-.38-1.15,38.82,38.82,0,0,0-5.63.76c-10.7,2-21.65,3.6-32.5,3.4-5.31-1.08-9.73-4.83-14-7.9-4.41-3.67-9.08-7.37-12.2-12.29a1.29,1.29,0,0,0-2.27-.13c-.43.8.08,1.56.52,2.22,4.17,6,10,10.53,15.89,14.61C115.57,58.67,120,60.7,128.24,59.89Z"/></g></g></svg>