<svg xmlns="http://www.w3.org/2000/svg" viewBox="0 0 171.5 85.5"><defs><style>.cls-1{fill:#919191;}.cls-2{fill:#595959;}.cls-3{fill:#fff;}</style></defs><g id="Layer_2" data-name="Layer 2"><g id="Layer_74" data-name="Layer 74"><path class="cls-1" d="M29.35,36.16C33,28.47,36.69,20.7,38.66,12.41c.81-3.38,1.57-7.23,4.48-9.13a11.48,11.48,0,0,1,5.42-1.45,19.9,19.9,0,0,1,7.88.55A15,15,0,0,1,64,8.64,35.46,35.46,0,0,1,68,17.84C71.52,29.66,73.14,42,75.27,54.12a16.64,16.64,0,0,0,2.25,6.78C75.18,62,73.6,64.16,72,66.13a42.44,42.44,0,0,1-8.57,7.76A9.87,9.87,0,0,1,60,75.55a15.91,15.91,0,0,1-3.72.14c-4.59,0-9,1.62-13.45,2.77-7.17,1.84-14.6,2.4-22,2.91A41,41,0,0,1,10,81.16c-2.91-.57-5.94-2-7.09-4.75-.8-1.9-.55-4-.29-6.09a6.61,6.61,0,0,1,.74-2.67,7,7,0,0,1,2.53-2.07C17.41,58.69,24.33,46.72,29.35,36.16Z"/><path class="cls-2" d="M2.64,67.36c2.76,1.47,6,1.55,9.14,1.17s6.15-1.18,9.27-1.35c2.8-.15,5.61.22,8.41.33,8.91.35,17.69-1.87,26.32-4.07,4.06-1,8.18-2.1,11.79-4.21,3.16-1.84,5.81-4.41,8.57-6.8a49.4,49.4,0,0,1,.49,8.93A4.26,4.26,0,0,1,76,63.83,4.59,4.59,0,0,1,74.49,65c-4.23,2.49-7.66,6.19-11.93,8.6-5.84,3.29-12.75,3.92-19.42,4.48L20.67,80a109.35,109.35,0,0,1-14.13.58,3.32,3.32,0,0,1-2.41-.79A3.36,3.36,0,0,1,3.5,78,71.18,71.18,0,0,1,2.64,67.36Z"/><path class="cls-2" d="M26.24,44.59a16.7,16.7,0,0,1,16.22,8.14l9.35-18.31a1.82,1.82,0,0,0,.3-1.28,1.83,1.83,0,0,0-.55-.8c-2.05-2-4.18-4.13-6.9-5.12-3.61-1.31-7.64-.43-11.24.93C33.05,34.71,29.35,40.56,26.24,44.59Z"/><path class="cls-3" d="M59.49,61.28A31.82,31.82,0,0,1,70.59,35c.37-.31.86-.63,1.29-.42s.48.65.55,1q1.32,8.18,2,16.43a2.5,2.5,0,0,1-1.22,2.82,67,67,0,0,1-10.74,6.86C61.26,62.39,59.62,63,59.49,61.28Z"/><path class="cls-3" d="M19,52.74c2.28,1,4.9.47,7.39.46,5,0,10.33,2.61,12.06,7.3.57,1.55.65,3.5-.53,4.66a5.49,5.49,0,0,1-3,1.21,111.37,111.37,0,0,1-21.49,1.79,26.4,26.4,0,0,1-8.26-1.1C10.83,62.59,16.46,58.12,19,52.74Z"/><path d="M13.67,83.22c-4.94-.43-12.22-1-13.15-7.07C.07,72.68-.64,68.7,1.2,65.53,5.55,61.05,11.51,58.31,16,53.89,26.34,43.33,30.25,28.63,35.64,15.25c1-4.31,2.38-8.84,5.77-11.93,7.65-6.63,19.68-2.49,25.16,5,4.85,7.63,6.17,16.92,8,25.61,1.51,8,3.47,15.88,4.69,23.91.55,2.64.23,4.82-1.92,6.63-3.57,3.61-7.06,7.3-10.89,10.63-3.74,3.87-9.32,4-14.27,5.08C39.43,82.3,26.6,84.06,13.67,83.22Zm21.25-5.71.74-.09.17,0-.12,0a209.93,209.93,0,0,0,24.32-4c3.25-1.86,5.78-4.77,8.55-7.24a75.19,75.19,0,0,0,6-6.2c-.71-7.52-2.56-14.92-3.92-22.35-1.88-9.11-3-18.9-7.93-26.93C56.3,2.14,41.55.89,40,13.87c-3.59,13.82-8.15,27.94-16.76,39.51-3.83,5.41-9.44,9.12-14.8,12.86a25.72,25.72,0,0,0-3.09,2c-.86,2.5.09,5.25-.17,7.84C10.71,80,28,78.12,35,77.5,35,77.5,34.79,77.52,34.92,77.51Z"/><path d="M12.9,69.86a62.93,62.93,0,0,1-10.27-.68c-1.28-.63-.52-2.18.76-2.11,8.11-.53,16.25-.06,24.37-.57,15.8-1.43,32.91-2.78,45.05-13.92A1.91,1.91,0,0,1,76,53.81c.1,1.43-1.34,2.15-2.26,3A69.67,69.67,0,0,1,68,60.93C53.9,69.18,29.14,70,12.9,69.86Z"/><path d="M36.6,66.67c-.77-1.13.2-2.36.27-3.56.2-3.73-3.33-6.68-6.64-7.61A24.94,24.94,0,0,0,22.15,55c-.91.1-2.64.51-2.79-.84.06-1.49,2.31-1.85,3.44-2.23,6.48-1.56,14.52.6,17.07,7.25.67,2,1,7.23-1.31,8.16a1.67,1.67,0,0,1-2-.72Z"/><path d="M57.19,62.55C57,50.87,60.85,41.21,70.31,34.14a.9.9,0,0,1,1.73.48,11.68,11.68,0,0,1-1.33,1.7c-3.63,3.85-6.94,8.12-8.14,13.31v0a.14.14,0,0,0,0-.07,46.5,46.5,0,0,0-1.93,12.84A1.74,1.74,0,0,1,57.19,62.55Z"/><path d="M42.9,54.42c-1.65-.15-2.06-2.14-3.18-3.09a18.32,18.32,0,0,0-6-3.79A10.71,10.71,0,0,0,29,46.35c-.72.11-1.42.4-2.14.46a1.49,1.49,0,0,1-1-2.61c4.57-3.11,13.79,2.3,16.82,5.94C45,44.88,47.26,39.58,50,34.51,47,29,39.72,28,34.08,28.77a1,1,0,0,1-.81-1.07c.48-2.12,5-2.3,6.83-2.28a16,16,0,0,1,12.54,6.33c1.5,2.25,1.16,3.56-.11,5.78-2,4-3.78,8.07-5.77,12-.51,1.06-1.09,2.09-1.66,3.12A2.41,2.41,0,0,1,42.9,54.42Z"/><path class="cls-1" d="M142.16,38.23c-3.66-7.7-7.35-15.47-9.32-23.76-.81-3.38-1.56-7.22-4.48-9.13A11.56,11.56,0,0,0,123,3.89a20.12,20.12,0,0,0-7.89.55,15,15,0,0,0-7.6,6.26,35.72,35.72,0,0,0-3.91,9.21C100,31.72,98.36,44,96.24,56.18,95.82,58.54,95.36,61,94,63c2.34,1.06,3.91,3.26,5.57,5.23A42.09,42.09,0,0,0,108.12,76a10,10,0,0,0,3.36,1.66,16,16,0,0,0,3.72.14c4.59,0,9,1.62,13.46,2.77,7.16,1.84,14.59,2.4,22,2.91a40.61,40.61,0,0,0,10.85-.21c2.9-.57,5.93-2,7.09-4.75.8-1.89.55-4,.28-6.09a6.57,6.57,0,0,0-.74-2.66,7,7,0,0,0-2.53-2.08C154.1,60.75,147.18,48.78,142.16,38.23Z"/><path class="cls-2" d="M168.86,69.42c-2.75,1.47-6,1.55-9.14,1.17s-6.15-1.18-9.26-1.35c-2.81-.15-5.61.22-8.42.33-8.9.35-17.69-1.87-26.32-4.07-4.06-1-8.17-2.09-11.79-4.21-3.16-1.84-5.81-4.41-8.57-6.8a50.38,50.38,0,0,0-.49,8.93,4.29,4.29,0,0,0,.62,2.48A4.93,4.93,0,0,0,97,67.05c4.23,2.49,7.66,6.2,11.94,8.61,5.83,3.28,12.74,3.92,19.42,4.48L150.84,82A109.19,109.19,0,0,0,165,82.6a2.51,2.51,0,0,0,3-2.52A69.88,69.88,0,0,0,168.86,69.42Z"/><path class="cls-2" d="M145.26,46.65A16.71,16.71,0,0,0,129,54.79l-9.35-18.31a1.92,1.92,0,0,1-.3-1.28,1.85,1.85,0,0,1,.56-.8c2-2,4.18-4.13,6.89-5.11,3.61-1.32,7.65-.44,11.24.92C138.45,36.77,142.16,42.62,145.26,46.65Z"/><path class="cls-3" d="M112,63.34a31.79,31.79,0,0,0-11.09-26.26c-.37-.31-.86-.62-1.3-.42a1.3,1.3,0,0,0-.54,1.05q-1.32,8.17-2,16.43a3.4,3.4,0,0,0,.15,1.65A3.26,3.26,0,0,0,98.29,57,69.35,69.35,0,0,0,109,63.83C110.25,64.45,111.89,65.07,112,63.34Z"/><path class="cls-3" d="M152.46,54.81c-2.28,1-4.9.47-7.39.45-5,0-10.32,2.61-12,7.3-.58,1.55-.65,3.5.52,4.66a5.57,5.57,0,0,0,3,1.22A111.53,111.53,0,0,0,158,70.22a26.34,26.34,0,0,0,8.25-1.1C160.67,64.65,155.05,60.18,152.46,54.81Z"/><path d="M157.83,85.28c4.95-.43,12.23-1,13.16-7.07.44-3.47,1.16-7.45-.68-10.62C166,63.11,160,60.37,155.54,56c-10.37-10.56-14.28-25.25-19.67-38.64-1.06-4.31-2.39-8.84-5.77-11.93-7.65-6.63-19.68-2.49-25.17,5-4.84,7.62-6.16,16.91-8,25.6-1.52,8-3.47,15.88-4.69,23.92-.55,2.63-.24,4.81,1.92,6.62,3.56,3.61,7,7.3,10.89,10.63,3.74,3.87,9.31,4,14.26,5.08C132.07,84.36,144.91,86.12,157.83,85.28Zm-21.25-5.71-.73-.09-.17,0,.11,0a210.29,210.29,0,0,1-24.32-4c-3.24-1.85-5.77-4.77-8.55-7.24a76.85,76.85,0,0,1-6-6.2c.72-7.52,2.57-14.92,3.92-22.35,1.88-9.11,3-18.9,7.94-26.93C115.21,4.2,130,3,131.53,15.93c3.6,13.83,8.15,27.94,16.77,39.51,3.82,5.41,9.44,9.12,14.79,12.86a24.22,24.22,0,0,1,3.09,2c.86,2.51-.08,5.26.17,7.84-5.55,3.88-22.82,2-29.81,1.39C136.54,79.56,136.72,79.59,136.58,79.57Z"/><path d="M158.6,71.92a62.85,62.85,0,0,0,10.27-.68c1.28-.62.52-2.18-.75-2.11-8.11-.53-16.26-.06-24.37-.57-15.81-1.43-32.91-2.78-45.06-13.92a1.91,1.91,0,0,0-3.18,1.23c-.09,1.43,1.34,2.15,2.26,3A65.94,65.94,0,0,0,103.49,63C117.61,71.24,142.36,72,158.6,71.92Z"/><path d="M134.9,68.73c.77-1.13-.19-2.36-.27-3.55-.19-3.74,3.33-6.69,6.65-7.62a24.86,24.86,0,0,1,8.07-.48c.92.1,2.65.51,2.8-.84-.06-1.49-2.31-1.85-3.44-2.23-6.49-1.56-14.52.6-17.07,7.25-.68,2-1,7.23,1.3,8.16a1.68,1.68,0,0,0,2-.72Z"/><path d="M114.32,64.61c.21-11.68-3.67-21.33-13.12-28.4a.9.9,0,0,0-1.73.47,12.33,12.33,0,0,0,1.32,1.7c3.63,3.85,6.95,8.12,8.14,13.31v0a.14.14,0,0,0,0-.06,46.46,46.46,0,0,1,1.94,12.84A1.74,1.74,0,0,0,114.32,64.61Z"/><path d="M128.6,56.48c1.66-.15,2.06-2.13,3.19-3.09a18.28,18.28,0,0,1,6-3.79,10.81,10.81,0,0,1,4.71-1.19c.72.11,1.41.4,2.14.46a1.49,1.49,0,0,0,1-2.61c-4.58-3.11-13.79,2.3-16.83,5.94-2.35-5.26-4.61-10.56-7.35-15.63,3-5.5,10.28-6.54,15.91-5.74a1,1,0,0,0,.81-1.07c-.47-2.12-5-2.3-6.82-2.28a15.93,15.93,0,0,0-12.54,6.33c-1.5,2.25-1.17,3.56.11,5.79,2,4,3.77,8.06,5.77,12,.51,1.06,1.08,2.09,1.65,3.12A2.42,2.42,0,0,0,128.6,56.48Z"/></g></g></svg>