<svg xmlns="http://www.w3.org/2000/svg" viewBox="0 0 179.43 80.42"><defs><style>.cls-1{fill:#fff;}.cls-2{fill:#454545;}.cls-3{fill:none;stroke:#000;stroke-linecap:round;stroke-linejoin:round;stroke-width:5px;}</style></defs><g id="Layer_2" data-name="Layer 2"><g id="Layer_186" data-name="Layer 186"><g id="Layer_185" data-name="Layer 185"><path class="cls-1" d="M81.73,43.58c-.66,2.68.75,5.39,1.75,8s1.48,5.9-.54,7.79c-1.38,1.3-3.44,1.44-5.26,1.94C71.28,63,67.35,69.43,61.61,72.74c-4,2.28-8.6,3-13.14,3.43-13.69,1.28-27.48.23-41.2-.82a6.12,6.12,0,0,1-3.83-1.18c-1.9-1.77-.85-4.91.32-7.23,12.49,2.17,25.28,1.22,37.92.27,7.89-.6,16.44-1.47,22.25-6.84,2.68-2.48,4.54-5.74,7.23-8.22S77.93,48.07,81.73,43.58Z"/><path class="cls-2" d="M80.67,43.88l-3.42-22c-.37-2.43-.94-5.16-3-6.44-1.76-1.09-4-.76-6.08-.86-4.66-.21-8.92-2.79-12.39-5.92-2.93-2.66-6-6-9.93-5.87-4.42.13-7.49,4.72-8.11,9.1s.42,8.82.2,13.24C37.5,33.79,32.32,41.59,26,47.53S12.16,58,5.29,63.26A5.81,5.81,0,0,0,3.5,65.13a2.09,2.09,0,0,0,.27,2.42,3,3,0,0,0,2,.54,312.39,312.39,0,0,0,48-2.6c4.91-.65,10.4-1.78,13.1-5.93,1.61-2.48,2.1-5.88,4.62-7.43s6.1-.61,8.19-2.64C81.63,47.68,80.81,44.76,80.67,43.88Z"/><path class="cls-1" d="M38.71,22.72c4.61-1,9.51-2.07,14-.49a5.7,5.7,0,0,1,3,2.11,2.8,2.8,0,0,1-.2,3.45c-1.09,1-2.83.68-4.3.39a25.51,25.51,0,0,0-8.54-.25,5.28,5.28,0,0,1-3.18-.14,2.82,2.82,0,0,1-1.4-2.54A11.63,11.63,0,0,1,38.71,22.72Z"/><path class="cls-1" d="M36.54,35.57a22.52,22.52,0,0,1,18.56.78c1.42.73,2.95,2,2.59,3.6a2.66,2.66,0,0,1-2.14,1.81,7,7,0,0,1-2.93-.24c-4.55-1.09-9.22-2.86-13.78-1.81a21,21,0,0,1-3.28.75,3.31,3.31,0,0,1-3-1.17C31.93,38.36,32.44,37.25,36.54,35.57Z"/><path class="cls-1" d="M26.78,47a26.37,26.37,0,0,1,26.89.78,5.15,5.15,0,0,1,2.57,3.06c.39,2.14-1.84,4-4,4.15S48,54.22,46,53.56a25.92,25.92,0,0,0-12.52-.75,26,26,0,0,1-5.45.83,5.18,5.18,0,0,1-4.6-2.53C22.58,49.45,23.58,47,26.78,47Z"/><path class="cls-3" d="M73.73,14.33a415.89,415.89,0,0,1,9.33,45.41c-4.77,1.33-9.65,2.8-13.13,6.22-1.85,1.8-3.19,4.07-5.09,5.82-4.25,4-10.48,4.7-16.26,5.16-15.1,1.21-30.43,1.8-45.25-1.32a12.68,12.68,0,0,1-.49-7.4,9.56,9.56,0,0,1,1.58-3.46C5.74,63,7.73,61.94,9.6,60.83A69.2,69.2,0,0,0,37.48,29.25,40.93,40.93,0,0,0,38.54,9.89,8.33,8.33,0,0,1,53.23,5.5c1.44,1.74,2.13,4,3.58,5.74a11,11,0,0,0,7.64,3.51C67.32,15,70.19,14.44,73.73,14.33Z"/><path class="cls-3" d="M3.6,67.11A246.83,246.83,0,0,0,56.1,64c2.48-.42,5.08-.92,7-2.51a22.79,22.79,0,0,0,3.41-4.08A22.92,22.92,0,0,1,81.06,48.9"/><path class="cls-3" d="M38.87,22.85a38.4,38.4,0,0,1,7.9-1A13.28,13.28,0,0,1,54.33,24c1.22.86,2.31,2.39,1.67,3.74a2.69,2.69,0,0,1-2.35,1.32,10.16,10.16,0,0,1-2.78-.5,24.93,24.93,0,0,0-13.14.17"/><path class="cls-3" d="M34.59,35.35a43,43,0,0,1,16.11-.68,9.2,9.2,0,0,1,4.84,1.83c1.09,1,1.69,2.73.77,3.85s-2.62.9-4,.61c-7-1.43-14.47-2.4-21.22,0"/><path class="cls-3" d="M26.45,46.71c8.25-1,16.77-1.81,24.74.57a8,8,0,0,1,3.62,1.89A3.34,3.34,0,0,1,55.57,53a3.43,3.43,0,0,1-2.89,1.55A11,11,0,0,1,49.32,54a62.35,62.35,0,0,0-29.53-.44"/></g><g id="Layer_185_copy" data-name="Layer 185 copy"><path class="cls-1" d="M97.7,43.58c.66,2.68-.75,5.39-1.75,8s-1.48,5.9.54,7.79c1.38,1.3,3.44,1.44,5.26,1.94,6.39,1.76,10.33,8.15,16.07,11.46,4,2.28,8.59,3,13.14,3.43,13.69,1.28,27.48.23,41.2-.82A6.12,6.12,0,0,0,176,74.17c1.89-1.77.85-4.91-.32-7.23-12.49,2.17-25.28,1.22-37.92.27-7.89-.6-16.44-1.47-22.25-6.84-2.68-2.48-4.54-5.74-7.23-8.22S101.5,48.07,97.7,43.58Z"/><path class="cls-2" d="M98.76,43.88l3.41-22c.38-2.43,1-5.16,3-6.44,1.76-1.09,4-.76,6.07-.86,4.67-.21,8.93-2.79,12.4-5.92,2.93-2.66,6-6,9.93-5.87,4.42.13,7.49,4.72,8.11,9.1s-.42,8.82-.2,13.24c.41,8.66,5.59,16.46,11.91,22.4S167.27,58,174.14,63.26a5.81,5.81,0,0,1,1.79,1.87,2.09,2.09,0,0,1-.27,2.42,3,3,0,0,1-2,.54,312.39,312.39,0,0,1-48-2.6c-4.91-.65-10.41-1.78-13.1-5.93-1.61-2.48-2.1-5.88-4.62-7.43s-6.1-.61-8.19-2.64C97.8,47.68,98.62,44.76,98.76,43.88Z"/><path class="cls-1" d="M140.72,22.72c-4.61-1-9.51-2.07-14-.49a5.7,5.7,0,0,0-3,2.11,2.79,2.79,0,0,0,.2,3.45c1.09,1,2.83.68,4.3.39a25.51,25.51,0,0,1,8.54-.25,5.28,5.28,0,0,0,3.18-.14,2.82,2.82,0,0,0,1.4-2.54A11.63,11.63,0,0,0,140.72,22.72Z"/><path class="cls-1" d="M142.89,35.57a22.52,22.52,0,0,0-18.56.78c-1.42.73-3,2-2.59,3.6a2.66,2.66,0,0,0,2.14,1.81,7,7,0,0,0,2.93-.24c4.55-1.09,9.22-2.86,13.78-1.81a20.75,20.75,0,0,0,3.28.75,3.28,3.28,0,0,0,3-1.17C147.5,38.36,147,37.25,142.89,35.57Z"/><path class="cls-1" d="M152.65,47a26.37,26.37,0,0,0-26.89.78,5.15,5.15,0,0,0-2.57,3.06c-.39,2.14,1.84,4,4,4.15s4.23-.75,6.29-1.41A25.92,25.92,0,0,1,146,52.81a26,26,0,0,0,5.45.83,5.18,5.18,0,0,0,4.6-2.53C156.85,49.45,155.85,47,152.65,47Z"/><path class="cls-3" d="M105.7,14.33a415.89,415.89,0,0,0-9.33,45.41c4.77,1.33,9.65,2.8,13.13,6.22,1.84,1.8,3.19,4.07,5.09,5.82,4.25,4,10.48,4.7,16.26,5.16,15.1,1.21,30.43,1.8,45.25-1.32a12.77,12.77,0,0,0,.49-7.4A9.56,9.56,0,0,0,175,64.76c-1.32-1.74-3.31-2.82-5.18-3.93A69.2,69.2,0,0,1,142,29.25a40.93,40.93,0,0,1-1.06-19.36,8.33,8.33,0,0,0-14.7-4.39c-1.43,1.74-2.12,4-3.57,5.74A11,11,0,0,1,115,14.75C112.11,15,109.24,14.44,105.7,14.33Z"/><path class="cls-3" d="M175.83,67.11a246.83,246.83,0,0,1-52.5-3.1c-2.48-.42-5.08-.92-7-2.51a22.79,22.79,0,0,1-3.41-4.08A22.92,22.92,0,0,0,98.37,48.9"/><path class="cls-3" d="M140.56,22.85a38.4,38.4,0,0,0-7.9-1A13.28,13.28,0,0,0,125.1,24c-1.22.86-2.31,2.39-1.67,3.74a2.69,2.69,0,0,0,2.35,1.32,10.23,10.23,0,0,0,2.78-.5,24.93,24.93,0,0,1,13.14.17"/><path class="cls-3" d="M144.84,35.35a43.08,43.08,0,0,0-16.12-.68,9.2,9.2,0,0,0-4.83,1.83c-1.09,1-1.69,2.73-.77,3.85s2.62.9,4,.61c7-1.43,14.47-2.4,21.22,0"/><path class="cls-3" d="M153,46.71c-8.25-1-16.77-1.81-24.74.57a8.12,8.12,0,0,0-3.63,1.89,3.35,3.35,0,0,0-.75,3.79,3.43,3.43,0,0,0,2.89,1.55,11,11,0,0,0,3.36-.55,62.35,62.35,0,0,1,29.53-.44"/></g></g></g></svg>