<svg xmlns="http://www.w3.org/2000/svg" viewBox="0 0 172.77 88.66"><defs><style>.cls-1{fill:#fff;}.cls-2{fill:#ebebeb;}.cls-3{fill:#bababa;}</style></defs><g id="Layer_2" data-name="Layer 2"><g id="Layer_121_copy" data-name="Layer 121 copy"><g id="Layer_129" data-name="Layer 129"><path class="cls-1" d="M32.21,25.26C34.36,20,32.07,13.65,35,8.8S43.87.6,49.32,2.12a14.52,14.52,0,0,1,4.76,2.51c3,2.3,5.58,5.5,6.28,9.25s-.56,7.91,0,11.82a1.62,1.62,0,0,0,.42,1,1.89,1.89,0,0,0,1,.33,72.28,72.28,0,0,1,9.8,1.83,3.08,3.08,0,0,1,1.49.7,3.19,3.19,0,0,1,.66,2l2.54,29.59A8.81,8.81,0,0,1,76,65c-.67,1.82-2.44,3-4.1,4C61.82,75,51.18,80.35,39.76,83.25S16,86.48,4.94,82.55a3.17,3.17,0,0,1-1.25-.68,3.27,3.27,0,0,1-.59-2.33l.1-9.31A9.25,9.25,0,0,1,4,65.83a9.31,9.31,0,0,1,1.69-2C17.09,52.37,27.27,37.27,32.21,25.26Z"/><path class="cls-2" d="M33.76,27.48a30.26,30.26,0,0,1,.89-7.36,11.23,11.23,0,0,1,4-6.11A13.39,13.39,0,0,1,43.83,12a6,6,0,0,1,2.42-.15,5.75,5.75,0,0,1,2.92,1.93A19.2,19.2,0,0,1,54.07,29c-3.2.07-6.34,1.15-9.54,1.1a27.56,27.56,0,0,1-6-1A16.84,16.84,0,0,1,33.76,27.48Z"/><path class="cls-2" d="M4.79,69.47c4.59-2.06,10-3.78,14.51-1.57A23.91,23.91,0,0,1,24,71.41,42.76,42.76,0,0,0,39.3,79.63a15.43,15.43,0,0,0,5.12.79,14.88,14.88,0,0,0,5.73-1.77C55.6,76,60.33,72,65,68.11a26.25,26.25,0,0,0,5-5c1.35-2,2.13-4.29,3.34-6.35.25-.41.63-.86,1.1-.78s.55.38.72.67a18,18,0,0,1,2.38,8.17,2.36,2.36,0,0,1-.14,1.06,2.41,2.41,0,0,1-.8.82A116.47,116.47,0,0,1,44.41,83.36a53.2,53.2,0,0,1-14.13,3,68.87,68.87,0,0,1-11.82-.79A76.16,76.16,0,0,1,3.53,82.65a1.69,1.69,0,0,1-.88-.53,1.7,1.7,0,0,1-.2-1C2.42,77.59,2.39,74,4.79,69.47Z"/><path class="cls-3" d="M15.61,50.28A82.86,82.86,0,0,1,31,47.58a25.18,25.18,0,0,1,5.49,0A14.58,14.58,0,0,1,49,62.18a4.09,4.09,0,0,1-1.21,3.3,4.62,4.62,0,0,1-2,.7,90.87,90.87,0,0,1-34.67-.09c-1.87-.37-3.9-.91-5-2.49a1.75,1.75,0,0,1-.37-1.2,2.37,2.37,0,0,1,.51-1C9.43,57.28,11.57,51.4,15.61,50.28Z"/><path class="cls-3" d="M3.3,69.21a74.25,74.25,0,0,1,8.81-2.35,11.85,11.85,0,0,0-6.65-3.24,1.08,1.08,0,0,0-.9.16,1.16,1.16,0,0,0-.25.78A11.12,11.12,0,0,1,3.3,69.21Z"/><path class="cls-3" d="M21.13,69.07a8.41,8.41,0,0,1,3.5,2.39c1.92,1.93,3.7,4.05,6,5.52,3.73,2.38,8.37,2.73,12.79,3a24.24,24.24,0,0,0,6.08-.13c3.64-.7,6.73-3,9.6-5.35,6.44-5.25,12.78-11.31,15.27-19.23A78.41,78.41,0,0,1,32.88,69,38.78,38.78,0,0,1,19.82,67.6C20.68,68.88,21.79,70,21.13,69.07Z"/><path class="cls-3" d="M34,27.21a31.86,31.86,0,0,1,1-7.68,11.11,11.11,0,0,1,4.34-6.25,12.5,12.5,0,0,1,4.37-1.6,9.61,9.61,0,0,1,4.1-.07A8,8,0,0,1,53,16.67a23.7,23.7,0,0,1,1.2,7.4l.26,4.74a32.92,32.92,0,0,1-19.48-.21C34.05,28.31,33.11,27.93,34,27.21Z"/></g><path d="M31.35,28.58c-2-1.15-2-6.48-1.92-8.62C29.48,5.51,43.82-7,56.28,4.45,61,9,62.07,15.9,62.25,22.16c-.1,1.9.22,3.74-.55,5.38-1.39,2-4,.29-3.37-1.89a34.32,34.32,0,0,0-1.28-12.3C53.38,2.05,40.87,1,35.6,11.74a26.05,26.05,0,0,0-2.33,9.72C32.83,23.12,34.2,29.36,31.35,28.58Z"/><path d="M25.16,88.18a103.12,103.12,0,0,1-16-1.44c-7-1.12-8.67-2.14-9.08-9.5a43,43,0,0,1,.75-9.86,10.47,10.47,0,0,1,1.59-4.55c3.51-4.29,7.35-8.1,10.72-12.46,5.51-7.43,11.8-14.51,16-22.77a36.34,36.34,0,0,1,1.28-10.92,1.25,1.25,0,1,1,2.48,0c-.48,3.37-.74,6.85.36,10.11.71,3.81-3.16,7.5-5.07,10.54-7,9.79-14.06,19.57-22.63,28.06-.6,5.09-1.4,10.42-.06,15.39,23.42,6.14,50.77.79,68.65-15.86,1.11-1,1.18-2.25,1-3.62s-.21-2.87-.29-4.27a117.71,117.71,0,0,0-3.71-25.88c-3.17.18-12-.67-12.59-4.48,0-1.48,1.69-2,2.89-1.49a51.55,51.55,0,0,0,5.17,1.47,18.62,18.62,0,0,0,3.64.41c1.17-.16,2.42-.48,3.42.35,1.86,1.9,1.73,5,2.5,7.4a100,100,0,0,1,1.91,10.45c.48,4,.74,8.07,1,12.07-.11,2.94.86,6.11-.25,8.9-2.91,5.06-8.2,8.3-13,11.38C53.61,85,39.34,88.26,25.16,88.18Z"/><path d="M36.38,30.74c-2.26-.81-5.21-1.79-6.12-4.23a.89.89,0,0,1,.9-1.09c5,3.46,11.4,4.21,17.35,3.66a31.21,31.21,0,0,0,8.38-1.72c1.46-.26,3.32-2.35,4.55-.73C62.6,29,58,29.74,56.53,30.45,50,32.23,42.91,32.68,36.38,30.74Z"/><path d="M54.32,30.52a1.14,1.14,0,0,1-.83-1.37A29,29,0,0,0,51.9,18.73c-3-8.11-12.24-8-15.58-.22a18.75,18.75,0,0,0-1.52,8.77,1,1,0,0,1-1.43,1.23c-2-4.78.35-12.25,4.18-15.64,6.83-6.06,15.86-.63,17.19,7.53C55,22.19,57.4,30.88,54.32,30.52Z"/><path d="M29.62,69.71c-8.27-.44-16.75-1.39-24.48-4.52C3,64.35,3.82,62,6.07,62.77A103.46,103.46,0,0,0,28.55,66.2c16,1,32.55-3.47,45.09-13.69,1-.86,2.32-2.27,3.63-1.15,1.37,1.41-.31,3-1.46,3.85A55.28,55.28,0,0,1,62.4,63.53a66.66,66.66,0,0,1-32.81,6.18Z"/><path d="M34.59,79.36c-4-1.56-7.1-4.49-10.58-6.84a23.6,23.6,0,0,0-11.68-3.64A16.39,16.39,0,0,0,4,70.63c-.51.26-1.39.82-1.76.06s.54-1.28,1-1.67a15.66,15.66,0,0,1,10-2.56,24.78,24.78,0,0,1,14.35,5.28A38.3,38.3,0,0,0,35,76.45c8.68,4.21,18,.29,25.12-5,4.12-2.87,7.24-6.83,10-11,1.09-1.62,2.12-3.29,3.36-4.8a1.4,1.4,0,0,1,2-.6,1.24,1.24,0,0,1,.38,1.58c-3.4,4.11-5.76,9-9.52,12.87C58.13,77.36,45.94,84.4,34.59,79.36Z"/><path d="M47.3,67.27a1.45,1.45,0,0,1-.21-1.9,2.82,2.82,0,0,0,.58-2.79,22,22,0,0,0-1-4.47c-2.27-5.9-8.88-8.72-14.67-9.65-8-1.34-16,1.9-21.6,7.5-.3.27-.89.28-1-.18s.21-1,.43-1.31A15.89,15.89,0,0,1,13.05,51a26,26,0,0,1,24.2-4.18c5.12,1.57,10.24,4.87,12.09,10.12a16.88,16.88,0,0,1,.94,8.23C50.13,66.57,48.77,68.5,47.3,67.27Z"/><g id="Layer_129_copy" data-name="Layer 129 copy"><path class="cls-1" d="M140.56,25.74c-2.15-5.23.14-11.61-2.78-16.47S128.9,1.08,123.45,2.6a14.52,14.52,0,0,0-4.76,2.51c-3,2.3-5.58,5.5-6.28,9.25s.56,7.91,0,11.82a1.62,1.62,0,0,1-.42,1,1.8,1.8,0,0,1-1,.32,73.89,73.89,0,0,0-9.8,1.84,3.08,3.08,0,0,0-1.49.7,3.19,3.19,0,0,0-.66,2L96.5,61.69a8.81,8.81,0,0,0,.23,3.76c.67,1.82,2.44,3,4.1,4,10.12,6,20.76,11.42,32.18,14.32S156.73,87,167.83,83a3.17,3.17,0,0,0,1.25-.68,3.22,3.22,0,0,0,.58-2.33l-.09-9.31a9.23,9.23,0,0,0-.78-4.4,9.31,9.31,0,0,0-1.69-2C155.68,52.85,145.5,37.75,140.56,25.74Z"/><path class="cls-2" d="M139,28a30.26,30.26,0,0,0-.89-7.36,11.23,11.23,0,0,0-4-6.11,13.24,13.24,0,0,0-5.2-2.06,6,6,0,0,0-2.42-.15,5.75,5.75,0,0,0-2.92,1.93,19.2,19.2,0,0,0-4.9,15.26c3.2.07,6.34,1.15,9.54,1.1a27.56,27.56,0,0,0,6-1A17.15,17.15,0,0,0,139,28Z"/><path class="cls-2" d="M168,69.94c-4.59-2-10-3.77-14.51-1.56a23.91,23.91,0,0,0-4.72,3.51,42.76,42.76,0,0,1-15.28,8.22,15.47,15.47,0,0,1-5.12.79,14.83,14.83,0,0,1-5.73-1.77c-5.45-2.69-10.18-6.63-14.84-10.54a25.74,25.74,0,0,1-5-5c-1.35-2-2.13-4.28-3.34-6.34-.25-.41-.63-.86-1.1-.78s-.55.38-.72.67a18,18,0,0,0-2.38,8.17,2.36,2.36,0,0,0,.14,1.06,2.41,2.41,0,0,0,.8.82,116.33,116.33,0,0,0,32.17,16.66,53.2,53.2,0,0,0,14.13,3,68.87,68.87,0,0,0,11.82-.79,76.16,76.16,0,0,0,14.93-2.93,1.26,1.26,0,0,0,1.08-1.5C170.35,78.07,170.38,74.52,168,69.94Z"/><path class="cls-3" d="M157.15,50.76a82.61,82.61,0,0,0-15.37-2.7,25.18,25.18,0,0,0-5.49,0,14.56,14.56,0,0,0-12.48,14.56A4.09,4.09,0,0,0,125,66a4.62,4.62,0,0,0,2,.7,90.87,90.87,0,0,0,34.67-.09c1.87-.37,3.9-.91,5-2.49a1.75,1.75,0,0,0,.37-1.2,2.37,2.37,0,0,0-.51-1C163.34,57.76,161.2,51.88,157.15,50.76Z"/><path class="cls-3" d="M169.47,69.69a74.25,74.25,0,0,0-8.81-2.35,11.85,11.85,0,0,1,6.65-3.24,1.08,1.08,0,0,1,.9.16,1.16,1.16,0,0,1,.25.78A11.12,11.12,0,0,0,169.47,69.69Z"/><path class="cls-3" d="M151.64,69.55a8.41,8.41,0,0,0-3.5,2.39c-1.92,1.93-3.7,4-6,5.52-3.73,2.38-8.37,2.73-12.79,3a24.24,24.24,0,0,1-6.08-.13c-3.64-.7-6.73-3-9.6-5.35-6.44-5.25-12.78-11.31-15.27-19.23a78.41,78.41,0,0,0,41.48,13.72A38.78,38.78,0,0,0,153,68.08C152.09,69.36,151,70.48,151.64,69.55Z"/><path class="cls-3" d="M138.82,27.68a32.5,32.5,0,0,0-1-7.68,11.12,11.12,0,0,0-4.34-6.24,12.5,12.5,0,0,0-4.37-1.6,9.46,9.46,0,0,0-4.1-.07,8,8,0,0,0-5.18,5.06,23.7,23.7,0,0,0-1.2,7.4l-.26,4.74a32.92,32.92,0,0,0,19.48-.21C138.72,28.79,139.66,28.41,138.82,27.68Z"/></g><path d="M141.42,29.06c2-1.15,2-6.48,1.92-8.62C143.29,6,129-6.48,116.49,4.93c-4.7,4.56-5.79,11.45-6,17.71.1,1.9-.22,3.74.55,5.38,1.39,2,4,.29,3.37-1.89a34.32,34.32,0,0,1,1.28-12.3c3.67-11.3,16.18-12.38,21.45-1.61a26.05,26.05,0,0,1,2.33,9.72C139.93,23.6,138.57,29.84,141.42,29.06Z"/><path d="M147.61,88.65a101.9,101.9,0,0,0,16-1.43c7-1.12,8.67-2.14,9.08-9.5a43,43,0,0,0-.75-9.86,10.47,10.47,0,0,0-1.59-4.55c-3.51-4.29-7.35-8.1-10.72-12.46-5.51-7.43-11.8-14.51-16-22.77a36.34,36.34,0,0,0-1.28-10.92,1.25,1.25,0,1,0-2.48,0c.48,3.37.74,6.85-.36,10.11-.71,3.81,3.16,7.5,5.07,10.54,7,9.79,14.06,19.57,22.63,28.06.6,5.09,1.4,10.42.06,15.39-23.42,6.14-50.77.79-68.65-15.86a3.73,3.73,0,0,1-1-3.62c.09-1.43.21-2.87.29-4.27a117.71,117.71,0,0,1,3.71-25.88c3.17.18,12-.67,12.59-4.48,0-1.48-1.69-2-2.89-1.49a51,51,0,0,1-5.18,1.47,18.44,18.44,0,0,1-3.63.41c-1.17-.16-2.42-.48-3.42.35-1.86,1.9-1.73,5-2.5,7.4A100,100,0,0,0,94.7,45.75c-.48,4-.74,8.07-1,12.07.11,2.94-.86,6.1.25,8.9,2.91,5.06,8.2,8.3,13,11.38C119.16,85.47,133.43,88.74,147.61,88.65Z"/><path d="M136.39,31.22c2.26-.81,5.21-1.8,6.11-4.23a.88.88,0,0,0-.89-1.09c-5,3.46-11.4,4.21-17.35,3.66a31.13,31.13,0,0,1-8.38-1.72c-1.46-.26-3.33-2.35-4.55-.73-1.16,2.36,3.42,3.11,4.91,3.82C122.77,32.71,129.86,33.16,136.39,31.22Z"/><path d="M118.45,31a1.14,1.14,0,0,0,.83-1.37,29,29,0,0,1,1.59-10.42c3-8.11,12.24-8,15.58-.22A18.75,18.75,0,0,1,138,27.76,1,1,0,0,0,139.4,29c2-4.78-.35-12.25-4.18-15.64-6.83-6.06-15.86-.64-17.19,7.53C117.79,22.67,115.37,31.36,118.45,31Z"/><path d="M143.15,70.19c8.26-.44,16.75-1.39,24.48-4.52,2.16-.84,1.32-3.25-.94-2.42a103.27,103.27,0,0,1-22.48,3.43c-16,1-32.54-3.47-45.08-13.69-1-.86-2.32-2.27-3.63-1.15-1.37,1.41.31,3,1.46,3.85A55.28,55.28,0,0,0,110.37,64a66.66,66.66,0,0,0,32.81,6.18Z"/><path d="M138.18,79.84c4-1.56,7.1-4.49,10.58-6.84a23.6,23.6,0,0,1,11.68-3.64,16.39,16.39,0,0,1,8.29,1.75c.51.26,1.39.82,1.76.06s-.54-1.28-1-1.67a15.66,15.66,0,0,0-10-2.56,24.78,24.78,0,0,0-14.35,5.28,38.79,38.79,0,0,1-7.3,4.71c-8.68,4.21-17.95.29-25.12-5-4.12-2.87-7.24-6.83-10-11-1.09-1.62-2.13-3.29-3.36-4.8a1.4,1.4,0,0,0-2-.6A1.22,1.22,0,0,0,97,57.09c3.4,4.1,5.76,9,9.52,12.87C114.64,77.84,126.83,84.88,138.18,79.84Z"/><path d="M125.47,67.75a1.46,1.46,0,0,0,.21-1.9,2.85,2.85,0,0,1-.59-2.79,22.74,22.74,0,0,1,1-4.47c2.27-5.9,8.88-8.72,14.67-9.65,8-1.34,16,1.9,21.59,7.49.31.28.9.29,1-.17s-.21-.95-.43-1.31a16.13,16.13,0,0,0-3.23-3.47,26,26,0,0,0-24.2-4.18c-5.12,1.57-10.24,4.87-12.09,10.12a16.88,16.88,0,0,0-.94,8.23C122.64,67.05,124,69,125.47,67.75Z"/></g></g></svg>