<svg xmlns="http://www.w3.org/2000/svg" viewBox="0 0 203.32 43.88"><defs><style>.cls-1{fill:#8a8a8a;isolation:isolate;opacity:0.43;}.cls-2{fill:#3b3b3b;}</style></defs><g id="Layer_2" data-name="Layer 2"><g id="Layer_1-2" data-name="Layer 1"><g id="Layer_200" data-name="Layer 200"><g id="Image_92" data-name="Image 92"><path class="cls-1" d="M21.24,11.05a3.2,3.2,0,0,1,1.59-3.48,9.23,9.23,0,0,1,4-1,160,160,0,0,1,20-1.3c7.5.14,14.93,1.31,22.37,2.24,2.92.37,6,.76,8.3,2.62,2.76,2.25,3.63,6.08,3.85,9.64.27,4.47-.34,9.29-3.26,12.69a14.45,14.45,0,0,1-8.21,4.46,32,32,0,0,1-9.48.14c-5.76-.6-11.45-1.8-17.16-2.75-5.45-.91-11.35-1.8-15.28-5.7-2.44-2.42-3.78-5.71-5.05-8.91C21.7,16.67,20.5,13.27,21.24,11.05Z"/><path class="cls-1" d="M122.53,26.3a19.15,19.15,0,0,1-1.1-7,12.88,12.88,0,0,1,.72-5.8c1-2.19,3.16-3.63,5.35-4.63,4.39-2,9.27-2.68,14.08-3,6.12-.47,12.26-.49,18.4-.52a98.58,98.58,0,0,1,13.31.55c3.05.4,6.35,1.27,8.15,3.77a8.67,8.67,0,0,1,.87,7.49,25.5,25.5,0,0,1-3.7,6.84c-2.18,3.18-4.43,6.4-7.46,8.8-5.57,4.4-13,5.45-20.09,6a54,54,0,0,1-13.26-.24A21.58,21.58,0,0,1,126,32.75C124.25,30.93,123.36,28.23,122.53,26.3Z"/><path class="cls-2" d="M125.77,13.49,120.89,7.8c12.34-6.36,26.88-6.3,40.76-6.09a159.1,159.1,0,0,1,18.13,1A12,12,0,0,1,184,3.8a4.56,4.56,0,0,1,2.5,3.41,1.9,1.9,0,0,1,1.27-1.9,5.42,5.42,0,0,1,2.44-.2l11.39.76-4.53,6.34a1.09,1.09,0,0,1-.54.48,1.14,1.14,0,0,1-.58,0,18,18,0,0,0-8.53.2,2.42,2.42,0,0,0-1,.48,2.51,2.51,0,0,0-.55.9q-3,6.95-6.1,13.88c-1.13,2.58-2.31,5.23-4.32,7.22-2.91,2.89-7.12,4-11.15,4.7A126.66,126.66,0,0,1,136,41.82a9.49,9.49,0,0,1-5-1.17c-1.42-1-2.24-3-1.26-4.46s3.08-1.42,4.83-1.31a62.13,62.13,0,0,0,18.43-1.69c2.24-.55,4.45-1.23,6.73-1.59,3.66-.59,8-.67,10.09-3.06a6.61,6.61,0,0,0,4.81-2,19.29,19.29,0,0,0,3.12-4.35,33.3,33.3,0,0,0,3-6.06,6,6,0,0,0,.3-3.65A4.77,4.77,0,0,0,178,9.58a14.23,14.23,0,0,0-4.42-.49l-24-.11a107.3,107.3,0,0,0-16.63.78,14.33,14.33,0,0,0-5.14,1.55,4.77,4.77,0,0,0-1.93,1.9,6.45,6.45,0,0,0-.47,2.9,68.1,68.1,0,0,0,.49,8.2,15.93,15.93,0,0,0,2.27,7.3c1.47,2.11,4.17,3.56,6.65,2.85a17.93,17.93,0,0,0-1.13,6.28c-1.67-.15-3.35.34-5,.12a9.27,9.27,0,0,1-5.48-3.49c-5.39-6.29-6.56-15.32-5.24-23.5.48-2.95,1.68-6.34,4.57-7.14a4.06,4.06,0,0,1,4.54,1.81A4,4,0,0,1,125.77,13.49Z"/><path class="cls-2" d="M116.77,20.34a47.79,47.79,0,0,0-27.72-.79,3.68,3.68,0,0,0-2.23,1.26,3.85,3.85,0,0,0-.48,1.84c-.11,1.31-.23,2.63-.34,3.94a4.52,4.52,0,0,1,2.47-1.34c9-2.46,18.47-.3,27.59,1.58a1.38,1.38,0,0,0,1.23-.14c.36-.33.27-.9.16-1.37A17.89,17.89,0,0,1,116.77,20.34Z"/><path class="cls-2" d="M3.39,5.34a137.05,137.05,0,0,1,14.33.36A3.09,3.09,0,0,1,19.6,3.11a9,9,0,0,1,3.3-.64,286.2,286.2,0,0,1,37.39.1c7.16.49,14.44,1.29,21,4.21A8.94,8.94,0,0,1,84.57,9c1.37,1.6,1.62,3.86,1.7,6a65,65,0,0,1-.33,9.67,23.73,23.73,0,0,1-1.83,7.55,15.36,15.36,0,0,1-8.19,7.65,28.26,28.26,0,0,1-8.57,1.6,123.93,123.93,0,0,1-20-.21c-5.43-.49-11-1.42-15.58-4.41C24.53,32,21.34,23.06,20.14,14.51a7.37,7.37,0,0,0,4,.21,21.59,21.59,0,0,0,12.2,16,34.57,34.57,0,0,0,7.75,2.16A135.74,135.74,0,0,0,70,35.22a7.88,7.88,0,0,0,3.67-.64c1.75-.95,2.52-3,3.05-4.93a58.54,58.54,0,0,0,2-12.88,7,7,0,0,0-.3-2.92c-.74-1.86-2.78-2.79-4.68-3.44-14.61-5-30.55-3.35-45.84-1.29-1.89.26-4.16.82-4.71,2.64a5.17,5.17,0,0,0,.42,3.15l2.48,6.84-5.34.15a.72.72,0,0,1-.41-.08.68.68,0,0,1-.21-.41c-.63-2.69-1.25-5.39-1.88-8.08A120.26,120.26,0,0,1,4.85,12.19C4,9.72,2.88,7.33,3.39,5.34Z"/><path d="M67.6,43.88c11.3-.09,16.27-4.12,18.58-15.19A46.82,46.82,0,0,0,87,12.1c-.75-4.17-4.35-6.69-8.19-7.83-5.32-1.71-10.92-2.34-16.44-3C50.24-.08,37.92-.6,25.79,1c-2.76.51-6,.43-8.23,2.39-3.84,5.28-.7,12.32,1.05,17.86,2.89,7.13,5.15,16.11,13.23,18.91C43.22,44.26,55.67,43.83,67.6,43.88Zm-5.25-3.55c-10.73-.43-22.4.33-32.1-4.94-3.89-2.42-5-7.13-6.9-11C21.88,20.65,14.9,5.94,21.2,4.7A168.55,168.55,0,0,1,54.34,3.19,147.07,147.07,0,0,1,72,5.17c4.45.92,10,1.77,11.51,6.74,1.44,8.22.45,17.64-4.29,24.62C75,41.11,68,40.12,62.35,40.33Z"/><path d="M66,36.62c5.72-.1,9.56.46,11.54-6,1.62-5.19,2.83-10.73,2.15-16.18-.32-2.68-3-3.94-5.27-4.75-13-3.77-26.86-2.57-40.23-2-3,.23-5.91.5-8.84,1-1.11.25-2.51.32-3.14,1.41-1.41,4,1.69,10,3.23,13.86C28,30.18,34.91,32,40.94,33.37,49.18,35.09,57.54,36.59,66,36.62Zm.1-2.7A101.9,101.9,0,0,1,49.5,32.38c-5.65-1-11.21-1.79-16.44-4.14-3.45-1.49-5.38-4.76-6.63-8.12-1-2.87-2.33-5.67-2.32-8.74C35.82,9.26,47.78,9.23,59.63,9.56a69.68,69.68,0,0,1,14,2c3.39,1.58,4.27,2.51,3.89,6.3-.42,5-1.2,10.42-3.92,14.75C71.77,34.39,68.43,33.65,66.06,33.92Z"/><path d="M13.87,7.11c1.43-.09,6.2.3,4.64-2.26-1-.73-2.29-.61-3.43-.76-4.5-.33-9-.47-13.51-.48A1.6,1.6,0,0,0,0,5c-.16,2,2.16,1.85,3.55,1.9C7,7,10.43,7.15,13.87,7.11Z"/><path d="M18.67,14.5c1.35-1.57-1.44-2.22-2.57-2.38C12.86,11.5,9.6,11,6.33,10.61c-1-1.91-1.68-3.79-3.24-5.25a3,3,0,0,0-1.29-.8A1.18,1.18,0,0,0,.51,6.28a11.79,11.79,0,0,1,3,4.84c.31.84.43,2,1.4,2.3,3.27.64,6.63.9,10,1.25C16.07,14.69,17.54,15.18,18.67,14.5Z"/><path d="M135.72,43.88c-11.3-.09-16.27-4.12-18.58-15.19a46.82,46.82,0,0,1-.82-16.59c.75-4.17,4.35-6.69,8.19-7.83,5.32-1.71,10.92-2.34,16.44-3C153.08-.08,165.4-.6,177.53,1c2.76.51,6,.43,8.23,2.39,3.84,5.28.7,12.32-1,17.86-2.89,7.13-5.15,16.11-13.23,18.91C160.1,44.26,147.65,43.83,135.72,43.88ZM141,40.33c10.73-.43,22.4.33,32.1-4.94,3.89-2.42,5-7.13,6.9-11,1.47-3.73,8.45-18.44,2.15-19.68A168.55,168.55,0,0,0,149,3.19a147.07,147.07,0,0,0-17.65,2c-4.45.92-10,1.77-11.51,6.74-1.44,8.22-.45,17.64,4.29,24.62C128.37,41.11,135.32,40.12,141,40.33Z"/><path d="M137.36,36.62c-5.72-.1-9.56.46-11.54-6-1.62-5.19-2.83-10.73-2.15-16.18.32-2.68,3-3.94,5.27-4.75,13-3.77,26.86-2.57,40.23-2,3,.23,5.91.5,8.84,1,1.11.25,2.51.32,3.14,1.41,1.41,4-1.69,10-3.23,13.86-2.63,6.24-9.51,8.09-15.54,9.43C154.15,35.09,145.78,36.59,137.36,36.62Zm-.1-2.7a101.9,101.9,0,0,0,16.56-1.54c5.65-1,11.21-1.79,16.44-4.14,3.45-1.49,5.38-4.76,6.63-8.12,1-2.87,2.33-5.67,2.32-8.74-11.71-2.12-23.67-2.15-35.52-1.82a69.68,69.68,0,0,0-14,2c-3.39,1.58-4.27,2.51-3.89,6.3.42,5,1.2,10.42,3.92,14.75C131.56,34.39,134.9,33.65,137.26,33.92Z"/><path d="M117,22.21a62.11,62.11,0,0,0-30.28-1.08c-.5.11-1.21.07-1.35-.55-.16-1.76,4.19-2.16,5.46-2.55,8.87-1.55,18.28-1.39,26.8,1.7l-.07,0h0C119.4,20,118.78,22.87,117,22.21Z"/><path d="M116.24,28c-9.51-2.93-19.77-2.72-29.35-.7-1.82,1.26-3.21-1.85-1-2.25,5-1.63,10.34-2,15.56-2.05a53.28,53.28,0,0,1,14.59,2.11c1,.22,2.24.75,1.9,1.95A1.43,1.43,0,0,1,116.24,28Z"/><path d="M189.45,7.11c-1.43-.09-6.2.3-4.64-2.26.95-.73,2.29-.61,3.43-.76,4.5-.33,9-.47,13.51-.48A1.6,1.6,0,0,1,203.31,5c.16,2-2.16,1.85-3.55,1.9C196.34,7,192.9,7.15,189.45,7.11Z"/><path d="M184.66,14.5c-1.35-1.57,1.44-2.22,2.57-2.38,3.24-.62,6.5-1.08,9.77-1.51,1-1.91,1.68-3.79,3.24-5.25a3,3,0,0,1,1.29-.8,1.18,1.18,0,0,1,1.29,1.72,11.79,11.79,0,0,0-3,4.84c-.31.84-.43,2-1.4,2.3-3.27.64-6.63.9-10,1.25C187.26,14.69,185.79,15.18,184.66,14.5Z"/></g></g></g></g></svg>