<svg xmlns="http://www.w3.org/2000/svg" viewBox="0 0 202.83 41.18"><defs><style>.cls-1{fill:#81a3a6;isolation:isolate;opacity:0.43;}.cls-2{fill:#4f4f4f;}</style></defs><g id="Layer_2" data-name="Layer 2"><g id="Layer_1-2" data-name="Layer 1"><g id="Layer_201" data-name="Layer 201"><g id="Vector_layer" data-name="Vector layer"><path class="cls-1" d="M114.82,10.61A2.64,2.64,0,0,1,116,7.89a7.44,7.44,0,0,1,3-1c11.63-2.25,23.55-2.43,35.4-2.44,9.12,0,18.26.07,27.3,1.29.93.12,2,.37,2.39,1.23a2.81,2.81,0,0,1,0,1.6c-.88,5.36-1.77,10.72-3.1,16a21.12,21.12,0,0,1-2.76,7,15.65,15.65,0,0,1-7.18,5.4,38.2,38.2,0,0,1-8.86,2.07,142.5,142.5,0,0,1-33.66.68,12.65,12.65,0,0,1-4-.85,9.37,9.37,0,0,1-3.24-2.56c-3.68-4.31-4.62-10.26-5.41-15.87l-1-7.42A7.13,7.13,0,0,1,114.82,10.61Z"/><path class="cls-1" d="M19,8.65c-.08-1.26.06-2.86,1.24-3.29a3.16,3.16,0,0,1,1-.13l39.37-.69c4.45-.08,8.91-.16,13.36.14,4.69.31,9.57,1.12,13.31,4a3,3,0,0,1,1,1.11,3.2,3.2,0,0,1,.13,1.51A76.07,76.07,0,0,1,83.45,33c-.78,2-1.8,4.15-3.73,5.11a9,9,0,0,1-2.85.71,120,120,0,0,1-43-2.21,16.47,16.47,0,0,1-4.44-1.54,12.8,12.8,0,0,1-3-2.43,20.77,20.77,0,0,1-4.65-8.09"/><path class="cls-2" d="M115.15,6.19c1.89-2.42,5.14-3.26,8.17-3.73A130.59,130.59,0,0,1,142.7,1.38c12.74-.08,25.56-.16,38.09,2.11,1.23.22,2.71.7,2.94,1.93.29-.64,1.14-.74,1.85-.75l11.72-.08a4.4,4.4,0,0,1,2.93.68c.79.66.83,2.19-.14,2.53-3.79.1-7.59,0-11.38-.14a24.87,24.87,0,0,1-3.33-.33c-1.18-.22-2.33-.59-3.5-.88a48,48,0,0,0-7.93-1c-17.29-1.34-34.79-2.66-51.88.26A14.5,14.5,0,0,0,117.49,7a5.4,5.4,0,0,0-2.86,3.64,5.32,5.32,0,0,0-3.88-1.81c-7.56-1.19-15.83-2.25-22.43,1.62a2,2,0,0,0-1.08-2.38,6.91,6.91,0,0,0-2.79-.59C81,7.18,77.68,6.2,74.29,5.57A84.39,84.39,0,0,0,62.51,4.4a260,260,0,0,0-43.4,1.73c-.34.36-.35,1.06-.83,1.18a1.17,1.17,0,0,1-.49,0,7,7,0,0,0-2.19,0,104.46,104.46,0,0,1-12.5.64.78.78,0,0,1-.3,0,.68.68,0,0,1-.28-.3,9.6,9.6,0,0,1-1-2.17,92.28,92.28,0,0,1,17-.35A1,1,0,0,0,19,5a1.49,1.49,0,0,0,.43-.47,3,3,0,0,1,1.77-.88c2.45-.57,4.94-1,6.9-1.28C40.22,0,52.69.68,65,1.36c4.13.23,8.25.46,12.36.9,3.25.35,6.61.88,9.39,2.69a3.79,3.79,0,0,1,1.53,2.5C90.19,5.69,93,5.31,95.52,5c5.63-.65,11.51-1.28,16.84.66a5.89,5.89,0,0,1,2.54,1.55C114.82,6.6,115.11,6,115.15,6.19Z"/><path d="M70.19,41.18c2.92-.15,6,.08,8.77-.79,4.94-2.36,6.46-8.45,7.85-13.3C88.1,21.39,89.39,15.52,89,9.65c0-1.92-2-2.72-3.54-3.18C76,3.56,66,3.52,56.26,3.14A265.43,265.43,0,0,0,24.49,4.49c-1.93.39-4.41.07-5.91,1.5-1,3.38.13,7.26.63,10.69,2.09,7.7,3,18.41,11.93,20.87A47.43,47.43,0,0,0,37.35,39C48.19,40.85,59.22,41.19,70.19,41.18Zm-13-2.54a167,167,0,0,1-18.69-1.57c-5.17-.79-11.39-2-13.47-7.49-2.68-7.1-4.9-14.69-4.8-22.33C41,5,62.33,3.75,83,7.44a8.7,8.7,0,0,1,3.75,1.78,5.86,5.86,0,0,1,.16,1.38A60.74,60.74,0,0,1,85,23.9c-1.38,4.49-2.6,13.08-7.75,14.47A159.65,159.65,0,0,1,57.17,38.64Z"/><path d="M88.06,10a1.27,1.27,0,0,0,1-.84C93,.09,62.6.36,57.34.07A236.82,236.82,0,0,0,31.65.71c-4.24.44-8.65,1-12.52,2.86a2.55,2.55,0,0,0-1,3c.11.62.64,1.24,1.32,1A.91.91,0,0,0,20,6.61c-.12-.53-.47-1.17.11-1.57,6.34-2.54,13.2-2.63,19.91-2.93C51,1.78,61.83,1.59,72.7,2.63,76,3.1,86.41,3.89,87.51,7.08,87.54,8,86.45,9.88,88.06,10Z"/><path d="M1.11,6c5.95-.25,11.84,0,17.76-.4a.76.76,0,0,0,.66-.87c-.39-1-1.93-.82-2.84-1-5.24-.35-10.51.12-15.76.22A1,1,0,0,0,1.11,6Z"/><path d="M3.21,7.62a1.9,1.9,0,0,0-.39-1.54C2.29,5.27,1.43,3.61.29,4.46c-.87,1,.46,2.36.84,3.37C1.63,8.61,3,8.7,3.21,7.62Z"/><path d="M3.56,9l1.12,0H4.55c4.59.07,9.16-.47,13.74-.67a1,1,0,0,0,1.41-.58c.39-2-2.75-1.07-3.91-1.26-4.17.05-8.45.48-12.59.46-.35-1-1.74-1.29-1.93,0C1.19,8.45,2,9.15,3.56,9Z"/><path d="M89,7.57a38,38,0,0,1,24.28-.22.56.56,0,0,0,.77-.53c0-.41-.51-.67-.83-.84C108,3.66,102,3.22,96.37,3.76A39,39,0,0,0,89,5.54c-.62.16-1.22.72-1,1.41A.94.94,0,0,0,89,7.57Z"/><path d="M88.94,11.32l.1-.06.84-.52a19.61,19.61,0,0,1,2.13-1,22.9,22.9,0,0,1,2.61-.83,27.79,27.79,0,0,1,3.14-.56A36.13,36.13,0,0,1,102,8.13a36.9,36.9,0,0,1,4.45.36,33.58,33.58,0,0,1,3.77.78h.06a23.73,23.73,0,0,1,2.3.75l.1.09a.7.7,0,0,0,1-.19.71.71,0,0,0-.19-1,.85.85,0,0,0-.38-.12c-.78-.33-1.55-.68-2.36-1A27.41,27.41,0,0,0,107.77,7a28.82,28.82,0,0,0-5.93-.75,31.6,31.6,0,0,0-4.35.19,32.61,32.61,0,0,0-3.83.71,22.55,22.55,0,0,0-5.87,2.3,1.09,1.09,0,0,0-.55.85A1.11,1.11,0,0,0,88,11.44a1,1,0,0,0,.35.06A1.06,1.06,0,0,0,88.94,11.32Z"/><path d="M132.63,41.18c-2.92-.15-5.95.08-8.77-.79-4.94-2.36-6.46-8.45-7.85-13.3-1.29-5.7-2.58-11.57-2.16-17.44,0-1.92,2-2.72,3.54-3.18,9.41-2.91,19.42-2.95,29.17-3.33a265.43,265.43,0,0,1,31.77,1.35c1.93.39,4.41.07,5.91,1.5,1,3.38-.13,7.26-.63,10.69-2.09,7.7-3,18.41-11.93,20.87A47.43,47.43,0,0,1,165.47,39C154.64,40.85,143.61,41.19,132.63,41.18Zm13-2.54a167,167,0,0,0,18.69-1.57c5.17-.79,11.39-2,13.47-7.49,2.68-7.1,4.9-14.69,4.8-22.33-20.77-2.21-42.12-3.5-62.78.19a8.7,8.7,0,0,0-3.75,1.78,5.86,5.86,0,0,0-.16,1.38,60.74,60.74,0,0,0,1.93,13.3c1.38,4.49,2.6,13.08,7.75,14.47A159.65,159.65,0,0,0,145.66,38.64Z"/><path d="M114.77,10a1.27,1.27,0,0,1-1-.84c-4-9,26.44-8.78,31.7-9.07a236.82,236.82,0,0,1,25.69.64c4.24.44,8.65,1,12.52,2.86a2.55,2.55,0,0,1,1,3c-.11.62-.64,1.24-1.32,1a.91.91,0,0,1-.59-.93c.12-.53.47-1.17-.11-1.57-6.34-2.54-13.2-2.63-19.91-2.93-10.92-.33-21.77-.52-32.64.52-3.3.47-13.71,1.26-14.81,4.45C115.29,8,116.38,9.88,114.77,10Z"/><path d="M201.71,6c-6-.25-11.84,0-17.76-.4a.76.76,0,0,1-.66-.87c.39-1,1.93-.82,2.84-1,5.24-.35,10.51.12,15.76.22A1,1,0,0,1,201.71,6Z"/><path d="M199.62,7.62A1.9,1.9,0,0,1,200,6.08c.53-.81,1.39-2.47,2.53-1.62.87,1-.46,2.36-.84,3.37C201.19,8.61,199.8,8.7,199.62,7.62Z"/><path d="M199.27,9l-1.12,0h.13c-4.59.07-9.16-.47-13.74-.67a1,1,0,0,1-1.41-.58c-.39-2,2.75-1.07,3.91-1.26,4.17.05,8.45.48,12.59.46.35-1,1.74-1.29,1.93,0C201.64,8.45,200.84,9.15,199.27,9Z"/><path d="M113.84,7.57a38,38,0,0,0-24.28-.22.56.56,0,0,1-.77-.53c0-.41.51-.67.83-.84,5.22-2.32,11.21-2.76,16.84-2.22a39,39,0,0,1,7.39,1.78c.62.16,1.22.72,1,1.41A.94.94,0,0,1,113.84,7.57Z"/><path d="M113.88,11.32l-.1-.06-.84-.52a19.61,19.61,0,0,0-2.13-1,22.9,22.9,0,0,0-2.61-.83,27.79,27.79,0,0,0-3.14-.56,36.13,36.13,0,0,0-4.23-.22,36.9,36.9,0,0,0-4.45.36,33.58,33.58,0,0,0-3.77.78h-.06a23.73,23.73,0,0,0-2.3.75l-.1.09a.7.7,0,0,1-1-.19.71.71,0,0,1,.19-1,.85.85,0,0,1,.38-.12c.78-.33,1.55-.68,2.36-1A27.41,27.41,0,0,1,95.05,7,28.82,28.82,0,0,1,101,6.28a31.6,31.6,0,0,1,4.35.19,32.61,32.61,0,0,1,3.83.71A22.55,22.55,0,0,1,115,9.48a1.09,1.09,0,0,1,.55.85,1.11,1.11,0,0,1-.72,1.11,1,1,0,0,1-.35.06A1.1,1.1,0,0,1,113.88,11.32Z"/></g></g></g></g></svg>