<svg xmlns="http://www.w3.org/2000/svg" viewBox="0 0 63.95 18.59"><defs><style>.cls-1{fill:#d1936d;}.cls-2{fill:#70311f;}</style></defs><g id="Layer_2" data-name="Layer 2"><g id="Layer_76" data-name="Layer 76"><path class="cls-1" d="M.84,3.36a27.54,27.54,0,0,0,10.91-.53A102.25,102.25,0,0,1,22.53.68,18.18,18.18,0,0,1,33.22,2.47C37.52-.12,42.91-.21,47.86.66s9.72,2.59,14.4,3.21c-7.53,8.76-15.74,14.21-29.5,14.21S8.7,12.44.84,3.36Z"/><path class="cls-2" d="M.25,3.86A104.18,104.18,0,0,0,16,7.7,88.57,88.57,0,0,0,32,8.85,106,106,0,0,0,48,7.37,115,115,0,0,0,63.65,3.45,69.32,69.32,0,0,1,48.27,8.9a76,76,0,0,1-8.09,1.4c-2.73.3-5.44.47-8.19.55A71,71,0,0,1,15.66,9.23,66.28,66.28,0,0,1,.25,3.86Z"/><path d="M4.75,5.52A6.37,6.37,0,0,1,1,3.12a.57.57,0,0,0-.86,0A.56.56,0,0,0,.33,4C1.86,4.53,3.39,5.11,4.75,5.52Z"/><path d="M59.2,5.12A6.35,6.35,0,0,0,63,2.72a.57.57,0,0,1,.86,0,.57.57,0,0,1-.24.83C62.09,4.13,60.57,4.72,59.2,5.12Z"/><path class="cls-2" d="M21.34.87a17.84,17.84,0,0,1,3.08-.6,23.48,23.48,0,0,1,3.14-.1A21,21,0,0,1,33.79,1.3l-.69,0A20.29,20.29,0,0,1,38.61.07a17.88,17.88,0,0,1,5.56.35c-1.82.36-3.59.7-5.32,1.14a39.71,39.71,0,0,0-5,1.61l-.33.13-.36-.12a41.61,41.61,0,0,0-5.75-1.41c-1-.18-2-.34-3-.48Z"/><path class="cls-2" d="M19.38,16l6.63.43c2.19.11,4.37.2,6.54.2s4.36,0,6.55-.13l6.63-.38A26.56,26.56,0,0,1,39.27,18a37.83,37.83,0,0,1-6.73.58,37.88,37.88,0,0,1-6.72-.66A28.39,28.39,0,0,1,19.38,16Z"/></g></g></svg>