<svg xmlns="http://www.w3.org/2000/svg" viewBox="0 0 67.26 21.67"><defs><style>.cls-1{fill:#d1936d;}.cls-2{fill:#ffceb0;}</style></defs><g id="Layer_2" data-name="Layer 2"><g id="Layer_76" data-name="Layer 76"><g id="Image_34_copy_3" data-name="Image 34 copy 3"><g id="Vector_layer_copy_4" data-name="Vector layer copy 4"><path class="cls-1" d="M41.82,6.51c-5.08-.62-10.18-1.73-14.49-4.64h0c-.73.12-1.42.41-2.14.6-.11.5-.66.72-1.11.83-.82.18-1.7.65-2.54.39-2,.34-4,.66-6,.89,3.14.21,6.28.41,9.42.54a.47.47,0,0,1,.45.48c-.05.7-1,.38-1.45.48A119,119,0,0,1,4.87,5.7a.84.84,0,0,1-.67-.62C4,3.88,5.49,4,6.29,4c2.65,0,5.41-.74,8-1.07,2.8-.54,5.63-1,8.41-1.6C24.52.83,26.61-.53,28.52.22A47.89,47.89,0,0,0,42.16,4.38,1.08,1.08,0,0,1,41.82,6.51Z"/><path class="cls-1" d="M27,5a.92.92,0,0,1,.68-1.1A83.56,83.56,0,0,0,37.6,1.2c1-.23,2-.95,3-.63.94.89-1.29,1.8-1.88,2.24A21.11,21.11,0,0,1,30,5.37C29,5.4,27.41,6.34,27,5Z"/><path class="cls-1" d="M26.67,8.67a121.67,121.67,0,0,1-13.19-1.3c-1.86-.27-3.83-.27-5.58-1A1.34,1.34,0,0,1,8.14,4,7.79,7.79,0,0,1,10,3.74c4-.29,7.94-.5,11.91-.78.49-1.06,1.74-1.22,2.78-1.24C28.57,1.34,32.14,3,35.83,3.87a2.92,2.92,0,0,1,1.6-1A2.42,2.42,0,0,1,39,2.16c-1.36-3.11,7.49-.43,8.71-.28C51.23,2.7,54.6,3.39,58,4.21a23.07,23.07,0,0,0,2.59.47.7.7,0,0,1,.5.68c-.06,1.43-5.37,1.41-6.63,1.72C45.23,8.08,36,9,26.67,8.67Z"/><path class="cls-1" d="M34.2,19.44c-4.19-.1-8.41.16-12.5-1A39.81,39.81,0,0,1,9.58,13.71,22.7,22.7,0,0,1,6.2,10.23a31.84,31.84,0,0,1-3-4.56v0l0,0-.44-.87a3.47,3.47,0,0,0-.25-.46c.07-.32.28-.56.65-.39a7.11,7.11,0,0,1,1,1.27C10,13.9,21.24,16.26,30.93,17.32a5.5,5.5,0,0,0,1.58.08c1.26,0,2.65-.07,2.7,1.08a1,1,0,0,1-1,1Z"/><path class="cls-1" d="M27.18,18.42a58.26,58.26,0,0,1-13.81-4.11c-2.51-.92-4.29-3.08-6.72-4.06-.21-.11-.44-.21-.68-.31A31.65,31.65,0,0,1,3.64,6.41c.74-1.14,2.93-.92,4.28-.7,3.63.46,7.22,1.11,10.84,1.62,8.68,1.38,17.39,2.07,26.11.77,3.92-.47,7.84-.95,11.7-1.7,1.64-.17,3.83-1.53,5.09.09a20.49,20.49,0,0,1,2-1.82.77.77,0,0,1,.95-.07c.5.43.13,1.13-.12,1.59-4.77,8.2-14.32,11.35-23.27,12.28A57.94,57.94,0,0,1,34,19,42.54,42.54,0,0,1,27.18,18.42Z"/><path class="cls-2" d="M23.82,17.49C18.87,16.33,13.65,15,9.61,11.78c-.64-.44-.62-1.29.28-.85A52.69,52.69,0,0,0,20.17,15c1.32.37,2.66.68,4,1a.76.76,0,0,1-.33,1.49Z"/><path class="cls-2" d="M28.33,18c-.75-.1-2.86-.33-2.1-1.49a3.08,3.08,0,0,1,1.65-.24c.58,0,1.31,0,1.62.59S29,18.2,28.33,18Z"/></g><g id="Vector_layer_copy_4-2" data-name="Vector layer copy 4"><path d="M1.52,5.46A1.77,1.77,0,0,1,1,2.11C3.83,1.31,4.53,5.59,1.52,5.46Z"/><path d="M65.4,5.73A1.88,1.88,0,1,1,65.53,2,1.88,1.88,0,0,1,65.4,5.73Z"/><path d="M31.85,11.46c-2.91,0-5.81-.13-8.71-.35H23A72.64,72.64,0,0,1,11.1,9.31,27.75,27.75,0,0,1,5.49,7.39,12.52,12.52,0,0,1,3.07,5.88a5.65,5.65,0,0,1-1-1.06,2.08,2.08,0,0,1-.48-1.28s0,0,0-.06a.43.43,0,0,1,0,0,.69.69,0,0,1,.93-.53,1.72,1.72,0,0,1,.55.64l.27.31c.15.14.3.28.46.41s.6.42.86.58a12.48,12.48,0,0,0,1.66.78,39.08,39.08,0,0,0,5.34,1.62A86.38,86.38,0,0,0,23.4,9l.69,0h.1l.25,0c4,.3,8,.39,12,.29,1.39,0,2.78-.1,4.06-.19l.2,0h.15c3.84-.29,7.67-.74,11.48-1.4,1-.17,1.92-.35,2.81-.55h.09a38.51,38.51,0,0,0,5.05-1.45,20,20,0,0,0,2.32-1,11.45,11.45,0,0,0,1.14-.72l.53-.44a4.48,4.48,0,0,0,.36-.4,2.75,2.75,0,0,0,.23-.33.84.84,0,0,1,1.19-.25A1.17,1.17,0,0,1,66.38,4a6.8,6.8,0,0,1-3,2.66A27,27,0,0,1,57.72,8.8c-1.87.51-3.76.93-5.66,1.28a81.33,81.33,0,0,1-8.37,1h-.24c-1.9.14-3.81.21-5.72.28-1.59.06-3.18.09-4.78.09Z"/><path d="M21.06,18A76.42,76.42,0,0,0,29,19.36a56.27,56.27,0,0,0,7.89.3,56.14,56.14,0,0,0,7.85-.8A76.63,76.63,0,0,0,52.52,17a27.25,27.25,0,0,1-7.46,3.35,33.87,33.87,0,0,1-8.14,1.28,33.69,33.69,0,0,1-8.2-.77A27.34,27.34,0,0,1,21.06,18Z"/></g></g></g></g></svg>