<svg xmlns="http://www.w3.org/2000/svg" viewBox="0 0 69.99 34.05"><defs><style>.cls-1{fill:#fff;}.cls-2,.cls-3{fill:none;stroke:#70311f;stroke-linecap:round;stroke-linejoin:round;}.cls-2{stroke-width:2px;}.cls-4{fill:#70311f;}</style></defs><g id="Layer_2" data-name="Layer 2"><g id="Layer_76" data-name="Layer 76"><g id="Layer_226" data-name="Layer 226"><path class="cls-1" d="M8.3,5.59C10,3.92,12.71,4.2,15,4.59,21.81,5.75,28.59,6.91,35.83,8a83.55,83.55,0,0,1,28-6.84,105.66,105.66,0,0,1-2.7,12.9,92.41,92.41,0,0,0,7.14,11.36c-6.08,4.65-13.74,6.95-21.38,7.49s-15.31-.61-22.79-2.3c-8.4-1.9-17-4.7-23.15-10.71a14.34,14.34,0,0,0,4.31-6"/><path class="cls-2" d="M68.56,25.44a47.33,47.33,0,0,0-1.28-19c-.55-2-1.42-4.19-3.32-5a7.55,7.55,0,0,0-4.32-.13A118.66,118.66,0,0,0,35,8.36a106.23,106.23,0,0,0-21.9-3.63,11.56,11.56,0,0,0-4.87.43c-2.43.94-5.1,5.06-6.07,7.48-1.31,3.25-1,6.43-1.17,7-.21.77,7.05,6,11.84,7.72,9.1,3.24,18.62,5.62,28.29,5.7S60.65,30.78,68.56,25.44Z"/><path class="cls-2" d="M8.18,5.33c.51,2.19,1,4.39,1.54,6.37a53.48,53.48,0,0,1-8.1,8.1"/><path class="cls-2" d="M63.7,1.34c-1.12,4.12-2.24,8.24-3,12.59a105.16,105.16,0,0,0,7.52,11.5"/><path class="cls-3" d="M9.79,11.67a22.32,22.32,0,0,0,5,1.31"/><path class="cls-3" d="M60.41,14a21.23,21.23,0,0,1-6.61,1.58"/><path class="cls-4" d="M8.07,5.39c.37,2.24.75,4.47,1.22,6.71C7,15.19,4.57,18.38,1.19,20.22A15.85,15.85,0,0,1,8.07,5.39Z"/><path class="cls-4" d="M63.75,1.64a61.45,61.45,0,0,0-2.6,9.93A6.28,6.28,0,0,0,61,13.85a6.24,6.24,0,0,0,1.17,2.38l6.51,9.55L69,19.24a35,35,0,0,0,0-5.79A35.9,35.9,0,0,0,67.46,7a17.24,17.24,0,0,0-1.25-3.27A3.58,3.58,0,0,0,63.75,1.64Z"/></g></g></g></svg>