<svg xmlns="http://www.w3.org/2000/svg" viewBox="0 0 57.17 23.07"><defs><style>.cls-1{isolation:isolate;}.cls-2,.cls-3{fill:#d1936d;}.cls-3{mix-blend-mode:screen;opacity:0.51;}.cls-4{fill:#70311f;}.cls-5{fill:none;stroke:#70311f;stroke-linecap:round;stroke-linejoin:round;}</style></defs><g class="cls-1"><g id="Layer_2" data-name="Layer 2"><g id="Layer_76" data-name="Layer 76"><g id="Layer_327" data-name="Layer 327"><g id="Layer_326" data-name="Layer 326"><path class="cls-2" d="M1.06,7.21C4.5,7.42,7.82,6,10.93,4.57s6.26-3.1,9.69-3.43,7.28,1,9.19,4.21C31.1,2.4,34.56.88,37.78,1S44,2.43,46.88,3.9a38.86,38.86,0,0,0,9.23,3.85,33.2,33.2,0,0,1-27.3,14.58C18.06,22.29,7.5,16.53,1.06,7.21Z"/><path class="cls-3" d="M17.35,17.89a16,16,0,0,1-8.3-3,.89.89,0,1,1,1.14-1.37,9.86,9.86,0,0,0,7,2.7.92.92,0,0,1,.91.86A.73.73,0,0,1,17.35,17.89Z"/><path class="cls-3" d="M19.25,17.06a.91.91,0,0,0,.63,1.34.92.92,0,0,0,.88-1.2A.9.9,0,0,0,19.25,17.06Z"/><path class="cls-4" d="M2.67,7.21a19.28,19.28,0,0,0,6.9-2.39c2.17-1.13,4.28-2.46,6.64-3.44A16.08,16.08,0,0,1,19.94.27a11.26,11.26,0,0,1,4,0,9.44,9.44,0,0,1,6.59,4.57l-1.8.08a7.39,7.39,0,0,1,2.59-3.17A9.39,9.39,0,0,1,35,.21a13,13,0,0,1,7.52,1,49.84,49.84,0,0,1,6.44,3.41,26.57,26.57,0,0,0,6.49,2.94,21.51,21.51,0,0,1-6.93-2.08A70.69,70.69,0,0,0,42,2.62,12.1,12.1,0,0,0,35.37,2a6.6,6.6,0,0,0-4.79,3.65,1,1,0,0,1-1.28.56,1,1,0,0,1-.52-.46v0a7.62,7.62,0,0,0-5.21-3.63,12.32,12.32,0,0,0-6.79.71c-2.26.79-4.46,1.92-6.78,2.87A16.77,16.77,0,0,1,2.67,7.21Z"/><path class="cls-5" d="M.68,7c6.61,3.36,14.07,4.72,21.47,5.25q3.81.27,7.63.26A85.63,85.63,0,0,0,46,11c3.6-.7,7.24-1.72,10.21-3.89"/><path class="cls-4" d="M15.73,19.45c2.2.45,4.34.86,6.49,1.14a56,56,0,0,0,6.45.48,55.89,55.89,0,0,0,6.46-.24c2.16-.2,4.32-.53,6.54-.88a22.05,22.05,0,0,1-6.29,2.42,28.3,28.3,0,0,1-6.75.7,27.59,27.59,0,0,1-6.71-1A21.83,21.83,0,0,1,15.73,19.45Z"/><path class="cls-4" d="M52,6.48a8.13,8.13,0,0,0,1.86.62,2.74,2.74,0,0,0,1.89-.29c.31-.19.62-.47,1-.4a.67.67,0,0,1,.42.86.8.8,0,0,1-.68.54,1.69,1.69,0,0,1-.59-.09C54.7,7.39,53.54,7.05,52,6.48Z"/><path class="cls-4" d="M6.26,6.45A11.53,11.53,0,0,1,4,7.07a4,4,0,0,1-2.29-.3A2.05,2.05,0,0,0,.55,6.38.65.65,0,0,0,0,7.23a1,1,0,0,0,.83.55,2.43,2.43,0,0,0,.71-.09C3,7.35,4.38,7,6.26,6.45Z"/></g></g></g></g></g></svg>