<svg xmlns="http://www.w3.org/2000/svg" viewBox="0 0 176 2.26"><defs><style>.cls-1{fill:#693724;}</style></defs><g id="Layer_2" data-name="Layer 2"><g id="Layer_76" data-name="Layer 76"><path class="cls-1" d="M176,1.89l-1.22,0-1,0c-22.36-.37-45.56-.22-67.53.38l-1.06,0a1.33,1.33,0,0,1-.24-.12h0C102.29.58,118.8.2,128.78.08c13-.15,27.11-.15,38.91.61a49,49,0,0,1,7,.9l.34.08h0l.84.19Z"/><path class="cls-1" d="M0,1.89l1.22,0,1,0c22.36-.37,45.56-.22,67.53.38l1.06,0a1.33,1.33,0,0,0,.24-.12h0C73.71.58,57.2.2,47.22.08c-13-.15-27.11-.15-38.91.61a49,49,0,0,0-7,.9L1,1.67H1l-.84.19Z"/></g></g></svg>