<svg xmlns="http://www.w3.org/2000/svg" viewBox="0 0 154.53 8"><defs><style>.cls-1{fill:#693724;}</style></defs><g id="Layer_2" data-name="Layer 2"><g id="Layer_76" data-name="Layer 76"><path class="cls-1" d="M154.53,6.7l-1.07-.08-.89-.06A340.77,340.77,0,0,0,93.28,7.9l-.93.1a2.06,2.06,0,0,1-.21-.42v0h0C89.81,2.06,104.31.69,113.07.28c11.41-.54,23.8-.52,34.16,2.17a15,15,0,0,1,6.16,3.18l.3.3h0c.22.2.51.43.74.67Z"/><path class="cls-1" d="M0,6.7l1.07-.08L2,6.56A340.77,340.77,0,0,1,61.25,7.9l.93.1a2.06,2.06,0,0,0,.21-.42v0h0C64.72,2.06,50.22.69,41.46.28,30.05-.26,17.66-.24,7.3,2.45A15.11,15.11,0,0,0,1.14,5.63c-.07.08-.18.18-.3.3h0c-.22.2-.51.43-.74.67Z"/></g></g></svg>