<svg xmlns="http://www.w3.org/2000/svg" viewBox="0 0 154.53 16.26"><defs><style>.cls-1{fill:#693724;}</style></defs><g id="Layer_2" data-name="Layer 2"><g id="Layer_76" data-name="Layer 76"><path class="cls-1" d="M154.53,13.62l-1.07-.16-.89-.12a169.1,169.1,0,0,0-59.29,2.71l-.93.21a6.87,6.87,0,0,1-.21-.84v-.05h0C89.81,4.18,104.31,1.41,113.07.56c11.41-1.1,23.8-1,34.16,4.43a16,16,0,0,1,6.16,6.46c.07.17.18.37.3.6h0c.22.41.51.89.74,1.36Z"/><path class="cls-1" d="M0,13.62l1.07-.16L2,13.34a169.1,169.1,0,0,1,59.29,2.71l.93.21a6.87,6.87,0,0,0,.21-.84v-.05h0C64.72,4.18,50.22,1.41,41.46.56,30.05-.54,17.66-.48,7.3,5a16,16,0,0,0-6.16,6.46c-.07.17-.18.37-.3.6h0c-.22.41-.51.89-.74,1.36Z"/></g></g></svg>