<svg xmlns="http://www.w3.org/2000/svg" viewBox="0 0 122.44 43.51"><defs><style>.cls-1{fill:#693724;}</style></defs><g id="Layer_2" data-name="Layer 2"><g id="Layer_76" data-name="Layer 76"><g id="Image_29_copy" data-name="Image 29 copy"><path class="cls-1" d="M122.44,2.49c-.32.18-.63.35-.94.54l-.78.44a168.91,168.91,0,0,0-45.2,38.47c-.21.24-.4.49-.61.74-.24-.18-.47-.36-.68-.54l0,0h0c-8.7-7.42,1.07-18.49,7.47-24.53C90,9.71,99.85,2.17,111.39.14a16.11,16.11,0,0,1,8.82,1.33,6,6,0,0,0,.61.29h0c.43.19,1,.39,1.42.63Z"/><path class="cls-1" d="M0,2.77l.94.55.76.46a168.87,168.87,0,0,1,44.76,39l.6.75.69-.54,0,0h0c8.78-7.32-.85-18.5-7.19-24.62-8.26-8-18-15.61-29.51-17.77A16.07,16.07,0,0,0,2.24,1.78a6,6,0,0,1-.61.29h0c-.43.17-.95.37-1.42.6Z"/></g></g></g></svg>