<svg xmlns="http://www.w3.org/2000/svg" viewBox="0 0 254.44 181.06"><defs><style>.cls-1{fill:#282b2d;}.cls-2{fill:#171717;}.cls-3{fill:#5c5c5c;}</style></defs><g id="Layer_2" data-name="Layer 2"><g id="Layer_1-2" data-name="Layer 1"><g id="Layer_195" data-name="Layer 195"><g id="Image_89" data-name="Image 89"><path class="cls-1" d="M40.13,44.65C33,57.42,20.58,66.23,8.57,74.6a20.09,20.09,0,0,0,11-.76,26.07,26.07,0,0,0-4.61,7A124.06,124.06,0,0,0,2.18,130,76.52,76.52,0,0,1,16,110.37a112.75,112.75,0,0,1-8.76,37.09,162.16,162.16,0,0,0,13.57-11.68,56.88,56.88,0,0,0-1.07,27.13,53.79,53.79,0,0,1,7-13.79L34,170.72A139.5,139.5,0,0,1,40.1,144.1c3.49,9.31,10.94,16.57,18.77,22.7A155.8,155.8,0,0,1,55.64,146c-.19-3-.18-6.11,1.21-8.75.32,5,4.41,8.94,8.22,12.28a85.74,85.74,0,0,0,10.25,8.09,45.08,45.08,0,0,0,24,6.84c-2.16-8-4.33-16.15-3.77-24.39.16-2.35.62-4.84,2.9-5.32,4.28,9.15,12,16.25,20,22.41,3.75,2.88,7.83,5.71,12.52,6.3.58.07,1.32,0,1.57-.51a1.53,1.53,0,0,0-.06-1.05,41.25,41.25,0,0,1,2.92-30.57A80.53,80.53,0,0,0,148.87,157c.33.42.79.89,1.31.76l7.11-12.3c2.12-3.67,4.32-7.44,7.27-9.64a28.5,28.5,0,0,1-3.41,29.81l10.66-4.55c13.12-5.6,26.87-11.7,35.31-23.2.62,2.17-.27,4.46-1.19,6.52a128.85,128.85,0,0,1-17.26,28.18c9.64.52,18.53-4.74,26.74-9.82a57.5,57.5,0,0,1-10.2,16.78c8.92-3.13,16.36-9.36,23.84-15.29-.4,2.61-.81,5.22-1.21,7.83a118.63,118.63,0,0,0,19.92-22.69c2.48-3.69,4.82-7.68,5.23-12.11,0,0-3.1-25.15-3.19-26q-3.7-13.3-7.42-26.61a103.52,103.52,0,0,1,10.59,11,142.49,142.49,0,0,0-5.77-35.92S227.85,36.23,227,36.36a46.79,46.79,0,0,0-16.17,1.93,21.77,21.77,0,0,0-1-8.06S191.31,3,190.76,2.82l.35,0a7,7,0,0,0-.61,3.74c.08,2.18.35,4.34.48,6.51a55,55,0,0,1-1.75,17.56,19,19,0,0,0-2.44-4.26,111.86,111.86,0,0,0-9.48-11c-1.33-1.42-2.89-2.94-4.83-2.95,0,0-24.9-8.91-24.26-8.76a33.74,33.74,0,0,0-14.46-2l3.33,5.12a43.93,43.93,0,0,1,3,5.17,43.36,43.36,0,0,1,2.1,6.09s-9.59-8.3-9.49-8.17C119.87,7,106.44,5.52,93.57,8.31c3.73.35,7.12,2.24,10.37,4.1,3.64,2.07,7.33,4.18,10.28,7.16,0,0-17.25-.58-17.16-.54a111.37,111.37,0,0,0-46.28,6.69C42.09,29,33.69,33.36,27.07,39.84A25.58,25.58,0,0,0,40.13,44.65Z"/><path class="cls-2" d="M65.65,78.3c-3.88,6.58-8.08,13-11.39,19.88s-5.73,14.34-5.79,22c2.55-4.42,6.21-8.08,9.9-11.61A142,142,0,0,1,73.13,95.91c4.51-3.26,9.32-6.09,13.94-9.18,5.37-3.59,10.5-7.53,15.63-11.46-9.09,3.29-17.47,8.25-25.63,13.43-9.45,6-18.92,12.53-25.26,21.74C55.21,100.49,58.67,90.42,65.65,78.3Z"/><path class="cls-2" d="M83.68,30.87q-3.95,8-8.41,15.76c-3.28,5.68-6.8,11.28-11.3,16C60.1,66.76,55.55,70.2,52,74.6,60.57,69,68.62,62.47,74.56,54.2,79.84,46.86,83.34,38.26,83.68,30.87Z"/><path class="cls-2" d="M38.78,62.27a105.18,105.18,0,0,0-7.46,47.61c2.41-8.94,7.24-17,12-24.91a40.87,40.87,0,0,0-9.58,13.6C33.9,88,35.65,77.35,38.78,62.27Z"/><path class="cls-2" d="M94.57,51.11A96.41,96.41,0,0,0,72.35,83.25,91.66,91.66,0,0,1,83.81,70.06a55.16,55.16,0,0,0-6.94,14.09c4.9-8.73,9.9-17.59,17.13-24.52a64.17,64.17,0,0,0-11.25,9.14,128.63,128.63,0,0,1,24-24.54,78.84,78.84,0,0,0-11.35,8.83,46.3,46.3,0,0,1,9.74-10.17A56.39,56.39,0,0,0,94.57,51.11Z"/><path class="cls-2" d="M119.42,78.16A82.79,82.79,0,0,0,104,112a101.54,101.54,0,0,1,10.78-19.8c-5.09,10-5.42,21.67-4.93,32.87A89.94,89.94,0,0,1,119,91.46a45,45,0,0,0-4.93,8.63,71.86,71.86,0,0,1,10.66-23,79.83,79.83,0,0,0-10.13,12,78.63,78.63,0,0,1,11.51-17.6A67.66,67.66,0,0,0,119.42,78.16Z"/><path class="cls-2" d="M68.66,111.63a44.89,44.89,0,0,0,13.5,32.17c-3.16-6.58-6.36-13.27-7.5-20.48a23.63,23.63,0,0,0,2.1,10.38A67.5,67.5,0,0,1,68.66,111.63Z"/><path class="cls-2" d="M190.09,73.51A104.35,104.35,0,0,1,177,102.22a82.3,82.3,0,0,0,7.1-9.52,69.49,69.49,0,0,1-12.5,19.7,94.41,94.41,0,0,0,20.21-32.21l-7,12.08C187.55,86.09,190,79.81,190.09,73.51Z"/><path class="cls-2" d="M219.33,73.4a74.67,74.67,0,0,1-18.51,55.67c4.15-8.47,8.31-16.95,11.83-25.69a74,74,0,0,1-13.87,17.85c9.16-13,17.68-27.16,19.43-42.95a57.59,57.59,0,0,1-2.28,17.36C218,89.43,219.2,82.94,219.33,73.4Z"/><path class="cls-2" d="M199,65.09a180.74,180.74,0,0,1-11.47,37.08c-2,4.62-4.27,9.28-8,12.68a156.74,156.74,0,0,0,22.12-17.49,23.43,23.43,0,0,0,5.51-6.88,95,95,0,0,1-19.2,15A41.24,41.24,0,0,0,196.52,90l-5,8.59C194.84,86.59,198,74.51,199,65.09Z"/><path class="cls-2" d="M232,103a118.45,118.45,0,0,1-3.58,21.81c-2.16,8.2-5.8,16.9-13.38,20.72a66,66,0,0,0,9.2-18,19.69,19.69,0,0,1-7.94,9.8,67.94,67.94,0,0,0,14-36.16,88,88,0,0,1-2.48,19.72C229,115.58,230.13,110.3,232,103Z"/><path class="cls-2" d="M241.07,102.48a68.53,68.53,0,0,1-9.86,46.82,45.79,45.79,0,0,0,3.18-13.65,23.62,23.62,0,0,1-10.5,14.79C233,137.09,239.06,121.68,241.07,102.48Z"/><path class="cls-2" d="M193.26,120.85a56,56,0,0,1-16.33,17.77,34,34,0,0,0,9.26-6.2A31.6,31.6,0,0,1,172.77,145,31.13,31.13,0,0,0,186,137.17a63.71,63.71,0,0,0,9.54-12.24,30.67,30.67,0,0,1-10.92,8.68A30.81,30.81,0,0,0,193.26,120.85Z"/><path class="cls-2" d="M22.93,81.15a77,77,0,0,0,2.86,50.7,104.68,104.68,0,0,1-2.21-26.6,36,36,0,0,0,3.85,18.4A119.64,119.64,0,0,1,25,88.6,56.46,56.46,0,0,0,21.81,106C21.56,97,22.44,87.9,22.93,81.15Z"/><path class="cls-2" d="M51.06,46.08a129.65,129.65,0,0,0-5.18,28.43,44.48,44.48,0,0,1,6.2-18.75,37.71,37.71,0,0,0-2.23,15.36c2.6-10.71,5.52-21.72,12.35-30.37A33.54,33.54,0,0,0,52.14,54.66,90,90,0,0,1,62.88,31.23C57.14,35.34,52.52,41.21,51.06,46.08Z"/><path class="cls-2" d="M124.68,41.65c-9.85,10.69-19.76,21.43-31.31,30.25a51.42,51.42,0,0,0,15.53-9.21A83.31,83.31,0,0,1,96.52,74.57a80.83,80.83,0,0,0,24-20.92,37.79,37.79,0,0,1-12,8.48A87.12,87.12,0,0,0,123.77,46a46.54,46.54,0,0,1-10,9.33A66,66,0,0,0,124.68,41.65Z"/><path class="cls-2" d="M154.45,50.86a114.82,114.82,0,0,1-30.29,55,23.48,23.48,0,0,0,7.27-2.49A93.32,93.32,0,0,0,157.92,84,151,151,0,0,1,135.1,97.23a45.19,45.19,0,0,0,10.13-14.31,67.69,67.69,0,0,1-6.08,7C147.55,79.84,150.84,66.57,154.45,50.86Z"/><path class="cls-2" d="M166,50.21c-5.06,7.47-5.59,17.05-5.49,26.08a45.11,45.11,0,0,1,3.87-14.82c-1.06,6.51-1.8,13.41.75,19.49a92.56,92.56,0,0,1,3.08-29.12c-2.57,3.36-4.14,7.37-5.68,11.32C163.27,59.31,164.54,55.56,166,50.21Z"/><path class="cls-2" d="M106.8,132.34A44,44,0,0,0,121,152.13a38.78,38.78,0,0,1-7.44-14,16.73,16.73,0,0,0,8.44,8.34,49.52,49.52,0,0,1-10.76-15.58,18,18,0,0,0,2.44,12.42A121.23,121.23,0,0,1,106.8,132.34Z"/><path class="cls-2" d="M151.05,39.78c-.18,8.1-2.76,15.94-5.57,23.55a30.53,30.53,0,0,0,1.6-10,15.35,15.35,0,0,1-3.15,6.92A64.81,64.81,0,0,0,146.49,51c.84-4.89.56-9.89.28-14.84C148.52,40.81,148.26,46,148,51a70.23,70.23,0,0,0,1-19.2A16,16,0,0,1,151.05,39.78Z"/><path class="cls-2" d="M34.8,115a34.89,34.89,0,0,0,3.63,17.27c0-3.35-.11-6.69-.16-10A40.29,40.29,0,0,0,47,141.65a61.91,61.91,0,0,1-4.72-16.26,28.36,28.36,0,0,0,6.39,9.89c-3.49-7.18-7-14.53-8.06-22.45a26.39,26.39,0,0,0,.43,13.38,88.15,88.15,0,0,1-3.59-16,127.25,127.25,0,0,0-.58,13A41.14,41.14,0,0,1,34.8,115Z"/><path class="cls-2" d="M225.05,46.67a77.67,77.67,0,0,1,14.84,21.24,33.83,33.83,0,0,1-6.66-6.86,61,61,0,0,1,3.49,26.64,17.57,17.57,0,0,0-5.11-10.54,41.48,41.48,0,0,1-8.56,30.52,142,142,0,0,0,3.21-43.89A151.67,151.67,0,0,1,222.16,83a70.42,70.42,0,0,0-2.82-30.14,28.26,28.26,0,0,1,4,9.16,43.68,43.68,0,0,0-2.69-16.44,61.5,61.5,0,0,1,7.15,11.78C227.31,53.13,226.3,48.92,225.05,46.67Z"/><path class="cls-2" d="M208.6,58.59A51.9,51.9,0,0,1,203.06,84a58.7,58.7,0,0,0,.29-11.78c-.85,4.91-1.79,10-4.78,14-.4.54-1,1.1-1.65.87a14.73,14.73,0,0,1,1.38-4.62,58.81,58.81,0,0,0,4-28c2.65,5.95,2.15,12.77,1.6,19.26C206,66.77,207.52,59.73,208.6,58.59Z"/><path class="cls-3" d="M82.25,97.13a27.68,27.68,0,0,0-2.43,17.15,24.1,24.1,0,0,1,2.42-9.82A29.14,29.14,0,0,0,83,115a67.34,67.34,0,0,1,2-18.22A49.1,49.1,0,0,0,81.11,105,19.91,19.91,0,0,1,82.25,97.13Z"/><path class="cls-3" d="M119.46,62.32a47.36,47.36,0,0,1,13.26-15.21q-3.41,5.32-7.13,10.44a28.16,28.16,0,0,1,9.73-8c-2.21,2.71-5.06,4.82-7.56,7.27a37.17,37.17,0,0,0-6.49,8.52c.56-3.63,2.52-6.87,4.43-10C123.29,57.72,121.27,60.49,119.46,62.32Z"/><path class="cls-3" d="M168.14,47.93a52.56,52.56,0,0,0-5-22.4,37,37,0,0,1,4.36,10.28A25.24,25.24,0,0,0,165.66,25c3.23,4.36,4.05,10,4.6,15.41.35,3.48.61,7.12-.73,10.35a40.34,40.34,0,0,0-1.64-13.33A22.89,22.89,0,0,1,168.14,47.93Z"/><path class="cls-3" d="M189.61,54.67a41.3,41.3,0,0,0,4-24.15,24.78,24.78,0,0,1,2.06,10.22,48.08,48.08,0,0,0,1.14-7.64c1.74,3,1.53,6.69.84,10.06a42.05,42.05,0,0,1-3.58,10.39c-.22-4,2.19-8.1.81-11.86C194.85,47.19,192.53,52.64,189.61,54.67Z"/><path class="cls-3" d="M143.05,129a35.14,35.14,0,0,0,3.73,17.47,43.94,43.94,0,0,1-1-11.26,29.5,29.5,0,0,0,3.6,10.22,55.17,55.17,0,0,1-3.53-18.63,39.7,39.7,0,0,0-1.16,11.74C144.1,134.71,143.5,130.89,143.05,129Z"/><path class="cls-3" d="M132.25,109.82a32.66,32.66,0,0,0-8.07,21.12,50.07,50.07,0,0,1,4.4-10.81c-.86,4.38-1.67,8.87-1,13.28a39.55,39.55,0,0,1,6.79-20.79,28.3,28.3,0,0,0-6.25,6.58A77.7,77.7,0,0,1,132.25,109.82Z"/><path class="cls-3" d="M61.75,130.36a48.63,48.63,0,0,0,16.63,22.72,71.66,71.66,0,0,1-8.59-13.33c2.21,2.55,4.58,5.2,7.75,6.39a57.83,57.83,0,0,1-11.16-14.5,27.33,27.33,0,0,0,4.77,13.11C66.93,139.9,62.52,134.64,61.75,130.36Z"/><path class="cls-3" d="M103.06,51.58A51.39,51.39,0,0,1,115.93,36.9a28.17,28.17,0,0,0-4.61,10.46c2.27-4.11,5.42-8.32,10-9.22-5.16,5.59-10.39,11.27-13.79,18.08A25.26,25.26,0,0,1,112,43.42C107,47.34,102.7,52.19,103.06,51.58Z"/><path class="cls-3" d="M80.93,50.82A46.52,46.52,0,0,1,97.58,30.1L90.3,40.47c3.21-3.77,6.74-7.56,11.38-9.28-6.21,6.45-12.55,13.1-16.08,21.33a38.48,38.48,0,0,1,5.65-14.41A87.42,87.42,0,0,0,80.93,50.82Z"/><path class="cls-3" d="M191.39,112.15a47.57,47.57,0,0,1-11.48,12.56,20.39,20.39,0,0,0,7.33-4.45A28.15,28.15,0,0,1,172.76,132a31.32,31.32,0,0,0,5.55-6.93,19,19,0,0,1-11.28,3.6c5.85-2.92,11.92-6,15.85-11.25a10.57,10.57,0,0,1-4.51,6.09A104.94,104.94,0,0,0,191.39,112.15Z"/><path class="cls-3" d="M245,115.68a55.1,55.1,0,0,1-2,21.59l.3-8.12a43.53,43.53,0,0,1-6.23,14.91c3.22-7.71,4.65-16,6-24.29a38.57,38.57,0,0,1,.21,8.18A74.37,74.37,0,0,0,245,115.68Z"/><path class="cls-3" d="M215.9,148.52a60.73,60.73,0,0,1-12.09,11.66,18.18,18.18,0,0,0,7.59-4.61c-3,4.5-7.85,7.43-12.51,10.21a31.31,31.31,0,0,0,17.46-12.92,39.76,39.76,0,0,1-4.89,3.13,60.82,60.82,0,0,0,8.15-11.72C217.67,147.28,215.3,150,215.9,148.52Z"/><path d="M86.91,111.76a4.64,4.64,0,0,1,.16-2.68c.59-2.25,1.34-4.44,2.09-6.64C92.5,93,96.48,83.69,102,75.37a1.13,1.13,0,0,1,1.83,1.22c-5.28,8.13-9,17.08-12.07,26.22,10.6-17.09,25.22-31.28,40.65-43.89a1.35,1.35,0,1,1,1.08,2.47c-13.13,11.4-24.73,24.39-35.41,38a99,99,0,0,0-7.48,10.84c-.59.85-.93,2-2,2.38A1.46,1.46,0,0,1,86.91,111.76Z"/><path d="M47.51,120.79c-5.83-.27,8.11-27.49,9.82-30.66a137.92,137.92,0,0,1,8.82-14c.67-.94,2.23.08,1.6,1.07a155.42,155.42,0,0,0-18.12,38C59.62,104,71.72,95,83.84,86.34c7.37-5.09,14.82-10.45,23.28-13.55A.85.85,0,0,1,108.26,74c-.18.25-.47.27-.68.48-16.78,10-32.21,22-47.09,34.58-3.37,3-6.63,6.09-9.72,9.35C49.76,119.25,49,120.81,47.51,120.79Z"/><path d="M51.92,74.21a1.68,1.68,0,0,1,0-2.37,124.81,124.81,0,0,0,8.93-8.74A190.71,190.71,0,0,0,83.78,28.29a.63.63,0,1,1,1.16.48c-1.33,4.54-3.8,8.67-5.94,12.87a134.86,134.86,0,0,1-16.24,24,92.81,92.81,0,0,1-8.48,8.58A1.67,1.67,0,0,1,51.92,74.21Z"/><path d="M30.85,110.07a2.56,2.56,0,0,1-.57-1.45,56.13,56.13,0,0,1-.22-6.22c.41-14.28,2.74-28.92,8.76-41.95a1.47,1.47,0,0,1,.33-.48.31.31,0,0,1,.49.32c-.1.3-.24.6-.35.9A108,108,0,0,0,32.48,105a92.32,92.32,0,0,1,9.66-19.32c.66-.67,1.25-2.81,2.39-2.3a.74.74,0,0,1,.27,1,79.35,79.35,0,0,0-8,15.16c-1.18,2.93-2.11,5.93-3.18,8.89C33.33,109.68,32.1,111.23,30.85,110.07Z"/><path d="M7,77c-1.79.1-3.14-1.83-1.5-3.1,2.28-1.27,4.75-2.86,6.87-4.26A115.84,115.84,0,0,0,40.87,42.1c.71-.69,1.71-3.33,2.8-2.59a.75.75,0,0,1,.09,1.06,86.39,86.39,0,0,1-31.48,33c1.5-.21,3-.51,4.44-.84a1.32,1.32,0,0,1,.54,2.57C13.9,76.19,10.45,77.14,7,77Z"/><path d="M.93,132.4c-3-.42,2.2-21.83,2.86-24.76C7,95.25,11.42,78.48,20.7,69.34a.62.62,0,0,1,.87.86c-.22.48-.5.94-.75,1.41C11.61,88.43,6.29,107.13,3.33,126a171.73,171.73,0,0,1,10-15c.88-.86,1.64-3.24,3.15-2.34a1.07,1.07,0,0,1,.19,1.5c-1.8,2.27-3.66,4.82-5.2,7.19-2.6,3.89-4.88,8-7.12,12.07C3.58,130.71,2.76,133,.93,132.4Z"/><path d="M10.15,74.83c-1.07-1.27,3.92-1.52,4.71-2A23.53,23.53,0,0,0,19,71.49a.59.59,0,0,1,.57,1C18,73.64,16,74,14.14,74.46,12.88,74.64,11.39,75.23,10.15,74.83Z"/><path d="M5.41,149.75a1.26,1.26,0,0,1-.35-2.24A11.38,11.38,0,0,1,6,145.59a59.72,59.72,0,0,0,5.12-13.54,98.6,98.6,0,0,0,4-27.09c0-.46-.07-1.49.68-1.41.46,0,.62.57.73,1,2.1,9.85-.26,19.82-3,29.29a58.21,58.21,0,0,1-3.93,10.79,54.6,54.6,0,0,0,7.86-6.53c1.07-.78,2.39-3.46,3.88-2.51a1.13,1.13,0,0,1,.2,1.57,44.45,44.45,0,0,1-4.3,4.38,84.33,84.33,0,0,1-8.84,6.91C7.51,148.94,6.56,149.91,5.41,149.75Z"/><path d="M19.09,165.15c-1.14-.87-.93-2.51-1.27-3.77a63,63,0,0,1,1-19.33c.72-3.2,1.16-6.87,3.11-9.54a.53.53,0,0,1,.7.64c-1.57,8.58-2.72,17.41-2.3,26.13.57-1.56,5.41-12.27,7-11.24a.78.78,0,0,1,.28,1.05c-1.11,1.93-2.24,3.84-3.21,5.81a32,32,0,0,0-2.73,7.51C21.43,163.7,20.87,166.07,19.09,165.15Z"/><path d="M32.63,172.85a81.06,81.06,0,0,1-6.93-31.68,48.52,48.52,0,0,1,.27-5,.64.64,0,1,1,1.27.16c-.29,10.92,2.69,21.69,6.2,31.92a156.18,156.18,0,0,1,3.17-16.9,64.17,64.17,0,0,1,2.46-7.8.79.79,0,0,1,1.5.5,92.34,92.34,0,0,0-4,18.36q-.37,3.13-.73,6.27C35.75,170.47,35.29,174.9,32.63,172.85Z"/><path d="M38.35,46.05a29.52,29.52,0,0,1-10.06-3.52c-3.66-2.07-3.59-3.75-.05-6,7.82-5.43,16.06-10.28,25.11-13.31,13.07-4.37,27-5.94,40.72-5.93a85.2,85.2,0,0,1,21.34,2.38c.71.19,2.51.56,1.65,1.54-5.13-.35-10.4-1.3-15.63-1.28C83,19.57,64.06,21.71,47.05,29.19c-6.46,2.87-12.31,6.88-18.45,10.35a24.9,24.9,0,0,0,10.86,4.19,1.2,1.2,0,0,1,0,2.31,3.75,3.75,0,0,1-1.25,0A.54.54,0,0,1,38.35,46.05Z"/><path d="M120.6,107.45a1.66,1.66,0,0,1,.9-2.48,52,52,0,0,0,7.63-7.41,118.79,118.79,0,0,0,24.41-49.11c.28-.82.09-1.92.71-2.56.64-.36,1.17.34,1.11,1-.76,13.82-7.25,26.67-14,38.52-5.88,9.31-5,8.57-14.23,18.34,11.75-4.46,23.6-10.89,31.39-20.89.45-.61.84-1.72,1.81-1.34a1,1,0,0,1,.5,1.23c-5.39,9.67-17.28,17.45-27.23,21.86C131.13,105.46,122.39,109.61,120.6,107.45Z"/><path d="M154.71,105.93a1.12,1.12,0,0,1-.2-1.56c.86-1.14,1.69-2.31,2.57-3.43a77.43,77.43,0,0,0,7.78-12.64c5-10.41,8.86-21.58,10.17-33.11a.67.67,0,1,1,1.32,0c-.54,14.61-6.1,29.89-13.65,42.32a48.1,48.1,0,0,1-6.54,8.3A1.1,1.1,0,0,1,154.71,105.93Z"/><path d="M114.6,20.78c-5.69-5.15-12.92-8.13-20-10.61-1.13-.63-5.14-.73-4.31-2.52a1.15,1.15,0,0,1,.48-.45c2.22-.45,4.55-.59,6.82-.84a105.11,105.11,0,0,1,31.3,1.83,15.86,15.86,0,0,1,4.45,1.26c1.89,1.49,3.7,3.1,5.48,4.73a44.07,44.07,0,0,1,4.53,5,.47.47,0,0,1-.76.49,17,17,0,0,0-1.16-1.33c-2.48-2.51-5.4-4.74-8.09-7-1.44-1.25-3.49-1.28-5.29-1.65A119.15,119.15,0,0,0,96.12,8.54a65.21,65.21,0,0,1,13,5.81c1.3.9,8.3,4.64,6.82,6.36A1,1,0,0,1,114.6,20.78Z"/><path d="M115.78,20.4c-.83-.7-1.71-1.34-2.52-2a.49.49,0,0,1-.27-.57c.54-1.22,3,1.34,3.54,1.88A.53.53,0,0,1,115.78,20.4Z"/><path d="M188.9,29.82c-2.66-2.85-5.21-6.89-8.09-9.91-2.3-2.64-4.37-5.55-7.76-6.85-5.93-2.87-12.16-4.23-18.39-6.12A174.9,174.9,0,0,0,135.06,2a108,108,0,0,1,8.38,16.64c.23.49.53,1.23-.14,1.52a.69.69,0,0,1-.86-.29c-.47-.9-.88-1.83-1.34-2.74A154.24,154.24,0,0,0,133,2.29c-1.15-2.49,1.1-2.46,2.9-2.14a88.82,88.82,0,0,1,15,3.32c9.3,3.22,23.68,5.12,29.75,13.18C181.74,18.1,191,29.15,188.9,29.82Z"/><path d="M210.37,42.36a.4.4,0,0,1-.21-.29c-.11-.7-.08-1.51-.12-2.16-.29-3-.15-6.21-.82-9.17A221.67,221.67,0,0,0,191.31,4.46,60.78,60.78,0,0,1,191,28.9a4.18,4.18,0,0,1-1.52,2.68c-.71.5-1.44,2-2.42,1.41-1-1,1.34-2.34,1.81-3.1.92-2.86,1.09-6.31,1.5-9.27a65.33,65.33,0,0,0-1-16.28,10.3,10.3,0,0,1-.2-2.59,1.16,1.16,0,0,1,2.15-.34,88.54,88.54,0,0,1,7.16,8.88c4.46,6.56,9.3,13.08,12.51,20.35a37.22,37.22,0,0,1-.13,11.2C210.87,42.09,210.71,42.5,210.37,42.36Z"/><path d="M188.92,30.67c-.53-.91-1.16-1.77-1.7-2.65-.28-.73-1.81-1.91-1.1-2.61a.55.55,0,0,1,.77.11,26.14,26.14,0,0,1,2.91,4.8A.48.48,0,1,1,188.92,30.67Z"/><path d="M189.1,29.86a54.93,54.93,0,0,0-3.32-4.68.5.5,0,1,1,.8-.59,33.14,33.14,0,0,1,3.36,4.72C190.38,29.86,189.44,30.49,189.1,29.86Z"/><path d="M252.2,96.76c-.65-8.26-2.14-16.47-3.51-24.63-.55-2.89-1-5.75-1.73-8.6a31.76,31.76,0,0,0-3.16-6.24,132.88,132.88,0,0,0-12.14-15.71c-1.2-1.34-2.33-2.77-3.56-4.07a8.66,8.66,0,0,0-2.77-.22c-3.7.28-7.43.59-11.09,1.17a16.82,16.82,0,0,0-2.69.65,1,1,0,0,1-1.35-.6c-.9-2.08,5.74-2.33,7-2.77a80.17,80.17,0,0,1,8-1.06,8.69,8.69,0,0,1,4.08.53,11.72,11.72,0,0,1,2.06,1.8c6.69,7.06,13.18,14.64,17.42,23.46a33.65,33.65,0,0,1,2.07,8c1.08,6.25,1.86,12.56,2.32,18.88.24,3.08.17,6.17.24,9.25A.57.57,0,0,1,252.2,96.76Z"/><path d="M252.4,97.36a112.19,112.19,0,0,0-12.58-13.48,1.16,1.16,0,0,1,.7-1.93c1.28.06,2,1.48,3,2.2S256.5,98.05,252.4,97.36Z"/><path d="M231.46,169.62c-.93-.79.07-1.83.66-2.47q4.06-4.59,7.81-9.43c4.45-6.19,9.44-12.43,11.84-19.57a202.47,202.47,0,0,0-5.36-33.9c-1-4.36-1.95-8.68-3.3-12.8-.66-2.08-1.52-4.1-2.09-6.21a1.11,1.11,0,0,1,0-.84c1.65-2.25,5.43,9.93,5.88,11.17,3.19,11.23,6.19,22.59,7,34.22,1.11,9.67.74,10.42-4.41,18.71a118.76,118.76,0,0,1-12.25,16.16q-1.92,2.16-3.86,4.3C232.93,169.52,232.17,170.18,231.46,169.62Z"/><path d="M204,180.63c-1.12-1.39.64-2.71,1.46-3.72,1.39-1.56,2.75-3.15,4-4.82,3.94-5.21,6.18-11.37,8.3-17.48a1.4,1.4,0,0,1,2.66.88c-.6,2-1.31,4.07-2.06,6.07A48.13,48.13,0,0,1,209.91,176c6.37-3.47,11.72-8.43,16.92-13.43a112.11,112.11,0,0,0,11.37-12.52c.39-.47.8-1.46,1.53-.94s-.34,1.43-.55,2.08c-6.71,10.93-17.42,21.63-28.73,27.69C208.78,179.51,205.46,182.06,204,180.63Z"/><path d="M226.83,173.77c-2.85-.55-.55-3.66-.15-5.32,1-2.33,1.23-5,2.45-7.21,3.21-1.43.63,6.7.13,7.95a84.91,84.91,0,0,0,11.34-12.25,1.07,1.07,0,0,1,1.51-.12c1.26,1.25-1.31,2.93-1.86,4.06-2.71,3.85-5.57,7.76-9.29,10.69C229.71,172.44,228.43,173.73,226.83,173.77Z"/><path d="M215,147a1.45,1.45,0,0,1-.16-2c3-3.74,5.8-7.26,8.4-11.08,6.19-9.65,8.49-21.35,7.58-32.65.06-.45-.2-1.14.4-1.3a.52.52,0,0,1,.61.56c3.16,15-1.58,31.12-11.7,42.46-1,1.29-2.05,2.58-3.09,3.87A1.45,1.45,0,0,1,215,147Z"/><path d="M187.54,175.1c-1.54,0-2.93-1.65-1.9-3a9.69,9.69,0,0,1,1.43-1.29,66,66,0,0,0,7.54-8c5.19-7.32,9.68-15.39,12.24-23.91.32-.65,0-2,.94-2.07a.57.57,0,0,1,.53.55c.21,4.85-2,9.47-3.66,13.91-3.22,7.61-7.6,14.63-13.8,20.12,9.11-2.14,18.08-5.37,25.3-11.36a1.36,1.36,0,0,1,1.77,0c1.55,1.64-1.22,3-2.26,4.05a48.28,48.28,0,0,1-8.91,5.66C200.71,172.4,194.19,174.85,187.54,175.1Z"/><path d="M161.15,166.6a1.62,1.62,0,0,1-1.46-2.39c.57-1,1.5-1.7,2.16-2.62a19.14,19.14,0,0,0,2.57-4.15c2.75-7.76.86-16.86-2-24.32-.48-1-.93-2.38.29-3a1.5,1.5,0,0,1,1.88.5c4.54,8.82,6.54,24.77-.64,32.64,17.69-5.45,34-15.69,45.85-29.94.54-.5.9-1.34,1.62-1.55.85.05.41,1.11.15,1.56C200.88,150.85,181.2,163.05,161.15,166.6Z"/><path d="M149.29,159.67a8.18,8.18,0,0,1-2-2.1A84.46,84.46,0,0,1,139.47,146c-1.28-2.27-6.64-14.56-3.05-15.57a1.46,1.46,0,0,1,1.64,1c1,3.24,1.18,6.72,2.67,9.83,2.2,5.16,5.52,9.72,8.87,14.19,2.38-6.34,6.43-11.88,11-16.83a35.73,35.73,0,0,1,3.53-3.43c.34-.27.78-.65,1.25-.57.85.24.34,1.15,0,1.61-4.78,6.56-9.7,13.15-12.9,20.65C151.9,158.29,151.34,160.61,149.29,159.67Z"/><path d="M179.37,115.08c-1.88-.36-1.06-1.94-.11-2.87,2.25-3.46,4.71-6.79,6.74-10.4a112.82,112.82,0,0,0,12.63-38.52,12.18,12.18,0,0,1,.19-1.21.39.39,0,0,1,.77.07c-.49,16.49-7.61,36.23-17.4,49.47a73.25,73.25,0,0,0,25-22.47,1.14,1.14,0,0,1,1.58-.32c1.51,1.26-1,3-1.53,4.27-4.47,6.48-10.74,11.52-17,16.07C186.76,111.33,183.33,114.11,179.37,115.08Z"/><path d="M202.74,128a1.11,1.11,0,0,1-.31-1.54c2.54-3.5,4.95-7.1,7.28-10.75a58.22,58.22,0,0,0,8.73-31.72v.14a116.29,116.29,0,0,0-.8-12.66.3.3,0,0,0,0,.1.44.44,0,0,1,.15-.57c1.8-.75,2.56,10.64,2.69,12.11a55.34,55.34,0,0,1-10.16,35.82c-2,2.93-4,5.88-6.08,8.75A1.12,1.12,0,0,1,202.74,128Z"/><path d="M149.94,125.69a1.1,1.1,0,0,1-.41-2,43.41,43.41,0,0,0,3.84-2.56,70,70,0,0,0,10-9.14,81.84,81.84,0,0,0,12.32-19.53.43.43,0,0,1,.78.35C171.91,106.06,162.71,119.53,149.94,125.69Z"/><path d="M58.28,169.28c-9.15-3.77-18.48-20.06-19.89-29.69,0-.47-.23-1.19.35-1.32a.45.45,0,0,1,.48.39,50.88,50.88,0,0,0,17.34,25.47,73.75,73.75,0,0,1-1.94-22c.12-1.63.33-3.25.59-4.86a1.26,1.26,0,0,1,2.5.2c-.65,6.87-.94,13.54.34,20.28.43,2.18,1,4.32,1.57,6.46C60.17,165.91,61.09,169.17,58.28,169.28Z"/><path d="M98.75,166.24c-9.66-1.24-19.49-4-27.66-9.4C61.8,150,52.44,136.94,52.81,125a.63.63,0,0,1,.71-.66c.75.14.44,1,.64,1.51,2.2,11.25,9.38,21.36,18.56,28,7.47,4.86,15.93,6.74,24.48,8.4-4.46-11.57-4.83-22.57-.23-34.16a1,1,0,0,1,1.94.54c-.21.75-.42,1.52-.59,2.27-1,5.33-2.13,10.7-1.76,16.08a46.65,46.65,0,0,0,3.54,14C101,163.07,102.05,166.13,98.75,166.24Z"/><path d="M80.07,144.5c-7.21-9.35-12.21-21.13-11.85-33.09a.53.53,0,1,1,1,.17c.52,11.07,5.15,21.55,11.66,30.38A64.48,64.48,0,0,1,81.69,123c.46-1.14,0-3.69,1.73-3.65a1,1,0,0,1,.88,1.18c-.57,3.22-1,6.47-1.31,9.73-.42,4.41.14,8.8.27,13.2C83.35,145.82,81.4,146.44,80.07,144.5Z"/><path d="M130.11,164.86c-9.29-2.93-17.1-9-23.47-16.21-4.25-4.68-8.28-9.84-10.42-15.86-.67-1.69,1.21-2.46,1.82-.67,6.8,13.34,18.54,24.53,32.74,29.49-2-11.16-1.78-23.7,5.35-33.09,1-1,2.22-4.44,3.86-3.34,1.17,1-.37,2.21-.87,3.09a38.89,38.89,0,0,0-6,27.58C133.34,159,136.21,166.85,130.11,164.86Z"/></g></g></g></g></svg>