<svg xmlns="http://www.w3.org/2000/svg" xmlns:xlink="http://www.w3.org/1999/xlink" viewBox="0 0 274.52 194.85"><defs><style>.cls-1{fill:url(#linear-gradient);}.cls-10,.cls-11,.cls-12,.cls-13,.cls-2,.cls-3,.cls-4,.cls-5,.cls-6,.cls-7,.cls-8,.cls-9{isolation:isolate;opacity:0.5;}.cls-2{fill:url(#linear-gradient-2);}.cls-3{fill:url(#linear-gradient-3);}.cls-4{fill:url(#linear-gradient-4);}.cls-5{fill:url(#linear-gradient-5);}.cls-6{fill:url(#linear-gradient-6);}.cls-7{fill:url(#linear-gradient-7);}.cls-8{fill:url(#linear-gradient-8);}.cls-9{fill:url(#linear-gradient-9);}.cls-10{fill:url(#linear-gradient-10);}.cls-11{fill:url(#linear-gradient-11);}.cls-12{fill:url(#linear-gradient-12);}.cls-13{fill:url(#linear-gradient-13);}</style><linearGradient id="linear-gradient" x1="112.12" y1="663.47" x2="193.95" y2="456.1" gradientTransform="matrix(1, 0, 0, -1, 0, 709.99)" gradientUnits="userSpaceOnUse"><stop offset="0" stop-color="#36261c"/><stop offset="1" stop-color="#55311b"/></linearGradient><linearGradient id="linear-gradient-2" x1="33.03" y1="594.91" x2="52.26" y2="549.64" gradientTransform="matrix(1, 0, 0, -1, 0, 709.99)" gradientUnits="userSpaceOnUse"><stop offset="0" stop-color="#635a55"/><stop offset="1" stop-color="#8c7d51"/></linearGradient><linearGradient id="linear-gradient-3" x1="17.18" y1="616.13" x2="30.48" y2="584.83" xlink:href="#linear-gradient-2"/><linearGradient id="linear-gradient-4" x1="21.13" y1="578.14" x2="36.8" y2="541.25" xlink:href="#linear-gradient-2"/><linearGradient id="linear-gradient-5" x1="49.49" y1="615.86" x2="70.41" y2="566.62" xlink:href="#linear-gradient-2"/><linearGradient id="linear-gradient-6" x1="99.07" y1="611.36" x2="120.43" y2="561.11" xlink:href="#linear-gradient-2"/><linearGradient id="linear-gradient-7" x1="173.77" y1="584.75" x2="181.58" y2="566.38" xlink:href="#linear-gradient-2"/><linearGradient id="linear-gradient-8" x1="130.44" y1="664.19" x2="149.07" y2="620.37" xlink:href="#linear-gradient-2"/><linearGradient id="linear-gradient-9" x1="98.53" y1="648.24" x2="113.6" y2="612.76" xlink:href="#linear-gradient-2"/><linearGradient id="linear-gradient-10" x1="55.76" y1="645.8" x2="64.91" y2="624.27" xlink:href="#linear-gradient-2"/><linearGradient id="linear-gradient-11" x1="132.21" y1="594.61" x2="141.14" y2="573.61" xlink:href="#linear-gradient-2"/><linearGradient id="linear-gradient-12" x1="252.76" y1="629.44" x2="274.3" y2="578.74" xlink:href="#linear-gradient-2"/><linearGradient id="linear-gradient-13" x1="244.28" y1="568.66" x2="256.19" y2="540.62" xlink:href="#linear-gradient-2"/></defs><g id="Layer_2" data-name="Layer 2"><g id="Layer_1-2" data-name="Layer 1"><g id="Layer_189" data-name="Layer 189"><g id="Image_84" data-name="Image 84"><path class="cls-1" d="M250.67,51.42c12.59,13.63,16.86,32.74,20.66,50.9,1,4.84,2,9.72,2,14.66,0,5.4-1.23,10.72-2.44,16L260.09,120.9a148.71,148.71,0,0,1-.44,29.83,42.53,42.53,0,0,1-2.4,11c-2.41,6.06-7.07,10.9-11.62,15.57a14,14,0,0,0-.65-11,47,47,0,0,1-19.58,22.58c4.62-10.65,5.82-20.78,7-30.76a44.29,44.29,0,0,0-9.13,9.66,5.25,5.25,0,0,1-.85-2.43,93.1,93.1,0,0,1,1.41-38.22,43,43,0,0,1-18,9.89,43.36,43.36,0,0,0,1.23-22.87,48,48,0,0,0-5.12,6.65c-5.25,7.3-12.19,13.2-19.05,19a122.12,122.12,0,0,1-11.61,9.05,67.79,67.79,0,0,1-10.58,5.62,77.14,77.14,0,0,1-22.64,5.81,25.33,25.33,0,0,0,7.5-10.53,51.88,51.88,0,0,0,2.92-12.45c.76-5.75,1.09-11.72-.72-17.23-.19-.58-.47-1.22-1.06-1.4-.85-.26-1.58.62-2,1.37a82.18,82.18,0,0,1-22.76,24.08,1,1,0,0,1,.73,1.27c-4.88-1.49-9-4.88-12.32-8.75s-6-8.28-8.84-12.5c-5-7.28-10.9-14.6-11.58-23.38A4.83,4.83,0,0,0,87.59,103c-9.42,9.42-16.85,22.17-21,35.91-.11.37-.27.8-.64.92a1.23,1.23,0,0,1-1-.23,34.55,34.55,0,0,1-10.68-9.67,36.55,36.55,0,0,0-2.84,9.26c-1.68,7.9-3.38,15.93-2.76,24,.49,6.42,2.45,12.63,4.39,18.77a75.87,75.87,0,0,1-19.4-22.16A90.37,90.37,0,0,0,29.23,182L18.16,165.57c-1.36-9.37-2.73-17.29-2.62-26.15.1-8.28,2.22-21.39,7-28.13l-14.2,11c2.18-15.1,8.43-29.85,19.06-40.79A90.34,90.34,0,0,0,2.55,88.63C2.33,81.9,7.12,76.11,12,71.48,21,63,31.7,55.72,45.25,53c1.4-8.8,5.81-16.81,10.37-24.47C60.42,20.43,66,12.07,74.57,8.27c.28,2.41-.84,4.73-1.85,6.93a97.44,97.44,0,0,0-7.44,24.12,35.18,35.18,0,0,1,6.34-6.21C95.1,14,124.56,1.35,154.8,1.69c-3.17,5.17-6.33,10.35-9.33,16.09,14.1-3.12,28.59-5.74,42.93-4a127.47,127.47,0,0,1,14.07,2.72q9,2.12,17.91,4.5-6.47,6-12.82,12c7.64-1.64,15.69.21,22.71,3.64A65.83,65.83,0,0,1,250.67,51.42Z"/><path class="cls-2" d="M32.69,112.94a75.45,75.45,0,0,0-2.6,18.93c.11,6.39,1.62,12.87,5.18,18.17a47.47,47.47,0,0,1,1.5-29.49,31.6,31.6,0,0,0,1.52,15.63,66.52,66.52,0,0,1,3.82-28.92,26.69,26.69,0,0,0-7.53,12.92,50.58,50.58,0,0,1,5.9-18.46C36.44,105.08,33.45,109.78,32.69,112.94Z"/><path class="cls-3" d="M25.84,84.06A55.52,55.52,0,0,0,9.46,122a59.26,59.26,0,0,1,9.18-16.69,34.11,34.11,0,0,0-4.78,5A78.06,78.06,0,0,1,27.35,88.6l-7.76,7.21a95,95,0,0,1,11.71-15C28.11,82.59,25.3,85,25.84,84.06Z"/><path class="cls-4" d="M20.87,136.16a53.5,53.5,0,0,0,2,22.8,36.58,36.58,0,0,1,.7-14.36c.47,4.83,1,9.84,3.53,14a64.12,64.12,0,0,1-.39-29.48,49.25,49.25,0,0,0-3.42,11.76,50.17,50.17,0,0,1,3.15-19.56A34,34,0,0,0,20.87,136.16Z"/><path class="cls-5" d="M48,100.08a56.65,56.65,0,0,0,11.54,24.47c-2.66-5.31-5.39-10.92-5.1-16.85a41.43,41.43,0,0,0,11,18.72c-7.35-10.2-10-23-11.93-35.39a61.59,61.59,0,0,0,.36,13.57,68.73,68.73,0,0,1-4.17-19.83,3.16,3.16,0,0,0-.39-1.64C47.83,87.74,46.5,92.8,48,100.08Z"/><path class="cls-6" d="M96,99c3.18,12.41,10.8,23.31,19.91,32.32a49.71,49.71,0,0,1-10.57-18.14,27.48,27.48,0,0,0,7.76,9.08,76.92,76.92,0,0,1-12.81-24.07,29,29,0,0,0,3,12.42c-3.49-6.89-5.64-14.37-7.77-21.79C94.86,91.59,94.82,94.54,96,99Z"/><path class="cls-7" d="M193.4,112.76a79.47,79.47,0,0,1-32.89,32.69A66.09,66.09,0,0,0,173.33,132,86.35,86.35,0,0,1,156,142.08c7-4.55,14-9.11,20.72-14.14,5-3.78,10-8,12.93-13.5a22.46,22.46,0,0,1-4.21,8C188.43,119,191.24,115.43,193.4,112.76Z"/><path class="cls-8" d="M129.45,49.41c-2,8.48.68,17.29,3.35,25.58A43.45,43.45,0,0,1,133,56.58c-.36,7.14,3.05,13.87,6.39,20.19a68.05,68.05,0,0,1-3.07-34.18,35.09,35.09,0,0,0-2.74,11.8,105.09,105.09,0,0,1,1.85-20.57C131.93,39.41,130.26,46,129.45,49.41Z"/><path class="cls-9" d="M98.63,65.06a53.68,53.68,0,0,0,5,22.64,28.9,28.9,0,0,1-2.17-15.44c.74,4.59,1.56,9.38,4.35,13.1A55.83,55.83,0,0,1,102,57.51a31,31,0,0,0-1.46,14.32,69,69,0,0,1,.11-19A37.09,37.09,0,0,0,98.63,65.06Z"/><path class="cls-10" d="M54.1,67.76a27.13,27.13,0,0,0,3.21,10.83,36.24,36.24,0,0,1-1-8.68,23.2,23.2,0,0,0,3.48,9.65C57.4,73,57.67,65.8,58.19,58.83c-1.95,4-1.18,8.78-.36,13.18a37,37,0,0,1-2.41-12.52,32.48,32.48,0,0,0,.46,13.17A36.85,36.85,0,0,1,54.3,62"/><path class="cls-11" d="M142.59,106.24a65.74,65.74,0,0,1-15.93,24.27,50.57,50.57,0,0,0,7-5.59,40,40,0,0,1-8.86,10.28,59.36,59.36,0,0,0,20.84-25.67,62.87,62.87,0,0,1-10.27,12.66A33.84,33.84,0,0,0,142.59,106.24Z"/><path class="cls-12" d="M256.94,78.79c4.64,9.87,6.43,20.79,8.19,31.55a57.4,57.4,0,0,0-5.14-12,87.67,87.67,0,0,1,3,18c-3.11-6.75-3.33-14.49-5.92-21.45-2.07-5.53-5.56-10.4-9-15.18a34,34,0,0,1,11.6,14.42,129,129,0,0,0-8.63-24.33C253.24,73.15,255.75,76.26,256.94,78.79Z"/><path class="cls-13" d="M253.12,131.25a42.59,42.59,0,0,1-1.42,26.49,16.42,16.42,0,0,0,.08-8.15,22.12,22.12,0,0,1-10.62,15.3C246,158,250,150,250.2,141.56a32.14,32.14,0,0,1,.11,7.27A86.09,86.09,0,0,0,253.12,131.25Z"/><path d="M65.2,106.48a61.88,61.88,0,0,0,1.57,32.06,52.25,52.25,0,0,1,3-17.3,33.36,33.36,0,0,0,.42,6.77A51.9,51.9,0,0,1,88.72,99.4c-7.82,2.58-13.39,9.34-18.53,15.77a47.82,47.82,0,0,1,5.52-18.78,39,39,0,0,0-8.26,17.79,50.54,50.54,0,0,1,1.83-20.09C67,97.76,66.18,102,65.2,106.48Z"/><path d="M40.34,141.54a41.81,41.81,0,0,0,2,20.62,36.62,36.62,0,0,1-.06-8.24c1.28,9,5.47,17.37,9.83,25.38a45.28,45.28,0,0,1-4-18.85,136.27,136.27,0,0,1,1.55-19.33A48.26,48.26,0,0,0,47.06,156c-1.73-7.1-.7-14.54.33-21.77a9,9,0,0,0-2,4.7c-.67,3.36-1.2,6.75-1.59,10.15a59.32,59.32,0,0,1,1-20.53,5.65,5.65,0,0,0-2.12,3.31A64.29,64.29,0,0,0,40.34,141.54Z"/><path d="M17.81,161a38.72,38.72,0,0,0,12.56,21.38,54.76,54.76,0,0,1-5.87-15.64,18.05,18.05,0,0,0,2.64,4.86,63.41,63.41,0,0,1-4.28-16.82,23.24,23.24,0,0,0,.62,13.06c-3.54-5.81-4.35-12.82-5.08-19.58a33.9,33.9,0,0,0,1.72,18.93"/><path d="M108.54,105.33a90.9,90.9,0,0,0,10.94,23.12,87.82,87.82,0,0,1-2.9-9.39,51.15,51.15,0,0,0,8.15,12.55A81.41,81.41,0,0,1,114.16,106a24.7,24.7,0,0,0,2.43,13.15,74,74,0,0,1-8-22.52A15.13,15.13,0,0,0,108.54,105.33Z"/><path d="M36.18,60.6C27.3,63.6,19.9,70,14.06,77.32a30.11,30.11,0,0,1,8-5.74,28.05,28.05,0,0,0-5.9,8.26,51.27,51.27,0,0,1,7.37-7c4.29-3.22,9.28-5.36,14.21-7.47-5,.55-9.57,2.89-14,5.2A76.36,76.36,0,0,1,46.41,58.16C44,57.86,41.65,58.75,36.18,60.6Z"/><path d="M167.43,118.58a97.66,97.66,0,0,1-18.81,33.34,72.1,72.1,0,0,0,5.83-13.58,68,68,0,0,1-12.1,19.29,37.72,37.72,0,0,1,3-5.83A118.48,118.48,0,0,0,154,133.14a24.7,24.7,0,0,0,1.83-8,45.89,45.89,0,0,1-.44,11.42,150.87,150.87,0,0,0,11.52-22,126.77,126.77,0,0,1-4.79,14.33A73.07,73.07,0,0,0,167.43,118.58Z"/><path d="M207.89,111.07A82,82,0,0,1,212,128.41l.51-5.52a20.61,20.61,0,0,1-.14,9.28c-.89,3-3.07,5.75-6.07,6.61C208.37,130.45,209,121.75,207.89,111.07Z"/><path d="M224.46,128.08c-1.22,6.57-2.45,13.23-2,19.91a32,32,0,0,1,.44-6c0,7.73.08,15.49,1.16,23.15a2.8,2.8,0,0,0,1,2.16,14.35,14.35,0,0,1,.68-5.82,8.47,8.47,0,0,0,.93,4,10.78,10.78,0,0,0-.25-3.66,70.56,70.56,0,0,1-.47-21.27,2.58,2.58,0,0,0-.66,1.48,37.81,37.81,0,0,0-.63,9.26c-1.43-7,.46-14.22,1.2-21.34a52.21,52.21,0,0,0-2.72,10.81C222.65,136,224.26,131.17,224.46,128.08Z"/><path d="M149.67,54.29a126.92,126.92,0,0,1,1.19,13.07c.25-1.25.51-2.5.76-3.76.17,3.13.31,6.41-1.05,9.23a.76.76,0,0,1-.4.44.84.84,0,0,1-.49-.06l-1.58-.56C149.55,67.2,148.75,61.35,149.67,54.29Z"/><path d="M166.44,61.79c1.65,3.15,1.69,6.88,1.7,10.44A6.58,6.58,0,0,0,169,70a18.61,18.61,0,0,1-1.11,8.62,1.45,1.45,0,0,0-1.73-.93C167.9,73.05,166.23,67.82,166.44,61.79Z"/><path d="M80.78,37.6a50.71,50.71,0,0,0-5.19,18.34,18.89,18.89,0,0,1,3.12-7.8,41.87,41.87,0,0,0-1.1,13.43,82.24,82.24,0,0,1,5.06-19.7,54.27,54.27,0,0,0-3.5,6.39,70.74,70.74,0,0,1,6.1-15.43A34.62,34.62,0,0,0,79.15,44C80.4,39.92,81.71,35.75,80.78,37.6Z"/><path d="M60.15,27.05c-3.71,6.37-5.38,13.69-6.8,20.92a66.49,66.49,0,0,1,2.44-6.29,41.28,41.28,0,0,0,.38,15.78c-.31-7.71,1.2-15.39,3.19-22.85a23.22,23.22,0,0,0-2.63,8.06,42.73,42.73,0,0,1,3.86-13.79c-2.37,2-2.43,5.67-4.08,8.31C57.84,33.39,59.36,29.65,60.15,27.05Z"/><path d="M209.41,42.5c5.39.17,10.41,3.07,14.23,6.88s6.62,8.5,9.38,13.14a61.39,61.39,0,0,0-7.81-5.17,62.28,62.28,0,0,1,6.19,19.21,40.79,40.79,0,0,0-20.2-21.64A19.71,19.71,0,0,1,221.71,60c-3.86-7.24-12.27-10.54-20-13.28A20.07,20.07,0,0,1,214,50.11a29.72,29.72,0,0,0-25.47-4.92A66.73,66.73,0,0,1,209.41,42.5Z"/><path d="M123.87,143.32a2.32,2.32,0,0,1,1.1,1.16c-1.22.93-2.46,1.84-3.72,2.71C104.87,139,91.8,116.84,88.41,99.36c.47-.42.94-.83,1.43-1.23.36.77.55,1.65.91,2.4a97.36,97.36,0,0,0,22.5,34.29C116.61,138.09,119.73,141.29,123.87,143.32Z"/><path d="M148.41,112.65q.72,2.67,1.19,5.39a135.3,135.3,0,0,1-15,18,98.72,98.72,0,0,1-13.39,11.18c-1-.49-1.94-1-2.89-1.61,3.09-2.57,6.1-5.21,9-8C135.3,130.05,141.88,121.37,148.41,112.65Z"/><path d="M148.41,112.65a59.7,59.7,0,0,1-5.54,44.81,48.41,48.41,0,0,1-3.11,5c-1.68.18-3.38.3-5.08.36a8.34,8.34,0,0,1,1-1.34c9.72-13.22,12.34-30.09,10.67-46.11Z"/><path d="M208,111.39c.23,1.15.43,2.3.61,3.46-2.27,3.45-4.7,6.77-7.21,10-16.06,20.63-40,37.08-66.77,38a8.34,8.34,0,0,1,1-1.34c.38-.52.75-1,1.11-1.57a87.44,87.44,0,0,0,16.24-4c18.44-6.63,34.42-19.72,46.41-35,2.59-3.35,4.91-6.91,7.5-10.26.23-.29.46-.63.7-1C207.83,110.52,208,111.16,208,111.39Z"/><path d="M208,111.39a65.68,65.68,0,0,1,1,22.1,49,49,0,0,1-1.11,5.62c-1.32.49-2.66.92-4,1.3-.41-1.68.87-4.36.93-5.88a68,68,0,0,0,.71-22c.45-.62.91-1.24,1.39-1.85.23-.29.46-.63.7-1C207.83,110.52,208,111.16,208,111.39Z"/><path d="M225.88,123.56q-.42,2.79-.77,5.59h0A59.06,59.06,0,0,1,203.9,140.4a8,8,0,0,1,.45-3.61l.3-.13a85.23,85.23,0,0,0,19.91-12A14.34,14.34,0,0,0,225.88,123.56Z"/><path d="M225.29,166.28q.12.84.27,1.68c-1,1.07-1.95,2.16-2.89,3.27a100.3,100.3,0,0,1-1-40.5q.42-2.32,1-4.62h0c.65-.49,1.29-1,1.93-1.47a15.81,15.81,0,0,0,1.32-1.08,158.26,158.26,0,0,0-2,25.16A166.4,166.4,0,0,0,225.29,166.28Z"/><path d="M233.54,155.15c0,1.66,0,3.32,0,5h0a106.69,106.69,0,0,0-10.82,11.07c-.32-1.38-.6-2.77-.86-4.16A76.75,76.75,0,0,1,233.54,155.15Z"/><path d="M233.54,155.15a99.15,99.15,0,0,1-.87,14.84,69.78,69.78,0,0,1-3.93,16.18c-.7,1.76-1.32,3.51-2,5.21a41.78,41.78,0,0,1-5,3.47c.83-2.16,1.77-4.27,2.55-6.45.91-2.53,1.72-5.09,2.36-7.43a151.48,151.48,0,0,0,4.06-23.35C231.61,156.78,232.57,156,233.54,155.15Z"/><path d="M246.88,161.69a28.46,28.46,0,0,1,.64,5.09,90.54,90.54,0,0,1-16,20.39,57.58,57.58,0,0,1-9.82,7.67c.62-1.62,1.31-3.22,1.94-4.84,1.63-1.36,3.19-2.79,4.64-4.27,7.45-7.22,13.34-15.74,18.41-24.73C246.77,161.24,246.82,161.47,246.88,161.69Z"/><path d="M261.09,118.67a91,91,0,0,1,1.56,28c-.71,10.53-4.37,20.91-11.89,28.51-1.61,1.34-4,5.68-6.31,3.87-1.85-1.82.86-3.63,2-5a60.93,60.93,0,0,0,6-8.15c7.75-12.84,7.55-34,5.73-48.56a11.92,11.92,0,0,0-.17-1.32A39.45,39.45,0,0,1,261.09,118.67Z"/><path d="M246.88,161.69c.58,1.73,1.3,11.4.42,17.12-.93.71-1.89,1-2.84.26a2.26,2.26,0,0,1-.44-.59,6,6,0,0,0,.16-1.34,80.2,80.2,0,0,0,.42-10.07q0-1.17-.06-2.34c.74-1.23,1.46-2.48,2.17-3.73C246.77,161.24,246.82,161.47,246.88,161.69Z"/><path d="M68.63,137.35q-.81,2.28-1.54,4.62c-18.34-7.54-28.6-34.87-27.43-53.17,0-.65.23-2,1.13-1.67a.54.54,0,0,1,.27.65,46.73,46.73,0,0,0,.53,6.06,71.43,71.43,0,0,0,13.33,32.27A34.11,34.11,0,0,0,68.63,137.35Z"/><path d="M90.73,100.53c.17.44.34.88.52,1.32C79.48,112.46,72,126.18,67.09,142c-.82-.34-1.63-.71-2.42-1.13a115.15,115.15,0,0,1,8.08-20.54c5-9.64,10.32-16.51,17.08-22.18C90.19,98.89,90.38,99.78,90.73,100.53Z"/><path d="M51.79,128.67c.51-2,3.23-1.71,2.52.47-2.83,12.11-4.39,24.92-2.62,37.28.86,6.66,3.22,13,5.84,19.09a36.21,36.21,0,0,1-5.09-1.81C45.3,166.47,47.17,146.41,51.79,128.67Z"/><path d="M55.13,179.56c.74,2,1.55,4,2.39,5.95A31.8,31.8,0,0,1,41,175.11a66.14,66.14,0,0,1-8.94-15.61c.37-1,.76-2.07,1.19-3.1.24-.52.48-1,.73-1.55,3.86,9.11,9.36,17.89,17.36,22.73C52.58,178.3,53.85,179,55.13,179.56Z"/><path d="M30.73,180.27l.31.31c-.16,1.76-.29,3.52-.36,5.25-22.13-17.73-20.5-49.69-10.63-74.45.44-1,.86-2,1.3-3,1.18-.86,2.39-1.69,3.61-2.5-1.22,2.72-2.25,5.53-3.2,8.34C14.39,136.32,12.7,162.9,30.73,180.27Z"/><path d="M34,154.85c.54,1.27,1.1,2.52,1.71,3.76a76.76,76.76,0,0,0-4.22,17.84c-.37,3.13-.66,6.28-.79,9.38-1-.77-1.87-1.56-2.73-2.38.06-2,.24-4.1.33-6a72.27,72.27,0,0,1,5-21C33.49,155.89,33.73,155.37,34,154.85Z"/><path d="M26.91,81.32c.89,0,2.3,0,3.68.12a67,67,0,0,0-19.84,34.32c-.4,2.39-.73,4.8-1,7.2-1.26,1.32-2.48,2.68-3.63,4.1A80.55,80.55,0,0,1,7,115a55.41,55.41,0,0,1,5.31-14.91C16.05,93.07,20.5,86.07,26.91,81.32Z"/><path d="M25,105.92c-.86,1.91-1.62,3.87-2.34,5.85l-.71.55A93,93,0,0,0,6.15,127.06c0-1.38.07-2.76.12-4.14A73.76,73.76,0,0,1,25,105.92Z"/><path d="M46.51,52.38h.07c-.16.67-.32,1.35-.46,2l-.7.1C27.67,57.39,11.15,69.17,4.49,86.14a50.9,50.9,0,0,1,21.84-4.86c.75.08,2.53,0,4.27.16-1,.94-2,1.91-3,2.92A45.24,45.24,0,0,0,8.18,88.1c-2.16.75-4.12,2.78-6.44,2.75-4.37-1.13.75-8.65,1.68-11.16a48.71,48.71,0,0,1,18-19.17C29,56,37.53,52,46.51,52.38Z"/><path d="M76.42,6.64c1.28,1.47-.34,3.49-.84,5-3.94,8.8-7.3,18-8.34,27.64q-2.11,2.09-4.1,4.29c.49-11.42,4.88-22.23,9.72-32.43C59.65,22.35,49.73,37.42,46.11,54.42l-.7.1c-.72.12-1.45.25-2.16.4.46-4.54,2.61-10.56,3.48-12.87,5-13.41,14-24.83,25.22-33.59C73.2,7.64,74.86,5.45,76.42,6.64Z"/><path d="M159.13.1c-1,1-1.93,2-2.82,3.1-1.66,0-3.3.08-4.85.09A122.43,122.43,0,0,0,79.12,29a119.55,119.55,0,0,0-16,14.6c0-1.11.13-2.2.25-3.29.23-.29.41-.52.51-.66a97.42,97.42,0,0,1,16.36-15A122.84,122.84,0,0,1,146.88.29,108.83,108.83,0,0,1,159.13.1Z"/><path d="M155.93,0c1.07,0,2.13,0,3.2.1-5.49,5.49-9.4,12.45-12.73,19.45q-2,.69-4.05,1.47a70.72,70.72,0,0,1,9.48-16.25c1.29-1.63,2.64-3.26,4.1-4.77Z"/><path d="M221.83,20.71l.64.3c-.74.55-1.47,1.13-2.18,1.72C215.5,21,210.67,19.39,205.72,18c-20.71-5-43.41-4.77-63.38,3,.48-1.1,1-2.2,1.51-3.29,1.52-.57,3.05-1.09,4.59-1.6,22.21-7.08,50.21-6.16,71.45,3.65Z"/><path d="M220.54,20.1l1.93.91a92.44,92.44,0,0,0-13.36,12.81l-3-.27A78.63,78.63,0,0,1,220.54,20.1Z"/><path d="M251.49,50.64c16.72,18.09,24.18,43.4,22.89,67.7a92.17,92.17,0,0,1-2,14.54c-.31.9-.27,2.4-.59,3.52-.8-1.05-1.6-2.09-2.42-3.12.26-1.91.43-3.82.6-5.73a110.9,110.9,0,0,0-.12-28.2C266.66,75.76,254,52.48,233,40.47c-8.22-4.53-17.61-6.21-26.91-6.92.85-1,1.71-2,2.6-2.91a82.94,82.94,0,0,1,11.53,1.54C232.43,34.47,243.25,41.5,251.49,50.64Z"/><path d="M272.56,132.06c-.05.28-.11.55-.16.82-.31.9-.27,2.4-.59,3.52-2.66-3.5-5.42-6.94-8.3-10.25-1.58-1.81-3.28-3.51-5-5.17-.12-1.25-.26-2.46-.4-3.62a11.92,11.92,0,0,0-.17-1.32c4.44,3.31,8.18,7.66,11.68,11.86C270.66,129.23,271.63,130.64,272.56,132.06Z"/><path d="M60.27,91.65c-1.94.13-11.13-23.92-9-24.05.7,0,.57.79.76,1.24,2.07,7.27,4.57,14.52,8.35,21.08,1-5.2,1.94-10.43,3.26-15.58.33-1.28.58-2.6,1-3.85a1,1,0,0,1,.9-.7c.83,0,1.15,1,1.4,1.65.38,1,.68,2,1,3a88.07,88.07,0,0,0,3.28,9.37c1.56-6,3.18-12,5.22-17.89.66-1.72,1-3.68,2.14-5.16,2.18-1.38,2.34,2.61,2.63,3.93.53,3.68.84,7.39,1.33,11.07a194.07,194.07,0,0,1,7.46-20.83.75.75,0,0,1,1-.36c.92.49.06,1.57-.12,2.23-2.14,5.51-4,11.11-5.8,16.74-.65,1.32-1.24,6.36-3.11,5.82a1.37,1.37,0,0,1-.78-1.07c-1-5-1.14-10.27-2-15.26-2.12,6-3.78,12.19-5.43,18.36-.57,1.52-.54,3.68-2,4.63-2,.54-2.42-3.42-3-4.72-1.1-3.13-2-6.31-3.11-9.45-1,4.2-1.81,8.41-2.59,12.65C62.51,86.1,62.7,92.24,60.27,91.65Z"/><path d="M115,84.77c-1.43-2.21-1.69-5-2.41-7.53a67.51,67.51,0,0,1-2.22-16.48c.16-.91-.31-4.42.92-4.25a.6.6,0,0,1,.47.76,28.46,28.46,0,0,0,0,2.92c.22,7.24,2,14.18,3.81,21.12a32.3,32.3,0,0,1,4-9.73c1.21-2.09,2.5-4.15,3.84-6.16a.71.71,0,1,1,1.19.77,88.92,88.92,0,0,0-6,11.61,26.36,26.36,0,0,0-1.29,4.57C117.16,83.6,116.68,86.1,115,84.77Z"/><path d="M167.51,79.26c-3.78-.58-2.67-3.25-2.22-6a50.78,50.78,0,0,0,.53-8c-.09-1.13,0-2.45-.75-3.38-2.44,2-15.12,15.51-17.61,10.68a3.18,3.18,0,0,1,.13-1.78A97.36,97.36,0,0,0,149,54.52c0-.39-.14-.82,0-1.18a.44.44,0,0,1,.8.14c1.18,6.11-.23,12.4-.93,18.48A7.9,7.9,0,0,0,152,70.64,57.55,57.55,0,0,0,162.3,62c1.93-2.51,4.31-2.76,5.19.68.73,3.67.19,7.48-.27,11.16a24.49,24.49,0,0,0-.46,3,2.33,2.33,0,0,0,1.27.4c5.4.2,10.63-1.35,15.76-2.74,1.64-.49,3.26-1,4.86-1.62a.72.72,0,1,1,.49,1.35C182.25,76.73,175,79.84,167.51,79.26Z"/><path d="M196.42,91.14a1.21,1.21,0,0,1-.79-1.51A95.83,95.83,0,0,0,200.9,69c.25-.67.29-4.69,1.41-3.77a53.87,53.87,0,0,1-.76,12.08,64.73,64.73,0,0,1-3.26,12.16C198,90.35,197.53,91.49,196.42,91.14Z"/><path d="M205.16,92.48a.54.54,0,0,1-.33-1,23.17,23.17,0,0,0,3.57-1.34c6.6-2.73,12-7.63,17.45-12,.76-.7,1.87.5,1.09,1.2C220.2,84.35,214,91.55,205.16,92.48Z"/><path d="M237.73,128.58c-1.4-1.14.21-2.87.61-4.15.71-1.83,1.3-3.71,1.84-5.6a137.22,137.22,0,0,0,4.49-22.71.59.59,0,0,1,1-.45,1,1,0,0,1,.25.66,46.22,46.22,0,0,1-.32,6.68,81.53,81.53,0,0,1-5.35,22.34,89,89,0,0,0,7.69-7.47,1,1,0,0,1,1.39,1.34C247.57,121.25,240.33,130.1,237.73,128.58Z"/><path d="M242.44,153.2A.87.87,0,0,1,242,152c.56-1.25,1.09-2.5,1.6-3.77a56.3,56.3,0,0,0,2.43-7.52,27.89,27.89,0,0,0,.71-3.84.52.52,0,0,1,.47-.5c1,0,.63,2.54.64,3.23a26.84,26.84,0,0,1-2.5,9.21c-.6,1.3-1.18,2.62-1.78,3.93A.88.88,0,0,1,242.44,153.2Z"/><path d="M165.5,135.55a1,1,0,0,1,.07-1.35,51.66,51.66,0,0,0,4.07-4.17,50.68,50.68,0,0,0,10.13-19.64h0v0a9.26,9.26,0,0,0,.31-2.09.8.8,0,1,1,1.59.16,44,44,0,0,1-2.7,9.91,42.2,42.2,0,0,1-8.7,13.81c-1.09,1.18-2.24,2.3-3.42,3.39A.94.94,0,0,1,165.5,135.55Z"/><path d="M31.71,145.57c-2.32-10.11-3.55-22.42.59-32.17a.45.45,0,0,1,.73.52c-1.9,6.29-2.07,12.92-1.54,19.4a95.07,95.07,0,0,0,2.13,11.82A1,1,0,0,1,31.71,145.57Z"/></g></g></g></g></svg>