<svg xmlns="http://www.w3.org/2000/svg" viewBox="0 0 215.05 136.21"><defs><style>.cls-1{fill:#3d3f40;}.cls-2{fill:#686869;}</style></defs><g id="Layer_2" data-name="Layer 2"><g id="Layer_1-2" data-name="Layer 1"><g id="Layer_193" data-name="Layer 193"><g id="Image_87" data-name="Image 87"><path class="cls-1" d="M9,97.31a24.08,24.08,0,0,0-1.49,8.39,57.49,57.49,0,0,0,6.67,28.74A26,26,0,0,1,21,131.69a78.11,78.11,0,0,1-.07-16.25c1.12-9,4.84-17.41,6.73-26.25a7.85,7.85,0,0,1-8.91,2.54C16.12,94.28,13.05,97,9,97.31Z"/><path class="cls-1" d="M190.36,93.41c2.66,7.38,5.34,14.87,6,22.69a63.58,63.58,0,0,1-.59,14.12,2.12,2.12,0,0,0,0,1,2,2,0,0,0,.64.81,10.92,10.92,0,0,0,6.66,2.57,28.74,28.74,0,0,0,2.65-4.47c2.13-4.69,2.18-10,2.68-15.14s1.5-10.39,1.26-15.62a20,20,0,0,0-.94-5.5,12,12,0,0,1-4.62,3.27,6.74,6.74,0,0,1-4.05.45c-2.27-.56-3.75-2.67-5-4.62C193.73,94.41,191.23,94.62,190.36,93.41Z"/><path class="cls-2" d="M86.09,8.21a9.77,9.77,0,0,0-11.42,3.94c-.77-2.64-4.4-3.49-6.9-2.33s-4.11,3.6-5.58,5.93a3.54,3.54,0,0,0-3.64-2.08,7.38,7.38,0,0,0-4,1.91,16.69,16.69,0,0,0-4.82,6.76,10.3,10.3,0,0,0-12.86,6.81A8.21,8.21,0,0,0,27.65,37c-2.19-1.4-5.27-.28-6.88,1.76s-2.13,4.7-2.6,7.26a7.35,7.35,0,0,0-6.4,8.44c.13.65.34,1.39,0,1.92a2.27,2.27,0,0,1-.89.62A9.11,9.11,0,0,0,6,65.56a5,5,0,0,1-.1,2.37,5.14,5.14,0,0,1-1.52,1.6,7.26,7.26,0,0,0-.07,10.38,6.37,6.37,0,0,0-2,4.57c.15,1.7,1.93,3.29,3.52,2.67a6.44,6.44,0,0,0,.35,7.79,6.44,6.44,0,0,0,7.68,1.37c2.43-1.32,3.76-4.1,5.5-5.12a3.26,3.26,0,0,0,2.91,1.75A7.3,7.3,0,0,0,25.73,92a19.08,19.08,0,0,0,7.2-6.26c.66,1.4,2.57,1.65,4.1,1.39a11.54,11.54,0,0,0,5.68-2.72,3.47,3.47,0,0,1,2-1.18,3.45,3.45,0,0,1,2,.94,12.52,12.52,0,0,0,13.79.44,4.39,4.39,0,0,0,2.68,3.08,7.56,7.56,0,0,0,4.19.32A12.16,12.16,0,0,0,75,83.4c.42,1.19,2,1.51,3.21,1.53a22.3,22.3,0,0,0,12.28-3.34,8,8,0,0,0,6.06,3.84,12.33,12.33,0,0,0,7.17-1.53c.59,2.64,3.76,4,6.43,3.56s4.89-2.23,6.93-4a1.9,1.9,0,0,1,.89-.53,2.26,2.26,0,0,1,1.46.51A10.43,10.43,0,0,0,127,84.52,17,17,0,0,0,134,81a10.78,10.78,0,0,0,13.77,3c1.18,2.77,4.33,4.34,7.35,4.34s5.89-1.29,8.61-3a13.26,13.26,0,0,0,11.18-1.24,1.65,1.65,0,0,1,1-.37,1.71,1.71,0,0,1,1,.66A16,16,0,0,0,185.31,89a3,3,0,0,1,1.15.38,3.29,3.29,0,0,1,.75.87,8,8,0,0,0,7.64,3.14,1.92,1.92,0,0,1,1.32,0,1.79,1.79,0,0,1,.55.61,7.4,7.4,0,0,0,3,2.79,6.43,6.43,0,0,0,5.64-.62,28.83,28.83,0,0,0,4.4-3.63,8.52,8.52,0,0,0,1.45-9.36,3.3,3.3,0,0,1-.39-1c-.12-.89.59-1.64,1.1-2.37a7.35,7.35,0,0,0,.92-6,10.92,10.92,0,0,0-3.34-5.21c-.31-.28-.67-.64-.58-1.05a1.39,1.39,0,0,1,.33-.54,6.65,6.65,0,0,0,.56-7,13.94,13.94,0,0,0-5-5.31c-.42-.29-.9-.66-.9-1.17a2.74,2.74,0,0,1,.25-.83,3.57,3.57,0,0,0-.6-2.67c-1.39-2.63-3.06-5.48-5.89-6.37a3.18,3.18,0,0,1-1.22-.52,2.77,2.77,0,0,1-.59-.94A14.7,14.7,0,0,0,186,34.15a10.3,10.3,0,0,0-10.28-7.61A6.26,6.26,0,0,0,167,20c.13-2.94-2.67-5.36-5.57-5.87s-5.85.39-8.66,1.28a19.9,19.9,0,0,0-4-4.58A6.77,6.77,0,0,0,143,9.41c-1,.3-2.1.92-3.07.49-.7-.31-1.07-1.06-1.52-1.67a5.65,5.65,0,0,0-8.11-.67A8.35,8.35,0,0,0,117,4.83c.34-2.06-1.92-3.79-4-3.75S109,2.36,107.33,3.55a7.33,7.33,0,0,0-10,1.9c.08-1.13-1.34-1.72-2.47-1.77C91,3.59,87.21,5.94,86.09,8.21Z"/><path d="M14.23,136c-5.17-2.28-6.57-11.64-7.66-16.69a53.53,53.53,0,0,1,.79-22.47,1.74,1.74,0,0,1,2.05-1c1.34.37,1.4,1.85,1.05,3C8.6,109,9.56,123.3,15.1,132.11A19.18,19.18,0,0,1,18.79,130c-.75-10.46,0-21.08,3.88-30.92,1.21-3.14,2.33-6.38,4.26-9.17.62-.74,1.19-1.73,2.17-2a.93.93,0,0,1,1,1.27c-.72,1.67-1.46,3.31-2,5a95.83,95.83,0,0,0-5.39,23.49A55.84,55.84,0,0,0,23,130.44c.17,2.55-2.17,3.94-4.25,4.75a4.87,4.87,0,0,1-2.26.55A3.2,3.2,0,0,1,14.23,136Z"/><path d="M8.59,98.26C3.53,97.59,1.65,91.52,4,87.38c.5-1,2-3.27,3.27-2.31a.72.72,0,0,1,.1.92,8.4,8.4,0,0,0-1.27,6.46c2.05,5.36,8.06.9,11-1.31,1.19-1.58,3.07-2.23,3.88.06,3.31.26,6-3.18,8.35-5.14,1.14-.78,2-2.49,3.57-2.3a2.67,2.67,0,0,1,1.71,1.43c1.44,1,3.5.49,5-.13a17.45,17.45,0,0,0,3-1.9c.72-.73,1.57-1.55,2.69-1.37,1.3.19,2.15,1.54,3.15,2.19,2.77,2.32,6.65,1.26,9.49-.34a2.37,2.37,0,0,1,3.28.13c1.64,2.66,4.38,4.56,7.35,2.5a26.83,26.83,0,0,0,4.15-3.2,2.83,2.83,0,0,1,2-.84,14,14,0,0,1,3.21,1.1c3.5,1.3,7.18-.06,10.28-1.76,4.28-3.11,4.81,4.77,12.54,1.86a13.65,13.65,0,0,0,2.46-1c1.39-.53,2.25.83,2.6,2a3.1,3.1,0,0,0,2.4,1.8c3.35.39,6.21-2.22,8.72-4.09,3.9-2,5.72,5,14.59-.52,1.5-1.46,3.12-1.53,4.63,0,1.8,1.58,4.2,2.93,6.66,2.58a10.34,10.34,0,0,0,3.36-1.27,2.27,2.27,0,0,1,3.06,1A8.11,8.11,0,0,0,154.65,87c2.38.19,4.66-1.31,6.54-2.45.91-.78,1.94-1.55,3.21-1.14,1.64.49,3.19,1.42,4.95,1.3a14.53,14.53,0,0,0,5.35-1.75,1.92,1.92,0,0,1,2-.43c1.82,1.31,3.39,3.1,5.6,3.84.78.25,1.6.39,2.37.69a1.52,1.52,0,0,1-.42,2.88c-3.26.23-6.22-2-8.35-4.25-3.65,2.33-8.51,3.1-12.17.4-4.9,5-12.67,5.69-16.75-.65-4.39,3.11-9.85,1.31-13.2-2.41-3.21,2.56-7.51,4.38-11.61,3.06-1.46-.27-2.58-1.66-4-1.89-3.75,3.8-11.93,8.14-14.91,1.29-4.42,2.3-9.85,2.21-13.23-1.82C85,87.14,80.08,87.84,74.6,85c-2.28,2-4.48,4.64-7.63,5.14a7.87,7.87,0,0,1-7.74-3.79c-5.06,2.42-10,3.33-14.21-1.23-3.1,3.11-9,5.78-12.77,2.43-3.09,3.12-8.65,8.9-13.35,6.1C15.87,95.78,12.58,98.65,8.59,98.26Z"/><path d="M200.16,99.11a9.05,9.05,0,0,1-5.37-4.28,9.45,9.45,0,0,1-6.65-.77c-1.67-.88-7.61-5.5-3.8-6.86a2.19,2.19,0,0,1,1.81.94,12.46,12.46,0,0,0,4.49,3.1,7.76,7.76,0,0,0,4.79-.09c1.19,0,1.9,1.08,2.51,2,1.18,1.7,3.23,3.61,5.4,2.41a11.43,11.43,0,0,0,3.89-3.17c.46-.55,1.22-.42,1.74-.8,2.07-2.19,1.54-5.75,1-8.47a3,3,0,0,1-.09-1.42c.18-.85.9-1.4,1.25-2.17,1.58-3.67-.59-7.24-2.58-10.24-1.94-2,.48-4.19.5-6.38.42-3.78-3.12-5.47-5.73-7.22-1.11-2.09-.56-4.82-2.12-6.79C200,47,198.06,46,196.14,45.05c-.93-.66-1.19-1.85-1.69-2.82-1.52-3.19-4.91-4.76-7.95-6.16-1.55-1-2-2.9-3-4.34a8.16,8.16,0,0,0-6.76-3.85c-.67-.09-1.29.21-2,.07-2.52-.76-.76-4.17-2.54-5.66A3.59,3.59,0,0,0,168.56,21c-.89.35-2,1-2.83.2-1.5-1.77,1.27-3.65,2.91-3.88,4.21-.64,7.76,3.3,7.62,7.36,3.75-.54,7.37,1.83,9.43,4.83,1,1.3,1.22,3,2.1,4.32a14,14,0,0,1,10,8.63c5,1.26,7.85,6.25,7.86,11.18,5.48,1.9,8.73,8.4,5.43,13.57,3.55,3.92,5.86,10.58,1.94,15,1,4.18,1.32,11-3.83,12.44C207,97.22,203.77,100,200.16,99.11Z"/><path d="M3.82,87.88C.76,86.23.28,82.22,2,79.39a8.26,8.26,0,0,1,2.7-12.72,9.51,9.51,0,0,1,5.85-11.9c-.18-4.6,2-9.54,6.64-11,.76-4.89,4.3-10.07,9.86-9.18,1.34-4,4.89-7.81,9.45-7.33,2-4.86,7.28-8.59,12.6-6.71,1.71-5.08,7-9.09,12.46-7.3,2.39-4.7,8.86-7.43,13.22-3.66C77.31,6.92,81.67,5.15,85,7.44,87.13,3.25,92.71.17,96.79,3.61,99.34.71,103.88-.66,107,2c3.21-2.1,8-3.21,10.76.25,4.19-2.21,9.89-1.86,12,3,3.63-1.18,7.84-1,9.68,2.9,4.94-2.28,10.56-.67,13.08,4.27,3.1-1.07,6.61-1.84,9.76-.58,2.84,1,7.27,5.71,5.42,8.65a1.34,1.34,0,0,1-1.75.15c-1.52-1.74-2.53-4.1-4.79-5.08a10,10,0,0,0-8.78,1.09c-2.92.59-3.17-3.42-5.17-4.67a6.83,6.83,0,0,0-7.12-.89c-.79.65-1.63,1.21-2.6.49s-.73-1.55-1.28-2.32c-1.52-2.3-4.78-1.89-6.85-.65-1.39.4-2-1-2.41-2a4.26,4.26,0,0,0-3.73-2.6c-1.64,0-3.49.17-4.72,1.36-3.38,1.64-2.7-3.9-8-1.73a4.43,4.43,0,0,0-2,1.32c-1.6,1.42-3.15-.35-4.58-1a5.16,5.16,0,0,0-4.78,2A4.38,4.38,0,0,1,98.32,7a1.8,1.8,0,0,1-1.9.4C95.18,6.75,94.56,5,92.9,5.13,90.31,5,88.51,7.58,87.45,9.62a1.94,1.94,0,0,1-2,1.87c-1.33-.2-1.95-1.82-3.34-2a5.73,5.73,0,0,0-5,2.1c-.56,1.11-1.65,2-3,1.53-1.82-1-3.25-2.57-5.54-1.88a6.49,6.49,0,0,0-3.87,3c-.34,1.13-.94,2.33-2.25,2.47-1.68.05-3.27-1-5-.52-2.62.52-4.51,2.93-5.44,5.29a2.76,2.76,0,0,1-1.39,2.52c-1.78.58-3.24-.93-5.08-.62-3.11.28-5.62,3-6.51,5.81-1.69,3.14-5.07-.84-8.38,4.75-.71,1-.54,2.34-1.42,3.24-1.22,1.27-3.09.33-4.6.7-2.84.67-4.13,4.08-4,6.69-.14,2-2.33,2.39-3.81,3.08A5.1,5.1,0,0,0,14.7,50a10.79,10.79,0,0,0-.93,4.37,2.5,2.5,0,0,1-.38,2.7C11,58.53,8.2,59.43,7.66,62.63c-.38,1.57.54,3,.63,4.53-.09,2.46-3.13,2.9-4.38,4.65a4.32,4.32,0,0,0-.23,4.53c1,.75,2.17,1.73,2,3.13s-1.46,2.34-1.54,3.75,1.22,2.15,2.22,2.9a1.41,1.41,0,0,1-.9,2.26A2.62,2.62,0,0,1,3.82,87.88Z"/><path d="M86.43,16.49c-2-.79,0-2.87,1.09-3.53,2.45-1.74,7-1,7.08,2.56a.8.8,0,0,1-1.55.32c-.3-2.73-3.91-1.9-5.2-.38A1.15,1.15,0,0,1,86.43,16.49Z"/><path d="M128.26,15.91c-.74-.09-.63-.9-.57-1.43a1.81,1.81,0,0,0-.65-1.69,3.56,3.56,0,0,0-3.12-.21c-.48.06-.79.66-1.29.5-1-.64.43-1.56,1.09-1.73,2-.89,5.05-.16,5.34,2.31C129.09,14.42,129.38,15.93,128.26,15.91Z"/><path d="M72,33c-3.32-1,6.32-9,7.47-1.09a.71.71,0,1,1-1.41.1,2.4,2.4,0,0,0-.64-1.56c-1.35-1.09-3.25.27-4.15,1.32C72.89,32.18,72.85,33.08,72,33Z"/><path d="M63.06,23.34c-.51-.46-.13-1.29.14-1.78,1.14-2,4.31-3.37,6-1.36.4.5,1,1.43.28,1.91s-1.08-.35-1.33-.8c-1.14-1.29-3,.09-3.89,1C63.93,22.67,63.72,23.69,63.06,23.34Z"/><path d="M49.26,32.78a.73.73,0,0,1-.26-.84,4.8,4.8,0,0,1,5.15-3.36c1.15.09,3.18,2.58,1.77,3.37-1.21.44-1.12-1.37-2-1.65-1.27-.37-2.52.6-3.31,1.48C50.23,32.15,49.93,33.07,49.26,32.78Z"/><path d="M64.16,44.3c-1.13-.06-2.71-.87-2.54-2.18a.65.65,0,0,1,1.3.14,2.54,2.54,0,0,0,2.3.44.76.76,0,0,1,.85.64C66.16,44.34,64.87,44.3,64.16,44.3Z"/><path d="M78.08,48.74a1.72,1.72,0,0,0-2.18-.62c-.45.25-1.15.39-1.33-.24-.16-1.06,1.25-1.55,2.1-1.61a3.11,3.11,0,0,1,2.62,1.36A.82.82,0,0,1,78.08,48.74Z"/><path d="M142,32.62c-.34-1.51-2.1-1.69-3.34-1.26a11.6,11.6,0,0,0-2,1c-.55.14-.72-.55-.41-.9,1.67-2.23,6.1-2.54,7,.57A.69.69,0,0,1,142,32.62Z"/><path d="M151.18,22.92c-.46-1.48-2.22-1.26-3.14-.37a.56.56,0,0,1-.83.13c-.67-1,1.09-2,1.91-2.23A2.89,2.89,0,0,1,152.44,22a.8.8,0,0,1-.21,1.15A.77.77,0,0,1,151.18,22.92Z"/><path d="M164,31a1.91,1.91,0,0,0-2.93-.91.75.75,0,0,1-.82.36c-1.77-1,1.14-2.46,2.21-2.27a3.07,3.07,0,0,1,3,2.08A.82.82,0,0,1,164,31Z"/><path d="M175.49,38.67c-1.54-.32-3.11-2.17-2.07-3.68a.5.5,0,0,1,.91.35A2.25,2.25,0,0,0,176,37.2.78.78,0,0,1,175.49,38.67Z"/><path d="M187.1,48.36a1.06,1.06,0,0,0-1-.37c-.45.43-1.11-.3-.61-.7a2,2,0,0,1,.88-.45,2,2,0,0,1,1.7.42C188.83,47.85,187.82,49.05,187.1,48.36Z"/><path d="M153.46,41.67a2.32,2.32,0,0,0-2.53-.22.37.37,0,0,1-.55-.14c.07-1.64,3.17-1.75,4-.64C155.05,41.3,154.1,42.3,153.46,41.67Z"/><path d="M171.83,55.18a1.52,1.52,0,0,0-1.14-.14.57.57,0,0,1-.91-.56c.3-1.07,1.86-1.17,2.68-.65A.75.75,0,0,1,171.83,55.18Z"/><path d="M143.16,47.44a3.14,3.14,0,0,0-2.84-.29c-.19.07-.41.16-.59,0-.66-.76.75-1.41,1.37-1.55,1-.27,3.55.1,3.07,1.55A.75.75,0,0,1,143.16,47.44Z"/><path d="M111.21,26.68c-.74-.35-.1-1.24.37-1.54a4.19,4.19,0,0,1,3.8-.69,3.33,3.33,0,0,1,1,.64.63.63,0,0,1-.8,1c-.07-.06-.27-.16-.3-.2a3.49,3.49,0,0,0-3.2.42C111.83,26.49,111.59,26.85,111.21,26.68Z"/><path d="M115.22,39.13c-.72-.24-.3-1.09.07-1.47.55-.71,2.43-1,2.46.2a.69.69,0,0,1-.77.6,1.27,1.27,0,0,0-.61,0C115.89,38.55,115.75,39.27,115.22,39.13Z"/><path d="M98.78,37.51c-1.27-1,2.21-2.64,2.5-1.24.08.83-.89.64-1.41.84C99.51,37.28,99.23,37.77,98.78,37.51Z"/><path d="M94,23c-.89-1.14,3.36-2.67,3.29-1a.63.63,0,0,1-.69.54,3.44,3.44,0,0,0-2.13.44l.05,0A.41.41,0,0,1,94,23Z"/><path d="M85.18,51.86c-2.24-1,.57-3.12,2-2.62a.77.77,0,0,1-.08,1.5,1,1,0,0,0-.63.23A1.08,1.08,0,0,1,85.18,51.86Z"/><path d="M60,51.69c-1.13-1.32,3-2.32,3-.77-.24,1-1.61.14-2.25.69A.53.53,0,0,1,60,51.69Z"/><path d="M35.8,40.23c-2.2-1.62,3.53-3.93,4.85-3.66a3.74,3.74,0,0,1,1.87.55.78.78,0,0,1-.66,1.41,4.87,4.87,0,0,0-4.22.77,1.39,1.39,0,0,0-.57.65A1,1,0,0,1,35.8,40.23Z"/><path d="M36.59,48.61c-1.88-1.25,1.58-2.9,2.77-2.45a.7.7,0,0,1-.25,1.37,1.67,1.67,0,0,0-1.35.49A.91.91,0,0,1,36.59,48.61Z"/><path d="M46.32,52.27c-.42-.33-.06-.87.3-1.08.56-.4,2-.17,1.7.73-.25.56-.7.28-1.13.23S46.63,52.53,46.32,52.27Z"/><path d="M27.91,57.65c-.38-1.25,2.77-2.4,3-1a.59.59,0,0,1-.58.59,2.3,2.3,0,0,0-1.4.3A.54.54,0,0,1,27.91,57.65Z"/><path d="M17.69,61.37c-.87-.47.07-1.4.71-1.52s2-.24,2,.7c-.19,1-1.34.26-2,.58A.58.58,0,0,1,17.69,61.37Z"/><path d="M23.27,50a.54.54,0,0,1,0-.82,2.22,2.22,0,0,1,2.74-.7.62.62,0,0,1-.38,1.18,2,2,0,0,0-.5-.11,1.38,1.38,0,0,0-.77.13C24,49.84,23.68,50.3,23.27,50Z"/><path d="M39.29,58.24c-.56-.52.34-1.22.86-1.31s1.42.14,1.18.82c-.19.44-.61.38-1,.23S39.7,58.55,39.29,58.24Z"/><path d="M28.15,68.16c.72-1.54,2.84-1.85,4.25-1.08A.67.67,0,0,1,32,68.36a3.83,3.83,0,0,0-3.23.39A.49.49,0,0,1,28.15,68.16Z"/><path d="M17.08,75c-1.13-.31-.52-1.27.09-1.78.67-.75,3.95-1.62,4.14-.2-.1,1.11-1.52.5-2.21.75a2,2,0,0,0-1.19.6A.78.78,0,0,1,17.08,75Z"/><path d="M16.79,83.9c-1.17-.75,1.17-2,1.91-2,.55,0,1.53-.14,1.57.63a.6.6,0,0,1-.59.6,3.12,3.12,0,0,0-2.25.49A.51.51,0,0,1,16.79,83.9Z"/><path d="M36.78,75.09c-1.29-.88,1.06-2.15,1.87-2.34s3.69-.35,3.53.93a.62.62,0,0,1-.76.45c-1.25-.42-3-.61-3.83.58h0a.06.06,0,0,0,0,0A.63.63,0,0,1,36.78,75.09Z"/><path d="M47.16,66.36c-.31-.23-.15-.64.11-.83A2.22,2.22,0,0,1,49.61,65a.62.62,0,0,1-.3,1.2,2,2,0,0,0-1.25-.1C47.76,66.21,47.51,66.63,47.16,66.36Z"/><path d="M67.2,60.56A2.32,2.32,0,0,0,65.14,60a2.61,2.61,0,0,0-.69.34c-1.07.16-.59-1.06,0-1.4a2.93,2.93,0,0,1,3.75.48A.77.77,0,0,1,67.2,60.56Z"/><path d="M67.72,68.16a1.94,1.94,0,0,1,2.48-.52.65.65,0,1,1-.72,1.09h0l0,0a2.05,2.05,0,0,0-1.38.1A.5.5,0,0,1,67.72,68.16Z"/><path d="M56.81,77c-1.29-1,1.82-2.23,2.65-1.93a4.15,4.15,0,0,1,1.41.41.69.69,0,0,1-.59,1.25,3.1,3.1,0,0,0-2.87.07A.48.48,0,0,1,56.81,77Z"/><path d="M51.73,46.63c-1.46-1.31,2.2-2.51,3.19-2.26.61.14,1.84.18,1.71,1.06a.6.6,0,0,1-.73.43,3.4,3.4,0,0,0-3.18.42A.74.74,0,0,1,51.73,46.63Z"/><path d="M80.94,59.52a.49.49,0,0,1,0-.68,3.34,3.34,0,0,1,3.62-.45.65.65,0,0,1-.48,1.21,3.06,3.06,0,0,0-2.26-.17C81.53,59.57,81.22,59.8,80.94,59.52Z"/><path d="M97.09,44.56c-1.42-1.28,2.49-2.57,3.46-2.13.73.21,2.26.52,1.82,1.56a.73.73,0,0,1-1,.28,3.34,3.34,0,0,0-3.28-.07C97.81,44.43,97.52,44.82,97.09,44.56Z"/><path d="M87.09,41.44a1.06,1.06,0,0,1,.6-1.89c.9-.34,3.37-.69,3.4.73-.23,1.21-1.63.28-2.4.68A1.06,1.06,0,0,1,87.09,41.44Z"/><path d="M118.55,55.66c-1.07-.75,2.13-2.57,2.9-2.37.8,0,3.57.38,3.26,1.5a.61.61,0,0,1-.77.34,4,4,0,0,0-5,.37A.32.32,0,0,1,118.55,55.66Z"/><path d="M137.68,57.15a2.84,2.84,0,0,0-2-.37c-.39.18-.67.61-1.11.21-.66-.85.81-1.42,1.48-1.49s2.7.2,2.43,1.29A.64.64,0,0,1,137.68,57.15Z"/><path d="M128.16,48.3c-.47-.29-.21-.8.12-1,.62-.65,2.58-.9,2.61.31-.13.85-1,.5-1.58.49C128.9,48,128.57,48.51,128.16,48.3Z"/><path d="M159.94,56.56c-.43-.38-.94-.85-1.56-.72A.89.89,0,0,1,157,54.75c1.2-1,3.15-.31,4,.85A.72.72,0,0,1,159.94,56.56Z"/><path d="M186,66.65a3.48,3.48,0,0,0-3-.85.45.45,0,0,1-.51-.22c-.13-.85,1.19-1,1.82-1,.87,0,3.19.73,2.62,1.92A.63.63,0,0,1,186,66.65Z"/><path d="M196.91,61.1a4.54,4.54,0,0,0-.38-.38l-.11-.09a1.83,1.83,0,0,0-1.29-.29h0a.41.41,0,0,1-.5-.66,2.52,2.52,0,0,1,2.13-.09,2.75,2.75,0,0,1,1,.73C198.22,60.85,197.4,61.61,196.91,61.1Z"/><path d="M200.81,77.71c-.24-.82-.78-1.83-1.78-1.72a.85.85,0,0,1-1.31-.33c-.39-1.37,1.19-1.24,2.05-1,1.14.1,3.26,2.61,1.95,3.44A.69.69,0,0,1,200.81,77.71Z"/><path d="M200,86.33a2.58,2.58,0,0,0-2-1.12c-.45.05-1.22,0-.84-.68a2.82,2.82,0,0,1,3.94,1A.66.66,0,0,1,200,86.33Z"/><path d="M190.67,80a4,4,0,0,0-2.23-1.64A.37.37,0,0,1,188,78a.38.38,0,0,1,.35-.42,3.45,3.45,0,0,1,3.41,1.5C192.31,79.79,191.22,80.67,190.67,80Z"/><path d="M174.21,72.59c-1.06-1.28-2.58-2.79-4.37-2-.36.7-1.37.07-1-.58a2.69,2.69,0,0,1,2.74-.95,5,5,0,0,1,2.87,1.64c.43.51,1.38,1.18.77,1.88A.72.72,0,0,1,174.21,72.59Z"/><path d="M160.15,71.14c-.23-.39.09-.8.36-1.07a2,2,0,0,1,2.47-.21.62.62,0,0,1-.52,1.11c-.47-.23-.94-.4-1.36,0A.51.51,0,0,1,160.15,71.14Z"/><path d="M147.15,63.65a2.63,2.63,0,0,0-3.65-.16.38.38,0,0,1-.69-.3,2.06,2.06,0,0,1,.65-1,3.24,3.24,0,0,1,4.62.62A.64.64,0,0,1,147.15,63.65Z"/><path d="M146.74,74.59a1.56,1.56,0,0,0-1.83-.44A1.1,1.1,0,1,1,143,73a1.15,1.15,0,0,1,1.09-.44,4.34,4.34,0,0,1,1.79-.16,3,3,0,0,1,1.93,1.15A.75.75,0,0,1,146.74,74.59Z"/><path d="M131.62,66.8a1.69,1.69,0,0,0-1.74-.41.89.89,0,0,1-1.56-.87c1.07-1.16,3.14-.84,4.2.21A.7.7,0,0,1,131.62,66.8Z"/><path d="M109.92,70.55c-.8-.38-.19-1.23.25-1.65a2.66,2.66,0,0,1,4.15.54.54.54,0,0,1-.88.61,1.51,1.51,0,0,0-2.39-.23C110.75,70.17,110.49,70.78,109.92,70.55Z"/><path d="M101.22,70.52a3.19,3.19,0,0,0-3.55-.45.66.66,0,0,1-1.21-.48,2.46,2.46,0,0,1,1.25-1,4.09,4.09,0,0,1,4.25.93.64.64,0,0,1,.14.88A.64.64,0,0,1,101.22,70.52Z"/><path d="M100,58.44a4.44,4.44,0,0,0-1.89-1.08,2.59,2.59,0,0,0-1.79.62.53.53,0,0,1-.52.21c-1.2-.76,1.07-1.95,1.8-2a3.49,3.49,0,0,1,3.15,1.35.59.59,0,0,1,.06.77A.58.58,0,0,1,100,58.44Z"/><path d="M82.39,76.09c-1-.76-2.11-1.59-3.38-1.09-.62.07-.89,1-1.51.67a.55.55,0,0,1,0-.93c1.54-1.66,4.33-1.25,5.81.29A.7.7,0,0,1,82.39,76.09Z"/><path d="M201.47,136c-3.12-.28-6.76-1.71-7.64-5a31.76,31.76,0,0,1,0-5.25,93.9,93.9,0,0,0-.67-15.95c-1.11-5.45-2.32-10.77-5.09-15.54a1.29,1.29,0,0,1,.73-1.66c1.9-.52,3.2,1.64,4.05,3,3.51,6.8,4.77,14.61,4.86,22.19,0,3.78.2,7.64-.51,11.37-.36,2.52,3.49,3.44,5.41,3.68,3.79-9.9,4.77-20.69,4.4-31.2a51,51,0,0,0-.41-5.92,2.22,2.22,0,1,1,4.43-.15c.3,11.19-.28,22.54-3.55,33.31C206.55,131.79,205.81,137.38,201.47,136Z"/><path d="M210.4,97.26c-.84-.14-.28-1.61-.45-2.19,0-.74-.24-1.65.19-2.29,1.71-.79.81,3.27.73,4.1A.46.46,0,0,1,210.4,97.26Z"/></g></g></g></g></svg>