<svg xmlns="http://www.w3.org/2000/svg" xmlns:xlink="http://www.w3.org/1999/xlink" viewBox="0 0 262.25 173.78"><defs><style>.cls-1{fill:url(#linear-gradient);}.cls-2{fill:#6b574c;}</style><linearGradient id="linear-gradient" x1="110.67" y1="620.44" x2="235.09" y2="151.62" gradientTransform="matrix(1, 0, 0, -1, 0, 655.31)" gradientUnits="userSpaceOnUse"><stop offset="0" stop-color="#36261c"/><stop offset="1" stop-color="#ff6e14"/></linearGradient></defs><g id="Layer_2" data-name="Layer 2"><g id="Layer_1-2" data-name="Layer 1"><g id="Image_83_copy" data-name="Image 83 copy"><path class="cls-1" d="M206.69,35.89l13.24,8.32c4.62,2.91,9.49,6.09,11.76,11a34.12,34.12,0,0,1,1.92,6.83c4.21,18.78,15.13,35.36,27.34,50.24A16,16,0,0,1,245.53,109a42.55,42.55,0,0,1,2.22,35.26,18.8,18.8,0,0,1-3.27-5.22,50.54,50.54,0,0,1,.68,18.06,8.46,8.46,0,0,1-2.07-3.4,28.52,28.52,0,0,1-3,18.87,44.78,44.78,0,0,0-21.88-31.44c-7.18-4-15.38-6-22.48-10.22A38.76,38.76,0,0,0,207,147.11c-5.85.38-11.63-1.27-17.17-3.18a42.6,42.6,0,0,1-10.72-5c-7-4.89-10.83-13-14.38-20.75l-5.87-12.81c-2.3-5-4.65-10.11-8.39-14.16a26.17,26.17,0,0,0-38.53.1A84.35,84.35,0,0,0,104.26,104c-2.92,6.14-4.69,12.82-8.07,18.73C90.9,132,82.06,138.65,73,144.21a28.05,28.05,0,0,1-7,3.34c-3.27.9-6.74.68-10.12.45a40.78,40.78,0,0,0,12.28-19.71c-10.58,9-26.21,11.06-35.4,21.48-5.08,5.77-7.48,13.35-10.09,21.26a23.13,23.13,0,0,1-2.95-13.62,2.56,2.56,0,0,1-2,1.44A35.78,35.78,0,0,1,17.5,142c-.54,1.63-2.07,3.65-3.5,2.7a2.82,2.82,0,0,1-.93-2.07,97.76,97.76,0,0,1-.88-16.93c.2-5.68,1.18-11.9,5.47-15.63a27.93,27.93,0,0,1-9.15,3.55c-2.58.5-5.78.38-7.15-1.87,13.7-11.86,19.58-30.16,24.7-47.55a46,46,0,0,1,3.76-9.89c4.6-8,13.52-12.41,21.54-16.19,5.59-1.68,9.2-7,12.19-12s6.16-10.46,11.5-12.83c6.67-3,14.42-.15,21.68-.87,10.09-1,18.34-8.64,28.21-11A27.85,27.85,0,0,1,143,3.41c3.38,1.6,6.41,3.87,9.78,5.5a29.28,29.28,0,0,0,15.5,2.78c3.92-.38,7.85-1.55,11.72-.83a24.65,24.65,0,0,1,6.25,2.41c3.66,1.82,7.53,3.82,9.61,7.34,1.53,2.58,1.93,5.76,3.73,8.16C201.58,31.43,205.1,33,206.69,35.89Z"/><path d="M109.32,94.48a32.09,32.09,0,0,1,12.16-10,28,28,0,0,1,6.16-2.09A23.59,23.59,0,0,1,142.41,84a21.06,21.06,0,0,1,10.35,10.57,7.09,7.09,0,0,0-3.44,3.79,25.56,25.56,0,0,0-3.71-2.74,26.92,26.92,0,0,1-6.22,3.74,2.62,2.62,0,0,1-1.7.29c-1.09-.3-1.63-1.84-2.76-1.84a2.5,2.5,0,0,1-2.63,1.91,10.49,10.49,0,0,1-3.41-1c-.58-.22-1.45-.26-1.6.33.4-.61-.74-1.16-1.36-.79s-1,1.11-1.71,1.32c-1.11.32-2-.85-2.84-1.64a10.14,10.14,0,0,0-4.13-2,1.8,1.8,0,0,0-1.29-.06,1.72,1.72,0,0,0-.61.59l-1.91,2.56A7.63,7.63,0,0,1,109.32,94.48Z"/><path d="M128.31,82.3a34.55,34.55,0,0,0-21.29,13,42.82,42.82,0,0,1,11.28-14.5,48.94,48.94,0,0,0-13.75,7.69,76.55,76.55,0,0,0,16.23-18.65,87,87,0,0,1-13.54,11.89,147.31,147.31,0,0,0,14.5-22.67,56.15,56.15,0,0,0-7.82,8.27,38,38,0,0,1,8.83-16.85,23.77,23.77,0,0,0-12.29,12.95,39.66,39.66,0,0,1,12.22-20.33c-9.47,2.29-16.27,10.32-22.39,17.9A46.48,46.48,0,0,1,119,37.27a56.46,56.46,0,0,0-17.86,9.32A35.16,35.16,0,0,1,120.32,32a46.38,46.38,0,0,0-18.79,3.89,100.18,100.18,0,0,0,21.64-13.13A163.47,163.47,0,0,1,101,26.85a56.21,56.21,0,0,0,22.17-8.4,56.57,56.57,0,0,1-15.46,2.31q8.76-3.69,17.36-7.73a34.92,34.92,0,0,0-14,2.25,31.06,31.06,0,0,1,11.6-6.89,18.46,18.46,0,0,0-14.55,3.52,35.53,35.53,0,0,1,19-9.82,29.53,29.53,0,0,1,21,5.89,41.6,41.6,0,0,0-13.76-.77,22.56,22.56,0,0,1,17,10.82,27,27,0,0,0-16.4-3.11c8.68,1.06,14.32,10.66,23,12a34.2,34.2,0,0,1-21.17-5,39.43,39.43,0,0,1,13.74,11.52,24.28,24.28,0,0,0-15.51-5.06,26.56,26.56,0,0,1,15.12,11A21.09,21.09,0,0,0,140.12,36,24.11,24.11,0,0,1,153,49.31a22,22,0,0,0-16-6.27,24,24,0,0,1,9.17,7.81A30.26,30.26,0,0,0,133.68,45a29.42,29.42,0,0,1,12.68,17.84,15.83,15.83,0,0,0-7.73-5.38,34.74,34.74,0,0,1,10.76,16.07,19.51,19.51,0,0,0-13.46-5.18,13.69,13.69,0,0,1,8,8.71,15.23,15.23,0,0,0-12.09-4.75,26.17,26.17,0,0,1,15.48,11.29A28.66,28.66,0,0,0,131.42,81a13.19,13.19,0,0,1,9.92,4.41C136.69,84.05,132,83,128.31,82.3Z"/><path d="M81.91,47.69a72.59,72.59,0,0,1-21,7.67c2.71,1.15,5.81.49,8.68-.18C74.69,54,80.15,52.6,81.91,47.69Z"/><path d="M21.22,166.9a42.11,42.11,0,0,1,18.64-32.18q-1.95,4.09-3.91,8.18c2.41-5.66,9.49-7.18,15.35-9.05a50.78,50.78,0,0,0,13.26-6.51c-2.27,4.68-7,7.64-11.79,9.7s-9.87,3.55-14.16,6.49C30.15,149.34,26.28,159.77,21.22,166.9Z"/><path d="M15,143.29c-2.84-11.63,4.26-24.84,15.54-28.87l-6,9.49c3.13-4.49,8.08-7.26,12.59-10.37s9-7.08,10.06-12.44a17.74,17.74,0,0,1-6.56,13.57,21.93,21.93,0,0,0,8.18-8.13c-1.59,5.87-6.44,10.26-11.48,13.67s-10.56,6.25-14.74,10.67S15.82,141.93,15,143.29Z"/><path d="M3.27,111.54A43.61,43.61,0,0,0,22.9,98.64a19.28,19.28,0,0,1-6.18,8.07A36.84,36.84,0,0,0,35.13,90a29.87,29.87,0,0,1-3.6,8.7,24.13,24.13,0,0,0,7.23-14.5,22.54,22.54,0,0,1-3,11.21C31.31,103,22.93,107.32,15,111.18,11,113.12,6.45,115.1,3.27,111.54Z"/><path d="M97.87,91.75a29.66,29.66,0,0,0-11.42,15.38,14.52,14.52,0,0,1,6-6c-4.15,5.46-5.62,12.42-8,18.87s-6.18,13.08-12.66,15.34a53.6,53.6,0,0,0,11.13-19c1.28-3.84,2.13-7.82,3.62-11.58S90.32,97.34,97.87,91.75Z"/><path d="M88.84,63.85a40.4,40.4,0,0,0-12,14.33,16.38,16.38,0,0,1,7.6-5.35A44.55,44.55,0,0,0,70.73,92.28c1.76-3.25,4.68-5.69,7.58-8L65.87,106.38l6-5.88a34.81,34.81,0,0,1-20.71,16.3c6.47-3.91,10.78-10.59,13.9-17.48s5.28-14.2,8.75-20.92S82.33,65.4,88.84,63.85Z"/><path d="M80.07,27.53a33,33,0,0,0-12.26,8,19.31,19.31,0,0,1,6-2c-6.17,4.64-10.45,11.3-14.6,17.81L65.47,46c-9.1,13-20.88,24.58-35.38,31.08C38,71.46,46,65.68,51.73,57.9c4.2-5.68,7.07-12.24,11.08-18.06S72.43,28.74,80.07,27.53Z"/><path d="M194.5,111.34a33.57,33.57,0,0,1-13-6l4.53,5.2a31.77,31.77,0,0,1-14.92-17.47,3.83,3.83,0,0,0,2.33,1.82L166.32,81l3,4.14A38.64,38.64,0,0,0,154.66,65c3.5-.22,6.79,1.79,9.23,4.31,3.69,3.81,5.89,8.78,8.22,13.54C177.44,93.74,184.2,104.63,194.5,111.34Z"/><path d="M244.35,111.5c-6.76-6.69-16.48-10.46-21.44-18.57-4.09-6.7-4.55-15.82-10.72-20.69a20.55,20.55,0,0,1,3.1,8,16.39,16.39,0,0,0-7.5-6.85,16.09,16.09,0,0,1,5.5,9.28,35.34,35.34,0,0,0-23.35-14.3,50.48,50.48,0,0,1,7.2,5c-6.24-2.72-12.51-5.46-18.2-9.19s-10.83-8.54-14-14.56c3.56,5.65,10.17,8.51,16.48,10.69a149.14,149.14,0,0,0,16.86,4.77c6.54,1.42,13.65,2.57,18.36,7.32,5.77,5.83,6,15.12,10.16,22.2C229.49,99.16,233.86,102.74,244.35,111.5Z"/><path d="M244.07,153.77a35.33,35.33,0,0,0-6.91-18.89A10.16,10.16,0,0,1,238,141a45.48,45.48,0,0,0-9.66-14.35c-2.57-2.58-5.59-5.06-6.53-8.57a17.22,17.22,0,0,0,7.85,6.76c2.18.93,4.59,1.43,6.51,2.82a13.38,13.38,0,0,1,3.07,3.42A30.12,30.12,0,0,1,244.07,153.77Z"/><path d="M221.78,135.08a56.9,56.9,0,0,1-8.39-7.57l3.32,6a44,44,0,0,1-13.79-15.08,14.65,14.65,0,0,0,5,3.34A50.35,50.35,0,0,1,194,100.16,66.33,66.33,0,0,0,208,118.6c3.7,3.43,7.79,6.43,11.25,10.1s6.32,8.18,6.8,13.2A27.21,27.21,0,0,0,221.78,135.08Z"/><path d="M232.25,75.6a41,41,0,0,0-13.39-16,55.89,55.89,0,0,1,3.4,5.59A108.53,108.53,0,0,1,200.1,40.82c5.4,9.91,11,20.11,19.89,27.1A89.5,89.5,0,0,0,232.25,75.6Z"/><path class="cls-2" d="M65.55,67.42A25.45,25.45,0,0,0,54.73,80.13l3.55-4c-3.84,7.59-8.19,15.5-15.56,19.74,5.13-5.11,8.08-12,10.8-18.68A77.07,77.07,0,0,1,45.7,87.23C48,77.26,56.57,69,65.55,67.42Z"/><path class="cls-2" d="M32.65,78a17.63,17.63,0,0,0-5.16,10,32.63,32.63,0,0,1,4-5.89A32.13,32.13,0,0,1,25.4,95.47a22.37,22.37,0,0,0,9.07-15.85,14.55,14.55,0,0,1-2.94,5.94A26.27,26.27,0,0,1,37,75.49C35.35,76.47,33.53,77.13,32.65,78Z"/><path class="cls-2" d="M59.84,117.41a49.29,49.29,0,0,1-10.33,7.78A9.07,9.07,0,0,0,55,123.94,15.45,15.45,0,0,1,44.78,130a22.07,22.07,0,0,0,16.73-10.41A14.79,14.79,0,0,1,55.42,123a21.09,21.09,0,0,0,8.51-10.35C62.93,114.89,61,116.26,59.84,117.41Z"/><path class="cls-2" d="M179.31,35.7a29.53,29.53,0,0,0,6.89,11.82,9,9,0,0,1-2.28-8.88A23.75,23.75,0,0,0,195.3,53.58a15.26,15.26,0,0,1-9.17-4,9,9,0,0,0,4,5.31,13.82,13.82,0,0,1-8.76-6.06,27.07,27.07,0,0,1-3.84-10.17,24.75,24.75,0,0,0,5.26,6.89A19.37,19.37,0,0,1,178.53,28,21.78,21.78,0,0,0,179.31,35.7Z"/><path class="cls-2" d="M96.66,38.73a23.14,23.14,0,0,1-11.9,11.89,17.72,17.72,0,0,0,8.88-3.9,31.65,31.65,0,0,1-4.85,5.16,10.71,10.71,0,0,1-6.5,2.52,20.89,20.89,0,0,0,18.09-16.27c-.45,3.82-4.4,6-7,8.85a23.42,23.42,0,0,0,5.88-16.62C99.16,33.48,97.69,36.36,96.66,38.73Z"/><path class="cls-2" d="M176.93,77a22.3,22.3,0,0,1,6.69,17L184,83.16a50.82,50.82,0,0,0,2.07,10.61,17,17,0,0,0,6.2,8.66,180.32,180.32,0,0,1-7.1-24.2,25,25,0,0,0,1.52,11.7q-1.83-7.82-4.39-15.45a20.09,20.09,0,0,0,.24,9.22,10.41,10.41,0,0,0-2.79-7.19,30.62,30.62,0,0,0-6.09-5A11.91,11.91,0,0,1,176.93,77Z"/><path class="cls-2" d="M230.18,82.7a74.36,74.36,0,0,0,5.18,10.75c.83,1.41,2,3,3.64,2.93a14.18,14.18,0,0,1-3.64-8.26,12.49,12.49,0,0,0,9.06,8.25c-2.39-3-5.45-5.46-7.6-8.64a19.19,19.19,0,0,1-3.28-10.18,19.81,19.81,0,0,0,.71,11.1A25,25,0,0,0,230.18,82.7Z"/><path class="cls-2" d="M165.06,106.39c3,5,6,10.08,7.45,15.73.76,3.07,1.14,6.48,3.36,8.74a45.91,45.91,0,0,1-2.2-15.65,32.19,32.19,0,0,0,13,23.39A103.19,103.19,0,0,1,172,105.48a18.55,18.55,0,0,0,.86,11.19,70.45,70.45,0,0,1-8.75-21.73C162.27,98.71,163.1,103.13,165.06,106.39Z"/><path class="cls-2" d="M101,94.25c-7.49,7.23-6.3,20.48-14,27.5,3-.42,5.43-2.6,7-5.17a30.26,30.26,0,0,0,3-8.42c.32,5.14-2,10-4.32,14.64a35.63,35.63,0,0,0,7.87-23.32l-3.53,7.62C97.87,102.36,100,97.85,101,94.25Z"/><path class="cls-2" d="M50.16,45.17A24.94,24.94,0,0,0,36.09,64.62c2.17-5.09,6.18-9.14,10.09-13.05A25.88,25.88,0,0,0,40.89,63,83.57,83.57,0,0,1,54.82,45.07a27.09,27.09,0,0,0-8.4,6.83A87.28,87.28,0,0,1,58.09,39.05C56.54,40.1,55.86,42.54,50.16,45.17Z"/><path d="M59.26,149c-1.72-.18-4.3,0-5.51-1.4-.57-1,.47-1.93,1.14-2.58C56,144,57.08,143,58.08,141.9A38.28,38.28,0,0,0,63.75,134c1.25-2.46,1.89-4.83,2.91-7.3a1.58,1.58,0,0,1,3,.86c-1.43,7.6-6.41,14-12.35,18.79,10.91.32,21.27-5.81,28.88-13.21,8.61-9.44,12.44-21.9,18-33.13,4.07-7.51,9.74-15.21,18.26-17.79,4.81-1.35,13.25-2.45,17.27,1a.86.86,0,0,1-1.25,1.19c-5.6-1.84-11.75-.68-17,1.49-4.56,2.13-7.94,6-10.81,10C103.12,107.2,100.33,121.1,92,132,85.57,140.92,70.41,149.85,59.26,149Z"/><path d="M9.68,106.86a70.8,70.8,0,0,0,8.8-14.09,121,121,0,0,0,6.61-16.84c1.88-5.8,3.23-12.38,5.85-18.09,3-6.71,9-11.57,15.4-14.9,3.56-1.79,7.24-3.48,10.27-6.13C62,32.53,64.66,26,68.79,20.72c9.6-10.9,21.24-5.37,33.38-6.87,12.33-2.7,16.38-11.63,30-9.8a25.51,25.51,0,0,1,9.53,1.42c.7-1.52-2.8-2.67-4-3.23-6.91-2.8-15-2.76-21.53,1-4.59,2.5-9,5.64-14.15,6.79C89.49,11.6,77.68,6.24,67.42,17c-3.17,3.27-4.89,7.58-7.34,11.36-3.68,6.7-10.78,9-17.19,12.24a35.92,35.92,0,0,0-13.2,11.88c-4.39,6.87-5.79,15.29-8.3,23A101.82,101.82,0,0,1,11,98.5a43.18,43.18,0,0,1-6.24,7.75c-1.15,1-2.4,1.87-3.58,2.85a3.46,3.46,0,0,0,.24,5.39,8.43,8.43,0,0,0,5.9,1.3c5.57-.28,10.36-3.37,14.43-7,4.77-2.32,9.55-4.9,12.85-9.2,4-4.77,5.23-11,6.9-16.8C44,75.38,49,67.8,57.25,66.36c6.45-1.24,13.12-1,19.54-2.62,8.94-1.88,16.58-5.45,21.56-13.46a1.53,1.53,0,0,0-.58-2.06c-1.83-.85-2.62,1.59-3.7,2.61A28.29,28.29,0,0,1,81.9,59.19a59.68,59.68,0,0,1-14.12,2.93c-6.37.55-13.2.35-18.81,3.89-5.25,3.28-8.5,8.93-10.69,14.58-3,10.19-4.32,17.93-14.74,23.25-3.47,1.39-6.18,4-9.47,5.7a17.1,17.1,0,0,1-9.92,2.07A16,16,0,0,0,9.68,106.86Z"/><path d="M119.09,2.14A22.86,22.86,0,0,1,127.44.2c4.85-.41,9.88-.31,14.4,1.52,4.32,1.75,7.86,5,11.27,8.23-2.18-.86-4.2-2-6.3-3.09a45.59,45.59,0,0,0-25.47-4.31"/><path d="M87,43.15c-1-.85,0-2.32.39-3.28a28.83,28.83,0,0,1,9-10.38c7.94-5.6,18.45-4.52,26.83-9a1.25,1.25,0,0,1,1.7.41c.95,1.83-2.49,2.77-3.64,3.56C108,29.29,98.38,26.75,89.2,40.5A14.67,14.67,0,0,0,88,42.73.67.67,0,0,1,87,43.15Z"/><path d="M28.81,78.59C26.57,77,32.79,72,34.12,71c4.39-3,9.32-5.45,12.79-9.61C52,55.28,55.07,48.19,59.54,41.73c4.69-6.67,11-12.63,18.89-15.15.86-.18,1.79-.68,2.66-.39a.87.87,0,0,1-.41,1.61c-24,9.08-20.7,33.58-41.83,44.12a26.74,26.74,0,0,0-5.79,3.91C31.75,76.68,30.57,79.7,28.81,78.59Z"/><path d="M13.85,146.4C11,142.22,10.29,137,9.89,132a33.06,33.06,0,0,1,4.95-19.69c1-1.38,2.08-4,4.14-3.61,1.08.45.53,1.65,0,2.3a37.45,37.45,0,0,0-3.69,30.73c4.63-19.28,21.55-17.14,31.66-34,4.88-8,8.12-16.81,11.56-25.47a1.37,1.37,0,0,1,2.54,1C54.59,98.46,52,113,37.27,122.68c-5.36,3.74-12.16,6.37-15.7,12.11a25.19,25.19,0,0,0-3.38,8.91C18,146,16,148.8,13.85,146.4Z"/><path d="M50.32,117.43a1.06,1.06,0,0,1,.16-1.47c4.26-3.52,8.33-7.16,10.92-12.09,3.72-6.85,5.47-14.46,9.18-21.3,4.71-8.37,11.24-16.13,19.79-20.74a.93.93,0,0,1,1.23.48A1,1,0,0,1,91,63.59,12,12,0,0,0,88.55,65a47.29,47.29,0,0,0-11,11C68,87.31,68.18,104.57,56.06,114c-1.41,1.23-2.82,2.46-4.27,3.65A1.07,1.07,0,0,1,50.32,117.43Z"/><path d="M66.38,111.52c-.69-1.89,2.62-2.25,3.74-3.12,10.25-4.59,14.22-16,18.63-25.38,3.83-7.3,8.27-17.5,16.93-19.76a.9.9,0,1,1,.09,1.68C89.44,73,90.72,99.6,75.08,108.8,72.75,110,70.36,111,68,112.13A1.21,1.21,0,0,1,66.38,111.52Z"/><path d="M107,81.27a.94.94,0,0,1-.36-1.27,35.45,35.45,0,0,0,2.24-5.32,50.79,50.79,0,0,0,1.85-10.46c.84-6.53,3.25-13.22,8.12-17.83,1-.71,2.15-2.17,3.43-1.89a1.1,1.1,0,0,1-.67,2.08c-4.64,3.69-7.25,9.73-8.36,15.38-.86,5.84-.93,12-4,17.24C108.62,80,108.27,81.86,107,81.27Z"/><path d="M72.49,135a1,1,0,0,1-.2-1.34c1.22-1.61,2.4-3.25,3.49-4.91A45,45,0,0,0,80.37,120c4.24-13.43,7-25.23,21.52-31,.59-.25,1,.63.43.91a7.24,7.24,0,0,0-1.53.64C92.3,95.09,87.06,104,84.86,113.19a62.36,62.36,0,0,1-3,9.26c-1.6,4-4.36,7.26-6.85,10.68C74.35,133.87,73.74,135.73,72.49,135Z"/><path d="M21.11,173.33c-5.24-7.61-3.58-19.42-.43-27.61C23,140,28,136.22,31.91,131.64a67.59,67.59,0,0,0,8.65-13.58c.26-.82,1-1.55,1.92-1.18a1.34,1.34,0,0,1,.75,1.72A38.54,38.54,0,0,1,40,126.26c-3.48,7.16-10.12,11.82-14.81,18a32.25,32.25,0,0,0-3.09,23.8c3.07-13.89,9.78-23.3,22.87-29.34,6.9-3.21,14.18-5.81,20.38-10.29.73-.75,2.29-.68,2.33.59-.2,1.56-1.94,2.37-3,3.36-6.15,4.74-14,7.07-20.79,10.52-11.36,5.92-16.31,14.42-19.28,26.49C24.11,171.28,24,175.09,21.11,173.33Z"/><path d="M16.52,160.47c-2.49-8.87,0-18.61,3.84-26.77.45-.83.81-1.92,1.72-2.34,1.73-.11.18,2.08,0,2.9a57.24,57.24,0,0,0-3.42,16.46c-.28,3.09.36,6.09.69,9.12A1.55,1.55,0,0,1,16.52,160.47Z"/><path d="M132,100.93a22.4,22.4,0,0,0-5.34-1.74,2.91,2.91,0,0,1-4.31.79c-1.82-1.26-3.44-2.75-5.5-3.53-2.18,3.41-4.65,4.31-6.75.24-.4-.63-.76-1.27-1.13-1.91a1.15,1.15,0,0,1,1.12-2c1.24,1.06,1.77,2.85,3,3.94a30.5,30.5,0,0,0,2.42-2.09c2.93-1.55,5.91,2.71,8.52,3.62,3-3.08,5.45-.06,8.71.44.77-.29,1.27-1,2.21-1a21.46,21.46,0,0,1,4.14.7,1.05,1.05,0,0,1,.73,1,1,1,0,0,1-.94,1c-1.42.2-2.73-.67-4.13-.68h0A2.57,2.57,0,0,1,132,100.93Z"/><path d="M203,149c1.72-.18,4.3,0,5.51-1.4.57-1-.47-1.93-1.14-2.58-1.09-1.05-2.19-2.09-3.19-3.16a38.28,38.28,0,0,1-5.67-7.94c-1.25-2.46-1.89-4.83-2.91-7.3a1.58,1.58,0,0,0-3,.86c1.43,7.6,6.41,14,12.35,18.79-10.91.32-21.27-5.81-28.88-13.21-8.61-9.44-12.44-21.9-18-33.13-4.07-7.51-9.74-15.21-18.26-17.79-4.81-1.35-13.25-2.45-17.27,1a.86.86,0,0,0,1.25,1.19c5.6-1.84,11.75-.68,17,1.49,4.56,2.13,7.94,6,10.81,10,7.58,11.33,10.37,25.23,18.73,36.14C176.66,140.92,191.83,149.85,203,149Z"/><path d="M261.07,109.11c-1.17-1-2.43-1.84-3.58-2.85a42.75,42.75,0,0,1-6.24-7.75,101.62,101.62,0,0,1-10.4-23.1c-2.51-7.67-3.92-16.09-8.3-23a35.83,35.83,0,0,0-13.2-11.88c-6.41-3.25-13.51-5.54-17.19-12.24-2.45-3.78-4.17-8.09-7.34-11.36-10.26-10.73-22.06-5.37-34.52-6.88-5.18-1.15-9.56-4.29-14.15-6.79A23.93,23.93,0,0,0,128.59,1a15.1,15.1,0,0,1,3.16.88,3.76,3.76,0,0,1,2,1.94c10.79.06,15.17,7.6,26.32,10,12.13,1.5,23.77-4,33.38,6.87,4.13,5.31,6.79,11.81,12.18,16.09,3,2.66,6.71,4.34,10.27,6.13,6.43,3.33,12.35,8.2,15.4,14.9,2.62,5.71,4,12.29,5.85,18.09a122.31,122.31,0,0,0,6.61,16.84,70.8,70.8,0,0,0,8.8,14.09,15.89,15.89,0,0,0,5.55,4.76,17.09,17.09,0,0,1-9.92-2.07c-3.3-1.7-6-4.31-9.47-5.7C228.3,98.53,227,90.78,224,80.6,221.79,75,218.54,69.3,213.29,66c-5.61-3.54-12.43-3.34-18.81-3.89a59.79,59.79,0,0,1-14.12-2.93,28.29,28.29,0,0,1-12.17-8.36c-1.08-1-1.87-3.46-3.7-2.61a1.52,1.52,0,0,0-.58,2.06c5,8,12.62,11.58,21.56,13.46,6.41,1.61,13.09,1.38,19.54,2.62,8.3,1.44,13.26,9,15.76,16.48,1.67,5.81,2.92,12,6.9,16.8,3.31,4.31,8.08,6.88,12.85,9.2,4.08,3.57,8.86,6.67,14.43,7a8.43,8.43,0,0,0,5.9-1.3A3.47,3.47,0,0,0,261.07,109.11Z"/><path d="M175.28,43.15c1-.85,0-2.32-.39-3.28a28.83,28.83,0,0,0-9-10.38c-7.94-5.6-18.45-4.52-26.83-9a1.25,1.25,0,0,0-1.7.41c-1,1.83,2.49,2.77,3.64,3.56,13.25,4.81,22.88,2.27,32.06,16a14.67,14.67,0,0,1,1.23,2.23A.67.67,0,0,0,175.28,43.15Z"/><path d="M233.43,78.59c2.24-1.57-4-6.62-5.31-7.62-4.39-3-9.32-5.45-12.79-9.61-5.12-6.08-8.16-13.17-12.63-19.63-4.69-6.67-11-12.63-18.89-15.15-.86-.18-1.79-.68-2.66-.39a.87.87,0,0,0,.41,1.61c24,9.08,20.7,33.58,41.83,44.12a26.74,26.74,0,0,1,5.79,3.91C230.49,76.68,231.66,79.7,233.43,78.59Z"/><path d="M248.39,146.4c2.87-4.18,3.56-9.43,4-14.38a33.06,33.06,0,0,0-4.95-19.69c-1-1.38-2.08-4-4.14-3.61-1.08.45-.53,1.65,0,2.3A37.45,37.45,0,0,1,247,141.75c-4.63-19.28-21.55-17.14-31.66-34-4.88-8-8.12-16.81-11.56-25.47a1.37,1.37,0,0,0-2.54,1c6.42,15.19,9,29.74,23.74,39.41,5.36,3.74,12.16,6.37,15.7,12.11a25.19,25.19,0,0,1,3.38,8.91C244.27,146,246.2,148.8,248.39,146.4Z"/><path d="M211.92,117.43a1.06,1.06,0,0,0-.16-1.47c-4.26-3.52-8.33-7.16-10.92-12.09-3.72-6.85-5.47-14.46-9.18-21.3C187,74.2,180.42,66.44,171.87,61.83a.93.93,0,0,0-1.23.48,1,1,0,0,0,.59,1.28A12,12,0,0,1,173.69,65a47.29,47.29,0,0,1,11,11c9.55,11.35,9.37,28.61,21.49,38,1.41,1.23,2.82,2.46,4.27,3.65A1.07,1.07,0,0,0,211.92,117.43Z"/><path d="M195.86,111.52c.69-1.89-2.62-2.25-3.74-3.12-10.25-4.59-14.22-16-18.63-25.38-3.83-7.3-8.27-17.5-16.93-19.76a.9.9,0,1,0-.09,1.68C172.8,73,171.52,99.6,187.16,108.8c2.33,1.16,4.72,2.22,7.08,3.33A1.21,1.21,0,0,0,195.86,111.52Z"/><path d="M155.26,81.27a.94.94,0,0,0,.36-1.27,35.45,35.45,0,0,1-2.24-5.32,50.79,50.79,0,0,1-1.85-10.46c-.84-6.53-3.25-13.22-8.12-17.83-1-.71-2.15-2.17-3.43-1.89a1.1,1.1,0,0,0,.67,2.08c4.64,3.69,7.25,9.73,8.36,15.38.86,5.84.93,12,4.05,17.24C153.61,80,154,81.86,155.26,81.27Z"/><path d="M189.75,135a1,1,0,0,0,.2-1.34c-1.22-1.61-2.4-3.25-3.49-4.91a45,45,0,0,1-4.59-8.75c-4.24-13.43-7-25.23-21.52-31-.59-.25-1,.63-.43.91a7.24,7.24,0,0,1,1.53.64c8.49,4.61,13.73,13.54,15.93,22.71a62.36,62.36,0,0,0,3,9.26c1.6,4,4.36,7.26,6.85,10.68C187.89,133.87,188.5,135.73,189.75,135Z"/><path d="M241.12,173.33c5.24-7.61,3.58-19.42.43-27.61-2.27-5.73-7.36-9.5-11.23-14.08a67.59,67.59,0,0,1-8.65-13.58c-.26-.82-1-1.55-1.92-1.18a1.34,1.34,0,0,0-.75,1.72,38.54,38.54,0,0,0,3.24,7.66c3.48,7.16,10.12,11.82,14.81,18a32.25,32.25,0,0,1,3.09,23.8c-3.07-13.89-9.78-23.3-22.87-29.34-6.9-3.21-14.18-5.81-20.38-10.29-.73-.75-2.29-.68-2.33.59.2,1.56,1.94,2.37,3,3.36,6.15,4.74,14,7.07,20.79,10.52,11.36,5.92,16.31,14.42,19.28,26.49C238.13,171.28,238.22,175.09,241.12,173.33Z"/><path d="M245.71,160.47c2.49-8.87,0-18.61-3.84-26.77-.45-.83-.81-1.92-1.72-2.34-1.73-.11-.18,2.08,0,2.9a57.24,57.24,0,0,1,3.42,16.46c.28,3.09-.36,6.09-.69,9.12A1.55,1.55,0,0,0,245.71,160.47Z"/><path d="M130.22,100.93a22.4,22.4,0,0,1,5.34-1.74,2.91,2.91,0,0,0,4.31.79c1.82-1.26,3.44-2.75,5.5-3.53,2.18,3.41,4.65,4.31,6.75.24.4-.63.76-1.27,1.13-1.91a1.15,1.15,0,0,0-1.12-2c-1.24,1.06-1.77,2.85-3,3.94a30.5,30.5,0,0,1-2.42-2.09c-2.93-1.55-5.91,2.71-8.52,3.62-3-3.08-5.45-.06-8.71.44-.77-.29-1.27-1-2.21-1a21.46,21.46,0,0,0-4.14.7,1.05,1.05,0,0,0-.73,1,1,1,0,0,0,.94,1c1.42.2,2.73-.67,4.13-.68h0A2.57,2.57,0,0,0,130.22,100.93Z"/></g></g></g></svg>