<svg xmlns="http://www.w3.org/2000/svg" xmlns:xlink="http://www.w3.org/1999/xlink" viewBox="0 0 250.65 179.66"><defs><style>.cls-1{fill:url(#linear-gradient);}.cls-2,.cls-3{fill:#ba8d86;}.cls-2{isolation:isolate;opacity:0.76;}</style><linearGradient id="linear-gradient" x1="113.54" y1="565.02" x2="297.78" y2="721.77" gradientTransform="matrix(1, 0, 0, -1, 0, 690.62)" gradientUnits="userSpaceOnUse"><stop offset="0" stop-color="#6e413a"/><stop offset="1" stop-color="#d4433b"/></linearGradient></defs><g id="Layer_2" data-name="Layer 2"><g id="Layer_1-2" data-name="Layer 1"><g id="Layer_194" data-name="Layer 194"><g id="Image_88" data-name="Image 88"><path class="cls-1" d="M9.52,73.05a135,135,0,0,0-6.08,60.17,41.82,41.82,0,0,1,5-11.27,90.94,90.94,0,0,0,4.45,27.48,96.14,96.14,0,0,1,4.65-22.63c1,13.58,7,26.22,12.91,38.5,1.09,2.28,2.48,4.8,4.93,5.41l9-22.26L40.7,148a55.47,55.47,0,0,1,5.59-11.06L42,135.38a76,76,0,0,1,7.79-11.29A28.16,28.16,0,0,0,58.87,126a35.75,35.75,0,0,1,3-7.16l5.83,4.07a3.7,3.7,0,0,0,1.8.82c2,.12,2.92-2.87,4.9-3.35a28.16,28.16,0,0,0,5.43,4.48,17.06,17.06,0,0,1,1.9-4,18,18,0,0,0,9.59,3.41c-.49-1.28-1-2.55-1.48-3.83a65,65,0,0,1,9.91,3.08l4.58-.89-2-4.75c6.56,1.14,12.72,3.85,19,6.14s12.85,4.2,19.48,3.6a2.46,2.46,0,0,0,1.16-.32,2.57,2.57,0,0,0,.84-1.66l1.29-5.94a44.71,44.71,0,0,0,8.11,8.21l-.09-2.48a16.65,16.65,0,0,0,5.85,4.18,12.91,12.91,0,0,0,2-4.15,8.42,8.42,0,0,0,5.74,3.59,10.35,10.35,0,0,0-.37-5.18c2,2.44,4.95,3.94,7.82,5.29,3.52,1.65,7.11,3.18,10.74,4.59a26.79,26.79,0,0,0-1-8.11,93.28,93.28,0,0,0,10.81,3.08,20.24,20.24,0,0,0,7.39,3,7.11,7.11,0,0,1,.6-4.24q6,2,12.13,3.41a3.33,3.33,0,0,0-.09-3.25,6.49,6.49,0,0,0,5,.84,78.61,78.61,0,0,1,2.38,47.29,68.64,68.64,0,0,0,21.33-41.72c1.06.77,2.29-.74,2.7-2,4.83-14.49,3.91-30.33.75-45.26-2.08-9.81-5.54-20.06-13.4-26.55a130.78,130.78,0,0,0-32.29-37.26,7.9,7.9,0,0,0-2-1.27c-2.66-1-5.56,1-8.39.7,0-.74-.81-1.18-1.52-1.39a20.58,20.58,0,0,0-6.85-.78,37.38,37.38,0,0,1,7.86-8.12,50.64,50.64,0,0,0-19.86,5.14,1,1,0,0,0-.14-1.27,2.76,2.76,0,0,0-1.22-.64,123.66,123.66,0,0,0-16.63-4.16c.63-.39.39-1.36,0-2a20.71,20.71,0,0,0-5.53-5.51,7.09,7.09,0,0,0-3.31-1.72,6.76,6.76,0,0,0-3.31.71,67.75,67.75,0,0,0-9.62,4.86c.12-.18-.12-.38-.33-.44-1.81-.57-3.77-.11-5.6.4-4.65,1.29-9.21,2.91-14.08,4.59C100.51,16,92,21.05,83.52,26.11a11.79,11.79,0,0,0,.78-4.74,35,35,0,0,1,1.17-7.47,19.87,19.87,0,0,0-5.84,7,12.68,12.68,0,0,0,.44-2.19c-5.45,1.09-10,4.74-14.27,8.27-3.38,2.78-6.77,5.57-10,8.69A28,28,0,0,0,49,41.09C41,49,33.38,57.64,28.74,67.9a2.31,2.31,0,0,1-.55.85,2.22,2.22,0,0,1-1.22.37L16,70.21C14,70.39,10.51,70.14,9.52,73.05Z"/><path class="cls-2" d="M48.32,124.54a261.6,261.6,0,0,0-14.89-24.11,1.43,1.43,0,0,0-.77-.67,1.44,1.44,0,0,0-1,.33,109.55,109.55,0,0,0-13.9,10.55c-4.55,4.06-9,9-9.72,15a24.23,24.23,0,0,0,.19,6.07,84.65,84.65,0,0,0,3.28,14.93,54.17,54.17,0,0,1,3.73-30.07,43.85,43.85,0,0,0-1,9.14A39.92,39.92,0,0,1,29,105.81a67.15,67.15,0,0,0-6.68,26.42,41.29,41.29,0,0,1,6.89-14.73A59.12,59.12,0,0,0,31.6,152,57.26,57.26,0,0,1,34,123.28q.36,7.26.73,14.52c.52-3.66,1.19-7.6,3.84-10.17a58.92,58.92,0,0,0-1,19.46c.1-6.84,1.59-14.24,6.75-18.72l-1.62,6.84C43.79,131.65,45.85,128.38,48.32,124.54Z"/><path class="cls-3" d="M31.39,70.14a25.87,25.87,0,0,0-13.94,2.71,32.38,32.38,0,0,1,8.15,2.53,15.69,15.69,0,0,0-8.52,2.85c4.81-.3,10.08,0,13.74,3.15,2.34,2,3.69,4.89,5,7.68-1.08-2.71-3.78-4.51-6.6-5.25a28.17,28.17,0,0,0-8.7-.42,12.26,12.26,0,0,1,8.8,2.36,27.67,27.67,0,0,0-14.5,7.66l9.52-2.82a27.67,27.67,0,0,0-13.13,20.48c3.66-6.21,9.57-10.8,15.86-14.31a29.6,29.6,0,0,0-6.48,8.36,18.88,18.88,0,0,1,11.61-4.78A7.32,7.32,0,0,0,29,101.91l3.66-1.51a3.63,3.63,0,0,1,1.6-.39,3.46,3.46,0,0,1,2.29,1.58c5,6.31,6.84,14.57,11.12,21.39a4.35,4.35,0,0,0,1.16,1.36,4.67,4.67,0,0,0,1.3.55l7.2,2.25c.62.19,1.42.34,1.82-.17a1.57,1.57,0,0,0,.24-1c0-2.26.13-5,2.13-6.07-2.81-4.87-4.58-10.26-7.06-15.31-1.78-3.63-3.92-7.07-6-10.51L41.67,83.31a90.43,90.43,0,0,0-7.19-10.45C33.14,71.24,31.32,69.57,31.39,70.14Z"/><path class="cls-3" d="M37.84,68.9a85.66,85.66,0,0,1,8.6-17.47,37.2,37.2,0,0,0-1.33,14.35,26.42,26.42,0,0,1,8.08-14.56c-2.64,6.8-3,14.31-2.19,21.55S54,87,56.25,94A54.42,54.42,0,0,1,45.58,74.19c-.32,6.93,2.45,13.59,5.17,20C41.61,86.46,36.22,73.41,37.84,68.9Z"/><path class="cls-3" d="M71.08,102.09c-3.22-2-5-5.61-6.45-9.09a140.68,140.68,0,0,1-6.58-19.61A52.34,52.34,0,0,0,66.59,89a49.71,49.71,0,0,1-4.76-20.83c2.55,12.2,5.46,25.11,14.19,34A36.19,36.19,0,0,1,64.16,88.89,33.54,33.54,0,0,0,71.08,102.09Z"/><path class="cls-3" d="M66.85,74.09c-2.57-7.37-5.18-15-4.58-22.78.8-10.45,7.19-19.52,13.36-28a164,164,0,0,0-7.82,24.19l6.94-12.8a57.74,57.74,0,0,0-3.54,41.35c-3-6.5-3.88-13.76-4.72-20.88A48,48,0,0,0,70.1,82.92"/><path class="cls-3" d="M82.38,87.38a107.29,107.29,0,0,1-6.8-37.69,66.63,66.63,0,0,0,5.1,18.79,36.37,36.37,0,0,1-.81-16.94,96.64,96.64,0,0,0,16.85,54A69.14,69.14,0,0,1,81.85,78.14c1,10.13,5.44,19.63,10.87,28.23C87.53,100.61,84.6,93.32,82.38,87.38Z"/><path class="cls-3" d="M95.92,48.19a96.71,96.71,0,0,0,1.59,19.36,45,45,0,0,1,1.31-18.42,83.12,83.12,0,0,0,3.81,33.73,72.2,72.2,0,0,1-.73-20.65,105.65,105.65,0,0,0,10.94,44c-4.54-5-6.85-11.59-9-18l5.06,17.33A113.33,113.33,0,0,1,96.1,62"/><path class="cls-3" d="M110.44,50.72a62.39,62.39,0,0,1,6.13-19,28.87,28.87,0,0,1,3.74-5.82c3.1-3.58,7.42-5.82,11.63-8A50.43,50.43,0,0,0,119,37.45a13.93,13.93,0,0,1,5.83-7.53C116.44,41.75,115,57,113.92,71.5A81,81,0,0,1,117.75,36c-6.62,12.07-7,26.47-7.12,40.24A75.54,75.54,0,0,1,110.44,50.72Z"/><path class="cls-3" d="M87.19,62.16a83.12,83.12,0,0,1-3.66-20,9.54,9.54,0,0,1,.2-3.2,9.18,9.18,0,0,1,1.33-2.51,72.35,72.35,0,0,1,17.39-17.95L94.81,28a57,57,0,0,1,18.33-11.76C102.65,23.86,91.64,32.11,87,44.18"/><path class="cls-3" d="M121.36,115.54a99.38,99.38,0,0,1-6-35.78l4,15.95c-.72-7.19-1.42-14.62.78-21.5a95.41,95.41,0,0,0,6.7,41.83,68.48,68.48,0,0,1-7.83-20.34A128.38,128.38,0,0,0,121.36,115.54Z"/><path class="cls-3" d="M129.06,82.11a91,91,0,0,1,1-20.72,7.19,7.19,0,0,1,.76-2.54,7.32,7.32,0,0,1,1.63-1.75,325.79,325.79,0,0,1,28.34-21.87,106.19,106.19,0,0,0-22.5,23.28,24.84,24.84,0,0,1,11.05-7.39,70.3,70.3,0,0,0-16.86,24.6,98.76,98.76,0,0,1,5.88-16.07c-5.37,4.44-7.46,11.78-7.75,18.74s.91,13.91.75,20.88C129.73,95.82,129.71,91.9,129.06,82.11Z"/><path class="cls-3" d="M127.74,44.84a57.09,57.09,0,0,1,13.87-23.42,23.82,23.82,0,0,0-4.17,8.75,39.27,39.27,0,0,1,23.32-15.52,92.1,92.1,0,0,0-20.55,18.09,39,39,0,0,1,13.94-9.35c-13.08,7.7-22.14,21-27.24,35.34a58.6,58.6,0,0,1,9.82-23.48c-7.27,6.45-10.11,16.4-12.62,25.79C124.34,54.93,126.45,49.12,127.74,44.84Z"/><path class="cls-3" d="M137.9,91.27c2.53-9.16,8.68-16.94,15.76-23.28s15.14-11.46,22.75-17.14a225.72,225.72,0,0,0-24,26A30.28,30.28,0,0,1,164,69.08c-11.14,8.53-17.69,21.69-22.67,34.8a64.64,64.64,0,0,1,5.17-22.54c-7.34,11.67-11,25.22-14.56,38.54C131.11,109.44,135.6,99.58,137.9,91.27Z"/><path class="cls-3" d="M165.26,45.73c8-8.58,19.08-13.58,29.82-18.38q-4.83,3.3-9.34,7a37.74,37.74,0,0,1,14.65-4.16,105.37,105.37,0,0,0-34.22,22.72,61.75,61.75,0,0,1,16.43-15.8c-9.82,5.23-19.16,12.48-23.68,22.65C160.47,53.45,163.51,47.6,165.26,45.73Z"/><path class="cls-3" d="M157.6,87.22a126.3,126.3,0,0,1,33.48-21.6,6.42,6.42,0,0,1,2.16-.65,6,6,0,0,1,2.45.53,36.17,36.17,0,0,1,20,19.19,53,53,0,0,0-15.91-11.91,25.4,25.4,0,0,1,9.5,9.47,44.61,44.61,0,0,0-26.54-8.84,58.39,58.39,0,0,1,10.75,3.71c-6.95-1.19-14.14,1-20.16,4.71s-11.06,8.73-16,13.73c4.31-8,11.5-14.11,18.89-19.45-11.66,5.25-20.58,15-28.54,25.06A39.38,39.38,0,0,1,157.6,87.22Z"/><path class="cls-3" d="M165.35,110.67c10.26-9.44,24-14,37.2-18.37a53.83,53.83,0,0,1-12,6.75,26.9,26.9,0,0,1,13.22-1.81c-14.36,3.57-27.35,11.22-39.63,19.48,5.94-7.56,14.6-12.41,23-17.06L170,107.55C166.63,109.07,163.14,110.73,165.35,110.67Z"/><path class="cls-3" d="M241,117.12l-8.94-31A39.06,39.06,0,0,1,239.8,97L237,83.34a79.87,79.87,0,0,0,3.7,7.62,87,87,0,0,0-4.81-23.44c2.85,5.13,5.72,10.3,7.52,15.89,2.35,7.26,2.83,15,3.16,22.6.41,9.62.55,19.47-2.53,28.59q-3.53-13.55-6.15-27.29"/><path class="cls-3" d="M164.65,68.8C175.36,59.13,188.1,52,201,45.46a1.84,1.84,0,0,1,2.61.19,75,75,0,0,1,14.78,17.67A69.22,69.22,0,0,0,203,51.84a28.66,28.66,0,0,1,3.58,5.23,29.59,29.59,0,0,0-9.82-5.48q-10.86,5.85-21.17,12.62c4.32-4.87,10.1-8.17,15.86-11.2A134.93,134.93,0,0,0,164.65,68.8Z"/><path d="M141.47,129.26c-12.61.22-25.08-3.93-36.38-9.24,4.49,8.41-10.74,4.33-14.2,2.53.34,1,1.24,1.89.67,3-1.67,2.74-8.93-1.81-10.72-3.29-.29,1.17.86,2.3.13,3.38-1.69,2.1-5.65-1.84-6.89-3.15A2.63,2.63,0,0,0,72.9,124a2.61,2.61,0,0,1-2.17,1.68c-3.3.24-6.51-2.12-8.8-4.28a8.24,8.24,0,0,0-.51,3.47,3.2,3.2,0,0,1-2,2.68c-2.66,1-5.51.13-8-.81-1.64-.84-5.23-1.2-4.5-3.76a1.8,1.8,0,0,1,2.09-1.11c3.07.89,6,3,9.33,2.49.28-2.61.73-7.35,4.49-6.29,2.75,1.1,4.72,3.77,7.63,4.52,1-1.64,2.64-3.81,4.76-2.86a20.42,20.42,0,0,1,3,2.2c.46-6.1,6.83-.37,9.55.84-.94-1.88.17-4.36,2.49-3.79,1.06.28,2.08.74,3.15,1,3,1.08,6,2.14,9.25,2.11-1.26-1.87-3-6.48.61-6.64,1.92.44,3.63,1.83,5.45,2.55,2.13,1,4.32,1.8,6.51,2.62a121.59,121.59,0,0,0,13.73,4.25,113.09,113.09,0,0,0,12.67,2.24A1.11,1.11,0,1,1,141.47,129.26Z"/><path d="M182.77,135.47a84.81,84.81,0,0,1-16.39-9.32c.53,1.52.83,4.39-1.59,4-1.47-.5-2.57-1.75-3.93-2.49.1,2.5-1.15,4.63-3.83,3.14-1.32-.79-2.41-1.9-3.65-2.81a1.76,1.76,0,0,1-3.09,1.16c-2.08-2.06-3.86-4.39-5.79-6.58a23.31,23.31,0,0,1-1.08,5.83,1.17,1.17,0,0,1-1.09.54c-1.25-.18-1.31-1.67-1.32-2.66,0-2.53.66-9,4.51-6.4,2,1.73,3.4,4,5.13,6a1.54,1.54,0,0,1,2.14-1.49c2,1.06,3.38,2.69,5.22,3.86-.06-.88,0-1.71-.09-2.57.51-3.52,4.09-.41,5.55.7-.36-1.5-1.48-4.35,1-4.49,2.5.59,4.4,2.83,6.68,4,3.68,2.23,7.48,4.25,11.35,6.13-.71-2.41-3.36-8.68,1.33-8.17,2.53.7,4.73,2.3,7.13,3.33,2.88,1.22,5.83,2.32,8.81,3.28.16-1.66-.57-4,1.75-4.31,3.59-.08,6.94,1.78,10.34,2.72a1.54,1.54,0,0,1,.68-2.54,7.47,7.47,0,0,1,3,.39c1.65.67,5.72.42,5.48,2.91-.74,2.05-3.32.68-4.76.26,1.65,2-.17,3.61-2.34,2.93-3.69-.88-7.15-2.53-10.83-3.42.18,3.38-1.63,5.12-4.94,3.91a61.59,61.59,0,0,1-13.16-5.6C185.64,130.35,187.88,136.52,182.77,135.47Z"/><path d="M220.11,179.62c-2.53-.65-1.75-3.58-1.13-5.39a89.11,89.11,0,0,0,2-10.34,93.64,93.64,0,0,0-3.22-36.57c-.39-1-.19-2.67,1.25-2.16a3.29,3.29,0,0,1,1.14,1.67,41.28,41.28,0,0,1,2.17,7.21,88.36,88.36,0,0,1,.72,39.13c5.66-6.77,9.84-14.66,13.35-22.73,5.41-13.14,3.69-27.78.22-41.06-.82-2.94-1.77-5.84-2.76-8.72a1.55,1.55,0,0,1,2.85-1.18c9.52,18.82,11.64,41.72.31,60.24C234.68,163.85,224.87,180.49,220.11,179.62Z"/><path d="M239.47,150.3c-2-1.25.24-3.62.69-5.2a78.85,78.85,0,0,0,4.09-15c3.74-18.19,2.86-37.51-4.28-54.73-2.11-5.32-5.14-10.06-8.08-14.82.78-3.06,5.76,4.1,6.44,5.09,11.19,16.33,13.84,36.93,11.58,56.24a78.94,78.94,0,0,1-5.57,22.38C243.34,145.91,241.83,151.43,239.47,150.3Z"/><path d="M34.68,172.4c-3.92-1.82-6.37-6.22-8.53-9.71A74.43,74.43,0,0,1,17.87,121a1.36,1.36,0,0,1,1.4-1.09c1.61.15,1.28,2.1,1.4,3.26.45,14.72,3.73,34.83,14.69,45.42,1.78-6.65,5-12.79,8.11-18.87-2.27.8-6.16,1.19-5-2.45a88,88,0,0,1,6.13-10c-2.6.62-5.26-.45-3.52-3.41a65.37,65.37,0,0,1,6.09-8.68c.68-.87,2.86-3.43,3.36-1.18a10.18,10.18,0,0,1-1.61,2.84c-1.69,2.53-3.25,5.14-5,7.65,4-.57,5,1,3,4.48-1.44,2.68-3.1,5.24-4.67,7.84,6.54-2.09,5.57,2,3.43,6.35-1.13,2.51-2.26,5-3.37,7.53-1.32,3.06-2.44,5.65-3.52,8.68C38.38,171.44,37,173.2,34.68,172.4Z"/><path d="M13.74,154c-2-.55-2.36-3-3.07-4.66a57.32,57.32,0,0,1-3.36-22.23c.32-2.54.71-4.83.92-7.32a1.28,1.28,0,1,1,2.56.16c-.69,7.95-.43,16.37,1.81,24C13,133.42,16.25,123,21,113.71a1.13,1.13,0,0,1,1.74,1.42c-2.55,7.77-5.16,15.58-6.18,23.74A85.17,85.17,0,0,0,15.94,149C16,150.8,16.61,154.28,13.74,154Z"/><path d="M3.85,136.26c-2.87-.81-3-6.65-3.48-9.17-1.14-11.72.53-23.54,2.8-35C4.32,86.48,5.79,81,7.47,75.57c1.94-8.25,12.43-7,18.91-7.18,5.5-.53,9.2,3.24,12.14,7.4a137.73,137.73,0,0,1,9.24,14.73c1.13,2,2.08,4.09,3.16,6.11a1.25,1.25,0,0,1-2.17,1.25c-.75-1.23-1.59-2.41-2.38-3.62C44.1,90.75,42,87.17,39.73,83.63c-2.9-4.22-5.26-9.62-9.89-12.14-1.54-.51-3.07-.13-4.62-.15-4,.22-8.18-.14-12,1.24-1.84.65-2.68,2.34-3,4.14-.64,2.21-1.29,4.46-1.88,6.66C4.66,98.12,1.85,113.8,4,128.9c1.94-9.66,8.44-17.71,16.13-23.58,3.26-2.29,12.39-9.57,16-5.85a66.56,66.56,0,0,1,7.43,12.74,1.13,1.13,0,1,1-1.91.72c-2.1-3.56-4.55-6.89-6.83-10.34a11.25,11.25,0,0,0-.94-1.32,2.73,2.73,0,0,0-1.06.09c-3.51,1.15-6.35,3.29-9.28,5.39a49.61,49.61,0,0,0-13,14,35.57,35.57,0,0,0-3.9,11C6.13,133.43,6.33,136.56,3.85,136.26Z"/><path d="M92.3,77.77c-1.77-1.52-2-4.26-2.86-6.37a99.22,99.22,0,0,1-3-13.75c-.85-6.38-2.63-11.95,1.86-17.48,5-6.94,11.54-12.5,18.06-17.88a157.65,157.65,0,0,1,24.93-17c3-1.65,6.05-3.25,9.19-4.63a5.85,5.85,0,0,1,7.39,1.68,30,30,0,0,1,4.83,6.79,1.73,1.73,0,0,1-.53,2.19,1.71,1.71,0,0,1-2.38-.41c-1.22-1.69-4.82-8-7-7.53a159.67,159.67,0,0,0-14.51,7.84c-10.89,6.8-33.75,23.5-39,34.71-1,2.95.12,6.12.2,9.14a119.54,119.54,0,0,0,2.2,14.21c.48,2.28,1,4.55,1.52,6.83C93.44,76.81,93.31,78.12,92.3,77.77Z"/><path d="M123,81a1.23,1.23,0,0,1-1.18-1.26c-.15-4.93-.19-9.86-.34-14.62-.24-11.26-.21-22.88,3.19-33.72C127.2,26,131.54,22,135.33,17.56c3.38-3.43,7.43-7.46,12.5-7.7a56.39,56.39,0,0,1,6.73.79c1.81.25,19,3.51,16.51,5.89a1.93,1.93,0,0,1-1.4,0c-4-.79-8-1.72-12-2.49-2.39-.44-4.78-.82-7.19-1.13-2.24-.46-4.31-.42-6.23,1-4.3,2.6-7.46,6.59-10.67,10.37-2.05,2.78-5,5-6.31,8.3-3.62,11.45-3.08,23.68-3.24,35.55,0,3.88.12,7.75.22,11.62A1.23,1.23,0,0,1,123,81Z"/><path d="M109.12,96.75C107,88,104.29,79.24,103.28,70.32a71.36,71.36,0,0,1,6.91-38.22c1.86-4.42,5.8-7.1,9.5-9.86a116.5,116.5,0,0,1,10.09-6.88,82.18,82.18,0,0,1,11.3-5.75.54.54,0,0,1,.78.27.53.53,0,0,1-.46.71,95.42,95.42,0,0,0-13.59,7.83c-4.66,3.48-10,6.21-14,10.46C105.52,42,103.69,58.2,105.92,73.26c1.42,7.74,3.25,15.41,5.29,23A1.07,1.07,0,0,1,109.12,96.75Z"/><path d="M136.77,44a1.07,1.07,0,0,1-.34-1.45,56,56,0,0,1,3.15-5c9.91-13.9,32.53-25.72,49.52-26.66.48,0,1.52,0,1.25.73a8,8,0,0,1-2.69,1.06c-16.4,4.45-32,12.5-44.23,24.3a51.94,51.94,0,0,0-3.83,4.7C138.77,42.47,138.24,44.68,136.77,44Z"/><path d="M157.9,63.16a1.14,1.14,0,0,1-.57-1.48c1.68-4.18,3.47-8.32,5.16-12.49,4.73-12.81,11.8-24.93,22-34.13a47.11,47.11,0,0,1,4.61-3.86A1.27,1.27,0,0,1,190,11c1.67.69-.79,2.18-1.32,2.89a108.7,108.7,0,0,0-19.55,26.92c-3.59,7.12-6.74,14.44-9.7,21.84A1.14,1.14,0,0,1,157.9,63.16Z"/><path d="M129.28,102.09c-1.64-12.69-2.65-25.63,0-38.27.49-2.06.83-4.27,2-6.08a54.22,54.22,0,0,1,4.3-4.41c6-5.94,12.72-11.07,19.4-16.2a50.86,50.86,0,0,1,11.69-7.56.53.53,0,0,1,.79.15.5.5,0,0,1-.27.7,37.12,37.12,0,0,0-5.82,3.89h0l0,0q-14.14,11.9-27.9,24.28c-2.1,3.15-2,7.26-2.55,10.89a124.74,124.74,0,0,0-.42,15.46c.22,5.68.56,11.31,1.16,17A1.21,1.21,0,0,1,129.28,102.09Z"/><path d="M131.24,116.47c-1.74-.19-.58-3.11-.78-4.3.1-5.22,1.79-10.54,3.58-15.34,3-7.9,6.73-15.79,12.19-22.3a157.35,157.35,0,0,1,23.88-20.84c1.22-1,11.45-7.46,11.2-4.43a74.69,74.69,0,0,0-13.4,9c-4.91,4-9.47,8.47-14,12.85-2.5,2.45-5.35,4.83-7.41,7.64A100.64,100.64,0,0,0,136.2,98.39a61.79,61.79,0,0,0-3.85,15.93C132.25,115.13,132.42,116.47,131.24,116.47Z"/><path d="M140.27,116.45c-2-.06,3.68-11.29,4.28-12.38,8.07-15.3,12.63-20,27.15-29.34A193.37,193.37,0,0,1,188.56,65c3.83-2.48,8.41-.63,11.86,1.64A56.3,56.3,0,0,1,218,88.94c.46,1.12.94,2.24,1.42,3.36a1.06,1.06,0,0,1-.5,1.31,1.08,1.08,0,0,1-1.44-.45,91.4,91.4,0,0,0-4.77-9.11C208.6,77.81,201.43,68.64,194,66.73c-2.19-.65-4.12.77-6,1.71q-4.41,2.37-8.71,5a194.51,194.51,0,0,0-17.27,11.84c-8.09,6.2-12.82,15.46-17.87,24.07-1.19,2.21-2.25,4.5-3.29,6.77A.58.58,0,0,1,140.27,116.45Z"/><path d="M153.85,83.62a1,1,0,0,1,.25-1.42c3.74-2.91,7.57-5.72,11.4-8.52,7.59-5.74,15.34-11.41,24.31-14.82,5.37-1.82,12.18-3.77,17.61-1.4a99.11,99.11,0,0,1,20,14c1.56,1.32,11.46,10.83,8.9,12.16-.69.13-1.07-.69-1.45-1.12-4.3-5.33-9.94-9.76-15.38-13.61-4.68-3.21-9.29-6.66-14.36-9.2-4.19-1-8.55.2-12.57,1.2-9.81,3-18.19,8.87-26.35,14.86-3.67,2.66-7.31,5.35-10.89,8.13A1,1,0,0,1,153.85,83.62Z"/><path d="M82.42,32.19a1.25,1.25,0,0,1-.91-1.51c.67-2.26,1.38-4.71,3.09-6.42a74,74,0,0,1,9.66-6c10.95-6.1,22.71-11.4,35.23-12.68.76,0,1.69-.19,2.27.41.65,1-.65,1.46-1.44,1.54-14.61,2.73-28.11,9.29-40.77,16.86C88.33,25.23,86.83,25.8,86,27a32.39,32.39,0,0,0-2.08,4.42A1.29,1.29,0,0,1,82.42,32.19Z"/><path d="M89.39,73c-4-9.68-8.51-19.43-9.9-29.92-.11-4.43,1-8.82,1.58-13.18a95.23,95.23,0,0,1,4.19-16.52c.27-.85,1-2.79,2-1.62.3.71-.15,1.48-.25,2.2-1.67,7-2.56,14.13-3.73,21.22-.87,4.33-1.2,8.68.11,13,1.46,6,3.47,12,5.46,17.86.77,2.07,1.61,4.1,2.46,6.14a1.07,1.07,0,1,1-2,.86Z"/><path d="M69.68,87.25C66.5,76.92,57,58,61.87,47.88,66.94,36.54,74.07,26.4,81.4,16.44c.91-1,4.9-7.19,5.76-4.3,0,.6-.51,1-.84,1.49-2.71,3.38-5.08,7-7.49,10.6a178.17,178.17,0,0,0-12.2,20.91c-1.85,3.26-3.54,6.54-2.81,10.41.84,7.94,3.26,15.6,5.7,23.18q1.32,3.9,2.72,7.77a1.34,1.34,0,0,1-.9,1.66A1.37,1.37,0,0,1,69.68,87.25Z"/><path d="M39.18,81.55c-1.38-1.66-1.6-4.08-2.17-6.12-.42-2.55-1.31-5.12-1-7.72,2.14-9.94,7.9-18.95,13.74-27.09,1.81-2.82,4-5.32,7.31-6.42A82.52,82.52,0,0,1,66,31.29c1.69-.63,4.13-.47,4.13,1.83a8.5,8.5,0,0,1-1.29,3.6c-1.5,3-3,6-4.66,8.87-1,2.47-.87,5.28-.72,7.89C63.8,57,64.31,60.6,65,64.12a1.21,1.21,0,1,1-2.38.38c-.39-2.21-.79-4.41-1.27-6.61-2.74-9.7,1.7-15.71,5.7-24-4.08,1.37-8.32,2.38-12,4.6-1.84,1.35-2.73,3.56-4,5.41-4.68,7.57-9.68,15.28-12,24C38,69.89,43.15,83.22,39.18,81.55Z"/><path d="M86.51,112.51c-6.8-1.87-14.68-2.62-19.94-7.77a60.53,60.53,0,0,1-4.82-8c-4.48-8.35-15.17-26.82-12.34-36.07,1-3.24,1.93-6.5,3-9.7.58-1.07.87-3.81,2.51-3.29a1.1,1.1,0,0,1,.32,1.83,104,104,0,0,0-3.61,12.68c-.44,4.79,1.61,9.38,3,13.83a125.29,125.29,0,0,0,9,18.65c2.15,3.26,3.41,7.45,6.79,9.69a47.39,47.39,0,0,0,10.16,4.51c2.1.63,4.23,1.16,6.37,1.64a1,1,0,0,1,.76,1.26A1.07,1.07,0,0,1,86.51,112.51Z"/><path d="M97.61,115.09c-6-8.36-12.7-16.47-16.5-26.14a103.71,103.71,0,0,1-6.5-26.26A67.71,67.71,0,0,1,74.11,47c.16-.71,0-2.15,1-2.09.77.24.24,1.09.29,1.65-.19,7.63,1.34,15.19,2.91,22.61,2.11,9.2,4.88,18.34,9.21,26.76A149.59,149.59,0,0,0,99.4,113.66,1.15,1.15,0,0,1,97.61,115.09Z"/><path d="M110.47,112.23c-4.09-10-8.72-19.75-11.56-30.16a123.45,123.45,0,0,1-3.86-33.9.65.65,0,0,1,.71-.57c.62.07.6.74.54,1.19a140.63,140.63,0,0,0,8.51,45c1.48,4,3.06,8,4.7,12,.8,1.94,1.62,3.88,2.46,5.8a.82.82,0,0,1-1.5.67Z"/><path d="M53.78,38.53C51.25,36.38,66.3,24.47,68.46,23.22a62.31,62.31,0,0,1,9.63-5.51,3.83,3.83,0,0,1,2.29-.54,1.11,1.11,0,0,1,0,2.09c-7.21,4-14.28,8.42-20.45,14a39.25,39.25,0,0,0-4.09,4.31C55.34,38.14,54.65,39.15,53.78,38.53Z"/><path d="M27.24,71.09c-1.63-.69-.89-2.55-.24-3.7A93,93,0,0,1,33.65,56c5.67-8.31,12.58-16.59,21.54-21.35,1.36,0,1.34,1.4.35,2C48.16,43.19,41.21,50.24,36.06,58.5a97.46,97.46,0,0,0-5.87,9.89C29.63,69.64,29,71.75,27.24,71.09Z"/><path d="M52.82,116.27c-6.5-9.69-13.28-20.59-20.49-29.08-3.19-4-5.7-3.19-10.28-3.22-1.87,0-3.74,0-5.61.08a.68.68,0,0,1-.8-1.08c1.9-.84,4.13-.82,6.19-1,4.48-.17,8.31-.94,11.45,3,6,6.64,10.72,14.26,15.45,21.8,1.84,2.88,3.72,5.73,5.6,8.58A.88.88,0,0,1,52.82,116.27Z"/><path d="M32.26,154c-1.33-9.75-2.52-19.94.76-29.39a5.25,5.25,0,0,1,4.59-3.52,26.58,26.58,0,0,1,5.32-.71,1,1,0,0,1,0,2.06,24.35,24.35,0,0,0-5.3.46,3.12,3.12,0,0,0-3.14,2.1c-2.73,7.25-2.21,15.21-1.64,22.77.18,2,.44,4,.73,6A.69.69,0,0,1,32.26,154Z"/><path d="M160.49,114a1,1,0,0,1,.18-1.62c1.63-1.25,3.24-2.55,4.9-3.77a91.16,91.16,0,0,1,16.64-10c6.16-2.88,12.74-4.68,19.17-6.86a.89.89,0,0,1,.51,1.71c-9.9,3.26-19.67,6.79-28.56,12.26a119.87,119.87,0,0,0-11.41,7.95A1,1,0,0,1,160.49,114Z"/><path d="M235.13,83.18c-1.35-5.9-2.19-11.93-3.57-17.83a0,0,0,0,0,0,0,.18.18,0,0,0,0,.05A37.34,37.34,0,0,0,229,57c-2.74-4.66-6.25-8.64-9.55-12.88-2.92-3.66-19.55-23.24-23.54-20.94-8.18,3.37-16.33,6.92-23.89,11.54a.79.79,0,0,1-1.08-.32c-.39-1.62,3.45-3.79,4.61-4.71a102.43,102.43,0,0,1,12.09-6.59c3.4-1.29,6.84-3.89,10.6-3.34,2.42.74,4.34,2.53,6.32,4a80.77,80.77,0,0,1,10.85,10.31c6,6.93,12.15,14.07,16.51,22.19,2.48,6.25,3.36,13,4.53,19.61a53.45,53.45,0,0,1,.82,6.9,1.08,1.08,0,0,1-.91,1.09A1.05,1.05,0,0,1,235.13,83.18Z"/><path d="M164.79,69.14c-1-.72,1.33-2.15,1.75-2.75,5.62-5.13,12-9.35,18.26-13.64q5.3-3.54,10.76-6.82c2.18-1.22,4.6-3.45,7.18-2,6.47,3.28,10.52,9.65,15,15.09,1.35,1.67,2.71,3.34,4.06,5,.69,1,2.48,2.29,1.17,3.47a1.28,1.28,0,0,1-1.77-.2c-4-5-8.12-10-12.37-14.85-2.54-2.58-4.82-5.48-8.22-6.7h.15c-2.45.5-4.42,2.41-6.61,3.59-6.42,4-12.85,8-19,12.26-3.25,2.26-6.5,4.64-9.53,7.22C165.41,69.07,165.13,69.34,164.79,69.14Z"/><path d="M191.64,23.47a63.57,63.57,0,0,0-6.9-1.55c-1.05-.19-2.1-.29-3.16-.39-.51-.07-1.09-.38-1.07-1,.36-3.08,10-.34,12,.38A1.34,1.34,0,0,1,191.64,23.47Z"/><path d="M228.43,162.09a1.23,1.23,0,0,1-.85-1.5,100.61,100.61,0,0,0,4.73-23.22c1.17-16.33-3.38-32.45-8.53-47.77-.14-.58-1-1.37-.25-1.8a.48.48,0,0,1,.62.21,32.17,32.17,0,0,1,2.31,4.67c7.18,18.08,11.92,38,6.73,57.26q-1.49,5.69-3.27,11.3A1.22,1.22,0,0,1,228.43,162.09Z"/></g></g></g></g></svg>