<svg xmlns="http://www.w3.org/2000/svg" viewBox="0 0 202.35 140.42"><defs><style>.cls-1{fill:#3d3f40;}</style></defs><g id="Layer_2" data-name="Layer 2"><g id="Layer_1-2" data-name="Layer 1"><g id="Layer_192" data-name="Layer 192"><g id="Image_86" data-name="Image 86"><path class="cls-1" d="M50.55,13.89C30.63,26.43,14.35,45.29,6.8,67.59s-5.83,48,6.39,68.11a117.47,117.47,0,0,1,2.06-36.31,13.45,13.45,0,0,1,2.16-5.56c2.21-2.84,6.13-3.61,9.11-5.62,6.46-4.36,7.32-13.42,11.42-20a2.44,2.44,0,0,1,.91-1,2.54,2.54,0,0,1,1.59,0,259.22,259.22,0,0,0,74,4.54,168.79,168.79,0,0,0,42.24-7.23,5.05,5.05,0,0,1,2.81-.31,4.45,4.45,0,0,1,1.83,1.24,28.6,28.6,0,0,1,7.3,11.84,6.73,6.73,0,0,0,1.81,3.46,7.79,7.79,0,0,0,2.44,1c4.63,1.52,8.19,5.42,10.31,9.81s3,9.27,3.67,14.09a243.53,243.53,0,0,1,2.38,28.54c7.41-6.66,9.77-17.25,10.46-27.19,1.58-22.78-3.83-46.42-17.35-64.82C169,24,148.55,11.91,126.85,5.84a109.09,109.09,0,0,0-27-4.2C79.47,1.2,59.39,8.33,50.55,13.89Z"/><path d="M13.18,139c-3.56-5.13-2.86-39.66.7-45.08,2.95-3.53,7.29-5.72,11.16-8.21a24.29,24.29,0,0,0,3-2A14.73,14.73,0,0,0,29.92,80c1.74-4.3,3.13-8.71,4.8-13,1.05-3,4.73-2.57,7.3-1.83a178.07,178.07,0,0,0,33.13,5.49,217.33,217.33,0,0,0,49-.55,148.66,148.66,0,0,0,35.5-7.85c2.58-.61,4.33,2.83,2,4.29a26.83,26.83,0,0,1-4.52,1.57c-12.77,4-26,5.81-39.33,7.11-20.78,2-41.78.4-62.32-2.9-5.71-.86-11.44-2.93-17-3.83-.93,3.24-2,6.44-3.12,9.63-1.07,2.71-1.77,5.7-3.64,8a9.43,9.43,0,0,1-3.35,2.18c-3.58,2.29-7.33,4.43-10.48,7.24-1.18,1-1.11,2.51-1.13,3.87-.06,1.12-.29,2.74-.36,3.73-.59,6.09-1,12.19-1.19,18.3-.17,4.54-.18,9.08-.14,13.62C15,136.38,15.53,140,13.18,139Z"/><path d="M187,137.51c-.81-10.06-1.45-20.33-2.66-30.34-.91-5.13-1.46-18.47-7.5-20-8.24-2.79-9.22-3.14-12.68-10.8-1.43-2.88-2.81-5.78-4-8.76-.38-1.1-1-2.28-.63-3.46,2.75-4,6,4,7.13,5.93,1.73,3.26,2.89,6.78,4.66,10a33.17,33.17,0,0,0,8.95,3.86c2.54.91,4.06,3.25,5.13,5.5,3.4,8.59,3.81,18,4.92,27,.61,6.94,1.53,14,1.28,20.91A2.44,2.44,0,0,1,187,137.51Z"/><path d="M11.36,139.63a21.18,21.18,0,0,1-1.1-1.92c-.81-1.45-1.52-3-2.19-4.47-1.05-2.33-2-4.7-2.89-7.09a81.65,81.65,0,0,1-2.81-9.64A93.85,93.85,0,0,1,.55,105.74,90.45,90.45,0,0,1,.87,83.2,94.48,94.48,0,0,1,7,60.76,86.62,86.62,0,0,1,12,50.4a95.53,95.53,0,0,1,6.54-9.93,102.52,102.52,0,0,1,16.2-17A98.3,98.3,0,0,1,55,10.46,103.69,103.69,0,0,1,77.66,2.52L78,2.45c.43-.13.91-.19,1.33-.28C80,2,80.8,1.86,81.57,1.72c3.17-.59,6.37-1,9.57-1.31A109.4,109.4,0,0,1,104.93.08h.15A105.09,105.09,0,0,1,129.47,3.9a108.22,108.22,0,0,1,21.59,8.69,97.42,97.42,0,0,1,10,6.13,102.36,102.36,0,0,1,9,7.09,94.82,94.82,0,0,1,15.35,17.26c1.86,2.7,3.6,5.48,5.19,8.31v0l.08.14.05.08a89.59,89.59,0,0,1,4.73,9.83,94.57,94.57,0,0,1,3.75,10.93c.65,2.38,1.21,4.79,1.66,7.21s.75,4.79,1,6.91a95.26,95.26,0,0,1,.49,11.07,78.06,78.06,0,0,1-1,11.11,83,83,0,0,1-6.59,22.14c-.78,1.67-1.61,3.32-2.51,4.94a23,23,0,0,1-1.25,2c-.38.56-1,1.47-1.82,1.21h0a1.25,1.25,0,0,1-.36-.15c-.87-.59-.24-1.79,0-2.52.35-.93.73-1.85,1.11-2.77.83-2,1.62-4.11,2.25-6l.13-.4c.72-2.17,1.41-4.34,2-6.54s1.17-4.7,1.63-7.08c.39-2.14.74-4.3,1-6.46s.4-4.49.49-6.67l0-.64A87.67,87.67,0,0,0,195,75a95,95,0,0,0-3.61-11.6.14.14,0,0,1,0-.06l-.05-.13a98.34,98.34,0,0,0-5.23-11,85.51,85.51,0,0,0-5.74-8.83,103.51,103.51,0,0,0-8.08-9.55,105.78,105.78,0,0,0-8.92-8.18l-.07-.06,0,0a102.39,102.39,0,0,0-9.89-6.93,104.11,104.11,0,0,0-10.93-5.8,106.8,106.8,0,0,0-12-4.48h0a110.16,110.16,0,0,0-12.36-2.93,107.87,107.87,0,0,0-13.06-1.37,107.23,107.23,0,0,0-12.8.33c-3.19.3-6.37.72-9.52,1.28l-2.3.44-.92.19c-.22.06-.45.11-.68.15a113.33,113.33,0,0,0-12,3.45,99,99,0,0,0-22,11,103.46,103.46,0,0,0-9.72,7.42,97.89,97.89,0,0,0-8.15,8,94.32,94.32,0,0,0-7.23,9.25A105.34,105.34,0,0,0,13,57.21l-.11.22h0a87.12,87.12,0,0,0-4.4,10.64A94.26,94.26,0,0,0,5.37,79.84,94.28,94.28,0,0,0,4,92.25a92.34,92.34,0,0,0,.31,12.11,89.59,89.59,0,0,0,2,11.81l.05.23a99,99,0,0,0,3.8,12.07,1.17,1.17,0,0,0,.05.11v0c.69,1.73,1.43,3.43,2.22,5.12.34.73.71,1.44,1,2.17s.63,1.21.9,1.84c0,.11.09.21.13.32a1.66,1.66,0,0,1-.69,2.12,1.77,1.77,0,0,1-.91.24A1.81,1.81,0,0,1,11.36,139.63Z"/></g></g></g></g></svg>