<svg width="24" height="24" viewBox="0 0 24 24" fill="none" xmlns="http://www.w3.org/2000/svg">
<path fill-rule="evenodd" clip-rule="evenodd" d="M16.1946 1.99979H7.6019C4.24211 1.99979 1.98242 4.37979 1.98242 7.91979V16.0898C1.98242 19.6198 4.24211 21.9998 7.6019 21.9998H16.1946C19.5544 21.9998 21.8042 19.6198 21.8042 16.0898V7.91979C21.8042 4.37979 19.5544 1.99979 16.1946 1.99979Z" fill="#CDCDD0"/>
<path fill-rule="evenodd" clip-rule="evenodd" d="M11.0255 8.1893C11.0255 8.6713 11.413 9.0643 11.8878 9.0643C12.3764 9.0643 12.7649 8.6713 12.7649 8.1893C12.7649 7.7073 12.3764 7.3143 11.8977 7.3143C11.417 7.3143 11.0255 7.7073 11.0255 8.1893ZM12.7549 11.3621C12.7549 10.8801 12.3654 10.4871 11.8877 10.4871C11.41 10.4871 11.0205 10.8801 11.0205 11.3621V15.7821C11.0205 16.2641 11.41 16.6571 11.8877 16.6571C12.3654 16.6571 12.7549 16.2641 12.7549 15.7821V11.3621Z" fill="#040415"/>
</svg>
