<svg width="24" height="24" viewBox="0 0 24 24" fill="none" xmlns="http://www.w3.org/2000/svg">
  <path fill-rule="evenodd" clip-rule="evenodd" d="M11.3465 20.2891L11.3465 11.8111C11.3465 11.4189 11.662 11.1006 12.0507 11.1006C12.4394 11.1006 12.7549 11.4189 12.7549 11.8111L12.7549 20.2891C12.7549 20.6813 12.4394 20.9996 12.0507 20.9996C11.662 20.9996 11.3465 20.6813 11.3465 20.2891" fill="#3BA935"/>
  <path fill-rule="evenodd" clip-rule="evenodd" d="M6.6511 11.8109C6.6511 11.6783 6.68772 11.5475 6.75908 11.432L11.4546 3.91364C11.5842 3.70712 11.8086 3.58111 12.0509 3.58111C12.2931 3.58111 12.5175 3.70712 12.6471 3.91364L17.3427 11.432C17.4788 11.6508 17.4873 11.9274 17.3624 12.1539C17.2384 12.3812 17.0028 12.5214 16.7464 12.5214L7.3553 12.5214C7.09897 12.5214 6.8633 12.3812 6.73936 12.1539C6.68021 12.0468 6.6511 11.9284 6.6511 11.8109" fill="#3BA935" transform="rotate(180 12 8)"/>
</svg>
