<svg width="22" height="26" viewBox="0 0 22 26" fill="none" xmlns="http://www.w3.org/2000/svg">
<path d="M16.1708 0.0130114C16.1155 -0.0487386 14.1249 0.0373864 12.3926 1.91751C10.6604 3.79601 10.9269 5.95076 10.9659 6.00601C11.0049 6.06126 13.4359 6.14739 14.9878 3.96176C16.5396 1.77614 16.226 0.0763864 16.1708 0.0130114ZM21.556 19.0791C21.478 18.9231 17.7779 17.0739 18.1224 13.5184C18.4669 9.96289 20.8443 8.98626 20.8816 8.88064C20.919 8.77501 19.9115 7.59689 18.8439 7.00051C18.0598 6.58045 17.1924 6.33958 16.304 6.29526C16.1285 6.29039 15.5191 6.14089 14.2663 6.48376C13.4408 6.70964 11.5801 7.44089 11.0683 7.47014C10.5548 7.49939 9.02725 6.62189 7.38438 6.38951C6.333 6.18639 5.21825 6.60239 4.42038 6.92251C3.62413 7.24101 2.10963 8.14776 1.05013 10.5576C-0.00937349 12.9659 0.544751 16.7814 0.941252 17.9676C1.33775 19.1539 1.95688 21.0941 3.00988 22.5111C3.94588 24.1101 5.18738 25.22 5.70575 25.597C6.22413 25.974 7.68663 26.2243 8.70063 25.7059C9.51638 25.2054 10.9886 24.9178 11.5704 24.9389C12.1505 24.96 13.2945 25.1891 14.4661 25.8148C15.394 26.1349 16.2715 26.0016 17.1506 25.6441C18.0298 25.285 19.3021 23.9233 20.7874 21.1624C21.3507 19.8786 21.6069 19.1842 21.556 19.0791Z" fill="black"/>
<path d="M16.1708 0.0130114C16.1155 -0.0487386 14.1249 0.0373864 12.3926 1.91751C10.6604 3.79601 10.9269 5.95076 10.9659 6.00601C11.0049 6.06126 13.4359 6.14739 14.9878 3.96176C16.5396 1.77614 16.226 0.0763864 16.1708 0.0130114ZM21.556 19.0791C21.478 18.9231 17.7779 17.0739 18.1224 13.5184C18.4669 9.96289 20.8443 8.98626 20.8816 8.88064C20.919 8.77501 19.9115 7.59689 18.8439 7.00051C18.0598 6.58045 17.1924 6.33958 16.304 6.29526C16.1285 6.29039 15.5191 6.14089 14.2663 6.48376C13.4408 6.70964 11.5801 7.44089 11.0683 7.47014C10.5548 7.49939 9.02725 6.62189 7.38438 6.38951C6.333 6.18639 5.21825 6.60239 4.42038 6.92251C3.62413 7.24101 2.10963 8.14776 1.05013 10.5576C-0.00937349 12.9659 0.544751 16.7814 0.941252 17.9676C1.33775 19.1539 1.95688 21.0941 3.00988 22.5111C3.94588 24.1101 5.18738 25.22 5.70575 25.597C6.22413 25.974 7.68663 26.2243 8.70063 25.7059C9.51638 25.2054 10.9886 24.9178 11.5704 24.9389C12.1505 24.96 13.2945 25.1891 14.4661 25.8148C15.394 26.1349 16.2715 26.0016 17.1506 25.6441C18.0298 25.285 19.3021 23.9233 20.7874 21.1624C21.3507 19.8786 21.6069 19.1842 21.556 19.0791Z" fill="black"/>
</svg>
