<svg width="31" height="31" viewBox="0 0 31 31" fill="none" xmlns="http://www.w3.org/2000/svg">
<path d="M19.6794 14.9375C20.8175 14.9375 21.7794 15.725 22.0485 16.7816C22.0658 16.8526 22.0666 16.9267 22.0509 16.9981C22.0352 17.0695 22.0034 17.1364 21.9579 17.1937C21.9124 17.2509 21.8544 17.297 21.7884 17.3284C21.7224 17.3599 21.65 17.3758 21.5769 17.375H20.8269C20.8912 17.1429 20.9008 16.899 20.8551 16.6625C20.8093 16.426 20.7094 16.2033 20.5632 16.0119C20.417 15.8204 20.2285 15.6655 20.0123 15.5591C19.7962 15.4527 19.5584 15.3978 19.3175 15.3988C19.1126 15.3978 18.9095 15.4375 18.72 15.5157C18.5305 15.5938 18.3585 15.7089 18.2139 15.8541C18.0692 15.9994 17.9549 16.1719 17.8775 16.3617C17.8002 16.5515 17.7613 16.7547 17.7632 16.9597C17.7632 17.1069 17.7819 17.2456 17.8194 17.375H17.6797C17.6208 17.3754 17.5625 17.3628 17.5089 17.3381C17.4554 17.3134 17.408 17.2772 17.37 17.2321C17.3321 17.187 17.3045 17.1341 17.2894 17.0771C17.2742 17.0201 17.2717 16.9605 17.2822 16.9025C17.3918 16.3478 17.6909 15.8484 18.1282 15.4899C18.5656 15.1314 19.1139 14.9361 19.6794 14.9375ZM8.95159 16.7816C9.08709 16.2435 9.40165 15.7675 9.84357 15.4319C10.2855 15.0963 10.8285 14.9211 11.3832 14.9351C11.9379 14.949 12.4714 15.1513 12.8958 15.5087C13.3203 15.8661 13.6105 16.3573 13.7188 16.9016C13.7294 16.9597 13.7271 17.0195 13.7119 17.0767C13.6968 17.1338 13.6691 17.1869 13.6311 17.2321C13.593 17.2774 13.5454 17.3136 13.4917 17.3383C13.438 17.363 13.3795 17.3756 13.3203 17.375H13.1816C13.2191 17.2456 13.2369 17.1069 13.2369 16.9597C13.2369 16.0916 12.5432 15.3988 11.6816 15.3988C11.4408 15.398 11.2031 15.453 10.9871 15.5594C10.7711 15.6658 10.5826 15.8208 10.4365 16.0122C10.2904 16.2037 10.1906 16.4263 10.1449 16.6627C10.0992 16.8991 10.1089 17.1429 10.1732 17.375H9.42315C9.35003 17.3758 9.2777 17.3599 9.21168 17.3284C9.14565 17.297 9.08768 17.2509 9.04219 17.1937C8.9967 17.1364 8.96489 17.0695 8.94918 16.9981C8.93348 16.9267 8.93431 16.8526 8.95159 16.7816Z" fill="#333333"/>
<path d="M18.4205 16.9597C18.4204 16.7844 18.4726 16.613 18.5705 16.4675C18.6108 16.5706 18.7111 16.6437 18.8273 16.6437C18.8868 16.6431 18.9445 16.6237 18.9922 16.5882C19.04 16.5527 19.0752 16.503 19.0929 16.4463C19.1106 16.3895 19.1099 16.3286 19.0908 16.2723C19.0717 16.2159 19.0353 16.1671 18.9867 16.1328C19.1555 16.0665 19.3406 16.0534 19.5171 16.0955C19.6935 16.1375 19.8528 16.2325 19.9736 16.3678C20.0944 16.5031 20.1709 16.6722 20.1927 16.8523C20.2146 17.0323 20.1807 17.2147 20.0958 17.375H18.5236C18.457 17.2466 18.4217 17.1043 18.4205 16.9597ZM11.6817 16.0728C11.8349 16.0724 11.9856 16.1116 12.1191 16.1867C12.2526 16.2618 12.3645 16.3701 12.4437 16.5012C12.523 16.6323 12.567 16.7816 12.5715 16.9347C12.5759 17.0879 12.5407 17.2395 12.4692 17.375H10.8951C10.8292 17.2465 10.7945 17.1042 10.7939 16.9597C10.7939 16.7984 10.837 16.6466 10.913 16.5162C10.9453 16.5672 10.9934 16.6062 11.05 16.6272C11.1066 16.6483 11.1685 16.6502 11.2263 16.6328C11.2841 16.6154 11.3346 16.5795 11.3701 16.5307C11.4056 16.4819 11.4242 16.4228 11.423 16.3625C11.423 16.3217 11.4143 16.2814 11.3973 16.2444C11.3803 16.2073 11.3555 16.1744 11.3245 16.1478C11.4371 16.0983 11.5587 16.0728 11.6817 16.0728ZM9.50014 13.5312L8.90296 12.8141C8.71187 12.9714 8.59114 13.1983 8.56732 13.4447C8.55552 13.5667 8.56787 13.6898 8.60367 13.8071C8.63946 13.9243 8.69799 14.0334 8.77592 14.128C8.85386 14.2226 8.94966 14.3009 9.05786 14.3585C9.16607 14.4161 9.28456 14.4518 9.40657 14.4636C9.65297 14.4874 9.89875 14.4124 10.0898 14.255L10.0926 14.2522L10.103 14.2447C10.1208 14.2316 10.1526 14.2091 10.1986 14.1791C10.2923 14.1228 10.4367 14.0412 10.628 13.9653C11.1472 13.763 11.7114 13.7047 12.2611 13.7966C12.5055 13.8351 12.7552 13.775 12.9553 13.6294C13.1554 13.4838 13.2894 13.2647 13.328 13.0203C13.3665 12.7759 13.3064 12.5262 13.1608 12.3261C13.0152 12.126 12.7961 11.992 12.5517 11.9534C11.673 11.8095 10.7717 11.905 9.94264 12.23C9.68727 12.3303 9.44157 12.4536 9.20858 12.5984C9.11535 12.6566 9.02494 12.7192 8.93764 12.7859L8.91702 12.8028L8.90858 12.8094L8.90577 12.8122L8.90389 12.8131C8.90389 12.8131 8.90296 12.8141 9.50014 13.5312ZM22.0026 12.8141C22.1834 12.9744 22.2949 13.1986 22.3138 13.4395C22.3327 13.6805 22.2574 13.9193 22.1039 14.1059C21.9503 14.2925 21.7304 14.4122 21.4904 14.44C21.2503 14.4679 21.0089 14.4015 20.8167 14.255L20.8036 14.2447C20.6396 14.1322 20.4635 14.0385 20.2786 13.9653C19.7593 13.763 19.1951 13.7047 18.6455 13.7966C18.5244 13.8156 18.4008 13.8107 18.2817 13.782C18.1626 13.7533 18.0503 13.7015 17.9513 13.6294C17.8522 13.5573 17.7683 13.4664 17.7043 13.3619C17.6404 13.2574 17.5977 13.1413 17.5786 13.0203C17.5595 12.8993 17.5644 12.7757 17.5931 12.6566C17.6218 12.5375 17.6737 12.4252 17.7457 12.3261C17.8178 12.227 17.9087 12.1431 18.0132 12.0792C18.1177 12.0152 18.2338 11.9725 18.3548 11.9534C19.2336 11.8094 20.1349 11.9049 20.9639 12.23C21.277 12.3537 21.5236 12.4897 21.698 12.5984C21.7912 12.6566 21.8816 12.7192 21.9689 12.7859L21.9895 12.8028L21.998 12.8094L22.0008 12.8122L22.0026 12.8141ZM15.5001 23.2194C14.7605 23.2194 14.0658 23.0628 13.4826 22.7881C13.283 22.6972 13.0683 22.9006 13.1939 23.0628C13.6814 23.7284 14.5317 24.1719 15.5001 24.1719C16.4686 24.1719 17.3189 23.7284 17.8064 23.0628C17.932 22.8941 17.7173 22.6972 17.5176 22.7891C16.8849 23.0789 16.1961 23.2261 15.5001 23.2203" fill="#333333"/>
<path d="M23.9254 6.10438L24.6754 6.47751C25.9879 7.13094 26.7379 8.62251 26.4566 10.2078L25.7076 14.0684C26.3585 14.417 26.8922 14.9498 27.2416 15.6003C27.591 16.2508 27.7406 16.99 27.6718 17.7252C27.6029 18.4603 27.3186 19.1588 26.8544 19.7331C26.3903 20.3074 25.7669 20.7319 25.0626 20.9534L24.8957 23.4378L24.8938 23.4594C24.5704 27.0294 21.7391 29.5625 18.3482 29.5625H12.7344C9.23943 29.5625 6.5113 27.02 6.18786 23.4594L6.18599 23.4369L6.0238 20.9797C5.30773 20.7735 4.66928 20.3588 4.18988 19.7883C3.71048 19.2179 3.41186 18.5175 3.3321 17.7766C3.25234 17.0358 3.39505 16.2879 3.74204 15.6285C4.08904 14.969 4.62457 14.4279 5.28036 14.0741L4.51161 10.1141C4.32411 8.62251 5.07411 7.13094 6.38755 6.47751L7.13755 6.10438C7.6063 5.82501 8.07505 5.45188 8.5438 5.07876L10.2322 3.30688C11.2635 2.37501 12.7644 2.09563 14.0769 2.74813C15.0259 3.0275 16.0352 3.0275 16.9841 2.74813C18.3904 2.28219 19.9851 2.65438 21.111 3.68094L22.5172 5.07876C22.8922 5.54563 23.361 5.82501 23.9235 6.10438M23.6788 13.5538C23.7179 13.0523 23.7063 12.5482 23.6441 12.0491C23.3657 11.6928 23.1726 11.2297 23.1726 10.7666V10.2359C22.8777 9.50643 22.4661 8.82977 21.9538 8.23251C20.7069 7.95594 18.5385 7.59688 15.5769 7.59688C12.5676 7.59688 10.3776 7.96719 9.14005 8.24563C8.65965 8.82111 8.26898 9.46589 7.9813 10.1581V10.7675C7.9813 11.2709 7.82849 11.7744 7.4563 12.1419C7.39855 12.6114 7.38318 13.0852 7.41036 13.5575L7.47599 14.5484C7.4877 14.7233 7.45017 14.898 7.36764 15.0526C7.28512 15.2072 7.16091 15.3355 7.00911 15.4231L9.31255 22.25C9.4063 22.7188 9.9688 22.8125 10.2501 22.5313L11.0001 21.875C11.6563 21.3125 12.4063 21.125 13.1563 21.125H14.8129C14.6643 21.1266 14.5175 21.093 14.3844 21.027C14.2513 20.961 14.1357 20.8644 14.047 20.7452C13.9584 20.626 13.8991 20.4875 13.8742 20.3411C13.8492 20.1946 13.8593 20.0443 13.9035 19.9025L14.8316 16.9306C15.0407 16.2734 15.9688 16.2734 16.1685 16.9306L17.0966 19.9025C17.14 20.0443 17.1494 20.1943 17.1241 20.3404C17.0988 20.4866 17.0395 20.6247 16.951 20.7437C16.8625 20.8626 16.7472 20.9591 16.6146 21.0254C16.4819 21.0916 16.3355 21.1258 16.1872 21.125H17.8438C18.6876 21.125 19.4376 21.3125 20.0001 21.875L20.7501 22.5313C21.0313 22.8125 21.5938 22.625 21.6876 22.25L24.0622 15.4316C23.9151 15.3425 23.7952 15.2147 23.7159 15.062C23.6365 14.9094 23.6006 14.7379 23.6122 14.5663L23.6797 13.5622L23.6788 13.5538ZM5.18755 17.375C5.18738 17.8292 5.35208 18.268 5.65107 18.61C5.95006 18.9519 6.363 19.1737 6.81318 19.2341L6.64161 16.3138L6.64536 16.4403C6.29568 16.4403 5.99099 16.2659 5.78849 15.9997C5.59882 16.175 5.44752 16.3878 5.34409 16.6245C5.24067 16.8612 5.18737 17.1167 5.18755 17.375ZM24.4204 16.4375L24.2291 19.2275C24.5743 19.1733 24.8974 19.0236 25.1621 18.7955C25.4268 18.5674 25.6224 18.2699 25.727 17.9365C25.8316 17.6032 25.841 17.2472 25.754 16.9088C25.6671 16.5704 25.4874 16.263 25.2351 16.0213C25.0607 16.2809 24.7832 16.4338 24.4204 16.4375ZM12.6876 23.4688V24.875C12.6876 25.7188 13.4376 26.4688 14.3751 26.4688C14.5626 26.4688 14.6563 26.2813 14.6563 26.1875V26.0938C14.6563 25.625 15.0313 25.25 15.5001 25.25C15.9688 25.25 16.3438 25.625 16.3438 26.0938V26.1875C16.3438 26.375 16.5313 26.4688 16.6251 26.4688C17.4688 26.4688 18.3126 25.8125 18.3126 24.875V23.4688C18.3126 23 17.9882 22.625 17.3751 22.625H13.6251C13.0307 22.625 12.6876 23 12.6876 23.4688Z" fill="#333333"/>
</svg>
