<svg width="36" height="36" viewBox="0 0 36 36" fill="none" xmlns="http://www.w3.org/2000/svg">
<path d="M14.3041 10.365C14.3041 8.7825 15.7291 7.5 17.4901 7.5C19.2496 7.5 20.6761 8.7825 20.6761 10.365C20.6761 11.1075 20.4061 11.7855 19.9381 12.2955C19.0426 13.2705 17.7031 14.253 17.7031 15.519V15.945M17.7031 15.945C18.8127 15.927 19.9016 16.246 20.8261 16.86L24.0001 19.002M17.7031 15.945C16.6029 15.9522 15.5306 16.293 14.6266 16.92L3.98257 24.405C2.07457 25.7475 3.13057 28.5 5.55457 28.5H30.4471C32.8966 28.5 33.9346 25.6965 31.9756 24.375L28.5001 22.035" stroke="black" stroke-width="2.5" stroke-linecap="round"/>
</svg>
