<svg width="31" height="31" viewBox="0 0 31 31" fill="none" xmlns="http://www.w3.org/2000/svg">
<g clip-path="url(#clip0_2092_397)">
<path fill-rule="evenodd" clip-rule="evenodd" d="M0.5 15.5C0.5 15.5 6.125 4.25 15.5 4.25C24.875 4.25 30.5 15.5 30.5 15.5C30.5 15.5 24.875 26.75 15.5 26.75C6.125 26.75 0.5 15.5 0.5 15.5ZM3.89375 15.7438C3.84329 15.6628 3.79329 15.5815 3.74375 15.5L3.8975 15.2562C4.50875 14.3 5.40875 13.0306 6.56 11.7762C8.92625 9.19063 11.975 7.0625 15.5 7.0625C19.0212 7.0625 22.0738 9.19063 24.4438 11.7762C25.4922 12.9296 26.4336 14.176 27.2563 15.5C26.4298 16.8223 25.4873 18.0685 24.44 19.2238C22.0737 21.8094 19.025 23.9375 15.5 23.9375C11.9788 23.9375 8.92625 21.8094 6.55625 19.2238C5.57128 18.1417 4.68054 16.9774 3.89375 15.7438ZM21.125 15.5C21.1246 16.6841 20.7506 17.8379 20.0562 18.797C19.3618 19.7562 18.3824 20.4717 17.2576 20.8417C16.1328 21.2117 14.9199 21.2173 13.7917 20.8577C12.6635 20.498 11.6776 19.7916 10.9744 18.8389C10.2712 17.8862 9.88652 16.7359 9.87525 15.5518C9.86399 14.3678 10.2267 13.2104 10.9116 12.2445C11.5966 11.2786 12.5689 10.5535 13.69 10.1725C14.8112 9.79147 16.024 9.77398 17.1556 10.1225C16.7412 10.31 16.3785 10.5952 16.0985 10.9537C15.8186 11.3122 15.6297 11.7332 15.5482 12.1807C15.4667 12.6282 15.4949 13.0888 15.6304 13.523C15.766 13.9571 16.0048 14.352 16.3264 14.6736C16.648 14.9952 17.0429 15.234 17.477 15.3696C17.9112 15.5051 18.3718 15.5333 18.8193 15.4518C19.2668 15.3703 19.6878 15.1814 20.0463 14.9015C20.4048 14.6215 20.69 14.2588 20.8775 13.8444C21.0421 14.3808 21.1255 14.9389 21.125 15.5Z" fill="#333333"/>
</g>
<defs>
<clipPath id="clip0_2092_397">
<rect width="30" height="30" fill="white" transform="translate(0.5 0.5)"/>
</clipPath>
</defs>
</svg>
