<svg width="31" height="31" viewBox="0 0 31 31" fill="none" xmlns="http://www.w3.org/2000/svg">
<g clip-path="url(#clip0_2092_522)">
<path d="M24.1714 12.2025C26.3001 13.1625 28.1351 14.6038 29.1251 16.645C29.2282 16.8575 29.2689 17.0949 29.2426 17.3297C29.2163 17.5644 29.1241 17.7869 28.9765 17.9714C28.8289 18.1558 28.6321 18.2947 28.4089 18.3719C28.1856 18.4491 27.9451 18.4614 27.7151 18.4075C20.2689 16.6625 12.7364 19.6625 8.76511 21.3C6.27261 22.3275 3.85261 21.4888 2.60136 19.7988C1.95111 18.9372 1.65707 17.8586 1.78011 16.7863C2.20511 13.28 6.61261 11.78 9.52011 11.12C14.2464 10.0488 19.7051 10.185 24.1714 12.2013V12.2025Z" fill="black"/>
</g>
<defs>
<clipPath id="clip0_2092_522">
<rect width="30" height="30" fill="white" transform="translate(0.5 0.5)"/>
</clipPath>
</defs>
</svg>
