<svg width="46" height="49" viewBox="0 0 46 49" fill="none" xmlns="http://www.w3.org/2000/svg">
<path fill-rule="evenodd" clip-rule="evenodd" d="M29.3934 0.285395C29.2107 0.10266 28.9628 0 28.7044 0L20.9092 0C20.6508 0 20.4029 0.10266 20.2202 0.285395C20.0375 0.468131 19.9348 0.715973 19.9348 0.9744V2.9232C19.9348 3.18163 20.0375 3.42947 20.2202 3.61221C20.4029 3.79494 20.6508 3.8976 20.9092 3.8976H22.3708V6.4783C17.5558 7.03273 13.2261 9.2037 9.94379 12.4377L7.88781 10.7744L8.80812 9.63828C8.97071 9.43757 9.04695 9.18052 9.02009 8.92363C8.99323 8.66673 8.86547 8.43101 8.66489 8.26827L7.1497 7.0415C7.05021 6.96101 6.93584 6.9009 6.81313 6.8646C6.69041 6.82831 6.56174 6.81655 6.43448 6.82998C6.30721 6.84342 6.18385 6.88179 6.07141 6.94291C5.95898 7.00403 5.85968 7.0867 5.7792 7.1862L0.874073 13.245C0.711491 13.4457 0.63525 13.7028 0.662109 13.9597C0.688969 14.2166 0.816727 14.4523 1.01731 14.615L2.5325 15.8418C2.63198 15.9223 2.74635 15.9824 2.86907 16.0187C2.99179 16.055 3.12045 16.0668 3.24772 16.0533C3.37498 16.0399 3.49835 16.0015 3.61079 15.9404C3.72322 15.8793 3.82251 15.7966 3.903 15.6971L4.82283 14.5609L6.88758 16.2325C4.74585 19.61 3.61023 23.5275 3.6136 27.5268C3.6136 39.2113 13.1223 48.72 24.8068 48.72C36.4913 48.72 46 39.2113 46 27.5268C46 16.6666 37.7839 7.69045 27.2428 6.47732V3.8976H28.7044C28.9628 3.8976 29.2107 3.79494 29.3934 3.61221C29.5761 3.42947 29.6788 3.18163 29.6788 2.9232V0.9744C29.6788 0.715973 29.5761 0.468131 29.3934 0.285395ZM7.024 27.5268C7.024 17.6854 14.9654 9.744 24.8068 9.744C34.6482 9.744 42.5896 17.6854 42.5896 27.5268C42.5896 37.3682 34.6482 45.3096 24.8068 45.3096C14.9654 45.3096 7.024 37.3682 7.024 27.5268Z" fill="white"/>
<path d="M32.3333 28.6667H25.6667V35.3333C25.6667 35.687 25.5262 36.0261 25.2761 36.2761C25.0261 36.5262 24.687 36.6667 24.3333 36.6667C23.9797 36.6667 23.6406 36.5262 23.3905 36.2761C23.1405 36.0261 23 35.687 23 35.3333V28.6667H16.3333C15.9797 28.6667 15.6406 28.5262 15.3905 28.2761C15.1405 28.0261 15 27.687 15 27.3333C15 26.9797 15.1405 26.6406 15.3905 26.3905C15.6406 26.1405 15.9797 26 16.3333 26H23V19.3333C23 18.9797 23.1405 18.6406 23.3905 18.3905C23.6406 18.1405 23.9797 18 24.3333 18C24.687 18 25.0261 18.1405 25.2761 18.3905C25.5262 18.6406 25.6667 18.9797 25.6667 19.3333V26H32.3333C32.687 26 33.0261 26.1405 33.2761 26.3905C33.5262 26.6406 33.6667 26.9797 33.6667 27.3333C33.6667 27.687 33.5262 28.0261 33.2761 28.2761C33.0261 28.5262 32.687 28.6667 32.3333 28.6667Z" fill="white"/>
</svg>
