<svg width="28" height="23" viewBox="0 0 28 23" fill="none" xmlns="http://www.w3.org/2000/svg">
<path d="M12.3 6.29999C12.3 8.45583 10.5558 10.2 8.4 10.2C6.24416 10.2 4.5 8.45583 4.5 6.29999C4.5 4.14415 6.24416 2.39999 8.4 2.39999C10.5558 2.39999 12.3 4.14415 12.3 6.29999ZM8.4 14.3C9.55699 14.3 10.6412 14.0367 11.6173 13.6H11.76C13.9902 13.6 15.8 15.4098 15.8 17.64V18.9C15.8 19.5071 15.3071 20 14.7 20H2.1C1.49291 20 1 19.5071 1 18.9V17.64C1 15.4098 2.80978 13.6 5.04 13.6H5.18343C6.16127 14.0361 7.24166 14.3 8.4 14.3ZM24.2 6.99999C24.2 8.76646 22.7665 10.2 21 10.2C19.2335 10.2 17.8 8.76646 17.8 6.99999C17.8 5.23353 19.2335 3.79999 21 3.79999C22.7665 3.79999 24.2 5.23353 24.2 6.99999ZM21 13.95C21.756 13.95 22.4564 13.807 23.0964 13.6H23.1C25.2558 13.6 27 15.3442 27 17.5C27 18.1071 26.5071 18.6 25.9 18.6H19.2V17.64C19.2 16.1857 18.7717 14.8388 18.0501 13.7011C18.3251 13.6351 18.6089 13.6 18.9 13.6H18.9036C19.5436 13.807 20.244 13.95 21 13.95Z" stroke="black" stroke-width="2"/>
</svg>
