<svg width="31" height="31" viewBox="0 0 31 31" fill="none" xmlns="http://www.w3.org/2000/svg">
<g clip-path="url(#clip0_2092_534)">
<path d="M4.24999 13C3.94999 13 3.68749 13.1125 3.51249 13.3125C3.33749 13.5 3.26249 13.775 3.29999 14.075L3.92499 17.8125C4.02499 18.625 4.74999 19.25 5.49999 19.25H9.24999C10.05 19.25 10.95 18.55 11.125 17.775L12.45 13.7875C12.5 13.625 12.4625 13.3875 12.375 13.2375C12.2375 13.0875 12.025 13 11.75 13H4.24999ZM9.24999 21.75H5.49999C3.47499 21.75 1.69999 20.175 1.44999 18.175L0.824995 14.4375C0.687495 13.375 0.987495 12.375 1.63749 11.65C2.28749 10.925 3.23749 10.5 4.24999 10.5H11.75C12.7875 10.5 13.725 10.9375 14.325 11.7C14.4625 11.8875 14.5875 12.0875 14.6875 12.3125C15.225 12.2 15.775 12.2 16.3 12.3125C16.4 12.0875 16.525 11.8875 16.675 11.7C17.2625 10.9375 18.2 10.5 19.25 10.5H26.75C27.7625 10.5 28.7125 10.925 29.3625 11.65C30 12.375 30.3 13.375 30.175 14.3875L29.5375 18.225C29.3 20.175 27.5125 21.75 25.5 21.75H21.75C19.8 21.75 17.9 20.2625 17.425 18.375L16.3 14.9875C15.825 14.6375 15.1625 14.6375 14.6875 14.9875L13.5375 18.4625C13.0875 20.275 11.2 21.75 9.24999 21.75ZM19.25 13C18.975 13 18.7625 13.0875 18.625 13.2375C18.525 13.3875 18.5 13.625 18.5625 13.875L19.825 17.6875C20.05 18.55 20.95 19.25 21.75 19.25H25.5C26.2375 19.25 26.975 18.625 27.0625 17.8625L27.7 14.025C27.7375 13.775 27.6625 13.5 27.4875 13.3125C27.3943 13.2104 27.2801 13.1297 27.1528 13.0758C27.0256 13.0218 26.8882 12.996 26.75 13H19.25Z" fill="#333333"/>
</g>
<defs>
<clipPath id="clip0_2092_534">
<rect width="30" height="30" fill="white" transform="translate(0.5 0.5)"/>
</clipPath>
</defs>
</svg>
