<svg width="26" height="26" viewBox="0 0 26 26" fill="none" xmlns="http://www.w3.org/2000/svg">
<g clip-path="url(#clip0_8_66)">
<path d="M9.05735 0.855168C6.45954 1.75637 4.2192 3.46688 2.66539 5.73545C1.11158 8.00402 0.326205 10.7111 0.424621 13.459C0.523037 16.2069 1.50006 18.8509 3.21218 21.0025C4.92429 23.1541 7.28126 24.6999 9.93688 25.413C12.0898 25.9685 14.3455 25.9929 16.51 25.4841C18.4708 25.0436 20.2836 24.1015 21.7709 22.75C23.3189 21.3004 24.4425 19.4563 25.0209 17.4159C25.6494 15.1971 25.7613 12.8638 25.348 10.595H13.258V15.6102H20.2597C20.1198 16.41 19.8199 17.1735 19.378 17.8548C18.9362 18.5361 18.3614 19.1212 17.6881 19.5752C16.8333 20.1409 15.8694 20.5215 14.8586 20.6924C13.8449 20.8809 12.8051 20.8809 11.7914 20.6924C10.7639 20.4802 9.79193 20.0561 8.9375 19.4472C7.56468 18.4754 6.53388 17.0949 5.99219 15.5025C5.4415 13.8803 5.4415 12.1217 5.99219 10.4995C6.37778 9.36248 7.0152 8.32719 7.85688 7.47095C8.82008 6.47309 10.0395 5.75982 11.3814 5.40938C12.7233 5.05895 14.1358 5.0849 15.4639 5.48439C16.5015 5.80273 17.4503 6.3592 18.2345 7.10939C19.024 6.32397 19.8121 5.53652 20.5989 4.74704C21.0052 4.32251 21.448 3.91829 21.8481 3.48361C20.6508 2.3695 19.2454 1.50254 17.7125 0.932355C14.921 -0.0812592 11.8665 -0.108499 9.05735 0.855168Z" fill="white"/>
<path d="M9.05734 0.855148C11.8663 -0.109174 14.9207 -0.0826512 17.7125 0.930304C19.2457 1.50436 20.6504 2.3755 21.8461 3.49374C21.4398 3.92843 21.0112 4.33468 20.5969 4.75718C19.8087 5.54395 19.0213 6.32801 18.2345 7.10937C17.4502 6.35918 16.5015 5.80271 15.4639 5.48437C14.1362 5.08348 12.7238 5.05603 11.3815 5.40503C10.0393 5.75403 8.8191 6.46599 7.85484 7.4628C7.01316 8.31905 6.37574 9.35434 5.99015 10.4914L1.77937 7.23124C3.28658 4.24238 5.89621 1.95613 9.05734 0.855148Z" fill="#E33629"/>
<path d="M0.662193 10.461C0.888352 9.33924 1.26411 8.25297 1.77938 7.23126L5.99016 10.4995C5.43947 12.1217 5.43947 13.8803 5.99016 15.5025C4.58724 16.5858 3.18365 17.6746 1.77938 18.7688C0.489843 16.2019 0.0965565 13.2773 0.662193 10.461Z" fill="#F8BD00"/>
<path d="M13.258 10.593H25.348C25.7613 12.8617 25.6494 15.1951 25.0209 17.4139C24.4425 19.4542 23.3189 21.2983 21.7709 22.748C20.412 21.6876 19.047 20.6355 17.6881 19.5751C18.3618 19.1207 18.9369 18.5349 19.3788 17.8529C19.8206 17.1709 20.1203 16.4067 20.2597 15.6061H13.258C13.2559 13.9364 13.258 12.2647 13.258 10.593Z" fill="#587DBD"/>
<path d="M1.77734 18.7688C3.18161 17.6854 4.58521 16.5967 5.98812 15.5025C6.53089 17.0954 7.56317 18.476 8.9375 19.4472C9.79459 20.0532 10.7687 20.4739 11.7975 20.6822C12.8112 20.8707 13.851 20.8707 14.8647 20.6822C15.8755 20.5113 16.8393 20.1308 17.6942 19.565C19.0531 20.6253 20.4181 21.6775 21.777 22.7378C20.2899 24.0901 18.4771 25.0329 16.5161 25.4739C14.3516 25.9828 12.0959 25.9584 9.94297 25.4028C8.24018 24.9482 6.64965 24.1467 5.27109 23.0486C3.8121 21.89 2.62038 20.4302 1.77734 18.7688Z" fill="#319F43"/>
</g>
<defs>
<clipPath id="clip0_8_66">
<rect width="26" height="26" fill="white"/>
</clipPath>
</defs>
</svg>
