<svg width="31" height="31" viewBox="0 0 31 31" fill="none" xmlns="http://www.w3.org/2000/svg">
<g clip-path="url(#clip0_2092_530)">
<path fill-rule="evenodd" clip-rule="evenodd" d="M15.5 4.25C18.4837 4.25 21.3452 5.43526 23.455 7.54505C25.5647 9.65483 26.75 12.5163 26.75 15.5V23C26.75 23.9946 26.3549 24.9484 25.6517 25.6517C24.9484 26.3549 23.9946 26.75 23 26.75H21.2725C20.8323 26.7499 20.3999 26.6335 20.0191 26.4127C19.6383 26.1919 19.3225 25.8745 19.1038 25.4925C17.9338 26.2937 16.645 26.75 15.5 26.75C14.355 26.75 13.0662 26.2925 11.8962 25.4925C11.6775 25.8745 11.3617 26.1919 10.9809 26.4127C10.6001 26.6335 10.1677 26.7499 9.7275 26.75H8C7.00544 26.75 6.05161 26.3549 5.34835 25.6517C4.64509 24.9484 4.25 23.9946 4.25 23V15.5C4.25 12.5163 5.43526 9.65483 7.54505 7.54505C9.65483 5.43526 12.5163 4.25 15.5 4.25ZM15.5 6.75C13.1794 6.75 10.9538 7.67187 9.31282 9.31282C7.67187 10.9538 6.75 13.1794 6.75 15.5V23C6.75 23.3315 6.8817 23.6495 7.11612 23.8839C7.35054 24.1183 7.66848 24.25 8 24.25H9.7275L9.98875 23.7275C8.82625 22.2863 8 20.35 8 18C8 17.0125 8.16625 16.0325 8.46625 15.11C8.55004 14.8526 8.71514 14.6293 8.93673 14.4737C9.15831 14.3182 9.42441 14.2388 9.695 14.2475C10.627 14.2733 11.551 14.069 12.3852 13.6525C13.2194 13.2361 13.938 12.6204 14.4775 11.86C14.5928 11.696 14.746 11.5621 14.9239 11.4697C15.1019 11.3773 15.2995 11.329 15.5 11.329C15.7005 11.329 15.8981 11.3773 16.0761 11.4697C16.254 11.5621 16.4072 11.696 16.5225 11.86C17.0619 12.6205 17.7805 13.2362 18.6148 13.6527C19.449 14.0691 20.373 14.2734 21.305 14.2475C21.5756 14.2388 21.8417 14.3182 22.0633 14.4737C22.2849 14.6293 22.45 14.8526 22.5338 15.11C22.8338 16.0325 23 17.0112 23 18C23 20.35 22.1737 22.2863 21.0112 23.7275L21.2725 24.25H23C23.3315 24.25 23.6495 24.1183 23.8839 23.8839C24.1183 23.6495 24.25 23.3315 24.25 23V15.5C24.25 13.1794 23.3281 10.9538 21.6872 9.31282C20.0462 7.67187 17.8206 6.75 15.5 6.75ZM15.5 14.4875C14.1755 15.7612 12.4573 16.5467 10.6275 16.715C10.5436 17.1382 10.5009 17.5686 10.5 18C10.5 20.0225 11.3212 21.59 12.3825 22.6587C13.4825 23.7675 14.745 24.25 15.5 24.25C16.2563 24.25 17.5163 23.7675 18.6175 22.6587C19.6788 21.59 20.5 20.0225 20.5 18C20.4991 17.569 20.4564 17.139 20.3725 16.7162C18.5425 16.5476 16.8243 15.7616 15.5 14.4875Z" fill="#333333"/>
</g>
<defs>
<clipPath id="clip0_2092_530">
<rect width="30" height="30" fill="white" transform="translate(0.5 0.5)"/>
</clipPath>
</defs>
</svg>
