<svg width="28" height="28" viewBox="0 0 28 28" fill="none" xmlns="http://www.w3.org/2000/svg">
<path d="M14 2.33099C20.4447 2.33099 25.669 7.55533 25.669 14C25.669 20.4435 20.4447 25.6667 14 25.6667C7.55533 25.6678 2.331 20.4435 2.331 14C2.331 7.55533 7.55533 2.33099 14 2.33099ZM14 4.08099C12.6884 4.06677 11.3871 4.31281 10.1713 4.80488C8.95542 5.29694 7.84925 6.02527 6.91677 6.94769C5.98429 7.87011 5.24402 8.96831 4.73879 10.1787C4.23357 11.3892 3.97343 12.6878 3.97343 13.9994C3.97343 15.311 4.23357 16.6097 4.73879 17.8201C5.24402 19.0305 5.98429 20.1287 6.91677 21.0511C7.84925 21.9736 8.95542 22.7019 10.1713 23.1939C11.3871 23.686 12.6884 23.9321 14 23.9178C16.6119 23.8895 19.1072 22.8321 20.9441 20.9751C22.7811 19.1181 23.8114 16.6115 23.8114 13.9994C23.8114 11.3874 22.7811 8.88074 20.9441 7.02375C19.1072 5.16677 16.6119 4.10932 14 4.08099ZM9.87233 17.2468C10.3634 17.8719 10.9902 18.3771 11.7053 18.7241C12.4204 19.0712 13.2051 19.251 14 19.25C14.794 19.251 15.5779 19.0715 16.2923 18.725C17.0068 18.3786 17.6332 17.8743 18.1242 17.2503C18.1954 17.1602 18.2837 17.0849 18.384 17.0289C18.4844 16.9728 18.5947 16.9371 18.7089 16.9237C18.823 16.9104 18.9386 16.9196 19.0492 16.9509C19.1598 16.9822 19.2631 17.035 19.3532 17.1062C19.4434 17.1775 19.5187 17.2658 19.5747 17.3661C19.6307 17.4664 19.6665 17.5768 19.6798 17.6909C19.6932 17.8051 19.684 17.9207 19.6527 18.0313C19.6214 18.1419 19.5686 18.2452 19.4973 18.3353C18.8426 19.1667 18.0076 19.8386 17.0553 20.3002C16.103 20.7618 15.0583 21.0011 14 21C12.9402 21.001 11.894 20.761 10.9406 20.2982C9.98721 19.8353 9.15155 19.1617 8.49683 18.3283C8.42575 18.238 8.37314 18.1346 8.34203 18.0239C8.31091 17.9133 8.3019 17.7976 8.31549 17.6835C8.32909 17.5693 8.36503 17.459 8.42127 17.3588C8.4775 17.2585 8.55293 17.1703 8.64325 17.0992C8.73357 17.0282 8.837 16.9755 8.94765 16.9444C9.05829 16.9133 9.17399 16.9043 9.28812 16.9179C9.40225 16.9315 9.51258 16.9674 9.61282 17.0237C9.71306 17.0799 9.80125 17.1553 9.87233 17.2457M10.5 10.2083C10.6949 10.2028 10.8889 10.2364 11.0706 10.3072C11.2523 10.378 11.4179 10.4845 11.5578 10.6204C11.6976 10.7563 11.8087 10.9189 11.8846 11.0985C11.9605 11.2781 11.9996 11.4711 11.9996 11.6661C11.9996 11.8611 11.9605 12.0541 11.8846 12.2337C11.8087 12.4133 11.6976 12.5758 11.5578 12.7118C11.4179 12.8477 11.2523 12.9542 11.0706 13.0249C10.8889 13.0957 10.6949 13.1293 10.5 13.1238C10.1205 13.1131 9.76018 12.9548 9.49557 12.6826C9.23095 12.4104 9.08291 12.0457 9.08291 11.6661C9.08291 11.2864 9.23095 10.9218 9.49557 10.6496C9.76018 10.3774 10.1205 10.2191 10.5 10.2083ZM17.5 10.2083C17.6949 10.2028 17.8889 10.2364 18.0706 10.3072C18.2523 10.378 18.4179 10.4845 18.5578 10.6204C18.6976 10.7563 18.8087 10.9189 18.8846 11.0985C18.9605 11.2781 18.9996 11.4711 18.9996 11.6661C18.9996 11.8611 18.9605 12.0541 18.8846 12.2337C18.8087 12.4133 18.6976 12.5758 18.5578 12.7118C18.4179 12.8477 18.2523 12.9542 18.0706 13.0249C17.8889 13.0957 17.6949 13.1293 17.5 13.1238C17.1205 13.1131 16.7602 12.9548 16.4956 12.6826C16.231 12.4104 16.0829 12.0457 16.0829 11.6661C16.0829 11.2864 16.231 10.9218 16.4956 10.6496C16.7602 10.3774 17.1205 10.2191 17.5 10.2083Z" fill="white"/>
</svg>
