<svg width="24" height="24" viewBox="0 0 24 24" fill="none" xmlns="http://www.w3.org/2000/svg">
<path d="M11.6667 23.6667C10.0722 23.6667 8.56528 23.3602 7.14583 22.7473C5.72639 22.1344 4.487 21.2983 3.42767 20.239C2.36756 19.1797 1.53144 17.9403 0.919333 16.5208C0.307222 15.1014 0.000777778 13.5944 0 12C0 10.3861 0.306445 8.87449 0.919333 7.46516C1.53222 6.05583 2.36833 4.82111 3.42767 3.761C4.487 2.70088 5.726 1.86477 7.14467 1.25266C8.56333 0.640551 10.0707 0.334106 11.6667 0.333328C13.2806 0.333328 14.7926 0.639773 16.2027 1.25266C17.6128 1.86555 18.8471 2.70166 19.9057 3.761C20.9658 4.82033 21.8019 6.05505 22.414 7.46516C23.0261 8.87527 23.3326 10.3869 23.3333 12C23.3333 13.5944 23.0269 15.1014 22.414 16.5208C21.8011 17.9403 20.965 19.18 19.9057 20.2402C18.8463 21.2995 17.6116 22.1356 16.2015 22.7485C14.7914 23.3614 13.2798 23.6674 11.6667 23.6667ZM11.6667 21.275C12.1722 20.575 12.6097 19.8458 12.9792 19.0875C13.3486 18.3292 13.65 17.5222 13.8833 16.6667H9.45C9.68333 17.5222 9.98472 18.3292 10.3542 19.0875C10.7236 19.8458 11.1611 20.575 11.6667 21.275ZM8.63333 20.8083C8.28333 20.1667 7.97728 19.5005 7.71517 18.8098C7.45306 18.1192 7.23411 17.4048 7.05833 16.6667H3.61667C4.18056 17.6389 4.88561 18.4847 5.73183 19.2042C6.57806 19.9236 7.54522 20.4583 8.63333 20.8083ZM14.7 20.8083C15.7889 20.4583 16.7564 19.9236 17.6027 19.2042C18.4489 18.4847 19.1536 17.6389 19.7167 16.6667H16.275C16.1 17.4056 15.8814 18.1203 15.6193 18.811C15.3572 19.5017 15.0508 20.1674 14.7 20.8083ZM2.625 14.3333H6.59167C6.53333 13.9444 6.48978 13.5606 6.461 13.1818C6.43222 12.803 6.41744 12.4091 6.41667 12C6.41667 11.5917 6.43144 11.1981 6.461 10.8193C6.49056 10.4405 6.53411 10.0563 6.59167 9.66666H2.625C2.52778 10.0556 2.45506 10.4398 2.40683 10.8193C2.35861 11.1989 2.33411 11.5924 2.33333 12C2.33333 12.4083 2.35783 12.8023 2.40683 13.1818C2.45583 13.5614 2.52856 13.9452 2.625 14.3333ZM8.925 14.3333H14.4083C14.4667 13.9444 14.5106 13.5606 14.5402 13.1818C14.5697 12.803 14.5841 12.4091 14.5833 12C14.5833 11.5917 14.5686 11.1981 14.539 10.8193C14.5094 10.4405 14.4659 10.0563 14.4083 9.66666H8.925C8.86667 10.0556 8.82311 10.4398 8.79433 10.8193C8.76556 11.1989 8.75078 11.5924 8.75 12C8.75 12.4083 8.76478 12.8023 8.79433 13.1818C8.82389 13.5614 8.86744 13.9452 8.925 14.3333ZM16.7417 14.3333H20.7083C20.8056 13.9444 20.8787 13.5606 20.9277 13.1818C20.9767 12.803 21.0008 12.4091 21 12C21 11.5917 20.9759 11.1981 20.9277 10.8193C20.8794 10.4405 20.8063 10.0563 20.7083 9.66666H16.7417C16.8 10.0556 16.8439 10.4398 16.8735 10.8193C16.9031 11.1989 16.9174 11.5924 16.9167 12C16.9167 12.4083 16.9019 12.8023 16.8723 13.1818C16.8428 13.5614 16.7992 13.9452 16.7417 14.3333ZM16.275 7.33333H19.7167C19.1528 6.36111 18.4481 5.51527 17.6027 4.79583C16.7572 4.07638 15.7897 3.54166 14.7 3.19166C15.05 3.83333 15.3564 4.4995 15.6193 5.19016C15.8822 5.88083 16.1008 6.59522 16.275 7.33333ZM9.45 7.33333H13.8833C13.65 6.47777 13.3486 5.67083 12.9792 4.9125C12.6097 4.15416 12.1722 3.42499 11.6667 2.725C11.1611 3.42499 10.7236 4.15416 10.3542 4.9125C9.98472 5.67083 9.68333 6.47777 9.45 7.33333ZM3.61667 7.33333H7.05833C7.23333 6.59444 7.45228 5.87966 7.71517 5.18899C7.97806 4.49833 8.28411 3.83255 8.63333 3.19166C7.54444 3.54166 6.57689 4.07638 5.73067 4.79583C4.88444 5.51527 4.17978 6.36111 3.61667 7.33333Z" fill="black"/>
</svg>
