<svg width="31" height="31" viewBox="0 0 31 31" fill="none" xmlns="http://www.w3.org/2000/svg">
<g clip-path="url(#clip0_2092_560)">
<path d="M3.26424 21.3071C2.86513 21.7086 2.64111 22.2517 2.64111 22.8179C2.64111 23.384 2.86513 23.9271 3.26424 24.3286L7.74281 28.8071C8.1443 29.2063 8.68741 29.4303 9.25353 29.4303C9.81964 29.4303 10.3627 29.2063 10.7642 28.8071L18.7142 20.8571L11.2142 13.3571L3.26424 21.3071Z" stroke="#333333" stroke-width="2.14286" stroke-linecap="round" stroke-linejoin="round"/>
<path d="M12.3713 14.5143L24.6928 2.19286C24.9941 1.89552 25.3768 1.6941 25.7925 1.61401C26.2081 1.53393 26.6382 1.57876 27.0285 1.74286C27.4198 1.90362 27.7548 2.17661 27.9912 2.52744C28.2276 2.87827 28.3549 3.29123 28.3571 3.71429V8.36429C28.3588 8.64632 28.3048 8.92592 28.1982 9.18701C28.0915 9.44811 27.9343 9.68556 27.7356 9.88572L17.6428 19.7857M17.7285 9.15714L23.0856 14.5143" stroke="#333333" stroke-width="2.14286" stroke-linecap="round" stroke-linejoin="round"/>
</g>
<defs>
<clipPath id="clip0_2092_560">
<rect width="30" height="30" fill="white" transform="translate(0.5 0.5)"/>
</clipPath>
</defs>
</svg>
