<?xml version="1.0" encoding="utf-8"?>
<!-- Generator: Adobe Illustrator 26.2.1, SVG Export Plug-In . SVG Version: 6.00 Build 0)  -->
<svg version="1.1" id="Layer_1" xmlns="http://www.w3.org/2000/svg" xmlns:xlink="http://www.w3.org/1999/xlink" x="0px" y="0px"
	viewBox="0 0 1366 368" enable-background="new 0 0 1366 368" xml:space="preserve">
<g>
	<g>
		<path fill="#015FFF" d="M73.31,73.15L23.67,268.18c-8.58,33.7,16.89,66.45,51.66,66.45h1166.7c24.38,0,45.65-16.53,51.66-40.16
			l49.64-195.03c8.58-33.7-16.89-66.45-51.66-66.45H124.97C100.6,32.99,79.33,49.53,73.31,73.15z"/>
	</g>
</g>
	<g>
	<g>
		<path fill="#0381FF" d="M79.49,71.02L27.65,274.67c-7.88,30.97,15.52,61.08,47.48,61.08h308.69c22.48,0,42.08-15.3,47.53-37.11
			l50.91-203.65c7.73-30.92-15.66-60.88-47.53-60.88H126.97C104.56,34.11,85.01,49.31,79.49,71.02z"/>
	</g>
		<g>
		<line fill="#0381FF" x1="497.48" y1="34.11" x2="422.07" y2="335.75"/>
	</g>
</g>
	<g opacity="0.4">
	<path fill="#0000FF" d="M77.42,263.64l92.66-100.28l-3.93,22.86L115.27,91.6h42.52l35.39,67.84l-17.45-0.49l60.95-67.34h45.22
		l-87.01,94.63l1.23-22.61l54.56,100.03h-43.01l-37.36-71.77l17.94,0.74l-63.17,71.03H77.42z"/>
		<path fill="#0000FF" d="M266.92,263.64L301.33,91.6h69.56c21.46,0,38.05,4.71,49.77,14.13c11.71,9.42,17.57,22.57,17.57,39.45
		c0,14.42-3.36,27-10.08,37.73c-6.72,10.73-16.34,18.97-28.88,24.7c-12.54,5.74-27.4,8.6-44.61,8.6h-55.79l21.14-18.19l-13.03,65.62
		H266.92z M319.03,202.69l-14.01-18.92h51.37c13.11,0,23.31-2.99,30.6-8.97c7.29-5.98,10.94-14.7,10.94-26.18
		c0-8.36-2.79-14.54-8.36-18.56c-5.57-4.01-13.44-6.02-23.6-6.02h-48.42l21.14-19.42L319.03,202.69z"/>
</g>
	<g>
	<path fill="#F2F2F2" d="M67.09,263.77l92.66-100.28l-3.93,22.86l-50.88-94.63h42.52l35.39,67.84l-17.45-0.49l60.95-67.34h45.22
		l-87.01,94.63l1.23-22.61l54.56,100.03h-43.01L160,192.01l17.94,0.74l-63.17,71.03H67.09z"/>
		<path fill="#F2F2F2" d="M256.59,263.77L291,91.73h69.56c21.46,0,38.05,4.71,49.77,14.13c11.71,9.42,17.57,22.57,17.57,39.45
		c0,14.42-3.36,27-10.08,37.73c-6.72,10.73-16.34,18.97-28.88,24.7c-12.54,5.74-27.4,8.6-44.61,8.6h-55.79l21.14-18.19l-13.03,65.62
		H256.59z M308.7,202.82l-14.01-18.92h51.37c13.11,0,23.31-2.99,30.6-8.97c7.29-5.98,10.94-14.7,10.94-26.18
		c0-8.36-2.79-14.54-8.36-18.56c-5.57-4.01-13.44-6.02-23.6-6.02h-48.42l21.14-19.42L308.7,202.82z"/>
</g>
	<g>
</g>
	<g>
</g>
	<g>
</g>
	<g>
</g>
	<g>
</g>
	<g>
</g>
	<g>
</g>
	<g>
</g>
	<g>
</g>
	<g>
</g>
	<g>
</g>
	<g>
</g>
	<g>
</g>
	<g>
</g>
	<g>
</g>
</svg>
