<svg width="31" height="31" viewBox="0 0 31 31" fill="none" xmlns="http://www.w3.org/2000/svg">
<g clip-path="url(#clip0_2092_536)">
<path fill-rule="evenodd" clip-rule="evenodd" d="M19.1588 8.0025C21.5375 8.0925 23.8613 9.20625 25.5938 10.3462L26.5925 11.02L26.9888 11.295L27.3937 11.595C28.3425 12.3212 29.25 13.235 29.25 14.25C29.25 15.5875 28.06 16.965 26.9137 18.0375L26.5138 18.4037L26.1287 18.7413L25.6075 19.185C23.3375 21.12 19.9363 23 15.5 23C11.2225 23 7.90625 21.2512 5.64 19.3937L5.23375 19.0512L4.69875 18.5862L4.3075 18.2312C3.1125 17.1225 1.75 15.6125 1.75 14.2512C1.75 13.2775 2.52 12.4387 3.3875 11.75L3.7925 11.4437C3.86 11.3937 3.9275 11.3462 3.995 11.2987L4.39375 11.025L5.10625 10.5475C6.86625 9.34125 9.3225 8.0975 11.8412 8.0025C12.6475 7.9725 13.35 8.235 14.0363 8.55875L14.55 8.80875C14.79 8.92875 15.0312 9.0475 15.2762 9.15875C15.47 9.245 15.53 9.245 15.7238 9.15875L16.0887 8.9875L16.9637 8.55875C17.6512 8.23375 18.3512 7.97125 19.1588 8.0025ZM25.1237 16.2062C22.4212 17.0062 18.9037 17.375 15.5 17.375C12.0962 17.375 8.57875 17.0062 5.87625 16.2062C8.37625 18.8412 11.8337 20.5 15.5 20.5C19.1663 20.5 22.6238 18.8412 25.125 16.2062H25.1237ZM19.0637 10.5C18.5763 10.4812 18.0975 10.7075 17.6375 10.96L17.1838 11.215C17.0411 11.2956 16.8951 11.3703 16.7463 11.4387C16.4437 11.5737 15.9937 11.7512 15.5 11.7512C15.0063 11.7512 14.5563 11.5737 14.2537 11.4387C14.1031 11.3693 13.9554 11.2934 13.8113 11.2112L13.3612 10.9575C12.905 10.705 12.4325 10.4812 11.9363 10.5C9.54625 10.59 7.25875 11.9275 5.44375 13.415C7.7725 14.3525 11.5562 14.8737 15.5 14.8737C19.4438 14.8737 23.2275 14.3525 25.5562 13.415C23.7413 11.9275 21.4538 10.59 19.0637 10.5Z" fill="#333333"/>
</g>
<defs>
<clipPath id="clip0_2092_536">
<rect width="30" height="30" fill="white" transform="translate(0.5 0.5)"/>
</clipPath>
</defs>
</svg>
