<svg width="31" height="31" viewBox="0 0 31 31" fill="none" xmlns="http://www.w3.org/2000/svg">
<path d="M6.79 15.5369C8.84438 14.8656 8.95563 12.3538 11.6631 11.8231C13.8287 11.3988 15.13 12.8913 15.4531 14.4756C15.7237 15.8019 14.9119 19.25 10.58 19.25C5.16563 19.25 3.36125 15.8019 3 14.4756C3.54125 15.0063 5.16563 16.0675 6.79 15.5369Z" stroke="#333333" stroke-width="2.5" stroke-linejoin="round"/>
<path d="M24.2099 15.5369C22.1549 14.8656 22.0443 12.3538 19.3368 11.8231C17.1711 11.3988 15.8699 12.8913 15.5468 14.4756C15.2761 15.8019 16.088 19.25 20.4199 19.25C25.8343 19.25 27.6386 15.8019 27.9999 14.4756C27.4586 15.0063 25.8343 16.0675 24.2099 15.5369Z" stroke="#333333" stroke-width="2.5" stroke-linejoin="round"/>
</svg>
