<svg width="31" height="31" viewBox="0 0 31 31" fill="none" xmlns="http://www.w3.org/2000/svg">
<g clip-path="url(#clip0_2092_526)">
<path d="M12.375 5.5C12.375 5.16848 12.2433 4.85054 12.0089 4.61612C11.7745 4.3817 11.4565 4.25 11.125 4.25C10.7935 4.25 10.4755 4.3817 10.2411 4.61612C10.0067 4.85054 9.875 5.16848 9.875 5.5C9.875 7.78375 9.305 10.0938 8.1325 12.4413C7.5675 13.5688 6.7725 14.4412 5.895 15.6525C5.0825 16.7725 4.25 18.14 4.25 19.875C4.25 21.0353 4.71094 22.1481 5.53141 22.9686C6.35188 23.7891 7.46468 24.25 8.625 24.25C9.34 24.25 10.515 23.78 11.1913 24.1175C11.6888 24.3675 12.0113 24.9425 12.3875 25.3425C13.0375 26.03 13.9675 26.75 15.5 26.75C17.0325 26.75 17.9625 26.03 18.6125 25.3425C18.9812 24.9513 19.315 24.365 19.8087 24.1175C20.4837 23.78 21.6588 24.25 22.375 24.25C23.5353 24.25 24.6481 23.7891 25.4686 22.9686C26.2891 22.1481 26.75 21.0353 26.75 19.875C26.75 18.1412 25.9188 16.7725 25.105 15.6525C24.2275 14.4425 23.4325 13.5688 22.8675 12.44C21.695 10.095 21.125 7.785 21.125 5.5C21.125 5.16848 20.9933 4.85054 20.7589 4.61612C20.5245 4.3817 20.2065 4.25 19.875 4.25C19.5435 4.25 19.2255 4.3817 18.9911 4.61612C18.7567 4.85054 18.625 5.16848 18.625 5.5C18.625 8.21625 19.305 10.9062 20.6325 13.5587C21.3175 14.9312 22.3975 16.1775 23.0825 17.1213C23.8325 18.1525 24.25 18.9712 24.25 19.875C24.25 20.3723 24.0525 20.8492 23.7008 21.2008C23.3492 21.5525 22.8723 21.75 22.375 21.75C21.105 21.75 19.9163 21.2688 18.6913 21.8825C17.8888 22.2825 17.3912 22.9925 16.7937 23.6262C16.4113 24.0325 16.0938 24.25 15.5 24.25C14.9075 24.25 14.5875 24.0325 14.2063 23.6275C13.6125 22.9963 13.1062 22.28 12.3087 21.8825C11.0837 21.27 9.89625 21.75 8.625 21.75C8.37877 21.75 8.13495 21.7015 7.90747 21.6073C7.67998 21.513 7.47328 21.3749 7.29917 21.2008C7.12506 21.0267 6.98695 20.82 6.89273 20.5925C6.7985 20.365 6.75 20.1212 6.75 19.875C6.75 18.9725 7.16875 18.1525 7.9175 17.12C8.6025 16.1762 9.6825 14.9312 10.3675 13.5587C11.695 10.9062 12.375 8.21625 12.375 5.5Z" fill="#333333"/>
</g>
<defs>
<clipPath id="clip0_2092_526">
<rect width="30" height="30" fill="white" transform="translate(0.5 0.5)"/>
</clipPath>
</defs>
</svg>
