<svg width="31" height="31" viewBox="0 0 31 31" fill="none" xmlns="http://www.w3.org/2000/svg">
<path d="M26.7358 25.5781L24.1577 4.95313C24.1006 4.49991 23.88 4.08312 23.5374 3.78104C23.1947 3.47895 22.7536 3.31234 22.2968 3.3125H8.70304C8.24624 3.31234 7.80509 3.47895 7.46244 3.78104C7.11979 4.08312 6.8992 4.49991 6.8421 4.95313L4.26397 25.5781C4.23071 25.8421 4.25402 26.1101 4.33234 26.3644C4.41066 26.6187 4.54221 26.8534 4.71823 27.0529C4.89425 27.2525 5.11073 27.4122 5.35326 27.5216C5.5958 27.6311 5.85884 27.6876 6.12491 27.6875H10.8933C11.3102 27.6876 11.7154 27.5486 12.0445 27.2927C12.3737 27.0367 12.6082 26.6784 12.7108 26.2742L15.4999 15.493L18.2878 26.2672C18.3892 26.6728 18.6233 27.0329 18.9528 27.2903C19.2823 27.5476 19.6884 27.6874 20.1066 27.6875H24.8749C25.141 27.6876 25.404 27.6311 25.6466 27.5216C25.8891 27.4122 26.1056 27.2525 26.2816 27.0529C26.4576 26.8534 26.5892 26.6187 26.6675 26.3644C26.7458 26.1101 26.7691 25.8421 26.7358 25.5781ZM23.1054 11.6562C22.4347 11.5023 21.819 11.1675 21.3252 10.6881C20.8314 10.2088 20.4784 9.60335 20.3046 8.9375H22.7655L23.1054 11.6562ZM22.2968 5.1875L22.5312 7.0625H8.46866L8.70304 5.1875H22.2968ZM8.23429 8.9375H10.6952C10.5214 9.60335 10.1684 10.2088 9.67464 10.6881C9.18086 11.1675 8.56516 11.5023 7.89444 11.6562L8.23429 8.9375ZM10.8933 25.8125H6.12491L7.64835 13.5934C8.86941 13.4637 10.0147 12.9387 10.9099 12.0983C11.8052 11.2578 12.4013 10.148 12.6077 8.9375H14.5624V11.6328L10.8933 25.8125ZM20.1042 25.8055L16.4374 11.6328V8.9375H18.3921C18.5985 10.148 19.1947 11.2578 20.0899 12.0983C20.9851 12.9387 22.1304 13.4637 23.3515 13.5934L24.8749 25.8125L20.1042 25.8055Z" fill="#333333"/>
</svg>
