<svg width="31" height="31" viewBox="0 0 31 31" fill="none" xmlns="http://www.w3.org/2000/svg">
<path fill-rule="evenodd" clip-rule="evenodd" d="M15.5069 8.07465C16.3162 8.07465 17.0923 7.75465 17.6645 7.18504C18.2368 6.61543 18.5583 5.84287 18.5583 5.03732C18.5583 4.23178 18.2368 3.45922 17.6645 2.88961C17.0923 2.32 16.3162 2 15.5069 2C14.6976 2 13.9215 2.32 13.3493 2.88961C12.777 3.45922 12.4555 4.23178 12.4555 5.03732C12.4555 5.84287 12.777 6.61543 13.3493 7.18504C13.9215 7.75465 14.6976 8.07465 15.5069 8.07465ZM24.9458 9.72155C25.0465 10.0653 25.0059 10.4347 24.8329 10.7486C24.66 11.0625 24.3689 11.2952 24.0236 11.3955C22.4125 11.8625 20.9573 12.2149 19.5754 12.4491V27.6485C19.5758 27.9962 19.4414 28.3307 19.2002 28.5822C18.959 28.8337 18.6296 28.9829 18.2806 28.9986C17.9317 29.0144 17.5901 28.8955 17.327 28.6667C17.0639 28.438 16.8997 28.117 16.8685 27.7707L16.1904 20.3461C16.1867 20.3055 16.1849 20.2647 16.185 20.2239H14.8288C14.8289 20.2647 14.8271 20.3055 14.8234 20.3461L14.1453 27.7707C14.1141 28.117 13.9499 28.438 13.6868 28.6667C13.4237 28.8955 13.0821 29.0144 12.7332 28.9986C12.3842 28.9829 12.0548 28.8337 11.8136 28.5822C11.5724 28.3307 11.438 27.9962 11.4384 27.6485V12.4241C10.0599 12.1879 8.61016 11.843 7.00718 11.4002C6.83392 11.3543 6.67153 11.2746 6.5294 11.1658C6.38728 11.057 6.26824 10.9212 6.17917 10.7663C6.0901 10.6114 6.03277 10.4405 6.0105 10.2634C5.98823 10.0863 6.00146 9.90656 6.04943 9.7346C6.09739 9.56263 6.17914 9.40183 6.28994 9.26151C6.40074 9.1212 6.53839 9.00414 6.69493 8.91712C6.85148 8.83011 7.0238 8.77485 7.20194 8.75455C7.38007 8.73426 7.56048 8.74933 7.73273 8.79888C10.8573 9.66148 13.2048 10.0894 15.513 10.0995C17.8158 10.1097 20.1578 9.70468 23.2641 8.80361C23.6094 8.70336 23.9806 8.74376 24.2959 8.9159C24.6113 9.08805 24.845 9.37785 24.9458 9.72155Z" fill="#333333"/>
</svg>
