<svg width="39" height="39" viewBox="0 0 39 39" fill="none" xmlns="http://www.w3.org/2000/svg">
<path d="M35.1769 4.09881C35.164 4.03629 35.1334 3.97878 35.0889 3.93304C35.0444 3.88729 34.9877 3.85522 34.9256 3.84058C30.7833 2.8275 21.2146 6.43728 16.025 11.6231C15.1001 12.5404 14.2568 13.5364 13.5045 14.5999C11.9049 14.4551 10.3053 14.577 8.94333 15.1711C5.09741 16.8622 3.97845 21.2786 3.66614 23.1745C3.64922 23.2784 3.65645 23.3848 3.68726 23.4854C3.71808 23.5861 3.77166 23.6783 3.84384 23.7549C3.91602 23.8315 4.00488 23.8904 4.10351 23.9272C4.20215 23.9639 4.30792 23.9774 4.41263 23.9667L10.5879 23.2888C10.5922 23.7546 10.6201 24.2198 10.6717 24.6827C10.7039 25.0027 10.8467 25.3014 11.0754 25.5275L13.4664 27.9185C13.6927 28.1474 13.9917 28.2902 14.3119 28.3222C14.7721 28.3735 15.2345 28.4015 15.6975 28.406L15.0203 34.5759C15.0098 34.6805 15.0234 34.7861 15.0601 34.8846C15.0969 34.9831 15.1558 35.0718 15.2323 35.1438C15.3088 35.2159 15.4008 35.2694 15.5013 35.3003C15.6018 35.3311 15.708 35.3384 15.8117 35.3217C17.7084 35.017 22.134 33.898 23.8151 30.0529C24.4093 28.6894 24.5311 27.0981 24.394 25.5062C25.4606 24.7546 26.4595 23.9112 27.3792 22.9856C32.5878 17.8059 36.1748 8.44746 35.1769 4.09881ZM22.7495 16.2756C22.2945 15.8208 21.9847 15.2413 21.8591 14.6103C21.7336 13.9793 21.7979 13.3253 22.0441 12.731C22.2902 12.1366 22.7071 11.6286 23.242 11.2712C23.7769 10.9137 24.4058 10.7229 25.0491 10.7229C25.6924 10.7229 26.3213 10.9137 26.8562 11.2712C27.3911 11.6286 27.808 12.1366 28.0541 12.731C28.3003 13.3253 28.3647 13.9793 28.2391 14.6103C28.1135 15.2413 27.8037 15.8208 27.3487 16.2756C27.047 16.578 26.6885 16.818 26.2939 16.9817C25.8993 17.1453 25.4763 17.2296 25.0491 17.2296C24.6219 17.2296 24.1989 17.1453 23.8043 16.9817C23.4097 16.818 23.0512 16.578 22.7495 16.2756Z" stroke="white" stroke-width="1.75" stroke-linecap="round" stroke-linejoin="round"/>
<path d="M8.35148 26.8125C7.59214 26.9057 6.8857 27.25 6.34436 27.7905C5.00221 29.1373 4.875 34.125 4.875 34.125C4.875 34.125 9.86578 33.9978 11.2087 32.6541C11.7515 32.1136 12.0963 31.406 12.1875 30.6455" stroke="white" stroke-width="1.75" stroke-linecap="round" stroke-linejoin="round"/>
</svg>
