<svg width="24" height="24" viewBox="0 0 24 24" fill="none" xmlns="http://www.w3.org/2000/svg">
<path fill-rule="evenodd" clip-rule="evenodd" d="M16.1887 1.9998H7.59694C4.23814 1.9998 1.98242 4.3778 1.98242 7.9168V16.0838C1.98242 19.6218 4.23814 21.9998 7.59694 21.9998H16.1877C19.5465 21.9998 21.8042 19.6218 21.8042 16.0838V7.9168C21.8042 4.3778 19.5475 1.9998 16.1887 1.9998" fill="#CDCDD0"/>
<path fill-rule="evenodd" clip-rule="evenodd" d="M11.2134 11.2485H16.8627C17.269 11.2485 17.606 11.5885 17.606 11.9985V13.8485C17.606 14.2685 17.269 14.5985 16.8627 14.5985C16.4464 14.5985 16.1193 14.2685 16.1193 13.8485V12.7485H14.8012V13.8485C14.8012 14.2685 14.4642 14.5985 14.0579 14.5985C13.6416 14.5985 13.3146 14.2685 13.3146 13.8485V12.7485H11.2134C10.8963 13.8185 9.92503 14.5985 8.76545 14.5985C7.33829 14.5985 6.17871 13.4385 6.17871 11.9985C6.17871 10.5685 7.33829 9.3985 8.76545 9.3985C9.92503 9.3985 10.8963 10.1785 11.2134 11.2485ZM7.66534 11.9985C7.66534 12.6085 8.16089 13.0985 8.76545 13.0985C9.36011 13.0985 9.85565 12.6085 9.85565 11.9985C9.85565 11.3885 9.36011 10.8985 8.76545 10.8985C8.16089 10.8985 7.66534 11.3885 7.66534 11.9985Z" fill="#040415"/>
</svg>
