<svg width="24" height="24" viewBox="0 0 24 24" fill="none" xmlns="http://www.w3.org/2000/svg">
<path fill-rule="evenodd" clip-rule="evenodd" d="M21.1477 14.3701C20.9553 14.0701 20.6818 13.7701 20.3273 13.5801C20.0437 13.4401 19.8614 13.2101 19.6993 12.9401C19.1828 12.0801 19.4866 10.9501 20.3475 10.4401C21.3604 9.87009 21.6845 8.60009 21.0971 7.61009L20.4184 6.43009C19.8411 5.44009 18.5751 5.09009 17.5723 5.67009C16.681 6.15009 15.5365 5.83009 15.02 4.98009C14.8579 4.70009 14.7667 4.40009 14.787 4.10009C14.8174 3.71009 14.6958 3.34009 14.5135 3.04009C14.1388 2.42009 13.4602 2.00009 12.7107 2.00009H11.2825C10.5432 2.02009 9.86454 2.42009 9.48979 3.04009C9.29735 3.34009 9.18593 3.71009 9.20619 4.10009C9.22645 4.40009 9.13529 4.70009 8.97323 4.98009C8.45668 5.83009 7.31216 6.15009 6.43098 5.67009C5.41813 5.09009 4.16219 5.44009 3.57474 6.43009L2.89613 7.61009C2.3188 8.60009 2.64292 9.87009 3.64564 10.4401C4.50656 10.9501 4.81042 12.0801 4.30399 12.9401C4.13181 13.2101 3.94949 13.4401 3.6659 13.5801C3.32153 13.7701 3.01767 14.0701 2.85562 14.3701C2.48086 14.9901 2.50112 15.7701 2.87587 16.4201L3.57474 17.6201C3.94949 18.2601 4.64836 18.6601 5.37761 18.6601C5.72198 18.6601 6.12712 18.5601 6.45124 18.3601C6.70445 18.1901 7.0083 18.1301 7.34254 18.1301C8.34527 18.1301 9.18593 18.9601 9.20619 19.9501C9.20619 21.1001 10.138 22.0001 11.3129 22.0001H12.6904C13.8552 22.0001 14.787 21.1001 14.787 19.9501C14.8174 18.9601 15.658 18.1301 16.6608 18.1301C16.9849 18.1301 17.2887 18.1901 17.5521 18.3601C17.8762 18.5601 18.2712 18.6601 18.6257 18.6601C19.3448 18.6601 20.0437 18.2601 20.4184 17.6201L21.1274 16.4201C21.4921 15.7501 21.5225 14.9901 21.1477 14.3701" fill="#B2F0E8"/>
<path fill-rule="evenodd" clip-rule="evenodd" d="M12.0118 14.8301C10.4216 14.8301 9.13525 13.5801 9.13525 12.0101C9.13525 10.4401 10.4216 9.18011 12.0118 9.18011C13.6019 9.18011 14.8579 10.4401 14.8579 12.0101C14.8579 13.5801 13.6019 14.8301 12.0118 14.8301" fill="#040415"/>
</svg>
