<svg width="31" height="31" viewBox="0 0 31 31" fill="none" xmlns="http://www.w3.org/2000/svg">
<g clip-path="url(#clip0_2092_546)">
<path fill-rule="evenodd" clip-rule="evenodd" d="M7.9674 5.3775C8.1574 5.04875 8.5274 4.7625 8.8624 4.7625C9.4624 4.7625 10.2336 5.3625 10.6999 5.72625C11.3986 6.27 12.2136 6.78625 13.0886 6.96625C13.7361 7.0975 14.5086 6.99875 15.1911 6.82C15.3036 6.79125 16.2711 6.4525 16.2711 6.4525C17.6111 5.83375 18.2061 7.5925 18.7349 8.45875C19.0974 9.05 19.5536 9.755 20.0724 10.4662C20.2795 10.4471 20.4882 10.48 20.6794 10.5619C20.8707 10.6437 21.0384 10.7721 21.1675 10.9352C21.2966 11.0983 21.383 11.2911 21.4188 11.496C21.4545 11.7009 21.4386 11.9115 21.3724 12.1087C21.7574 12.58 22.1224 13.0312 22.4686 13.4662C22.7085 13.3986 22.9631 13.4041 23.1998 13.4821C23.4364 13.5602 23.6444 13.7072 23.7969 13.9043C23.9494 14.1014 24.0395 14.3396 24.0556 14.5883C24.0717 14.837 24.0131 15.0848 23.8874 15.3C25.2274 17.0912 26.1499 18.5475 26.6824 19.8437C27.1324 20.9437 27.3249 21.9725 27.2411 23.0212C27.1574 24.055 26.8136 25.0187 26.3324 25.9912C25.6799 27.31 24.0799 27.6712 22.9086 26.995L4.50615 16.37C3.93196 16.0385 3.51299 15.4924 3.3414 14.852C3.1698 14.2116 3.25964 13.5292 3.59114 12.955L7.9674 5.3775ZM7.63239 10.9575L9.40615 7.88625C10.3611 8.56875 11.4274 9.1775 12.5874 9.415C13.7799 9.65875 14.9861 9.4575 15.8211 9.24C16.3349 9.10625 16.3261 9.31125 16.6024 9.7625C16.9174 10.2787 17.3074 10.8862 17.7524 11.52L17.6136 11.5887C17.4654 11.6608 17.333 11.7615 17.2238 11.885C17.1147 12.0085 17.031 12.1523 16.9777 12.3083C16.9244 12.4642 16.9024 12.6292 16.913 12.7936C16.9237 12.9581 16.9668 13.1188 17.0398 13.2666C17.1128 13.4143 17.2143 13.5462 17.3385 13.6546C17.4626 13.7629 17.607 13.8457 17.7633 13.898C17.9195 13.9504 18.0846 13.9714 18.249 13.9597C18.4134 13.948 18.5739 13.9039 18.7211 13.83L19.3124 13.5375C19.6099 13.9025 19.8924 14.25 20.1624 14.5875C19.8872 14.7529 19.6862 15.0178 19.6011 15.3273C19.516 15.6369 19.5532 15.9673 19.705 16.2502C19.8569 16.533 20.1118 16.7466 20.4169 16.8466C20.7219 16.9467 21.0538 16.9255 21.3436 16.7875L21.7336 16.595C23.0911 18.3912 23.9236 19.7037 24.3711 20.7925C24.7024 21.6012 24.7961 22.235 24.7499 22.8212C24.7036 23.4037 24.5099 24.0262 24.1274 24.8112L5.75739 14.205L6.38239 13.1225L11.7949 16.2475C12.0818 16.4106 12.4217 16.4537 12.7402 16.3672C13.0588 16.2807 13.3302 16.0717 13.4952 15.7859C13.6603 15.5 13.7056 15.1605 13.6212 14.8413C13.5368 14.5222 13.3297 14.2494 13.0449 14.0825L7.63239 10.9575Z" fill="#333333"/>
</g>
<defs>
<clipPath id="clip0_2092_546">
<rect width="30" height="30" fill="white" transform="matrix(-1 0 0 1 30.5 0.5)"/>
</clipPath>
</defs>
</svg>
