<svg width="10" height="10" viewBox="0 0 10 10" fill="none" xmlns="http://www.w3.org/2000/svg">
<g clip-path="url(#clip0_2001_2435)">
<path d="M0.833252 4.99999C0.833252 3.03583 0.833252 2.05374 1.44325 1.44333C2.05409 0.833328 3.03575 0.833328 4.99992 0.833328C6.96409 0.833328 7.94617 0.833328 8.55617 1.44333C9.16659 2.05416 9.16659 3.03583 9.16659 4.99999C9.16659 6.96416 9.16659 7.94624 8.55617 8.55624C7.94659 9.16666 6.96409 9.16666 4.99992 9.16666C3.03575 9.16666 2.05367 9.16666 1.44325 8.55624C0.833252 7.94666 0.833252 6.96416 0.833252 4.99999Z" stroke="white" stroke-opacity="0.75" stroke-width="0.5"/>
<path d="M2.9165 4.16666L3.87192 5.12207C3.95006 5.20019 4.05602 5.24407 4.1665 5.24407C4.27699 5.24407 4.38295 5.20019 4.46109 5.12207L5.12192 4.46124C5.20006 4.38313 5.30602 4.33925 5.4165 4.33925C5.52699 4.33925 5.63295 4.38313 5.71109 4.46124L7.08317 5.83332M7.08317 5.83332V4.79166M7.08317 5.83332H6.0415" stroke="white" stroke-opacity="0.75" stroke-width="0.5" stroke-linecap="round" stroke-linejoin="round"/>
</g>
<defs>
<clipPath id="clip0_2001_2435">
<rect width="10" height="10" fill="white"/>
</clipPath>
</defs>
</svg>
