<svg width="28" height="28" viewBox="0 0 28 28" fill="none" xmlns="http://www.w3.org/2000/svg">
<path d="M25.2 13.8057C24.8634 13.8082 24.53 13.8737 24.2158 13.9991L20.8586 11.1439C20.9412 10.8326 21 10.5097 21 10.1693C21 8.15332 19.4404 6.53296 17.5 6.53296C15.5596 6.53296 14 8.15332 14 10.1693C14 10.7453 14.14 11.2821 14.3668 11.765L10.2942 16.7657C10.1312 16.734 9.96584 16.717 9.8 16.7148C9.5494 16.7148 9.3128 16.7584 9.0832 16.8224L5.495 13.0944C5.558 12.8573 5.6 12.6115 5.6 12.3511C5.6 10.7395 4.3512 9.44205 2.8 9.44205C1.2488 9.44205 0 10.7395 0 12.3511C0 13.9628 1.2488 15.2602 2.8 15.2602C3.0506 15.2602 3.2872 15.2166 3.5168 15.1526L7.105 18.8806C7.0377 19.1223 7.00238 19.3723 7 19.6239C7 21.2355 8.2488 22.533 9.8 22.533C11.3512 22.533 12.6 21.2355 12.6 19.6239C12.6 19.2791 12.5328 18.9548 12.4278 18.6479L16.506 13.6413C16.8238 13.7373 17.1528 13.8057 17.5 13.8057C18.0525 13.8025 18.5963 13.6624 19.0862 13.397L22.4448 16.2522C22.4185 16.405 22.4035 16.5596 22.4 16.7148C22.4 18.3264 23.6488 19.6239 25.2 19.6239C26.7512 19.6239 28 18.3264 28 16.7148C28 15.1031 26.7512 13.8057 25.2 13.8057Z" fill="black"/>
</svg>
