<svg width="120" height="116" viewBox="0 0 120 116" fill="none" xmlns="http://www.w3.org/2000/svg">
<g opacity="0.2" clip-path="url(#clip0_2001_2465)">
<path d="M89.0991 63.8756C89.1922 71.148 86.7836 78.2458 82.2485 84.0641C77.7134 89.8823 71.3062 94.0944 64.0246 96.0444C56.743 97.9945 48.9957 97.5732 41.9888 94.846C34.982 92.1187 29.1089 87.2388 25.284 80.9658C21.4592 74.6929 19.8972 67.3791 20.8413 60.1632C21.7855 52.9473 25.1827 46.2342 30.5041 41.0693C35.8254 35.9044 42.7723 32.5774 50.263 31.6065C57.7537 30.6356 65.3679 32.0751 71.9199 35.701L77.2355 28.9249L84.0725 33.8907L78.7569 40.6668C83.2835 44.884 86.3677 50.1189 87.9089 55.679L96.6673 54.5015L97.8575 62.6982L89.1249 63.8427L89.0991 63.8756ZM39.3682 84.038C44.808 87.9891 51.6562 89.6989 58.4063 88.7914C65.1563 87.884 71.2553 84.4335 75.3614 79.1991C79.4675 73.9647 81.2445 67.3751 80.3014 60.8801C79.3583 54.385 75.7724 48.5164 70.3325 44.5654C64.8927 40.6143 58.0444 38.9045 51.2944 39.8119C44.5444 40.7194 38.4454 44.1699 34.3393 49.4043C30.2332 54.6387 28.4562 61.2282 29.3993 67.7233C30.3424 74.2184 33.9283 80.087 39.3682 84.038ZM75.5592 17.3803L96.0702 32.2777L90.9095 38.8565L70.3985 23.9591L75.5592 17.3803ZM71.2321 57.921L72.4222 66.1177L51.2378 68.9068L50.0302 60.8008L71.2321 57.921Z" fill="white"/>
</g>
<defs>
<clipPath id="clip0_2001_2465">
<rect width="84.5009" height="83.6143" fill="white" transform="matrix(0.809106 0.587663 -0.617207 0.786801 51.6296 0)"/>
</clipPath>
</defs>
</svg>
