<svg width="31" height="31" viewBox="0 0 31 31" fill="none" xmlns="http://www.w3.org/2000/svg">
<g clip-path="url(#clip0_2092_554)">
<path fill-rule="evenodd" clip-rule="evenodd" d="M9.40128 7.11625L4.76753 11.75L6.61503 13.5975L7.60003 12.2825C8.34753 11.2862 9.93378 11.8588 9.87128 13.1038L9.38003 22.9375C9.37157 23.1066 9.39755 23.2757 9.45641 23.4345C9.51527 23.5933 9.60577 23.7384 9.72244 23.8612C9.8391 23.9839 9.97948 24.0817 10.1351 24.1485C10.2907 24.2153 10.4582 24.2499 10.6275 24.25H20.3725C20.5419 24.2499 20.7094 24.2153 20.865 24.1485C21.0206 24.0817 21.161 23.9839 21.2776 23.8612C21.3943 23.7384 21.4848 23.5933 21.5437 23.4345C21.6025 23.2757 21.6285 23.1066 21.62 22.9375L21.1288 13.1038C21.0663 11.8588 22.6525 11.2862 23.4 12.2825L24.385 13.5975L26.2325 11.75L21.5988 7.11625C21.125 6.64375 20.4375 6.75 19.8313 6.75C19.3925 7.51043 18.7612 8.14187 18.0009 8.58074C17.2405 9.01962 16.378 9.25045 15.5 9.25C14.6221 9.25045 13.7596 9.01962 12.9992 8.58074C12.2388 8.14187 11.6075 7.51043 11.1688 6.75C10.5613 6.75 9.87378 6.64375 9.40128 7.11625ZM7.63378 5.34875C8.33688 4.64544 9.29055 4.25021 10.285 4.25H11.875C12.465 4.25 12.965 4.62125 13.1625 5.1375C13.343 5.61131 13.6631 6.01909 14.0806 6.30682C14.498 6.59454 14.993 6.74861 15.5 6.74861C16.007 6.74861 16.5021 6.59454 16.9195 6.30682C17.3369 6.01909 17.6571 5.61131 17.8375 5.1375C18.035 4.62125 18.535 4.25 19.125 4.25H20.715C21.7091 4.25054 22.6622 4.64575 23.365 5.34875L28 9.9825C28.4687 10.4513 28.732 11.0871 28.732 11.75C28.732 12.4129 28.4687 13.0487 28 13.5175L26.1525 15.365C25.5025 16.015 24.595 16.2263 23.7775 16.0225L24.1175 22.8125C24.1429 23.3201 24.0649 23.8275 23.8882 24.304C23.7115 24.7805 23.4397 25.2161 23.0895 25.5844C22.7392 25.9527 22.3178 26.2459 21.8507 26.4462C21.3837 26.6466 20.8808 26.75 20.3725 26.75H10.6275C10.1193 26.75 9.61641 26.6466 9.14935 26.4462C8.6823 26.2459 8.26085 25.9527 7.9106 25.5844C7.56035 25.2161 7.28861 24.7805 7.11188 24.304C6.93515 23.8275 6.85712 23.3201 6.88253 22.8125L7.22253 16.0225C6.80361 16.1279 6.36451 16.1227 5.94819 16.0074C5.53188 15.8922 5.15262 15.6708 4.84753 15.365L3.00003 13.5175C2.53135 13.0487 2.26807 12.4129 2.26807 11.75C2.26807 11.0871 2.53135 10.4513 3.00003 9.9825L7.63378 5.34875Z" fill="#333333"/>
</g>
<defs>
<clipPath id="clip0_2092_554">
<rect width="30" height="30" fill="white" transform="translate(0.5 0.5)"/>
</clipPath>
</defs>
</svg>
