<svg width="28" height="28" viewBox="0 0 28 28" fill="none" xmlns="http://www.w3.org/2000/svg">
<path d="M13.9998 4.66666C15.2375 4.66666 16.4245 5.15832 17.2997 6.03349C18.1748 6.90866 18.6665 8.09565 18.6665 9.33332C18.6665 10.571 18.1748 11.758 17.2997 12.6332C16.4245 13.5083 15.2375 14 13.9998 14C12.7622 14 11.5752 13.5083 10.7 12.6332C9.82484 11.758 9.33317 10.571 9.33317 9.33332C9.33317 8.09565 9.82484 6.90866 10.7 6.03349C11.5752 5.15832 12.7622 4.66666 13.9998 4.66666ZM13.9998 16.3333C19.1565 16.3333 23.3332 18.4217 23.3332 21V23.3333H4.6665V21C4.6665 18.4217 8.84317 16.3333 13.9998 16.3333Z" fill="black" fill-opacity="0.75"/>
<path d="M25.3281 9.67188L21.6719 13.3281M21.6719 9.67188L25.3281 13.3281" stroke="black" stroke-opacity="0.75" stroke-width="1.5" stroke-linecap="round" stroke-linejoin="round"/>
</svg>
