<svg width="16" height="16" viewBox="0 0 16 16" fill="none" xmlns="http://www.w3.org/2000/svg">
<path fill-rule="evenodd" clip-rule="evenodd" d="M4.84045 6.56549C5.67162 5.80049 6.7812 5.33334 7.99989 5.33334C9.21858 5.33334 10.3282 5.80049 11.1593 6.56549L13.2066 2.8122C13.5701 2.14582 13.0878 1.33334 12.3287 1.33334H10.1178C9.63358 1.33334 9.18742 1.59587 8.95226 2.01915L7.99987 3.73345L7.04749 2.01915C6.81233 1.59587 6.36616 1.33334 5.88194 1.33334H3.67109C2.91203 1.33334 2.42972 2.14582 2.7932 2.8122L4.84045 6.56549Z" fill="#FFCD6D"/>
<path d="M12.6666 10C12.6666 12.5773 10.5772 14.6667 7.99992 14.6667C5.42259 14.6667 3.33325 12.5773 3.33325 10C3.33325 7.42268 5.42259 5.33334 7.99992 5.33334C10.5772 5.33334 12.6666 7.42268 12.6666 10Z" fill="#FEA800"/>
<path fill-rule="evenodd" clip-rule="evenodd" d="M8.00008 11.3333C8.73646 11.3333 9.33341 10.7364 9.33341 9.99999C9.33341 9.26361 8.73646 8.66666 8.00008 8.66666C7.2637 8.66666 6.66675 9.26361 6.66675 9.99999C6.66675 10.7364 7.2637 11.3333 8.00008 11.3333Z" fill="#FFCD6D"/>
</svg>
